<?xml version="1.0" encoding="UTF-8" standalone="no"?>
<!-- Created with Inkscape (http://www.inkscape.org/) -->
<svg xmlns:dc="http://purl.org/dc/elements/1.1/" xmlns:cc="http://creativecommons.org/ns#" xmlns:rdf="http://www.w3.org/1999/02/22-rdf-syntax-ns#" xmlns:svg="http://www.w3.org/2000/svg" xmlns="http://www.w3.org/2000/svg" xmlns:sodipodi="http://sodipodi.sourceforge.net/DTD/sodipodi-0.dtd" xmlns:inkscape="http://www.inkscape.org/namespaces/inkscape" width="875.52002" height="389.51999" id="svg7124" sodipodi:version="0.32" inkscape:version="0.48.4 r9939" version="1.0" sodipodi:docname="Tahoma2.svg" inkscape:output_extension="org.inkscape.output.svg.inkscape">
  <defs id="defs7126">
    <inkscape:perspective sodipodi:type="inkscape:persp3d" inkscape:vp_x="0 : 194.75999 : 1" inkscape:vp_y="0 : 1000 : 0" inkscape:vp_z="875.52002 : 194.75999 : 1" inkscape:persp3d-origin="437.76001 : 129.84 : 1" id="perspective2965"/>
  </defs>
  <sodipodi:namedview id="base" pagecolor="#ffffff" bordercolor="#666666" borderopacity="1.0" gridtolerance="10000" guidetolerance="10" objecttolerance="10" inkscape:pageopacity="0.0" inkscape:pageshadow="2" inkscape:zoom="1.2" inkscape:cx="365.01949" inkscape:cy="264.1134" inkscape:document-units="px" inkscape:current-layer="layer1" width="875.52px" height="389.52px" inkscape:window-width="1280" inkscape:window-height="962" inkscape:window-x="-8" inkscape:window-y="-8" showgrid="false" inkscape:window-maximized="1"/>
  <metadata id="metadata7129">
    <rdf:RDF>
      <cc:Work rdf:about="">
        <dc:format>image/svg+xml</dc:format>
        <dc:type rdf:resource="http://purl.org/dc/dcmitype/StillImage"/>
        <cc:license rdf:resource="http://creativecommons.org/licenses/by-nc-sa/2.5/"/>
        <dc:title/>
      </cc:Work>
      <cc:License rdf:about="http://creativecommons.org/licenses/by-nc-sa/2.5/">
        <cc:permits rdf:resource="http://web.resource.org/cc/Reproduction"/>
        <cc:permits rdf:resource="http://web.resource.org/cc/Distribution"/>
        <cc:requires rdf:resource="http://web.resource.org/cc/Notice"/>
        <cc:requires rdf:resource="http://web.resource.org/cc/Attribution"/>
        <cc:prohibits rdf:resource="http://web.resource.org/cc/CommercialUse"/>
        <cc:permits rdf:resource="http://web.resource.org/cc/DerivativeWorks"/>
        <cc:requires rdf:resource="http://web.resource.org/cc/ShareAlike"/>
      </cc:License>
    </rdf:RDF>
  </metadata>
  <g inkscape:label="Layer 1" inkscape:groupmode="layer" id="layer1">
    <g style="font-size:13px;font-style:normal;font-weight:normal;line-height:125%;fill:#000000;fill-opacity:1;stroke:none;font-family:Sans" id="text7132">
      <path d="m 35.918577,81.890503 16.557739,-48.724609 -18.554687,0 2.219604,-6.53125 44.457032,0 -2.219605,6.53125 -18.554687,0 -16.55774,48.724609 z" style="font-size:76px;font-style:italic;font-variant:normal;font-stretch:normal;text-align:start;line-height:125%;writing-mode:lr-tb;text-anchor:start;font-family:Tahoma;-inkscape-font-specification:Tahoma Italic" id="path2976"/>
      <path d="m 93.454344,71.685425 3.9104,-11.503906 c -1.708611,0.148459 -3.874869,0.35256 -6.498779,0.612304 -2.623969,0.259787 -4.794865,0.624695 -6.512695,1.094727 -2.048768,0.56903 -3.879108,1.441099 -5.491028,2.616211 -1.611954,1.175146 -2.7751,2.814142 -3.489441,4.916992 -0.807142,2.37501 -0.748772,4.168628 0.17511,5.380859 0.923854,1.212246 2.672245,1.818365 5.245178,1.81836 2.201802,5e-6 4.355303,-0.476232 6.46051,-1.428711 2.105157,-0.952467 4.172069,-2.121411 6.200745,-3.506836 z m -1.966797,5.789062 c -0.711292,0.420577 -1.671496,1.008142 -2.880615,1.762696 -1.209173,0.754559 -2.334823,1.354493 -3.376953,1.799804 -1.455019,0.64323 -2.816855,1.138021 -4.085511,1.484375 -1.268695,0.346353 -2.942094,0.51953 -5.020202,0.519532 -1.707044,-2e-6 -3.21809,-0.321616 -4.533142,-0.964844 -1.315072,-0.643229 -2.356067,-1.546223 -3.122986,-2.708985 -0.726731,-1.138017 -1.140346,-2.541987 -1.240845,-4.211914 -0.10051,-1.669913 0.164667,-3.432607 0.795532,-5.288086 0.97566,-2.869776 2.412101,-5.312808 4.309326,-7.329101 1.897205,-2.016255 4.358791,-3.618141 7.384766,-4.805664 2.687317,-1.063777 5.683509,-1.799779 8.988586,-2.208008 3.305024,-0.408176 6.822293,-0.711236 10.551819,-0.90918 l 0.452271,-1.335937 c 0.555057,-1.632782 0.755677,-2.950164 0.601867,-3.952149 -0.15389,-1.001919 -0.584124,-1.77503 -1.29071,-2.319336 -0.697383,-0.568975 -1.657588,-0.946253 -2.880615,-1.131836 -1.223096,-0.18551 -2.514965,-0.278284 -3.875611,-0.27832 -1.608101,3.6e-5 -3.582627,0.241247 -5.923584,0.723633 -2.341005,0.482457 -4.755431,1.181349 -7.243286,2.09668 l -0.408203,0 2.407471,-7.087891 c 1.413228,-0.371053 3.395485,-0.779255 5.946777,-1.224609 2.551242,-0.445271 5.002005,-0.667927 7.352295,-0.667969 2.845017,4.2e-5 5.168989,0.222698 6.971926,0.667969 1.80285,0.445354 3.28568,1.249389 4.44848,2.412109 1.12252,1.138059 1.74796,2.610063 1.87635,4.416016 0.12829,1.806022 -0.24899,4.007843 -1.13184,6.605468 l -9.63452,28.351563 -6.939453,0 z" style="font-size:76px;font-style:italic;font-variant:normal;font-stretch:normal;text-align:start;line-height:125%;writing-mode:lr-tb;text-anchor:start;font-family:Tahoma;-inkscape-font-specification:Tahoma Italic" id="path2978"/>
      <path d="m 139.34241,81.890503 -6.97657,0 8.02027,-23.601563 c 0.64783,-1.904922 1.15846,-3.679985 1.53192,-5.325195 0.37337,-1.645152 0.46885,-2.962533 0.28644,-3.952148 -0.21652,-1.039029 -0.74571,-1.81214 -1.58759,-2.319336 -0.84196,-0.507126 -2.14117,-0.760706 -3.89764,-0.760742 -1.73181,3.6e-5 -3.67696,0.463902 -5.83545,1.391601 -2.15856,0.927768 -4.36811,2.133822 -6.62866,3.618164 l -10.51819,30.949219 -6.97657,0 19.62391,-57.742188 6.97656,0 -7.10181,20.892579 c 2.70896,-1.85543 5.24592,-3.277955 7.6109,-4.267579 2.36492,-0.989541 4.67304,-1.484332 6.92438,-1.484375 4.08199,4.3e-5 6.81726,1.342164 8.20581,4.026368 1.38846,2.68428 1.21683,6.574576 -0.51489,11.670898 z" style="font-size:76px;font-style:italic;font-variant:normal;font-stretch:normal;text-align:start;line-height:125%;writing-mode:lr-tb;text-anchor:start;font-family:Tahoma;-inkscape-font-specification:Tahoma Italic" id="path2980"/>
      <path d="m 190.35388,61.183472 c -2.37041,6.976576 -5.88342,12.363615 -10.53906,16.161132 -4.65571,3.797527 -9.77912,5.696288 -15.37024,5.69629 -5.76434,-2e-6 -9.63144,-1.960612 -11.60132,-5.881836 -1.9699,-3.921216 -1.81141,-9.246406 0.47546,-15.975586 2.35489,-6.927056 5.88453,-12.30791 10.58893,-16.142578 4.70436,-3.834595 9.83976,-5.751911 15.40619,-5.751954 5.59111,4.3e-5 9.41955,1.911174 11.48535,5.733399 2.06571,3.822299 1.91727,9.209337 -0.44531,16.161133 z m -7.19922,0 c 1.8245,-5.368464 2.20294,-9.357718 1.13532,-11.967774 -1.06771,-2.609991 -3.40753,-3.915002 -7.01947,-3.915039 -3.63675,3.7e-5 -6.88189,1.305048 -9.73542,3.915039 -2.85357,2.610056 -5.19262,6.59931 -7.01715,11.967774 -1.7658,5.195328 -2.12143,9.135102 -1.06689,11.819336 1.05451,2.684251 3.40013,4.026372 7.03686,4.026367 3.58722,5e-6 6.81225,-1.317377 9.67511,-3.952149 2.8628,-2.634754 5.19335,-6.599268 6.99164,-11.893554 z" style="font-size:76px;font-style:italic;font-variant:normal;font-stretch:normal;text-align:start;line-height:125%;writing-mode:lr-tb;text-anchor:start;font-family:Tahoma;-inkscape-font-specification:Tahoma Italic" id="path2982"/>
      <path d="m 237.53381,81.890503 8.14783,-23.972656 c 0.64626,-1.904922 1.17082,-3.667616 1.57367,-5.288086 0.40273,-1.620412 0.52449,-2.888314 0.36529,-3.803711 -0.15932,-0.989549 -0.61661,-1.719366 -1.37188,-2.189453 -0.75539,-0.470017 -1.91236,-0.705042 -3.47089,-0.705078 -1.43495,3.6e-5 -3.1242,0.439163 -5.06775,1.317382 -1.94365,0.878289 -4.07512,2.146192 -6.39441,3.803711 -0.1191,0.420604 -0.25865,0.92158 -0.41864,1.50293 -0.16008,0.581409 -0.37462,1.267932 -0.64361,2.05957 l -9.27039,27.275391 -6.97656,0 8.14782,-23.972656 c 0.64629,-1.904922 1.17085,-3.667616 1.57367,-5.288086 0.40276,-1.620412 0.52452,-2.888314 0.3653,-3.803711 -0.1593,-0.989549 -0.6166,-1.719366 -1.37189,-2.189453 -0.75536,-0.470017 -1.91233,-0.705042 -3.47088,-0.705078 -1.50915,3.6e-5 -3.25213,0.470087 -5.22895,1.410156 -1.97687,0.940138 -3.99276,2.140006 -6.04766,3.599609 l -10.51819,30.949219 -6.97657,0 14.08765,-41.451172 6.97656,0 -1.56555,4.601563 c 2.45383,-1.830691 4.74765,-3.247031 6.88147,-4.249024 2.13376,-1.001911 4.27682,-1.502887 6.4292,-1.50293 2.44918,4.3e-5 4.43105,0.556683 5.94562,1.669922 1.51448,1.113321 2.33359,2.944049 2.45733,5.492188 2.90067,-2.350223 5.55901,-4.131471 7.97504,-5.34375 2.41592,-1.212198 4.79903,-1.818317 7.14935,-1.81836 1.78119,4.3e-5 3.30731,0.278363 4.57837,0.834961 1.27093,0.556682 2.24041,1.453491 2.90845,2.69043 0.68336,1.261757 1.00884,2.832719 0.97644,4.712891 -0.0325,1.88024 -0.53197,4.242868 -1.49829,7.08789 l -9.27039,27.275391 z" style="font-size:76px;font-style:italic;font-variant:normal;font-stretch:normal;text-align:start;line-height:125%;writing-mode:lr-tb;text-anchor:start;font-family:Tahoma;-inkscape-font-specification:Tahoma Italic" id="path2984"/>
      <path d="m 280.93091,71.685425 3.9104,-11.503906 c -1.70861,0.148459 -3.87487,0.35256 -6.49878,0.612304 -2.62397,0.259787 -4.79487,0.624695 -6.5127,1.094727 -2.04877,0.56903 -3.87911,1.441099 -5.49103,2.616211 -1.61195,1.175146 -2.7751,2.814142 -3.48944,4.916992 -0.80714,2.37501 -0.74877,4.168628 0.17511,5.380859 0.92386,1.212246 2.67225,1.818365 5.24518,1.81836 2.2018,5e-6 4.3553,-0.476232 6.46051,-1.428711 2.10516,-0.952467 4.17207,-2.121411 6.20075,-3.506836 z m -1.9668,5.789062 c -0.71129,0.420577 -1.6715,1.008142 -2.88062,1.762696 -1.20917,0.754559 -2.33482,1.354493 -3.37695,1.799804 -1.45502,0.64323 -2.81685,1.138021 -4.08551,1.484375 -1.26869,0.346353 -2.94209,0.51953 -5.0202,0.519532 -1.70705,-2e-6 -3.21809,-0.321616 -4.53314,-0.964844 -1.31508,-0.643229 -2.35607,-1.546223 -3.12299,-2.708985 -0.72673,-1.138017 -1.14035,-2.541987 -1.24084,-4.211914 -0.10051,-1.669913 0.16466,-3.432607 0.79553,-5.288086 0.97566,-2.869776 2.4121,-5.312808 4.30932,-7.329101 1.89721,-2.016255 4.35879,-3.618141 7.38477,-4.805664 2.68732,-1.063777 5.68351,-1.799779 8.98859,-2.208008 3.30502,-0.408176 6.82229,-0.711236 10.55181,-0.90918 l 0.45228,-1.335937 c 0.55505,-1.632782 0.75567,-2.950164 0.60186,-3.952149 -0.15388,-1.001919 -0.58412,-1.77503 -1.29071,-2.319336 -0.69738,-0.568975 -1.65759,-0.946253 -2.88061,-1.131836 -1.2231,-0.18551 -2.51497,-0.278284 -3.87561,-0.27832 -1.6081,3.6e-5 -3.58263,0.241247 -5.92359,0.723633 -2.341,0.482457 -4.75543,1.181349 -7.24328,2.09668 l -0.40821,0 2.40747,-7.087891 c 1.41323,-0.371053 3.39549,-0.779255 5.94678,-1.224609 2.55124,-0.445271 5.00201,-0.667927 7.3523,-0.667969 2.84501,4.2e-5 5.16899,0.222698 6.97192,0.667969 1.80286,0.445354 3.28568,1.249389 4.44849,2.412109 1.12251,1.138059 1.74796,2.610063 1.87634,4.416016 0.12829,1.806022 -0.24899,4.007843 -1.13184,6.605468 l -9.63452,28.351563 -6.93945,0 z" style="font-size:76px;font-style:italic;font-variant:normal;font-stretch:normal;text-align:start;line-height:125%;writing-mode:lr-tb;text-anchor:start;font-family:Tahoma;-inkscape-font-specification:Tahoma Italic" id="path2986"/>
      <path d="m 317.56946,51.015503 -8.86914,0 3.59497,-10.576172 8.86914,0 z m -10.49268,30.875 -8.86914,0 3.59497,-10.576172 8.86914,0 z" style="font-size:76px;font-style:italic;font-variant:normal;font-stretch:normal;text-align:start;line-height:125%;writing-mode:lr-tb;text-anchor:start;font-family:Tahoma;-inkscape-font-specification:Tahoma Italic" id="path2988"/>
      <path d="m 35.918577,176.8905 0,-48.72461 -18.554687,0 0,-6.53125 44.457031,0 0,6.53125 -18.554688,0 0,48.72461 z" style="font-size:76px;font-variant:normal;font-stretch:normal;font-family:Tahoma;-inkscape-font-specification:Tahoma" id="path2990"/>
      <path d="m 99.412718,176.8905 -6.976563,0 0,-23.60156 c -3e-5,-1.90492 -0.0928,-3.67999 -0.27832,-5.32519 -0.185577,-1.64516 -0.538116,-2.96254 -1.057617,-3.95215 -0.569039,-1.03903 -1.360705,-1.81214 -2.375,-2.31934 -1.014349,-0.50713 -2.399764,-0.76071 -4.15625,-0.76074 -1.731792,3e-5 -3.519225,0.4639 -5.362305,1.3916 -1.843114,0.92777 -3.642917,2.13382 -5.399414,3.61816 l 0,30.94922 -6.976562,0 0,-57.74218 6.976562,0 0,20.89257 c 2.078111,-1.85543 4.131494,-3.27795 6.160156,-4.26757 2.028626,-0.98955 4.168598,-1.48434 6.419922,-1.48438 4.082003,4e-5 7.273406,1.34216 9.574219,4.02637 2.300745,2.68428 3.451134,6.57457 3.451172,11.6709 z" style="font-size:76px;font-variant:normal;font-stretch:normal;font-family:Tahoma;-inkscape-font-specification:Tahoma" id="path2992"/>
      <path d="m 127.28186,177.85535 c -6.60549,0 -11.73276,-1.86166 -15.38184,-5.58496 -3.64909,-3.7233 -5.47363,-9.01138 -5.47363,-15.86426 0,-6.75388 1.76888,-12.12855 5.30664,-16.12403 3.53775,-3.9954 8.16405,-5.99312 13.87891,-5.99316 2.57289,4e-5 4.84893,0.37114 6.82812,1.11328 1.97914,0.74223 3.71091,1.90499 5.19531,3.48828 1.48434,1.58337 2.62236,3.51924 3.41407,5.80762 0.79163,2.28844 1.18746,5.0902 1.1875,8.40527 l 0,3.78516 -28.72266,0 c -1e-5,4.82423 1.21223,8.51043 3.63672,11.05859 2.42446,2.54819 5.77667,3.82227 10.05664,3.82227 1.53383,0 3.03676,-0.17317 4.50879,-0.51953 1.47198,-0.34635 2.80173,-0.79166 3.98926,-1.33594 1.26168,-0.569 2.32548,-1.11946 3.1914,-1.65137 0.86585,-0.53189 1.5833,-1.03286 2.15235,-1.50293 l 0.4082,0 0,7.60743 c -0.81644,0.32161 -1.83076,0.72363 -3.04297,1.20605 -1.21227,0.48242 -2.30081,0.8597 -3.26562,1.13184 -1.36071,0.37109 -2.5915,0.65559 -3.69239,0.85351 -1.10093,0.19792 -2.49253,0.29688 -4.1748,0.29688 z m 8.16406,-26.31055 c -0.0495,-1.88018 -0.27217,-3.50062 -0.66797,-4.86133 -0.39586,-1.36064 -0.96487,-2.51103 -1.70703,-3.45117 -0.81643,-1.03903 -1.86168,-1.83069 -3.13574,-2.375 -1.27411,-0.54423 -2.85126,-0.81637 -4.73145,-0.81641 -1.85548,4e-5 -3.43263,0.27836 -4.73144,0.83496 -1.29884,0.55668 -2.48016,1.3669 -3.54395,2.43067 -1.03907,1.08857 -1.83074,2.29463 -2.375,3.61816 -0.54428,1.3236 -0.89063,2.86364 -1.03906,4.62012 z" style="font-size:76px;font-variant:normal;font-stretch:normal;font-family:Tahoma;-inkscape-font-specification:Tahoma" id="path2994"/>
      <path d="m 219.57287,190.39832 c -1.33598,0.34634 -2.73995,0.6061 -4.21191,0.77929 -1.47205,0.17316 -2.93787,0.25975 -4.39746,0.25977 -4.13155,-2e-5 -7.48995,-1.16278 -10.0752,-3.48828 -2.58531,-2.32553 -4.00165,-5.64063 -4.24902,-9.94532 -0.32164,0 -0.63089,0 -0.92773,0 -0.29691,0 -0.55667,0 -0.7793,0 -3.7357,0 -7.10647,-0.63704 -10.11231,-1.91113 -3.00587,-1.27409 -5.5726,-3.13574 -7.70019,-5.58496 -2.12761,-2.44921 -3.76042,-5.46744 -4.89844,-9.05469 -1.13802,-3.58722 -1.70703,-7.64451 -1.70703,-12.17187 0,-4.65101 0.57519,-8.73304 1.72559,-12.2461 1.15038,-3.51297 2.78938,-6.5312 4.91699,-9.05468 2.12759,-2.44917 4.69432,-4.31082 7.70019,-5.58496 3.00584,-1.27404 6.36424,-1.91108 10.0752,-1.91114 3.76039,6e-5 7.1497,0.65566 10.16797,1.9668 3.01819,1.31125 5.56636,3.15435 7.64453,5.5293 2.10282,2.42452 3.73563,5.43038 4.89844,9.01757 1.16271,3.58728 1.74409,7.68168 1.74414,12.28321 -5e-5,7.14976 -1.39784,13.05014 -4.19336,17.70117 -2.79562,4.65105 -6.61788,7.80534 -11.4668,9.46289 0.12366,1.38542 0.36487,2.62858 0.72363,3.72949 0.35869,1.10091 0.82256,1.97298 1.39161,2.61621 0.66793,0.76692 1.47815,1.32975 2.43066,1.68848 0.95243,0.35872 2.25744,0.53808 3.91504,0.53809 0.98954,-1e-5 2.1523,-0.15463 3.48828,-0.46387 1.33589,-0.30925 2.30073,-0.58757 2.89453,-0.83496 l 1.00195,0 z m -7.83007,-41.11719 c -5e-5,-3.66143 -0.39588,-6.90231 -1.1875,-9.72266 -0.79171,-2.82027 -1.90499,-5.15816 -3.33985,-7.01367 -1.45967,-1.9049 -3.22236,-3.33361 -5.28808,-4.28613 -2.06579,-0.95243 -4.38512,-1.42866 -6.95801,-1.42871 -2.6719,5e-5 -5.0036,0.46391 -6.99512,1.3916 -1.99155,0.92778 -3.75425,2.36886 -5.28808,4.32324 -1.45965,1.88025 -2.57912,4.24288 -3.3584,7.08789 -0.77931,2.84509 -1.16896,6.06123 -1.16895,9.64844 -10e-6,7.24872 1.52147,12.80275 4.56445,16.66211 3.04296,3.85938 7.12498,5.78906 12.2461,5.78906 5.12106,0 9.1969,-1.92968 12.22754,-5.78906 3.03055,-3.85936 4.54585,-9.41339 4.5459,-16.66211 z" style="font-size:76px;font-variant:normal;font-stretch:normal;font-family:Tahoma;-inkscape-font-specification:Tahoma" id="path2996"/>
      <path d="m 259.13147,176.8905 -6.97656,0 0,-4.60156 c -2.15238,1.88021 -4.19339,3.30892 -6.12305,4.28613 -1.92971,0.97722 -4.08205,1.46582 -6.45703,1.46582 -1.80601,0 -3.50685,-0.29687 -5.10254,-0.89062 -1.59572,-0.59375 -2.98732,-1.53385 -4.17481,-2.82031 -1.1875,-1.28646 -2.10905,-2.9069 -2.76464,-4.86133 -0.65561,-1.95442 -0.98341,-4.32942 -0.9834,-7.125 l 0,-26.9043 6.97656,0 0,23.60156 c -1e-5,2.20184 0.0804,4.02638 0.24121,5.47364 0.1608,1.44727 0.5257,2.71518 1.09473,3.80371 0.56899,1.06381 1.3421,1.8431 2.31933,2.33789 0.9772,0.4948 2.38117,0.74219 4.21192,0.74219 1.70701,0 3.52536,-0.48242 5.45507,-1.44727 1.92967,-0.96484 3.69854,-2.15233 5.30665,-3.5625 l 0,-30.94922 6.97656,0 z" style="font-size:76px;font-variant:normal;font-stretch:normal;font-family:Tahoma;-inkscape-font-specification:Tahoma" id="path2998"/>
      <path d="m 276.42444,176.8905 -6.97657,0 0,-41.45117 6.97657,0 z m 0.48242,-48.39062 -7.94141,0 0,-7.23633 7.94141,0 z" style="font-size:76px;font-variant:normal;font-stretch:normal;font-family:Tahoma;-inkscape-font-specification:Tahoma" id="path3000"/>
      <path d="m 303.14319,177.81824 c -2.84507,0 -5.4551,-0.43913 -7.83008,-1.31739 -2.37501,-0.87825 -4.41603,-2.208 -6.12305,-3.98925 -1.70704,-1.78125 -3.0306,-4.02636 -3.9707,-6.73535 -0.94011,-2.70898 -1.41016,-5.89419 -1.41016,-9.55567 0,-3.63669 0.48861,-6.77862 1.46582,-9.42578 0.97721,-2.6471 2.28222,-4.87366 3.91504,-6.67969 1.6328,-1.80595 3.66763,-3.19755 6.10449,-4.1748 2.43684,-0.97717 5.05304,-1.46578 7.84864,-1.46582 2.27601,4e-5 4.47165,0.32165 6.58691,0.96484 2.1152,0.64327 4.0016,1.38546 5.65918,2.22656 l 0,7.83008 -0.4082,0 c -0.49483,-0.42054 -1.13187,-0.90296 -1.91114,-1.44726 -0.77932,-0.54424 -1.72561,-1.10088 -2.83886,-1.66993 -0.96487,-0.49475 -2.10289,-0.92769 -3.41407,-1.29882 -1.31122,-0.37106 -2.57293,-0.55661 -3.78515,-0.55664 -3.612,3e-5 -6.51271,1.36689 -8.70215,4.10058 -2.18946,2.73375 -3.28419,6.59931 -3.28418,11.59668 -10e-6,4.89845 1.05761,8.71453 3.17285,11.44824 2.11522,2.73373 5.05304,4.10059 8.81348,4.10059 2.27602,0 4.44073,-0.47005 6.49414,-1.41016 2.05335,-0.94009 3.87171,-2.15233 5.45508,-3.63672 l 0.4082,0 0,7.83008 c -0.69274,0.32162 -1.55863,0.71127 -2.59766,1.16895 -1.03909,0.45768 -1.97919,0.79785 -2.82031,1.02051 -1.18753,0.34635 -2.25133,0.6123 -3.1914,0.79785 -0.94013,0.18554 -2.15237,0.27832 -3.63672,0.27832 z" style="font-size:76px;font-variant:normal;font-stretch:normal;font-family:Tahoma;-inkscape-font-specification:Tahoma" id="path3002"/>
      <path d="m 356.06116,176.8905 -9.16602,0 -15.47461,-20.00195 -2.74609,2.67187 0,17.33008 -6.97657,0 0,-57.74218 6.97657,0 0,33.80664 16.40234,-17.51563 8.68359,0 -17.0332,17.33008 z" style="font-size:76px;font-variant:normal;font-stretch:normal;font-family:Tahoma;-inkscape-font-specification:Tahoma" id="path3004"/>
      <path d="m 421.33655,159.93152 c -5e-5,2.74611 -0.51958,5.17058 -1.5586,7.27344 -1.0391,2.10287 -2.43689,3.83464 -4.19336,5.19531 -2.07816,1.63281 -4.30472,2.78939 -6.67968,3.46973 -2.37503,0.68033 -5.44274,1.0205 -9.20313,1.0205 l -15.8457,0 0,-55.25586 14.6582,0 c 3.93357,6e-5 6.88376,0.12994 8.85059,0.38965 1.96676,0.25982 3.85315,0.87213 5.65918,1.83692 1.97913,1.06385 3.42639,2.45545 4.34179,4.1748 0.91533,1.71945 1.37301,3.74191 1.37305,6.06738 -4e-5,2.5977 -0.68656,4.92322 -2.05957,6.97657 -1.37308,2.05342 -3.27185,3.66149 -5.69629,4.82421 l 0,0.29688 c 3.29033,0.89065 5.8385,2.51728 7.64453,4.87988 1.80595,2.36266 2.70894,5.31285 2.70899,8.85059 z m -10.24219,-24.78906 c -3e-5,-1.3359 -0.22269,-2.49247 -0.66797,-3.46973 -0.44534,-0.97717 -1.16279,-1.75028 -2.15234,-2.31934 -1.18753,-0.66792 -2.5111,-1.07612 -3.97071,-1.22461 -1.45966,-0.14838 -3.47593,-0.2226 -6.04883,-0.22265 l -7.05078,0 0,16.17969 8.34961,0 c 2.30076,3e-5 3.99542,-0.11748 5.08399,-0.35254 1.08851,-0.235 2.21416,-0.7236 3.37695,-1.46582 1.11325,-0.71742 1.90492,-1.65752 2.375,-2.82032 0.47002,-1.16272 0.70505,-2.59761 0.70508,-4.30468 z m 2.59765,25.08593 c -3e-5,-2.0781 -0.29691,-3.79132 -0.89062,-5.13964 -0.59378,-1.34829 -1.79365,-2.49249 -3.59961,-3.43262 -1.16279,-0.61847 -2.43069,-1.0143 -3.80371,-1.1875 -1.37307,-0.17315 -3.32131,-0.25974 -5.84473,-0.25977 l -8.34961,0 0,20.41016 5.97461,0 c 3.21613,0 5.75193,-0.14843 7.60742,-0.44531 1.85545,-0.29687 3.48826,-0.92773 4.89844,-1.89258 1.38539,-0.96484 2.39971,-2.05956 3.04297,-3.28418 0.64319,-1.2246 0.96481,-2.81411 0.96484,-4.76856 z" style="font-size:76px;font-variant:normal;font-stretch:normal;font-family:Tahoma;-inkscape-font-specification:Tahoma" id="path3006"/>
      <path d="m 450.09631,142.93542 -0.37109,0 c -0.51956,-0.1484 -1.07001,-0.24117 -1.65137,-0.27832 -0.5814,-0.0371 -1.2803,-0.0556 -2.09668,-0.0557 -1.88023,3e-5 -3.74807,0.40824 -5.60351,1.22461 -1.85549,0.81644 -3.612,2.02868 -5.26954,3.63672 l 0,29.42773 -6.97656,0 0,-41.45117 6.97656,0 0,6.16016 c 2.54817,-2.25127 4.76854,-3.84078 6.66114,-4.76856 1.89255,-0.92769 3.72947,-1.39156 5.51074,-1.3916 0.71742,4e-5 1.25551,0.0186 1.61426,0.0557 0.35869,0.0371 0.76071,0.0928 1.20605,0.16699 z" style="font-size:76px;font-variant:normal;font-stretch:normal;font-family:Tahoma;-inkscape-font-specification:Tahoma" id="path3008"/>
      <path d="m 489.69201,156.18347 c -3e-5,6.97658 -1.68232,12.36362 -5.04687,16.16113 -3.36461,3.79753 -7.84247,5.69629 -13.43359,5.69629 -5.76434,0 -10.29787,-1.96061 -13.60059,-5.88183 -3.30274,-3.92122 -4.9541,-9.24641 -4.9541,-15.97559 0,-6.92705 1.70084,-12.30791 5.10254,-16.14258 3.40168,-3.83459 7.88572,-5.75191 13.45215,-5.75195 5.59112,4e-5 10.06898,1.91117 13.43359,5.7334 3.36455,3.8223 5.04684,9.20934 5.04687,16.16113 z m -7.19921,0 c -4e-5,-5.36846 -0.97725,-9.35772 -2.93164,-11.96777 -1.95446,-2.60999 -4.73766,-3.915 -8.34961,-3.91504 -3.63674,4e-5 -6.43849,1.30505 -8.40528,3.91504 -1.9668,2.61005 -2.9502,6.59931 -2.95019,11.96777 -1e-5,5.19533 0.98339,9.1351 2.95019,11.81934 1.96679,2.68425 4.76854,4.02637 8.40528,4.02636 3.58721,1e-5 6.36423,-1.31737 8.33105,-3.95214 1.96677,-2.63476 2.95016,-6.59927 2.9502,-11.89356 z" style="font-size:76px;font-variant:normal;font-stretch:normal;font-family:Tahoma;-inkscape-font-specification:Tahoma" id="path3010"/>
      <path d="m 547.10022,135.43933 -10.50196,41.45117 -6.45703,0 -10.13086,-31.95117 -10.05664,31.95117 -6.41992,0 -10.61328,-41.45117 7.27344,0 7.31054,32.09961 9.83399,-32.09961 5.75195,0 10.09375,32.09961 6.90235,-32.09961 z" style="font-size:76px;font-variant:normal;font-stretch:normal;font-family:Tahoma;-inkscape-font-specification:Tahoma" id="path3012"/>
      <path d="m 585.84241,176.8905 -6.97657,0 0,-23.60156 c -3e-5,-1.90492 -0.0928,-3.67999 -0.27832,-5.32519 -0.18557,-1.64516 -0.53811,-2.96254 -1.05761,-3.95215 -0.56904,-1.03903 -1.36071,-1.81214 -2.375,-2.31934 -1.01435,-0.50713 -2.39977,-0.76071 -4.15625,-0.76074 -1.7318,3e-5 -3.51923,0.4639 -5.36231,1.3916 -1.84311,0.92777 -3.64292,2.13382 -5.39941,3.61816 l 0,30.94922 -6.97657,0 0,-41.45117 6.97657,0 0,4.60156 c 2.07811,-1.85543 4.13149,-3.27795 6.16015,-4.26757 2.02863,-0.98955 4.1686,-1.48434 6.41992,-1.48438 4.08201,4e-5 7.27341,1.34216 9.57422,4.02637 2.30075,2.68428 3.45114,6.57457 3.45118,11.6709 z" style="font-size:76px;font-variant:normal;font-stretch:normal;font-family:Tahoma;-inkscape-font-specification:Tahoma" id="path3014"/>
      <path d="m 56.068968,223.16589 -25.716797,0 0,15.58594 24.640625,0 0,6.53125 -24.640625,0 0,26.60742 -7.347656,0 0,-55.25586 33.064453,0 z" style="font-size:76px;font-variant:normal;font-stretch:normal;font-family:Tahoma;-inkscape-font-specification:Tahoma" id="path3016"/>
      <path d="m 96.184202,251.18347 c -3.9e-5,6.97658 -1.682329,12.36362 -5.046875,16.16113 -3.364614,3.79753 -7.842474,5.69629 -13.433594,5.69629 -5.764337,0 -10.297861,-1.96061 -13.600585,-5.88183 -3.302739,-3.92122 -4.954104,-9.24641 -4.954102,-15.97559 -2e-6,-6.92705 1.700842,-12.30791 5.102539,-16.14258 3.401682,-3.83459 7.885727,-5.75191 13.452148,-5.75195 5.59112,4e-5 10.06898,1.91117 13.433594,5.7334 3.364546,3.8223 5.046836,9.20934 5.046875,16.16113 z m -7.199219,0 c -3.2e-5,-5.36846 -0.977244,-9.35772 -2.93164,-11.96777 -1.954454,-2.60999 -4.737655,-3.915 -8.34961,-3.91504 -3.636735,4e-5 -6.43849,1.30505 -8.405273,3.91504 -1.966807,2.61005 -2.950205,6.59931 -2.950195,11.96777 -1e-5,5.19533 0.983388,9.1351 2.950195,11.81934 1.966783,2.68425 4.768538,4.02637 8.405273,4.02636 3.587216,10e-6 6.364231,-1.31737 8.331055,-3.95214 1.966766,-2.63476 2.950163,-6.59927 2.950195,-11.89356 z" style="font-size:76px;font-variant:normal;font-stretch:normal;font-family:Tahoma;-inkscape-font-specification:Tahoma" id="path3018"/>
      <path d="m 135.55725,271.8905 -8.57227,0 -10.05664,-15.66015 -10.35351,15.66015 -7.9043,0 14.39844,-20.55859 -14.250002,-20.89258 8.572262,0 9.98243,15.51172 10.24218,-15.51172 7.94141,0 -14.32422,20.41016 z" style="font-size:76px;font-variant:normal;font-stretch:normal;font-family:Tahoma;-inkscape-font-specification:Tahoma" id="path3020"/>
      <path d="m 186.17444,257.52917 c -3e-5,4.84897 -1.47822,8.58465 -4.43457,11.20704 -2.9564,2.62239 -6.92092,3.93359 -11.89356,3.93359 -1.18751,0 -2.77702,-0.10514 -4.76855,-0.31543 -1.99154,-0.21029 -3.65528,-0.46387 -4.99121,-0.76074 l 0,-7.01367 0.4082,0 c 1.01432,0.34636 2.26985,0.72982 3.7666,1.15039 1.49674,0.42058 3.02441,0.63086 4.58301,0.63086 2.27603,0 4.0882,-0.25976 5.43652,-0.7793 1.34829,-0.51953 2.34406,-1.26171 2.98731,-2.22656 0.66795,-0.98958 1.0947,-2.20182 1.28027,-3.63672 0.18553,-1.43488 0.2783,-3.09243 0.27832,-4.97266 l 0,-32.24805 -11.68945,0 0,-5.86328 19.03711,0 z" style="font-size:76px;font-variant:normal;font-stretch:normal;font-family:Tahoma;-inkscape-font-specification:Tahoma" id="path3022"/>
      <path d="m 228.70178,271.8905 -6.97656,0 0,-4.60156 c -2.15237,1.88021 -4.19339,3.30892 -6.12305,4.28613 -1.92971,0.97722 -4.08205,1.46582 -6.45703,1.46582 -1.80601,0 -3.50685,-0.29687 -5.10254,-0.89062 -1.59571,-0.59375 -2.98731,-1.53385 -4.1748,-2.82031 -1.18751,-1.28646 -2.10906,-2.9069 -2.76465,-4.86133 -0.65561,-1.95442 -0.98341,-4.32942 -0.9834,-7.125 l 0,-26.9043 6.97656,0 0,23.60156 c -10e-6,2.20184 0.0804,4.02638 0.24121,5.47364 0.1608,1.44727 0.52571,2.71518 1.09473,3.80371 0.569,1.06381 1.34211,1.8431 2.31934,2.33789 0.97719,0.4948 2.38116,0.74219 4.21191,0.74219 1.70701,0 3.52537,-0.48242 5.45508,-1.44727 1.92966,-0.96484 3.69854,-2.15233 5.30664,-3.5625 l 0,-30.94922 6.97656,0 z" style="font-size:76px;font-variant:normal;font-stretch:normal;font-family:Tahoma;-inkscape-font-specification:Tahoma" id="path3024"/>
      <path d="m 285.92444,271.8905 0,-23.97265 c -6e-5,-1.90493 -0.0743,-3.66762 -0.22266,-5.28809 -0.14849,-1.62041 -0.45773,-2.88831 -0.92773,-3.80371 -0.49485,-0.98955 -1.19992,-1.71937 -2.11524,-2.18945 -0.91541,-0.47002 -2.15239,-0.70505 -3.71094,-0.70508 -1.43494,3e-5 -2.97497,0.43916 -4.62011,1.31738 -1.64522,0.87829 -3.34607,2.14619 -5.10254,3.80371 0.0247,0.42061 0.0556,0.92158 0.0928,1.50293 0.0371,0.58141 0.0556,1.26793 0.0557,2.05957 l 0,27.27539 -6.97657,0 0,-23.97265 c -3e-5,-1.90493 -0.0742,-3.66762 -0.22265,-5.28809 -0.14847,-1.62041 -0.45771,-2.88831 -0.92774,-3.80371 -0.49482,-0.98955 -1.19989,-1.71937 -2.11523,-2.18945 -0.91539,-0.47002 -2.15237,-0.70505 -3.71094,-0.70508 -1.50913,3e-5 -3.09247,0.47009 -4.75,1.41015 -1.65757,0.94014 -3.26564,2.14001 -4.82422,3.59961 l 0,30.94922 -6.97656,0 0,-41.45117 6.97656,0 0,4.60156 c 1.83072,-1.83069 3.64289,-3.24703 5.43653,-4.24902 1.7936,-1.00191 3.76658,-1.50289 5.91894,-1.50293 2.44919,4e-5 4.62009,0.55668 6.5127,1.66992 1.89254,1.11332 3.33362,2.94405 4.32324,5.49219 2.10283,-2.35022 4.15621,-4.13147 6.16015,-5.34375 2.00387,-1.2122 4.18095,-1.81832 6.53125,-1.81836 1.78121,4e-5 3.40165,0.27836 4.86133,0.83496 1.45958,0.55668 2.73367,1.45349 3.82227,2.69043 1.11322,1.26176 1.97292,2.83272 2.5791,4.71289 0.60606,1.88024 0.90912,4.24287 0.90918,7.08789 l 0,27.27539 z" style="font-size:76px;font-variant:normal;font-stretch:normal;font-family:Tahoma;-inkscape-font-specification:Tahoma" id="path3026"/>
      <path d="m 337.46936,250.07019 c -4e-5,6.90236 -1.65141,12.40073 -4.9541,16.49512 -3.30277,4.0944 -7.47757,6.1416 -12.52442,6.1416 -2.0534,0 -3.87176,-0.23503 -5.45508,-0.70508 -1.58334,-0.47005 -3.20379,-1.19987 -4.86132,-2.18945 l 0,17.36719 -6.97657,0 0,-56.74024 6.97657,0 0,4.3418 c 1.73175,-1.55856 3.65525,-2.86357 5.7705,-3.91504 2.11522,-1.05139 4.42218,-1.57711 6.9209,-1.57715 4.74997,4e-5 8.45472,1.88025 11.11426,5.64063 2.65947,3.76045 3.98922,8.80732 3.98926,15.14062 z m -7.19922,0.7793 c -3e-5,-4.72524 -0.75459,-8.39288 -2.26367,-11.00293 -1.50915,-2.60999 -3.95836,-3.91501 -7.34766,-3.91504 -1.97919,3e-5 -3.89032,0.43916 -5.7334,1.31738 -1.84311,0.87829 -3.59344,2.01013 -5.25097,3.39551 l 0,23.49023 c 1.83071,0.89064 3.39549,1.49675 4.69433,1.81836 1.29881,0.32162 2.78937,0.48243 4.47168,0.48242 3.61196,10e-6 6.4199,-1.32356 8.42383,-3.9707 2.00387,-2.64712 3.00583,-6.51886 3.00586,-11.61523 z" style="font-size:76px;font-variant:normal;font-stretch:normal;font-family:Tahoma;-inkscape-font-specification:Tahoma" id="path3028"/>
      <path d="m 355.91272,272.89246 c -2.77085,0 -5.36232,-0.3711 -7.77442,-1.11329 -2.41211,-0.74218 -4.40983,-1.53385 -5.99316,-2.375 l 0,-7.83007 0.37109,0 c 0.59375,0.47006 1.29264,0.98959 2.09668,1.55859 0.80403,0.56902 1.87402,1.16277 3.20996,1.78125 1.18749,0.54428 2.49251,1.0267 3.91504,1.44727 1.42252,0.42057 2.9007,0.63086 4.43457,0.63086 1.11327,0 2.30077,-0.12988 3.5625,-0.38965 1.2617,-0.25976 2.2018,-0.58756 2.82032,-0.9834 0.86586,-0.56901 1.49053,-1.17512 1.87402,-1.81836 0.38344,-0.64322 0.57517,-1.60806 0.57519,-2.89453 -2e-5,-1.65754 -0.45152,-2.90689 -1.35449,-3.74805 -0.90302,-0.84113 -2.5049,-1.54621 -4.80566,-2.11523 -0.89064,-0.22264 -2.0534,-0.48241 -3.48828,-0.7793 -1.43491,-0.29686 -2.75848,-0.61847 -3.97071,-0.96484 -3.16667,-0.91535 -5.46745,-2.33169 -6.90234,-4.24903 -1.4349,-1.91729 -2.15235,-4.23662 -2.15234,-6.95801 -1e-5,-3.73564 1.41015,-6.7786 4.23047,-9.1289 2.8203,-2.35022 6.56834,-3.52535 11.24414,-3.52539 2.30076,4e-5 4.61391,0.28455 6.93945,0.85351 2.32549,0.56906 4.27992,1.2865 5.86328,2.15235 l 0,7.45898 -0.37109,0 c -1.78128,-1.41012 -3.76663,-2.5234 -5.95606,-3.33984 -2.18947,-0.81637 -4.39748,-1.22457 -6.62402,-1.22461 -2.3008,4e-5 -4.24285,0.48246 -5.82617,1.44726 -1.58335,0.96488 -2.37501,2.42452 -2.375,4.37891 -1e-5,1.7318 0.47004,3.02444 1.41015,3.87793 0.94009,0.85354 2.44921,1.55243 4.52735,2.09668 1.03904,0.27216 2.19562,0.53811 3.46972,0.79785 1.27407,0.25979 2.61619,0.56285 4.02637,0.90918 3.06768,0.76695 5.37465,2.04104 6.9209,3.82227 1.54619,1.78126 2.3193,4.20574 2.31933,7.27343 -3e-5,1.78126 -0.35257,3.46974 -1.05761,5.06543 -0.70511,1.59571 -1.73799,2.96257 -3.09864,4.10059 -1.4844,1.23698 -3.1605,2.17708 -5.02832,2.82031 -1.86786,0.64323 -4.21193,0.96485 -7.03222,0.96485 z" style="font-size:76px;font-variant:normal;font-stretch:normal;font-family:Tahoma;-inkscape-font-specification:Tahoma" id="path3030"/>
      <path d="m 442.08069,222.98035 c 2.10281,2.42452 3.73563,5.43038 4.89843,9.01757 1.16271,3.58728 1.74409,7.68168 1.74414,12.28321 -5e-5,4.47789 -0.56906,8.5228 -1.70703,12.13476 -1.13807,3.61199 -2.78325,6.64259 -4.93554,9.0918 -2.25135,2.57292 -4.87993,4.47168 -7.88575,5.69629 -3.00589,1.22461 -6.3148,1.83691 -9.92675,1.83691 -3.7357,0 -7.10028,-0.63086 -10.09375,-1.89257 -2.99351,-1.26172 -5.56642,-3.14193 -7.71875,-5.64063 -2.12761,-2.44921 -3.76043,-5.46744 -4.89844,-9.05469 -1.13802,-3.58722 -1.70703,-7.64451 -1.70703,-12.17187 0,-4.65101 0.57519,-8.73304 1.72558,-12.2461 1.15039,-3.51297 2.78938,-6.5312 4.917,-9.05468 2.12759,-2.44917 4.69432,-4.31082 7.70019,-5.58496 3.00584,-1.27404 6.36424,-1.91108 10.0752,-1.91114 3.76038,6e-5 7.1497,0.65566 10.16797,1.9668 3.01818,1.31125 5.56636,3.15435 7.64453,5.5293 z m -1.00196,21.30078 c -4e-5,-3.66143 -0.39587,-6.90231 -1.1875,-9.72266 -0.7917,-2.82027 -1.90499,-5.15816 -3.33984,-7.01367 -1.45967,-1.9049 -3.22237,-3.33361 -5.28809,-4.28613 -2.06578,-0.95243 -4.38512,-1.42866 -6.958,-1.42871 -2.6719,5e-5 -5.00361,0.46391 -6.99512,1.3916 -1.99156,0.92778 -3.75425,2.36886 -5.28809,4.32324 -1.45965,1.88025 -2.57911,4.24288 -3.3584,7.08789 -0.7793,2.84509 -1.16895,6.06123 -1.16894,9.64844 -1e-5,7.24872 1.52147,12.79656 4.56445,16.64355 3.04295,3.84701 7.12498,5.77052 12.2461,5.77051 5.12106,10e-6 9.1969,-1.9235 12.22754,-5.77051 3.03055,-3.84699 4.54585,-9.39483 4.54589,-16.64355 z" style="font-size:76px;font-variant:normal;font-stretch:normal;font-family:Tahoma;-inkscape-font-specification:Tahoma" id="path3032"/>
      <path d="m 488.76428,230.43933 -15.62305,41.45117 -6.27148,0 -15.51172,-41.45117 7.5332,0 11.35547,31.98828 11.24414,-31.98828 z" style="font-size:76px;font-variant:normal;font-stretch:normal;font-family:Tahoma;-inkscape-font-specification:Tahoma" id="path3034"/>
      <path d="m 512.03186,272.85535 c -6.60549,0 -11.73276,-1.86166 -15.38184,-5.58496 -3.64909,-3.7233 -5.47363,-9.01138 -5.47363,-15.86426 0,-6.75388 1.76888,-12.12855 5.30664,-16.12403 3.53775,-3.9954 8.16405,-5.99312 13.87891,-5.99316 2.57289,4e-5 4.84893,0.37114 6.82812,1.11328 1.97914,0.74223 3.71091,1.90499 5.19531,3.48828 1.48434,1.58337 2.62236,3.51924 3.41407,5.80762 0.79163,2.28844 1.18746,5.0902 1.1875,8.40527 l 0,3.78516 -28.72266,0 c -10e-6,4.82423 1.21223,8.51043 3.63672,11.05859 2.42446,2.54819 5.77667,3.82227 10.05664,3.82227 1.53383,0 3.03676,-0.17317 4.50879,-0.51953 1.47198,-0.34635 2.80173,-0.79166 3.98926,-1.33594 1.26168,-0.569 2.32548,-1.11946 3.1914,-1.65137 0.86585,-0.53189 1.5833,-1.03286 2.15235,-1.50293 l 0.4082,0 0,7.60743 c -0.81644,0.32161 -1.83076,0.72363 -3.04297,1.20605 -1.21227,0.48242 -2.30081,0.8597 -3.26562,1.13184 -1.36071,0.37109 -2.5915,0.65559 -3.69239,0.85351 -1.10093,0.19792 -2.49253,0.29688 -4.1748,0.29688 z m 8.16406,-26.31055 c -0.0495,-1.88018 -0.27217,-3.50062 -0.66797,-4.86133 -0.39586,-1.36064 -0.96487,-2.51103 -1.70703,-3.45117 -0.81643,-1.03903 -1.86168,-1.83069 -3.13574,-2.375 -1.27411,-0.54423 -2.85126,-0.81637 -4.73145,-0.81641 -1.85548,4e-5 -3.43263,0.27836 -4.73144,0.83496 -1.29884,0.55668 -2.48016,1.3669 -3.54395,2.43067 -1.03907,1.08857 -1.83074,2.29463 -2.375,3.61816 -0.54428,1.3236 -0.89063,2.86364 -1.03906,4.62012 z" style="font-size:76px;font-variant:normal;font-stretch:normal;font-family:Tahoma;-inkscape-font-specification:Tahoma" id="path3036"/>
      <path d="m 556.08069,237.93542 -0.3711,0 c -0.51955,-0.1484 -1.07001,-0.24117 -1.65136,-0.27832 -0.58141,-0.0371 -1.2803,-0.0556 -2.09668,-0.0557 -1.88023,3e-5 -3.74807,0.40824 -5.60352,1.22461 -1.85548,0.81644 -3.61199,2.02868 -5.26953,3.63672 l 0,29.42773 -6.97656,0 0,-41.45117 6.97656,0 0,6.16016 c 2.54816,-2.25127 4.76854,-3.84078 6.66113,-4.76856 1.89256,-0.92769 3.72947,-1.39156 5.51074,-1.3916 0.71743,4e-5 1.25551,0.0186 1.61426,0.0557 0.3587,0.0371 0.76072,0.0928 1.20606,0.16699 z" style="font-size:76px;font-variant:normal;font-stretch:normal;font-family:Tahoma;-inkscape-font-specification:Tahoma" id="path3038"/>
      <path d="m 35.918577,366.8905 0,-48.72461 -18.554687,0 0,-6.53125 44.457031,0 0,6.53125 -18.554688,0 0,48.72461 z" style="font-size:76px;font-variant:normal;font-stretch:normal;font-family:Tahoma;-inkscape-font-specification:Tahoma" id="path3040"/>
      <path d="m 99.412718,366.8905 -6.976563,0 0,-23.60156 c -3e-5,-1.90492 -0.0928,-3.67999 -0.27832,-5.32519 -0.185577,-1.64516 -0.538116,-2.96254 -1.057617,-3.95215 -0.569039,-1.03903 -1.360705,-1.81214 -2.375,-2.31934 -1.014349,-0.50713 -2.399764,-0.76071 -4.15625,-0.76074 -1.731792,3e-5 -3.519225,0.4639 -5.362305,1.3916 -1.843114,0.92777 -3.642917,2.13382 -5.399414,3.61816 l 0,30.94922 -6.976562,0 0,-57.74218 6.976562,0 0,20.89257 c 2.078111,-1.85543 4.131494,-3.27795 6.160156,-4.26757 2.028626,-0.98955 4.168598,-1.48434 6.419922,-1.48438 4.082003,4e-5 7.273406,1.34216 9.574219,4.02637 2.300745,2.68428 3.451134,6.57457 3.451172,11.6709 z" style="font-size:76px;font-variant:normal;font-stretch:normal;font-family:Tahoma;-inkscape-font-specification:Tahoma" id="path3042"/>
      <path d="m 127.28186,367.85535 c -6.60549,0 -11.73276,-1.86166 -15.38184,-5.58496 -3.64909,-3.7233 -5.47363,-9.01138 -5.47363,-15.86426 0,-6.75388 1.76888,-12.12855 5.30664,-16.12403 3.53775,-3.9954 8.16405,-5.99312 13.87891,-5.99316 2.57289,4e-5 4.84893,0.37114 6.82812,1.11328 1.97914,0.74223 3.71091,1.90499 5.19531,3.48828 1.48434,1.58337 2.62236,3.51924 3.41407,5.80762 0.79163,2.28844 1.18746,5.0902 1.1875,8.40527 l 0,3.78516 -28.72266,0 c -1e-5,4.82423 1.21223,8.51043 3.63672,11.05859 2.42446,2.54819 5.77667,3.82227 10.05664,3.82227 1.53383,0 3.03676,-0.17317 4.50879,-0.51953 1.47198,-0.34635 2.80173,-0.79166 3.98926,-1.33594 1.26168,-0.569 2.32548,-1.11946 3.1914,-1.65137 0.86585,-0.53189 1.5833,-1.03286 2.15235,-1.50293 l 0.4082,0 0,7.60743 c -0.81644,0.32161 -1.83076,0.72363 -3.04297,1.20605 -1.21227,0.48242 -2.30081,0.8597 -3.26562,1.13184 -1.36071,0.37109 -2.5915,0.65559 -3.69239,0.85351 -1.10093,0.19792 -2.49253,0.29688 -4.1748,0.29688 z m 8.16406,-26.31055 c -0.0495,-1.88018 -0.27217,-3.50062 -0.66797,-4.86133 -0.39586,-1.36064 -0.96487,-2.51103 -1.70703,-3.45117 -0.81643,-1.03903 -1.86168,-1.83069 -3.13574,-2.375 -1.27411,-0.54423 -2.85126,-0.81637 -4.73145,-0.81641 -1.85548,4e-5 -3.43263,0.27836 -4.73144,0.83496 -1.29884,0.55668 -2.48016,1.3669 -3.54395,2.43067 -1.03907,1.08857 -1.83074,2.29463 -2.375,3.61816 -0.54428,1.3236 -0.89063,2.86364 -1.03906,4.62012 z" style="font-size:76px;font-variant:normal;font-stretch:normal;font-family:Tahoma;-inkscape-font-specification:Tahoma" id="path3044"/>
      <path d="m 205.69397,366.8905 -32.02539,0 0,-55.25586 7.34765,0 0,48.72461 24.67774,0 z" style="font-size:76px;font-variant:normal;font-stretch:normal;font-family:Tahoma;-inkscape-font-specification:Tahoma" id="path3046"/>
      <path d="m 234.11975,356.68542 0,-11.5039 c -1.65758,0.14846 -3.75426,0.35256 -6.29004,0.6123 -2.53583,0.25979 -4.58303,0.6247 -6.1416,1.09473 -1.85548,0.56903 -3.38934,1.4411 -4.60156,2.61621 -1.21225,1.17515 -1.81837,2.81414 -1.81836,4.91699 -1e-5,2.37501 0.66796,4.16863 2.0039,5.38086 1.33593,1.21225 3.29035,1.81837 5.86328,1.81836 2.20181,10e-6 4.19334,-0.47623 5.97461,-1.42871 1.78123,-0.95247 3.45115,-2.12141 5.00977,-3.50684 z m 0,5.78907 c -0.56904,0.42057 -1.32978,1.00814 -2.28223,1.76269 -0.9525,0.75456 -1.87404,1.3545 -2.76465,1.79981 -1.237,0.64323 -2.43068,1.13802 -3.58105,1.48437 -1.15041,0.34636 -2.76467,0.51953 -4.84277,0.51953 -1.70705,0 -3.32749,-0.32161 -4.86133,-0.96484 -1.53386,-0.64323 -2.88217,-1.54622 -4.04492,-2.70898 -1.11329,-1.13802 -2.00391,-2.54199 -2.67188,-4.21192 -0.66797,-1.66991 -1.00195,-3.43261 -1.00195,-5.28808 0,-2.86978 0.60611,-5.31281 1.81836,-7.32911 1.21223,-2.01625 3.12955,-3.61814 5.75195,-4.80566 2.32551,-1.06378 5.0716,-1.79978 8.23828,-2.20801 3.16665,-0.40817 6.58071,-0.71123 10.24219,-0.90918 l 0,-1.33594 c -3e-5,-1.63278 -0.24742,-2.95016 -0.74219,-3.95214 -0.49482,-1.00192 -1.18752,-1.77503 -2.07812,-2.31934 -0.89065,-0.56897 -1.97919,-0.94625 -3.26563,-1.13184 -1.28648,-0.18551 -2.61004,-0.27828 -3.9707,-0.27832 -1.60809,4e-5 -3.50067,0.24125 -5.67774,0.72364 -2.17709,0.48245 -4.35417,1.18135 -6.53125,2.09668 l -0.4082,0 0,-7.08789 c 1.28645,-0.37106 3.12955,-0.77926 5.5293,-1.22461 2.39972,-0.44527 4.77472,-0.66793 7.125,-0.66797 2.84503,4e-5 5.24477,0.2227 7.19922,0.66797 1.9544,0.44535 3.7109,1.24939 5.26953,2.41211 1.50908,1.13806 2.63473,2.61006 3.37695,4.41601 0.74215,1.80602 1.11325,4.00785 1.11328,6.60547 l 0,28.35156 -6.93945,0 z" style="font-size:76px;font-variant:normal;font-stretch:normal;font-family:Tahoma;-inkscape-font-specification:Tahoma" id="path3048"/>
      <path d="m 278.13147,366.8905 -30.4668,0 0,-5.1582 21.67188,-30.54102 -20.78125,0 0,-5.75195 29.16796,0 0,4.97266 -21.7832,30.65234 22.19141,0 z" style="font-size:76px;font-variant:normal;font-stretch:normal;font-family:Tahoma;-inkscape-font-specification:Tahoma" id="path3050"/>
      <path d="m 317.31897,325.43933 -22.30274,56.74024 -7.45898,0 7.42187,-17.29297 -15.0664,-39.44727 7.5332,0 11.31836,30.68945 11.28125,-30.68945 z" style="font-size:76px;font-variant:normal;font-stretch:normal;font-family:Tahoma;-inkscape-font-specification:Tahoma" id="path3052"/>
      <path d="m 390.46155,339.31824 c -5e-5,5.04689 -1.02056,9.59897 -3.06153,13.65625 -2.04106,4.0573 -4.78096,7.22396 -8.21972,9.5 -2.79561,1.75651 -5.63448,2.93164 -8.51661,3.52539 -2.88218,0.59375 -6.56219,0.89062 -11.04003,0.89062 l -12.72852,0 0,-55.25586 12.58008,0 c 5.19529,6e-5 9.27113,0.38971 12.22754,1.16895 2.95634,0.77935 5.47359,1.84933 7.55175,3.20996 3.56246,2.35031 6.32092,5.47368 8.2754,9.37012 1.95437,3.89652 2.93159,8.54137 2.93164,13.93457 z m -7.64454,-0.11133 c -4e-5,-4.25518 -0.70511,-7.88571 -2.11523,-10.8916 -1.41019,-3.00582 -3.50069,-5.34989 -6.27148,-7.03223 -1.95446,-1.18745 -4.04496,-2.04097 -6.27149,-2.56055 -2.22659,-0.51948 -4.99742,-0.77924 -8.3125,-0.77929 l -5.60351,0 0,42.63867 5.60351,0 c 3.2656,1e-5 6.12302,-0.25976 8.57227,-0.7793 2.44919,-0.51952 4.68812,-1.48436 6.71679,-2.89453 2.54814,-1.73176 4.46546,-4.03872 5.75196,-6.9209 1.28641,-2.88214 1.92964,-6.47556 1.92968,-10.78027 z" style="font-size:76px;font-variant:normal;font-stretch:normal;font-family:Tahoma;-inkscape-font-specification:Tahoma" id="path3054"/>
      <path d="m 431.94983,346.18347 c -4e-5,6.97658 -1.68233,12.36362 -5.04688,16.16113 -3.36461,3.79753 -7.84247,5.69629 -13.43359,5.69629 -5.76434,0 -10.29786,-1.96061 -13.60059,-5.88183 -3.30274,-3.92122 -4.9541,-9.24641 -4.9541,-15.97559 0,-6.92705 1.70084,-12.30791 5.10254,-16.14258 3.40168,-3.83459 7.88573,-5.75191 13.45215,-5.75195 5.59112,4e-5 10.06898,1.91117 13.43359,5.7334 3.36455,3.8223 5.04684,9.20934 5.04688,16.16113 z m -7.19922,0 c -3e-5,-5.36846 -0.97725,-9.35772 -2.93164,-11.96777 -1.95446,-2.60999 -4.73766,-3.915 -8.34961,-3.91504 -3.63674,4e-5 -6.43849,1.30505 -8.40527,3.91504 -1.96681,2.61005 -2.95021,6.59931 -2.9502,11.96777 -1e-5,5.19533 0.98339,9.1351 2.9502,11.81934 1.96678,2.68425 4.76853,4.02637 8.40527,4.02636 3.58721,10e-6 6.36423,-1.31737 8.33105,-3.95214 1.96677,-2.63476 2.95017,-6.59927 2.9502,-11.89356 z" style="font-size:76px;font-variant:normal;font-stretch:normal;font-family:Tahoma;-inkscape-font-specification:Tahoma" id="path3056"/>
      <path d="m 464.04944,355.64636 0,-22.74804 c -1.7318,-0.84112 -3.33369,-1.44105 -4.80567,-1.79981 -1.47203,-0.35869 -2.93785,-0.53805 -4.39746,-0.53809 -3.53778,4e-5 -6.32098,1.29887 -8.34961,3.89649 -2.02865,2.59769 -3.04298,6.32099 -3.04297,11.16992 -1e-5,4.60158 0.77311,8.10223 2.31934,10.50195 1.54621,2.39975 4.05109,3.59962 7.51465,3.59961 1.80597,1e-5 3.66762,-0.35871 5.58496,-1.07617 1.91729,-0.71744 3.64287,-1.71939 5.17676,-3.00586 z m -23.45313,17.88672 c 0.47005,0.19791 1.16275,0.46386 2.07813,0.79785 0.91535,0.33398 1.95441,0.64941 3.11718,0.94629 1.28645,0.32161 2.47395,0.58137 3.5625,0.7793 1.08853,0.19791 2.27603,0.29686 3.5625,0.29687 2.15233,-10e-6 3.97687,-0.28451 5.47364,-0.85351 1.49672,-0.56902 2.66566,-1.36069 3.50683,-2.375 0.79164,-1.01433 1.34828,-2.18946 1.66992,-3.52539 0.32159,-1.33594 0.4824,-2.85742 0.48243,-4.56446 l 0,-3.63671 c -1.88024,1.63281 -3.72334,2.83887 -5.5293,3.61816 -1.80601,0.7793 -4.06968,1.16895 -6.79102,1.16894 -4.72527,10e-6 -8.48568,-1.7565 -11.28125,-5.26953 -2.79557,-3.51301 -4.19336,-8.55988 -4.19336,-15.14062 0,-3.43878 0.48242,-6.48793 1.44727,-9.14746 0.96484,-2.65947 2.26367,-4.91696 3.89648,-6.77246 1.55859,-1.78121 3.40169,-3.15426 5.5293,-4.11914 2.12759,-0.96481 4.32941,-1.44723 6.60547,-1.44727 2.15232,4e-5 4.01397,0.25362 5.58496,0.76074 1.57094,0.50721 3.14808,1.23084 4.73145,2.1709 l 0.4082,-1.78125 6.56836,0 0,36.73828 c -4e-5,7.02604 -1.53389,12.18424 -4.60156,15.47461 -3.06774,3.29035 -7.75589,4.93553 -14.06446,4.93555 -2.02866,-2e-5 -4.1006,-0.16082 -6.21582,-0.48242 -2.11524,-0.32163 -4.08822,-0.75458 -5.91894,-1.29883 l 0,-7.27344 z" style="font-size:76px;font-variant:normal;font-stretch:normal;font-family:Tahoma;-inkscape-font-specification:Tahoma" id="path3058"/>
      <path d="m 491.9928,366.8905 -8.86914,0 0,-10.57617 8.86914,0 z" style="font-size:76px;font-variant:normal;font-stretch:normal;font-family:Tahoma;-inkscape-font-specification:Tahoma" id="path3060"/>
    </g>
    <g style="font-size:386px;font-style:normal;font-weight:normal;fill:#000000;fill-opacity:1;stroke:none;font-family:Sans" id="text8113">
      <path d="m 795.95605,206.91159 0,-115.536132 c -8.79571,-4.271959 -16.93161,-7.318993 -24.40771,-9.141114 -7.47636,-1.821756 -14.92117,-2.732725 -22.33447,-2.73291 -17.96819,1.85e-4 -32.10392,6.596858 -42.40723,19.790039 -10.30344,13.193507 -15.45513,32.103977 -15.45508,56.731447 -5e-5,23.37118 3.92655,41.15078 11.77979,53.33887 7.85312,12.18819 20.57528,18.28226 38.1665,18.28222 9.17242,4e-5 18.62765,-1.8219 28.36572,-5.46582 9.73782,-3.64383 18.50198,-8.73269 26.29248,-15.2666 z m -119.11718,90.8457 c 2.38733,1.00518 5.90556,2.35592 10.55468,4.05225 4.64904,1.69625 9.92638,3.2983 15.83204,4.80615 6.53378,1.63342 12.56503,2.95276 18.09375,3.95801 5.52856,1.00516 11.5598,1.50776 18.09375,1.50781 10.93153,-5e-5 20.19828,-1.44503 27.80029,-4.33496 7.60176,-2.89001 13.53876,-6.91084 17.81103,-12.0625 4.02069,-5.15172 6.84784,-11.12014 8.48145,-17.90527 1.63331,-6.78517 2.45004,-14.5127 2.45019,-23.18262 l 0,-18.4707 c -9.54962,8.29299 -18.91061,14.41847 -28.083,18.37646 -9.17264,3.95802 -20.6697,5.93702 -34.49121,5.93701 -23.99942,10e-6 -43.09836,-8.92121 -57.29688,-26.76367 -14.19858,-17.8424 -21.29786,-43.47518 -21.29785,-76.89844 -10e-6,-17.46537 2.45018,-32.95184 7.35059,-46.45947 4.90036,-13.507317 11.49704,-24.972964 19.79003,-34.39697 7.91597,-9.046678 17.27697,-16.020304 28.08301,-20.920899 10.80591,-4.900177 21.98885,-7.350369 33.54883,-7.350586 10.93153,2.17e-4 20.38676,1.288139 28.36572,3.86377 7.97871,2.576056 15.98895,6.251345 24.03076,11.025879 l 2.07325,-9.046875 33.36035,0 0,186.591801 c -1.9e-4,35.68488 -7.79055,61.8831 -23.3711,78.59472 -15.58087,16.71152 -39.39172,25.06731 -71.43261,25.06738 -10.30347,-7e-5 -20.82673,-0.81681 -31.56983,-2.45019 -10.74321,-1.63354 -20.76387,-3.83243 -30.06201,-6.59668 l 0,-36.94141 z" style="font-variant:normal;font-stretch:normal;font-family:Tahoma;-inkscape-font-specification:Tahoma" id="path3063"/>
    </g>
  </g>
</svg>