<?xml version="1.0" encoding="UTF-8" standalone="no"?>
<!DOCTYPE svg PUBLIC "-//W3C//DTD SVG 1.1//EN"
"http://www.w3.org/Graphics/SVG/1.1/DTD/svg11.dtd">
<svg viewBox="0 0 909 1286" version="1.1" xmlns="http://www.w3.org/2000/svg" xmlns:xlink="http://www.w3.org/1999/xlink">
<defs>
<style type="text/css"><![CDATA[
.g0_4{
}
.g1_4{
fill: #0000FF;
}
.g2_4{
fill: #FFFFFF;
}
.g3_4{
fill: none;
stroke: #FF0000;
stroke-width: 1.145;
stroke-linecap: round;
stroke-linejoin: miter;
stroke-miterlimit: 8;
}
.g4_4{
fill: #FF0000;
}
.g5_4{
fill: none;
stroke: #FF0000;
stroke-width: 1.145;
stroke-linecap: round;
stroke-linejoin: round;
}
.g6_4{
fill: none;
stroke: #000000;
stroke-width: 1.104;
stroke-linecap: round;
stroke-linejoin: round;
}
]]></style>
</defs>
<path d="M97.4,131.6H812.2v-2.3H97.4v2.3Z" class="g0_4"/>
<path d="M97.4,1183.9H812.2v-2.3H97.4v2.3Z" class="g0_4"/>
<path d="M168.7,1221H312.6v-1.5H168.7v1.5Z" class="g1_4"/>
<path d="M99.6,1219.7H173v-37.8H99.6v37.8Z" class="g2_4"/>
<path d="M173,1181.8H99.6v37.9H173v-37.9Z" class="g3_4"/>
<path fill-rule="evenodd" d="M129.2,1192.4c-1.3,.2,-2.2,.5,-2.8,.9c-.5,.6,-1.2,1.7,-1.8,3.3c-1,2.8,-2,5.6,-3.1,8.5c-.8,2.2,-1.8,4,-2.8,5.2c-1.9,2.3,-4.6,3.4,-7.9,3.4c-3.2,0,-4.8,-1.2,-5.1,-3.4c-.1,-1.1,.2,-2.7,1,-4.9c1.2,-3.3,2.6,-6.7,3.8,-10c.4,-1.2,.5,-2,.1,-2.4c-.1,-.3,-1,-.5,-2.3,-.6c.1,-.2,.2,-.4,.3,-.6c2.8,0,5.6,0,8.4,0c-.1,.2,-.2,.4,-.2,.6c-1.4,.1,-2.3,.3,-2.8,.6c-.6,.5,-1.2,1.2,-1.5,2.4c-1.3,3.4,-2.7,6.9,-3.9,10.3c-1.6,4.7,-.5,7,3.4,7c2.2,0,4.2,-1,6,-2.9c.8,-.8,1.5,-2.3,2.4,-4.5c1,-2.9,2.1,-5.7,3.2,-8.7c.5,-1.7,.8,-2.8,.7,-3.4c-.2,-.4,-.8,-.7,-1.8,-.8c.1,-.2,.1,-.4,.1,-.6c2.3,0,4.5,0,6.7,0c-.1,.2,-.1,.4,-.1,.6Z" class="g4_4"/>
<path fill-rule="evenodd" d="M145.8,1197.1c-.2,0,-.5,0,-.7,0c.3,-1.9,.2,-3,-.3,-3.5c-.4,-.6,-1.5,-.7,-3.3,-.7c-.6,0,-1.2,0,-1.8,0c-1.1,3.1,-2.3,6.1,-3.4,9.2c-.9,2.5,-1.8,4.9,-2.7,7.4c-.4,1.1,-.5,1.9,-.2,2.4c.3,.4,1.1,.7,2.4,.8c-.1,.1,-.2,.3,-.2,.6c-3,0,-5.8,0,-8.6,0c.1,-.3,.1,-.5,.1,-.6c1.4,-.1,2.4,-.4,3.1,-1c.5,-.4,1.1,-1.3,1.5,-2.6c1.5,-4.2,3.1,-8.4,4.6,-12.5c.5,-1.3,.9,-2.5,1.4,-3.7c-.5,0,-.9,0,-1.4,0c-.2,0,-.4,0,-.5,0c-1.8,0,-3.1,.2,-3.9,.7c-.8,.5,-1.7,1.6,-2.7,3.5c-.3,0,-.5,0,-.8,0c.8,-1.8,1.4,-3.5,2.1,-5.2c2,0,3.8,0,5.8,0c3.8,0,7.4,0,11.2,0c-.6,1.7,-1.2,3.4,-1.7,5.2Z" class="g4_4"/>
<path fill-rule="evenodd" d="M160.9,1209.6c-.8,.8,-1.8,1.5,-3.1,2.2c-2.1,1.3,-4.3,1.9,-6.5,1.9c-2.8,0,-4.8,-.9,-6,-2.6c-1.4,-2,-1.5,-4.9,-.1,-8.6c1.3,-3.4,3.4,-6.2,6.2,-8.3c2.7,-1.9,5.4,-2.8,8.2,-2.8c1.1,0,2.2,.1,3.3,.5c1.1,.3,1.6,.5,1.6,.5c.6,0,1.1,-.2,1.7,-1c.3,0,.5,0,.6,0c-.7,2.3,-1.5,4.7,-2.3,7c-.2,0,-.4,.1,-.6,.1c.5,-4.2,-1,-6.2,-4.4,-6.2c-1,0,-2,.2,-3.2,.5c-1.3,.4,-2.4,.9,-3.2,1.5c-2.4,1.9,-4.3,4.6,-5.7,8.3c-1.2,3.2,-1.1,5.8,.1,7.6c1,1.5,2.7,2.3,5,2.3c2.6,0,5.4,-1.1,8.2,-3.4c.1,.2,.1,.4,.2,.5Z" class="g4_4"/>
<path d="M129.2,1192.4c-1.3,.2,-2.2,.5,-2.8,.9c-.5,.6,-1.2,1.7,-1.8,3.3c-1,2.8,-2,5.6,-3.1,8.5c-.8,2.2,-1.8,4,-2.8,5.2c-1.9,2.3,-4.6,3.4,-7.9,3.4c-3.2,0,-4.8,-1.2,-5.1,-3.4c-.1,-1.1,.2,-2.7,1,-4.9c1.2,-3.3,2.6,-6.7,3.8,-10c.4,-1.2,.5,-2,.1,-2.4c-.1,-.3,-1,-.5,-2.3,-.6c.1,-.2,.2,-.4,.3,-.6c2.8,0,5.6,0,8.4,0c-.1,.2,-.2,.4,-.2,.6c-1.4,.1,-2.3,.3,-2.8,.6c-.6,.5,-1.2,1.2,-1.5,2.4c-1.3,3.4,-2.7,6.9,-3.9,10.3c-1.6,4.7,-.5,7,3.4,7c2.2,0,4.2,-1,6,-2.9c.8,-.8,1.5,-2.3,2.4,-4.5c1,-2.9,2.1,-5.7,3.2,-8.7c.5,-1.7,.8,-2.8,.7,-3.4c-.2,-.4,-.8,-.7,-1.8,-.8c.1,-.2,.1,-.4,.1,-.6c2.3,0,4.5,0,6.7,0c-.1,.2,-.1,.4,-.1,.6Zm16.6,4.7c-.2,0,-.5,0,-.7,0c.3,-1.9,.2,-3,-.3,-3.5c-.4,-.6,-1.5,-.7,-3.3,-.7c-.6,0,-1.2,0,-1.8,0c-1.1,3.1,-2.3,6.1,-3.4,9.2c-.9,2.5,-1.8,4.9,-2.7,7.4c-.4,1.1,-.5,1.9,-.2,2.4c.3,.4,1.1,.7,2.4,.8c-.1,.1,-.2,.3,-.2,.6c-3,0,-5.8,0,-8.6,0c.1,-.3,.1,-.5,.1,-.6c1.4,-.1,2.4,-.4,3.1,-1c.5,-.4,1.1,-1.3,1.5,-2.6c1.5,-4.2,3.1,-8.4,4.6,-12.5c.5,-1.3,.9,-2.5,1.4,-3.7c-.5,0,-.9,0,-1.4,0c-.2,0,-.4,0,-.5,0c-1.8,0,-3.1,.2,-3.9,.7c-.8,.5,-1.7,1.6,-2.7,3.5c-.3,0,-.5,0,-.8,0c.8,-1.8,1.4,-3.5,2.1,-5.2c2,0,3.8,0,5.8,0c3.8,0,7.4,0,11.2,0c-.6,1.7,-1.2,3.4,-1.7,5.2Zm15.1,12.5c-.8,.8,-1.8,1.5,-3.1,2.2c-2.1,1.3,-4.3,1.9,-6.5,1.9c-2.8,0,-4.8,-.9,-6,-2.6c-1.4,-2,-1.5,-4.9,-.1,-8.6c1.3,-3.4,3.4,-6.2,6.2,-8.3c2.7,-1.9,5.4,-2.8,8.2,-2.8c1.1,0,2.2,.1,3.3,.5c1.1,.3,1.6,.5,1.6,.5c.6,0,1.1,-.2,1.7,-1c.3,0,.5,0,.6,0c-.7,2.3,-1.5,4.7,-2.3,7c-.2,0,-.4,.1,-.6,.1c.5,-4.2,-1,-6.2,-4.4,-6.2c-1,0,-2,.2,-3.2,.5c-1.3,.4,-2.4,.9,-3.2,1.5c-2.4,1.9,-4.3,4.6,-5.7,8.3c-1.2,3.2,-1.1,5.8,.1,7.6c1,1.5,2.7,2.3,5,2.3c2.6,0,5.4,-1.1,8.2,-3.4c.1,.2,.1,.4,.2,.5Z" class="g5_4"/>
<path d="M99.6,1227.7H173v-10H99.6v10Z" class="g4_4"/>
<path d="M173,1217.7H99.6v9.9H173v-9.9Z" class="g3_4"/>
<path d="M99.6,1186.4H173v-4.5H99.6v4.5Z" class="g4_4"/>
<path d="M173,1186.4H99.6v-4.6H173v4.6Z" class="g3_4"/>
<path d="M97,177.3h1.1v-1.2H97v1.2Z" class="g0_4"/>
<path d="M97,177.2H460.1v-1.1H97v1.1Z" class="g0_4"/>
<path d="M460.1,177.3h1.1v-1.2h-1.1v1.2Z" class="g0_4"/>
<path d="M461.2,177.2h79.1v-1.1H461.2v1.1Z" class="g0_4"/>
<path d="M540.3,177.3h1.1v-1.2h-1.1v1.2Z" class="g0_4"/>
<path d="M541.4,177.2H740.8v-1.1H541.4v1.1Z" class="g0_4"/>
<path d="M740.8,177.3h1.1v-1.2h-1.1v1.2Z" class="g0_4"/>
<path d="M741.9,177.2h69.6v-1.1H741.9v1.1Z" class="g0_4"/>
<path d="M811.5,177.3h1.1v-1.2h-1.1v1.2Z" class="g0_4"/>
<path d="M811.5,177.2h1.1v-1.1h-1.1v1.1Z" class="g0_4"/>
<path d="M97,195.5h1.1V177.3H97v18.2Z" class="g0_4"/>
<path d="M460.1,195.5h1.1V177.3h-1.1v18.2Z" class="g0_4"/>
<path d="M540.3,195.5h1.1V177.3h-1.1v18.2Z" class="g0_4"/>
<path d="M740.8,195.5h1.1V177.3h-1.1v18.2Z" class="g0_4"/>
<path d="M811.5,195.5h1.1V177.3h-1.1v18.2Z" class="g0_4"/>
<path d="M97,196.7h1.1v-1.2H97v1.2Z" class="g0_4"/>
<path d="M98.1,196.6h362v-1.1H98.1v1.1Z" class="g0_4"/>
<path d="M460.1,196.7h1.1v-1.2h-1.1v1.2Z" class="g0_4"/>
<path d="M461.2,196.6h79.1v-1.1H461.2v1.1Z" class="g0_4"/>
<path d="M540.3,196.7h1.1v-1.2h-1.1v1.2Z" class="g0_4"/>
<path d="M541.4,196.6H740.8v-1.1H541.4v1.1Z" class="g0_4"/>
<path d="M740.8,196.7h1.1v-1.2h-1.1v1.2Z" class="g0_4"/>
<path d="M741.9,196.6h69.6v-1.1H741.9v1.1Z" class="g0_4"/>
<path d="M811.5,196.7h1.1v-1.2h-1.1v1.2Z" class="g0_4"/>
<path d="M97,215.1h1.1V196.7H97v18.4Z" class="g0_4"/>
<path d="M460.1,215.1h1.1V196.7h-1.1v18.4Z" class="g0_4"/>
<path d="M540.3,215.1h1.1V196.7h-1.1v18.4Z" class="g0_4"/>
<path d="M740.8,215.1h1.1V196.7h-1.1v18.4Z" class="g0_4"/>
<path d="M811.5,215.1h1.1V196.7h-1.1v18.4Z" class="g0_4"/>
<path d="M97,216.2h1.1v-1.1H97v1.1Z" class="g0_4"/>
<path d="M98.1,216.1h362V215H98.1v1.1Z" class="g0_4"/>
<path d="M460.1,216.2h1.1v-1.1h-1.1v1.1Z" class="g0_4"/>
<path d="M461.2,216.1h79.1V215H461.2v1.1Z" class="g0_4"/>
<path d="M540.3,216.2h1.1v-1.1h-1.1v1.1Z" class="g0_4"/>
<path d="M541.4,216.1H740.8V215H541.4v1.1Z" class="g0_4"/>
<path d="M740.8,216.2h1.1v-1.1h-1.1v1.1Z" class="g0_4"/>
<path d="M741.9,216.1h69.6V215H741.9v1.1Z" class="g0_4"/>
<path d="M811.5,216.2h1.1v-1.1h-1.1v1.1Z" class="g0_4"/>
<path d="M97,234.5h1.1V216.2H97v18.3Z" class="g0_4"/>
<path d="M460.1,234.5h1.1V216.2h-1.1v18.3Z" class="g0_4"/>
<path d="M540.3,234.5h1.1V216.2h-1.1v18.3Z" class="g0_4"/>
<path d="M740.8,234.5h1.1V216.2h-1.1v18.3Z" class="g0_4"/>
<path d="M811.5,234.5h1.1V216.2h-1.1v18.3Z" class="g0_4"/>
<path d="M97,235.7h1.1v-1.2H97v1.2Z" class="g0_4"/>
<path d="M98.1,235.6h362v-1.1H98.1v1.1Z" class="g0_4"/>
<path d="M460.1,235.7h1.1v-1.2h-1.1v1.2Z" class="g0_4"/>
<path d="M461.2,235.6h79.1v-1.1H461.2v1.1Z" class="g0_4"/>
<path d="M540.3,235.7h1.1v-1.2h-1.1v1.2Z" class="g0_4"/>
<path d="M541.4,235.6H740.8v-1.1H541.4v1.1Z" class="g0_4"/>
<path d="M740.8,235.7h1.1v-1.2h-1.1v1.2Z" class="g0_4"/>
<path d="M741.9,235.6h69.6v-1.1H741.9v1.1Z" class="g0_4"/>
<path d="M811.5,235.7h1.1v-1.2h-1.1v1.2Z" class="g0_4"/>
<path d="M97,254h1.1V235.7H97V254Z" class="g0_4"/>
<path d="M460.1,254h1.1V235.7h-1.1V254Z" class="g0_4"/>
<path d="M540.3,254h1.1V235.7h-1.1V254Z" class="g0_4"/>
<path d="M740.8,254h1.1V235.7h-1.1V254Z" class="g0_4"/>
<path d="M811.5,254h1.1V235.7h-1.1V254Z" class="g0_4"/>
<path d="M97,255.2h1.1V254H97v1.2Z" class="g0_4"/>
<path d="M98.1,255.1h362V254H98.1v1.1Z" class="g0_4"/>
<path d="M460.1,255.2h1.1V254h-1.1v1.2Z" class="g0_4"/>
<path d="M461.2,255.1h79.1V254H461.2v1.1Z" class="g0_4"/>
<path d="M540.3,255.2h1.1V254h-1.1v1.2Z" class="g0_4"/>
<path d="M541.4,255.1H740.8V254H541.4v1.1Z" class="g0_4"/>
<path d="M740.8,255.2h1.1V254h-1.1v1.2Z" class="g0_4"/>
<path d="M741.9,255.1h69.6V254H741.9v1.1Z" class="g0_4"/>
<path d="M811.5,255.2h1.1V254h-1.1v1.2Z" class="g0_4"/>
<path d="M97,273.4h1.1V255.2H97v18.2Z" class="g0_4"/>
<path d="M460.1,273.4h1.1V255.2h-1.1v18.2Z" class="g0_4"/>
<path d="M540.3,273.4h1.1V255.2h-1.1v18.2Z" class="g0_4"/>
<path d="M740.8,273.4h1.1V255.2h-1.1v18.2Z" class="g0_4"/>
<path d="M811.5,273.4h1.1V255.2h-1.1v18.2Z" class="g0_4"/>
<path d="M97,274.6h1.1v-1.2H97v1.2Z" class="g0_4"/>
<path d="M98.1,274.5h362v-1.1H98.1v1.1Z" class="g0_4"/>
<path d="M460.1,274.6h1.1v-1.2h-1.1v1.2Z" class="g0_4"/>
<path d="M461.2,274.5h79.1v-1.1H461.2v1.1Z" class="g0_4"/>
<path d="M540.3,274.6h1.1v-1.2h-1.1v1.2Z" class="g0_4"/>
<path d="M541.4,274.5H740.8v-1.1H541.4v1.1Z" class="g0_4"/>
<path d="M740.8,274.6h1.1v-1.2h-1.1v1.2Z" class="g0_4"/>
<path d="M741.9,274.5h69.6v-1.1H741.9v1.1Z" class="g0_4"/>
<path d="M811.5,274.6h1.1v-1.2h-1.1v1.2Z" class="g0_4"/>
<path d="M97,293h1.1V274.6H97V293Z" class="g0_4"/>
<path d="M460.1,293h1.1V274.6h-1.1V293Z" class="g0_4"/>
<path d="M540.3,293h1.1V274.6h-1.1V293Z" class="g0_4"/>
<path d="M740.8,293h1.1V274.6h-1.1V293Z" class="g0_4"/>
<path d="M811.5,293h1.1V274.6h-1.1V293Z" class="g0_4"/>
<path d="M97,294.2h1.1V293H97v1.2Z" class="g0_4"/>
<path d="M98.1,294.1h362V293H98.1v1.1Z" class="g0_4"/>
<path d="M460.1,294.2h1.1V293h-1.1v1.2Z" class="g0_4"/>
<path d="M461.2,294.1h79.1V293H461.2v1.1Z" class="g0_4"/>
<path d="M540.3,294.2h1.1V293h-1.1v1.2Z" class="g0_4"/>
<path d="M541.4,294.1H740.8V293H541.4v1.1Z" class="g0_4"/>
<path d="M740.8,294.2h1.1V293h-1.1v1.2Z" class="g0_4"/>
<path d="M741.9,294.1h69.6V293H741.9v1.1Z" class="g0_4"/>
<path d="M811.5,294.2h1.1V293h-1.1v1.2Z" class="g0_4"/>
<path d="M97,312.4h1.1V294.2H97v18.2Z" class="g0_4"/>
<path d="M460.1,312.4h1.1V294.2h-1.1v18.2Z" class="g0_4"/>
<path d="M540.3,312.4h1.1V294.2h-1.1v18.2Z" class="g0_4"/>
<path d="M740.8,312.4h1.1V294.2h-1.1v18.2Z" class="g0_4"/>
<path d="M811.5,312.4h1.1V294.2h-1.1v18.2Z" class="g0_4"/>
<path d="M97,313.6h1.1v-1.2H97v1.2Z" class="g0_4"/>
<path d="M98.1,313.5h362v-1.1H98.1v1.1Z" class="g0_4"/>
<path d="M460.1,313.6h1.1v-1.2h-1.1v1.2Z" class="g0_4"/>
<path d="M461.2,313.5h79.1v-1.1H461.2v1.1Z" class="g0_4"/>
<path d="M540.3,313.6h1.1v-1.2h-1.1v1.2Z" class="g0_4"/>
<path d="M541.4,313.5H740.8v-1.1H541.4v1.1Z" class="g0_4"/>
<path d="M740.8,313.6h1.1v-1.2h-1.1v1.2Z" class="g0_4"/>
<path d="M741.9,313.5h69.6v-1.1H741.9v1.1Z" class="g0_4"/>
<path d="M811.5,313.6h1.1v-1.2h-1.1v1.2Z" class="g0_4"/>
<path d="M97,331.9h1.1V313.6H97v18.3Z" class="g0_4"/>
<path d="M460.1,331.9h1.1V313.6h-1.1v18.3Z" class="g0_4"/>
<path d="M540.3,331.9h1.1V313.6h-1.1v18.3Z" class="g0_4"/>
<path d="M740.8,331.9h1.1V313.6h-1.1v18.3Z" class="g0_4"/>
<path d="M811.5,331.9h1.1V313.6h-1.1v18.3Z" class="g0_4"/>
<path d="M97,333h1.1v-1.1H97V333Z" class="g0_4"/>
<path d="M97,333H811.8v-1.1H97V333Z" class="g0_4"/>
<path d="M811.5,333h1.1v-1.1h-1.1V333Z" class="g0_4"/>
<path d="M811.5,333h1.1v-1.1h-1.1V333Z" class="g0_4"/>
<path d="M97,536.2h1.1V535H97v1.2Z" class="g0_4"/>
<path d="M97,536.1H299.9V535H97v1.1Z" class="g0_4"/>
<path d="M299.9,536.2H301V535h-1.1v1.2Z" class="g0_4"/>
<path d="M301,536.1h87V535H301v1.1Z" class="g0_4"/>
<path d="M388,536.2h.8v-.1H388v.1Z" class="g0_4"/>
<path d="M388,536.1H592.2V535H388v1.1Z" class="g0_4"/>
<path d="M592.2,536.2h1.1V535h-1.1v1.2Z" class="g0_4"/>
<path d="M593.3,536.1h53.5V535H593.3v1.1Z" class="g0_4"/>
<path d="M646.8,536.2h1.1V535h-1.1v1.2Z" class="g0_4"/>
<path d="M647.9,536.1h55.6V535H647.9v1.1Z" class="g0_4"/>
<path d="M703.5,536.2h1.1V535h-1.1v1.2Z" class="g0_4"/>
<path d="M704.6,536.1h51.3V535H704.6v1.1Z" class="g0_4"/>
<path d="M755.9,536.2H757V535h-1.1v1.2Z" class="g0_4"/>
<path d="M757,536.1h54.5V535H757v1.1Z" class="g0_4"/>
<path d="M811.5,536.2h1.1V535h-1.1v1.2Z" class="g0_4"/>
<path d="M811.5,536.1h1.1V535h-1.1v1.1Z" class="g0_4"/>
<path d="M97,554.4h1.1V536.2H97v18.2Z" class="g0_4"/>
<path d="M299.9,554.4H301V536.2h-1.1v18.2Z" class="g0_4"/>
<path d="M388,554.4h.8V536.2H388v18.2Z" class="g0_4"/>
<path d="M592.2,554.4h1.1V536.2h-1.1v18.2Z" class="g0_4"/>
<path d="M646.8,554.4h1.1V536.2h-1.1v18.2Z" class="g0_4"/>
<path d="M703.5,554.4h1.1V536.2h-1.1v18.2Z" class="g0_4"/>
<path d="M755.9,554.4H757V536.2h-1.1v18.2Z" class="g0_4"/>
<path d="M811.5,554.4h1.1V536.2h-1.1v18.2Z" class="g0_4"/>
<path d="M97,555.6h1.1v-1.2H97v1.2Z" class="g0_4"/>
<path d="M98.1,555.5H299.9v-1.1H98.1v1.1Z" class="g0_4"/>
<path d="M299.9,555.6H301v-1.2h-1.1v1.2Z" class="g0_4"/>
<path d="M301,555.5h87v-1.1H301v1.1Z" class="g0_4"/>
<path d="M388,555.6h.8v-.1H388v.1Z" class="g0_4"/>
<path d="M388,555.5H592.2v-1.1H388v1.1Z" class="g0_4"/>
<path d="M592.2,555.6h1.1v-1.2h-1.1v1.2Z" class="g0_4"/>
<path d="M593.3,555.5h53.5v-1.1H593.3v1.1Z" class="g0_4"/>
<path d="M646.8,555.6h1.1v-1.2h-1.1v1.2Z" class="g0_4"/>
<path d="M647.9,555.5h55.6v-1.1H647.9v1.1Z" class="g0_4"/>
<path d="M703.5,555.6h1.1v-1.2h-1.1v1.2Z" class="g0_4"/>
<path d="M704.6,555.5h51.3v-1.1H704.6v1.1Z" class="g0_4"/>
<path d="M755.9,555.6H757v-1.2h-1.1v1.2Z" class="g0_4"/>
<path d="M757,555.5h54.5v-1.1H757v1.1Z" class="g0_4"/>
<path d="M811.5,555.6h1.1v-1.2h-1.1v1.2Z" class="g0_4"/>
<path d="M97,573.9h1.1V555.6H97v18.3Z" class="g0_4"/>
<path d="M299.9,573.9H301V555.6h-1.1v18.3Z" class="g0_4"/>
<path d="M388,573.9h.8V555.6H388v18.3Z" class="g0_4"/>
<path d="M592.2,573.9h1.1V555.6h-1.1v18.3Z" class="g0_4"/>
<path d="M646.8,573.9h1.1V555.6h-1.1v18.3Z" class="g0_4"/>
<path d="M703.5,573.9h1.1V555.6h-1.1v18.3Z" class="g0_4"/>
<path d="M755.9,573.9H757V555.6h-1.1v18.3Z" class="g0_4"/>
<path d="M811.5,573.9h1.1V555.6h-1.1v18.3Z" class="g0_4"/>
<path d="M97,575.1h1.1v-1.2H97v1.2Z" class="g0_4"/>
<path d="M98.1,575H299.9v-1.1H98.1V575Z" class="g0_4"/>
<path d="M299.9,575.1H301v-1.2h-1.1v1.2Z" class="g0_4"/>
<path d="M301,575h87v-1.1H301V575Z" class="g0_4"/>
<path d="M388,575.1h.8V575H388v.1Z" class="g0_4"/>
<path d="M388,575H592.2v-1.1H388V575Z" class="g0_4"/>
<path d="M592.2,575.1h1.1v-1.2h-1.1v1.2Z" class="g0_4"/>
<path d="M593.3,575h53.5v-1.1H593.3V575Z" class="g0_4"/>
<path d="M646.8,575.1h1.1v-1.2h-1.1v1.2Z" class="g0_4"/>
<path d="M647.9,575h55.6v-1.1H647.9V575Z" class="g0_4"/>
<path d="M703.5,575.1h1.1v-1.2h-1.1v1.2Z" class="g0_4"/>
<path d="M704.6,575h51.3v-1.1H704.6V575Z" class="g0_4"/>
<path d="M755.9,575.1H757v-1.2h-1.1v1.2Z" class="g0_4"/>
<path d="M757,575h54.5v-1.1H757V575Z" class="g0_4"/>
<path d="M811.5,575.1h1.1v-1.2h-1.1v1.2Z" class="g0_4"/>
<path d="M97,611.7h1.1V575.1H97v36.6Z" class="g0_4"/>
<path d="M299.9,611.7H301V575.1h-1.1v36.6Z" class="g0_4"/>
<path d="M388,611.7h.8V575.1H388v36.6Z" class="g0_4"/>
<path d="M592.2,611.7h1.1V575.1h-1.1v36.6Z" class="g0_4"/>
<path d="M646.8,611.7h1.1V575.1h-1.1v36.6Z" class="g0_4"/>
<path d="M703.5,611.7h1.1V575.1h-1.1v36.6Z" class="g0_4"/>
<path d="M755.9,611.7H757V575.1h-1.1v36.6Z" class="g0_4"/>
<path d="M811.5,611.7h1.1V575.1h-1.1v36.6Z" class="g0_4"/>
<path d="M97,612.9h1.1v-1.2H97v1.2Z" class="g0_4"/>
<path d="M98.1,612.8H299.9v-1.1H98.1v1.1Z" class="g0_4"/>
<path d="M299.9,612.9H301v-1.2h-1.1v1.2Z" class="g0_4"/>
<path d="M301,612.8h87v-1.1H301v1.1Z" class="g0_4"/>
<path d="M388,612.9h.8v-.1H388v.1Z" class="g0_4"/>
<path d="M388,612.8H592.2v-1.1H388v1.1Z" class="g0_4"/>
<path d="M592.2,612.9h1.1v-1.2h-1.1v1.2Z" class="g0_4"/>
<path d="M593.3,612.8h53.5v-1.1H593.3v1.1Z" class="g0_4"/>
<path d="M646.8,612.9h1.1v-1.2h-1.1v1.2Z" class="g0_4"/>
<path d="M647.9,612.8h55.6v-1.1H647.9v1.1Z" class="g0_4"/>
<path d="M703.5,612.9h1.1v-1.2h-1.1v1.2Z" class="g0_4"/>
<path d="M704.6,612.8h51.3v-1.1H704.6v1.1Z" class="g0_4"/>
<path d="M755.9,612.9H757v-1.2h-1.1v1.2Z" class="g0_4"/>
<path d="M757,612.8h54.5v-1.1H757v1.1Z" class="g0_4"/>
<path d="M811.5,612.9h1.1v-1.2h-1.1v1.2Z" class="g0_4"/>
<path d="M97,631.2h1.1V612.9H97v18.3Z" class="g0_4"/>
<path d="M299.9,631.2H301V612.9h-1.1v18.3Z" class="g0_4"/>
<path d="M388,631.2h.8V612.9H388v18.3Z" class="g0_4"/>
<path d="M592.2,631.2h1.1V612.9h-1.1v18.3Z" class="g0_4"/>
<path d="M646.8,631.2h1.1V612.9h-1.1v18.3Z" class="g0_4"/>
<path d="M703.5,631.2h1.1V612.9h-1.1v18.3Z" class="g0_4"/>
<path d="M755.9,631.2H757V612.9h-1.1v18.3Z" class="g0_4"/>
<path d="M811.5,631.2h1.1V612.9h-1.1v18.3Z" class="g0_4"/>
<path d="M97,632.4h1.1v-1.2H97v1.2Z" class="g0_4"/>
<path d="M98.1,632.3H299.9v-1.1H98.1v1.1Z" class="g0_4"/>
<path d="M299.9,632.4H301v-1.2h-1.1v1.2Z" class="g0_4"/>
<path d="M301,632.3h87v-1.1H301v1.1Z" class="g0_4"/>
<path d="M388,632.4h.8v-.1H388v.1Z" class="g0_4"/>
<path d="M388,632.3H592.2v-1.1H388v1.1Z" class="g0_4"/>
<path d="M592.2,632.4h1.1v-1.2h-1.1v1.2Z" class="g0_4"/>
<path d="M593.3,632.3h53.5v-1.1H593.3v1.1Z" class="g0_4"/>
<path d="M646.8,632.4h1.1v-1.2h-1.1v1.2Z" class="g0_4"/>
<path d="M647.9,632.3h55.6v-1.1H647.9v1.1Z" class="g0_4"/>
<path d="M703.5,632.4h1.1v-1.2h-1.1v1.2Z" class="g0_4"/>
<path d="M704.6,632.3h51.3v-1.1H704.6v1.1Z" class="g0_4"/>
<path d="M755.9,632.4H757v-1.2h-1.1v1.2Z" class="g0_4"/>
<path d="M757,632.3h54.5v-1.1H757v1.1Z" class="g0_4"/>
<path d="M811.5,632.4h1.1v-1.2h-1.1v1.2Z" class="g0_4"/>
<path d="M97,670.2h1.1V632.4H97v37.8Z" class="g0_4"/>
<path d="M299.9,670.2H301V632.4h-1.1v37.8Z" class="g0_4"/>
<path d="M388,670.2h.8V632.4H388v37.8Z" class="g0_4"/>
<path d="M592.2,670.2h1.1V632.4h-1.1v37.8Z" class="g0_4"/>
<path d="M646.8,670.2h1.1V632.4h-1.1v37.8Z" class="g0_4"/>
<path d="M703.5,670.2h1.1V632.4h-1.1v37.8Z" class="g0_4"/>
<path d="M755.9,670.2H757V632.4h-1.1v37.8Z" class="g0_4"/>
<path d="M811.5,670.2h1.1V632.4h-1.1v37.8Z" class="g0_4"/>
<path d="M97,671.4h1.1v-1.2H97v1.2Z" class="g0_4"/>
<path d="M98.1,671.3H299.9v-1.1H98.1v1.1Z" class="g0_4"/>
<path d="M299.9,671.4H301v-1.2h-1.1v1.2Z" class="g0_4"/>
<path d="M301,671.3h87v-1.1H301v1.1Z" class="g0_4"/>
<path d="M388,671.4h.8v-.1H388v.1Z" class="g0_4"/>
<path d="M388,671.3H592.2v-1.1H388v1.1Z" class="g0_4"/>
<path d="M592.2,671.4h1.1v-1.2h-1.1v1.2Z" class="g0_4"/>
<path d="M593.3,671.3h53.5v-1.1H593.3v1.1Z" class="g0_4"/>
<path d="M646.8,671.4h1.1v-1.2h-1.1v1.2Z" class="g0_4"/>
<path d="M647.9,671.3h55.6v-1.1H647.9v1.1Z" class="g0_4"/>
<path d="M703.5,671.4h1.1v-1.2h-1.1v1.2Z" class="g0_4"/>
<path d="M704.6,671.3h51.3v-1.1H704.6v1.1Z" class="g0_4"/>
<path d="M755.9,671.4H757v-1.2h-1.1v1.2Z" class="g0_4"/>
<path d="M757,671.3h54.5v-1.1H757v1.1Z" class="g0_4"/>
<path d="M811.5,671.4h1.1v-1.2h-1.1v1.2Z" class="g0_4"/>
<path d="M97,689.6h1.1V671.4H97v18.2Z" class="g0_4"/>
<path d="M299.9,689.6H301V671.4h-1.1v18.2Z" class="g0_4"/>
<path d="M388,689.6h.8V671.4H388v18.2Z" class="g0_4"/>
<path d="M592.2,689.6h1.1V671.4h-1.1v18.2Z" class="g0_4"/>
<path d="M646.8,689.6h1.1V671.4h-1.1v18.2Z" class="g0_4"/>
<path d="M703.5,689.6h1.1V671.4h-1.1v18.2Z" class="g0_4"/>
<path d="M755.9,689.6H757V671.4h-1.1v18.2Z" class="g0_4"/>
<path d="M811.5,689.6h1.1V671.4h-1.1v18.2Z" class="g0_4"/>
<path d="M97,690.8h1.1v-1.2H97v1.2Z" class="g0_4"/>
<path d="M98.1,690.7H299.9v-1.1H98.1v1.1Z" class="g0_4"/>
<path d="M299.9,690.8H301v-1.2h-1.1v1.2Z" class="g0_4"/>
<path d="M301,690.7h87v-1.1H301v1.1Z" class="g0_4"/>
<path d="M388,690.8h.8v-.1H388v.1Z" class="g0_4"/>
<path d="M388,690.7H592.2v-1.1H388v1.1Z" class="g0_4"/>
<path d="M592.2,690.8h1.1v-1.2h-1.1v1.2Z" class="g0_4"/>
<path d="M593.3,690.7h53.5v-1.1H593.3v1.1Z" class="g0_4"/>
<path d="M646.8,690.8h1.1v-1.2h-1.1v1.2Z" class="g0_4"/>
<path d="M647.9,690.7h55.6v-1.1H647.9v1.1Z" class="g0_4"/>
<path d="M703.5,690.8h1.1v-1.2h-1.1v1.2Z" class="g0_4"/>
<path d="M704.6,690.7h51.3v-1.1H704.6v1.1Z" class="g0_4"/>
<path d="M755.9,690.8H757v-1.2h-1.1v1.2Z" class="g0_4"/>
<path d="M757,690.7h54.5v-1.1H757v1.1Z" class="g0_4"/>
<path d="M811.5,690.8h1.1v-1.2h-1.1v1.2Z" class="g0_4"/>
<path d="M97,709.1h1.1V690.8H97v18.3Z" class="g0_4"/>
<path d="M299.9,709.1H301V690.8h-1.1v18.3Z" class="g0_4"/>
<path d="M388,709.1h.8V690.8H388v18.3Z" class="g0_4"/>
<path d="M592.2,709.1h1.1V690.8h-1.1v18.3Z" class="g0_4"/>
<path d="M646.8,709.1h1.1V690.8h-1.1v18.3Z" class="g0_4"/>
<path d="M703.5,709.1h1.1V690.8h-1.1v18.3Z" class="g0_4"/>
<path d="M755.9,709.1H757V690.8h-1.1v18.3Z" class="g0_4"/>
<path d="M811.5,709.1h1.1V690.8h-1.1v18.3Z" class="g0_4"/>
<path d="M97,710.3h1.1v-1.2H97v1.2Z" class="g0_4"/>
<path d="M98.1,710.2H299.9v-1.1H98.1v1.1Z" class="g0_4"/>
<path d="M299.9,710.3H301v-1.2h-1.1v1.2Z" class="g0_4"/>
<path d="M301,710.2h87v-1.1H301v1.1Z" class="g0_4"/>
<path d="M388,710.3h.8v-.1H388v.1Z" class="g0_4"/>
<path d="M388,710.2H592.2v-1.1H388v1.1Z" class="g0_4"/>
<path d="M592.2,710.3h1.1v-1.2h-1.1v1.2Z" class="g0_4"/>
<path d="M593.3,710.2h53.5v-1.1H593.3v1.1Z" class="g0_4"/>
<path d="M646.8,710.3h1.1v-1.2h-1.1v1.2Z" class="g0_4"/>
<path d="M647.9,710.2h55.6v-1.1H647.9v1.1Z" class="g0_4"/>
<path d="M703.5,710.3h1.1v-1.2h-1.1v1.2Z" class="g0_4"/>
<path d="M704.6,710.2h51.3v-1.1H704.6v1.1Z" class="g0_4"/>
<path d="M755.9,710.3H757v-1.2h-1.1v1.2Z" class="g0_4"/>
<path d="M757,710.2h54.5v-1.1H757v1.1Z" class="g0_4"/>
<path d="M811.5,710.3h1.1v-1.2h-1.1v1.2Z" class="g0_4"/>
<path d="M97,728.6h1.1V710.3H97v18.3Z" class="g0_4"/>
<path d="M299.9,728.6H301V710.3h-1.1v18.3Z" class="g0_4"/>
<path d="M388,728.6h.8V710.3H388v18.3Z" class="g0_4"/>
<path d="M592.2,728.6h1.1V710.3h-1.1v18.3Z" class="g0_4"/>
<path d="M646.8,728.6h1.1V710.3h-1.1v18.3Z" class="g0_4"/>
<path d="M703.5,728.6h1.1V710.3h-1.1v18.3Z" class="g0_4"/>
<path d="M755.9,728.6H757V710.3h-1.1v18.3Z" class="g0_4"/>
<path d="M811.5,728.6h1.1V710.3h-1.1v18.3Z" class="g0_4"/>
<path d="M97,729.8h1.1v-1.2H97v1.2Z" class="g0_4"/>
<path d="M98.1,729.7H299.9v-1.1H98.1v1.1Z" class="g0_4"/>
<path d="M299.9,729.8H301v-1.2h-1.1v1.2Z" class="g0_4"/>
<path d="M301,729.7h87v-1.1H301v1.1Z" class="g0_4"/>
<path d="M388,729.8h.8v-.1H388v.1Z" class="g0_4"/>
<path d="M388,729.7H592.2v-1.1H388v1.1Z" class="g0_4"/>
<path d="M592.2,729.8h1.1v-1.2h-1.1v1.2Z" class="g0_4"/>
<path d="M593.3,729.7h53.5v-1.1H593.3v1.1Z" class="g0_4"/>
<path d="M646.8,729.8h1.1v-1.2h-1.1v1.2Z" class="g0_4"/>
<path d="M647.9,729.7h55.6v-1.1H647.9v1.1Z" class="g0_4"/>
<path d="M703.5,729.8h1.1v-1.2h-1.1v1.2Z" class="g0_4"/>
<path d="M704.6,729.7h51.3v-1.1H704.6v1.1Z" class="g0_4"/>
<path d="M755.9,729.8H757v-1.2h-1.1v1.2Z" class="g0_4"/>
<path d="M757,729.7h54.5v-1.1H757v1.1Z" class="g0_4"/>
<path d="M811.5,729.8h1.1v-1.2h-1.1v1.2Z" class="g0_4"/>
<path d="M97,748.1h1.1V729.8H97v18.3Z" class="g0_4"/>
<path d="M299.9,748.1H301V729.8h-1.1v18.3Z" class="g0_4"/>
<path d="M388,748.1h.8V729.8H388v18.3Z" class="g0_4"/>
<path d="M592.2,748.1h1.1V729.8h-1.1v18.3Z" class="g0_4"/>
<path d="M646.8,748.1h1.1V729.8h-1.1v18.3Z" class="g0_4"/>
<path d="M703.5,748.1h1.1V729.8h-1.1v18.3Z" class="g0_4"/>
<path d="M755.9,748.1H757V729.8h-1.1v18.3Z" class="g0_4"/>
<path d="M811.5,748.1h1.1V729.8h-1.1v18.3Z" class="g0_4"/>
<path d="M97,749.3h1.1v-1.2H97v1.2Z" class="g0_4"/>
<path d="M98.1,749.2H299.9v-1.1H98.1v1.1Z" class="g0_4"/>
<path d="M299.9,749.3H301v-1.2h-1.1v1.2Z" class="g0_4"/>
<path d="M301,749.2h87v-1.1H301v1.1Z" class="g0_4"/>
<path d="M388,749.3h.8v-.1H388v.1Z" class="g0_4"/>
<path d="M388,749.2H592.2v-1.1H388v1.1Z" class="g0_4"/>
<path d="M592.2,749.3h1.1v-1.2h-1.1v1.2Z" class="g0_4"/>
<path d="M593.3,749.2h53.5v-1.1H593.3v1.1Z" class="g0_4"/>
<path d="M646.8,749.3h1.1v-1.2h-1.1v1.2Z" class="g0_4"/>
<path d="M647.9,749.2h55.6v-1.1H647.9v1.1Z" class="g0_4"/>
<path d="M703.5,749.3h1.1v-1.2h-1.1v1.2Z" class="g0_4"/>
<path d="M704.6,749.2h51.3v-1.1H704.6v1.1Z" class="g0_4"/>
<path d="M755.9,749.3H757v-1.2h-1.1v1.2Z" class="g0_4"/>
<path d="M757,749.2h54.5v-1.1H757v1.1Z" class="g0_4"/>
<path d="M811.5,749.3h1.1v-1.2h-1.1v1.2Z" class="g0_4"/>
<path d="M97,767.5h1.1V749.3H97v18.2Z" class="g0_4"/>
<path d="M299.9,767.5H301V749.3h-1.1v18.2Z" class="g0_4"/>
<path d="M388,767.5h.8V749.3H388v18.2Z" class="g0_4"/>
<path d="M592.2,767.5h1.1V749.3h-1.1v18.2Z" class="g0_4"/>
<path d="M646.8,767.5h1.1V749.3h-1.1v18.2Z" class="g0_4"/>
<path d="M703.5,767.5h1.1V749.3h-1.1v18.2Z" class="g0_4"/>
<path d="M755.9,767.5H757V749.3h-1.1v18.2Z" class="g0_4"/>
<path d="M811.5,767.5h1.1V749.3h-1.1v18.2Z" class="g0_4"/>
<path d="M97,768.7h1.1v-1.2H97v1.2Z" class="g0_4"/>
<path d="M98.1,768.6H299.9v-1.1H98.1v1.1Z" class="g0_4"/>
<path d="M299.9,768.7H301v-1.2h-1.1v1.2Z" class="g0_4"/>
<path d="M301,768.6h87v-1.1H301v1.1Z" class="g0_4"/>
<path d="M388,768.7h.8v-.1H388v.1Z" class="g0_4"/>
<path d="M388,768.6H592.2v-1.1H388v1.1Z" class="g0_4"/>
<path d="M592.2,768.7h1.1v-1.2h-1.1v1.2Z" class="g0_4"/>
<path d="M593.3,768.6h53.5v-1.1H593.3v1.1Z" class="g0_4"/>
<path d="M646.8,768.7h1.1v-1.2h-1.1v1.2Z" class="g0_4"/>
<path d="M647.9,768.6h55.6v-1.1H647.9v1.1Z" class="g0_4"/>
<path d="M703.5,768.7h1.1v-1.2h-1.1v1.2Z" class="g0_4"/>
<path d="M704.6,768.6h51.3v-1.1H704.6v1.1Z" class="g0_4"/>
<path d="M755.9,768.7H757v-1.2h-1.1v1.2Z" class="g0_4"/>
<path d="M757,768.6h54.5v-1.1H757v1.1Z" class="g0_4"/>
<path d="M811.5,768.7h1.1v-1.2h-1.1v1.2Z" class="g0_4"/>
<path d="M97,787.1h1.1V768.7H97v18.4Z" class="g0_4"/>
<path d="M299.9,787.1H301V768.7h-1.1v18.4Z" class="g0_4"/>
<path d="M388,787.1h.8V768.7H388v18.4Z" class="g0_4"/>
<path d="M592.2,787.1h1.1V768.7h-1.1v18.4Z" class="g0_4"/>
<path d="M646.8,787.1h1.1V768.7h-1.1v18.4Z" class="g0_4"/>
<path d="M703.5,787.1h1.1V768.7h-1.1v18.4Z" class="g0_4"/>
<path d="M755.9,787.1H757V768.7h-1.1v18.4Z" class="g0_4"/>
<path d="M811.5,787.1h1.1V768.7h-1.1v18.4Z" class="g0_4"/>
<path d="M97,788.2h1.1v-1.1H97v1.1Z" class="g0_4"/>
<path d="M98.1,788.2H299.9v-1.1H98.1v1.1Z" class="g0_4"/>
<path d="M299.9,788.2H301v-1.1h-1.1v1.1Z" class="g0_4"/>
<path d="M301,788.2h87v-1.1H301v1.1Z" class="g0_4"/>
<path d="M388,788.2h.8H388Z" class="g0_4"/>
<path d="M388,788.2H592.2v-1.1H388v1.1Z" class="g0_4"/>
<path d="M592.2,788.2h1.1v-1.1h-1.1v1.1Z" class="g0_4"/>
<path d="M593.3,788.2h53.5v-1.1H593.3v1.1Z" class="g0_4"/>
<path d="M646.8,788.2h1.1v-1.1h-1.1v1.1Z" class="g0_4"/>
<path d="M647.9,788.2h55.6v-1.1H647.9v1.1Z" class="g0_4"/>
<path d="M703.5,788.2h1.1v-1.1h-1.1v1.1Z" class="g0_4"/>
<path d="M704.6,788.2h51.3v-1.1H704.6v1.1Z" class="g0_4"/>
<path d="M755.9,788.2H757v-1.1h-1.1v1.1Z" class="g0_4"/>
<path d="M757,788.2h54.5v-1.1H757v1.1Z" class="g0_4"/>
<path d="M811.5,788.2h1.1v-1.1h-1.1v1.1Z" class="g0_4"/>
<path d="M97,806.5h1.1V788.2H97v18.3Z" class="g0_4"/>
<path d="M299.9,806.5H301V788.2h-1.1v18.3Z" class="g0_4"/>
<path d="M388,806.5h.8V788.2H388v18.3Z" class="g0_4"/>
<path d="M592.2,806.5h1.1V788.2h-1.1v18.3Z" class="g0_4"/>
<path d="M646.8,806.5h1.1V788.2h-1.1v18.3Z" class="g0_4"/>
<path d="M703.5,806.5h1.1V788.2h-1.1v18.3Z" class="g0_4"/>
<path d="M755.9,806.5H757V788.2h-1.1v18.3Z" class="g0_4"/>
<path d="M811.5,806.5h1.1V788.2h-1.1v18.3Z" class="g0_4"/>
<path d="M97,807.7h1.1v-1.2H97v1.2Z" class="g0_4"/>
<path d="M98.1,807.6H299.9v-1.1H98.1v1.1Z" class="g0_4"/>
<path d="M299.9,807.7H301v-1.2h-1.1v1.2Z" class="g0_4"/>
<path d="M301,807.6h87v-1.1H301v1.1Z" class="g0_4"/>
<path d="M388,807.7h.8v-.1H388v.1Z" class="g0_4"/>
<path d="M388,807.6H592.2v-1.1H388v1.1Z" class="g0_4"/>
<path d="M592.2,807.7h1.1v-1.2h-1.1v1.2Z" class="g0_4"/>
<path d="M593.3,807.6h53.5v-1.1H593.3v1.1Z" class="g0_4"/>
<path d="M646.8,807.7h1.1v-1.2h-1.1v1.2Z" class="g0_4"/>
<path d="M647.9,807.6h55.6v-1.1H647.9v1.1Z" class="g0_4"/>
<path d="M703.5,807.7h1.1v-1.2h-1.1v1.2Z" class="g0_4"/>
<path d="M704.6,807.6h51.3v-1.1H704.6v1.1Z" class="g0_4"/>
<path d="M755.9,807.7H757v-1.2h-1.1v1.2Z" class="g0_4"/>
<path d="M757,807.6h54.5v-1.1H757v1.1Z" class="g0_4"/>
<path d="M811.5,807.7h1.1v-1.2h-1.1v1.2Z" class="g0_4"/>
<path d="M97,826h1.1V807.7H97V826Z" class="g0_4"/>
<path d="M299.9,826H301V807.7h-1.1V826Z" class="g0_4"/>
<path d="M388,826h.8V807.7H388V826Z" class="g0_4"/>
<path d="M592.2,826h1.1V807.7h-1.1V826Z" class="g0_4"/>
<path d="M646.8,826h1.1V807.7h-1.1V826Z" class="g0_4"/>
<path d="M703.5,826h1.1V807.7h-1.1V826Z" class="g0_4"/>
<path d="M755.9,826H757V807.7h-1.1V826Z" class="g0_4"/>
<path d="M811.5,826h1.1V807.7h-1.1V826Z" class="g0_4"/>
<path d="M97,827.2h1.1V826H97v1.2Z" class="g0_4"/>
<path d="M98.1,827.1H299.9V826H98.1v1.1Z" class="g0_4"/>
<path d="M299.9,827.2H301V826h-1.1v1.2Z" class="g0_4"/>
<path d="M301,827.1h87V826H301v1.1Z" class="g0_4"/>
<path d="M388,827.2h.8v-.1H388v.1Z" class="g0_4"/>
<path d="M388,827.1H592.2V826H388v1.1Z" class="g0_4"/>
<path d="M592.2,827.2h1.1V826h-1.1v1.2Z" class="g0_4"/>
<path d="M593.3,827.1h53.5V826H593.3v1.1Z" class="g0_4"/>
<path d="M646.8,827.2h1.1V826h-1.1v1.2Z" class="g0_4"/>
<path d="M647.9,827.1h55.6V826H647.9v1.1Z" class="g0_4"/>
<path d="M703.5,827.2h1.1V826h-1.1v1.2Z" class="g0_4"/>
<path d="M704.6,827.1h51.3V826H704.6v1.1Z" class="g0_4"/>
<path d="M755.9,827.2H757V826h-1.1v1.2Z" class="g0_4"/>
<path d="M757,827.1h54.5V826H757v1.1Z" class="g0_4"/>
<path d="M811.5,827.2h1.1V826h-1.1v1.2Z" class="g0_4"/>
<path d="M97,845.4h1.1V827.2H97v18.2Z" class="g0_4"/>
<path d="M299.9,845.4H301V827.2h-1.1v18.2Z" class="g0_4"/>
<path d="M388,845.4h.8V827.2H388v18.2Z" class="g0_4"/>
<path d="M592.2,845.4h1.1V827.2h-1.1v18.2Z" class="g0_4"/>
<path d="M646.8,845.4h1.1V827.2h-1.1v18.2Z" class="g0_4"/>
<path d="M703.5,845.4h1.1V827.2h-1.1v18.2Z" class="g0_4"/>
<path d="M755.9,845.4H757V827.2h-1.1v18.2Z" class="g0_4"/>
<path d="M811.5,845.4h1.1V827.2h-1.1v18.2Z" class="g0_4"/>
<path d="M97,846.6h1.1v-1.2H97v1.2Z" class="g0_4"/>
<path d="M98.1,846.5H299.9v-1.1H98.1v1.1Z" class="g0_4"/>
<path d="M299.9,846.6H301v-1.2h-1.1v1.2Z" class="g0_4"/>
<path d="M301,846.5h87v-1.1H301v1.1Z" class="g0_4"/>
<path d="M388,846.6h.8v-.1H388v.1Z" class="g0_4"/>
<path d="M388,846.5H592.2v-1.1H388v1.1Z" class="g0_4"/>
<path d="M592.2,846.6h1.1v-1.2h-1.1v1.2Z" class="g0_4"/>
<path d="M593.3,846.5h53.5v-1.1H593.3v1.1Z" class="g0_4"/>
<path d="M646.8,846.6h1.1v-1.2h-1.1v1.2Z" class="g0_4"/>
<path d="M647.9,846.5h55.6v-1.1H647.9v1.1Z" class="g0_4"/>
<path d="M703.5,846.6h1.1v-1.2h-1.1v1.2Z" class="g0_4"/>
<path d="M704.6,846.5h51.3v-1.1H704.6v1.1Z" class="g0_4"/>
<path d="M755.9,846.6H757v-1.2h-1.1v1.2Z" class="g0_4"/>
<path d="M757,846.5h54.5v-1.1H757v1.1Z" class="g0_4"/>
<path d="M811.5,846.6h1.1v-1.2h-1.1v1.2Z" class="g0_4"/>
<path d="M97,883.3h1.1V846.6H97v36.7Z" class="g0_4"/>
<path d="M299.9,883.3H301V846.6h-1.1v36.7Z" class="g0_4"/>
<path d="M388,883.3h.8V846.6H388v36.7Z" class="g0_4"/>
<path d="M592.2,883.3h1.1V846.6h-1.1v36.7Z" class="g0_4"/>
<path d="M646.8,883.3h1.1V846.6h-1.1v36.7Z" class="g0_4"/>
<path d="M703.5,883.3h1.1V846.6h-1.1v36.7Z" class="g0_4"/>
<path d="M755.9,883.3H757V846.6h-1.1v36.7Z" class="g0_4"/>
<path d="M811.5,883.3h1.1V846.6h-1.1v36.7Z" class="g0_4"/>
<path d="M97,884.5h1.1v-1.2H97v1.2Z" class="g0_4"/>
<path d="M98.1,884.4H299.9v-1.1H98.1v1.1Z" class="g0_4"/>
<path d="M299.9,884.5H301v-1.2h-1.1v1.2Z" class="g0_4"/>
<path d="M301,884.4h87v-1.1H301v1.1Z" class="g0_4"/>
<path d="M388,884.5h.8v-.1H388v.1Z" class="g0_4"/>
<path d="M388,884.4H592.2v-1.1H388v1.1Z" class="g0_4"/>
<path d="M592.2,884.5h1.1v-1.2h-1.1v1.2Z" class="g0_4"/>
<path d="M593.3,884.4h53.5v-1.1H593.3v1.1Z" class="g0_4"/>
<path d="M646.8,884.5h1.1v-1.2h-1.1v1.2Z" class="g0_4"/>
<path d="M647.9,884.4h55.6v-1.1H647.9v1.1Z" class="g0_4"/>
<path d="M703.5,884.5h1.1v-1.2h-1.1v1.2Z" class="g0_4"/>
<path d="M704.6,884.4h51.3v-1.1H704.6v1.1Z" class="g0_4"/>
<path d="M755.9,884.5H757v-1.2h-1.1v1.2Z" class="g0_4"/>
<path d="M757,884.4h54.5v-1.1H757v1.1Z" class="g0_4"/>
<path d="M811.5,884.5h1.1v-1.2h-1.1v1.2Z" class="g0_4"/>
<path d="M97,902.7h1.1V884.5H97v18.2Z" class="g0_4"/>
<path d="M299.9,902.7H301V884.5h-1.1v18.2Z" class="g0_4"/>
<path d="M388,902.7h.8V884.5H388v18.2Z" class="g0_4"/>
<path d="M592.2,902.7h1.1V884.5h-1.1v18.2Z" class="g0_4"/>
<path d="M646.8,902.7h1.1V884.5h-1.1v18.2Z" class="g0_4"/>
<path d="M703.5,902.7h1.1V884.5h-1.1v18.2Z" class="g0_4"/>
<path d="M755.9,902.7H757V884.5h-1.1v18.2Z" class="g0_4"/>
<path d="M811.5,902.7h1.1V884.5h-1.1v18.2Z" class="g0_4"/>
<path d="M97,903.9h1.1v-1.2H97v1.2Z" class="g0_4"/>
<path d="M98.1,903.8H299.9v-1.1H98.1v1.1Z" class="g0_4"/>
<path d="M299.9,903.9H301v-1.2h-1.1v1.2Z" class="g0_4"/>
<path d="M301,903.8h87v-1.1H301v1.1Z" class="g0_4"/>
<path d="M388,903.9h.8v-.1H388v.1Z" class="g0_4"/>
<path d="M388,903.8H592.2v-1.1H388v1.1Z" class="g0_4"/>
<path d="M592.2,903.9h1.1v-1.2h-1.1v1.2Z" class="g0_4"/>
<path d="M593.3,903.8h53.5v-1.1H593.3v1.1Z" class="g0_4"/>
<path d="M646.8,903.9h1.1v-1.2h-1.1v1.2Z" class="g0_4"/>
<path d="M647.9,903.8h55.6v-1.1H647.9v1.1Z" class="g0_4"/>
<path d="M703.5,903.9h1.1v-1.2h-1.1v1.2Z" class="g0_4"/>
<path d="M704.6,903.8h51.3v-1.1H704.6v1.1Z" class="g0_4"/>
<path d="M755.9,903.9H757v-1.2h-1.1v1.2Z" class="g0_4"/>
<path d="M757,903.8h54.5v-1.1H757v1.1Z" class="g0_4"/>
<path d="M811.5,903.9h1.1v-1.2h-1.1v1.2Z" class="g0_4"/>
<path d="M97,940.6h1.1V903.9H97v36.7Z" class="g0_4"/>
<path d="M299.9,940.6H301V903.9h-1.1v36.7Z" class="g0_4"/>
<path d="M388,940.6h.8V903.9H388v36.7Z" class="g0_4"/>
<path d="M592.2,940.6h1.1V903.9h-1.1v36.7Z" class="g0_4"/>
<path d="M646.8,940.6h1.1V903.9h-1.1v36.7Z" class="g0_4"/>
<path d="M703.5,940.6h1.1V903.9h-1.1v36.7Z" class="g0_4"/>
<path d="M755.9,940.6H757V903.9h-1.1v36.7Z" class="g0_4"/>
<path d="M811.5,940.6h1.1V903.9h-1.1v36.7Z" class="g0_4"/>
<image preserveAspectRatio="none" x="762" y="947" width="16" height="61" xlink:href="img/1.png"/>
<image preserveAspectRatio="none" x="778" y="947" width="4" height="63" xlink:href="img/2.png"/>
<image preserveAspectRatio="none" x="792" y="947" width="8" height="61" xlink:href="img/3.png"/>
<image preserveAspectRatio="none" x="801" y="953" width="5" height="39" xlink:href="img/4.png"/>
<path d="M782.7,953.4l1.2,4.1l5.9,-12.6h15.5" class="g6_4"/>
<path d="M97,941.8h1.1v-1.2H97v1.2Z" class="g0_4"/>
<path d="M98.1,941.7H299.9v-1.1H98.1v1.1Z" class="g0_4"/>
<path d="M299.9,941.8H301v-1.2h-1.1v1.2Z" class="g0_4"/>
<path d="M301,941.7h87v-1.1H301v1.1Z" class="g0_4"/>
<path d="M388,941.8h.8v-.1H388v.1Z" class="g0_4"/>
<path d="M388,941.7H592.2v-1.1H388v1.1Z" class="g0_4"/>
<path d="M592.2,941.8h1.1v-1.2h-1.1v1.2Z" class="g0_4"/>
<path d="M593.3,941.7h53.5v-1.1H593.3v1.1Z" class="g0_4"/>
<path d="M646.8,941.8h1.1v-1.2h-1.1v1.2Z" class="g0_4"/>
<path d="M647.9,941.7h55.6v-1.1H647.9v1.1Z" class="g0_4"/>
<path d="M703.5,941.8h1.1v-1.2h-1.1v1.2Z" class="g0_4"/>
<path d="M704.6,941.7h51.3v-1.1H704.6v1.1Z" class="g0_4"/>
<path d="M755.9,941.8H757v-1.2h-1.1v1.2Z" class="g0_4"/>
<path d="M757,941.7h54.5v-1.1H757v1.1Z" class="g0_4"/>
<path d="M811.5,941.8h1.1v-1.2h-1.1v1.2Z" class="g0_4"/>
<path d="M97,961.2h1.1V941.8H97v19.4Z" class="g0_4"/>
<path d="M97,961.2H299.9v-1.1H97v1.1Z" class="g0_4"/>
<path d="M299.9,961.2H301V941.8h-1.1v19.4Z" class="g0_4"/>
<path d="M301,961.2h87v-1.1H301v1.1Z" class="g0_4"/>
<path d="M388,960.1h.8V941.8H388v18.3Z" class="g0_4"/>
<path d="M388,961.2H592.2v-1.1H388v1.1Z" class="g0_4"/>
<path d="M592.2,961.2h1.1V941.8h-1.1v19.4Z" class="g0_4"/>
<path d="M593.3,961.2h53.5v-1.1H593.3v1.1Z" class="g0_4"/>
<path d="M646.8,961.2h1.1V941.8h-1.1v19.4Z" class="g0_4"/>
<path d="M647.9,961.2h55.6v-1.1H647.9v1.1Z" class="g0_4"/>
<path d="M703.5,961.2h1.1V941.8h-1.1v19.4Z" class="g0_4"/>
<path d="M704.6,961.2h51.3v-1.1H704.6v1.1Z" class="g0_4"/>
<path d="M755.9,961.2H757V941.8h-1.1v19.4Z" class="g0_4"/>
<path d="M757,961.2h54.5v-1.1H757v1.1Z" class="g0_4"/>
<path d="M811.5,961.2h1.1V941.8h-1.1v19.4Z" class="g0_4"/>
<path d="M811.5,961.2h1.1v-1.1h-1.1v1.1Z" class="g0_4"/>
</svg>