<?xml version="1.0" encoding="UTF-8" standalone="no"?>
<!DOCTYPE svg PUBLIC "-//W3C//DTD SVG 1.1//EN"
"http://www.w3.org/Graphics/SVG/1.1/DTD/svg11.dtd">
<svg viewBox="0 0 909 1286" version="1.1" xmlns="http://www.w3.org/2000/svg" xmlns:xlink="http://www.w3.org/1999/xlink">
<defs>
<style type="text/css"><![CDATA[
.g0_1{
fill: none;
stroke: #231F20;
stroke-width: 0.693;
stroke-linecap: round;
stroke-linejoin: round;
}
.g1_1{
fill: none;
stroke: #231F20;
stroke-width: 2.164;
stroke-linecap: round;
stroke-linejoin: round;
}
.g2_1{
fill: none;
stroke: #000000;
stroke-width: 0.693;
stroke-linecap: round;
stroke-linejoin: round;
}
.g3_1{
}
.g4_1{
fill: none;
stroke: #000000;
stroke-width: 0.346;
stroke-linecap: round;
stroke-linejoin: round;
}
.g5_1{
fill: #FFFFFF;
}
.g6_1{
fill: none;
stroke: #231F20;
stroke-width: 0.33;
stroke-linecap: butt;
stroke-linejoin: miter;
stroke-miterlimit: 22;
}
.g7_1{
fill: none;
stroke: #231F20;
stroke-width: 0.262;
stroke-linecap: round;
stroke-linejoin: round;
stroke-miterlimit: 4;
stroke-dasharray: 23,12,23,12,1,12;
}
.g8_1{
fill: none;
stroke: #231F20;
stroke-width: 0.262;
stroke-linecap: round;
stroke-linejoin: round;
stroke-miterlimit: 4;
}
.g9_1{
fill: none;
stroke: #231F20;
stroke-width: 0.525;
stroke-linecap: round;
stroke-linejoin: round;
stroke-miterlimit: 4;
}
.ga_1{
fill: none;
stroke: #231F20;
stroke-width: 0.525;
stroke-linecap: butt;
stroke-linejoin: round;
stroke-miterlimit: 4;
}
.gb_1{
fill: none;
stroke: #000000;
stroke-width: 0.507;
stroke-linecap: round;
stroke-linejoin: round;
}
.gc_1{
stroke: #000000;
stroke-width: 0.507;
stroke-linecap: round;
stroke-linejoin: round;
}
.gd_1{
fill: none;
stroke: #000000;
stroke-width: 1.448;
stroke-linecap: round;
stroke-linejoin: round;
}
]]></style>
</defs>
<path d="M235.8,1022.3h4.1m-3.8,-.4h3.5m-1.4,-2.1h.1m-.5,.4h.8m-1.2,.5h1.5m-1.9,.3h2.1m-2.6,.5h2.9m-8.4,2.9l13.1,-5M231,1034.5l13.1,5m-5.9,-19.7l-2.9,2.9m4.9,0l-2,-2.9m-2.9,2.9h4.9M231,1021v16.8m109.3,-5.4h4.2m-3.9,-.4h3.6m-2.2,-2.1h.1m-.4,.4h.8m-1,.4H343m-1.8,.5h2.1m-2.4,.3h2.8m5.7,-.3V1048M345,1032.8h-5l2,-3l3,3m4.4,11.8l-13.2,5m13.2,-15.1l-13.2,-5.1m-24.3,-7.1H316m-3.9,-.4h3.6m-2.2,-2.1h.1m-.4,.4h.8m-1.1,.5h1.5m-1.8,.3h2.2m-2.4,.5h2.8m5.6,-.5v16.8m-4.3,-15.1h-4.9l1.9,-2.9l3,2.9m4.3,11.8l-13.1,5m13.1,-15.1l-13.1,-5m99,66.7H411m-3.9,-.5h3.6m-1.5,-2.1h.1m-.4,.5h.7m-1.2,.4h1.5m-1.9,.4h2.2m-2.6,.5h2.8m-8.3,2.9l13.1,-5m-13.1,15.1l13.1,4.9m-5.9,-19.7l-2.9,3m4.9,0l-2,-3m-2.9,3h4.9m-9.2,-1.7v16.8m47.8,-22.3h4.3m-4,-.3h3.7M451.4,1077.2h.7m-1,.5h1.5m-1.8,.4H453m-2.4,.4h2.8m-7.5,-2.1l13.1,5.1m-13.1,-15.1l13.1,-5.1m-9.3,18.5h4.9m-2.9,-3l-2,3m4.9,0l-2.9,-3M445.9,1063v16.8m-197,41.6h4.2m-3.8,-.5h3.5m-1.5,-2.1h.2m-.5,.4h.8m-1.3,.4H252m-1.8,.4h2.1m-2.5,.5h2.8m4.7,-2.1l-13.2,5m13.2,-15.1l-13.2,-5.1m9.2,18.5h-4.8m2.8,-3l2,3m-4.8,0l2.8,-3m6,-13.8v16.8m41.4,-.3h4.2m-4,-.5h3.6m-2.2,-2.1h.2m-.5,.4h.8m-1,.4h1.5m-1.8,.4h2.1m-2.4,.5H302m-7.5,-2.1l13.2,5m-13.2,-15.1l13.2,-5.1m-9.2,18.5h4.8m-3,-3l-1.8,3m4.8,0l-3,-3m-5.8,-13.8v16.8m13.2,-18.5v-63.7m-63.6,0v63.7m13.2,10.1h37.2m-17.5,0v-20.1H244.1m0,30.2v8.4l-4.4,6.7m-2.3,-6.7h13.3m-17.6,6.7l4.3,-6.7m13.3,0l-4.5,6.7m61.5,-15.1v8.4l-4.4,6.7m-2.2,-6.7h13.2m-17.6,6.7l4.4,-6.7m13.2,0l-4.4,6.7m-34.3,-23.9h2.8m-3.3,-.4h3.8m-4,-.5h4.2m-3.5,-1.6h2.8m-3.3,.4h3.8m-4,.4h4.2m-4.3,.4h4.3m-.1,0c0,.9,-.9,1.7,-2.1,1.7c-1.2,0,-2.1,-.8,-2.1,-1.7c0,-.9,.9,-1.7,2.1,-1.7c1.2,0,2.1,.8,2.1,1.7m-36.3,-18.8h2.8m-3.3,-.5H246m-4.1,-.4h4.3m-3.5,-1.7h2.8m-3.3,.5H246m-4.1,.4h4.3m-4.3,.4h4.3m0,0c0,.9,-1,1.6,-2.1,1.6c-1.2,0,-2.2,-.7,-2.2,-1.6c0,-.9,1,-1.6,2.2,-1.6c1.1,0,2.1,.7,2.1,1.6m60.1,1.3h2.8m-3.3,-.5h3.8m-4.1,-.4h4.3m-3.5,-1.7h2.8m-3.3,.5h3.8m-4.1,.4h4.3m-4.3,.4h4.4m-.1,0c0,.9,-1,1.6,-2.2,1.6c-1.2,0,-2.2,-.7,-2.2,-1.6c0,-.9,1,-1.6,2.2,-1.6c1.2,0,2.2,.7,2.2,1.6m-2.1,0h94.4m-15.5,0v-38.6m-1.4,39.9H388m-3.3,-.5h3.8m-4,-.4h4.2m-3.5,-1.7H388m-3.3,.5h3.8m-4,.4h4.2m-4.3,.4h4.4m-.1,0c0,.9,-1,1.6,-2.2,1.6c-1.1,0,-2.1,-.7,-2.1,-1.6c0,-.9,1,-1.6,2.1,-1.6c1.2,0,2.2,.7,2.2,1.6M380,1056.3c1.9,-1.1,4.2,-1.7,6.6,-1.7c2.4,0,4.7,.6,6.6,1.7m-13.1,-5h13.1m22,31.9V938.7m0,164.5v28.6l-4.5,6.7m-2.2,-6.7h13.2m-17.5,6.7l4.3,-6.7m13.2,0l-4.4,6.7m83.3,-6.7l-4.3,6.7m-2.2,-6.7h13.1m-17.4,6.7l4.3,-6.7m13.1,0l-4.3,6.7m45.9,22.9l-4.4,6.7m-2.1,-6.7h13.2m-17.6,6.7l4.4,-6.7m13.2,0l-4.4,6.7m-50.5,-36.3v-40.2m-9,-2.1h4.3m-4,-.5h3.5m-2.1,-2.1h.1m-.3,.5h.7m-1,.4h1.4m-1.7,.4h2.1m-2.4,.4h2.9m-7.6,-2.1l13.1,5.1m-13.1,-15.2l13.1,-5m-9.3,18.4h5m-3,-3l-2,3m5,0l-3,-3M487.5,1073v16.8m0,-8.3H459m-13.1,-10.1H415.2m-1.5,1.3h2.9m-3.3,-.5H417m-4,-.4h4.3m-3.6,-1.7h2.9m-3.3,.5H417m-4,.4h4.3m-4.4,.4h4.4m0,-.1c0,.9,-.9,1.7,-2.2,1.7c-1.2,0,-2.2,-.8,-2.2,-1.7c0,-.9,1,-1.6,2.2,-1.6c1.3,0,2.2,.7,2.2,1.6m83.3,.1V938.7m-164.4,121l-4.4,6.7m-2.2,-6.7h13.2m-17.6,6.7l4.4,-6.7m13.2,0l-4.4,6.7m-2.2,-6.7v-10.1m0,-20.2H320.8m28.6,11.9H369v36.8m0,0H180.5m127.2,-58.7H244.1m31.5,1.3h2.8m-3.3,-.5h3.8m-4,-.4h4.2m-3.5,-1.7h2.8m-3.3,.4h3.8m-4,.5h4.2m-4.3,.4h4.3m-.1,0c0,.9,-.9,1.6,-2.1,1.6c-1.2,0,-2.1,-.7,-2.1,-1.6c0,-.9,.9,-1.7,2.1,-1.7c1.2,0,2.1,.8,2.1,1.7M277,910.6V897.2m0,-.2H654.8m-240.9,1.2h2.9m-3.3,-.4h3.8m-4,-.5h4.2m-3.6,-1.6h2.9m-3.3,.4h3.8m-4,.4h4.2m-4.4,.5h4.5m-.1,0c0,.9,-1,1.7,-2.2,1.7c-1.2,0,-2.2,-.8,-2.2,-1.7c0,-.9,1,-1.7,2.2,-1.7c1.2,0,2.2,.8,2.2,1.7m40,1.2h3m-3.3,-.4h3.7m-4,-.5h4.2m-3.6,-1.6h3m-3.3,.4h3.7m-4,.4h4.2m-4.4,.5h4.5m0,0c0,.9,-1,1.7,-2.2,1.7c-1.2,0,-2.2,-.8,-2.2,-1.7c0,-.9,1,-1.7,2.2,-1.7c1.2,0,2.2,.8,2.2,1.7m-2.2,0v164.3M499.2,898.2h2.9m-3.4,-.4h3.9m-4,-.5h4.2m-3.6,-1.6h2.9m-3.4,.4h3.9m-4,.4h4.2m-4.4,.5h4.5m-.1,0c0,.9,-1,1.7,-2.2,1.7c-1.2,0,-2.2,-.8,-2.2,-1.7c0,-.9,1,-1.7,2.2,-1.7c1.2,0,2.2,.8,2.2,1.7m84.6,1.2h2.8m-3.3,-.4h3.8m-4,-.5h4.2m-3.5,-1.6h2.8m-3.3,.4h3.8m-4,.4h4.2m-4.3,.5h4.3m0,0c0,.9,-.9,1.7,-2.1,1.7c-1.2,0,-2.2,-.8,-2.2,-1.7c0,-.9,1,-1.7,2.2,-1.7c1.2,0,2.1,.8,2.1,1.7m-2.2,0v52M618,898.2h2.9m-3.3,-.4h3.8m-4.1,-.5h4.3M618,895.7h2.9m-3.3,.4h3.8m-4.1,.4h4.3m-4.3,.5h4.3m0,0c0,.9,-1,1.7,-2.2,1.7c-1.1,0,-2.1,-.8,-2.1,-1.7c0,-.9,1,-1.7,2.1,-1.7c1.2,0,2.2,.8,2.2,1.7m-2.1,0v62m-118.9,68.8h-114v23.5M499.2,1029h2.9m-3.4,-.4h3.9m-4,-.4h4.2m-3.6,-1.7h2.9m-3.4,.4h3.9m-4,.4h4.2m-4.4,.5h4.5m-.1,0c0,.9,-1,1.6,-2.2,1.6c-1.2,0,-2.2,-.7,-2.2,-1.6c0,-.9,1,-1.7,2.2,-1.7c1.2,0,2.2,.8,2.2,1.7m33.3,-22.2h4.2m-3.8,-.4H540m-1.4,-2.1h.1m-.4,.4h.7m-1.2,.4h1.5m-1.9,.4h2.2m-2.6,.4h2.8m4.6,-2.1l-13.1,5.1m13.1,-15.1l-13.1,-5.1m9.3,18.5h-4.8m2.8,-3l2,3m-4.8,0l2.8,-3m5.8,-13.9V1006m35.4,-39h4.1m-3.8,-.4h3.5m-2.2,-2.1h.1m-.4,.4h.8m-1.1,.4h1.5m-1.7,.5h2.1m-2.5,.3h3m-7.6,-2l13.1,5M575.6,953.9L588.7,949m-9.2,18.4h4.9m-2.9,-3.1l-2,3.1m4.9,0l-2.9,-3.1m-5.9,-13.7v16.8m34.8,9.6h4.3m-4,-.4h3.6m-2.2,-2.1h.1m-.4,.4h.7m-1,.5H613m-1.8,.4h2.2m-2.4,.4h2.8m-7.4,-2.1l13.1,5m-13.1,-15L619.5,959m-9.3,18.5h4.9m-3,-3.1l-1.9,3.1m4.9,0l-3,-3.1m-5.7,-13.7v16.8M575.6,959h-75m30.7,28.5H502.8m116.7,-8.4v28.6m0,20.1H531.3v-20.1m13.1,-10.5h75.1M588.7,969.1h17.7M618,998.4h2.9m-3.3,-.4h3.8m-4.1,-.5h4.3M618,995.9h2.9m-3.3,.4h3.8m-4.1,.5h4.3m-4.3,.4h4.3m0,-.1c0,.9,-1,1.7,-2.2,1.7c-1.1,0,-2.1,-.8,-2.1,-1.7c0,-.9,1,-1.7,2.1,-1.7c1.2,0,2.2,.8,2.2,1.7M499.2,988.8h2.9m-3.4,-.4h3.9m-4,-.5h4.2m-3.6,-1.6h2.9m-3.4,.4h3.9m-4,.4h4.2m-4.4,.4h4.5m-.1,-.1c0,.9,-1,1.7,-2.2,1.7c-1.2,0,-2.2,-.8,-2.2,-1.7c0,-.9,1,-1.6,2.2,-1.6c1.2,0,2.2,.7,2.2,1.6m-3.6,-27.1h2.9m-3.4,-.5h3.9m-4,-.3h4.2m-3.6,-1.8h2.9m-3.4,.4h3.9m-4,.5h4.2m-4.4,.4h4.5m-.1,0c0,.9,-1,1.6,-2.2,1.6c-1.2,0,-2.2,-.7,-2.2,-1.6c0,-.9,1,-1.6,2.2,-1.6c1.2,0,2.2,.7,2.2,1.6M618,1029h2.9m-3.3,-.4h3.8m-4.1,-.4h4.3m-3.6,-1.7h2.9m-3.3,.4h3.8m-4.1,.4h4.3m-4.3,.5h4.3m0,0c0,.9,-1,1.6,-2.2,1.6c-1.1,0,-2.1,-.7,-2.1,-1.6c0,-.9,1,-1.7,2.1,-1.7c1.2,0,2.2,.8,2.2,1.7m-74.3,1.2h3m-3.4,-.4h3.9m-4.1,-.4H551m-3.7,-1.7h3m-3.4,.4h3.9m-4.1,.4H551m-4.4,.5h4.5m-.1,0c0,.9,-1,1.6,-2.2,1.6c-1.2,0,-2.2,-.7,-2.2,-1.6c0,-.9,1,-1.7,2.2,-1.7c1.2,0,2.2,.8,2.2,1.7m-51.8,24.7h2.9m-3.4,-.4h3.9m-4,-.4h4.2m-3.6,-1.7h2.9m-3.4,.4h3.9m-4,.5h4.2m-4.4,.4h4.5m-.1,0c0,.9,-1,1.6,-2.2,1.6c-1.2,0,-2.2,-.7,-2.2,-1.6c0,-.9,1,-1.7,2.2,-1.7c1.2,0,2.2,.8,2.2,1.7m46,-23.5V1072m-46,-20.7H606.4m4.6,-7.2h4.3m-3.8,-.4H615m-1.5,-2.1h.2m-.5,.4h.7m-1.1,.5h1.4m-1.9,.4h2.2m-2.6,.4h2.8m-8.3,2.9l13.1,-4.9m-13.1,15l13.1,5m-5.9,-19.8l-2.9,3.1m4.9,0l-2,-3.1m-2.9,3.1h4.9m-9.2,-1.7v16.8m13.1,-25.2h35m-36.5,1.2h2.9m-3.3,-.4h3.8m-4.1,-.4h4.3m-3.6,-1.7h2.9m-3.3,.4h3.8m-4.1,.5h4.3m-4.3,.4h4.3m0,0c0,.9,-1,1.6,-2.2,1.6c-1.1,0,-2.1,-.7,-2.1,-1.6c0,-.9,1,-1.7,2.1,-1.7c1.2,0,2.2,.8,2.2,1.7m16.9,26.8v10.1l-4.4,6.7m-2.3,-6.7h13.1m-17.4,6.7l4.3,-6.7m13.1,0l-4.3,6.7m-91.8,20.6v62.7m0,-20.1h106m-70.8,0v18.4h24.1m-6.6,2.1h1.1m-1.1,-.4h2.2m-2.2,-.4h3.3m-3.3,-.4h4.4m-4.4,-.5H607m-5.5,-2.5h1.1m-1.1,.4h2.2m-2.2,.5h3.3m-3.3,.4h4.4m-4.4,.4H607m-5.5,.4h6.6l-6.6,-2.5m0,5l6.6,-2.5m-6.6,-2.5v5m-19,-19.7h2.9m-3.4,-.3h3.9m-4.1,-.5h4.3m-3.6,-1.6h2.9m-3.4,.3h3.9m-4.1,.4h4.3m-4.3,.5h4.3m0,0c0,.9,-1,1.7,-2.2,1.7c-1.2,0,-2.2,-.8,-2.2,-1.7c0,-1,1,-1.7,2.2,-1.7c1.2,0,2.2,.7,2.2,1.7m-38.7,1.2h2.9m-3.4,-.3h3.9m-4.1,-.5H551m-3.6,-1.6h2.9m-3.4,.3h3.9m-4.1,.4H551m-4.4,.5h4.5m-.1,0c0,.9,-1,1.7,-2.2,1.7c-1.2,0,-2.2,-.8,-2.2,-1.7c0,-1,1,-1.7,2.2,-1.7c1.2,0,2.2,.7,2.2,1.7m70.6,-132.6l-2.1,-1m2.1,1l-4.3,2.3l4.3,2.3l-4.3,2.2l4.3,2.2l-4.3,2.3l2.2,1v20.3M231,1029.4H211.2m-8.3,3H207m-3.7,-.4h3.5m-1.5,-2.1h.2m-.7,.4h.9m-1.2,.4H206m-1.9,.5h2.2m-2.6,.3h2.8m-8.5,3l13.2,-5.1M198,1044.6l13.2,5m-5.9,-19.8l-2.9,3m4.9,0l-2,-3m-2.9,3h4.9m-9.3,-1.6V1048m0,-8.5H180.5m30.7,10.1v10.1l-4.4,6.7m-2.1,-6.7h13.1m-17.6,6.7l4.5,-6.7m13.1,0l-4.4,6.7" class="g0_1"/>
<path d="M294.4,923.9c0,7.4,-7.8,13.3,-17.4,13.3c-9.7,0,-17.5,-5.9,-17.5,-13.3c0,-7.4,7.8,-13.3,17.5,-13.3c9.6,0,17.4,5.9,17.4,13.3" class="g1_1"/>
<path d="M259.5,923.9h35M277,1018.1V937.2M415.1,912V897" class="g0_1"/>
<path d="M432.6,925.3c0,7.4,-7.8,13.4,-17.5,13.4c-9.6,0,-17.4,-6,-17.4,-13.4c0,-7.3,7.8,-13.3,17.4,-13.3c9.7,0,17.5,6,17.5,13.3" class="g1_1"/>
<path d="M397.7,925.4h34.9m68,-13.4V897" class="g0_1"/>
<path d="M518.1,925.3c0,7.4,-7.8,13.4,-17.5,13.4c-9.6,0,-17.5,-6,-17.5,-13.4C483.1,918,491,912,500.6,912c9.7,0,17.5,6,17.5,13.3" class="g1_1"/>
<path d="M483.2,925.4h35" class="g0_1"/>
<path d="M566.3,1085.3c0,7.4,-7.8,13.4,-17.5,13.4c-9.6,0,-17.5,-6,-17.5,-13.4c0,-7.3,7.9,-13.3,17.5,-13.3c9.7,0,17.5,6,17.5,13.3" class="g1_1"/>
<path d="M531.3,1085.3h35m53.2,-24h19" class="g0_1"/>
<path d="M701.6,789h11.5V777.5H701.6V789Zm0,-19h11.5V758.5H701.6V770Zm0,-19.1h11.5V739.4H701.6v11.5Zm0,-19.1h11.5V720.4H701.6v11.4Zm0,-19.1h11.5V701.3H701.6v11.4Zm0,-19h11.5V682.2H701.6v11.5Zm0,-19.1h11.5V663.2H701.6v11.4Z" class="g2_1"/>
<path fill-rule="evenodd" d="M722.6,754.6c-.6,.1,-1,.4,-1.3,.7c-.3,.4,-.4,.9,-.4,1.5h-1.2c0,-.6,.5,-1.3,1.3,-1.8c.3,-.1,.6,-.3,.9,-.3v-.1c-.3,0,-.6,-.2,-.9,-.3c-.7,-.5,-1.2,-1.1,-1.3,-1.8h1.2c0,.6,.2,1.1,.4,1.4c.3,.4,.7,.6,1.3,.7Z" class="g3_1"/>
<path d="M722.6,754.6c-.6,.1,-1,.4,-1.3,.7c-.3,.4,-.4,.9,-.4,1.5m-1.2,0c0,-.6,.5,-1.3,1.3,-1.8c.3,-.1,.6,-.3,.9,-.3v-.1c-.3,0,-.6,-.2,-.9,-.3c-.7,-.5,-1.2,-1.1,-1.3,-1.8m1.2,0c0,.6,.2,1.1,.4,1.4c.3,.4,.7,.6,1.3,.7" class="g4_1"/>
<path fill-rule="evenodd" d="M719.7,756.7l1.2,.1v6.9h-1.2Z" class="g3_1"/>
<path d="M720.9,756.8v6.9m-1.2,0v-7" class="g4_1"/>
<path fill-rule="evenodd" d="M719.7,752.5l1.2,-.1v-6.7l-1.2,-.1Z" class="g3_1"/>
<path d="M720.9,752.4v-6.7m-1.2,-.1v6.9" class="g4_1"/>
<path fill-rule="evenodd" d="M718,765.8c.6,.1,1.2,-.1,1.8,-.5c.7,-.4,1.1,-1,1.1,-1.6h-1.2c0,.5,-.1,1,-.4,1.4c-.3,.3,-.7,.6,-1.3,.7Z" class="g3_1"/>
<path d="M718,765.8c.6,.1,1.2,-.1,1.8,-.5c.7,-.4,1.1,-1,1.1,-1.6m-1.2,0c0,.5,-.1,1,-.4,1.4c-.3,.3,-.7,.6,-1.3,.7" class="g4_1"/>
<path fill-rule="evenodd" d="M718,743.5c.6,-.1,1.2,0,1.8,.4c.7,.5,1.1,1.2,1.1,1.8l-1.2,-.1c0,-.6,-.1,-1.1,-.4,-1.4c-.3,-.4,-.7,-.6,-1.3,-.7Z" class="g3_1"/>
<path d="M718,743.5c.6,-.1,1.2,0,1.8,.4c.7,.5,1.1,1.2,1.1,1.8m-1.2,-.1c0,-.6,-.1,-1.1,-.4,-1.4c-.3,-.4,-.7,-.6,-1.3,-.7" class="g4_1"/>
<path fill-rule="evenodd" d="M722.6,696.4c-.6,.1,-1,.4,-1.3,.7c-.2,.4,-.4,.9,-.4,1.4h-1.2c0,-.6,.5,-1.3,1.3,-1.7c.3,-.2,.6,-.3,.9,-.4c-.3,0,-.6,-.2,-.9,-.3c-.8,-.5,-1.3,-1.2,-1.3,-1.9l1.2,.1c0,.6,.2,1.1,.4,1.4c.3,.4,.7,.6,1.3,.7Z" class="g3_1"/>
<path d="M722.6,696.4c-.6,.1,-1,.4,-1.3,.7c-.2,.4,-.4,.9,-.4,1.4m-1.2,0c0,-.6,.5,-1.3,1.3,-1.7c.3,-.2,.6,-.3,.9,-.4c-.3,0,-.6,-.2,-.9,-.3c-.8,-.5,-1.3,-1.2,-1.3,-1.9m1.2,.1c0,.6,.2,1.1,.4,1.4c.3,.4,.7,.6,1.3,.7" class="g4_1"/>
<path fill-rule="evenodd" d="M719.7,698.5h1.2v6.9h-1.2v-6.9Z" class="g3_1"/>
<path d="M720.9,698.5v6.9m-1.2,0v-6.9" class="g4_1"/>
<path fill-rule="evenodd" d="M719.7,694.2h1.2v-6.8h-1.2v6.8Z" class="g3_1"/>
<path d="M720.9,694.2v-6.8m-1.2,0v6.8" class="g4_1"/>
<path fill-rule="evenodd" d="M718,707.6c.6,.1,1.2,-.1,1.8,-.5c.7,-.4,1.1,-1.1,1.1,-1.7h-1.2c0,.6,-.1,1,-.4,1.4c-.3,.4,-.7,.6,-1.3,.7Z" class="g3_1"/>
<path d="M718,707.6c.6,.1,1.2,-.1,1.8,-.5c.7,-.4,1.1,-1.1,1.1,-1.7m-1.2,0c0,.6,-.1,1,-.4,1.4c-.3,.4,-.7,.6,-1.3,.7" class="g4_1"/>
<path fill-rule="evenodd" d="M718,685.3c.6,-.1,1.2,0,1.8,.4c.7,.4,1.1,1.1,1.1,1.7h-1.2c0,-.6,-.1,-1.1,-.4,-1.4c-.3,-.4,-.7,-.6,-1.3,-.7Z" class="g3_1"/>
<path d="M718,685.3c.6,-.1,1.2,0,1.8,.4c.7,.4,1.1,1.1,1.1,1.7m-1.2,0c0,-.6,-.1,-1.1,-.4,-1.4c-.3,-.4,-.7,-.6,-1.3,-.7" class="g4_1"/>
<path d="M615.1,789h11.4V777.5H615.1V789Zm0,-19h11.4V758.5H615.1V770Zm0,-19.1h11.4V739.4H615.1v11.5Zm0,-19.1h11.4V720.4H615.1v11.4Zm0,-19.1h11.4V701.3H615.1v11.4Zm0,-19h11.4V682.2H615.1v11.5Zm0,-19.1h11.4V663.2H615.1v11.4Z" class="g2_1"/>
<path fill-rule="evenodd" d="M608.3,696.4c.6,-.2,1,-.4,1.3,-.7c.2,-.4,.4,-.9,.4,-1.5h1.2c0,.7,-.5,1.4,-1.3,1.8c-.3,.2,-.6,.3,-.9,.4c.3,0,.6,.1,.9,.3c.8,.5,1.3,1.2,1.3,1.8H610c0,-.6,-.1,-1,-.4,-1.4c-.3,-.3,-.7,-.6,-1.3,-.7Z" class="g3_1"/>
<path d="M608.3,696.4c.6,-.2,1,-.4,1.3,-.7c.2,-.4,.4,-.9,.4,-1.5m1.2,0c0,.7,-.5,1.4,-1.3,1.8c-.3,.2,-.6,.3,-.9,.4c.3,0,.6,.1,.9,.3c.8,.5,1.3,1.2,1.3,1.8m-1.2,0c0,-.6,-.1,-1,-.4,-1.4c-.3,-.3,-.7,-.6,-1.3,-.7" class="g4_1"/>
<path fill-rule="evenodd" d="M610,687.4h1.2v6.8H610v-6.8Z" class="g3_1"/>
<path d="M610,694.2v-6.8m1.2,0v6.8" class="g4_1"/>
<path fill-rule="evenodd" d="M610,705.4h1.2v-6.9H610v6.9Z" class="g3_1"/>
<path d="M610,698.5v6.9m1.2,0v-6.9" class="g4_1"/>
<path fill-rule="evenodd" d="M612.9,685.3c-.6,-.1,-1.2,0,-1.8,.4c-.7,.4,-1.1,1.1,-1.1,1.7h1.2c0,-.6,.1,-1.1,.4,-1.4c.3,-.4,.7,-.6,1.3,-.7Z" class="g3_1"/>
<path d="M612.9,685.3c-.6,-.1,-1.2,0,-1.8,.4c-.7,.4,-1.1,1.1,-1.1,1.7m1.2,0c0,-.6,.1,-1.1,.4,-1.4c.3,-.4,.7,-.6,1.3,-.7" class="g4_1"/>
<path fill-rule="evenodd" d="M612.9,707.6c-.6,.1,-1.2,-.1,-1.8,-.5c-.7,-.4,-1.1,-1.1,-1.1,-1.7h1.2c0,.6,.1,1,.4,1.4c.3,.4,.8,.6,1.3,.7Z" class="g3_1"/>
<path d="M612.9,707.6c-.6,.1,-1.2,-.1,-1.8,-.5c-.7,-.4,-1.1,-1.1,-1.1,-1.7m1.2,0c0,.6,.1,1,.4,1.4c.3,.4,.8,.6,1.3,.7" class="g4_1"/>
<path fill-rule="evenodd" d="M608.3,754.7c.6,-.1,1,-.3,1.3,-.7c.2,-.3,.4,-.8,.4,-1.4l1.2,-.1c0,.7,-.5,1.4,-1.3,1.8c-.3,.2,-.6,.3,-.9,.4c.3,.1,.6,.2,.9,.4c.8,.4,1.3,1.1,1.3,1.8l-1.2,-.1c0,-.6,-.1,-1.1,-.4,-1.4c-.3,-.4,-.7,-.6,-1.3,-.7Z" class="g3_1"/>
<path d="M608.3,754.7c.6,-.1,1,-.3,1.3,-.7c.2,-.3,.4,-.8,.4,-1.4m1.2,-.1c0,.7,-.5,1.4,-1.3,1.8c-.3,.2,-.6,.3,-.9,.4c.3,.1,.6,.2,.9,.4c.8,.4,1.3,1.1,1.3,1.8m-1.2,-.1c0,-.6,-.1,-1.1,-.4,-1.4c-.3,-.4,-.7,-.6,-1.3,-.7" class="g4_1"/>
<path fill-rule="evenodd" d="M611.2,752.6H610v-6.8l1.2,-.1Z" class="g3_1"/>
<path d="M610,752.6v-6.8m1.2,-.1v6.9" class="g4_1"/>
<path fill-rule="evenodd" d="M610,763.7h1.2v-6.8H610v6.8Z" class="g3_1"/>
<path d="M610,756.9v6.8m1.2,0v-6.8" class="g4_1"/>
<path fill-rule="evenodd" d="M612.9,743.6c-.6,-.2,-1.2,0,-1.8,.4c-.7,.4,-1.1,1.1,-1.1,1.7v.1l1.2,-.1c0,-.6,.1,-1.1,.4,-1.4c.3,-.4,.7,-.6,1.3,-.7Z" class="g3_1"/>
<path d="M612.9,743.6c-.6,-.2,-1.2,0,-1.8,.4c-.7,.4,-1.1,1.1,-1.1,1.7m1.2,0c0,-.6,.1,-1.1,.4,-1.4c.3,-.4,.7,-.6,1.3,-.7" class="g4_1"/>
<path fill-rule="evenodd" d="M612.9,765.8c-.6,.2,-1.2,0,-1.8,-.4c-.7,-.4,-1.1,-1.1,-1.1,-1.7h1.2c0,.6,.1,1.1,.4,1.5c.3,.3,.7,.5,1.3,.6Z" class="g3_1"/>
<path d="M612.9,765.8c-.6,.2,-1.2,0,-1.8,-.4c-.7,-.4,-1.1,-1.1,-1.1,-1.7m1.2,0c0,.6,.1,1.1,.4,1.5c.3,.3,.7,.5,1.3,.6" class="g4_1"/>
<path fill-rule="evenodd" d="M702.2,798.9V653.3H671c0,3.8,-3.1,6.9,-6.9,6.9c-3.8,0,-6.9,-3.1,-6.9,-6.9H626V798.9Z" class="g5_1"/>
<path d="M702.2,798.9V653.3H671c0,3.8,-3.1,6.9,-6.9,6.9c-3.8,0,-6.9,-3.1,-6.9,-6.9H626V798.9h76.2ZM632.9,711.3l18.5,-12.9l-18.5,-13v25.9m24.2,-58h13.8M626,688h6.9M626,707h6.9m69.3,0h-6.9m6.9,-19h-7.1M626,668.9h31.1v29.5h-5.7m50.8,-29.5H671v29.5h5.8m25.4,84.9H671V753.8h5.8M626,783.3h31.1V753.8h-5.7m50.8,10.4h-7.1m7.1,-19h-6.9m-69.3,0h6.9m-6.9,19h6.2m63.1,-52.9L676.8,698.4l18.5,-13v25.9m-62.4,29.6l18.5,12.9l-18.5,13V740.9m62.4,0l-18.5,12.9l18.5,13V740.9" class="g2_1"/>
<path d="M527.7,272.4H803.3V632.8H527.7V272.4Z" class="g6_1"/>
<path d="M575.7,383.1h18.2m-18.2,20.3h18.2" class="g7_1"/>
<path d="M550.5,540.6h10.6m0,-41.5v41.5M550.5,499.1v41.5m0,-27.6h10.6m-7.2,-2.5c2.6,0,4.7,-2.1,4.7,-4.7c0,-2.6,-2.1,-4.7,-4.7,-4.7m0,9.4v-9.4m-3.4,-2h10.6m-5.7,-.1v-3.1" class="g8_1"/>
<path d="M723.1,373.5H656.4" class="g9_1"/>
<path d="M660.7,376.1h58.1M660.7,510.2h58.1" class="g8_1"/>
<path d="M656.4,512.8h66.7" class="g9_1"/>
<path d="M658.3,507.8V378.5" class="g8_1"/>
<path d="M654,375.9V510.4m0,-124.1H639.4M654,379.9H639.4v6.4m6.5,-6.4v6.4m1.6,-6.4v6.4m6.5,13.9H639.4m14.6,6.4H639.4m0,-6.4v6.4m6.5,-6.4v6.4m1.6,-6.4v6.4m6.5,13.9H639.4m14.6,6.4H639.4m0,-6.4v6.4m6.5,-6.4v6.4m1.6,-6.4v6.4m6.5,20.4H639.4M654,440.9H639.4v6.4m6.5,-6.4v6.4m1.6,-6.4v6.4m6.5,13.9H639.4m14.6,6.4H639.4v-6.4m8.1,6.4v-6.4m-1.6,6.4v-6.4m8.1,20.3H639.4m14.6,6.4H639.4v-6.4m8.1,6.4v-6.4m-1.6,6.4v-6.4m8.1,26.8H639.4M654,501.9H639.4m0,6.4v-6.4m8.1,6.4v-6.4m-1.6,6.4v-6.4" class="g9_1"/>
<path d="M721.2,507.8V378.5" class="g8_1"/>
<path d="M725.5,510.4V375.9m0,4h14.6m-14.6,6.4h14.6M732,379.9v6.4m1.6,-6.4v6.4m6.5,0v-6.4v6.4m-14.6,20.3h14.6m-14.6,-6.4h14.6m-8.1,0v6.4m1.6,-6.4v6.4m6.5,0v-6.4v6.4m-14.6,20.3h14.6m-14.6,-6.4h14.6m-8.1,0v6.4m1.6,-6.4v6.4m6.5,0v-6.4v6.4m-14.6,14h14.6m-14.6,6.4h14.6M732,440.9v6.4m1.6,-6.4v6.4m6.5,-6.4v6.4v-6.4m-14.6,26.7h14.6m-14.6,-6.4h14.6m-8.1,6.4v-6.4m8.1,6.4v-6.4v6.4m-6.5,0v-6.4m-8.1,26.7h14.6m-14.6,-6.4h14.6m-8.1,6.4v-6.4m8.1,6.4v-6.4v6.4m-6.5,0v-6.4m-8.1,20.4h14.6m-14.6,6.4h14.6m-8.1,0v-6.4m8.1,6.4v-6.4v6.4m-6.5,0v-6.4" class="g9_1"/>
<path d="M669.4,398.7c4,0,7.3,-3.2,7.3,-7.1c0,-4,-3.3,-7.2,-7.3,-7.2c-4,0,-7.3,3.2,-7.3,7.2c0,3.9,3.3,7.1,7.3,7.1" class="g8_1"/>
<path d="M656.4,373.5c-1.3,0,-2.4,1.1,-2.4,2.4" class="g9_1"/>
<path d="M660.7,376.1c-1.4,0,-2.4,1.1,-2.4,2.4" class="g8_1"/>
<path d="M654,510.4c0,1.4,1.1,2.4,2.4,2.4" class="g9_1"/>
<path d="M658.3,507.8c0,1.4,1,2.4,2.4,2.4" class="g8_1"/>
<path d="M725.5,375.9c0,-1.3,-1.1,-2.4,-2.4,-2.4" class="g9_1"/>
<path d="M721.2,378.5c0,-1.3,-1.1,-2.4,-2.4,-2.4" class="g8_1"/>
<path d="M723.1,512.8c1.3,0,2.4,-1,2.4,-2.4" class="g9_1"/>
<path d="M718.8,510.2c1.3,0,2.4,-1,2.4,-2.4" class="g8_1"/>
<path d="M577.5,461.2V447.3" class="g9_1"/>
<path d="M588.8,461.2V447.3m2.5,-73.8V512.8" class="g8_1"/>
<path d="M601.8,378V508.4m-13,-134.9l-9.4,2.2" class="g9_1"/>
<path d="M591.3,379.9H575.7m15.6,6.4H575.7m15.6,13.9H575.7m15.6,6.4H575.7m15.6,13.9H575.7m15.6,6.4H575.7m15.6,20.4H575.7m15.6,-6.4H575.7" class="ga_1"/>
<path d="M577.5,406.6v13.9m0,-34.2v13.9m-1.8,-20.3v6.4m2.4,-6.4v6.4m-.6,-8.3v1.9m-1.8,20.3v6.4m2.4,-6.4v6.4m-.6,20.3v14m-1.8,-20.4v6.4m2.4,-6.4v6.4m-2.4,14v6.4m2.4,-6.4v6.4m-.6,0v1.8" class="g9_1"/>
<path d="M588.8,406.6v13.9m0,-34.2v13.9" class="g8_1"/>
<path d="M591.3,373.5l8.7,2.2" class="g9_1"/>
<path d="M588.8,373.5v6.4" class="g8_1"/>
<path d="M591.3,373.5h-2.5" class="g9_1"/>
<path d="M588.8,426.9v14" class="g8_1"/>
<path d="M591.3,461.2H575.7m15.6,6.4H575.7m15.6,13.9H575.7m15.6,6.4H575.7m15.6,14H575.7m15.6,6.4H575.7" class="ga_1"/>
<path d="M588.8,512.8l-9.4,-2.1m-1.9,-8.8v-14m0,-6.4V467.6m-1.8,0v-6.4m2.4,6.4v-6.4m-2.4,26.7v-6.4m2.4,6.4v-6.4m-2.4,26.8v-6.4m2.4,6.4v-6.4" class="g9_1"/>
<path d="M588.8,501.9v-14m0,-6.4V467.6" class="g8_1"/>
<path d="M591.3,512.8l8.7,-2.1m-8.7,2.1h-2.5M579.4,375.7c-1.2,.2,-1.9,1.2,-1.9,2.3m24.3,0c0,-1.1,-.7,-2.1,-1.8,-2.3M577.5,508.3c0,1.1,.7,2.1,1.9,2.4m20.6,0c1.1,-.3,1.8,-1.2,1.8,-2.3" class="g9_1"/>
<path d="M588.8,508.3v4.5m136.7,37.6H654m0,2.4h71.5" class="g8_1"/>
<path d="M659.8,564h59.9M659.9,540h59.7M654,550.4v2.4m0,-2.4l3.6,-8.9m-6.9,8.9H654m0,2.4l3.5,9.6M645,560.6l.9,-6m-6.5,8.3v2.4m0,-2.4l3.4,-.2m-3.4,2.6l3.6,-.2m4.5,-4.2l.8,-6m2.4,-2.1H654m71.5,-2.4v2.4m0,-2.4l-3.6,-8.9m6.9,8.9h-3.3m0,2.4l-3.6,9.6m6.9,-9.6h-3.3m6.5,8.1l-.8,-6m8.9,8v2.4m-5.7,-4.7l-.8,-6m6.5,8.3l-3.4,-.2m3.4,2.6l-3.6,-.2M650.7,552.8c-1.2,0,-2.3,.9,-2.4,2.1m2.4,-4.5c-2.5,0,-4.5,1.8,-4.8,4.2m14,-14.6c-1,0,-1.9,.6,-2.3,1.5M643,565.1c2.3,-.2,4.2,-1.9,4.5,-4.2m-4.7,1.8c1.2,-.1,2.1,-1,2.2,-2.1m12.5,1.8c.4,1,1.3,1.6,2.3,1.6m73.8,-9.4c-.3,-2.4,-2.3,-4.2,-4.8,-4.2m2.4,4.5c-.1,-1.2,-1.2,-2.1,-2.4,-2.1m-6.9,-11.3c-.4,-.9,-1.3,-1.5,-2.3,-1.5m.1,24c1,0,1.9,-.6,2.2,-1.6M732,560.9c.3,2.3,2.2,4,4.5,4.2m-2.1,-4.5c.2,1.1,1.1,2,2.3,2.1" class="g9_1"/>
<path d="M656.2,350.7l-2.2,.6l2.2,.6m67.1,0l2.2,-.6l-2.2,-.6m-69.3,.6h71.5m0,-1.1v24.6M654,350.2v24.6m-101,6.1l.6,2.2l.6,-2.2m0,24.7l-.6,-2.2l-.6,2.2m-.6,-2.2h22.1M552.4,383.1h22.1m-20.9,-6v32.2m19.9,-48.9l2.2,-.6l-2.2,-.6m6.2,0l-2.2,.6l2.2,.6m-2.2,-1.7v18.2m-1.8,-18.2v20M584,359.8H540.9M641.6,328l-2.2,.6l2.2,.6m96.3,0l2.2,-.6l-2.2,-.6m-98.5,.6H740.1m0,-1.1v51.2M639.4,327.5v51.2M609.6,560.8l.6,2.1l.6,-2.1m0,6.7l-.6,-2.2l-.6,2.2m-.6,-2.2h29.2M609,562.9h29.2m-28,-8v62M772.4,375.7l-.6,-2.2l-.6,2.2m0,135l.6,2.1l.6,-2.1m-.6,-137.2V512.8m1.5,0H724.2M773.3,373.5H724.2m-150.1,113l1.6,-1.6l-2.2,.6m2.2,-.6L556,496.1m81.2,89.8l2.2,-.6l-2.2,-.6m10.9,0l-2.2,.6l2.2,.6m-2.2,.9V564m-6.5,22.8V566.4m42.7,18.9H631.2M553,418.4l.6,2.1l.6,-2.1m0,10.7l-.6,-2.2l-.6,2.2m-.6,-2.2h22.1m-22.1,-6.4h22.1m-20.9,47.4V412.5m48.2,-62.3v26.7M577.5,350.2v26.7M610,351.3H569.3m6,.6l2.2,-.6l-2.2,-.6m28.7,0l-2.2,.6l2.2,.6" class="g8_1"/>
<path d="M778.3,569.7l2.4,.3m.3,-5.3h-2.4m-.3,5l-37.6,-3.8m-.1,-1.2h38m-19.4,37.7l3.4,-2.7l3.2,-3.1l2.7,-3.2l2.4,-3.2l1.8,-3.1l1.6,-3.2l1.4,-3.1l1.1,-3.3l.8,-3.1l.6,-3.2l.3,-3.1l.1,-3.2v-3.2l-.4,-3.1l-.5,-2.7m-39.8,6.9v6.1m-96.1,-.2v-6.1m0,46.8h96.1m-96.1,2.7V571.4m96.1,.2v40.5" class="gb_1"/>
<path d="M643.3,609.4l7.1,-1v1.8l-7.1,-.8" class="gc_1"/>
<path d="M739.4,609.4l-7.1,.8v-1.8l7.1,1" class="gc_1"/>
<path d="M699.1,598.4H680.3" class="gb_1"/>
<path d="M677.5,607.5h24.2V589.4H677.5v18.1Z" class="gd_1"/>
<path d="M90,273.2H382.7v-2.1H90v2.1Z" class="g3_1"/>
</svg>