<?xml version="1.0" encoding="UTF-8" standalone="no"?>
<!-- Created with Inkscape (http://www.inkscape.org/) -->

<svg
   width="160mm"
   height="160mm"
   viewBox="0 0 160 160"
   version="1.1"
   id="svg5"
   inkscape:version="1.2.2 (732a01da63, 2022-12-09)"
   sodipodi:docname="electronic-encoder-gray.svg"
   inkscape:export-filename="electronic-encoder-gray.png"
   inkscape:export-xdpi="150"
   inkscape:export-ydpi="150"
   xmlns:inkscape="http://www.inkscape.org/namespaces/inkscape"
   xmlns:sodipodi="http://sodipodi.sourceforge.net/DTD/sodipodi-0.dtd"
   xmlns="http://www.w3.org/2000/svg"
   xmlns:svg="http://www.w3.org/2000/svg">
  <sodipodi:namedview
     id="namedview7"
     pagecolor="#ffffff"
     bordercolor="#000000"
     borderopacity="0.25"
     inkscape:showpageshadow="2"
     inkscape:pageopacity="0.0"
     inkscape:pagecheckerboard="0"
     inkscape:deskcolor="#d1d1d1"
     inkscape:document-units="mm"
     showgrid="false"
     inkscape:zoom="0.70710678"
     inkscape:cx="513.35952"
     inkscape:cy="457.49809"
     inkscape:window-width="1904"
     inkscape:window-height="1040"
     inkscape:window-x="-3"
     inkscape:window-y="3"
     inkscape:window-maximized="0"
     inkscape:current-layer="layer1" />
  <defs
     id="defs2" />
  <g
     inkscape:label="Capa 1"
     inkscape:groupmode="layer"
     id="layer1">
    <g
       id="g5892"
       transform="translate(-23.129112,-68.507523)">
      <circle
         style="fill:#ffffff;fill-opacity:1;fill-rule:evenodd;stroke:#000000;stroke-width:0.4;stroke-linecap:square;stroke-linejoin:round;stroke-dasharray:none;stop-color:#000000"
         id="circle2410"
         cx="103.12911"
         cy="148.50752"
         r="74.950005" />
      <path
         id="path2398"
         style="fill:#000000;fill-opacity:1;fill-rule:evenodd;stroke:#000000;stroke-width:0.1;stroke-linecap:square;stroke-linejoin:round;stroke-dasharray:none;stop-color:#000000"
         d="m 127.99063,88.484321 a 64.949997,64.949997 0 0 0 -24.81192,-4.928898 64.949997,64.949997 0 0 0 -0.0496,0.0021 v 9.999906 a 54.950001,54.950001 0 0 1 0.0496,-0.0021 54.950001,54.950001 0 0 1 20.98477,4.168221 z" />
      <path
         id="path2374"
         style="fill:#000000;fill-opacity:1;fill-rule:evenodd;stroke:#000000;stroke-width:0.1;stroke-linecap:square;stroke-linejoin:round;stroke-dasharray:none;stop-color:#000000"
         d="m 124.16399,97.722423 a 54.950001,54.950001 0 0 0 -20.98528,-4.167188 54.950001,54.950001 0 0 0 -0.0496,0.0021 v 9.999915 a 44.950001,44.950001 0 0 1 0.0496,-0.002 44.950001,44.950001 0 0 1 17.15761,3.40703 z" />
      <path
         id="path2376"
         style="fill:#000000;fill-opacity:1;fill-rule:evenodd;stroke:#000000;stroke-width:0.1;stroke-linecap:square;stroke-linejoin:round;stroke-dasharray:none;stop-color:#000000"
         d="m 103.17871,73.555423 a 74.950005,74.950005 0 0 0 -0.0496,0.0021 v 9.999906 a 64.949997,64.949997 0 0 1 0.0496,-0.0021 64.949997,64.949997 0 0 1 24.81244,4.926831 l 3.81424,-9.208223 a 74.950005,74.950005 0 0 0 -28.62668,-5.718514 z" />
      <path
         id="path2404"
         style="fill:#000000;fill-opacity:1;fill-rule:evenodd;stroke:#000000;stroke-width:0.1;stroke-linecap:square;stroke-linejoin:round;stroke-dasharray:none;stop-color:#000000"
         d="m 120.33736,106.96143 a 44.950001,44.950001 0 0 0 -17.15865,-3.406 44.950001,44.950001 0 0 0 -0.0496,0.002 v 10.00042 a 34.950001,34.950001 0 0 1 0.0496,-0.002 34.950001,34.950001 0 0 1 13.3258,2.65876 z" />
      <path
         id="path2479"
         style="fill:#000000;fill-opacity:1;fill-rule:evenodd;stroke:#000000;stroke-width:0.1;stroke-linecap:square;stroke-linejoin:round;stroke-dasharray:none;stop-color:#000000"
         d="m 149.07223,102.54428 a 64.949997,64.949997 0 0 0 -21.03702,-14.048816 64.949997,64.949997 0 0 0 -0.0466,-0.01704 l -3.82679,9.238708 a 54.950001,54.950001 0 0 1 0.0466,0.01704 54.950001,54.950001 0 0 1 17.79229,11.881458 z" />
      <path
         id="path2481"
         style="fill:#000000;fill-opacity:1;fill-rule:evenodd;stroke:#000000;stroke-width:0.1;stroke-linecap:square;stroke-linejoin:round;stroke-dasharray:none;stop-color:#000000"
         d="m 142.00161,109.61479 a 54.950001,54.950001 0 0 0 -17.79316,-11.880705 54.950001,54.950001 0 0 0 -0.0466,-0.01704 l -3.8268,9.238715 a 44.950001,44.950001 0 0 1 0.0466,0.0171 44.950001,44.950001 0 0 1 14.54775,9.71362 z" />
      <path
         id="path2485"
         style="fill:#000000;fill-opacity:1;fill-rule:evenodd;stroke:#000000;stroke-width:0.1;stroke-linecap:square;stroke-linejoin:round;stroke-dasharray:none;stop-color:#000000"
         d="m 134.93065,116.68613 a 44.950001,44.950001 0 0 0 -14.54911,-9.71307 44.950001,44.950001 0 0 0 -0.0466,-0.0171 l -3.82699,9.23918 a 34.950001,34.950001 0 0 1 0.0466,0.0171 34.950001,34.950001 0 0 1 11.29397,7.55594 z" />
      <path
         id="path2493"
         style="fill:#000000;fill-opacity:1;fill-rule:evenodd;stroke:#000000;stroke-width:0.1;stroke-linecap:square;stroke-linejoin:round;stroke-dasharray:none;stop-color:#000000"
         d="m 153.92772,127.43159 a 54.950001,54.950001 0 0 0 -11.89219,-17.78549 54.950001,54.950001 0 0 0 -0.0365,-0.0336 l -7.07101,7.071 a 44.950001,44.950001 0 0 1 0.0365,0.0336 44.950001,44.950001 0 0 1 9.72313,14.5414 z" />
      <path
         id="path2497"
         style="fill:#000000;fill-opacity:1;fill-rule:evenodd;stroke:#000000;stroke-width:0.1;stroke-linecap:square;stroke-linejoin:round;stroke-dasharray:none;stop-color:#000000"
         d="m 144.68892,131.25872 a 44.950001,44.950001 0 0 0 -9.7246,-14.54141 44.950001,44.950001 0 0 0 -0.0365,-0.0336 l -7.07136,7.07137 a 34.950001,34.950001 0 0 1 0.0365,0.0336 34.950001,34.950001 0 0 1 7.54273,11.30279 z" />
      <path
         id="path2505"
         style="fill:#000000;fill-opacity:1;fill-rule:evenodd;stroke:#000000;stroke-width:0.1;stroke-linecap:square;stroke-linejoin:round;stroke-dasharray:none;stop-color:#000000"
         d="m 158.12563,148.45595 a 54.950001,54.950001 0 0 0 -4.18074,-20.9826 54.950001,54.950001 0 0 0 -0.0209,-0.045 l -9.23872,3.8268 a 44.950001,44.950001 0 0 1 0.0209,0.045 44.950001,44.950001 0 0 1 3.41824,17.15538 z" />
      <path
         id="path2507"
         style="fill:#000000;fill-opacity:1;fill-rule:evenodd;stroke:#000000;stroke-width:0.1;stroke-linecap:square;stroke-linejoin:round;stroke-dasharray:none;stop-color:#000000"
         d="m 172.42231,119.81976 a 74.950005,74.950005 0 0 0 -0.0209,-0.045 l -9.23871,3.8268 a 64.949997,64.949997 0 0 1 0.0209,0.045 64.949997,64.949997 0 0 1 4.94351,24.80913 l 9.96693,6e-5 a 74.950005,74.950005 0 0 0 -5.67173,-28.63601 z" />
      <path
         id="path2509"
         style="fill:#000000;fill-opacity:1;fill-rule:evenodd;stroke:#000000;stroke-width:0.1;stroke-linecap:square;stroke-linejoin:round;stroke-dasharray:none;stop-color:#000000"
         d="m 148.12551,148.45622 a 44.950001,44.950001 0 0 0 -3.4196,-17.15596 44.950001,44.950001 0 0 0 -0.0209,-0.045 l -9.23918,3.827 a 34.950001,34.950001 0 0 1 0.0209,0.045 34.950001,34.950001 0 0 1 2.64318,13.3289 z" />
      <path
         id="path2519"
         style="fill:#000000;fill-opacity:1;fill-rule:evenodd;stroke:#000000;stroke-width:0.1;stroke-linecap:square;stroke-linejoin:round;stroke-dasharray:none;stop-color:#000000"
         d="m 178.1218,148.50152 a 74.950005,74.950005 0 0 0 -0.002,-0.0496 l -9.99991,1e-5 a 64.949997,64.949997 0 0 1 0.002,0.0496 64.949997,64.949997 0 0 1 -4.92684,24.81244 l 9.20822,3.81424 a 74.950005,74.950005 0 0 0 5.71853,-28.6267 z" />
      <path
         id="path2521"
         style="fill:#000000;fill-opacity:1;fill-rule:evenodd;stroke:#000000;stroke-width:0.1;stroke-linecap:square;stroke-linejoin:round;stroke-dasharray:none;stop-color:#000000"
         d="m 144.71578,165.66017 a 44.950001,44.950001 0 0 0 3.406,-17.15866 44.950001,44.950001 0 0 0 -0.002,-0.0496 h -10.00042 a 34.950001,34.950001 0 0 1 0.002,0.0496 34.950001,34.950001 0 0 1 -2.65877,13.3258 z" />
      <path
         id="path2533"
         style="fill:#000000;fill-opacity:1;fill-rule:evenodd;stroke:#000000;stroke-width:0.1;stroke-linecap:square;stroke-linejoin:round;stroke-dasharray:none;stop-color:#000000"
         d="m 134.99109,180.25345 a 44.950001,44.950001 0 0 0 9.71307,-14.54911 44.950001,44.950001 0 0 0 0.0171,-0.0466 l -9.23918,-3.827 a 34.950001,34.950001 0 0 1 -0.0171,0.0466 34.950001,34.950001 0 0 1 -7.55594,11.29397 z" />
      <path
         id="path2539"
         style="fill:#000000;fill-opacity:1;fill-rule:evenodd;stroke:#000000;stroke-width:0.1;stroke-linecap:square;stroke-linejoin:round;stroke-dasharray:none;stop-color:#000000"
         d="m 128.07213,208.48867 a 64.949997,64.949997 0 0 0 21.02993,-14.05942 64.949997,64.949997 0 0 0 0.0336,-0.0365 l -7.07101,-7.071 a 54.950001,54.950001 0 0 1 -0.0336,0.0365 54.950001,54.950001 0 0 1 -17.78585,11.89109 z" />
      <path
         id="path2545"
         style="fill:#000000;fill-opacity:1;fill-rule:evenodd;stroke:#000000;stroke-width:0.1;stroke-linecap:square;stroke-linejoin:round;stroke-dasharray:none;stop-color:#000000"
         d="m 120.41851,190.0117 a 44.950001,44.950001 0 0 0 14.54141,-9.72459 44.950001,44.950001 0 0 0 0.0336,-0.0365 l -7.07136,-7.07137 a 34.950001,34.950001 0 0 1 -0.0336,0.0365 34.950001,34.950001 0 0 1 -11.30279,7.54274 z" />
      <path
         id="path2551"
         style="fill:#000000;fill-opacity:1;fill-rule:evenodd;stroke:#000000;stroke-width:0.1;stroke-linecap:square;stroke-linejoin:round;stroke-dasharray:none;stop-color:#000000"
         d="m 103.22121,213.4477 a 64.949997,64.949997 0 0 0 24.80943,-4.94141 64.949997,64.949997 0 0 0 0.045,-0.0209 l -3.82681,-9.23871 a 54.950001,54.950001 0 0 1 -0.045,0.0209 54.950001,54.950001 0 0 1 -20.9825,4.17959 z" />
      <path
         id="path2555"
         style="fill:#000000;fill-opacity:1;fill-rule:evenodd;stroke:#000000;stroke-width:0.1;stroke-linecap:square;stroke-linejoin:round;stroke-dasharray:none;stop-color:#000000"
         d="m 131.85747,217.7451 a 74.950005,74.950005 0 0 0 0.045,-0.0209 l -3.82682,-9.23872 a 64.949997,64.949997 0 0 1 -0.045,0.0209 64.949997,64.949997 0 0 1 -24.80911,4.94349 l -6e-5,9.96693 a 74.950005,74.950005 0 0 0 28.63599,-5.67172 z" />
      <path
         id="path2557"
         style="fill:#000000;fill-opacity:1;fill-rule:evenodd;stroke:#000000;stroke-width:0.1;stroke-linecap:square;stroke-linejoin:round;stroke-dasharray:none;stop-color:#000000"
         d="m 103.22102,193.44829 a 44.950001,44.950001 0 0 0 17.15595,-3.41959 44.950001,44.950001 0 0 0 0.045,-0.0209 l -3.82699,-9.23918 a 34.950001,34.950001 0 0 1 -0.045,0.0209 34.950001,34.950001 0 0 1 -13.3289,2.64319 z" />
      <path
         id="path2563"
         style="fill:#000000;fill-opacity:1;fill-rule:evenodd;stroke:#000000;stroke-width:0.1;stroke-linecap:square;stroke-linejoin:round;stroke-dasharray:none;stop-color:#000000"
         d="m 78.363802,208.51568 a 64.949997,64.949997 0 0 0 24.811918,4.92889 64.949997,64.949997 0 0 0 0.0496,-0.002 l -1e-5,-9.99992 a 54.950001,54.950001 0 0 1 -0.0496,0.002 54.950001,54.950001 0 0 1 -20.98476,-4.16821 z" />
      <path
         id="path2567"
         style="fill:#000000;fill-opacity:1;fill-rule:evenodd;stroke:#000000;stroke-width:0.1;stroke-linecap:square;stroke-linejoin:round;stroke-dasharray:none;stop-color:#000000"
         d="m 103.17571,223.44459 a 74.950005,74.950005 0 0 0 0.0496,-0.002 l -10e-6,-9.99993 a 64.949997,64.949997 0 0 1 -0.0496,0.002 64.949997,64.949997 0 0 1 -24.812413,-4.92684 l -3.814235,9.20821 a 74.950005,74.950005 0 0 0 28.626678,5.71854 z" />
      <path
         id="path2575"
         style="fill:#000000;fill-opacity:1;fill-rule:evenodd;stroke:#000000;stroke-width:0.1;stroke-linecap:square;stroke-linejoin:round;stroke-dasharray:none;stop-color:#000000"
         d="m 57.282205,194.45572 a 64.949997,64.949997 0 0 0 21.037021,14.04881 64.949997,64.949997 0 0 0 0.04659,0.0171 l 3.826795,-9.23872 a 54.950001,54.950001 0 0 1 -0.04659,-0.0171 54.950001,54.950001 0 0 1 -17.792288,-11.88144 z" />
      <path
         id="path2603"
         style="fill:#000000;fill-opacity:1;fill-rule:evenodd;stroke:#000000;stroke-width:0.1;stroke-linecap:square;stroke-linejoin:round;stroke-dasharray:none;stop-color:#000000"
         d="m 33.93213,177.18025 a 74.950005,74.950005 0 0 0 0.02086,0.045 l 9.238723,-3.82681 a 64.949997,64.949997 0 0 1 -0.02086,-0.045 64.949997,64.949997 0 0 1 -4.943493,-24.80911 l -9.966917,-7e-5 a 74.950005,74.950005 0 0 0 5.671713,28.636 z" />
      <path
         id="path2613"
         style="fill:#000000;fill-opacity:1;fill-rule:evenodd;stroke:#000000;stroke-width:0.1;stroke-linecap:square;stroke-linejoin:round;stroke-dasharray:none;stop-color:#000000"
         d="m 52.399647,127.51322 a 54.950001,54.950001 0 0 0 -4.167185,20.98528 54.950001,54.950001 0 0 0 0.0021,0.0496 l 9.999927,1e-5 a 44.950001,44.950001 0 0 1 -0.0021,-0.0496 44.950001,44.950001 0 0 1 3.407032,-17.1576 z" />
      <path
         id="path2615"
         style="fill:#000000;fill-opacity:1;fill-rule:evenodd;stroke:#000000;stroke-width:0.1;stroke-linecap:square;stroke-linejoin:round;stroke-dasharray:none;stop-color:#000000"
         d="m 28.232644,148.49849 a 74.950005,74.950005 0 0 0 0.0021,0.0496 l 9.999924,-1e-5 a 64.949997,64.949997 0 0 1 -0.0021,-0.0496 64.949997,64.949997 0 0 1 4.926843,-24.81243 l -9.208204,-3.81424 a 74.950005,74.950005 0 0 0 -5.718543,28.62669 z" />
      <path
         id="path2625"
         style="fill:#000000;fill-opacity:1;fill-rule:evenodd;stroke:#000000;stroke-width:0.1;stroke-linecap:square;stroke-linejoin:round;stroke-dasharray:none;stop-color:#000000"
         d="m 64.292005,109.6756 a 54.950001,54.950001 0 0 0 -11.880696,17.79316 54.950001,54.950001 0 0 0 -0.01704,0.0466 l 9.238724,3.82681 a 44.950001,44.950001 0 0 1 0.01704,-0.0466 44.950001,44.950001 0 0 1 9.713617,-14.54774 z" />
      <path
         id="path2635"
         style="fill:#000000;fill-opacity:1;fill-rule:evenodd;stroke:#000000;stroke-width:0.1;stroke-linecap:square;stroke-linejoin:round;stroke-dasharray:none;stop-color:#000000"
         d="m 78.282325,88.511322 a 64.949997,64.949997 0 0 0 -21.029914,14.059418 64.949997,64.949997 0 0 0 -0.03358,0.0365 l 7.071005,7.071 a 54.950001,54.950001 0 0 1 0.03357,-0.0365 54.950001,54.950001 0 0 1 17.78582,-11.89109 z" />
      <path
         id="path2637"
         style="fill:#000000;fill-opacity:1;fill-rule:evenodd;stroke:#000000;stroke-width:0.1;stroke-linecap:square;stroke-linejoin:round;stroke-dasharray:none;stop-color:#000000"
         d="m 82.108803,97.749485 a 54.950001,54.950001 0 0 0 -17.78548,11.892195 54.950001,54.950001 0 0 0 -0.03357,0.0365 l 7.071011,7.07102 a 44.950001,44.950001 0 0 1 0.03358,-0.0365 44.950001,44.950001 0 0 1 14.541391,-9.72312 z" />
      <path
         id="path2647"
         style="fill:#000000;fill-opacity:1;fill-rule:evenodd;stroke:#000000;stroke-width:0.1;stroke-linecap:square;stroke-linejoin:round;stroke-dasharray:none;stop-color:#000000"
         d="m 103.13324,83.55229 a 64.949997,64.949997 0 0 0 -24.809406,4.941407 64.949997,64.949997 0 0 0 -0.04499,0.02087 l 3.826802,9.238709 a 54.950001,54.950001 0 0 1 0.04498,-0.02088 54.950001,54.950001 0 0 1 20.982474,-4.179594 z" />
      <path
         id="path2649"
         style="fill:#000000;fill-opacity:1;fill-rule:evenodd;stroke:#000000;stroke-width:0.1;stroke-linecap:square;stroke-linejoin:round;stroke-dasharray:none;stop-color:#000000"
         d="m 103.13316,93.551569 a 54.950001,54.950001 0 0 0 -20.982586,4.180746 54.950001,54.950001 0 0 0 -0.04498,0.02087 l 3.8268,9.238735 a 44.950001,44.950001 0 0 1 0.04499,-0.0209 44.950001,44.950001 0 0 1 17.155366,-3.41824 z" />
      <path
         id="path2651"
         style="fill:#000000;fill-opacity:1;fill-rule:evenodd;stroke:#000000;stroke-width:0.1;stroke-linecap:square;stroke-linejoin:round;stroke-dasharray:none;stop-color:#000000"
         d="m 74.496986,79.254885 a 74.950005,74.950005 0 0 0 -0.045,0.0209 l 3.826817,9.238721 a 64.949997,64.949997 0 0 1 0.04498,-0.02088 64.949997,64.949997 0 0 1 24.809117,-4.943495 l 9e-5,-9.966942 a 74.950005,74.950005 0 0 0 -28.636008,5.671717 z" />
      <circle
         style="fill:#000000;fill-opacity:1;fill-rule:evenodd;stroke:#000000;stroke-width:0.1;stroke-linecap:square;stroke-linejoin:round;stroke-dasharray:none;stroke-opacity:1;stop-color:#000000"
         id="path5092"
         cx="103.12911"
         cy="148.50752"
         r="3.95" />
    </g>
  </g>
</svg>
