%TF.GenerationSoftware,KiCad,Pcbnew,(5.1.12)-1*%
%TF.CreationDate,2022-03-14T19:12:09+01:00*%
%TF.ProjectId,electric-pcb-luces-led,656c6563-7472-4696-932d-7063622d6c75,R3*%
%TF.SameCoordinates,PX3072580PY3072580*%
%TF.FileFunction,Soldermask,Top*%
%TF.FilePolarity,Negative*%
%FSLAX46Y46*%
G04 Gerber Fmt 4.6, Leading zero omitted, Abs format (unit mm)*
G04 Created by KiCad (PCBNEW (5.1.12)-1) date 2022-03-14 19:12:09*
%MOMM*%
%LPD*%
G01*
G04 APERTURE LIST*
%ADD10C,6.000000*%
%ADD11R,1.600000X1.600000*%
%ADD12C,1.600000*%
%ADD13C,2.000000*%
%ADD14R,1.800000X1.800000*%
%ADD15C,1.800000*%
%ADD16O,2.400000X1.600000*%
%ADD17R,2.400000X1.600000*%
%ADD18O,2.200000X3.500000*%
%ADD19O,1.500000X2.500000*%
%ADD20R,1.500000X2.500000*%
%ADD21O,1.700000X1.700000*%
%ADD22R,1.700000X1.700000*%
G04 APERTURE END LIST*
D10*
%TO.C,M3*%
X56515000Y-36195000D03*
%TD*%
%TO.C,M3*%
X3175000Y-36195000D03*
%TD*%
%TO.C,M3*%
X3175000Y-3175000D03*
%TD*%
%TO.C,M3*%
X56515000Y-3175000D03*
%TD*%
D11*
%TO.C,C1*%
X8890000Y-34290000D03*
D12*
X10890000Y-34290000D03*
%TD*%
D13*
%TO.C,R3*%
X2540000Y-29845000D03*
X2540000Y-17145000D03*
%TD*%
%TO.C,R1*%
X42545000Y-10160000D03*
X29845000Y-10160000D03*
%TD*%
D11*
%TO.C,C2*%
X14605000Y-34290000D03*
D12*
X16605000Y-34290000D03*
%TD*%
%TO.C,C3*%
X10890000Y-12065000D03*
D11*
X8890000Y-12065000D03*
%TD*%
D13*
%TO.C,R5*%
X29845000Y-21590000D03*
X42545000Y-21590000D03*
%TD*%
%TO.C,R6*%
X6350000Y-29845000D03*
X6350000Y-17145000D03*
%TD*%
%TO.C,R7*%
X29845000Y-25400000D03*
X42545000Y-25400000D03*
%TD*%
%TO.C,R8*%
X42545000Y-29210000D03*
X29845000Y-29210000D03*
%TD*%
%TO.C,R9*%
X10160000Y-17145000D03*
X10160000Y-29845000D03*
%TD*%
%TO.C,R4*%
X29845000Y-17780000D03*
X42545000Y-17780000D03*
%TD*%
D14*
%TO.C,D1*%
X27305000Y-3810000D03*
D15*
X29845000Y-3810000D03*
%TD*%
D14*
%TO.C,D2*%
X42545000Y-3810000D03*
D15*
X45085000Y-3810000D03*
%TD*%
%TO.C,D3*%
X57150000Y-12065000D03*
D14*
X54610000Y-12065000D03*
%TD*%
%TO.C,D4*%
X54610000Y-27305000D03*
D15*
X57150000Y-27305000D03*
%TD*%
%TO.C,D5*%
X45085000Y-35560000D03*
D14*
X42545000Y-35560000D03*
%TD*%
D15*
%TO.C,D6*%
X29845000Y-35560000D03*
D14*
X27305000Y-35560000D03*
%TD*%
D16*
%TO.C,U1*%
X22860000Y-13970000D03*
X15240000Y-29210000D03*
X22860000Y-16510000D03*
X15240000Y-26670000D03*
X22860000Y-19050000D03*
X15240000Y-24130000D03*
X22860000Y-21590000D03*
X15240000Y-21590000D03*
X22860000Y-24130000D03*
X15240000Y-19050000D03*
X22860000Y-26670000D03*
X15240000Y-16510000D03*
X22860000Y-29210000D03*
D17*
X15240000Y-13970000D03*
%TD*%
D13*
%TO.C,R2*%
X29845000Y-13970000D03*
X42545000Y-13970000D03*
%TD*%
D18*
%TO.C,SW1*%
X9775000Y-3810000D03*
X17975000Y-3810000D03*
D19*
X11875000Y-3810000D03*
X13875000Y-3810000D03*
D20*
X15875000Y-3810000D03*
%TD*%
D21*
%TO.C,BT1*%
X2540000Y-13335000D03*
D22*
X2540000Y-10795000D03*
%TD*%
D13*
%TO.C,C4*%
X20320000Y-10160000D03*
X17780000Y-10160000D03*
X15240000Y-10160000D03*
X22860000Y-10160000D03*
%TD*%
M02*
