%TF.GenerationSoftware,KiCad,Pcbnew,(5.1.12)-1*%
%TF.CreationDate,2022-03-14T19:12:09+01:00*%
%TF.ProjectId,electric-pcb-luces-led,656c6563-7472-4696-932d-7063622d6c75,R3*%
%TF.SameCoordinates,PX3072580PY3072580*%
%TF.FileFunction,Legend,Top*%
%TF.FilePolarity,Positive*%
%FSLAX46Y46*%
G04 Gerber Fmt 4.6, Leading zero omitted, Abs format (unit mm)*
G04 Created by KiCad (PCBNEW (5.1.12)-1) date 2022-03-14 19:12:09*
%MOMM*%
%LPD*%
G01*
G04 APERTURE LIST*
%ADD10C,0.300000*%
%ADD11C,0.120000*%
%ADD12C,0.127000*%
%ADD13C,0.250000*%
%ADD14C,6.000000*%
%ADD15R,1.600000X1.600000*%
%ADD16C,1.600000*%
%ADD17C,2.000000*%
%ADD18R,1.800000X1.800000*%
%ADD19C,1.800000*%
%ADD20O,2.400000X1.600000*%
%ADD21R,2.400000X1.600000*%
%ADD22O,2.200000X3.500000*%
%ADD23O,1.500000X2.500000*%
%ADD24R,1.500000X2.500000*%
%ADD25O,1.700000X1.700000*%
%ADD26R,1.700000X1.700000*%
G04 APERTURE END LIST*
D10*
X4127619Y-10338571D02*
X6032380Y-10338571D01*
X5080000Y-11290952D02*
X5080000Y-9386190D01*
X4127619Y-12878571D02*
X6032380Y-12878571D01*
D11*
X59690000Y-39370000D02*
X59690000Y0D01*
X0Y-39370000D02*
X59690000Y-39370000D01*
X0Y-39370000D02*
X0Y0D01*
X59690000Y0D02*
X0Y0D01*
D12*
%TO.C,M3*%
X59563000Y-36195000D02*
G75*
G03*
X59563000Y-36195000I-3048000J0D01*
G01*
X59563000Y-36195000D02*
X58039000Y-33528000D01*
X58039000Y-38862000D02*
X59563000Y-36195000D01*
X54991000Y-38862000D02*
X58039000Y-38862000D01*
X53467000Y-36195000D02*
X54991000Y-38862000D01*
X54991000Y-33528000D02*
X53467000Y-36195000D01*
X58039000Y-33528000D02*
X54991000Y-33528000D01*
X59086554Y-36195000D02*
G75*
G03*
X59086554Y-36195000I-2571554J0D01*
G01*
X58039000Y-36195000D02*
G75*
G03*
X58039000Y-36195000I-1524000J0D01*
G01*
X6223000Y-36195000D02*
G75*
G03*
X6223000Y-36195000I-3048000J0D01*
G01*
X6223000Y-36195000D02*
X4699000Y-33528000D01*
X4699000Y-38862000D02*
X6223000Y-36195000D01*
X1651000Y-38862000D02*
X4699000Y-38862000D01*
X127000Y-36195000D02*
X1651000Y-38862000D01*
X1651000Y-33528000D02*
X127000Y-36195000D01*
X4699000Y-33528000D02*
X1651000Y-33528000D01*
X5746554Y-36195000D02*
G75*
G03*
X5746554Y-36195000I-2571554J0D01*
G01*
X4699000Y-36195000D02*
G75*
G03*
X4699000Y-36195000I-1524000J0D01*
G01*
X6223000Y-3175000D02*
G75*
G03*
X6223000Y-3175000I-3048000J0D01*
G01*
X6223000Y-3175000D02*
X4699000Y-508000D01*
X4699000Y-5842000D02*
X6223000Y-3175000D01*
X1651000Y-5842000D02*
X4699000Y-5842000D01*
X127000Y-3175000D02*
X1651000Y-5842000D01*
X1651000Y-508000D02*
X127000Y-3175000D01*
X4699000Y-508000D02*
X1651000Y-508000D01*
X5746554Y-3175000D02*
G75*
G03*
X5746554Y-3175000I-2571554J0D01*
G01*
X4699000Y-3175000D02*
G75*
G03*
X4699000Y-3175000I-1524000J0D01*
G01*
X59563000Y-3175000D02*
G75*
G03*
X59563000Y-3175000I-3048000J0D01*
G01*
X59563000Y-3175000D02*
X58039000Y-508000D01*
X58039000Y-5842000D02*
X59563000Y-3175000D01*
X54991000Y-5842000D02*
X58039000Y-5842000D01*
X53467000Y-3175000D02*
X54991000Y-5842000D01*
X54991000Y-508000D02*
X53467000Y-3175000D01*
X58039000Y-508000D02*
X54991000Y-508000D01*
X59086554Y-3175000D02*
G75*
G03*
X59086554Y-3175000I-2571554J0D01*
G01*
X58039000Y-3175000D02*
G75*
G03*
X58039000Y-3175000I-1524000J0D01*
G01*
D11*
%TO.C,C1*%
X12491000Y-34006000D02*
X12491000Y-34574000D01*
X12451000Y-33772000D02*
X12451000Y-34808000D01*
X12411000Y-33613000D02*
X12411000Y-34967000D01*
X12371000Y-33485000D02*
X12371000Y-35095000D01*
X12331000Y-33375000D02*
X12331000Y-35205000D01*
X12291000Y-33279000D02*
X12291000Y-35301000D01*
X12251000Y-33192000D02*
X12251000Y-35388000D01*
X12211000Y-33112000D02*
X12211000Y-35468000D01*
X12171000Y-33039000D02*
X12171000Y-35541000D01*
X12131000Y-32971000D02*
X12131000Y-35609000D01*
X12091000Y-32907000D02*
X12091000Y-35673000D01*
X12051000Y-32847000D02*
X12051000Y-35733000D01*
X12011000Y-32790000D02*
X12011000Y-35790000D01*
X11971000Y-32736000D02*
X11971000Y-35844000D01*
X11931000Y-32685000D02*
X11931000Y-35895000D01*
X11891000Y-35330000D02*
X11891000Y-35943000D01*
X11891000Y-32637000D02*
X11891000Y-33250000D01*
X11851000Y-35330000D02*
X11851000Y-35989000D01*
X11851000Y-32591000D02*
X11851000Y-33250000D01*
X11811000Y-35330000D02*
X11811000Y-36033000D01*
X11811000Y-32547000D02*
X11811000Y-33250000D01*
X11771000Y-35330000D02*
X11771000Y-36075000D01*
X11771000Y-32505000D02*
X11771000Y-33250000D01*
X11731000Y-35330000D02*
X11731000Y-36116000D01*
X11731000Y-32464000D02*
X11731000Y-33250000D01*
X11691000Y-35330000D02*
X11691000Y-36154000D01*
X11691000Y-32426000D02*
X11691000Y-33250000D01*
X11651000Y-35330000D02*
X11651000Y-36191000D01*
X11651000Y-32389000D02*
X11651000Y-33250000D01*
X11611000Y-35330000D02*
X11611000Y-36227000D01*
X11611000Y-32353000D02*
X11611000Y-33250000D01*
X11571000Y-35330000D02*
X11571000Y-36261000D01*
X11571000Y-32319000D02*
X11571000Y-33250000D01*
X11531000Y-35330000D02*
X11531000Y-36294000D01*
X11531000Y-32286000D02*
X11531000Y-33250000D01*
X11491000Y-35330000D02*
X11491000Y-36325000D01*
X11491000Y-32255000D02*
X11491000Y-33250000D01*
X11451000Y-35330000D02*
X11451000Y-36355000D01*
X11451000Y-32225000D02*
X11451000Y-33250000D01*
X11411000Y-35330000D02*
X11411000Y-36385000D01*
X11411000Y-32195000D02*
X11411000Y-33250000D01*
X11371000Y-35330000D02*
X11371000Y-36412000D01*
X11371000Y-32168000D02*
X11371000Y-33250000D01*
X11331000Y-35330000D02*
X11331000Y-36439000D01*
X11331000Y-32141000D02*
X11331000Y-33250000D01*
X11291000Y-35330000D02*
X11291000Y-36465000D01*
X11291000Y-32115000D02*
X11291000Y-33250000D01*
X11251000Y-35330000D02*
X11251000Y-36490000D01*
X11251000Y-32090000D02*
X11251000Y-33250000D01*
X11211000Y-35330000D02*
X11211000Y-36514000D01*
X11211000Y-32066000D02*
X11211000Y-33250000D01*
X11171000Y-35330000D02*
X11171000Y-36537000D01*
X11171000Y-32043000D02*
X11171000Y-33250000D01*
X11131000Y-35330000D02*
X11131000Y-36558000D01*
X11131000Y-32022000D02*
X11131000Y-33250000D01*
X11091000Y-35330000D02*
X11091000Y-36580000D01*
X11091000Y-32000000D02*
X11091000Y-33250000D01*
X11051000Y-35330000D02*
X11051000Y-36600000D01*
X11051000Y-31980000D02*
X11051000Y-33250000D01*
X11011000Y-35330000D02*
X11011000Y-36619000D01*
X11011000Y-31961000D02*
X11011000Y-33250000D01*
X10971000Y-35330000D02*
X10971000Y-36638000D01*
X10971000Y-31942000D02*
X10971000Y-33250000D01*
X10931000Y-35330000D02*
X10931000Y-36655000D01*
X10931000Y-31925000D02*
X10931000Y-33250000D01*
X10891000Y-35330000D02*
X10891000Y-36672000D01*
X10891000Y-31908000D02*
X10891000Y-33250000D01*
X10851000Y-35330000D02*
X10851000Y-36688000D01*
X10851000Y-31892000D02*
X10851000Y-33250000D01*
X10811000Y-35330000D02*
X10811000Y-36704000D01*
X10811000Y-31876000D02*
X10811000Y-33250000D01*
X10771000Y-35330000D02*
X10771000Y-36718000D01*
X10771000Y-31862000D02*
X10771000Y-33250000D01*
X10731000Y-35330000D02*
X10731000Y-36732000D01*
X10731000Y-31848000D02*
X10731000Y-33250000D01*
X10691000Y-35330000D02*
X10691000Y-36745000D01*
X10691000Y-31835000D02*
X10691000Y-33250000D01*
X10651000Y-35330000D02*
X10651000Y-36758000D01*
X10651000Y-31822000D02*
X10651000Y-33250000D01*
X10611000Y-35330000D02*
X10611000Y-36770000D01*
X10611000Y-31810000D02*
X10611000Y-33250000D01*
X10570000Y-35330000D02*
X10570000Y-36781000D01*
X10570000Y-31799000D02*
X10570000Y-33250000D01*
X10530000Y-35330000D02*
X10530000Y-36791000D01*
X10530000Y-31789000D02*
X10530000Y-33250000D01*
X10490000Y-35330000D02*
X10490000Y-36801000D01*
X10490000Y-31779000D02*
X10490000Y-33250000D01*
X10450000Y-35330000D02*
X10450000Y-36810000D01*
X10450000Y-31770000D02*
X10450000Y-33250000D01*
X10410000Y-35330000D02*
X10410000Y-36818000D01*
X10410000Y-31762000D02*
X10410000Y-33250000D01*
X10370000Y-35330000D02*
X10370000Y-36826000D01*
X10370000Y-31754000D02*
X10370000Y-33250000D01*
X10330000Y-35330000D02*
X10330000Y-36833000D01*
X10330000Y-31747000D02*
X10330000Y-33250000D01*
X10290000Y-35330000D02*
X10290000Y-36840000D01*
X10290000Y-31740000D02*
X10290000Y-33250000D01*
X10250000Y-35330000D02*
X10250000Y-36846000D01*
X10250000Y-31734000D02*
X10250000Y-33250000D01*
X10210000Y-35330000D02*
X10210000Y-36851000D01*
X10210000Y-31729000D02*
X10210000Y-33250000D01*
X10170000Y-35330000D02*
X10170000Y-36855000D01*
X10170000Y-31725000D02*
X10170000Y-33250000D01*
X10130000Y-35330000D02*
X10130000Y-36859000D01*
X10130000Y-31721000D02*
X10130000Y-33250000D01*
X10090000Y-35330000D02*
X10090000Y-36863000D01*
X10090000Y-31717000D02*
X10090000Y-33250000D01*
X10050000Y-35330000D02*
X10050000Y-36866000D01*
X10050000Y-31714000D02*
X10050000Y-33250000D01*
X10010000Y-35330000D02*
X10010000Y-36868000D01*
X10010000Y-31712000D02*
X10010000Y-33250000D01*
X9970000Y-35330000D02*
X9970000Y-36869000D01*
X9970000Y-31711000D02*
X9970000Y-33250000D01*
X9930000Y-31710000D02*
X9930000Y-33250000D01*
X9930000Y-35330000D02*
X9930000Y-36870000D01*
X9890000Y-31710000D02*
X9890000Y-33250000D01*
X9890000Y-35330000D02*
X9890000Y-36870000D01*
X12510000Y-34290000D02*
G75*
G03*
X12510000Y-34290000I-2620000J0D01*
G01*
D13*
X7366000Y-31369000D02*
X7366000Y-32639000D01*
X8001000Y-32004000D02*
X6731000Y-32004000D01*
D11*
%TO.C,R3*%
X1580000Y-28565000D02*
X1100000Y-28565000D01*
X1100000Y-28565000D02*
X1100000Y-18425000D01*
X1100000Y-18425000D02*
X1580000Y-18425000D01*
X3500000Y-28565000D02*
X3980000Y-28565000D01*
X3980000Y-28565000D02*
X3980000Y-18425000D01*
X3980000Y-18425000D02*
X3500000Y-18425000D01*
%TO.C,R1*%
X41265000Y-11120000D02*
X41265000Y-11600000D01*
X41265000Y-11600000D02*
X31125000Y-11600000D01*
X31125000Y-11600000D02*
X31125000Y-11120000D01*
X41265000Y-9200000D02*
X41265000Y-8720000D01*
X41265000Y-8720000D02*
X31125000Y-8720000D01*
X31125000Y-8720000D02*
X31125000Y-9200000D01*
D10*
%TO.C,Picuino_Logo_B6*%
X53406040Y-18651220D02*
X53406040Y-19448780D01*
X53103780Y-19751040D02*
X52306220Y-19751040D01*
X53403500Y-21150580D02*
G75*
G03*
X53403500Y-21150580I-698500J0D01*
G01*
X52306220Y-18348960D02*
X53103780Y-18348960D01*
X52003960Y-19448780D02*
X52003960Y-18651220D01*
X53403500Y-16949420D02*
G75*
G03*
X53403500Y-16949420I-698500J0D01*
G01*
X50952400Y-17998440D02*
G75*
G03*
X52003960Y-19050000I1051560J0D01*
G01*
X52003960Y-19448780D02*
G75*
G03*
X52306220Y-19751040I302260J0D01*
G01*
X53406040Y-18651220D02*
G75*
G03*
X53103780Y-18348960I-302260J0D01*
G01*
X52003960Y-16949420D02*
G75*
G03*
X50954940Y-17998440I0J-1049020D01*
G01*
X53406040Y-21150580D02*
G75*
G03*
X54455060Y-20101560I0J1049020D01*
G01*
X54457600Y-20101560D02*
G75*
G03*
X53406040Y-19050000I-1051560J0D01*
G01*
X53103780Y-19751040D02*
G75*
G03*
X53406040Y-19448780I0J302260D01*
G01*
X52306220Y-18348960D02*
G75*
G03*
X52003960Y-18651220I0J-302260D01*
G01*
D11*
%TO.C,C2*%
X18206000Y-34006000D02*
X18206000Y-34574000D01*
X18166000Y-33772000D02*
X18166000Y-34808000D01*
X18126000Y-33613000D02*
X18126000Y-34967000D01*
X18086000Y-33485000D02*
X18086000Y-35095000D01*
X18046000Y-33375000D02*
X18046000Y-35205000D01*
X18006000Y-33279000D02*
X18006000Y-35301000D01*
X17966000Y-33192000D02*
X17966000Y-35388000D01*
X17926000Y-33112000D02*
X17926000Y-35468000D01*
X17886000Y-33039000D02*
X17886000Y-35541000D01*
X17846000Y-32971000D02*
X17846000Y-35609000D01*
X17806000Y-32907000D02*
X17806000Y-35673000D01*
X17766000Y-32847000D02*
X17766000Y-35733000D01*
X17726000Y-32790000D02*
X17726000Y-35790000D01*
X17686000Y-32736000D02*
X17686000Y-35844000D01*
X17646000Y-32685000D02*
X17646000Y-35895000D01*
X17606000Y-35330000D02*
X17606000Y-35943000D01*
X17606000Y-32637000D02*
X17606000Y-33250000D01*
X17566000Y-35330000D02*
X17566000Y-35989000D01*
X17566000Y-32591000D02*
X17566000Y-33250000D01*
X17526000Y-35330000D02*
X17526000Y-36033000D01*
X17526000Y-32547000D02*
X17526000Y-33250000D01*
X17486000Y-35330000D02*
X17486000Y-36075000D01*
X17486000Y-32505000D02*
X17486000Y-33250000D01*
X17446000Y-35330000D02*
X17446000Y-36116000D01*
X17446000Y-32464000D02*
X17446000Y-33250000D01*
X17406000Y-35330000D02*
X17406000Y-36154000D01*
X17406000Y-32426000D02*
X17406000Y-33250000D01*
X17366000Y-35330000D02*
X17366000Y-36191000D01*
X17366000Y-32389000D02*
X17366000Y-33250000D01*
X17326000Y-35330000D02*
X17326000Y-36227000D01*
X17326000Y-32353000D02*
X17326000Y-33250000D01*
X17286000Y-35330000D02*
X17286000Y-36261000D01*
X17286000Y-32319000D02*
X17286000Y-33250000D01*
X17246000Y-35330000D02*
X17246000Y-36294000D01*
X17246000Y-32286000D02*
X17246000Y-33250000D01*
X17206000Y-35330000D02*
X17206000Y-36325000D01*
X17206000Y-32255000D02*
X17206000Y-33250000D01*
X17166000Y-35330000D02*
X17166000Y-36355000D01*
X17166000Y-32225000D02*
X17166000Y-33250000D01*
X17126000Y-35330000D02*
X17126000Y-36385000D01*
X17126000Y-32195000D02*
X17126000Y-33250000D01*
X17086000Y-35330000D02*
X17086000Y-36412000D01*
X17086000Y-32168000D02*
X17086000Y-33250000D01*
X17046000Y-35330000D02*
X17046000Y-36439000D01*
X17046000Y-32141000D02*
X17046000Y-33250000D01*
X17006000Y-35330000D02*
X17006000Y-36465000D01*
X17006000Y-32115000D02*
X17006000Y-33250000D01*
X16966000Y-35330000D02*
X16966000Y-36490000D01*
X16966000Y-32090000D02*
X16966000Y-33250000D01*
X16926000Y-35330000D02*
X16926000Y-36514000D01*
X16926000Y-32066000D02*
X16926000Y-33250000D01*
X16886000Y-35330000D02*
X16886000Y-36537000D01*
X16886000Y-32043000D02*
X16886000Y-33250000D01*
X16846000Y-35330000D02*
X16846000Y-36558000D01*
X16846000Y-32022000D02*
X16846000Y-33250000D01*
X16806000Y-35330000D02*
X16806000Y-36580000D01*
X16806000Y-32000000D02*
X16806000Y-33250000D01*
X16766000Y-35330000D02*
X16766000Y-36600000D01*
X16766000Y-31980000D02*
X16766000Y-33250000D01*
X16726000Y-35330000D02*
X16726000Y-36619000D01*
X16726000Y-31961000D02*
X16726000Y-33250000D01*
X16686000Y-35330000D02*
X16686000Y-36638000D01*
X16686000Y-31942000D02*
X16686000Y-33250000D01*
X16646000Y-35330000D02*
X16646000Y-36655000D01*
X16646000Y-31925000D02*
X16646000Y-33250000D01*
X16606000Y-35330000D02*
X16606000Y-36672000D01*
X16606000Y-31908000D02*
X16606000Y-33250000D01*
X16566000Y-35330000D02*
X16566000Y-36688000D01*
X16566000Y-31892000D02*
X16566000Y-33250000D01*
X16526000Y-35330000D02*
X16526000Y-36704000D01*
X16526000Y-31876000D02*
X16526000Y-33250000D01*
X16486000Y-35330000D02*
X16486000Y-36718000D01*
X16486000Y-31862000D02*
X16486000Y-33250000D01*
X16446000Y-35330000D02*
X16446000Y-36732000D01*
X16446000Y-31848000D02*
X16446000Y-33250000D01*
X16406000Y-35330000D02*
X16406000Y-36745000D01*
X16406000Y-31835000D02*
X16406000Y-33250000D01*
X16366000Y-35330000D02*
X16366000Y-36758000D01*
X16366000Y-31822000D02*
X16366000Y-33250000D01*
X16326000Y-35330000D02*
X16326000Y-36770000D01*
X16326000Y-31810000D02*
X16326000Y-33250000D01*
X16285000Y-35330000D02*
X16285000Y-36781000D01*
X16285000Y-31799000D02*
X16285000Y-33250000D01*
X16245000Y-35330000D02*
X16245000Y-36791000D01*
X16245000Y-31789000D02*
X16245000Y-33250000D01*
X16205000Y-35330000D02*
X16205000Y-36801000D01*
X16205000Y-31779000D02*
X16205000Y-33250000D01*
X16165000Y-35330000D02*
X16165000Y-36810000D01*
X16165000Y-31770000D02*
X16165000Y-33250000D01*
X16125000Y-35330000D02*
X16125000Y-36818000D01*
X16125000Y-31762000D02*
X16125000Y-33250000D01*
X16085000Y-35330000D02*
X16085000Y-36826000D01*
X16085000Y-31754000D02*
X16085000Y-33250000D01*
X16045000Y-35330000D02*
X16045000Y-36833000D01*
X16045000Y-31747000D02*
X16045000Y-33250000D01*
X16005000Y-35330000D02*
X16005000Y-36840000D01*
X16005000Y-31740000D02*
X16005000Y-33250000D01*
X15965000Y-35330000D02*
X15965000Y-36846000D01*
X15965000Y-31734000D02*
X15965000Y-33250000D01*
X15925000Y-35330000D02*
X15925000Y-36851000D01*
X15925000Y-31729000D02*
X15925000Y-33250000D01*
X15885000Y-35330000D02*
X15885000Y-36855000D01*
X15885000Y-31725000D02*
X15885000Y-33250000D01*
X15845000Y-35330000D02*
X15845000Y-36859000D01*
X15845000Y-31721000D02*
X15845000Y-33250000D01*
X15805000Y-35330000D02*
X15805000Y-36863000D01*
X15805000Y-31717000D02*
X15805000Y-33250000D01*
X15765000Y-35330000D02*
X15765000Y-36866000D01*
X15765000Y-31714000D02*
X15765000Y-33250000D01*
X15725000Y-35330000D02*
X15725000Y-36868000D01*
X15725000Y-31712000D02*
X15725000Y-33250000D01*
X15685000Y-35330000D02*
X15685000Y-36869000D01*
X15685000Y-31711000D02*
X15685000Y-33250000D01*
X15645000Y-31710000D02*
X15645000Y-33250000D01*
X15645000Y-35330000D02*
X15645000Y-36870000D01*
X15605000Y-31710000D02*
X15605000Y-33250000D01*
X15605000Y-35330000D02*
X15605000Y-36870000D01*
X18225000Y-34290000D02*
G75*
G03*
X18225000Y-34290000I-2620000J0D01*
G01*
D13*
X13081000Y-31369000D02*
X13081000Y-32639000D01*
X13716000Y-32004000D02*
X12446000Y-32004000D01*
%TO.C,C3*%
X8001000Y-9779000D02*
X6731000Y-9779000D01*
X7366000Y-9144000D02*
X7366000Y-10414000D01*
D11*
X12510000Y-12065000D02*
G75*
G03*
X12510000Y-12065000I-2620000J0D01*
G01*
X9890000Y-13105000D02*
X9890000Y-14645000D01*
X9890000Y-9485000D02*
X9890000Y-11025000D01*
X9930000Y-13105000D02*
X9930000Y-14645000D01*
X9930000Y-9485000D02*
X9930000Y-11025000D01*
X9970000Y-9486000D02*
X9970000Y-11025000D01*
X9970000Y-13105000D02*
X9970000Y-14644000D01*
X10010000Y-9487000D02*
X10010000Y-11025000D01*
X10010000Y-13105000D02*
X10010000Y-14643000D01*
X10050000Y-9489000D02*
X10050000Y-11025000D01*
X10050000Y-13105000D02*
X10050000Y-14641000D01*
X10090000Y-9492000D02*
X10090000Y-11025000D01*
X10090000Y-13105000D02*
X10090000Y-14638000D01*
X10130000Y-9496000D02*
X10130000Y-11025000D01*
X10130000Y-13105000D02*
X10130000Y-14634000D01*
X10170000Y-9500000D02*
X10170000Y-11025000D01*
X10170000Y-13105000D02*
X10170000Y-14630000D01*
X10210000Y-9504000D02*
X10210000Y-11025000D01*
X10210000Y-13105000D02*
X10210000Y-14626000D01*
X10250000Y-9509000D02*
X10250000Y-11025000D01*
X10250000Y-13105000D02*
X10250000Y-14621000D01*
X10290000Y-9515000D02*
X10290000Y-11025000D01*
X10290000Y-13105000D02*
X10290000Y-14615000D01*
X10330000Y-9522000D02*
X10330000Y-11025000D01*
X10330000Y-13105000D02*
X10330000Y-14608000D01*
X10370000Y-9529000D02*
X10370000Y-11025000D01*
X10370000Y-13105000D02*
X10370000Y-14601000D01*
X10410000Y-9537000D02*
X10410000Y-11025000D01*
X10410000Y-13105000D02*
X10410000Y-14593000D01*
X10450000Y-9545000D02*
X10450000Y-11025000D01*
X10450000Y-13105000D02*
X10450000Y-14585000D01*
X10490000Y-9554000D02*
X10490000Y-11025000D01*
X10490000Y-13105000D02*
X10490000Y-14576000D01*
X10530000Y-9564000D02*
X10530000Y-11025000D01*
X10530000Y-13105000D02*
X10530000Y-14566000D01*
X10570000Y-9574000D02*
X10570000Y-11025000D01*
X10570000Y-13105000D02*
X10570000Y-14556000D01*
X10611000Y-9585000D02*
X10611000Y-11025000D01*
X10611000Y-13105000D02*
X10611000Y-14545000D01*
X10651000Y-9597000D02*
X10651000Y-11025000D01*
X10651000Y-13105000D02*
X10651000Y-14533000D01*
X10691000Y-9610000D02*
X10691000Y-11025000D01*
X10691000Y-13105000D02*
X10691000Y-14520000D01*
X10731000Y-9623000D02*
X10731000Y-11025000D01*
X10731000Y-13105000D02*
X10731000Y-14507000D01*
X10771000Y-9637000D02*
X10771000Y-11025000D01*
X10771000Y-13105000D02*
X10771000Y-14493000D01*
X10811000Y-9651000D02*
X10811000Y-11025000D01*
X10811000Y-13105000D02*
X10811000Y-14479000D01*
X10851000Y-9667000D02*
X10851000Y-11025000D01*
X10851000Y-13105000D02*
X10851000Y-14463000D01*
X10891000Y-9683000D02*
X10891000Y-11025000D01*
X10891000Y-13105000D02*
X10891000Y-14447000D01*
X10931000Y-9700000D02*
X10931000Y-11025000D01*
X10931000Y-13105000D02*
X10931000Y-14430000D01*
X10971000Y-9717000D02*
X10971000Y-11025000D01*
X10971000Y-13105000D02*
X10971000Y-14413000D01*
X11011000Y-9736000D02*
X11011000Y-11025000D01*
X11011000Y-13105000D02*
X11011000Y-14394000D01*
X11051000Y-9755000D02*
X11051000Y-11025000D01*
X11051000Y-13105000D02*
X11051000Y-14375000D01*
X11091000Y-9775000D02*
X11091000Y-11025000D01*
X11091000Y-13105000D02*
X11091000Y-14355000D01*
X11131000Y-9797000D02*
X11131000Y-11025000D01*
X11131000Y-13105000D02*
X11131000Y-14333000D01*
X11171000Y-9818000D02*
X11171000Y-11025000D01*
X11171000Y-13105000D02*
X11171000Y-14312000D01*
X11211000Y-9841000D02*
X11211000Y-11025000D01*
X11211000Y-13105000D02*
X11211000Y-14289000D01*
X11251000Y-9865000D02*
X11251000Y-11025000D01*
X11251000Y-13105000D02*
X11251000Y-14265000D01*
X11291000Y-9890000D02*
X11291000Y-11025000D01*
X11291000Y-13105000D02*
X11291000Y-14240000D01*
X11331000Y-9916000D02*
X11331000Y-11025000D01*
X11331000Y-13105000D02*
X11331000Y-14214000D01*
X11371000Y-9943000D02*
X11371000Y-11025000D01*
X11371000Y-13105000D02*
X11371000Y-14187000D01*
X11411000Y-9970000D02*
X11411000Y-11025000D01*
X11411000Y-13105000D02*
X11411000Y-14160000D01*
X11451000Y-10000000D02*
X11451000Y-11025000D01*
X11451000Y-13105000D02*
X11451000Y-14130000D01*
X11491000Y-10030000D02*
X11491000Y-11025000D01*
X11491000Y-13105000D02*
X11491000Y-14100000D01*
X11531000Y-10061000D02*
X11531000Y-11025000D01*
X11531000Y-13105000D02*
X11531000Y-14069000D01*
X11571000Y-10094000D02*
X11571000Y-11025000D01*
X11571000Y-13105000D02*
X11571000Y-14036000D01*
X11611000Y-10128000D02*
X11611000Y-11025000D01*
X11611000Y-13105000D02*
X11611000Y-14002000D01*
X11651000Y-10164000D02*
X11651000Y-11025000D01*
X11651000Y-13105000D02*
X11651000Y-13966000D01*
X11691000Y-10201000D02*
X11691000Y-11025000D01*
X11691000Y-13105000D02*
X11691000Y-13929000D01*
X11731000Y-10239000D02*
X11731000Y-11025000D01*
X11731000Y-13105000D02*
X11731000Y-13891000D01*
X11771000Y-10280000D02*
X11771000Y-11025000D01*
X11771000Y-13105000D02*
X11771000Y-13850000D01*
X11811000Y-10322000D02*
X11811000Y-11025000D01*
X11811000Y-13105000D02*
X11811000Y-13808000D01*
X11851000Y-10366000D02*
X11851000Y-11025000D01*
X11851000Y-13105000D02*
X11851000Y-13764000D01*
X11891000Y-10412000D02*
X11891000Y-11025000D01*
X11891000Y-13105000D02*
X11891000Y-13718000D01*
X11931000Y-10460000D02*
X11931000Y-13670000D01*
X11971000Y-10511000D02*
X11971000Y-13619000D01*
X12011000Y-10565000D02*
X12011000Y-13565000D01*
X12051000Y-10622000D02*
X12051000Y-13508000D01*
X12091000Y-10682000D02*
X12091000Y-13448000D01*
X12131000Y-10746000D02*
X12131000Y-13384000D01*
X12171000Y-10814000D02*
X12171000Y-13316000D01*
X12211000Y-10887000D02*
X12211000Y-13243000D01*
X12251000Y-10967000D02*
X12251000Y-13163000D01*
X12291000Y-11054000D02*
X12291000Y-13076000D01*
X12331000Y-11150000D02*
X12331000Y-12980000D01*
X12371000Y-11260000D02*
X12371000Y-12870000D01*
X12411000Y-11388000D02*
X12411000Y-12742000D01*
X12451000Y-11547000D02*
X12451000Y-12583000D01*
X12491000Y-11781000D02*
X12491000Y-12349000D01*
%TO.C,R5*%
X31125000Y-20150000D02*
X31125000Y-20630000D01*
X41265000Y-20150000D02*
X31125000Y-20150000D01*
X41265000Y-20630000D02*
X41265000Y-20150000D01*
X31125000Y-23030000D02*
X31125000Y-22550000D01*
X41265000Y-23030000D02*
X31125000Y-23030000D01*
X41265000Y-22550000D02*
X41265000Y-23030000D01*
%TO.C,R6*%
X5390000Y-28565000D02*
X4910000Y-28565000D01*
X4910000Y-28565000D02*
X4910000Y-18425000D01*
X4910000Y-18425000D02*
X5390000Y-18425000D01*
X7310000Y-28565000D02*
X7790000Y-28565000D01*
X7790000Y-28565000D02*
X7790000Y-18425000D01*
X7790000Y-18425000D02*
X7310000Y-18425000D01*
%TO.C,R7*%
X31125000Y-23960000D02*
X31125000Y-24440000D01*
X41265000Y-23960000D02*
X31125000Y-23960000D01*
X41265000Y-24440000D02*
X41265000Y-23960000D01*
X31125000Y-26840000D02*
X31125000Y-26360000D01*
X41265000Y-26840000D02*
X31125000Y-26840000D01*
X41265000Y-26360000D02*
X41265000Y-26840000D01*
%TO.C,R8*%
X41265000Y-30170000D02*
X41265000Y-30650000D01*
X41265000Y-30650000D02*
X31125000Y-30650000D01*
X31125000Y-30650000D02*
X31125000Y-30170000D01*
X41265000Y-28250000D02*
X41265000Y-27770000D01*
X41265000Y-27770000D02*
X31125000Y-27770000D01*
X31125000Y-27770000D02*
X31125000Y-28250000D01*
%TO.C,R9*%
X11600000Y-18425000D02*
X11120000Y-18425000D01*
X11600000Y-28565000D02*
X11600000Y-18425000D01*
X11120000Y-28565000D02*
X11600000Y-28565000D01*
X8720000Y-18425000D02*
X9200000Y-18425000D01*
X8720000Y-28565000D02*
X8720000Y-18425000D01*
X9200000Y-28565000D02*
X8720000Y-28565000D01*
%TO.C,R4*%
X31125000Y-16340000D02*
X31125000Y-16820000D01*
X41265000Y-16340000D02*
X31125000Y-16340000D01*
X41265000Y-16820000D02*
X41265000Y-16340000D01*
X31125000Y-19220000D02*
X31125000Y-18740000D01*
X41265000Y-19220000D02*
X31125000Y-19220000D01*
X41265000Y-18740000D02*
X41265000Y-19220000D01*
%TO.C,D1*%
X31075000Y-3810000D02*
G75*
G03*
X31075000Y-3810000I-2500000J0D01*
G01*
X26015000Y-2265000D02*
X26015000Y-5355000D01*
X31565000Y-3810462D02*
G75*
G03*
X26015000Y-2265170I-2990000J462D01*
G01*
X31565000Y-3809538D02*
G75*
G02*
X26015000Y-5354830I-2990000J-462D01*
G01*
%TO.C,D2*%
X46315000Y-3810000D02*
G75*
G03*
X46315000Y-3810000I-2500000J0D01*
G01*
X41255000Y-2265000D02*
X41255000Y-5355000D01*
X46805000Y-3810462D02*
G75*
G03*
X41255000Y-2265170I-2990000J462D01*
G01*
X46805000Y-3809538D02*
G75*
G02*
X41255000Y-5354830I-2990000J-462D01*
G01*
%TO.C,D3*%
X53320000Y-10520000D02*
X53320000Y-13610000D01*
X58380000Y-12065000D02*
G75*
G03*
X58380000Y-12065000I-2500000J0D01*
G01*
X58870000Y-12064538D02*
G75*
G02*
X53320000Y-13609830I-2990000J-462D01*
G01*
X58870000Y-12065462D02*
G75*
G03*
X53320000Y-10520170I-2990000J462D01*
G01*
%TO.C,D4*%
X58380000Y-27305000D02*
G75*
G03*
X58380000Y-27305000I-2500000J0D01*
G01*
X53320000Y-25760000D02*
X53320000Y-28850000D01*
X58870000Y-27305462D02*
G75*
G03*
X53320000Y-25760170I-2990000J462D01*
G01*
X58870000Y-27304538D02*
G75*
G02*
X53320000Y-28849830I-2990000J-462D01*
G01*
%TO.C,D5*%
X41255000Y-34015000D02*
X41255000Y-37105000D01*
X46315000Y-35560000D02*
G75*
G03*
X46315000Y-35560000I-2500000J0D01*
G01*
X46805000Y-35559538D02*
G75*
G02*
X41255000Y-37104830I-2990000J-462D01*
G01*
X46805000Y-35560462D02*
G75*
G03*
X41255000Y-34015170I-2990000J462D01*
G01*
%TO.C,D6*%
X26015000Y-34015000D02*
X26015000Y-37105000D01*
X31075000Y-35560000D02*
G75*
G03*
X31075000Y-35560000I-2500000J0D01*
G01*
X31565000Y-35559538D02*
G75*
G02*
X26015000Y-37104830I-2990000J-462D01*
G01*
X31565000Y-35560462D02*
G75*
G03*
X26015000Y-34015170I-2990000J462D01*
G01*
%TO.C,U1*%
X24300000Y-12580000D02*
X13800000Y-12580000D01*
X24300000Y-30600000D02*
X24300000Y-12580000D01*
X13800000Y-30600000D02*
X24300000Y-30600000D01*
X13800000Y-12580000D02*
X13800000Y-30600000D01*
X21300000Y-12640000D02*
X20050000Y-12640000D01*
X21300000Y-30540000D02*
X21300000Y-12640000D01*
X16800000Y-30540000D02*
X21300000Y-30540000D01*
X16800000Y-12640000D02*
X16800000Y-30540000D01*
X18050000Y-12640000D02*
X16800000Y-12640000D01*
X20050000Y-12640000D02*
G75*
G02*
X18050000Y-12640000I-1000000J0D01*
G01*
%TO.C,R2*%
X31125000Y-12530000D02*
X31125000Y-13010000D01*
X41265000Y-12530000D02*
X31125000Y-12530000D01*
X41265000Y-13010000D02*
X41265000Y-12530000D01*
X31125000Y-15410000D02*
X31125000Y-14930000D01*
X41265000Y-15410000D02*
X31125000Y-15410000D01*
X41265000Y-14930000D02*
X41265000Y-15410000D01*
%TO.C,SW1*%
X18285000Y-6070000D02*
X9465000Y-6070000D01*
X9465000Y-6070000D02*
X9465000Y-5760000D01*
X9465000Y-1550000D02*
X18285000Y-1550000D01*
X18285000Y-5760000D02*
X18285000Y-6070000D01*
X18285000Y-1550000D02*
X18285000Y-1860000D01*
X9465000Y-1550000D02*
X9465000Y-1860000D01*
X16375000Y-6770000D02*
X15875000Y-6270000D01*
X15875000Y-6270000D02*
X15375000Y-6770000D01*
X15375000Y-6770000D02*
X16375000Y-6770000D01*
%TO.C,BT1*%
X1210000Y-9465000D02*
X2540000Y-9465000D01*
X1210000Y-10795000D02*
X1210000Y-9465000D01*
X1210000Y-12065000D02*
X3870000Y-12065000D01*
X3870000Y-12065000D02*
X3870000Y-14665000D01*
X1210000Y-12065000D02*
X1210000Y-14665000D01*
X1210000Y-14665000D02*
X3870000Y-14665000D01*
%TO.C,C4*%
X23495000Y-11430000D02*
X23495000Y-12065000D01*
X23495000Y-12065000D02*
X14605000Y-12065000D01*
X14605000Y-12065000D02*
X14605000Y-11430000D01*
X14605000Y-8890000D02*
X14605000Y-8255000D01*
X14605000Y-8255000D02*
X23495000Y-8255000D01*
X23495000Y-8255000D02*
X23495000Y-8890000D01*
%TO.C,C1*%
D13*
X11731666Y-38814285D02*
X11636428Y-38909523D01*
X11350714Y-39004761D01*
X11160238Y-39004761D01*
X10874523Y-38909523D01*
X10684047Y-38719047D01*
X10588809Y-38528571D01*
X10493571Y-38147619D01*
X10493571Y-37861904D01*
X10588809Y-37480952D01*
X10684047Y-37290476D01*
X10874523Y-37100000D01*
X11160238Y-37004761D01*
X11350714Y-37004761D01*
X11636428Y-37100000D01*
X11731666Y-37195238D01*
X13636428Y-39004761D02*
X12493571Y-39004761D01*
X13065000Y-39004761D02*
X13065000Y-37004761D01*
X12874523Y-37290476D01*
X12684047Y-37480952D01*
X12493571Y-37576190D01*
%TO.C,R3*%
X3444761Y-26368333D02*
X2492380Y-27035000D01*
X3444761Y-27511190D02*
X1444761Y-27511190D01*
X1444761Y-26749285D01*
X1540000Y-26558809D01*
X1635238Y-26463571D01*
X1825714Y-26368333D01*
X2111428Y-26368333D01*
X2301904Y-26463571D01*
X2397142Y-26558809D01*
X2492380Y-26749285D01*
X2492380Y-27511190D01*
X1444761Y-25701666D02*
X1444761Y-24463571D01*
X2206666Y-25130238D01*
X2206666Y-24844523D01*
X2301904Y-24654047D01*
X2397142Y-24558809D01*
X2587619Y-24463571D01*
X3063809Y-24463571D01*
X3254285Y-24558809D01*
X3349523Y-24654047D01*
X3444761Y-24844523D01*
X3444761Y-25415952D01*
X3349523Y-25606428D01*
X3254285Y-25701666D01*
%TO.C,R1*%
X45386666Y-11064761D02*
X44720000Y-10112380D01*
X44243809Y-11064761D02*
X44243809Y-9064761D01*
X45005714Y-9064761D01*
X45196190Y-9160000D01*
X45291428Y-9255238D01*
X45386666Y-9445714D01*
X45386666Y-9731428D01*
X45291428Y-9921904D01*
X45196190Y-10017142D01*
X45005714Y-10112380D01*
X44243809Y-10112380D01*
X47291428Y-11064761D02*
X46148571Y-11064761D01*
X46720000Y-11064761D02*
X46720000Y-9064761D01*
X46529523Y-9350476D01*
X46339047Y-9540952D01*
X46148571Y-9636190D01*
%TO.C,Picuino_Logo_B6*%
X49101428Y-28300000D02*
X50434761Y-28014285D01*
X49482380Y-27728571D01*
X50434761Y-27442857D01*
X49101428Y-27157142D01*
X49101428Y-26728571D02*
X50434761Y-26442857D01*
X49482380Y-26157142D01*
X50434761Y-25871428D01*
X49101428Y-25585714D01*
X49101428Y-25157142D02*
X50434761Y-24871428D01*
X49482380Y-24585714D01*
X50434761Y-24300000D01*
X49101428Y-24014285D01*
X50244285Y-23442857D02*
X50339523Y-23371428D01*
X50434761Y-23442857D01*
X50339523Y-23514285D01*
X50244285Y-23442857D01*
X50434761Y-23442857D01*
X49101428Y-22728571D02*
X51101428Y-22728571D01*
X49196666Y-22728571D02*
X49101428Y-22585714D01*
X49101428Y-22300000D01*
X49196666Y-22157142D01*
X49291904Y-22085714D01*
X49482380Y-22014285D01*
X50053809Y-22014285D01*
X50244285Y-22085714D01*
X50339523Y-22157142D01*
X50434761Y-22300000D01*
X50434761Y-22585714D01*
X50339523Y-22728571D01*
X50434761Y-21371428D02*
X49101428Y-21371428D01*
X48434761Y-21371428D02*
X48530000Y-21442857D01*
X48625238Y-21371428D01*
X48530000Y-21300000D01*
X48434761Y-21371428D01*
X48625238Y-21371428D01*
X50339523Y-20014285D02*
X50434761Y-20157142D01*
X50434761Y-20442857D01*
X50339523Y-20585714D01*
X50244285Y-20657142D01*
X50053809Y-20728571D01*
X49482380Y-20728571D01*
X49291904Y-20657142D01*
X49196666Y-20585714D01*
X49101428Y-20442857D01*
X49101428Y-20157142D01*
X49196666Y-20014285D01*
X49101428Y-18728571D02*
X50434761Y-18728571D01*
X49101428Y-19371428D02*
X50149047Y-19371428D01*
X50339523Y-19300000D01*
X50434761Y-19157142D01*
X50434761Y-18942857D01*
X50339523Y-18800000D01*
X50244285Y-18728571D01*
X50434761Y-18014285D02*
X49101428Y-18014285D01*
X48434761Y-18014285D02*
X48530000Y-18085714D01*
X48625238Y-18014285D01*
X48530000Y-17942857D01*
X48434761Y-18014285D01*
X48625238Y-18014285D01*
X49101428Y-17300000D02*
X50434761Y-17300000D01*
X49291904Y-17300000D02*
X49196666Y-17228571D01*
X49101428Y-17085714D01*
X49101428Y-16871428D01*
X49196666Y-16728571D01*
X49387142Y-16657142D01*
X50434761Y-16657142D01*
X50434761Y-15728571D02*
X50339523Y-15871428D01*
X50244285Y-15942857D01*
X50053809Y-16014285D01*
X49482380Y-16014285D01*
X49291904Y-15942857D01*
X49196666Y-15871428D01*
X49101428Y-15728571D01*
X49101428Y-15514285D01*
X49196666Y-15371428D01*
X49291904Y-15300000D01*
X49482380Y-15228571D01*
X50053809Y-15228571D01*
X50244285Y-15300000D01*
X50339523Y-15371428D01*
X50434761Y-15514285D01*
X50434761Y-15728571D01*
X50244285Y-14585714D02*
X50339523Y-14514285D01*
X50434761Y-14585714D01*
X50339523Y-14657142D01*
X50244285Y-14585714D01*
X50434761Y-14585714D01*
X50339523Y-13228571D02*
X50434761Y-13371428D01*
X50434761Y-13657142D01*
X50339523Y-13800000D01*
X50244285Y-13871428D01*
X50053809Y-13942857D01*
X49482380Y-13942857D01*
X49291904Y-13871428D01*
X49196666Y-13800000D01*
X49101428Y-13657142D01*
X49101428Y-13371428D01*
X49196666Y-13228571D01*
X50434761Y-12371428D02*
X50339523Y-12514285D01*
X50244285Y-12585714D01*
X50053809Y-12657142D01*
X49482380Y-12657142D01*
X49291904Y-12585714D01*
X49196666Y-12514285D01*
X49101428Y-12371428D01*
X49101428Y-12157142D01*
X49196666Y-12014285D01*
X49291904Y-11942857D01*
X49482380Y-11871428D01*
X50053809Y-11871428D01*
X50244285Y-11942857D01*
X50339523Y-12014285D01*
X50434761Y-12157142D01*
X50434761Y-12371428D01*
X50434761Y-11228571D02*
X49101428Y-11228571D01*
X49291904Y-11228571D02*
X49196666Y-11157142D01*
X49101428Y-11014285D01*
X49101428Y-10800000D01*
X49196666Y-10657142D01*
X49387142Y-10585714D01*
X50434761Y-10585714D01*
X49387142Y-10585714D02*
X49196666Y-10514285D01*
X49101428Y-10371428D01*
X49101428Y-10157142D01*
X49196666Y-10014285D01*
X49387142Y-9942857D01*
X50434761Y-9942857D01*
%TO.C,C2*%
X18081666Y-38814285D02*
X17986428Y-38909523D01*
X17700714Y-39004761D01*
X17510238Y-39004761D01*
X17224523Y-38909523D01*
X17034047Y-38719047D01*
X16938809Y-38528571D01*
X16843571Y-38147619D01*
X16843571Y-37861904D01*
X16938809Y-37480952D01*
X17034047Y-37290476D01*
X17224523Y-37100000D01*
X17510238Y-37004761D01*
X17700714Y-37004761D01*
X17986428Y-37100000D01*
X18081666Y-37195238D01*
X18843571Y-37195238D02*
X18938809Y-37100000D01*
X19129285Y-37004761D01*
X19605476Y-37004761D01*
X19795952Y-37100000D01*
X19891190Y-37195238D01*
X19986428Y-37385714D01*
X19986428Y-37576190D01*
X19891190Y-37861904D01*
X18748333Y-39004761D01*
X19986428Y-39004761D01*
%TO.C,C3*%
X11731666Y-8969285D02*
X11636428Y-9064523D01*
X11350714Y-9159761D01*
X11160238Y-9159761D01*
X10874523Y-9064523D01*
X10684047Y-8874047D01*
X10588809Y-8683571D01*
X10493571Y-8302619D01*
X10493571Y-8016904D01*
X10588809Y-7635952D01*
X10684047Y-7445476D01*
X10874523Y-7255000D01*
X11160238Y-7159761D01*
X11350714Y-7159761D01*
X11636428Y-7255000D01*
X11731666Y-7350238D01*
X12398333Y-7159761D02*
X13636428Y-7159761D01*
X12969761Y-7921666D01*
X13255476Y-7921666D01*
X13445952Y-8016904D01*
X13541190Y-8112142D01*
X13636428Y-8302619D01*
X13636428Y-8778809D01*
X13541190Y-8969285D01*
X13445952Y-9064523D01*
X13255476Y-9159761D01*
X12684047Y-9159761D01*
X12493571Y-9064523D01*
X12398333Y-8969285D01*
%TO.C,R5*%
X45386666Y-22494761D02*
X44720000Y-21542380D01*
X44243809Y-22494761D02*
X44243809Y-20494761D01*
X45005714Y-20494761D01*
X45196190Y-20590000D01*
X45291428Y-20685238D01*
X45386666Y-20875714D01*
X45386666Y-21161428D01*
X45291428Y-21351904D01*
X45196190Y-21447142D01*
X45005714Y-21542380D01*
X44243809Y-21542380D01*
X47196190Y-20494761D02*
X46243809Y-20494761D01*
X46148571Y-21447142D01*
X46243809Y-21351904D01*
X46434285Y-21256666D01*
X46910476Y-21256666D01*
X47100952Y-21351904D01*
X47196190Y-21447142D01*
X47291428Y-21637619D01*
X47291428Y-22113809D01*
X47196190Y-22304285D01*
X47100952Y-22399523D01*
X46910476Y-22494761D01*
X46434285Y-22494761D01*
X46243809Y-22399523D01*
X46148571Y-22304285D01*
%TO.C,R6*%
X7254761Y-26368333D02*
X6302380Y-27035000D01*
X7254761Y-27511190D02*
X5254761Y-27511190D01*
X5254761Y-26749285D01*
X5350000Y-26558809D01*
X5445238Y-26463571D01*
X5635714Y-26368333D01*
X5921428Y-26368333D01*
X6111904Y-26463571D01*
X6207142Y-26558809D01*
X6302380Y-26749285D01*
X6302380Y-27511190D01*
X5254761Y-24654047D02*
X5254761Y-25035000D01*
X5350000Y-25225476D01*
X5445238Y-25320714D01*
X5730952Y-25511190D01*
X6111904Y-25606428D01*
X6873809Y-25606428D01*
X7064285Y-25511190D01*
X7159523Y-25415952D01*
X7254761Y-25225476D01*
X7254761Y-24844523D01*
X7159523Y-24654047D01*
X7064285Y-24558809D01*
X6873809Y-24463571D01*
X6397619Y-24463571D01*
X6207142Y-24558809D01*
X6111904Y-24654047D01*
X6016666Y-24844523D01*
X6016666Y-25225476D01*
X6111904Y-25415952D01*
X6207142Y-25511190D01*
X6397619Y-25606428D01*
%TO.C,R7*%
X45386666Y-26304761D02*
X44720000Y-25352380D01*
X44243809Y-26304761D02*
X44243809Y-24304761D01*
X45005714Y-24304761D01*
X45196190Y-24400000D01*
X45291428Y-24495238D01*
X45386666Y-24685714D01*
X45386666Y-24971428D01*
X45291428Y-25161904D01*
X45196190Y-25257142D01*
X45005714Y-25352380D01*
X44243809Y-25352380D01*
X46053333Y-24304761D02*
X47386666Y-24304761D01*
X46529523Y-26304761D01*
%TO.C,R8*%
X45386666Y-30114761D02*
X44720000Y-29162380D01*
X44243809Y-30114761D02*
X44243809Y-28114761D01*
X45005714Y-28114761D01*
X45196190Y-28210000D01*
X45291428Y-28305238D01*
X45386666Y-28495714D01*
X45386666Y-28781428D01*
X45291428Y-28971904D01*
X45196190Y-29067142D01*
X45005714Y-29162380D01*
X44243809Y-29162380D01*
X46529523Y-28971904D02*
X46339047Y-28876666D01*
X46243809Y-28781428D01*
X46148571Y-28590952D01*
X46148571Y-28495714D01*
X46243809Y-28305238D01*
X46339047Y-28210000D01*
X46529523Y-28114761D01*
X46910476Y-28114761D01*
X47100952Y-28210000D01*
X47196190Y-28305238D01*
X47291428Y-28495714D01*
X47291428Y-28590952D01*
X47196190Y-28781428D01*
X47100952Y-28876666D01*
X46910476Y-28971904D01*
X46529523Y-28971904D01*
X46339047Y-29067142D01*
X46243809Y-29162380D01*
X46148571Y-29352857D01*
X46148571Y-29733809D01*
X46243809Y-29924285D01*
X46339047Y-30019523D01*
X46529523Y-30114761D01*
X46910476Y-30114761D01*
X47100952Y-30019523D01*
X47196190Y-29924285D01*
X47291428Y-29733809D01*
X47291428Y-29352857D01*
X47196190Y-29162380D01*
X47100952Y-29067142D01*
X46910476Y-28971904D01*
%TO.C,R9*%
X11064761Y-26368333D02*
X10112380Y-27035000D01*
X11064761Y-27511190D02*
X9064761Y-27511190D01*
X9064761Y-26749285D01*
X9160000Y-26558809D01*
X9255238Y-26463571D01*
X9445714Y-26368333D01*
X9731428Y-26368333D01*
X9921904Y-26463571D01*
X10017142Y-26558809D01*
X10112380Y-26749285D01*
X10112380Y-27511190D01*
X11064761Y-25415952D02*
X11064761Y-25035000D01*
X10969523Y-24844523D01*
X10874285Y-24749285D01*
X10588571Y-24558809D01*
X10207619Y-24463571D01*
X9445714Y-24463571D01*
X9255238Y-24558809D01*
X9160000Y-24654047D01*
X9064761Y-24844523D01*
X9064761Y-25225476D01*
X9160000Y-25415952D01*
X9255238Y-25511190D01*
X9445714Y-25606428D01*
X9921904Y-25606428D01*
X10112380Y-25511190D01*
X10207619Y-25415952D01*
X10302857Y-25225476D01*
X10302857Y-24844523D01*
X10207619Y-24654047D01*
X10112380Y-24558809D01*
X9921904Y-24463571D01*
%TO.C,R4*%
X45386666Y-18684761D02*
X44720000Y-17732380D01*
X44243809Y-18684761D02*
X44243809Y-16684761D01*
X45005714Y-16684761D01*
X45196190Y-16780000D01*
X45291428Y-16875238D01*
X45386666Y-17065714D01*
X45386666Y-17351428D01*
X45291428Y-17541904D01*
X45196190Y-17637142D01*
X45005714Y-17732380D01*
X44243809Y-17732380D01*
X47100952Y-17351428D02*
X47100952Y-18684761D01*
X46624761Y-16589523D02*
X46148571Y-18018095D01*
X47386666Y-18018095D01*
%TO.C,D1*%
X32178809Y-4714761D02*
X32178809Y-2714761D01*
X32655000Y-2714761D01*
X32940714Y-2810000D01*
X33131190Y-3000476D01*
X33226428Y-3190952D01*
X33321666Y-3571904D01*
X33321666Y-3857619D01*
X33226428Y-4238571D01*
X33131190Y-4429047D01*
X32940714Y-4619523D01*
X32655000Y-4714761D01*
X32178809Y-4714761D01*
X35226428Y-4714761D02*
X34083571Y-4714761D01*
X34655000Y-4714761D02*
X34655000Y-2714761D01*
X34464523Y-3000476D01*
X34274047Y-3190952D01*
X34083571Y-3286190D01*
%TO.C,D2*%
X47418809Y-4714761D02*
X47418809Y-2714761D01*
X47895000Y-2714761D01*
X48180714Y-2810000D01*
X48371190Y-3000476D01*
X48466428Y-3190952D01*
X48561666Y-3571904D01*
X48561666Y-3857619D01*
X48466428Y-4238571D01*
X48371190Y-4429047D01*
X48180714Y-4619523D01*
X47895000Y-4714761D01*
X47418809Y-4714761D01*
X49323571Y-2905238D02*
X49418809Y-2810000D01*
X49609285Y-2714761D01*
X50085476Y-2714761D01*
X50275952Y-2810000D01*
X50371190Y-2905238D01*
X50466428Y-3095714D01*
X50466428Y-3286190D01*
X50371190Y-3571904D01*
X49228333Y-4714761D01*
X50466428Y-4714761D01*
%TO.C,D3*%
X54403809Y-17414761D02*
X54403809Y-15414761D01*
X54880000Y-15414761D01*
X55165714Y-15510000D01*
X55356190Y-15700476D01*
X55451428Y-15890952D01*
X55546666Y-16271904D01*
X55546666Y-16557619D01*
X55451428Y-16938571D01*
X55356190Y-17129047D01*
X55165714Y-17319523D01*
X54880000Y-17414761D01*
X54403809Y-17414761D01*
X56213333Y-15414761D02*
X57451428Y-15414761D01*
X56784761Y-16176666D01*
X57070476Y-16176666D01*
X57260952Y-16271904D01*
X57356190Y-16367142D01*
X57451428Y-16557619D01*
X57451428Y-17033809D01*
X57356190Y-17224285D01*
X57260952Y-17319523D01*
X57070476Y-17414761D01*
X56499047Y-17414761D01*
X56308571Y-17319523D01*
X56213333Y-17224285D01*
%TO.C,D4*%
X54403809Y-23764761D02*
X54403809Y-21764761D01*
X54880000Y-21764761D01*
X55165714Y-21860000D01*
X55356190Y-22050476D01*
X55451428Y-22240952D01*
X55546666Y-22621904D01*
X55546666Y-22907619D01*
X55451428Y-23288571D01*
X55356190Y-23479047D01*
X55165714Y-23669523D01*
X54880000Y-23764761D01*
X54403809Y-23764761D01*
X57260952Y-22431428D02*
X57260952Y-23764761D01*
X56784761Y-21669523D02*
X56308571Y-23098095D01*
X57546666Y-23098095D01*
%TO.C,D5*%
X47418809Y-36464761D02*
X47418809Y-34464761D01*
X47895000Y-34464761D01*
X48180714Y-34560000D01*
X48371190Y-34750476D01*
X48466428Y-34940952D01*
X48561666Y-35321904D01*
X48561666Y-35607619D01*
X48466428Y-35988571D01*
X48371190Y-36179047D01*
X48180714Y-36369523D01*
X47895000Y-36464761D01*
X47418809Y-36464761D01*
X50371190Y-34464761D02*
X49418809Y-34464761D01*
X49323571Y-35417142D01*
X49418809Y-35321904D01*
X49609285Y-35226666D01*
X50085476Y-35226666D01*
X50275952Y-35321904D01*
X50371190Y-35417142D01*
X50466428Y-35607619D01*
X50466428Y-36083809D01*
X50371190Y-36274285D01*
X50275952Y-36369523D01*
X50085476Y-36464761D01*
X49609285Y-36464761D01*
X49418809Y-36369523D01*
X49323571Y-36274285D01*
%TO.C,D6*%
X32178809Y-36464761D02*
X32178809Y-34464761D01*
X32655000Y-34464761D01*
X32940714Y-34560000D01*
X33131190Y-34750476D01*
X33226428Y-34940952D01*
X33321666Y-35321904D01*
X33321666Y-35607619D01*
X33226428Y-35988571D01*
X33131190Y-36179047D01*
X32940714Y-36369523D01*
X32655000Y-36464761D01*
X32178809Y-36464761D01*
X35035952Y-34464761D02*
X34655000Y-34464761D01*
X34464523Y-34560000D01*
X34369285Y-34655238D01*
X34178809Y-34940952D01*
X34083571Y-35321904D01*
X34083571Y-36083809D01*
X34178809Y-36274285D01*
X34274047Y-36369523D01*
X34464523Y-36464761D01*
X34845476Y-36464761D01*
X35035952Y-36369523D01*
X35131190Y-36274285D01*
X35226428Y-36083809D01*
X35226428Y-35607619D01*
X35131190Y-35417142D01*
X35035952Y-35321904D01*
X34845476Y-35226666D01*
X34464523Y-35226666D01*
X34274047Y-35321904D01*
X34178809Y-35417142D01*
X34083571Y-35607619D01*
%TO.C,U1*%
X24511190Y-12239761D02*
X24511190Y-13858809D01*
X24606428Y-14049285D01*
X24701666Y-14144523D01*
X24892142Y-14239761D01*
X25273095Y-14239761D01*
X25463571Y-14144523D01*
X25558809Y-14049285D01*
X25654047Y-13858809D01*
X25654047Y-12239761D01*
X27654047Y-14239761D02*
X26511190Y-14239761D01*
X27082619Y-14239761D02*
X27082619Y-12239761D01*
X26892142Y-12525476D01*
X26701666Y-12715952D01*
X26511190Y-12811190D01*
%TO.C,R2*%
X45386666Y-14874761D02*
X44720000Y-13922380D01*
X44243809Y-14874761D02*
X44243809Y-12874761D01*
X45005714Y-12874761D01*
X45196190Y-12970000D01*
X45291428Y-13065238D01*
X45386666Y-13255714D01*
X45386666Y-13541428D01*
X45291428Y-13731904D01*
X45196190Y-13827142D01*
X45005714Y-13922380D01*
X44243809Y-13922380D01*
X46148571Y-13065238D02*
X46243809Y-12970000D01*
X46434285Y-12874761D01*
X46910476Y-12874761D01*
X47100952Y-12970000D01*
X47196190Y-13065238D01*
X47291428Y-13255714D01*
X47291428Y-13446190D01*
X47196190Y-13731904D01*
X46053333Y-14874761D01*
X47291428Y-14874761D01*
%TO.C,SW1*%
X19753333Y-4619523D02*
X20039047Y-4714761D01*
X20515238Y-4714761D01*
X20705714Y-4619523D01*
X20800952Y-4524285D01*
X20896190Y-4333809D01*
X20896190Y-4143333D01*
X20800952Y-3952857D01*
X20705714Y-3857619D01*
X20515238Y-3762380D01*
X20134285Y-3667142D01*
X19943809Y-3571904D01*
X19848571Y-3476666D01*
X19753333Y-3286190D01*
X19753333Y-3095714D01*
X19848571Y-2905238D01*
X19943809Y-2810000D01*
X20134285Y-2714761D01*
X20610476Y-2714761D01*
X20896190Y-2810000D01*
X21562857Y-2714761D02*
X22039047Y-4714761D01*
X22420000Y-3286190D01*
X22800952Y-4714761D01*
X23277142Y-2714761D01*
X25086666Y-4714761D02*
X23943809Y-4714761D01*
X24515238Y-4714761D02*
X24515238Y-2714761D01*
X24324761Y-3000476D01*
X24134285Y-3190952D01*
X23943809Y-3286190D01*
%TO.C,BT1*%
X1839285Y-8133571D02*
X2082142Y-8214523D01*
X2163095Y-8295476D01*
X2244047Y-8457380D01*
X2244047Y-8700238D01*
X2163095Y-8862142D01*
X2082142Y-8943095D01*
X1920238Y-9024047D01*
X1272619Y-9024047D01*
X1272619Y-7324047D01*
X1839285Y-7324047D01*
X2001190Y-7405000D01*
X2082142Y-7485952D01*
X2163095Y-7647857D01*
X2163095Y-7809761D01*
X2082142Y-7971666D01*
X2001190Y-8052619D01*
X1839285Y-8133571D01*
X1272619Y-8133571D01*
X2729761Y-7324047D02*
X3701190Y-7324047D01*
X3215476Y-9024047D02*
X3215476Y-7324047D01*
X5158333Y-9024047D02*
X4186904Y-9024047D01*
X4672619Y-9024047D02*
X4672619Y-7324047D01*
X4510714Y-7566904D01*
X4348809Y-7728809D01*
X4186904Y-7809761D01*
%TO.C,C4*%
X25701666Y-9604285D02*
X25606428Y-9699523D01*
X25320714Y-9794761D01*
X25130238Y-9794761D01*
X24844523Y-9699523D01*
X24654047Y-9509047D01*
X24558809Y-9318571D01*
X24463571Y-8937619D01*
X24463571Y-8651904D01*
X24558809Y-8270952D01*
X24654047Y-8080476D01*
X24844523Y-7890000D01*
X25130238Y-7794761D01*
X25320714Y-7794761D01*
X25606428Y-7890000D01*
X25701666Y-7985238D01*
X27415952Y-8461428D02*
X27415952Y-9794761D01*
X26939761Y-7699523D02*
X26463571Y-9128095D01*
X27701666Y-9128095D01*
%TD*%
%LPC*%
D14*
%TO.C,M3*%
X56515000Y-36195000D03*
%TD*%
%TO.C,M3*%
X3175000Y-36195000D03*
%TD*%
%TO.C,M3*%
X3175000Y-3175000D03*
%TD*%
%TO.C,M3*%
X56515000Y-3175000D03*
%TD*%
D15*
%TO.C,C1*%
X8890000Y-34290000D03*
D16*
X10890000Y-34290000D03*
%TD*%
D17*
%TO.C,R3*%
X2540000Y-29845000D03*
X2540000Y-17145000D03*
%TD*%
%TO.C,R1*%
X42545000Y-10160000D03*
X29845000Y-10160000D03*
%TD*%
D15*
%TO.C,C2*%
X14605000Y-34290000D03*
D16*
X16605000Y-34290000D03*
%TD*%
%TO.C,C3*%
X10890000Y-12065000D03*
D15*
X8890000Y-12065000D03*
%TD*%
D17*
%TO.C,R5*%
X29845000Y-21590000D03*
X42545000Y-21590000D03*
%TD*%
%TO.C,R6*%
X6350000Y-29845000D03*
X6350000Y-17145000D03*
%TD*%
%TO.C,R7*%
X29845000Y-25400000D03*
X42545000Y-25400000D03*
%TD*%
%TO.C,R8*%
X42545000Y-29210000D03*
X29845000Y-29210000D03*
%TD*%
%TO.C,R9*%
X10160000Y-17145000D03*
X10160000Y-29845000D03*
%TD*%
%TO.C,R4*%
X29845000Y-17780000D03*
X42545000Y-17780000D03*
%TD*%
D18*
%TO.C,D1*%
X27305000Y-3810000D03*
D19*
X29845000Y-3810000D03*
%TD*%
D18*
%TO.C,D2*%
X42545000Y-3810000D03*
D19*
X45085000Y-3810000D03*
%TD*%
%TO.C,D3*%
X57150000Y-12065000D03*
D18*
X54610000Y-12065000D03*
%TD*%
%TO.C,D4*%
X54610000Y-27305000D03*
D19*
X57150000Y-27305000D03*
%TD*%
%TO.C,D5*%
X45085000Y-35560000D03*
D18*
X42545000Y-35560000D03*
%TD*%
D19*
%TO.C,D6*%
X29845000Y-35560000D03*
D18*
X27305000Y-35560000D03*
%TD*%
D20*
%TO.C,U1*%
X22860000Y-13970000D03*
X15240000Y-29210000D03*
X22860000Y-16510000D03*
X15240000Y-26670000D03*
X22860000Y-19050000D03*
X15240000Y-24130000D03*
X22860000Y-21590000D03*
X15240000Y-21590000D03*
X22860000Y-24130000D03*
X15240000Y-19050000D03*
X22860000Y-26670000D03*
X15240000Y-16510000D03*
X22860000Y-29210000D03*
D21*
X15240000Y-13970000D03*
%TD*%
D17*
%TO.C,R2*%
X29845000Y-13970000D03*
X42545000Y-13970000D03*
%TD*%
D22*
%TO.C,SW1*%
X9775000Y-3810000D03*
X17975000Y-3810000D03*
D23*
X11875000Y-3810000D03*
X13875000Y-3810000D03*
D24*
X15875000Y-3810000D03*
%TD*%
D25*
%TO.C,BT1*%
X2540000Y-13335000D03*
D26*
X2540000Y-10795000D03*
%TD*%
D17*
%TO.C,C4*%
X20320000Y-10160000D03*
X17780000Y-10160000D03*
X15240000Y-10160000D03*
X22860000Y-10160000D03*
%TD*%
M02*
