<?xml version="1.0" encoding="UTF-8" standalone="no"?>
<!DOCTYPE svg PUBLIC "-//W3C//DTD SVG 1.1//EN"
"http://www.w3.org/Graphics/SVG/1.1/DTD/svg11.dtd">
<svg viewBox="0 0 909 1286" version="1.1" xmlns="http://www.w3.org/2000/svg" xmlns:xlink="http://www.w3.org/1999/xlink">
<defs>
<style type="text/css"><![CDATA[
.g0_3{
}
.g1_3{
fill: #0000FF;
}
.g2_3{
fill: #FFFFFF;
}
.g3_3{
fill: none;
stroke: #FF0000;
stroke-width: 1.145;
stroke-linecap: round;
stroke-linejoin: miter;
stroke-miterlimit: 8;
}
.g4_3{
fill: #FF0000;
}
.g5_3{
fill: none;
stroke: #FF0000;
stroke-width: 1.145;
stroke-linecap: round;
stroke-linejoin: round;
}
.g6_3{
fill: none;
stroke: #000000;
stroke-width: 0.988;
stroke-linecap: round;
stroke-linejoin: round;
}
.g7_3{
fill: none;
stroke: #000000;
stroke-width: 0.988;
stroke-linecap: round;
stroke-linejoin: round;
stroke-dasharray: 3,3;
}
]]></style>
</defs>
<path d="M97.4,131.6H812.2v-2.3H97.4v2.3Z" class="g0_3"/>
<path d="M97.4,1183.9H812.2v-2.3H97.4v2.3Z" class="g0_3"/>
<path d="M168.7,1221H312.6v-1.5H168.7v1.5Z" class="g1_3"/>
<path d="M99.6,1219.7H173v-37.8H99.6v37.8Z" class="g2_3"/>
<path d="M173,1181.8H99.6v37.9H173v-37.9Z" class="g3_3"/>
<path fill-rule="evenodd" d="M129.2,1192.4c-1.3,.2,-2.2,.5,-2.8,.9c-.5,.6,-1.2,1.7,-1.8,3.3c-1,2.8,-2,5.6,-3.1,8.5c-.8,2.2,-1.8,4,-2.8,5.2c-1.9,2.3,-4.6,3.4,-7.9,3.4c-3.2,0,-4.8,-1.2,-5.1,-3.4c-.1,-1.1,.2,-2.7,1,-4.9c1.2,-3.3,2.6,-6.7,3.8,-10c.4,-1.2,.5,-2,.1,-2.4c-.1,-.3,-1,-.5,-2.3,-.6c.1,-.2,.2,-.4,.3,-.6c2.8,0,5.6,0,8.4,0c-.1,.2,-.2,.4,-.2,.6c-1.4,.1,-2.3,.3,-2.8,.6c-.6,.5,-1.2,1.2,-1.5,2.4c-1.3,3.4,-2.7,6.9,-3.9,10.3c-1.6,4.7,-.5,7,3.4,7c2.2,0,4.2,-1,6,-2.9c.8,-.8,1.5,-2.3,2.4,-4.5c1,-2.9,2.1,-5.7,3.2,-8.7c.5,-1.7,.8,-2.8,.7,-3.4c-.2,-.4,-.8,-.7,-1.8,-.8c.1,-.2,.1,-.4,.1,-.6c2.3,0,4.5,0,6.7,0c-.1,.2,-.1,.4,-.1,.6Z" class="g4_3"/>
<path fill-rule="evenodd" d="M145.8,1197.1c-.2,0,-.5,0,-.7,0c.3,-1.9,.2,-3,-.3,-3.5c-.4,-.6,-1.5,-.7,-3.3,-.7c-.6,0,-1.2,0,-1.8,0c-1.1,3.1,-2.3,6.1,-3.4,9.2c-.9,2.5,-1.8,4.9,-2.7,7.4c-.4,1.1,-.5,1.9,-.2,2.4c.3,.4,1.1,.7,2.4,.8c-.1,.1,-.2,.3,-.2,.6c-3,0,-5.8,0,-8.6,0c.1,-.3,.1,-.5,.1,-.6c1.4,-.1,2.4,-.4,3.1,-1c.5,-.4,1.1,-1.3,1.5,-2.6c1.5,-4.2,3.1,-8.4,4.6,-12.5c.5,-1.3,.9,-2.5,1.4,-3.7c-.5,0,-.9,0,-1.4,0c-.2,0,-.4,0,-.5,0c-1.8,0,-3.1,.2,-3.9,.7c-.8,.5,-1.7,1.6,-2.7,3.5c-.3,0,-.5,0,-.8,0c.8,-1.8,1.4,-3.5,2.1,-5.2c2,0,3.8,0,5.8,0c3.8,0,7.4,0,11.2,0c-.6,1.7,-1.2,3.4,-1.7,5.2Z" class="g4_3"/>
<path fill-rule="evenodd" d="M160.9,1209.6c-.8,.8,-1.8,1.5,-3.1,2.2c-2.1,1.3,-4.3,1.9,-6.5,1.9c-2.8,0,-4.8,-.9,-6,-2.6c-1.4,-2,-1.5,-4.9,-.1,-8.6c1.3,-3.4,3.4,-6.2,6.2,-8.3c2.7,-1.9,5.4,-2.8,8.2,-2.8c1.1,0,2.2,.1,3.3,.5c1.1,.3,1.6,.5,1.6,.5c.6,0,1.1,-.2,1.7,-1c.3,0,.5,0,.6,0c-.7,2.3,-1.5,4.7,-2.3,7c-.2,0,-.4,.1,-.6,.1c.5,-4.2,-1,-6.2,-4.4,-6.2c-1,0,-2,.2,-3.2,.5c-1.3,.4,-2.4,.9,-3.2,1.5c-2.4,1.9,-4.3,4.6,-5.7,8.3c-1.2,3.2,-1.1,5.8,.1,7.6c1,1.5,2.7,2.3,5,2.3c2.6,0,5.4,-1.1,8.2,-3.4c.1,.2,.1,.4,.2,.5Z" class="g4_3"/>
<path d="M129.2,1192.4c-1.3,.2,-2.2,.5,-2.8,.9c-.5,.6,-1.2,1.7,-1.8,3.3c-1,2.8,-2,5.6,-3.1,8.5c-.8,2.2,-1.8,4,-2.8,5.2c-1.9,2.3,-4.6,3.4,-7.9,3.4c-3.2,0,-4.8,-1.2,-5.1,-3.4c-.1,-1.1,.2,-2.7,1,-4.9c1.2,-3.3,2.6,-6.7,3.8,-10c.4,-1.2,.5,-2,.1,-2.4c-.1,-.3,-1,-.5,-2.3,-.6c.1,-.2,.2,-.4,.3,-.6c2.8,0,5.6,0,8.4,0c-.1,.2,-.2,.4,-.2,.6c-1.4,.1,-2.3,.3,-2.8,.6c-.6,.5,-1.2,1.2,-1.5,2.4c-1.3,3.4,-2.7,6.9,-3.9,10.3c-1.6,4.7,-.5,7,3.4,7c2.2,0,4.2,-1,6,-2.9c.8,-.8,1.5,-2.3,2.4,-4.5c1,-2.9,2.1,-5.7,3.2,-8.7c.5,-1.7,.8,-2.8,.7,-3.4c-.2,-.4,-.8,-.7,-1.8,-.8c.1,-.2,.1,-.4,.1,-.6c2.3,0,4.5,0,6.7,0c-.1,.2,-.1,.4,-.1,.6Zm16.6,4.7c-.2,0,-.5,0,-.7,0c.3,-1.9,.2,-3,-.3,-3.5c-.4,-.6,-1.5,-.7,-3.3,-.7c-.6,0,-1.2,0,-1.8,0c-1.1,3.1,-2.3,6.1,-3.4,9.2c-.9,2.5,-1.8,4.9,-2.7,7.4c-.4,1.1,-.5,1.9,-.2,2.4c.3,.4,1.1,.7,2.4,.8c-.1,.1,-.2,.3,-.2,.6c-3,0,-5.8,0,-8.6,0c.1,-.3,.1,-.5,.1,-.6c1.4,-.1,2.4,-.4,3.1,-1c.5,-.4,1.1,-1.3,1.5,-2.6c1.5,-4.2,3.1,-8.4,4.6,-12.5c.5,-1.3,.9,-2.5,1.4,-3.7c-.5,0,-.9,0,-1.4,0c-.2,0,-.4,0,-.5,0c-1.8,0,-3.1,.2,-3.9,.7c-.8,.5,-1.7,1.6,-2.7,3.5c-.3,0,-.5,0,-.8,0c.8,-1.8,1.4,-3.5,2.1,-5.2c2,0,3.8,0,5.8,0c3.8,0,7.4,0,11.2,0c-.6,1.7,-1.2,3.4,-1.7,5.2Zm15.1,12.5c-.8,.8,-1.8,1.5,-3.1,2.2c-2.1,1.3,-4.3,1.9,-6.5,1.9c-2.8,0,-4.8,-.9,-6,-2.6c-1.4,-2,-1.5,-4.9,-.1,-8.6c1.3,-3.4,3.4,-6.2,6.2,-8.3c2.7,-1.9,5.4,-2.8,8.2,-2.8c1.1,0,2.2,.1,3.3,.5c1.1,.3,1.6,.5,1.6,.5c.6,0,1.1,-.2,1.7,-1c.3,0,.5,0,.6,0c-.7,2.3,-1.5,4.7,-2.3,7c-.2,0,-.4,.1,-.6,.1c.5,-4.2,-1,-6.2,-4.4,-6.2c-1,0,-2,.2,-3.2,.5c-1.3,.4,-2.4,.9,-3.2,1.5c-2.4,1.9,-4.3,4.6,-5.7,8.3c-1.2,3.2,-1.1,5.8,.1,7.6c1,1.5,2.7,2.3,5,2.3c2.6,0,5.4,-1.1,8.2,-3.4c.1,.2,.1,.4,.2,.5Z" class="g5_3"/>
<path d="M99.6,1227.7H173v-10H99.6v10Z" class="g4_3"/>
<path d="M173,1217.7H99.6v9.9H173v-9.9Z" class="g3_3"/>
<path d="M99.6,1186.4H173v-4.5H99.6v4.5Z" class="g4_3"/>
<path d="M173,1186.4H99.6v-4.6H173v4.6Z" class="g3_3"/>
<path d="M270.1,260.8H745.3m0,0c0,1.8,1.6,3.3,3.4,3.3c1.9,0,3.3,-1.5,3.3,-3.3c0,-1.8,-1.4,-3.3,-3.3,-3.3c-1.8,0,-3.4,1.5,-3.4,3.3Zm-475.5,-.2v15m13.8,-.2v23.2M269.2,275.2l7.7,4.5" class="g6_3"/>
<path fill-rule="evenodd" d="M278.1,275.3l5.5,8.3l-9.9,-.6l4.4,-7.7Z" class="g0_3"/>
<path d="M283.4,293.7l-13.3,7.1m.3,12.4V300.9" class="g6_3"/>
<path fill-rule="evenodd" d="M270.4,309.8c1.8,0,3.3,1.6,3.3,3.4c0,1.9,-1.5,3.3,-3.3,3.3c-1.9,0,-3.4,-1.4,-3.4,-3.3c0,-1.8,1.5,-3.4,3.4,-3.4Z" class="g0_3"/>
<path d="M284,287.6H597.4M375,260.6v15" class="g6_3"/>
<path fill-rule="evenodd" d="M375,263.9c1.8,0,3.3,-1.5,3.3,-3.3c0,-1.8,-1.5,-3.4,-3.3,-3.4c-1.8,0,-3.3,1.6,-3.3,3.4c0,1.8,1.5,3.3,3.3,3.3Z" class="g0_3"/>
<path d="M388.9,275.4v23.2M375,275.6l7.1,4.1" class="g6_3"/>
<path fill-rule="evenodd" d="M383.4,275.3l5.5,8.3l-10,-.6l4.5,-7.7Z" class="g0_3"/>
<path d="M388.7,293.7l-15.3,8m65.3,-41.1v15" class="g6_3"/>
<path fill-rule="evenodd" d="M438.7,263.9c1.9,0,3.3,-1.5,3.3,-3.3c0,-1.8,-1.4,-3.4,-3.3,-3.4c-1.8,0,-3.4,1.6,-3.4,3.4c0,1.8,1.6,3.3,3.4,3.3Z" class="g0_3"/>
<path d="M452.5,275.4v23.2M438.1,275.2l7.7,4.5" class="g6_3"/>
<path fill-rule="evenodd" d="M447.1,275.3l5.4,8.3l-9.9,-.6l4.5,-7.7Z" class="g0_3"/>
<path d="M452.3,293.7l-13.2,7.1M565.3,260.6v15" class="g6_3"/>
<path fill-rule="evenodd" d="M565.3,263.9c-1.8,0,-3.3,-1.5,-3.3,-3.3c0,-1.8,1.5,-3.4,3.3,-3.4c1.9,0,3.4,1.6,3.4,3.4c0,1.8,-1.5,3.3,-3.4,3.3Z" class="g0_3"/>
<path d="M551.6,275.4v23.2m13.7,-23l-7.1,4.1" class="g6_3"/>
<path fill-rule="evenodd" d="M557,275.3l-5.4,8.3l9.9,-.6L557,275.3Z" class="g0_3"/>
<path d="M551.7,293.7l12,6.7m47.8,-39.8v15" class="g6_3"/>
<path fill-rule="evenodd" d="M611.5,263.9c-1.8,0,-3.3,-1.5,-3.3,-3.3c0,-1.8,1.5,-3.4,3.3,-3.4c1.9,0,3.4,1.6,3.4,3.4c0,1.8,-1.5,3.3,-3.4,3.3Z" class="g0_3"/>
<path d="M597.8,275.4v23.2m14.4,-23.4l-7.7,4.5" class="g6_3"/>
<path fill-rule="evenodd" d="M603.2,275.3l-5.4,8.3l9.9,-.6l-4.5,-7.7Z" class="g0_3"/>
<path d="M597.9,293.7l13.2,7.1M584.8,287.3l.8,41.6" class="g6_3"/>
<path fill-rule="evenodd" d="M584.8,290.7c1.9,-.1,3.3,-1.6,3.3,-3.5c0,-1.8,-1.5,-3.3,-3.4,-3.2c-1.8,0,-3.3,1.5,-3.3,3.4c.1,1.8,1.6,3.3,3.4,3.3Z" class="g0_3"/>
<path d="M598.6,330.3v23.2m-13,-24.6l6.3,3.7" class="g6_3"/>
<path fill-rule="evenodd" d="M593.2,328.2l5.4,8.3l-9.9,-.6l4.5,-7.7Z" class="g0_3"/>
<path d="M598.4,349.7l-12.7,7.1M244.2,393.4V370.2m0,15.1l6.4,4.8" class="g6_3"/>
<path fill-rule="evenodd" d="M252.5,386l4.3,8.9L247,393.1l5.5,-7.1Z" class="g0_3"/>
<path d="M244.4,375.1l13.3,-7M243.3,476.9V453.8m0,14.9l-7.6,4.5" class="g6_3"/>
<path fill-rule="evenodd" d="M234.4,468.8l-5.5,8.3l10,-.6l-4.5,-7.7Z" class="g0_3"/>
<path d="M243.1,458.6l-11.6,-5.7m65.1,24V453.8m0,14.9l7.7,4.5" class="g6_3"/>
<path fill-rule="evenodd" d="M305.6,468.8l5.4,8.3l-9.9,-.6l4.5,-7.7Z" class="g0_3"/>
<path d="M296.8,458.6l13.3,-7m24.2,64.3V492.7m0,15l7.6,4.4" class="g6_3"/>
<path fill-rule="evenodd" d="M343.2,507.7l5.5,8.4l-9.9,-.7l4.4,-7.7Z" class="g0_3"/>
<path d="M334.5,497.6l13.2,-7m13.1,.1V467.5m0,15l7.6,4.4" class="g6_3"/>
<path fill-rule="evenodd" d="M369.7,482.5l5.5,8.4l-10,-.7l4.5,-7.7Z" class="g0_3"/>
<path d="M361,472.4l12.3,-6.6M335,417.2V394m0,14.9l7.7,4.5" class="g6_3"/>
<path fill-rule="evenodd" d="M344,409l5.4,8.4l-9.9,-.7L344,409Z" class="g0_3"/>
<path d="M335.2,398.8l13.3,-7m77.4,22.3V390.9m39.5,-16.3L473,379" class="g6_3"/>
<path fill-rule="evenodd" d="M474.3,374.5l5.5,8.4l-10,-.6l4.5,-7.8Z" class="g0_3"/>
<path d="M426.1,395.7l13.3,-7M412.3,330.6H389.1m15,0l4.5,7.7" class="g6_3"/>
<path fill-rule="evenodd" d="M404.2,339.6l8.3,5.5l-.6,-10l-7.7,4.5Z" class="g0_3"/>
<path d="M394,330.8l-7,13.3m78.1,34.8V355.8m.2,4.8l13.2,-7m-51.8,54.1l7.6,4.5" class="g6_3"/>
<path fill-rule="evenodd" d="M435.6,407.8l5.5,8.3l-9.9,-.6l4.4,-7.7Z" class="g0_3"/>
<path d="M422,442.2v23.2m.3,-5l16.6,10.1m1,-30.3l-10.7,5" class="g6_3"/>
<path fill-rule="evenodd" d="M428.3,440.6l-6.3,7.8l10,.4l-3.7,-8.2Z" class="g0_3"/>
<path d="M460.6,442.2v23.2m.2,-5L478,470.7M479.4,438l-11.6,6.8" class="g6_3"/>
<path fill-rule="evenodd" d="M466.5,440.4l-5.4,8.2l9.9,-.5l-4.5,-7.7Z" class="g0_3"/>
<path d="M515.6,441.4H492.4m4.9,.2l-7.1,13.3m27.4,1.7l-4.4,-7.7" class="g6_3"/>
<path fill-rule="evenodd" d="M517.6,447.6l-8.3,-5.4l.6,9.9l7.7,-4.5Z" class="g0_3"/>
<path d="M550.7,515.5V492.3m.2,5l13.3,-7.1m-12.6,19.1l7.6,4.4" class="g6_3"/>
<path fill-rule="evenodd" d="M560.4,509.3l5.6,8.3L556,517l4.4,-7.7Z" class="g0_3"/>
<path d="M660.5,515.5V492.3m.2,5l13.2,-7.1m-12.6,19.1l7.7,4.4" class="g6_3"/>
<path fill-rule="evenodd" d="M670.3,509.3l5.4,8.3l-9.9,-.6l4.5,-7.7Z" class="g0_3"/>
<path d="M624.6,515.5V492.3m-.2,5l-13.3,-7.1m12.7,19.1l-7.6,4.4" class="g6_3"/>
<path fill-rule="evenodd" d="M614.9,509.3l-5.5,8.3l9.9,-.6l-4.4,-7.7Z" class="g0_3"/>
<path d="M686.8,515.5V492.3m.1,5l13.3,-7.1m-12.7,19.1l7.7,4.4" class="g6_3"/>
<path fill-rule="evenodd" d="M696.5,509.3l5.4,8.3L692,517l4.5,-7.7Z" class="g0_3"/>
<path d="M270,513.2V490.1m0,15l-7.6,4.4" class="g6_3"/>
<path fill-rule="evenodd" d="M261.1,505.1l-5.4,8.3l9.9,-.6l-4.5,-7.7Z" class="g0_3"/>
<path d="M269.9,497.8l-13.2,-7m37.7,59.7V527.3m0,15l-7.7,4.4" class="g6_3"/>
<path fill-rule="evenodd" d="M285.5,542.3l-5.5,8.3l9.9,-.6l-4.4,-7.7Z" class="g0_3"/>
<path d="M294.3,532.1l-13.2,-6.9M231.6,313h77.9m-77.9,0v11.7m0,11.5l-.1,116.7M218,319v24.8m13.4,-19.3H218m13.4,11.9H218m13.4,45h12.4" class="g6_3"/>
<path fill-rule="evenodd" d="M234.8,381.4c0,-1.8,-1.6,-3.3,-3.4,-3.3c-1.9,0,-3.3,1.5,-3.3,3.3c0,1.9,1.4,3.3,3.3,3.3c1.8,0,3.4,-1.4,3.4,-3.3Z" class="g0_3"/>
<path d="M175.8,355.8h159m-159,0c0,-1.9,-1.4,-3.3,-3.3,-3.3c-1.8,0,-3.3,1.4,-3.3,3.3c0,1.8,1.5,3.3,3.3,3.3c1.9,0,3.3,-1.5,3.3,-3.3ZM323.5,331.6H329" class="g6_3"/>
<path fill-rule="evenodd" d="M327.9,336.1l8.9,-4.4l-8.9,-4.5v8.9Z" class="g0_3"/>
<path d="M309.5,313v11.7m.2,11.7l.4,115.2M323.1,319v24.8M309.7,324.5h13.4m-13.4,11.9h13.4m12.4,-4.6v23.9M217.6,330.8H209" class="g6_3"/>
<path fill-rule="evenodd" d="M210.1,335.2l-8.9,-4.4l8.9,-4.5v8.9Z" class="g0_3"/>
<path d="M257.4,368H438.6" class="g6_3"/>
<path fill-rule="evenodd" d="M435.3,368c0,1.8,1.5,3.3,3.3,3.3c1.9,0,3.4,-1.5,3.4,-3.3c0,-1.9,-1.5,-3.3,-3.4,-3.3c-1.8,0,-3.3,1.4,-3.3,3.3Z" class="g0_3"/>
<path d="M373,344.1h13.8" class="g6_3"/>
<path fill-rule="evenodd" d="M376.3,344.1c0,-1.8,-1.5,-3.3,-3.3,-3.3c-1.8,0,-3.4,1.5,-3.4,3.3c0,1.9,1.6,3.4,3.4,3.4c1.8,0,3.3,-1.5,3.3,-3.4Z" class="g0_3"/>
<path d="M373,318.6h27" class="g6_3"/>
<path fill-rule="evenodd" d="M376.3,318.6c0,-1.8,-1.5,-3.3,-3.3,-3.3c-1.8,0,-3.4,1.5,-3.4,3.3c0,1.9,1.6,3.3,3.4,3.3c1.8,0,3.3,-1.4,3.3,-3.3Z" class="g0_3"/>
<path d="M400.2,330.3V318.5M412.5,403V368" class="g6_3"/>
<path fill-rule="evenodd" d="M412.5,371.3c-1.8,0,-3.3,-1.5,-3.3,-3.3c0,-1.9,1.5,-3.4,3.3,-3.4c1.8,0,3.3,1.5,3.3,3.4c0,1.8,-1.5,3.3,-3.3,3.3Z" class="g0_3"/>
<path d="M412.5,403h12.7m14.2,-14.3l-.2,-87.8m39.1,-40.3l.2,93.1" class="g6_3"/>
<path fill-rule="evenodd" d="M478.3,263.9c1.9,0,3.4,-1.5,3.4,-3.3c0,-1.8,-1.5,-3.4,-3.4,-3.4c-1.8,0,-3.3,1.6,-3.3,3.4c0,1.8,1.5,3.3,3.3,3.3Z" class="g0_3"/>
<path d="M479.4,438l.4,-55.1m-.8,28.3h34.5" class="g6_3"/>
<path fill-rule="evenodd" d="M482.4,411.2c0,-1.8,-1.6,-3.3,-3.4,-3.3c-1.9,0,-3.3,1.5,-3.3,3.3c0,1.8,1.4,3.4,3.3,3.4c1.8,0,3.4,-1.6,3.4,-3.4Z" class="g0_3"/>
<path d="M513.5,411.2l1.7,-3.8l3.3,7.8l3.2,-7.8l3.2,7.8l3.3,-7.8l3.2,7.8l1.6,-4m9.9,0H533" class="g6_3"/>
<path fill-rule="evenodd" d="M539.6,411.2c0,-1.8,1.5,-3.3,3.3,-3.3c1.9,0,3.4,1.5,3.4,3.3c0,1.8,-1.5,3.4,-3.4,3.4c-1.8,0,-3.3,-1.6,-3.3,-3.4Z" class="g0_3"/>
<path d="M503.9,411.2v-58" class="g6_3"/>
<path fill-rule="evenodd" d="M503.9,407.9c-1.8,0,-3.3,1.5,-3.3,3.3c0,1.8,1.5,3.4,3.3,3.4c1.8,0,3.4,-1.6,3.4,-3.4c0,-1.8,-1.6,-3.3,-3.4,-3.3Z" class="g0_3"/>
<path d="M503.9,441.4V411.2M543,456.9H517.8M543.2,231.6V456.5m0,-224.9c1.9,0,3.3,-1.4,3.3,-3.3c0,-1.9,-1.4,-3.3,-3.3,-3.3c-1.8,0,-3.3,1.4,-3.3,3.3c0,1.9,1.5,3.3,3.3,3.3ZM439.9,440.2V415.4m-.7,15H402.4" class="g6_3"/>
<path fill-rule="evenodd" d="M435.9,430.4c0,-1.9,1.4,-3.4,3.3,-3.4c1.8,0,3.3,1.5,3.3,3.4c0,1.8,-1.5,3.3,-3.3,3.3c-1.9,0,-3.3,-1.5,-3.3,-3.3Z" class="g0_3"/>
<path d="M398.7,437.3V422.9m8.5,13.5c-3.5,0,-5.1,-2.9,-5.3,-5.6c-.6,-4,1.8,-7.2,4.5,-7.9m-8.3,7.7H310" class="g6_3"/>
<path fill-rule="evenodd" d="M313.4,430.6c0,1.8,-1.6,3.3,-3.4,3.3c-1.8,0,-3.3,-1.5,-3.3,-3.3c0,-2,1.5,-3.4,3.3,-3.4c1.8,0,3.4,1.4,3.4,3.4Z" class="g0_3"/>
<path d="M309.5,405.2h24.7" class="g6_3"/>
<path fill-rule="evenodd" d="M312.8,405.2c0,-1.9,-1.5,-3.3,-3.3,-3.3c-1.9,0,-3.3,1.4,-3.3,3.3c0,1.8,1.4,3.4,3.3,3.4c1.8,0,3.3,-1.6,3.3,-3.4Z" class="g0_3"/>
<path d="M348.4,367.4v24.5" class="g6_3"/>
<path fill-rule="evenodd" d="M348.4,370.8c-1.8,0,-3.4,-1.5,-3.4,-3.4c0,-1.8,1.6,-3.3,3.4,-3.3c1.9,0,3.3,1.5,3.3,3.3c0,1.9,-1.4,3.4,-3.3,3.4Z" class="g0_3"/>
<path d="M348.4,478.9V416.5" class="g6_3"/>
<path fill-rule="evenodd" d="M348.4,475.6c-1.8,0,-3.4,1.4,-3.4,3.3c0,1.8,1.6,3.4,3.4,3.4c1.9,0,3.3,-1.6,3.3,-3.4c0,-1.9,-1.4,-3.3,-3.3,-3.3Z" class="g0_3"/>
<path d="M349.3,478.8h11.6m-12.5,-.3v11.6m26.5,104.5V491.1" class="g6_3"/>
<path fill-rule="evenodd" d="M374.9,591.3c-1.8,0,-3.3,1.4,-3.3,3.3c0,1.8,1.5,3.3,3.3,3.3c1.8,0,3.3,-1.5,3.3,-3.3c0,-1.9,-1.5,-3.3,-3.3,-3.3Z" class="g0_3"/>
<path d="M348.6,594.6V516.4" class="g6_3"/>
<path fill-rule="evenodd" d="M348.6,591.3c-1.9,0,-3.4,1.4,-3.4,3.3c0,1.8,1.5,3.3,3.4,3.3c1.8,0,3.3,-1.5,3.3,-3.3c0,-1.9,-1.5,-3.3,-3.3,-3.3Z" class="g0_3"/>
<path d="M438.9,594.6V470.5" class="g6_3"/>
<path fill-rule="evenodd" d="M438.9,591.3c-1.8,0,-3.4,1.4,-3.4,3.3c0,1.8,1.6,3.3,3.4,3.3c1.8,0,3.3,-1.5,3.3,-3.3c0,-1.9,-1.5,-3.3,-3.3,-3.3Z" class="g0_3"/>
<path d="M478,594.6V470.7" class="g6_3"/>
<path fill-rule="evenodd" d="M478,591.3c-1.8,0,-3.3,1.4,-3.3,3.3c0,1.8,1.5,3.3,3.3,3.3c1.9,0,3.4,-1.5,3.4,-3.3c0,-1.9,-1.5,-3.3,-3.4,-3.3Z" class="g0_3"/>
<path d="M490.2,455.3l.1,83.4m-181.2,0H490.3" class="g6_3"/>
<path fill-rule="evenodd" d="M312.5,538.7c0,-1.8,-1.6,-3.4,-3.4,-3.4c-1.8,0,-3.3,1.6,-3.3,3.4c0,1.9,1.5,3.3,3.3,3.3c1.8,0,3.4,-1.4,3.4,-3.3Z" class="g0_3"/>
<path d="M271,502.8H550m-13.2,-.1V479.5" class="g6_3"/>
<path fill-rule="evenodd" d="M536.8,499.4c-1.8,0,-3.4,1.5,-3.4,3.3c0,1.9,1.6,3.4,3.4,3.4c1.8,0,3.3,-1.5,3.3,-3.4c0,-1.8,-1.5,-3.3,-3.3,-3.3Z" class="g0_3"/>
<path d="M563.8,479.4H537.1" class="g6_3"/>
<path fill-rule="evenodd" d="M560.4,479.4c0,1.9,1.6,3.4,3.4,3.4c1.9,0,3.3,-1.5,3.3,-3.4c0,-1.8,-1.4,-3.3,-3.3,-3.3c-1.8,0,-3.4,1.5,-3.4,3.3Z" class="g0_3"/>
<path d="M564,490.2V300m21.7,295V356.8" class="g6_3"/>
<path fill-rule="evenodd" d="M585.7,591.7c-1.8,0,-3.3,1.5,-3.3,3.3c0,1.8,1.5,3.4,3.3,3.4c1.9,0,3.4,-1.6,3.4,-3.4c0,-1.8,-1.5,-3.3,-3.4,-3.3Z" class="g0_3"/>
<path d="M564.8,594.6V516.9" class="g6_3"/>
<path fill-rule="evenodd" d="M564.8,591.3c-1.9,0,-3.3,1.4,-3.3,3.3c0,1.8,1.4,3.3,3.3,3.3c1.8,0,3.3,-1.5,3.3,-3.3c0,-1.9,-1.5,-3.3,-3.3,-3.3Z" class="g0_3"/>
<path d="M610.2,594.6V516.9" class="g6_3"/>
<path fill-rule="evenodd" d="M610.2,591.3c-1.9,0,-3.4,1.4,-3.4,3.3c0,1.8,1.5,3.3,3.4,3.3c1.9,0,3.3,-1.5,3.3,-3.3c0,-1.9,-1.4,-3.3,-3.3,-3.3Z" class="g0_3"/>
<path d="M611.5,490.5V300.7m0,41.4h-13" class="g6_3"/>
<path fill-rule="evenodd" d="M608.1,342.1c0,1.8,1.6,3.3,3.4,3.3c1.8,0,3.3,-1.5,3.3,-3.3c0,-1.9,-1.5,-3.4,-3.3,-3.4c-1.8,0,-3.4,1.5,-3.4,3.4Z" class="g0_3"/>
<path d="M675.4,594.6V516.9" class="g6_3"/>
<path fill-rule="evenodd" d="M675.4,591.3c-1.8,0,-3.3,1.4,-3.3,3.3c0,1.8,1.5,3.3,3.3,3.3c1.8,0,3.4,-1.5,3.4,-3.3c0,-1.9,-1.6,-3.3,-3.4,-3.3Z" class="g0_3"/>
<path d="M701.8,594.6V516.9" class="g6_3"/>
<path fill-rule="evenodd" d="M701.8,591.3c-1.8,0,-3.4,1.4,-3.4,3.3c0,1.8,1.6,3.3,3.4,3.3c1.8,0,3.3,-1.5,3.3,-3.3c0,-1.9,-1.5,-3.3,-3.3,-3.3Z" class="g0_3"/>
<path d="M229.7,595H745.3m0,0c0,1.8,1.6,3.4,3.4,3.4c1.9,0,3.3,-1.6,3.3,-3.4c0,-1.8,-1.4,-3.3,-3.3,-3.3c-1.8,0,-3.4,1.5,-3.4,3.3Zm-435.7,-.4V575.8" class="g6_3"/>
<path fill-rule="evenodd" d="M309.6,591.3c-1.8,0,-3.3,1.4,-3.3,3.3c0,1.8,1.5,3.3,3.3,3.3c1.9,0,3.3,-1.5,3.3,-3.3c0,-1.9,-1.4,-3.3,-3.3,-3.3Z" class="g0_3"/>
<path d="M280.9,594.6V550.2" class="g6_3"/>
<path fill-rule="evenodd" d="M280.9,591.3c-2,0,-3.4,1.4,-3.4,3.3c0,1.8,1.4,3.3,3.4,3.3c1.8,0,3.3,-1.5,3.3,-3.3c0,-1.9,-1.5,-3.3,-3.3,-3.3Z" class="g0_3"/>
<path d="M256.9,594.6V512.7" class="g6_3"/>
<path fill-rule="evenodd" d="M256.9,591.3c-1.8,0,-3.3,1.4,-3.3,3.3c0,1.8,1.5,3.3,3.3,3.3c1.9,0,3.3,-1.5,3.3,-3.3c0,-1.9,-1.4,-3.3,-3.3,-3.3Z" class="g0_3"/>
<path d="M256.7,464.4v26.4" class="g6_3"/>
<path fill-rule="evenodd" d="M256.7,467.7c1.8,.1,3.4,-1.5,3.4,-3.3c0,-1.8,-1.6,-3.3,-3.4,-3.3c-1.9,0,-3.3,1.5,-3.3,3.3c0,1.8,1.4,3.3,3.3,3.3Z" class="g0_3"/>
<path d="M281,502.8v22.4" class="g6_3"/>
<path fill-rule="evenodd" d="M281,506.2c1.8,0,3.3,-1.5,3.3,-3.4c0,-1.8,-1.5,-3.3,-3.3,-3.3c-1.9,0,-3.3,1.5,-3.3,3.4c0,1.8,1.4,3.3,3.3,3.3Z" class="g0_3"/>
<path d="M243.6,464.7h52.9M256.8,394.9l-.1,69.5m-27.3,76.3V476.9m0,63.8l3.9,1.6l-7.8,3.3l7.8,3.2l-7.8,3.3l7.8,3.2l-7.8,3.3l3.9,1.6v34.6m65.3,-56.1h14.6m.3,17.6l3.9,1.7l-7.8,3.2l7.8,3.2l-7.8,3.3l7.8,3.2l-7.8,3.3l3.9,1.6m0,-19.5l-.1,-80.1M373.3,301.5V465.9m-.6,-11.1l87.9,-.1" class="g6_3"/>
<path fill-rule="evenodd" d="M376,454.8c0,-1.9,-1.5,-3.3,-3.3,-3.3c-1.8,0,-3.4,1.4,-3.4,3.3c0,1.8,1.6,3.3,3.4,3.3c1.8,0,3.3,-1.5,3.3,-3.3Z" class="g0_3"/>
<path d="M625,504.4h61.6m-13.3,-25H646.5" class="g6_3"/>
<path fill-rule="evenodd" d="M670,479.4c0,1.9,1.5,3.3,3.3,3.3c1.8,0,3.4,-1.4,3.4,-3.3c0,-1.8,-1.6,-3.3,-3.4,-3.3c-1.8,0,-3.3,1.5,-3.3,3.3Z" class="g0_3"/>
<path d="M646.4,504.4v-25" class="g6_3"/>
<path fill-rule="evenodd" d="M646.4,501.1c-1.8,0,-3.4,1.4,-3.4,3.3c0,1.9,1.6,3.3,3.4,3.3c1.9,0,3.3,-1.4,3.3,-3.3c0,-1.9,-1.4,-3.3,-3.3,-3.3Z" class="g0_3"/>
<path d="M673.3,489.9V394m26.9,95.9V371m-39.9,5.2v24.5m12.8,-6.6H660.3m12.4,-12.9H660.6m12.3,0V359m-13,29.2h-4.5" class="g6_3"/>
<path fill-rule="evenodd" d="M656.5,392.7l-8.9,-4.5l8.9,-4.4v8.9Z" class="g0_3"/>
<path d="M672.4,370.7h27.5" class="g6_3"/>
<path fill-rule="evenodd" d="M675.7,370.7c0,-1.8,-1.5,-3.3,-3.3,-3.3c-1.9,0,-3.4,1.5,-3.4,3.3c0,1.8,1.5,3.4,3.4,3.4c1.8,0,3.3,-1.6,3.3,-3.4Z" class="g0_3"/>
<path d="M648.2,387.8V327.4m0,-.1h24.9" class="g6_3"/>
<path fill-rule="evenodd" d="M669.8,327.3c0,1.8,1.5,3.2,3.3,3.2c1.8,0,3.4,-1.4,3.4,-3.2c0,-1.9,-1.6,-3.3,-3.4,-3.3c-1.8,0,-3.3,1.4,-3.3,3.3Z" class="g0_3"/>
<path d="M672.9,339.5l4,1.7l-7.8,3.2l7.8,3.2l-7.8,3.3l7.8,3.2l-7.8,3.3l3.8,1.6m0,-19.5V261" class="g6_3"/>
<path fill-rule="evenodd" d="M672.9,264.3c1.9,0,3.3,-1.5,3.3,-3.3c0,-1.9,-1.4,-3.4,-3.3,-3.4c-1.8,0,-3.3,1.5,-3.3,3.4c0,1.8,1.5,3.3,3.3,3.3Z" class="g0_3"/>
<path d="M156.7,330.3h2.6m-2.2,25.6H160m-1.4,-1.7v3.3" class="g6_3"/>
<image preserveAspectRatio="none" x="121" y="338" width="32" height="34" xlink:href="img/1.png"/>
<image preserveAspectRatio="none" x="236" y="325" width="5" height="55" xlink:href="img/2.png"/>
<image preserveAspectRatio="none" x="243" y="325" width="4" height="55" xlink:href="img/3.png"/>
<image preserveAspectRatio="none" x="261" y="285" width="9" height="59" xlink:href="img/4.png"/>
<image preserveAspectRatio="none" x="271" y="285" width="5" height="56" xlink:href="img/5.png"/>
<image preserveAspectRatio="none" x="295" y="325" width="5" height="55" xlink:href="img/6.png"/>
<image preserveAspectRatio="none" x="301" y="325" width="6" height="55" xlink:href="img/7.png"/>
<image preserveAspectRatio="none" x="255" y="378" width="9" height="59" xlink:href="img/8.png"/>
<image preserveAspectRatio="none" x="266" y="378" width="12" height="54" xlink:href="img/9.png"/>
<image preserveAspectRatio="none" x="342" y="399" width="9" height="59" xlink:href="img/10.png"/>
<image preserveAspectRatio="none" x="353" y="399" width="12" height="56" xlink:href="img/11.png"/>
<image preserveAspectRatio="none" x="388" y="343" width="9" height="59" xlink:href="img/12.png"/>
<image preserveAspectRatio="none" x="399" y="343" width="12" height="55" xlink:href="img/13.png"/>
<image preserveAspectRatio="none" x="385" y="409" width="12" height="55" xlink:href="img/14.png"/>
<image preserveAspectRatio="none" x="398" y="409" width="13" height="68" xlink:href="img/15.png"/>
<image preserveAspectRatio="none" x="430" y="397" width="9" height="59" xlink:href="img/16.png"/>
<image preserveAspectRatio="none" x="440" y="397" width="12" height="56" xlink:href="img/17.png"/>
<image preserveAspectRatio="none" x="432" y="457" width="9" height="59" xlink:href="img/18.png"/>
<image preserveAspectRatio="none" x="442" y="457" width="11" height="55" xlink:href="img/19.png"/>
<image preserveAspectRatio="none" x="465" y="451" width="9" height="59" xlink:href="img/20.png"/>
<image preserveAspectRatio="none" x="474" y="451" width="14" height="55" xlink:href="img/21.png"/>
<image preserveAspectRatio="none" x="491" y="459" width="9" height="58" xlink:href="img/22.png"/>
<image preserveAspectRatio="none" x="501" y="459" width="13" height="54" xlink:href="img/23.png"/>
<image preserveAspectRatio="none" x="516" y="396" width="14" height="54" xlink:href="img/24.png"/>
<image preserveAspectRatio="none" x="492" y="329" width="9" height="58" xlink:href="img/25.png"/>
<image preserveAspectRatio="none" x="502" y="329" width="13" height="55" xlink:href="img/26.png"/>
<image preserveAspectRatio="none" x="472" y="364" width="8" height="59" xlink:href="img/27.png"/>
<image preserveAspectRatio="none" x="481" y="364" width="13" height="56" xlink:href="img/28.png"/>
<image preserveAspectRatio="none" x="372" y="473" width="9" height="59" xlink:href="img/29.png"/>
<image preserveAspectRatio="none" x="382" y="473" width="13" height="55" xlink:href="img/30.png"/>
<image preserveAspectRatio="none" x="351" y="505" width="9" height="59" xlink:href="img/31.png"/>
<image preserveAspectRatio="none" x="361" y="505" width="10" height="55" xlink:href="img/32.png"/>
<image preserveAspectRatio="none" x="308" y="458" width="9" height="59" xlink:href="img/33.png"/>
<image preserveAspectRatio="none" x="319" y="458" width="12" height="56" xlink:href="img/34.png"/>
<image preserveAspectRatio="none" x="265" y="532" width="9" height="59" xlink:href="img/35.png"/>
<image preserveAspectRatio="none" x="275" y="532" width="13" height="56" xlink:href="img/36.png"/>
<image preserveAspectRatio="none" x="238" y="495" width="9" height="59" xlink:href="img/37.png"/>
<image preserveAspectRatio="none" x="249" y="495" width="12" height="55" xlink:href="img/38.png"/>
<image preserveAspectRatio="none" x="214" y="459" width="8" height="59" xlink:href="img/39.png"/>
<image preserveAspectRatio="none" x="224" y="459" width="12" height="55" xlink:href="img/40.png"/>
<image preserveAspectRatio="none" x="201" y="544" width="3" height="55" xlink:href="img/41.png"/>
<image preserveAspectRatio="none" x="207" y="552" width="2" height="8" xlink:href="img/42.png"/>
<image preserveAspectRatio="none" x="210" y="544" width="6" height="55" xlink:href="img/43.png"/>
<image preserveAspectRatio="none" x="218" y="544" width="7" height="54" xlink:href="img/44.png"/>
<image preserveAspectRatio="none" x="317" y="562" width="4" height="55" xlink:href="img/45.png"/>
<image preserveAspectRatio="none" x="323" y="570" width="2" height="8" xlink:href="img/46.png"/>
<image preserveAspectRatio="none" x="326" y="563" width="6" height="54" xlink:href="img/47.png"/>
<image preserveAspectRatio="none" x="334" y="563" width="7" height="53" xlink:href="img/48.png"/>
<image preserveAspectRatio="none" x="560" y="497" width="9" height="59" xlink:href="img/49.png"/>
<image preserveAspectRatio="none" x="570" y="497" width="5" height="56" xlink:href="img/50.png"/>
<image preserveAspectRatio="none" x="604" y="499" width="9" height="59" xlink:href="img/51.png"/>
<image preserveAspectRatio="none" x="613" y="499" width="6" height="55" xlink:href="img/52.png"/>
<image preserveAspectRatio="none" x="654" y="521" width="9" height="59" xlink:href="img/53.png"/>
<image preserveAspectRatio="none" x="664" y="521" width="6" height="53" xlink:href="img/54.png"/>
<image preserveAspectRatio="none" x="689" y="499" width="8" height="59" xlink:href="img/55.png"/>
<image preserveAspectRatio="none" x="698" y="499" width="13" height="56" xlink:href="img/56.png"/>
<image preserveAspectRatio="none" x="618" y="611" width="62" height="18" xlink:href="img/57.png"/>
<image preserveAspectRatio="none" x="680" y="611" width="10" height="18" xlink:href="img/58.png"/>
<image preserveAspectRatio="none" x="694" y="611" width="38" height="28" xlink:href="img/59.png"/>
<image preserveAspectRatio="none" x="732" y="611" width="11" height="28" xlink:href="img/60.png"/>
<image preserveAspectRatio="none" x="638" y="626" width="19" height="54" xlink:href="img/61.png"/>
<image preserveAspectRatio="none" x="657" y="626" width="7" height="54" xlink:href="img/62.png"/>
<image preserveAspectRatio="none" x="668" y="626" width="48" height="23" xlink:href="img/63.png"/>
<image preserveAspectRatio="none" x="716" y="626" width="6" height="23" xlink:href="img/64.png"/>
<image preserveAspectRatio="none" x="661" y="383" width="6" height="54" xlink:href="img/65.png"/>
<image preserveAspectRatio="none" x="668" y="383" width="6" height="55" xlink:href="img/66.png"/>
<image preserveAspectRatio="none" x="678" y="344" width="6" height="54" xlink:href="img/67.png"/>
<image preserveAspectRatio="none" x="686" y="352" width="1" height="8" xlink:href="img/68.png"/>
<image preserveAspectRatio="none" x="689" y="344" width="5" height="56" xlink:href="img/69.png"/>
<image preserveAspectRatio="none" x="696" y="344" width="7" height="54" xlink:href="img/70.png"/>
<image preserveAspectRatio="none" x="762" y="256" width="8" height="53" xlink:href="img/71.png"/>
<image preserveAspectRatio="none" x="770" y="261" width="11" height="36" xlink:href="img/72.png"/>
<image preserveAspectRatio="none" x="782" y="258" width="6" height="34" xlink:href="img/73.png"/>
<image preserveAspectRatio="none" x="418" y="275" width="9" height="59" xlink:href="img/74.png"/>
<image preserveAspectRatio="none" x="428" y="275" width="5" height="54" xlink:href="img/75.png"/>
<image preserveAspectRatio="none" x="356" y="275" width="9" height="59" xlink:href="img/76.png"/>
<image preserveAspectRatio="none" x="365" y="275" width="7" height="54" xlink:href="img/77.png"/>
<image preserveAspectRatio="none" x="560" y="290" width="9" height="59" xlink:href="img/78.png"/>
<image preserveAspectRatio="none" x="570" y="290" width="5" height="54" xlink:href="img/79.png"/>
<image preserveAspectRatio="none" x="577" y="340" width="8" height="59" xlink:href="img/80.png"/>
<image preserveAspectRatio="none" x="586" y="340" width="6" height="56" xlink:href="img/81.png"/>
<image preserveAspectRatio="none" x="604" y="284" width="9" height="59" xlink:href="img/82.png"/>
<image preserveAspectRatio="none" x="615" y="284" width="3" height="55" xlink:href="img/83.png"/>
<image preserveAspectRatio="none" x="524" y="206" width="32" height="34" xlink:href="img/84.png"/>
<image preserveAspectRatio="none" x="556" y="206" width="5" height="34" xlink:href="img/85.png"/>
<path d="M637.3,602.6h77.8V247.1H637.3V602.6Z" class="g7_3"/>
<path d="M175.8,330.8h29.3m-29.3,0c0,1.9,-1.4,3.3,-3.3,3.3c-1.8,0,-3.3,-1.4,-3.3,-3.3c0,-1.8,1.5,-3.4,3.3,-3.4c1.9,0,3.3,1.6,3.3,3.4Z" class="g6_3"/>
<image preserveAspectRatio="none" x="763" y="591" width="8" height="54" xlink:href="img/86.png"/>
<image preserveAspectRatio="none" x="772" y="596" width="11" height="36" xlink:href="img/87.png"/>
<image preserveAspectRatio="none" x="783" y="596" width="4" height="7" xlink:href="img/88.png"/>
<path d="M439.2,341.1l51.7,.4" class="g6_3"/>
<path fill-rule="evenodd" d="M442.5,341.2c0,-1.9,-1.5,-3.4,-3.3,-3.4c-1.9,0,-3.4,1.5,-3.4,3.3c0,1.8,1.4,3.4,3.3,3.4c1.8,0,3.4,-1.5,3.4,-3.3Z" class="g0_3"/>
<path d="M515,353.2H491.8m4.8,-.2l-5.7,-11.5m52.3,-3.4H517.1" class="g6_3"/>
<path fill-rule="evenodd" d="M539.9,338.1c0,-1.9,1.5,-3.4,3.3,-3.4c1.8,0,3.3,1.5,3.3,3.4c0,1.8,-1.5,3.3,-3.3,3.3c-1.8,0,-3.3,-1.5,-3.3,-3.3Z" class="g0_3"/>
<path d="M511.2,353.2l3.1,-7.9" class="g6_3"/>
<path fill-rule="evenodd" d="M518,348l-.9,-9.9l-7.3,6.7L518,348Z" class="g0_3"/>
<path d="M438,368h27.1m-52.6,0V345.1" class="g6_3"/>
</svg>