<svg xmlns="http://www.w3.org/2000/svg" xmlns:xlink="http://www.w3.org/1999/xlink" width="635" height="145"><g transform="matrix(.9815 0 0 .98075 3.107 -305.163)" stroke-width="1.019"><path d="M73.309 324.847a43.69 46.467 0 00-36.243 45.788 43.69 46.467 0 0043.69 46.466 43.69 46.467 0 0029.275-11.976 43.69 44.32 0 01-16.142 3.138 43.69 44.32 0 01-4.045-.19v-67.315a15.15 15.15 0 006.66 1.53c7.791.001 14.108-5.776 14.107-12.901 0-.848-.092-1.693-.273-2.524-3.24 2.114-7.433 3.283-11.78 3.283-4.76 0-8.691-1.182-12.535-3.806l-25.826 25.826v3.283c2.035 0 4.42 2.28 4.42 6.525v31.922l13.758-5.148v-46.135l6.258-6.258c.366.522.774 1.011 1.21 1.473v69.678A43.69 44.32 0 0150.2 363.943a43.69 44.32 0 0123.11-39.096z" fill="#27ae60"/><path id="a" d="M20.057 328.412l-10.264 3.803v10.594l3.035 4.256 10.729-3.975v-9.771zM7.02 359.246v3.284c2.035 0 4.42 2.279 4.42 6.525v41.955c0 2.255 4.217 6.609 5.425 6.156l12.752-4.773v-3.283c-2.035 0-4.42-2.28-4.42-6.526V360.63c0-2.114-3.707-6.074-5.296-6.172z" fill="#2daae4" fill-opacity="1" stroke-width="3.058" stroke-linecap="round" stroke-linejoin="round"/><path d="M143.798 354.086l-22.372 8.376v3.45c15.75-6.32 23.902-1.923 23.902 7.556l-17.55 6.568c-4.857 1.817-6.38 3.528-6.38 7.021v16.526c0 3.95 2.384 8.986 8.32 12.72l15.61-5.843c0 2.138 3.5 7.392 5.426 6.672l12.752-4.774v-3.283c-2.035 0-4.42-2.28-4.42-6.525v-36.307c0-3.449-2.894-9.775-6.799-12.287-3.962-2.55-6.255-.706-8.489.13zm1.53 24.76v25.704c-6.837 4.526-10.172-1.424-10.172-5.393v-8.797c0-6.171 3.71-8.774 10.172-11.514zm143.717-26.538l-27.37 10.244v41.06c0 3.45 2.895 9.776 6.8 12.288 3.962 2.549 6.254.705 8.488-.131l18.935-7.088v-3.502c-13.486 4.368-20.464-.032-20.464-8.791l17.55-6.568c4.857-1.818 6.38-3.528 6.38-7.022v-16.525c0-3.951-2.384-8.987-8.321-12.721zm-9.139 11.373c3.823-.05 5.7 4.04 5.7 7.018v8.796c0 6.172-3.711 8.775-10.172 11.514v-25.703c1.709-1.132 3.198-1.608 4.472-1.625zm-93.25-11.224l-12.88 4.79v3.283c2.034 0 4.42 2.279 4.42 6.525v43.955c0 2.255 4.217 6.609 5.425 6.156l12.752-4.773v-3.283c-2.035 0-4.42-2.28-4.42-6.526v-38.273c7.788.408 7.658 2.947 7.658 12.34l.805.642 13.143-4.92s.46-4.636 0-6.884c-.626-3.058-3.68-8.61-3.68-8.61-.895-2.094-4.167-4.458-7.844-3.082l-10.297 3.854c-.791-2.167-3.714-5.11-5.082-5.194zm52.965-11.058a18.884 15.804 0 01-10.441 13.258v.185h-.467a18.884 15.804 0 01-3.283.979l-1.698 4.53h5.448v50.659c0 2.255 4.217 6.609 5.425 6.156l12.752-4.773v-3.283c-2.035 0-4.42-2.28-4.42-6.526v-42.232h3.32l2.063-5.51h-5.382V341.4zm331.035 11.058l-12.88 4.79v3.283c2.034 0 4.42 2.279 4.42 6.525v43.955c0 2.255 4.217 6.609 5.425 6.156l12.752-4.773v-3.283c-2.035 0-4.42-2.28-4.42-6.526v-38.273c7.788.408 7.658 2.947 7.658 12.34l.805.642 13.143-4.92s.46-4.636 0-6.884c-.626-3.058-3.68-8.61-3.68-8.61-.895-2.094-4.167-4.458-7.844-3.082l-10.297 3.854c-.791-2.167-3.714-5.11-5.082-5.194zm-232.785-1.863c-.422-.038-.91.078-1.506.3l-19.119 7.157c-7.194 2.693-7.234 4.81-7.234 7.463v20.09c0 2.113 3.708 6.07 5.297 6.17l12.88-4.787c4.475-1.663 5.936-.625 5.936 3.62v14.08c0 1.432-.097 2.44-.883 2.848-.813.422-1.626.898-2.44.914-.424.01-1.15-.184-1.626-1.226l-1.748-3.828c-.937-2.051-3.335-7.87-4.543-7.418l-12.752 4.773v3.283c2.035 0 3.159 1.214 5.81 6.715.56 1.161 1.443 2.801 2.336 4.752.833 1.819 1.66 1.986 3.25 1.39l19.12-7.155c7.194-2.693 7.234-4.81 7.234-7.463v-20.09c0-2.114-3.708-6.07-5.297-6.17l-12.88 4.787c-4.475 1.663-5.936.625-5.936-3.621v-14.08c0-1.431.096-2.44.882-2.848.813-.421 1.627-.897 2.44-.914.424-.009 1.15.185 1.627 1.227l1.748 3.828c.936 2.05 3.334 7.87 4.543 7.418l12.752-4.774v-3.283c-2.035 0-3.16-1.213-5.81-6.715-.56-1.16-1.444-2.8-2.337-4.752-.52-1.136-1.04-1.628-1.744-1.691zm191.508-21l-26.963 10.094v3.678c4.298.364 4.488 3.731 4.488 7.088v52.049c0 3.118 1.675 8.88 6.487 13.298 1.879 1.726 3.592 1.654 5.724.856l11.38-4.26 13.757-5.15V367.42c0-3.119-1.675-8.883-6.486-13.301-1.178-1.082-2.29-1.455-3.479-1.389-.713.04-1.454.238-2.254.537l-11.37 4.258v-8.88c0-7.284 3.361-10.735 8.716-14.614zm-3.402 33.381c3.55.153 4.517 5.087 4.517 10.871v30.928c-7.97 5.648-9.832-.7-9.832-8.697v-30.93c2.206-1.562 3.956-2.23 5.315-2.172z" fill="#2daae4"/><path style="line-height:normal;font-variant-ligatures:normal;font-variant-position:normal;font-variant-caps:normal;font-variant-numeric:normal;font-variant-alternates:normal;font-variant-east-asian:normal;font-feature-settings:normal;font-variation-settings:normal;text-indent:0;text-align:start;text-decoration-line:none;text-decoration-style:solid;text-decoration-color:#000;text-transform:none;text-orientation:mixed;white-space:normal;shape-padding:0;shape-margin:0;inline-size:0;isolation:auto;mix-blend-mode:normal;solid-color:#000;solid-opacity:1" d="M403.34 321.494c-3.246-.077-7.266.882-10.174 4.143-3.41 3.824-6.271 8.801-5.557 14.27.335 2.56 1.37 5.171 5.43 6.312 2.844.799 7.702.212 10.354-1.516 1.71-1.115 2.64-2.545 3.03-4.293-2.108 2.794-9.163 5.284-12.405 3.379-2.239-1.315-4.041-2.68-2.873-8.43.45-2.221 2.01-3.787 6.314-3.787 2.695 0 4.736 1.221 8.082 2.967 2.424 1.265 6.434 3.205 8.71 1.451l10.987-8.459c-4.662 1.71-11.587-2.027-17.299-5.05-.983-.521-2.652-.94-4.6-.987zm34.146 5.117c-7.544.63-15.892 8.532-15.892 20.715v45.07c0 6.018-2.774 10.09-5.035 11.787 7.57 0 15.892-8.531 15.892-20.714v-45.073c0-4.061 2.058-9.785 5.451-9.785v79.727c-11.572-1.69-23.83-2.274-37.775 2.281-9.734 3.18-13.816 11.68-13.816 17.211 0 13.392 11.678 20.832 22.222 20.832 28.566 0 28.069-12.146 28.069-17.166-2.698 5.348-3.412 10.354-25.254 10.354-18.272 0-21.672-8.512-21.672-13.258 0-8.395 14.982-12.428 22.935-11.87 10.876.765 20.914 2.351 27.78 6.819 24.554-6.616 23.738-32.227 23.738-35.986l-2.399-1.643c0 8.628-4.468 25.674-17.931 23.36-.628-.109-1.266-.205-1.897-.31v-80.911c2.32-.127 4.58.08 6.315.65.753.247 1.458.952 2.064 1.932a6.692 6.692 0 107.66 6.62c0-2.67-1.692-5.642-3.283-7.198-2-1.958-4.27-3.134-6.441-3.444-1.55-.221-2.465-.317-4.54-.316-2.418 0-4.597.183-6.19.316zm-16.52 10.182c-7.57 0-15.892 8.531-15.892 20.715v39.181c0 6.018-2.773 10.09-5.035 11.787 7.57 0 15.893-8.531 15.893-20.714V348.58c0-6.018 2.773-10.09 5.035-11.787z" color="#000" font-weight="400" font-family="sans-serif" overflow="visible" fill="#27ae60"/><use xlink:href="#a" transform="translate(350)" width="100%" height="100%" fill="#2daae4" stroke-width="1.039"/><use xlink:href="#a" transform="translate(462)" width="100%" height="100%" fill="#2daae4" stroke-width="1.039"/><use xlink:href="#a" transform="translate(604)" width="100%" height="100%" fill="#2daae4" stroke-width="1.039"/></g></svg>