<svg height="1494" viewBox="0 0 1266 1494" width="1266" xmlns="http://www.w3.org/2000/svg"><path d="m636.63 4.574c-78.542 47.816-76.265 80.79-85.677 115.908-25.5 7.584-38.51-11.898-55.996-21.677-23.74 36.096-14.504 73.69-6.764 111.216-20.068-4.626-36.993-14.914-63.83-7.359-5.881 26.451-4.124 47.65 1.889 65.924-250.626 87.274-420.974 324.118-421.252 592.377 0 166.566 66.167 326.31 183.947 444.09s277.524 183.947 444.09 183.947c166.565 0 326.31-66.168 444.09-183.947 117.78-117.78 183.947-277.524 183.947-444.09-.133-275.528-179.625-517.64-440.666-599.137 12.544-27.838 19.877-57.344 10.85-86.937-19.918 10.426-37.538 15.11-54.531 18.228-.972-26.007 6.887-42.38-24.63-101.709-15.195 24.389-38.957 26.505-61.158 32.68-14.795-42.594-30.786-84.193-54.308-119.514zm-9.126 45.543c3.019 20.73 7.383 44.406 29.832 65.186 20.495 18.97 27.012 59.94 16.572 79.549 12.933-4.846 23.477-13.524 31.488-27.069 16.996-28.731 27.56-28.245 37.565-26.515 10.962 58.456 3.864 94.912-5.799 122.36 23.527-10.907 44.878-23.99 63.252-40.05-2.471 20.618-2.083 29.716-13.484 44.445-13.813 17.845-31.166 35.564-33.383 52.72h-262.578c-20.184-20.208-27.887-51.402-26.43-73.962 19.129 4.087 38.463 6.105 56.898 17.125-8.61-36.361-17.34-74.56-.828-99.437 26.794 37.092 44.04 47.905 52.569 43.219-8.378-95.893 8.336-138.042 54.326-157.57zm153.52 283.45c234.141 65.442 400.076 279.55 400.359 527.396a548.351 548.351 0 0 1 -548.348 548.35 548.349 548.349 0 0 1 -548.35-548.35c.014-242.46 158.627-452.95 384.924-523.426a417.18 417.18 0 0 1 6.56 8.781 29.898 29.898 0 0 0 -6.634 18.85v4.082c0 9.474 4.353 17.89 11.17 23.38a29.903 29.903 0 0 0 -10.17 22.538v4.082c0 6.15 1.835 11.854 4.986 16.604l-.505-.053c-8.26 1.313-12.464 3.133-14.643 5.582-2.179 2.45-1.984 5.356-1.707 7.972 1.873 17.7 24.037 37.034 41.408 40.616-2.696 2.028-6.367 3.467-10.252 4.478-11.98 3.12-24.131-9.281-37.81-29.187l-71 40.992c10.4 21.8 15.026 38.487 6.32 47.252-22.686 18.485-43.357 39.114-61.723 61.611-8.695 8.746-25.384 4.12-47.183-6.28l-40.992 71c19.906 13.68 32.259 25.817 28.916 37.653-10.502 26.94-18.205 55.173-22.7 84.328-2.923 11.922-19.687 16.259-43.765 18.153v81.984c23.615 1.857 40.185 6.068 43.568 17.475a394.002 394.002 0 0 0 22.951 85.654c2.854 11.597-9.4 23.555-28.97 37.004l40.992 71c21.473-10.244 37.978-14.878 46.58-6.541a393.914 393.914 0 0 0 62.453 62.451c8.46 8.576 3.831 25.123-6.45 46.674l71 40.992c13.613-19.808 25.697-32.128 37.427-28.865a393.827 393.827 0 0 0 84.605 22.666c11.883 2.954 16.21 19.704 18.102 43.748h81.984c1.894-24.079 6.229-40.843 18.15-43.774a396.287 396.287 0 0 0 84.37-22.619c11.796-3.412 23.933 8.938 37.613 28.844l71-40.992c-10.4-21.8-15.026-38.486-6.16-46.975l-.036-.06a394.187 394.187 0 0 0 18.354-15.617 398.684 398.684 0 0 0 43.416-46.113c8.523-8.845 25.21-4.218 47.01 6.181l40.992-71c-19.906-13.68-32.256-25.816-28.867-37.627a400.308 400.308 0 0 0 22.601-84.355c2.971-11.922 19.736-16.257 43.815-18.15v-81.986c-24.08-1.894-40.844-6.23-43.873-18.152-4.57-29.07-12.24-57.286-22.66-84.29-3.275-11.875 9.078-24.011 28.984-37.69l-40.992-71c-21.8 10.399-38.488 15.026-47.217 6.3a433.262 433.262 0 0 0 -61.684-61.642c-8.71-8.756-4.083-25.443 6.317-47.243l-71-40.992c-13.68 19.906-25.833 32.308-37.782 29.133-3.516-.935-6.84-2.257-9.294-3.955 17.036-6.4 29.992-27.633 30.226-41.172.045-2.616-.62-5.238-2.326-7.412-1.328-1.692-3.276-3.078-5.97-4.025a29.897 29.897 0 0 0 6.421-18.58v-4.082c0-9.002-3.93-17.048-10.17-22.538a29.909 29.909 0 0 0 11.17-23.38v-4.082c0-12.247-7.268-22.727-17.74-27.399a312.36 312.36 0 0 1 2.228-4.203zm-269.35 15.466h242.726c11.08 0 20 7.497 20 16.809s-8.92 16.808-20 16.808h-242.726c-11.08 0-20-7.496-20-16.808s8.92-16.809 20-16.809zm373.213 49.863c-2.086-.14-3.256 1.206-4.592 4.147-2.21 4.861-7.73 15.06-13.67 25.25-8.416 14.439-9.581 17.41-9.102 23.191.331 3.988 1.182 6.244 3.383 8.963 3.38 4.176 12.03 9.384 17.293 10.412 6.127 1.197 7.456.984 12.1-1.933 3.942-2.477 5.55-4.74 12.951-18.23 4.647-8.472 10.582-19.003 13.19-23.403 5.39-9.097 5.443-8.87-3.266-13.813-5.635-3.197-5.126-3.64-13.574 11.813-13.778 25.2-17.58 31.668-18.907 32.178-2.5.96-6.436-.676-7.56-3.143-.975-2.139.113-4.631 9.71-22.223 5.946-10.897 11.631-20.885 12.634-22.197 2.765-3.62 2.286-4.703-3.551-8.043-3.241-1.854-5.417-2.86-7.04-2.969zm-367.176 6.137h230.652c10.53 0 19.006 7.497 19.006 16.809s-8.477 16.808-19.006 16.808h-230.652c-10.529 0-19.006-7.496-19.006-16.808s8.477-16.809 19.006-16.809zm-166.494 10.012c-2.421.18-10.86 5.87-10.893 7.518-.014.698 1.565 3.398 3.508 6 9.834 13.166 13.467 18.205 13.467 18.68 0 .907-13.982-8.503-23.24-15.643l-3.739-2.883-7.416 5.004c-4.079 2.752-7.611 5.583-7.85 6.289-.237.706.819 2.858 2.348 4.783 1.53 1.925 5.619 7.62 9.088 12.658 15.055 21.86 22.223 31.99 24.123 34.092 1.119 1.237 2.57 2.25 3.223 2.25 1.38 0 8.621-5.567 9.681-7.441.443-.784-3.325-6.937-9.81-16.022-5.791-8.112-10.341-14.938-10.111-15.168s3.07 1.527 6.31 3.902c14.897 10.92 25.348 17.729 27.207 17.729 2.17 0 9.818-5.412 11.526-8.156.8-1.288.377-2.443-1.905-5.184-1.614-1.94-4.886-6.37-7.271-9.844a1911.573 1911.573 0 0 0 -9-12.966c-2.565-3.658-7.551-10.79-11.08-15.846-3.529-5.057-7.025-9.428-7.768-9.713a.936.936 0 0 0 -.398-.04zm583.289 15.162a1.746 1.746 0 0 0 -1.084.264c-1.567.973-7.313 7.98-20.356 24.822-3.407 4.4-9.25 11.767-12.982 16.373-3.733 4.606-6.785 8.73-6.785 9.166 0 1.146 9.077 8.962 10.39 8.947 1.396-.016 8.754-8.475 14.774-16.986 5.47-7.734 8.836-11.086 8.836-8.803 0 .83-2.493 9.059-5.54 18.287-3.046 9.23-5.408 17.151-5.25 17.604.16.453 2.751 2.657 5.76 4.898 3.01 2.242 6.012 3.95 6.672 3.795.66-.154 4.5-4.62 8.53-9.924 16.489-21.695 29.839-38.746 30.802-39.341.564-.349 1.026-1.223 1.026-1.942 0-1.495-8.706-8.574-10.545-8.574-.67 0-3.858 3.426-7.086 7.613-8.026 10.41-11.561 14.529-12.047 14.043-.226-.225.991-4.403 2.703-9.283 5.18-14.77 6.737-20.147 6.09-21.031-.339-.464-3.485-3.055-6.992-5.758-3.742-2.885-5.657-4.084-6.916-4.17zm-643.299 11.652c-1.433-.04-4.096 1.563-7.158 4.381-3.482 3.205-3.756 3.866-3.819 9.252-.116 9.911-.508 13.636-1.949 18.54-1.287 4.38-1.234 5.061.688 9 1.143 2.343 5.173 7.86 8.955 12.261 3.781 4.4 9.267 10.978 12.191 14.617 4.88 6.074 7.06 7.872 11.184 9.23 6.14 2.024 14.285-.813 21.59-7.52 7.533-6.919 9.962-14.175 7.064-21.11-1.951-4.671-24.824-31.622-29.787-35.098-3.274-2.293-11.056-2.073-16.004.451-2.231 1.139-4.243 1.885-4.469 1.658-.226-.226.322-3.653 1.217-7.617.895-3.963 1.381-7.45 1.082-7.75-.19-.19-.454-.285-.785-.295zm685.639 21.696a.35.35 0 0 0 -.141.039c-1.18.669-7.982 8.66-20.182 23.699-3.123 3.85-9.175 10.944-13.45 15.766-6.778 7.643-9.57 12.734-6.985 12.734.434 0 2.78 1.8 5.21 4 2.432 2.2 4.689 4 5.016 4 .686 0 13.79-15.03 20.112-23.068 2.349-2.987 8.494-10.268 13.656-16.178s9.235-11.197 9.05-11.746c-.675-2.02-10.579-9.404-12.286-9.246zm-678.004 4.478c.877-.031 1.664.522 3.093 1.838 3.485 3.209 23.441 26.962 24.104 28.69.285.743-.75 2.673-2.299 4.29-1.55 1.618-3.38 2.942-4.07 2.942s-3.494-2.588-6.233-5.75c-12.552-14.496-19.213-22.522-20.158-24.287-1.239-2.316.3-5.242 3.725-7.074.75-.402 1.311-.63 1.838-.649zm698.324 12.26-1.684 2.154c-2.382 3.047-7.159 9.931-23.1 33.287-12.003 17.589-13.801 20.72-12.88 22.442.589 1.1 3.883 4.882 7.32 8.404 7.272 7.453 5.015 7.8 22.153-3.396 6.146-4.016 15.821-10.17 21.5-13.676 5.678-3.506 12.447-7.689 15.042-9.295 2.596-1.606 4.733-3.444 4.75-4.084s-2.085-3.191-4.671-5.67c-5.559-5.327-3.946-5.776-21.94 6.098-12.372 8.164-20.751 13.236-21.869 13.236-.36 0 .651-1.688 2.25-3.75 1.599-2.063 6.443-8.925 10.766-15.25 4.322-6.325 8.902-12.772 10.177-14.326 1.275-1.555 2.319-3.598 2.319-4.54 0-.94-2.28-3.942-5.067-6.671zm-735.205 4.4-5.332 5.266c-2.932 2.896-5.325 5.73-5.315 6.299s4.783 5.535 10.606 11.035 16.502 15.732 23.732 22.738c7.23 7.007 13.38 12.632 13.666 12.5 1.33-.612 9.98-10.566 9.98-11.482 0-.57-6.363-7.049-14.142-14.397-7.778-7.348-18.43-17.543-23.67-22.658zm470.922 5.97c2.956 1.072 4.135 3.18 5.726 6.47 2.455 5.073 3.258 13.65 2.676 19.205l-8.685 80.61a282.303 282.303 0 0 0 -80.809-17.468l.719-88.812 34.527-.002v57.076a6.001 6.001 0 1 0 12 0v-57.078zm-117.326.007.48 88.84a282.301 282.301 0 0 0 -81.34 17.176l-8.719-75.758c-.963-8.372 1.041-16.794 4.65-22.229 3.01-4.53 6.39-7.234 11.684-8.025l24.725-.002v57.07a6.001 6.001 0 1 0 12 0v-57.07zm-368.832 19.158c-4.198-.029-5.9.551-9.854 3.362-5.774 4.105-10.866 11.008-12.545 17.005-2.214 7.91.684 12.697 14.973 24.729 3.025 2.547 8.2 6.991 11.5 9.875s7.35 5.845 9 6.58 4.861 1.354 7.136 1.375c11.248.107 24.726-17.408 21.94-28.51-.834-3.321-10.274-13.45-12.535-13.45-1.806 0-5.69 3.779-8.612 8.378-1.813 2.855-1.807 2.895.622 4.77 5.796 4.475 6.949 5.839 6.949 8.218 0 2.694-3.234 5.633-6.198 5.633-1.521 0-6.639-4.257-26.552-22.08-4.752-4.253-5.298-6.866-2.063-9.88 2.92-2.722 4.65-2.524 8.774 1.001 1.904 1.628 3.929 2.952 4.5 2.945.57-.007 3.123-2.388 5.672-5.294l4.632-5.286-4.056-3.453c-6.02-5.126-7.71-5.879-13.283-5.918zm790.843 15.42c-1.956-.074-6.288 3.299-30.908 23.045-8.229 6.6-16.486 13.16-18.35 14.58l-3.388 2.582 9.474 11.418c5.212 6.28 10.752 13.108 12.309 15.17 1.557 2.063 3.253 3.75 3.77 3.75 1.492 0 8.824-6.215 8.824-7.48 0-.63-1.383-2.467-3.07-4.082-5.086-4.867-11.307-13.471-10.337-14.295 4.308-3.66 11.264-9.143 11.598-9.143.229 0 2.812 3.15 5.738 7 2.927 3.85 5.699 7 6.16 7 1.362 0 7.91-6.102 7.91-7.37 0-.641-2.238-3.857-4.974-7.147s-4.986-6.453-5-7.028c-.034-1.407 9.301-8.455 11.2-8.455.829 0 2.65 1.688 4.046 3.75 1.396 2.063 4.514 5.957 6.926 8.654l4.385 4.905 3.701-3.905c2.035-2.147 3.707-4.262 3.707-4.7.015-1.346-21.124-27.148-22.975-28.044a1.815 1.815 0 0 0 -.746-.205zm-827.937 19.62-3.416 4.63a1167.783 1167.783 0 0 1 -4.729 6.373c-1.161 1.542-.76 2.117 3.5 5.026 5.195 3.547 25.538 18.476 34.063 24.998 2.887 2.209 5.25 4.684 5.25 5.502 0 2.323-4.877 6.662-6.895 6.134-.98-.256-10.798-7.051-21.818-15.101s-20.528-14.637-21.129-14.637c-1.228 0-9.158 10.122-9.158 11.69 0 .974 5.133 4.933 28.5 21.972 11.673 8.512 14.355 10.165 18.441 11.366 2.52.74 5.628.395 9.559-1.061 3.192-1.182 11.286-9.981 13.484-14.658 2.28-4.852 2.626-12.54.733-16.283-1.397-2.76-10.062-9.726-28.717-23.079-6.875-4.92-13.663-9.83-15.084-10.91zm291.547 5.46 6.673 57.98c-91.593 45.308-151.552 136.576-156.767 238.63-6.662 136.078 84.815 257.5 217.451 288.634l6.682 58.057c-168.072-29.194-288.034-179.07-279.71-349.455 6.637-129.25 86.504-243.359 205.67-293.846zm264.568.38c129.92 55.485 211.618 185.932 204.824 327.042-7.908 155.508-121.044 285.484-273.976 314.758l6.283-58.322c119.857-30.596 205.834-135.66 212.113-259.201 5.478-111.708-55.508-216.116-155.5-266.217zm301.49 15.683c-.8.054-10.002 5.705-20.447 12.556-10.445 6.852-22.23 14.459-26.188 16.903s-7.44 5.035-7.742 5.758c-.845 2.03 7.303 13.45 9.104 12.76.82-.315 5.554-3.353 10.517-6.753 9.752-6.679 11.344-6.85 13.28-1.416 1.31 3.679.204 5.174-8.043 10.881-11.372 7.87-11.057 7.117-6.274 14.971 2.259 3.708 4.422 6.742 4.807 6.742s1.79-1.169 3.123-2.597c1.333-1.429 4-3.414 5.926-4.413 6.25-3.241 11.883-8.843 12.976-12.902l1.022-3.795 4.969.479c4.329.416 5.613.064 9.957-2.723 2.742-1.76 6.356-4.602 8.03-6.314 4.3-4.398 4.191-9.96-.378-19.264-4.5-9.163-12.8-20.998-14.639-20.873zm-1.008 19.402c1.674 0 5.164 5.341 4.864 7.442-.166 1.158-2.42 3.48-5.157 5.308-2.674 1.788-5.228 3.25-5.673 3.25-1.375 0-6.966-5.11-6.938-6.34.028-1.217 11.306-9.66 12.904-9.66zm-884.67 4.186c-1.688-.102-2.607 1.1-4.253 4.064-1.299 2.338-5.881 10.184-10.184 17.438-4.303 7.253-7.822 13.853-7.822 14.668 0 1.675 5.883 5.644 8.367 5.644.924 0 2.827-2.165 4.383-4.986 1.512-2.742 3.425-4.99 4.25-4.996s3.075.96 5 2.146 9.35 5.52 16.5 9.633 14.908 8.579 17.24 9.922 4.496 2.855 4.809 3.361c1.143 1.851 4.148.848 5.48-1.83.753-1.512 2.429-4.215 3.725-6.006 1.296-1.79 2.068-3.722 1.716-4.29-.89-1.44-5.813-4.465-26.244-16.124-9.75-5.564-18.33-10.671-19.066-11.35-1.117-1.027-1.08-1.735.226-4.261.862-1.666 2.283-3.746 3.159-4.621 2.247-2.247 1.04-4.949-3.09-6.918-1.892-.902-3.182-1.433-4.195-1.494zm450.612 16.683c4.5-.015 9.002.09 13.498.313 140.273 6.975 248.332 126.345 241.355 266.619-6.976 140.274-126.347 248.333-266.62 241.355-140.274-6.976-248.332-126.345-241.356-266.619 6.63-133.302 115.184-238.796 248.621-241.613 1.5-.032 3-.05 4.5-.055zm458.902 12.424c-1.647.032-3.382.74-7.039 2.451-5.73 2.682-6.722 3.59-9.084 8.328-1.458 2.926-2.658 6.244-2.658 7.373 0 1.13-.848 5.567-1.875 9.858-2.672 11.164-7.43 15.44-12.29 11.043-3.392-3.07-1.7-7.845 3.423-9.662 2.449-.869 2.181-3.895-.856-9.703-2.952-5.647-4.468-6.08-9.472-2.707-5.34 3.597-7.923 8.212-7.912 14.125.016 8.605 7.12 21.444 13.369 24.164 8.643 3.761 18.93-.442 23.662-9.666 1.016-1.982 2.359-6.707 2.982-10.5 1.633-9.938 2.883-13.54 5.783-16.647 3.107-3.329 5.557-3.498 7.637-.527 2.444 3.489 1.94 6.437-1.443 8.435-1.65.975-3 2.184-3 2.686 0 1.283 5.918 11.488 7.078 12.205 1.734 1.072 7.947-3.678 9.953-7.61 2.93-5.742 2.53-11.322-1.394-19.513-3.724-7.77-7.757-11.783-13.6-13.533-1.32-.396-2.275-.62-3.264-.6zm-935.144 17.055c-1.264.142-1.994 1.51-4 6.115-3.22 7.39-2.963 8.292 2.974 10.44 4.767 1.723 34.574 15.82 44.397 20.998 4.125 2.174 8.314 3.874 9.308 3.777 1.867-.183 6.967-10.86 6.45-13.5-.255-1.3-52.871-26.506-57.766-27.674a6.76 6.76 0 0 0 -.783-.148 2.6 2.6 0 0 0 -.58-.008zm-9.694 22.152-6.484 16c-3.566 8.8-7.174 17.468-8.02 19.262-.845 1.793-1.31 3.628-1.033 4.076.924 1.494 8.473 4.426 9.944 3.861.797-.306 2.218-2.87 3.158-5.699.94-2.828 2.223-5.336 2.853-5.574s11.497 3.814 24.147 9.006c12.65 5.191 24.056 9.356 25.347 9.254 1.87-.148 2.84-1.396 4.75-6.106 1.321-3.256 2.403-6.272 2.403-6.703 0-1.008-4.992-3.198-29.75-13.047-22.424-8.92-22.15-8.678-18.053-15.969l2.197-3.91-2.103-2.103c-1.29-1.29-3.503-2.15-5.729-2.225zm971.938 2.883c-.814-.06-1.774.292-3.057.9-1.826.867-8.944 3.8-15.818 6.52a2049.5 2049.5 0 0 0 -24.88 10.07c-6.809 2.82-13.01 5.127-13.78 5.127-2.346 0-2.686 2.886-.858 7.303.956 2.308 2.13 5.21 2.608 6.447.478 1.238 1.468 2.25 2.2 2.25.734 0 9.631-3.402 19.772-7.56 10.142-4.159 22.94-9.335 28.44-11.504 13.975-5.513 13.226-4.687 10.504-11.59-2.255-5.717-3.34-7.833-5.131-7.963zm7.758 21.937c-.757-.004-1.709.21-3.014.641-5.631 1.858-6.206 3.268-3.748 9.182 1.171 2.818 2.13 5.498 2.13 5.955s-8.212 3.521-18.25 6.808c-25.244 8.268-31.91 10.735-32.773 12.13-.615.995 2.054 10.582 3.678 13.214.255.413 1.013.75 1.686.75 1.188 0 29.092-9.298 43.125-14.369 6.896-2.492 9.526-2.288 9.54.742 0 .62.475 2.815 1.048 4.877.898 3.234 1.44 3.75 3.947 3.75 3.601 0 7.709-1.801 8.437-3.7.302-.784-.063-2.637-.808-4.114-.746-1.478-3.694-9.74-6.551-18.362-2.857-8.621-5.826-16.2-6.598-16.84-.53-.439-1.093-.66-1.85-.664zm-985.928 26.48c-.407-.012-.81-.012-1.21.003-6.915.252-12.415 4.699-15.403 12.685-4.496 12.015-3.67 18.948 2.968 24.946 3.811 3.443 4.216 3.566 11.713 3.566 8.599 0 8.209.181 22.287-10.41 7.828-5.889 10.878-6.724 14.72-4.033 2.831 1.984 2.822 4.637-.028 7.93-2.07 2.39-2.52 2.506-5.588 1.43-4.098-1.44-5.291-.411-7.062 6.083a750.947 750.947 0 0 1 -1.705 6.168c-.296 1.03.205 1.847 1.312 2.135.986.256 4.795.518 8.465.582 5.786.1 7.076-.224 9.7-2.432 4.774-4.017 8.364-12.42 8.878-20.78.388-6.308.157-7.584-1.906-10.581-3.75-5.447-7.158-7.414-13.66-7.885-7.098-.513-11.011 1.246-21.752 9.781-8.335 6.624-12.277 8-15.975 5.577-2.63-1.724-3.12-4.458-1.383-7.705.883-1.65 1.895-1.95 5.66-1.684l4.586.324 1.252-5c.69-2.75 1.548-5.93 1.909-7.066.57-1.802.06-2.2-3.989-3.127a19.951 19.951 0 0 0 -3.787-.506zm1000.762 29.417c-1.016.058-2.373.292-4.344.68-3.692.726-15.847 1.127-32.272 1.064-29.925-.115-27.976-.767-25.539 8.54l1.31 5 6.44.5 6.44.5.574 4c.316 2.2.908 5.436 1.316 7.193.715 3.072.594 3.234-3.207 4.257-6.663 1.795-7.295 4.113-4.156 15.26 1.208 4.29.135 4.469 14.973-2.48 21.613-10.123 25.909-12.14 34.5-16.202 4.95-2.34 10.012-4.57 11.25-4.959 2.613-.819 2.747-1.9.892-7.195-.746-2.132-1.667-5.96-2.045-8.51-.384-2.594-1.536-5.405-2.619-6.384-1.072-.97-1.82-1.36-3.513-1.264zm-609.727 7.926c5.453 61.225 11.868 115.225 17.32 169l84.68 69 84.68-69c5.453-53.775 11.867-107.775 17.32-169-43.764 24.74-74.801 63.721-102 107-27.198-43.279-58.236-82.26-102-107zm596.762 6.847-10 4.94c-5.5 2.717-10.35 4.97-10.776 5.006-.971.08-2.724-4.423-2.724-7 0-1.578.708-1.936 3.847-1.936 2.117 0 7.405-.228 11.75-.506zm-1010.412 8.112c-3.783-.096-3.843 1.305-4.276 8.898l-.312 5.5 3.5.153c5.223.226 25.029 3.044 25.63 3.646.288.288-2.099 1.056-5.304 1.709a560.973 560.973 0 0 0 -11.89 2.59c-3.336.771-6.998 1.402-8.14 1.402-3.592 0-5.994 3.149-7.179 9.416-1.873 9.906-1.766 10.238 3.633 11.465 2.612.594 14.425 2.422 26.25 4.063 11.825 1.64 22.625 3.162 24 3.382s4.376.463 6.67.537c3.795.124 4.218-.11 4.715-2.613 1.77-8.932 1.818-10.235.388-10.783-.794-.305-8.467-1.562-17.05-2.795-19.14-2.75-19.3-4.45-.723-7.629 3.575-.612 9.875-1.9 14-2.861l7.5-1.748.637-4.967c.35-2.732.955-5.94 1.343-7.13.514-1.572.203-2.422-1.136-3.104-2.122-1.081-18.202-3.663-35.844-5.754-2.2-.261-5.125-.68-6.5-.932-4.612-.847-10.453-1.618-16.647-2.197-1.32-.124-2.392-.226-3.265-.248zm369.15 1.54c21.475 56.858 13.91 128.046 11 180 40.394 5.204 83.267 26.726 126.465 45.764 4.74 2.09 3.534-2.398 1.094-4.322-26.432-20.831-59.388-34.82-92.059-49.941 5.06-38.862-.11-96.482-2.5-149zm293 0-44 22.5c-2.389 52.52-7.56 110.14-2.5 149-32.67 15.123-65.627 29.11-92.058 49.942-2.441 1.924-3.646 6.411 1.093 4.322 43.198-19.038 86.072-40.56 126.465-45.763-2.91-51.955-10.474-123.143 11-180zm369.63 25.009c-1.087.024-2.21.159-3.106.398-1.795.478-13.53 1.604-26.077 2.502s-24.922 1.94-27.5 2.316c-5.172.755-5.046.405-3.78 10.633.271 2.2.516 4.285.544 4.633.089 1.117 4.318 1.792 5.96.951.875-.447 5.751-1.069 10.839-1.383l9.25-.572v4.313c0 2.587-.591 4.804-1.479 5.54-.813.676-6.187 1.754-11.941 2.397s-10.679 1.386-10.943 1.65c-.265.265-.223 4.215.09 8.778.486 7.095.8 8.2 2.171 7.635 1.23-.507 19.811-3.232 23.237-3.409.347-.018 1.984-1.417 3.638-3.109l3.008-3.078 4.27 2.178c5.528 2.82 16.402 2.518 22.433-.625 6.545-3.411 7.184-7.865 5.278-36.823-.22-3.334-.67-4.035-2.996-4.66-.753-.202-1.805-.29-2.893-.265zm-7.1 17.068c1.586-.051 1.793.657 2.048 4.244.24 3.361-.115 4.781-1.44 5.75-.967.707-4.122 1.287-7.011 1.287-5.866 0-8.365-2.121-8.365-7.101 0-2.5.34-2.694 5.75-3.248 3.162-.325 6.875-.715 8.25-.87.287-.032.54-.055.767-.062zm-671.956 3.303c-3.622-.001-7.363.111-11.168.304-4.005.204-5.833.104-2.406 6.387 16.123 29.559 8.744 104.243-7 157.43 38.803-6.818 124.278 9.4 165.531 26.67 4.778 2 3.535-2.397 1.094-4.32-26.431-20.832-97.216-39.063-133.246-49.942 10.498-24.725 10.37-72.67 4.041-135.432-5.104-.777-10.809-1.095-16.846-1.097zm325.852 0c-6.037.002-11.742.32-16.846 1.097-6.329 62.762-6.457 110.707 4.041 135.432-36.03 10.88-106.814 29.11-133.246 49.941-2.44 1.924-3.684 6.32 1.094 4.32 41.253-17.27 126.729-33.487 165.531-26.67-15.743-53.186-23.123-127.87-7-157.429 3.427-6.283 1.6-6.183-2.406-6.387a220.177 220.177 0 0 0 -11.168-.304zm-688.164 8.478-.695 14.678 65.695 5.322 1.277-13.748zm1050.5 23.27-5.25.576c-2.888.317-17.963.876-33.5 1.242-25.834.608-28.25.814-28.25 2.393 0 .95.292 4.526.65 7.949l.65 6.224 8.1-.56c4.455-.308 19.237-.843 32.85-1.19l24.75-.628v-8.004zm-65.338 22.343c-.065.01-.11.022-.131.045-.175.188-.48 3.702-.676 7.807l-.355 7.465 4.5.885c6.733 1.324 7.263 2.07 6.474 9.12-.372 3.336-1.009 6.42-1.414 6.852-.405.434-2.946.917-5.648 1.073l-4.912.283-.754 7.428c-.415 4.085-.524 8.038-.242 8.783.324.855 1.153 1.084 2.254.62 2.285-.96 1.306-.804 34.7-5.523 15.929-2.25 29.316-4.31 29.75-4.58.436-.269.798-3.05.798-6.18s.489-7.437 1.082-9.572c.843-3.038.788-4.148-.256-5.105-1.259-1.155-19.437-6.693-46.332-14.115-6.6-1.822-13.498-3.823-15.326-4.448-1.6-.546-3.056-.887-3.512-.838zm22.168 21.174c.236-.038.537.04.92.192.962.38 5.125 1.556 9.25 2.613 10.397 2.663 10.966 2.928 8.412 3.916-1.148.444-4.748 1.103-8 1.463s-7.15.887-8.662 1.172c-2.713.51-2.75.446-2.75-4.67 0-3.403.123-4.57.83-4.686zm-979.121 72.856a510.826 510.826 0 0 0 192.426 292.117v-22.66a492.71 492.71 0 0 1 -60.766-56.68 492.807 492.807 0 0 1 -113.13-212.777zm975.537 0c-23.339 94.658-74.431 181.025-147.754 247.4a492.785 492.785 0 0 1 -53.355 41.986v21.604a510.755 510.755 0 0 0 65.435-50.246c77.112-69.805 130.507-160.942 154.197-260.744zm-437.457 183.058-6.127 56.86a338 338 0 0 1 -21.182 1.51l.451-55.75a282.318 282.318 0 0 0 26.858-2.62zm-76.772.75a282.276 282.276 0 0 0 21.698 2.17h.064l.298 55.623c-1.041-.01-2.083-.025-3.125-.045a337.953 337.953 0 0 1 -12.431-1.244zm-217.336 106.406c-.1 0-.183.01-.246.029-.74.284-2.235 2.262-3.324 4.396-2.227 4.366-24.138 40.83-27.762 46.201-3.164 4.69-2.96 6.653.9 8.633 1.788.917 4.338 2.516 5.669 3.553 1.33 1.037 2.905 1.727 3.5 1.533.97-.316 10.985-16.413 11.877-19.088.217-.652 2.968.238 6.886 2.227 14.749 7.486 21.247 4.779 30.315-12.63 3.396-6.519 3.112-12.413-.848-17.605-2.91-3.816-23.839-17.121-26.967-17.25zm482.436 14.156a10.87 10.87 0 0 0 -2.785.459c-13.387 4.123-22.22 12.096-22.41 20.228l-.077 3.301-1.175-3.892c-1.724-5.71-3.356-6.312-9.493-3.496-3.183 1.46-5.177 3.012-5.177 4.025 0 2.131 5.513 25.356 8.113 34.176 2.833 9.611 2.143 11.362-2.047 5.187-10.267-15.13-23.636-32.497-25.002-32.478-.86.012-2.69.903-4.064 1.978-1.375 1.076-3.199 1.967-4.051 1.979-1.838.026-3.95 1.945-3.95 3.59 0 .642 2.164 4.038 4.807 7.548 2.644 3.51 11.422 15.27 19.508 26.133 8.087 10.863 15.382 19.75 16.213 19.75s5.598-2.052 10.592-4.56c8.11-4.074 9.008-4.795 8.406-6.75-.37-1.205-1.357-4.89-2.191-8.19-9.773-38.673-10.14-40.906-5.487-33.5 1.555 2.475 5.436 9 8.623 14.5 7.126 12.296 10.464 15.943 16.02 17.498 3.553.995 5.235.933 9.674-.357 14.543-4.228 23.57-16.158 19.533-25.819-2.312-5.532-18.702-32.985-21.525-36.054-3.167-3.442-7.87-5.415-12.053-5.256zm-474.002 4.508c1.978-.024 6.885 3.707 6.885 5.234 0 .61-1.688 3.945-3.75 7.41-2.618 4.398-4.354 6.301-5.75 6.291-2.544-.012-7.64-3.13-7.276-4.453.91-3.31 8.53-14.466 9.891-14.482zm35.385 5.953-2 2.351c-3.01 3.54-7.808 9.472-13.182 16.293-8.404 10.668-16.567 20.684-22.097 27.116-2.948 3.428-5.1 6.654-4.782 7.17.96 1.553 9.676 6.097 11.696 6.097 1.066 0 3.073-1.719 4.625-3.963 1.507-2.179 3.308-3.979 4.004-4 .695-.02 3.774 1.378 6.84 3.108 5.049 2.85 5.51 3.39 4.904 5.75-.368 1.432-.869 4.18-1.112 6.105-.425 3.365-.239 3.6 4.83 6.104 7.626 3.766 8.513 3.643 9.737-1.354.572-2.337 1.696-6.5 2.498-9.25.801-2.75 2.17-7.7 3.043-11 .872-3.3 3.435-12.975 5.697-21.5s4.154-16.51 4.205-17.746c.077-1.88-1.448-2.979-9.406-6.764zm434.53 4.527c3.383 0 3.644.317 13.21 15.938 5.368 8.765 9.76 16.952 9.76 18.193 0 1.24-1 2.956-2.223 3.813-2.898 2.03-5.101 1.969-7.021-.194-.855-.962-5.702-8.721-10.774-17.242-8.762-14.722-9.152-15.617-7.814-18 1.078-1.92 2.217-2.508 4.861-2.508zm-396.347 13.5c-7.279 0-11.6 3.199-15.312 11.332-2.602 5.703-.881 12.211 6.562 24.801 3.337 5.643 6.067 11.373 6.067 12.734 0 5.342-5.964 8.039-9.395 4.248-1.352-1.494-1.568-2.918-1.04-6.894.62-4.679.508-5.058-1.7-5.676-1.3-.364-4.044-1.373-6.094-2.244-4.785-2.033-6.261-.911-7.715 5.865-1.43 6.67-.018 11.843 4.211 15.42 7.986 6.754 22.27 10.255 28.565 7 4.312-2.23 9.124-10.028 9.148-14.826.023-4.555-2.598-11.567-6.824-18.26-4.455-7.054-7.109-12.657-7.135-15.058-.057-5.295 6.247-7.619 10.131-3.735 1.672 1.672 1.783 2.339.77 4.563-1.748 3.836-.77 5.098 5.463 7.062 3.672 1.158 5.615 2.312 5.615 3.334 0 1.734-4.375 18.42-6.586 25.12-4.797 14.535 3.212 24.581 21.27 26.677 10.045 1.166 15.96-2.88 19.421-13.283l2.176-6.533-2.123-1.721c-1.976-1.6-11.911-4.598-12.557-3.79-.159.2-1.146 3.064-2.195 6.364-1.75 5.504-2.165 6.026-5.031 6.305-3.5.34-6.375-1.848-6.375-4.854 0-2.953 9.044-34.17 10.633-36.7 1.817-2.895 4.55-2.857 8 .11l2.744 2.36-1.795 4.701c-.987 2.585-1.506 4.988-1.154 5.34 1.246 1.246 11.814 4.081 13.212 3.545.781-.3 2.064-1.729 2.85-3.176 2.529-4.654 2.163-2.016-3.488 25.195-.552 2.655-1.002 7.026-1.002 9.715 0 4.058.535 5.499 3.148 8.475 4.118 4.69 7.675 6.438 15.188 7.469 15.846 2.172 21.788-1.931 24.595-16.985a492.385 492.385 0 0 1 2.647-13c3.208-14.548 6.286-31.468 5.81-31.943-.278-.279-3.26-1.07-6.626-1.756-7.16-1.46-8.408-.854-9.34 4.549-1.225 7.092-8.494 43.674-9.022 45.4-.405 1.326-1.618 1.75-5 1.75-5.656 0-6.632-2.03-4.78-9.937.718-3.06 2.692-12.988 4.39-22.063 1.697-9.075 3.481-17.71 3.964-19.19 1.076-3.29.172-4.12-6.168-5.665-8.884-2.167-9.453-1.912-10.26 4.605-.955 7.731-2.38 11.161-2.476 5.967-.214-11.51-11.324-19.717-26.685-19.717-5.912 0-6.824.284-9.496 2.957l-2.958 2.957-.628-3.146c-1.534-7.667-14.696-15.768-25.62-15.768zm-38.884 5.264c.038-.01.07-.01.098 0 .26.111.038 1.138-.25 2.724-.35 1.925-1.655 7.173-2.899 11.663l-2.262 8.162-2.994-1.26c-5.97-2.51-5.889-3.355 1.182-12.572 4.708-6.138 6.556-8.592 7.125-8.721zm359.476 1.062a.916.916 0 0 0 -.22.027c-9.284 2.892-18.549 6.624-18.876 7.604-.223.67.089 3.767.694 6.88.605 3.115 2.003 12.863 3.107 21.663s2.431 18.025 2.948 20.5c.516 2.475 1.17 6.862 1.457 9.75.974 9.84-3.081 4.757-5.385-6.75-1.625-8.114-3.23-11.371-6.969-14.135l-2.936-2.172 1.952-2.48c2.376-3.022 2.45-6.32.33-14.758-3.445-13.715-10.54-15.982-32.545-10.4-4.217 1.069-8.618 1.945-9.781 1.945-2.796 0-3.564 2.321-2.256 6.824 2.275 7.836 12.205 50.679 12.205 52.66 0 .762.438 2.54.974 3.951.537 1.41 1.55 2.535 2.25 2.5 3.952-.199 13.21-2.737 13.534-3.71.209-.628-.777-5.728-2.19-11.333-3.384-13.42-3.366-13.653 1.094-14.49 2.015-.378 4.377-.24 5.25.303.912.568 2.733 5.369 4.281 11.285 1.482 5.664 3.145 10.748 3.695 11.299.67.669 2.433.64 5.307-.088 2.368-.6 5.655-1.43 7.305-1.846s4.125-.838 5.5-.937c1.375-.1 4.975-1.106 8-2.239 5.94-2.224 5.657-1.558 4.351-10.322-.542-3.642-.54-3.643 5.09-5.75 3.098-1.159 6.248-2.107 7-2.107s2.556 2.025 4.006 4.5 2.834 4.5 3.074 4.5c2.062 0 13.78-4.62 14.147-5.578.26-.678-1.971-4.986-4.957-9.577-5.814-8.938-13.463-21.082-23.721-37.662-4.272-6.905-6.534-9.806-7.715-9.857zm-84.629 20.43c-6.56.03-26.057 2.386-27.002 3.262-.983.911 1.977 33.21 3.389 36.982.515 1.375.897 3.4.85 4.5-.205 4.757 2.557 24.067 3.539 24.74.593.407 1.753.47 2.578.143s6.863-1.234 13.418-2.016c19.964-2.38 26.344-7.434 25.078-19.867-.885-8.686-2.541-13.483-5.274-15.273-1.98-1.298-2.286-2.112-1.753-4.65.355-1.693 1.017-6.002 1.47-9.577.77-6.065.648-6.767-1.826-10.5-3.16-4.769-8.767-7.771-14.467-7.744zm81.971 2.244c.785 0 11.457 19.275 11.162 20.16-.193.578-2.009 1.621-4.037 2.319-3.268 1.123-3.75 1.074-4.227-.43-.647-2.04-3.278-22.049-2.898-22.049zm-192.934.127c-2.71 0-3.577.374-4.205 1.233-.643.88-2.85 7.345-4.904 14.369-6.459 22.083-9.632 32.523-12.316 40.515-1.431 4.26-2.376 7.972-2.1 8.248.276.277 3.27.793 6.65 1.147 6.616.691 9.192-.35 9.192-3.715 0-1.007.54-3.018 1.203-4.47 1.176-2.582 1.354-2.627 7.75-1.944 6.993.746 8.007 1.463 8.031 5.676.01 1.476.42 3.747.914 5.047.822 2.162 1.503 2.372 8 2.472l7.102.112-.018-3.159c-.01-1.736-.923-10.583-2.031-19.658a7530.948 7530.948 0 0 1 -3.54-29.5c-.837-7.15-1.689-13.511-1.892-14.137-.222-.684-4.454-1.43-10.621-1.87-3.3-.237-5.59-.368-7.215-.366zm149.9 2.873c3.952 0 4.586.317 5.514 2.75.577 1.513 1.293 4.792 1.59 7.287.498 4.18.33 4.633-2.12 5.75-3.045 1.387-6.222 1.58-6.938.422-1.048-1.695-3.61-14.432-3.076-15.295.31-.502 2.575-.914 5.03-.914zm-121.083.666.256 24.416c.14 13.43.523 28.621.85 33.76l.593 9.344 3.15-.569c1.733-.312 9.676-.638 17.65-.724 7.976-.086 15.063-.37 15.75-.631 1.647-.625 1.61-7.39-.052-9.662-1.095-1.497-2.853-1.781-11-1.781h-9.697v-2.844c0-1.564-.402-3.902-.893-5.194-.491-1.291-1.054-11.712-1.25-23.158-.197-11.446-.588-21.183-.87-21.639-.28-.455-3.655-.94-7.5-1.074zm76.926 5.733c2.532.05 4.483 1.8 5.568 5.088 1.67 5.063.662 8.089-3.139 9.414-6.183 2.155-6.338 2-7.283-7.172-.576-5.594-.512-5.802 2.137-6.809.963-.366 1.872-.538 2.717-.521zm-102.008 13.117c.722-.067 1.45 2.887 2.012 8.484.358 3.575.898 8.188 1.199 10.25.3 2.063.17 3.682-.291 3.6s-2.188-.327-3.838-.543c-5.302-.695-5.587-.956-4.393-4.022 1.003-2.575 2.63-8.481 4.346-15.771.31-1.314.637-1.968.965-1.998zm105.43 13.625c4.791-.098 6.78 1.895 7.603 7.38.848 5.659-.514 8.125-5.213 9.43-2.056.571-4.06 1.043-4.453 1.043-1.522.012-2.58-3.778-2.926-10.494l-.36-7 4.352-.312c.345-.025.677-.04.996-.047zm-84.106 59.31c9.964 0 15.408 5.905 15.408 16.239v33.029c0 10.887-4.984 16.793-15.502 16.793-9.964 0-15.13-5.905-15.13-16.238v-1.66h9.595v2.306c0 4.613 2.03 6.365 5.26 6.365 3.598 0 5.627-1.754 5.627-7.935v-11.809c-1.753 3.69-4.89 5.72-9.41 5.72-7.474 0-11.256-5.26-11.256-14.763v-11.808c0-10.334 5.444-16.239 15.408-16.239zm40.516 0c9.964 0 15.13 5.905 15.13 16.239v1.66c0 6.92-2.215 11.257-7.105 13.287 5.075 2.214 7.105 7.012 7.105 13.562v5.075c0 10.333-5.166 16.238-15.13 16.238-9.965 0-15.133-5.905-15.133-16.238v-5.352h9.596v5.998c0 4.613 2.03 6.365 5.26 6.365 3.229 0 5.257-1.568 5.257-7.289v-5.074c0-5.997-2.03-8.21-6.642-8.21h-3.415v-9.227h3.97c3.782 0 6.087-1.662 6.087-6.829v-3.597c0-5.813-2.028-7.381-5.258-7.381-3.229 0-5.26 1.752-5.26 6.365v4.153h-9.595v-3.506c0-10.334 5.168-16.239 15.133-16.239zm40.33 0c10.24 0 15.869 5.905 15.869 16.239v2.029c0 6.366-2.122 10.703-6.274 13.01 4.429 2.49 6.274 7.289 6.274 13.47v5.075c0 10.333-5.628 16.238-15.87 16.238-10.24 0-15.868-5.905-15.868-16.238v-5.075c0-6.181 1.844-10.98 6.273-13.47-4.244-2.307-6.273-6.644-6.273-13.01v-2.03c0-10.333 5.627-16.238 15.869-16.238zm-118.133.739h6.828v64.584h-10.148v-49.27h-7.844v-7.195c7.842 0 9.595-3.783 11.164-8.12zm118.133 8.488c-3.23 0-5.721 1.568-5.721 7.38v3.598c0 5.167 2.4 6.829 5.72 6.829 3.23 0 5.721-1.662 5.721-6.829v-3.597c0-5.813-2.491-7.381-5.72-7.381zm-80.846.092c-3.23 0-5.26 1.66-5.26 6.273v11.625c0 4.614 2.03 6.368 5.26 6.368s5.258-1.754 5.258-6.368v-11.625c0-4.613-2.029-6.273-5.258-6.273zm80.846 26.941c-3.599 0-5.721 2.215-5.721 7.29v5.995c0 5.72 2.491 7.29 5.72 7.29 3.23 0 5.63-1.57 5.721-7.29v-5.996c0-5.074-2.122-7.289-5.72-7.289z" fill="#002841"/></svg>