<svg xmlns="http://www.w3.org/2000/svg" width="512" height="660"><defs><filter color-interpolation-filters="sRGB" height="1.5" x="0" width="1" id="a"><feFlood flood-opacity=".1"/><feComposite operator="in" in2="SourceGraphic"/><feOffset result="result1" dy="2"/><feComposite in2="result1" in="SourceGraphic"/></filter></defs><path d="M46.5 0v660H512V0z" fill="#fff"/><path d="M38.246.211v659.577M72.07.211v659.577M105.895.211v659.577M139.719.211v659.577M173.544.211v659.577M207.368.211v659.577M241.193.211v659.577M275.017.211v659.577M308.842.211v659.577M342.666.211v659.577M376.491.211v659.577M410.315.211v659.577M444.14.211v659.577M477.964.211v659.577M4.422 34.036h507.367M4.422 67.86h507.367M4.422 101.685h507.367M4.422 135.509h507.367M4.422 169.334h507.367M4.422 203.158h507.367M4.422 236.983h507.367M4.422 270.807h507.367M4.422 304.632h507.367M4.422 338.456h507.367M4.422 372.281h507.367M4.422 406.105h507.367M4.422 439.93h507.367M4.422 473.754h507.367M4.422 507.578h507.367M4.422 541.403h507.367M4.422 575.227h507.367M4.422 609.052h507.367M4.422 642.876h507.367M12.878.211V659.79M21.334.21v659.577M29.79.211V659.79M46.702.21v659.58M55.158.21v659.58M63.614.21v659.58M80.527.21v659.58M88.983.21v659.58M97.439.21v659.58M114.35.21v659.58M122.807.21v659.58M131.263.21v659.58M148.176.21v659.58M156.632.21v659.58M165.088.21v659.58M182 .21v659.58M190.456.21v659.58M198.912.21v659.58M215.824.21v659.58M224.281.21v659.58M232.737.21v659.58M249.649.21v659.58M258.105.21v659.58M266.561.21v659.58M283.473.21v659.58M291.93.21v659.58M300.386.21v659.58M317.298.21v659.58M325.754.21v659.58M334.21.21v659.58M351.122.21v659.58M359.578.21v659.58M368.035.21v659.58M384.947.21v659.58M393.403.21v659.58M401.859.21v659.58M418.771.21v659.58M427.227.21v659.58M435.684.21v659.58M452.596.21v659.58M461.052.21v659.58M469.508.21v659.58M486.42.21v659.58M494.876.21v659.58M503.332.21v659.58M511.79.21H4.422v659.58h507.367V.21v659.577M4.422 8.668h507.367M4.422 17.124h507.367M4.422 25.58h507.367M4.422 42.492h507.367M4.422 50.948h507.367M4.422 59.404h507.367M4.422 76.316h507.367M4.422 84.773h507.367M4.422 93.229h507.367M4.422 110.14h507.367M4.422 118.597h507.367M4.422 127.053h507.367M4.422 143.965h507.367M4.422 152.422h507.367M4.422 160.878h507.367M4.422 177.79h507.367M4.422 186.246h507.367M4.422 194.702h507.367M4.422 211.614h507.367M4.422 220.07h507.367M4.422 228.527h507.367M4.422 245.439h507.367M4.422 253.895h507.367M4.422 262.35h507.367M4.422 279.263h507.367M4.422 287.72h507.367M4.422 296.176h507.367M4.422 313.088h507.367M4.422 321.544h507.367M4.422 330h507.367M4.422 346.912h507.367M4.422 355.368h507.367M4.422 363.824h507.367M4.422 380.737h507.367M4.422 389.193h507.367M4.422 397.649h507.367M4.422 414.56h507.367M4.422 423.017h507.367M4.422 431.473h507.367M4.422 448.386h507.367M4.422 456.842h507.367M4.422 465.298h507.367M4.422 482.21h507.367M4.422 490.666h507.367M4.422 499.122h507.367M4.422 516.035h507.367M4.422 524.49h507.367M4.422 532.947h507.367M4.422 549.859h507.367M4.422 558.315h507.367M4.422 566.771h507.367M4.422 583.684h507.367M4.422 592.14h507.367M4.422 600.596h507.367M4.422 617.508h507.367M4.422 625.964h507.367M4.422 634.42h507.367M4.422 651.333h507.367" fill="none" stroke="#e6e6e6" stroke-width=".423" stroke-miterlimit="10"/><g fill="#868686" fill-opacity=".118"><path d="M271.25 375.824c-131.148 0-237.55 106.403-237.55 237.551 0 131.148 106.402 237.55 237.55 237.55 131.148 0 237.55-106.402 237.55-237.55 0-131.148-106.402-237.55-237.55-237.55zm-10.987 457.483c-121.448 0-222.11-98.484-222.11-219.932s100.662-219.932 222.11-219.932c121.448 0 219.933 98.484 219.933 219.932S381.71 833.307 260.263 833.307z"/><path d="M249.277 411.06c-111.748 0-206.769 90.567-206.769 202.315s95.02 202.314 206.769 202.314c111.747 0 202.314-90.566 202.314-202.314 0-111.748-90.567-202.314-202.314-202.314zM238.29 798.17c-102.048 0-191.328-82.747-191.328-184.795 0-102.048 89.28-184.795 191.328-184.795s184.696 82.747 184.696 184.795c0 102.048-82.648 184.795-184.696 184.795z"/><path d="M227.303 446.199c-92.348 0-175.985 74.828-175.985 167.176 0 92.348 83.637 167.176 175.985 167.176 92.348 0 167.077-74.828 167.077-167.176 0-92.348-74.828-167.176-167.077-167.176zm-11.086 316.734c-82.647 0-160.544-67.01-160.544-149.558 0-82.549 77.996-149.558 160.544-149.558 82.55 0 149.657 66.91 149.657 149.558s-67.009 149.558-149.657 149.558z"/><path d="M205.23 481.435c-72.848 0-145.202 59.091-145.202 131.94 0 72.849 72.255 131.94 145.203 131.94 72.948 0 132.038-59.091 132.038-131.94 0-72.849-59.09-131.94-132.038-131.94zm-10.986 246.36c-63.149 0-129.762-51.172-129.762-114.42 0-63.248 66.613-114.42 129.762-114.42s114.42 51.271 114.42 114.42-51.271 114.42-114.42 114.42z"/><path d="M183.257 516.573c-53.449 0-114.42 43.353-114.42 96.802 0 53.449 60.971 96.802 114.42 96.802 53.45 0 96.802-43.353 96.802-96.802 0-53.449-43.353-96.802-96.802-96.802zM172.271 692.56c-43.75 0-98.98-35.435-98.98-79.184 0-43.749 55.23-79.184 98.98-79.184 43.748 0 79.183 35.435 79.183 79.184 0 43.749-35.435 79.184-79.183 79.184z"/></g><path d="M46.5 460.75v90H512v-90z" fill="#fff" fill-opacity=".627" filter="url(#a)"/><path d="M46.5 0v465.5H512V0z" fill="#fff" filter="url(#a)"/><g fill="#2daae4"><path d="M279.25 47.75c-102.135 0-185 82.865-185 185s82.865 185 185 185 185-82.865 185-185-82.865-185-185-185zm-8.556 356.28c-94.581 0-172.975-76.699-172.975-171.28S176.113 61.47 270.694 61.47c94.581 0 171.279 76.699 171.279 171.28s-76.698 171.28-171.28 171.28z"/><path d="M262.138 75.192c-87.028 0-161.028 70.53-161.028 157.558 0 87.027 74 157.558 161.028 157.558 87.027 0 157.558-70.53 157.558-157.558 0-87.027-70.531-157.558-157.558-157.558zm-8.557 301.473c-79.473 0-149.002-64.442-149.002-143.915S174.11 88.835 253.581 88.835c79.473 0 143.838 64.442 143.838 143.915S333.054 376.665 253.58 376.665z"/><path d="M245.025 102.556c-71.919 0-137.054 58.275-137.054 130.194 0 71.919 65.135 130.194 137.054 130.194s130.117-58.275 130.117-130.194c0-71.919-58.275-130.194-130.117-130.194zm-8.633 246.667c-64.365 0-125.03-52.186-125.03-116.473s60.742-116.473 125.03-116.473c64.287 0 116.55 52.108 116.55 116.473 0 64.365-52.186 116.473-116.55 116.473z"/><path d="M227.835 129.998c-56.733 0-113.08 46.019-113.08 102.752s56.27 102.752 113.08 102.752c56.81 0 102.83-46.019 102.83-102.752s-46.02-102.752-102.83-102.752zm-8.556 191.86c-49.179 0-101.056-39.852-101.056-89.108 0-49.256 51.877-89.108 101.056-89.108 49.18 0 89.108 39.929 89.108 89.108 0 49.18-39.929 89.108-89.108 89.108z"/><path d="M210.723 157.363c-41.625 0-89.108 33.762-89.108 75.387s47.483 75.387 89.108 75.387c41.625 0 75.387-33.762 75.387-75.387s-33.762-75.387-75.387-75.387zm-8.556 137.054c-34.071 0-77.084-27.596-77.084-61.667 0-34.07 43.013-61.667 77.084-61.667 34.07 0 61.666 27.596 61.666 61.667 0 34.07-27.595 61.667-61.666 61.667z"/></g><path d="M0 660h46.5V0H0z" fill="#2daae4"/></svg>