<svg xmlns="http://www.w3.org/2000/svg" width="40" height="40"><path d="M19.844 1a19 19 0 00-2.885.244l-.527 5.737a13.5 13.5 0 00-3.114 1.289l-4.43-3.682a19 19 0 00-4.3 4.3l3.682 4.43a13.5 13.5 0 00-1.29 3.116l-5.734.527A19 19 0 001 20.001a19 19 0 00.244 3.038l5.736.53a13.5 13.5 0 001.29 3.113l-3.682 4.43a19 19 0 004.303 4.3l4.427-3.681a13.5 13.5 0 003.114 1.289l.527 5.734A19 19 0 0020 39a19 19 0 003.041-.244l.527-5.736a13.5 13.5 0 003.114-1.29l4.43 3.682a19 19 0 004.3-4.303l-3.682-4.427a13.5 13.5 0 001.29-3.116l5.734-.527A19 19 0 0039 20a19 19 0 00-.244-3.04l-5.736-.528a13.5 13.5 0 00-1.29-3.114l3.682-4.43a19 19 0 00-4.3-4.298l-4.43 3.682a13.5 13.5 0 00-3.114-1.291l-.527-5.735A19 19 0 0020 1a19 19 0 00-.156 0zm.119 11.5a7.5 7.5 0 01.037 0 7.5 7.5 0 017.5 7.5 7.5 7.5 0 01-7.5 7.5 7.5 7.5 0 01-7.5-7.5 7.5 7.5 0 017.463-7.5z" fill="#ecf0f1"/></svg>