<svg xmlns="http://www.w3.org/2000/svg" width="36" height="36"><path d="M32.496 4.211c3.311 3.312 3.311 8.71 0 12.021l-4.79 4.79c.334-1.418.364-2.893.076-4.319l2.592-2.592a5.455 5.455 0 0 0 0-7.778l-.707-.707a5.455 5.455 0 0 0-7.778 0l-7.778 7.778a5.455 5.455 0 0 0 0 7.778l.707.707a5.474 5.474 0 0 0 4.034 1.623l-2.617 2.617a8.439 8.439 0 0 1-3.538-2.119l-.707-.707c-3.312-3.311-3.312-8.71 0-12.02l7.778-7.779c3.311-3.311 8.71-3.311 12.02 0zm-8.486 8.486c3.312 3.311 3.312 8.71 0 12.02l-7.778 7.779c-3.311 3.311-8.71 3.311-12.02 0l-.708-.707c-3.311-3.312-3.311-8.71 0-12.021l4.79-4.79a10.111 10.111 0 0 0-.076 4.319l-2.592 2.592a5.455 5.455 0 0 0 0 7.778l.707.707a5.455 5.455 0 0 0 7.778 0l7.778-7.778a5.455 5.455 0 0 0 0-7.778l-.707-.707a5.474 5.474 0 0 0-4.034-1.623l2.617-2.617a8.439 8.439 0 0 1 3.538 2.119z"/></svg>