<?xml version="1.0" encoding="UTF-8" standalone="no"?>
<!-- Created with Inkscape (http://www.inkscape.org/) -->

<svg
   xmlns:dc="http://purl.org/dc/elements/1.1/"
   xmlns:cc="http://creativecommons.org/ns#"
   xmlns:rdf="http://www.w3.org/1999/02/22-rdf-syntax-ns#"
   xmlns:svg="http://www.w3.org/2000/svg"
   xmlns="http://www.w3.org/2000/svg"
   xmlns:xlink="http://www.w3.org/1999/xlink"
   xmlns:sodipodi="http://sodipodi.sourceforge.net/DTD/sodipodi-0.dtd"
   xmlns:inkscape="http://www.inkscape.org/namespaces/inkscape"
   width="297mm"
   height="210mm"
   viewBox="0 0 1052.3622 744.09448"
   id="svg2"
   version="1.1"
   inkscape:version="0.92.3 (2405546, 2018-03-11)"
   sodipodi:docname="img-0098.svg"
   inkscape:export-filename="img-0098.png"
   inkscape:export-xdpi="141.90135"
   inkscape:export-ydpi="141.90135">
  <sodipodi:namedview
     id="base"
     pagecolor="#ffffff"
     bordercolor="#666666"
     borderopacity="1.0"
     inkscape:pageopacity="0.0"
     inkscape:pageshadow="2"
     inkscape:zoom="0.7"
     inkscape:cx="-237.28671"
     inkscape:cy="320.83798"
     inkscape:document-units="px"
     inkscape:current-layer="g122"
     showgrid="false"
     inkscape:window-width="1920"
     inkscape:window-height="1057"
     inkscape:window-x="-8"
     inkscape:window-y="-8"
     inkscape:window-maximized="1" />
  <defs
     id="defs4">
    <inkscape:path-effect
       effect="powerstroke"
       id="path-effect4665"
       is_visible="true"
       offset_points="0,0.5"
       sort_points="true"
       interpolator_type="CubicBezierJohan"
       interpolator_beta="0.2"
       start_linecap_type="zerowidth"
       linejoin_type="round"
       miter_limit="4"
       end_linecap_type="zerowidth"
       cusp_linecap_type="round" />
    <inkscape:path-effect
       effect="powerstroke"
       id="path-effect4645"
       is_visible="true"
       offset_points="0,0.5"
       sort_points="true"
       interpolator_type="CubicBezierJohan"
       interpolator_beta="0.2"
       start_linecap_type="zerowidth"
       linejoin_type="round"
       miter_limit="4"
       end_linecap_type="zerowidth"
       cusp_linecap_type="round" />
    <inkscape:path-effect
       effect="powerstroke"
       id="path-effect4570"
       is_visible="true"
       offset_points="0,0.5"
       sort_points="true"
       interpolator_type="CubicBezierJohan"
       interpolator_beta="0.2"
       start_linecap_type="zerowidth"
       linejoin_type="round"
       miter_limit="4"
       end_linecap_type="zerowidth"
       cusp_linecap_type="round" />
    <inkscape:path-effect
       cusp_linecap_type="round"
       end_linecap_type="zerowidth"
       miter_limit="4"
       linejoin_type="round"
       start_linecap_type="zerowidth"
       interpolator_beta="0.2"
       interpolator_type="Linear"
       sort_points="true"
       offset_points="5.0432396e-005,-0.2142456"
       is_visible="true"
       id="path-effect3400"
       effect="powerstroke" />
    <inkscape:path-effect
       cusp_linecap_type="round"
       end_linecap_type="zerowidth"
       miter_limit="4"
       linejoin_type="round"
       start_linecap_type="zerowidth"
       interpolator_beta="0.2"
       interpolator_type="CubicBezierJohan"
       sort_points="true"
       offset_points="0,0.5"
       is_visible="true"
       id="path-effect3396"
       effect="powerstroke" />
    <inkscape:path-effect
       cusp_linecap_type="round"
       end_linecap_type="zerowidth"
       miter_limit="4"
       linejoin_type="round"
       start_linecap_type="zerowidth"
       interpolator_beta="0.2"
       interpolator_type="Linear"
       sort_points="true"
       offset_points="0,9.6212397"
       is_visible="true"
       id="path-effect3392"
       effect="powerstroke" />
    <inkscape:path-effect
       cusp_linecap_type="round"
       end_linecap_type="zerowidth"
       miter_limit="4"
       linejoin_type="round"
       start_linecap_type="zerowidth"
       interpolator_beta="0.2"
       interpolator_type="CubicBezierJohan"
       sort_points="true"
       offset_points="0,0.5"
       is_visible="true"
       id="path-effect3388"
       effect="powerstroke" />
    <marker
       inkscape:stockid="DotS"
       orient="auto"
       refY="0.0"
       refX="0.0"
       id="marker4563"
       style="overflow:visible"
       inkscape:isstock="true">
      <path
         id="path4565"
         d="M -2.5,-1.0 C -2.5,1.7600000 -4.7400000,4.0 -7.5,4.0 C -10.260000,4.0 -12.5,1.7600000 -12.5,-1.0 C -12.5,-3.7600000 -10.260000,-6.0 -7.5,-6.0 C -4.7400000,-6.0 -2.5,-3.7600000 -2.5,-1.0 z "
         style="fill-rule:evenodd;stroke:#4e1700;stroke-width:1pt;stroke-opacity:1;fill:#4e1700;fill-opacity:1"
         transform="scale(0.2) translate(7.4, 1)" />
    </marker>
    <marker
       inkscape:isstock="true"
       style="overflow:visible"
       id="DotS"
       refX="0.0"
       refY="0.0"
       orient="auto"
       inkscape:stockid="DotS">
      <path
         transform="scale(0.2) translate(7.4, 1)"
         style="fill-rule:evenodd;stroke:#0000b4;stroke-width:1pt;stroke-opacity:1;fill:#0000b4;fill-opacity:1"
         d="M -2.5,-1.0 C -2.5,1.7600000 -4.7400000,4.0 -7.5,4.0 C -10.260000,4.0 -12.5,1.7600000 -12.5,-1.0 C -12.5,-3.7600000 -10.260000,-6.0 -7.5,-6.0 C -4.7400000,-6.0 -2.5,-3.7600000 -2.5,-1.0 z "
         id="path4226" />
    </marker>
    <marker
       inkscape:isstock="true"
       style="overflow:visible"
       id="marker4435"
       refX="0.0"
       refY="0.0"
       orient="auto"
       inkscape:stockid="DotM">
      <path
         transform="scale(0.4) translate(7.4, 1)"
         style="fill-rule:evenodd;stroke:#000080;stroke-width:1pt;stroke-opacity:1;fill:#000080;fill-opacity:1"
         d="M -2.5,-1.0 C -2.5,1.7600000 -4.7400000,4.0 -7.5,4.0 C -10.260000,4.0 -12.5,1.7600000 -12.5,-1.0 C -12.5,-3.7600000 -10.260000,-6.0 -7.5,-6.0 C -4.7400000,-6.0 -2.5,-3.7600000 -2.5,-1.0 z "
         id="path4437" />
    </marker>
    <marker
       inkscape:isstock="true"
       style="overflow:visible"
       id="DotM"
       refX="0.0"
       refY="0.0"
       orient="auto"
       inkscape:stockid="DotM">
      <path
         transform="scale(0.4) translate(7.4, 1)"
         style="fill-rule:evenodd;stroke:#000080;stroke-width:1pt;stroke-opacity:1;fill:#000080;fill-opacity:1"
         d="M -2.5,-1.0 C -2.5,1.7600000 -4.7400000,4.0 -7.5,4.0 C -10.260000,4.0 -12.5,1.7600000 -12.5,-1.0 C -12.5,-3.7600000 -10.260000,-6.0 -7.5,-6.0 C -4.7400000,-6.0 -2.5,-3.7600000 -2.5,-1.0 z "
         id="path4223" />
    </marker>
    <marker
       inkscape:isstock="true"
       style="overflow:visible"
       id="marker4639-0"
       refX="0"
       refY="0"
       orient="auto"
       inkscape:stockid="DotS">
      <path
         transform="matrix(0.2,0,0,0.2,1.48,0.2)"
         style="fill:#000080;fill-opacity:1;fill-rule:evenodd;stroke:#000080;stroke-width:1pt;stroke-opacity:1"
         d="m -2.5,-1 c 0,2.76 -2.24,5 -5,5 -2.76,0 -5,-2.24 -5,-5 0,-2.76 2.24,-5 5,-5 2.76,0 5,2.24 5,5 z"
         id="path4641-8"
         inkscape:connector-curvature="0" />
    </marker>
    <marker
       inkscape:isstock="true"
       style="overflow:visible"
       id="DotS-2"
       refX="0"
       refY="0"
       orient="auto"
       inkscape:stockid="DotS">
      <path
         transform="matrix(0.2,0,0,0.2,1.48,0.2)"
         style="fill:#000080;fill-opacity:1;fill-rule:evenodd;stroke:#000080;stroke-width:1pt;stroke-opacity:1"
         d="m -2.5,-1 c 0,2.76 -2.24,5 -5,5 -2.76,0 -5,-2.24 -5,-5 0,-2.76 2.24,-5 5,-5 2.76,0 5,2.24 5,5 z"
         id="path4226-1"
         inkscape:connector-curvature="0" />
    </marker>
    <marker
       inkscape:isstock="true"
       style="overflow:visible"
       id="marker4639-3"
       refX="0"
       refY="0"
       orient="auto"
       inkscape:stockid="DotS">
      <path
         transform="matrix(0.2,0,0,0.2,1.48,0.2)"
         style="fill:#000080;fill-opacity:1;fill-rule:evenodd;stroke:#000080;stroke-width:1pt;stroke-opacity:1"
         d="m -2.5,-1 c 0,2.76 -2.24,5 -5,5 -2.76,0 -5,-2.24 -5,-5 0,-2.76 2.24,-5 5,-5 2.76,0 5,2.24 5,5 z"
         id="path4641-0"
         inkscape:connector-curvature="0" />
    </marker>
    <marker
       inkscape:isstock="true"
       style="overflow:visible"
       id="DotS-5"
       refX="0"
       refY="0"
       orient="auto"
       inkscape:stockid="DotS">
      <path
         transform="matrix(0.2,0,0,0.2,1.48,0.2)"
         style="fill:#000080;fill-opacity:1;fill-rule:evenodd;stroke:#000080;stroke-width:1pt;stroke-opacity:1"
         d="m -2.5,-1 c 0,2.76 -2.24,5 -5,5 -2.76,0 -5,-2.24 -5,-5 0,-2.76 2.24,-5 5,-5 2.76,0 5,2.24 5,5 z"
         id="path4226-19"
         inkscape:connector-curvature="0" />
    </marker>
    <marker
       inkscape:isstock="true"
       style="overflow:visible"
       id="marker4639-37"
       refX="0"
       refY="0"
       orient="auto"
       inkscape:stockid="DotS">
      <path
         transform="matrix(0.2,0,0,0.2,1.48,0.2)"
         style="fill:#000080;fill-opacity:1;fill-rule:evenodd;stroke:#000080;stroke-width:1pt;stroke-opacity:1"
         d="m -2.5,-1 c 0,2.76 -2.24,5 -5,5 -2.76,0 -5,-2.24 -5,-5 0,-2.76 2.24,-5 5,-5 2.76,0 5,2.24 5,5 z"
         id="path4641-6"
         inkscape:connector-curvature="0" />
    </marker>
    <marker
       inkscape:isstock="true"
       style="overflow:visible"
       id="DotS-9"
       refX="0"
       refY="0"
       orient="auto"
       inkscape:stockid="DotS">
      <path
         transform="matrix(0.2,0,0,0.2,1.48,0.2)"
         style="fill:#000080;fill-opacity:1;fill-rule:evenodd;stroke:#000080;stroke-width:1pt;stroke-opacity:1"
         d="m -2.5,-1 c 0,2.76 -2.24,5 -5,5 -2.76,0 -5,-2.24 -5,-5 0,-2.76 2.24,-5 5,-5 2.76,0 5,2.24 5,5 z"
         id="path4226-5"
         inkscape:connector-curvature="0" />
    </marker>
    <marker
       inkscape:stockid="DotS"
       orient="auto"
       refY="0"
       refX="0"
       id="marker4563-8"
       style="overflow:visible"
       inkscape:isstock="true">
      <path
         id="path4565-3"
         d="m -2.5,-1 c 0,2.76 -2.24,5 -5,5 -2.76,0 -5,-2.24 -5,-5 0,-2.76 2.24,-5 5,-5 2.76,0 5,2.24 5,5 z"
         style="fill:#0000b4;fill-opacity:1;fill-rule:evenodd;stroke:#0000b4;stroke-width:1pt;stroke-opacity:1"
         transform="matrix(0.2,0,0,0.2,1.48,0.2)"
         inkscape:connector-curvature="0" />
    </marker>
    <marker
       inkscape:stockid="DotS"
       orient="auto"
       refY="0"
       refX="0"
       id="marker3412"
       style="overflow:visible"
       inkscape:isstock="true">
      <path
         id="path3414"
         d="m -2.5,-1 c 0,2.76 -2.24,5 -5,5 -2.76,0 -5,-2.24 -5,-5 0,-2.76 2.24,-5 5,-5 2.76,0 5,2.24 5,5 z"
         style="fill:#4e1700;fill-opacity:1;fill-rule:evenodd;stroke:#4e1700;stroke-width:1pt;stroke-opacity:1"
         transform="matrix(0.2,0,0,0.2,1.48,0.2)"
         inkscape:connector-curvature="0" />
    </marker>
    <inkscape:path-effect
       effect="powerstroke"
       id="path-effect4570-0"
       is_visible="true"
       offset_points="4.4829706e-005,0.005963835"
       sort_points="true"
       interpolator_type="Linear"
       interpolator_beta="0.2"
       start_linecap_type="zerowidth"
       linejoin_type="round"
       miter_limit="4"
       end_linecap_type="zerowidth"
       cusp_linecap_type="round" />
  </defs>
  <metadata
     id="metadata7">
    <rdf:RDF>
      <cc:Work
         rdf:about="">
        <dc:format>image/svg+xml</dc:format>
        <dc:type
           rdf:resource="http://purl.org/dc/dcmitype/StillImage" />
        <dc:title />
      </cc:Work>
    </rdf:RDF>
  </metadata>
  <g
     transform="translate(0,-308.26772)"
     id="layer1"
     inkscape:groupmode="layer"
     inkscape:label="Capa 1">
    <rect
       style="color:#000000;clip-rule:nonzero;display:inline;overflow:visible;visibility:visible;opacity:1;isolation:auto;mix-blend-mode:normal;color-interpolation:sRGB;color-interpolation-filters:linearRGB;solid-color:#000000;solid-opacity:1;fill:#ffffff;fill-opacity:1;fill-rule:evenodd;stroke:none;stroke-width:1.06299996;stroke-linecap:round;stroke-linejoin:miter;stroke-miterlimit:4;stroke-dasharray:none;stroke-dashoffset:0;stroke-opacity:1;color-rendering:auto;image-rendering:auto;shape-rendering:auto;text-rendering:auto;enable-background:accumulate"
       id="rect3466"
       width="649.25623"
       height="402.11035"
       x="226.6106"
       y="435.63177"
       inkscape:export-xdpi="150.04541"
       inkscape:export-ydpi="150.04541"
       sodipodi:insensitive="true" />
    <image
       xlink:href="../_images/img-0078.jpg"
       y="469.25607"
       x="230.1176"
       id="image4562"
       preserveAspectRatio="none"
       height="366.17142"
       width="529.71429"
       sodipodi:insensitive="true" />
    <g
       id="g122"
       inkscape:label="textos">
      <g
         id="g99"
         inkscape:label="power_led">
        <ellipse
           style="color:#000000;clip-rule:nonzero;display:inline;overflow:visible;visibility:visible;opacity:1;isolation:auto;mix-blend-mode:normal;color-interpolation:sRGB;color-interpolation-filters:linearRGB;solid-color:#000000;solid-opacity:1;fill:none;fill-opacity:1;fill-rule:evenodd;stroke:#ff0000;stroke-width:3.000561;stroke-linecap:round;stroke-linejoin:miter;stroke-miterlimit:4;stroke-dasharray:none;stroke-dashoffset:0;stroke-opacity:1;color-rendering:auto;image-rendering:auto;shape-rendering:auto;text-rendering:auto;enable-background:accumulate"
           id="path4566"
           cx="685.13965"
           cy="565.4209"
           rx="19.057123"
           ry="19.042032"
           transform="matrix(0.99962604,0.02734566,0,1,0,0)"
           inkscape:transform-center-x="-2.0203051"
           inkscape:transform-center-y="2.0203051" />
        <path
           style="fill:none;fill-rule:evenodd;stroke:#ff0000;stroke-width:2.5;stroke-linecap:butt;stroke-linejoin:miter;stroke-miterlimit:4;stroke-dasharray:none;stroke-opacity:1"
           d="m 699.53063,572.53975 c 0,0 0.28107,0.41352 0.28107,0.41352 9.98232,-6.78486 22.38133,-15.25869 32.9746,-22.5468 10.78139,-7.41753 18.33049,-12.6679 23.20239,-16.10992 4.09801,-2.89528 5.93337,-4.25045 6.81271,-4.93147 0.49774,-0.38548 0.69942,-0.56317 0.79058,-0.65332 0.054,-0.0534 0.0732,-0.0802 0.0807,-0.0945 0.002,-0.004 0.003,-0.007 0.004,-0.01 7.2e-4,-0.003 8.5e-4,-0.005 7.3e-4,-0.006 -7e-5,-7.5e-4 -2.1e-4,-0.001 -3.9e-4,-0.002 -9e-5,-2.6e-4 -2e-4,-4.9e-4 -3.1e-4,-7e-4 -1.2e-4,-2.2e-4 -2.4e-4,-4.1e-4 -3.8e-4,-5.6e-4 -1.4e-4,-1.6e-4 -3e-4,-2.8e-4 -4.5e-4,-3.4e-4 -1.6e-4,-7e-5 -2.9e-4,-6e-5 -3.8e-4,-3e-5 -9e-5,4e-5 -1.4e-4,9e-5 -1.7e-4,1.2e-4 -3e-5,6e-5 -2e-5,8e-5 -2e-5,1.2e-4 -10e-6,4e-5 -2e-5,1e-4 -9e-5,1.6e-4 -6e-5,5e-5 -1.6e-4,9e-5 -2.9e-4,7e-5 -1.4e-4,-10e-6 -2.7e-4,-7e-5 -4.2e-4,-1.4e-4 -1.4e-4,-8e-5 -2.8e-4,-1.6e-4 -4.4e-4,-2.4e-4 -1.6e-4,-8e-5 -3.2e-4,-1.6e-4 -5.1e-4,-2.3e-4 -3.7e-4,-1.4e-4 -8.3e-4,-2.6e-4 -0.001,-3.3e-4 -0.001,-1.4e-4 -0.003,-1e-4 -0.005,3.4e-4 -0.002,4.3e-4 -0.005,0.001 -0.009,0.003 -0.0144,0.005 -0.043,0.0181 -0.10823,0.0557 -0.11221,0.0646 -0.33481,0.20238 -0.86276,0.5482 -0.95317,0.62436 -2.79962,1.85888 -6.98218,4.68077 -0.37515,0.2531 -23.01881,15.57138 -23.39396,15.82448 6.84997,-4.63854 -39.91104,27.05519 -33.06107,22.41665 0,0 0.28107,0.41352 0.28107,0.41352 z"
           id="path4568"
           inkscape:path-effect="#path-effect4570"
           inkscape:original-d="m 699.53063,572.53975 c 64.64977,-43.94163 64.14469,-43.94163 64.14469,-43.94163"
           inkscape:connector-curvature="0" />
        <flowRoot
           xml:space="preserve"
           id="flowRoot4655"
           style="font-style:normal;font-variant:normal;font-weight:normal;font-stretch:normal;line-height:0.01%;font-family:sans-serif;-inkscape-font-specification:'sans-serif, Normal';text-align:start;letter-spacing:0px;word-spacing:0px;writing-mode:lr-tb;text-anchor:start;fill:#000000;fill-opacity:1;stroke:none;stroke-width:1px;stroke-linecap:butt;stroke-linejoin:miter;stroke-opacity:1"
           transform="translate(0,308.26772)"><flowRegion
             id="flowRegion4657"><rect
               id="rect4659"
               width="98.489838"
               height="52.527946"
               x="771.75653"
               y="201.64258" /></flowRegion><flowPara
             id="flowPara4661"
             style="font-size:20px;line-height:1.25">Power On LED</flowPara></flowRoot>      </g>
      <g
         id="g91"
         inkscape:label="pin_13"
         transform="translate(3.375)">
        <ellipse
           style="color:#000000;clip-rule:nonzero;display:inline;overflow:visible;visibility:visible;opacity:1;isolation:auto;mix-blend-mode:normal;color-interpolation:sRGB;color-interpolation-filters:linearRGB;solid-color:#000000;solid-opacity:1;fill:none;fill-opacity:1;fill-rule:evenodd;stroke:#ff0000;stroke-width:3.000561;stroke-linecap:round;stroke-linejoin:miter;stroke-miterlimit:4;stroke-dasharray:none;stroke-dashoffset:0;stroke-opacity:1;color-rendering:auto;image-rendering:auto;shape-rendering:auto;text-rendering:auto;enable-background:accumulate"
           id="path4566-8"
           cx="478.53809"
           cy="533.64813"
           rx="19.057123"
           ry="19.042032"
           transform="matrix(0.99962604,0.02734566,0,1,0,0)"
           inkscape:transform-center-x="-2.0203051"
           inkscape:transform-center-y="2.0203051" />
        <flowRoot
           xml:space="preserve"
           id="flowRoot4647"
           style="font-style:normal;font-variant:normal;font-weight:normal;font-stretch:normal;line-height:0.01%;font-family:sans-serif;-inkscape-font-specification:'sans-serif, Normal';text-align:start;letter-spacing:0px;word-spacing:0px;writing-mode:lr-tb;text-anchor:start;fill:#000000;fill-opacity:1;stroke:none;stroke-width:1px;stroke-linecap:butt;stroke-linejoin:miter;stroke-opacity:1"
           transform="translate(-188.89852,304.22711)"><flowRegion
             id="flowRegion4649"><rect
               id="rect4651"
               width="72.73098"
               height="25.253813"
               x="550.53314"
               y="135.98267" /></flowRegion><flowPara
             id="flowPara4653"
             style="font-size:20px;line-height:1.25">Pin 13</flowPara></flowRoot>        <path
           style="fill:none;fill-rule:evenodd;stroke:#ff0000;stroke-width:3;stroke-linecap:round;stroke-linejoin:miter;stroke-miterlimit:4;stroke-dasharray:none;stroke-opacity:1"
           d="m 469.46428,529.14792 -42.5,-77.32142"
           id="path4667"
           inkscape:connector-curvature="0"
           sodipodi:nodetypes="cc" />
      </g>
      <g
         id="g83"
         inkscape:label="comunicaciones"
         transform="translate(0.46875,-0.46875)">
        <ellipse
           style="color:#000000;clip-rule:nonzero;display:inline;overflow:visible;visibility:visible;opacity:1;isolation:auto;mix-blend-mode:normal;color-interpolation:sRGB;color-interpolation-filters:linearRGB;solid-color:#000000;solid-opacity:1;fill:none;fill-opacity:1;fill-rule:evenodd;stroke:#ff0000;stroke-width:3.000561;stroke-linecap:round;stroke-linejoin:miter;stroke-miterlimit:4;stroke-dasharray:none;stroke-dashoffset:0;stroke-opacity:1;color-rendering:auto;image-rendering:auto;shape-rendering:auto;text-rendering:auto;enable-background:accumulate"
           id="path4566-8-6"
           cx="481.53311"
           cy="579.12726"
           rx="19.057123"
           ry="19.042032"
           transform="matrix(0.99962604,0.02734566,0,1,0,0)"
           inkscape:transform-center-x="-2.0203051"
           inkscape:transform-center-y="2.0203051" />
        <path
           style="fill:none;fill-rule:evenodd;stroke:#ff0000;stroke-width:3;stroke-linecap:round;stroke-linejoin:miter;stroke-miterlimit:4;stroke-dasharray:none;stroke-opacity:1"
           d="M 493.16628,576.72926 579.46073,453.95097"
           id="path4667-8"
           inkscape:connector-curvature="0"
           sodipodi:nodetypes="cc" />
        <flowRoot
           xml:space="preserve"
           id="flowRoot4687"
           style="font-style:normal;font-variant:normal;font-weight:normal;font-stretch:normal;line-height:0.01%;font-family:sans-serif;-inkscape-font-specification:'sans-serif, Normal';text-align:start;letter-spacing:0px;word-spacing:0px;writing-mode:lr-tb;text-anchor:start;fill:#000000;fill-opacity:1;stroke:none;stroke-width:1px;stroke-linecap:butt;stroke-linejoin:miter;stroke-opacity:1"
           transform="translate(0,308.26772)"><flowRegion
             id="flowRegion4689"><rect
               id="rect4691"
               width="255.06351"
               height="24.748739"
               x="587.90875"
               y="135.47758" /></flowRegion><flowPara
             id="flowPara4693"
             style="font-size:20px;line-height:1.25">LEDs de comunicaciones</flowPara></flowRoot>      </g>
    </g>
  </g>
</svg>
