<?xml version="1.0" encoding="UTF-8" standalone="no"?>
<!DOCTYPE svg PUBLIC "-//W3C//DTD SVG 1.1//EN"
"http://www.w3.org/Graphics/SVG/1.1/DTD/svg11.dtd">
<svg viewBox="0 0 909 1286" version="1.1" xmlns="http://www.w3.org/2000/svg" xmlns:xlink="http://www.w3.org/1999/xlink">
<defs>
<style type="text/css"><![CDATA[
.g0_1{
}
.g1_1{
fill: #0000FF;
}
.g2_1{
fill: #FFFFFF;
}
.g3_1{
fill: none;
stroke: #FF0000;
stroke-width: 1.145;
stroke-linecap: round;
stroke-linejoin: miter;
stroke-miterlimit: 8;
}
.g4_1{
fill: #FF0000;
}
.g5_1{
fill: none;
stroke: #FF0000;
stroke-width: 1.145;
stroke-linecap: round;
stroke-linejoin: round;
}
.g6_1{
fill: none;
stroke: #000000;
stroke-width: 1.104;
stroke-linecap: round;
stroke-linejoin: round;
}
.g7_1{
fill: none;
stroke: #000000;
stroke-width: 0.366;
stroke-linecap: round;
stroke-linejoin: round;
}
.g8_1{
fill: none;
stroke: #FFFFFF;
stroke-width: 1.099;
stroke-linecap: round;
stroke-linejoin: round;
}
.g9_1{
fill: #E6E6E6;
}
.ga_1{
fill: none;
stroke: #000000;
stroke-width: 1.099;
stroke-linecap: round;
stroke-linejoin: round;
}
]]></style>
</defs>
<path d="M97.4,184.2H812.2v-2.3H97.4v2.3Z" class="g0_1"/>
<path d="M99.6,1202.8H243.5v-1.5H99.6v1.5Z" class="g1_1"/>
<path d="M97.4,1184.6H812.2v-2.3H97.4v2.3Z" class="g0_1"/>
<path d="M99.6,113.5h96.3V68.1H99.6v45.4Z" class="g2_1"/>
<path d="M195.9,68H99.6v45.5h96.3V68Z" class="g3_1"/>
<path fill-rule="evenodd" d="M138.4,80.8c-1.7,.1,-2.9,.5,-3.7,1.1c-.7,.6,-1.5,1.9,-2.3,3.9c-1.3,3.4,-2.7,6.8,-4.1,10.2c-1.1,2.8,-2.3,4.8,-3.6,6.3c-2.5,2.7,-6,4,-10.3,4c-4.3,0,-6.5,-1.3,-6.8,-4.1c-.1,-1.3,.3,-3.1,1.3,-5.8c1.6,-4,3.4,-7.9,4.9,-12.1c.6,-1.3,.7,-2.3,.3,-2.8c-.3,-.5,-1.3,-.7,-3,-.7c.1,-.3,.2,-.5,.3,-.8c3.7,0,7.3,0,11,0c-.1,.3,-.2,.5,-.3,.8c-1.7,0,-2.9,.3,-3.6,.8c-.8,.4,-1.5,1.4,-2.1,2.7c-1.5,4.2,-3.4,8.3,-4.9,12.5c-2.2,5.6,-.8,8.3,4.4,8.3c2.9,0,5.6,-1.1,7.9,-3.4c1,-1,2,-2.7,3.1,-5.4c1.3,-3.5,2.7,-7,4.1,-10.5c.8,-2.1,1.2,-3.4,1,-4c-.3,-.6,-1,-1,-2.4,-1c.1,-.3,.2,-.5,.3,-.8c2.9,0,5.9,0,8.8,0c-.1,.3,-.2,.5,-.3,.8Z" class="g4_1"/>
<path fill-rule="evenodd" d="M160.2,86.4c-.3,0,-.6,0,-.9,0c.5,-2.2,.3,-3.6,-.3,-4.3c-.6,-.5,-2.1,-.8,-4.5,-.8c-.7,0,-1.5,0,-2.3,0c-1.4,3.8,-3,7.4,-4.4,11.1c-1.2,3,-2.5,5.9,-3.6,8.9c-.6,1.4,-.7,2.3,-.3,2.9c.5,.5,1.5,.9,3.1,.9c-.1,.3,-.2,.5,-.2,.8c-3.8,0,-7.6,0,-11.3,0c.1,-.3,.2,-.5,.3,-.8c1.8,0,3.1,-.4,4,-1.1c.6,-.6,1.4,-1.6,2,-3.3c1.9,-4.9,3.9,-9.9,6,-14.8c.5,-1.6,1.2,-3,1.8,-4.6c-.6,0,-1.3,0,-1.8,0c-.3,0,-.5,0,-.8,0c-2.3,0,-3.9,.3,-5,.9c-1.1,.7,-2.3,2,-3.6,4.2c-.3,0,-.6,0,-1,0c.9,-2.2,1.8,-4.2,2.8,-6.3c2.5,0,5,0,7.6,0c4.8,0,9.8,0,14.6,0c-.7,2.1,-1.4,4.1,-2.2,6.3Z" class="g4_1"/>
<path fill-rule="evenodd" d="M180,101.5c-.9,.9,-2.3,1.8,-4,2.6c-2.9,1.5,-5.8,2.2,-8.6,2.2c-3.7,0,-6.3,-1,-7.8,-3.1c-1.8,-2.4,-1.9,-5.9,-.1,-10.3c1.6,-4.2,4.3,-7.4,8.1,-9.9c3.5,-2.3,7,-3.5,10.7,-3.5c1.5,0,2.9,.3,4.3,.6c1.5,.5,2.2,.7,2.2,.7c.7,0,1.6,-.3,2.2,-1.2c.4,0,.6,0,.8,-.1c-1,2.7,-2,5.7,-3,8.4c-.3,.1,-.6,.1,-.8,.1c.6,-5,-1.3,-7.3,-5.8,-7.3c-1.3,0,-2.7,.1,-4.2,.5c-1.7,.6,-3.1,1.1,-4.2,1.9c-3.2,2.2,-5.7,5.4,-7.5,9.8c-1.5,4,-1.4,7,.1,9.2c1.4,1.9,3.7,2.9,6.6,2.9c3.4,0,7,-1.4,10.8,-4.2c0,.3,.1,.5,.2,.7Z" class="g4_1"/>
<path d="M138.4,80.8c-1.7,.1,-2.9,.5,-3.7,1.1c-.7,.6,-1.5,1.9,-2.3,3.9c-1.3,3.4,-2.7,6.8,-4.1,10.2c-1.1,2.8,-2.3,4.8,-3.6,6.3c-2.5,2.7,-6,4,-10.3,4c-4.3,0,-6.5,-1.3,-6.8,-4.1c-.1,-1.3,.3,-3.1,1.3,-5.8c1.6,-4,3.4,-7.9,4.9,-12.1c.6,-1.3,.7,-2.3,.3,-2.8c-.3,-.5,-1.3,-.7,-3,-.7c.1,-.3,.2,-.5,.3,-.8c3.7,0,7.3,0,11,0c-.1,.3,-.2,.5,-.3,.8c-1.7,0,-2.9,.3,-3.6,.8c-.8,.4,-1.5,1.4,-2.1,2.7c-1.5,4.2,-3.4,8.3,-4.9,12.5c-2.2,5.6,-.8,8.3,4.4,8.3c2.9,0,5.6,-1.1,7.9,-3.4c1,-1,2,-2.7,3.1,-5.4c1.3,-3.5,2.7,-7,4.1,-10.5c.8,-2.1,1.2,-3.4,1,-4c-.3,-.6,-1,-1,-2.4,-1c.1,-.3,.2,-.5,.3,-.8c2.9,0,5.9,0,8.8,0c-.1,.3,-.2,.5,-.3,.8Zm21.8,5.5c-.3,0,-.6,0,-.9,0c.5,-2.1,.3,-3.5,-.3,-4.2c-.6,-.5,-2.1,-.8,-4.5,-.8c-.7,0,-1.5,0,-2.3,0c-1.4,3.8,-3,7.4,-4.4,11.1c-1.2,3,-2.5,5.9,-3.6,8.9c-.6,1.4,-.7,2.3,-.3,2.9c.5,.5,1.5,.8,3.1,.9c-.1,.3,-.2,.5,-.2,.8c-3.8,0,-7.6,0,-11.3,0c.1,-.3,.2,-.5,.3,-.8c1.8,-.1,3.1,-.4,4,-1.2c.6,-.5,1.4,-1.5,2,-3.2c1.9,-4.9,3.9,-9.9,6,-14.8c.5,-1.6,1.2,-3,1.8,-4.6c-.6,0,-1.3,0,-1.8,0c-.3,0,-.5,0,-.8,0c-2.3,0,-3.9,.3,-5,.9c-1.1,.7,-2.3,1.9,-3.6,4.1c-.3,0,-.6,0,-1,0c.9,-2.1,1.8,-4.1,2.8,-6.2c2.5,0,5,0,7.6,0c4.8,0,9.8,0,14.6,0c-.7,2.1,-1.4,4.1,-2.2,6.2ZM180,101.5c-.9,.9,-2.3,1.8,-4,2.6c-2.9,1.5,-5.8,2.2,-8.6,2.2c-3.7,0,-6.3,-1,-7.8,-3.1c-1.8,-2.4,-1.9,-5.9,-.1,-10.3c1.6,-4.2,4.3,-7.4,8.1,-9.9c3.5,-2.3,7,-3.5,10.7,-3.5c1.5,0,2.9,.3,4.3,.6c1.5,.5,2.2,.7,2.2,.7c.7,0,1.6,-.3,2.2,-1.2c.4,0,.6,0,.8,-.1c-1,2.7,-2,5.7,-3,8.4c-.3,.1,-.6,.1,-.8,.1c.6,-5,-1.3,-7.3,-5.8,-7.3c-1.3,0,-2.7,.1,-4.2,.5c-1.7,.6,-3.1,1.1,-4.2,1.9c-3.2,2.2,-5.7,5.4,-7.5,9.8c-1.5,4,-1.4,7,.1,9.2c1.4,1.9,3.7,2.9,6.6,2.9c3.4,0,7,-1.4,10.8,-4.2c0,.3,.1,.5,.2,.7Z" class="g5_1"/>
<path d="M99.6,123.1h96.3v-12H99.6v12Z" class="g4_1"/>
<path d="M195.9,111.1H99.6V123h96.3V111.1Z" class="g3_1"/>
<path d="M99.6,73.5h96.3V68.1H99.6v5.4Z" class="g4_1"/>
<path d="M195.9,73.5H99.6V68h96.3v5.5Z" class="g3_1"/>
<image preserveAspectRatio="none" x="223" y="541" width="16" height="66" xlink:href="img/1.png"/>
<image preserveAspectRatio="none" x="239" y="540" width="5" height="69" xlink:href="img/2.png"/>
<image preserveAspectRatio="none" x="253" y="541" width="8" height="66" xlink:href="img/3.png"/>
<image preserveAspectRatio="none" x="262" y="547" width="5" height="43" xlink:href="img/4.png"/>
<path d="M244.2,547.6l1.2,4.4l5.9,-13.6h15.4" class="g6_1"/>
<path d="M560,518.7H807.8V193.9H560V518.7Z" class="g2_1"/>
<path d="M560,518.7H807.8V193.9H560V518.7Z" class="g7_1"/>
<path d="M721.2,505.2h64.9V474.9H721.2v30.3Z" class="g2_1"/>
<path d="M721.2,505.2h64.9V474.9H721.2v30.3Z" class="g8_1"/>
<path d="M649.1,430l5.3,-2.6l2.1,1c1.4,-.2,2,1.6,1.6,4v4.8M647,431l19.6,-9.8m-12.2,6.1l2.1,1.1c1.4,-.2,2,1.6,1.6,4v4.8M659.2,425l5.3,-2.7m2.1,-1.1l20.2,-10.1m-17.5,9.6l2.1,1.1c.9,-.1,1.3,1.5,1,3.7m-3.1,-5.6v.8m0,-.8l2.6,1.3c.9,-.1,1.4,1.7,1,4m-3.6,-5.3l5.3,-2.6l2.1,1c1.3,-.2,2,1.6,1.5,4m-20.1,14.9v.2l-1.6,3.1m21.7,-13.1l-1.5,3.2m-3.8,-5.4V430l1.7,1v17.3m-2.2,-22.8v4.2l.5,.3m1.1,.7v17m2.7,-17.1v17.1M647,431l1,6.7m-.5,-13.6L647,431m.5,-6.9l38.2,-19m-38.2,19L620.9,410.9l-.4,6.9L647,431m1,6.7L621.5,424.4l-1,-6.6m.4,-6.9l72.2,-35.5M648,437.7l4.3,-2.2m5.8,-2.8l4.3,-2.1m5.8,-3l4.2,-2.1m-15.9,15.1v17.7m-2.1,.9l.7,1h.6l.8,-1.6m0,-4.2v4.2m-2.1,-3.7v4.3m-.5,-2.1v1.2l.5,.9m20.2,-10.1l.7,1h.6l.8,-1.6m0,-4.2v4.2m-2.1,-3.6v4.2M674,447v1.3l.6,.8M623.1,425.5v15.9l-.8,1.5h-.5l-.9,-1V421.2m-.4,-2.6v22.5l1.3,1.8m11.3,-12.6v6l-.7,1.6h-.5l-1.3,-1.8v-7.2m.4,8v-7.7m-1,-11.4c0,-1.6,2.1,-2.9,4.8,-2.9c2.6,0,4.8,1.3,4.8,2.9c0,1.6,-2.2,3,-4.8,3c-2.7,0,-4.8,-1.4,-4.8,-3Zm0,2.4c0,-1.6,2.1,-2.9,4.8,-2.9c2.6,0,4.8,1.3,4.8,2.9c0,1.6,-2.2,2.9,-4.8,2.9c-2.7,0,-4.8,-1.3,-4.8,-2.9Zm1,-4.3v2.4m7.5,1.4v2.6M631,418.6l7.5,3.7m0,-.5v.5M631,418.1v.5" class="g7_1"/>
<path d="M628.9,419.4h1.9v-3.2h-1.9v3.2Z" class="g9_1"/>
<path d="M630,417.3h.8v-2.1H630v2.1Z" class="g9_1"/>
<path d="M630.1,420.8h.8v-2.5h-.8v2.5Z" class="g9_1"/>
<path d="M630.6,419.4h.2v-1.1h-.2v1.1Z" class="g9_1"/>
<path d="M629.5,422h2.6v-2.6h-2.6V422Z" class="g9_1"/>
<path d="M631.3,416.4h1.1v-.5h-1.1v.5Z" class="g9_1"/>
<path d="M629.2,417.3h1.6v-1.1h-1.6v1.1Z" class="g9_1"/>
<path d="M631.6,417h2.6v-.8h-2.6v.8Z" class="g9_1"/>
<path fill-rule="evenodd" d="M632.1,416.9c0,-.3,.5,-.5,1,-.5c.7,0,1.1,.2,1.1,.5c0,.2,-.4,.4,-1.1,.4c-.5,0,-1,-.2,-1,-.4Z" class="g9_1"/>
<path fill-rule="evenodd" d="M633.7,418.2c0,-.4,.4,-.7,.8,-.7c.5,0,.8,.3,.8,.7c0,.3,-.3,.6,-.8,.6c-.4,0,-.8,-.3,-.8,-.6Z" class="g9_1"/>
<path fill-rule="evenodd" d="M633.1,418.2c0,-.4,.6,-.7,1.1,-.7c.6,0,1.1,.3,1.1,.7c0,.3,-.5,.6,-1.1,.6c-.5,0,-1.1,-.3,-1.1,-.6Z" class="g9_1"/>
<path fill-rule="evenodd" d="M635.1,418.8c0,-.5,.3,-1,.7,-1c.5,0,.8,.5,.8,1c0,.7,-.3,1.1,-.8,1.1c-.4,0,-.7,-.4,-.7,-1.1Z" class="g9_1"/>
<path fill-rule="evenodd" d="M634.8,418.3c0,-.3,.2,-.5,.5,-.5c.3,0,.5,.2,.5,.5c0,.3,-.2,.5,-.5,.5c-.3,0,-.5,-.2,-.5,-.5Z" class="g9_1"/>
<path fill-rule="evenodd" d="M635.3,419c0,-.5,.7,-.9,1.6,-.9c.9,0,1.6,.4,1.6,.9c0,.5,-.7,.9,-1.6,.9c-.9,0,-1.6,-.4,-1.6,-.9Z" class="g9_1"/>
<path d="M631.6,422h2.6v-1.5h-2.6V422Z" class="g9_1"/>
<path d="M630.6,422.6h3.9v-2.1h-3.9v2.1Z" class="g9_1"/>
<path d="M631.6,420.9h1.5v-1h-1.5v1Z" class="g9_1"/>
<path d="M631.6,423.1h4.2v-1.6h-4.2v1.6Z" class="g9_1"/>
<path d="M633.1,424.1h5.4v-1.5h-5.4v1.5Z" class="g9_1"/>
<path fill-rule="evenodd" d="M633.1,420.9c0,-.2,.5,-.4,1.1,-.4c.4,0,.9,.2,.9,.4c0,.4,-.5,.6,-.9,.6c-.6,0,-1.1,-.2,-1.1,-.6Z" class="g9_1"/>
<path fill-rule="evenodd" d="M636.3,422.9c0,-.5,.5,-.9,1.1,-.9c.6,0,1.1,.4,1.1,.9c0,.3,-.5,.7,-1.1,.7c-.6,0,-1.1,-.4,-1.1,-.7Z" class="g9_1"/>
<path fill-rule="evenodd" d="M634.8,419.9c0,-.4,.7,-.8,1.5,-.8c1,0,1.6,.4,1.6,.8c0,.5,-.6,.8,-1.6,.8c-.8,0,-1.5,-.3,-1.5,-.8Z" class="g9_1"/>
<path fill-rule="evenodd" d="M636.9,419.7c0,-.4,.4,-.9,.8,-.9c.4,0,.8,.5,.8,.9c0,.6,-.4,1,-.8,1c-.4,0,-.8,-.4,-.8,-1Z" class="g9_1"/>
<path fill-rule="evenodd" d="M638.7,421.2c0,-.4,.3,-.7,.7,-.7c.3,0,.7,.3,.7,.7c0,.5,-.4,.8,-.7,.8c-.4,0,-.7,-.3,-.7,-.8Z" class="g9_1"/>
<path d="M638.7,423.1h1.4v-1.6h-1.4v1.6Z" class="g9_1"/>
<path d="M639.6,419.9h.5v-1.1h-.5v1.1Z" class="g9_1"/>
<path fill-rule="evenodd" d="M639,419.6c0,-.1,.3,-.2,.6,-.2c.2,0,.5,.1,.5,.2c0,.2,-.3,.3,-.5,.3c-.3,0,-.6,-.1,-.6,-.3Z" class="g9_1"/>
<path fill-rule="evenodd" d="M639,419.4c0,-.3,.4,-.6,.8,-.6c.5,0,.8,.3,.8,.6c0,.2,-.3,.5,-.8,.5c-.4,0,-.8,-.3,-.8,-.5Z" class="g9_1"/>
<path fill-rule="evenodd" d="M635.3,420.6c0,-.1,.3,-.1,.8,-.1c.4,0,.8,0,.8,.1c0,.1,-.4,.2,-.8,.2c-.5,0,-.8,-.1,-.8,-.2Z" class="g9_1"/>
<path fill-rule="evenodd" d="M635.8,420.8c0,-.2,.3,-.3,.5,-.3c.3,0,.6,.1,.6,.3c0,0,-.3,.1,-.6,.1c-.2,0,-.5,-.1,-.5,-.1Z" class="g9_1"/>
<path fill-rule="evenodd" d="M639,419.6c0,-.4,.4,-.8,.8,-.8c.5,0,.8,.4,.8,.8c0,.2,-.3,.6,-.8,.6c-.4,0,-.8,-.4,-.8,-.6Z" class="g9_1"/>
<path d="M626.3,413.5l4.7,2.4m7.5,6.4v-2.7l2.6,1.3M647,431l73.1,-36.6m-41.9,27.9v4.8m0,-4.8v4.8m1.1,-11.4l2.2,1c.9,-.1,1.3,1.6,1,3.8m-3.2,-5.6v.8m0,-.8l2.6,1.3c1,-.1,1.5,1.7,1.1,4m-3.7,-5.3l5.3,-2.7l2.2,1.1c1.3,-.2,2,1.6,1.5,4V422m1,-11.3l2.2,1c1,-.1,1.4,1.5,1,3.7m-3.2,-5.6v.9m0,-.9l2.7,1.3c.9,-.1,1.5,1.8,1.1,4.1m-3.8,-5.4l5.4,-2.6l2.1,1.1c1.3,-.2,2.1,1.5,1.6,3.9m-15.4,8V425l1.6,1m3.7,-4v.3l-1.5,3.2v13.8m-2.2,-12.8v13.8m-2.1,-19.8v4.2l.5,.3m1.1,.7v16.2m-5.9,-14.8v.3m20.2,-10.1l-1.6,3.2m-3.7,-5.3v4.7l1.5,1v17.3m-2.1,-22.8v4.3l.6,.2m1,.9v16.9m2.7,-17.2v17.2M684.6,426v13.8m-6.4,-17.2l4.3,-2.1m5.8,-3l4.2,-2.1M684.6,444l.8,1.1h.5l.9,-1.6m0,-4.2v4.2m-2.2,-3.7V444m-.5,-2.1v1.3l.5,.8m10,-5l.9,1.1h.5l.8,-1.7m0,-4.2v4.2m-2.2,-3.6V439m-.5,-2.1v1.3l.5,.8m3.8,-26.7v4.8m0,-4.8v4.8m1,-11.5l2.1,1c.9,-.1,1.5,1.6,1.1,3.8m-3.2,-5.6v.8m0,-.8l2.7,1.3c.9,-.1,1.4,1.7,1.1,4m-3.8,-5.3l5.3,-2.7l2.1,1.1c1.4,-.1,2.2,1.6,1.7,4V412m1,-11.4l2.1,1c.9,-.1,1.5,1.6,1.1,3.8m-3.2,-5.6v.8m0,-.8l2.7,1.3c.9,-.1,1.3,1.7,1.1,4m-3.8,-5.3l5.3,-2.7l2.1,1.1c1.4,-.2,2.1,1.6,1.6,3.9v4.8m-15.3,3.2v4.8l1.5,1m3.8,-3.9v.2l-1.7,3.2v13.8m-2.1,-12.8v13.9m-2.1,-19.9v4.2l.6,.3m1,.8v16.1m-5.8,-14.7v.3m20.1,-10.5v.3l-1.6,3.2m-3.6,-5.3v4.7l1.5,1.1v17.2m-2.1,-22.7v4.2l.6,.2m1,.9v16.9m2.6,-17.2v17.2M704.7,415.9v13.8m-6.3,-17.1l4.2,-2.1m5.9,-3l4.2,-2.1m-8,28.6l.9,1.1h.5l.7,-1.7m0,-4.2v4.2m-2.1,-3.7V434m-.5,-2.2v1.3l.5,.9m10.1,-5.1l.8,1.1h.5l.8,-1.6m0,-4.3v4.3m-2.1,-3.7v4.2m-.5,-2.1v1.3l.5,.8m3.7,-26.8v4.8m0,-4.8v5.1m-59.3,18.5l2.1,1.1c.9,-.1,1.4,1.6,1.1,3.8M659.2,425v.7m0,-.7l2.6,1.3c1,-.1,1.4,1.7,1,4v4.8l1.7,1m0,.5v13.8m-2.1,-19.8v4.2l.4,.3m1.1,.7V452m.6,-15.9v13.8m0,-27.6l2.1,1c1.3,-.2,2,1.7,1.6,4.1v5l-1.6,3.1v13.9m-2.1,4.7l.7,1h.6l.8,-1.5m0,-4.2v4.2m-2.1,-3.7v4.2m-.6,-2.1v1.3l.6,.8M649.1,430.7l2.1,1.1c.9,0,1.4,1.6,1.1,3.7M649.1,430v.7m0,-.7l2.7,1.3c.9,-.1,1.3,1.7,1,4v4.8l1.6,1m0,.6v13.7m-2.1,-19.9v4.3l.5,.3m1.1,.7v16.3m.5,-16v13.8m65.7,-60.5l-.2,4.4M719,388.4l1.1,6m-72.6,29.7L719,388.4m-25.9,-13l25.9,13m.9,10.1l-.3,3.6m-1.1,.6l1.1,-.6M648,296.1l2.6,1.3c.2,.2,.6,.4,.8,.9l.4,2.6c0,.4,.2,.8,.4,.8l3.5,1.7M648,296.1v-.8l3.4,1.7c.3,0,.4,.2,.4,.5m0,-.1l.4,1.3l.5,2.5m0,-.3c0,.1,.2,.3,.4,.3l2.6,1.3v.9M648,295.3l2.9,-1.3l2.6,1.3m-.4,0c.4,-.1,.8,.1,.9,.4c0,.1,0,.3,0,.4m0,-.5c.2,.3,.3,.8,.4,1.4l.5,1.7c-.2,.3,0,.7,.3,.9l3.5,1.6m-3,1.3l3,-1.3v.9l-3,1.3m1.3,-12l2.5,1.3c.4,.1,.7,.5,.9,.8l.4,2.6c0,.4,.2,.9,.5,.9l3.4,1.7M657,291.4v-.9l3.4,1.7c.2,0,.5,.3,.5,.6m-.1,-.1l.5,1.3l.4,2.5m0,-.4c0,.3,.2,.4,.4,.4l2.6,1.3v.9M657,290.5l3,-1.3l2.6,1.3m-.5,0c.4,-.1,.8,.2,.9,.5c0,.1,0,.2,0,.4m0,-.4c.2,.2,.4,.7,.4,1.2l.5,1.8c-.1,.3,0,.7,.4,.8l3.4,1.7m-3,1.3l3,-1.3v.9l-3,1.3M666,287.1l2.6,1.3c.3,.1,.6,.4,.8,.8l.5,2.6c0,.4,.2,.9,.4,.9l3.5,1.6M666,287.1v-.9l3.4,1.7c.3,0,.5,.3,.5,.6m0,-.1l.4,1.3l.4,2.5m0,-.4c0,.3,.2,.4,.5,.4l2.6,1.3v.8M666,286.2l3,-1.3l2.6,1.3m-.4,0c.4,-.1,.7,.2,.8,.5c0,.1,0,.2,0,.4m0,-.5c.2,.3,.4,.8,.5,1.3l.3,1.8c-.1,.3,.1,.7,.5,.8l3.5,1.7m-3,1.3l3,-1.3v.9l-3,1.2m.8,-11.5l2.5,1.3c.4,.2,.7,.4,1,.8l.3,2.6c0,.5,.2,.9,.5,.9l3.4,1.7m-7.7,-7.3v-.9l3.5,1.7c.2,0,.4,.3,.4,.6m-.1,-.1l.5,1.3l.4,2.5m0,-.4c0,.2,.2,.4,.4,.4l2.6,1.3m0,0v.9m-7.7,-8.2l3,-1.3l2.6,1.3m-.5,0c.4,-.1,.8,.2,.9,.5c0,.1,0,.3,0,.4m0,-.5c.2,.3,.4,.8,.4,1.3l.4,1.8c0,.3,.1,.7,.5,.8l3.4,1.7m-3,1.3l3,-1.3v.9l-3,1.3m-37,3.4l62.8,-31.8m-62.8,40.4l6.1,-3m3.5,-1.7l5.9,-3.1m3,-1.2l5.6,-3m3.4,-1.7l5.3,-2.6M648,296.5l-3.5,1.8m7.7,-4l5.2,-2.5m4.3,-2.1l4.3,-2.2m4.3,-2.1l4.3,-2.1m4.3,-2.2l4.3,-2.2m-38.7,19.4l.8,-4.8m-.8,4.8l.5,3.8m.3,-8.6L616.2,278.9l-.9,4.7l29.2,14.7M615.3,283.6l.4,4.3L645,302.5M616.2,278.9l62.7,-31.8l29.2,14.6m-92.8,22.4l-1.7,1.7m0,-.9h.4m0,.9h-2.1l.8,-.9h1.7m.9,-1.3l-1.7,1.3m1.7,0l-.9,.9m27.4,3.2c0,-1,1.4,-1.7,3.3,-1.7c2,0,3.5,.7,3.5,1.7c0,.9,-1.5,1.8,-3.5,1.8c-1.9,0,-3.3,-.9,-3.3,-1.8Zm40.9,-10.3l2.6,1.3c.4,.1,.6,.4,.9,.9l.4,2.5c0,.5,.2,.9,.4,.9l3.5,1.7m-7.8,-7.3v-.9l3.5,1.8c.3,0,.5,.2,.5,.5m-.1,-.1l.4,1.2l.5,2.7m0,-.5c0,.2,.2,.5,.4,.5l2.6,1.3v.8m-7.8,-8.2l3.1,-1.2l2.5,1.2m-.4,0c.4,0,.8,.1,.9,.5c0,.2,0,.3,0,.4m0,-.4c.2,.3,.3,.7,.3,1.3l.5,1.6c-.1,.4,.1,.9,.5,1l3.4,1.7m-3,1.3l3,-1.3v.8l-3,1.3m1.3,-12l2.6,1.3c.2,.2,.6,.4,.8,.8l.5,2.6c0,.5,.1,.9,.3,.9l3.5,1.6M691.8,274v-.9l3.4,1.7c.3,0,.5,.3,.5,.6m0,-.1l.3,1.3l.5,2.5m0,-.4c0,.2,.2,.4,.4,.4l2.6,1.3v.8m-7.7,-8.1l2.9,-1.3l2.6,1.3m-.4,0c.4,-.1,.8,.2,.9,.5c.1,.1,.1,.2,0,.4m0,-.5c.2,.3,.3,.8,.4,1.3l.5,1.8c-.2,.3,0,.7,.3,.8l3.5,1.7m-3,1.3l3,-1.3v.9l-3,1.2m1.3,-11.5l2.6,1.3c.3,.2,.6,.4,.8,.8l.4,2.6c0,.5,.2,.9,.5,.9l3.4,1.7m-7.7,-7.3v-.8l3.4,1.6c.3,0,.5,.3,.5,.6m-.1,-.1l.5,1.3l.5,2.5m0,-.4c0,.2,.1,.4,.3,.4l2.6,1.3v.9m-7.7,-8.1l3,-1.4l2.6,1.4m-.5,0c.4,-.1,.8,.1,.9,.4c0,.1,0,.3,0,.4m0,-.5c.2,.3,.4,.8,.4,1.3l.5,1.8c-.1,.3,.1,.7,.4,.8l3.4,1.7m-3,1.3l3,-1.3v.9l-3,1.3m-18.9,3l6.1,-3m3,-1.3l5.5,-3M687,277l5.2,-2.6m4.3,-2.1l4.3,-2.2m-19.4,14l4.4,-2.2l.5,-.3m21.4,-10.4l.4,-.4m-3,-2.6l3.4,-1.7l-.4,4.3m0,-8.8l.4,4.8" class="g7_1"/>
<path d="M725.5,337.9h64.9V307.5H725.5v30.4Z" class="g2_1"/>
<path d="M725.5,337.9h64.9V307.5H725.5v30.4Z" class="g8_1"/>
<path d="M99.3,690.2h.7v-.8h-.7v.8Z" class="g0_1"/>
<path d="M99.3,690.2H807.5v-.8H99.3v.8Z" class="g0_1"/>
<path d="M806.8,690.2h.7v-.8h-.7v.8Z" class="g0_1"/>
<path d="M99.3,708.5h.7V690.2h-.7v18.3Z" class="g0_1"/>
<path d="M598,708.5h.8V690.2H598v18.3Z" class="g0_1"/>
<path d="M702.4,708.5h.7V690.2h-.7v18.3Z" class="g0_1"/>
<path d="M806.8,708.5h.7V690.2h-.7v18.3Z" class="g0_1"/>
<path d="M99.3,709.2H598.8v-.7H99.3v.7Z" class="g0_1"/>
<path d="M702.4,709.2h.7v-.7h-.7v.7Z" class="g0_1"/>
<path d="M806.8,709.2h.7v-.7h-.7v.7Z" class="g0_1"/>
<path d="M99.3,727.7h.7V709.2h-.7v18.5Z" class="g0_1"/>
<path d="M265.5,727.7h.7V709.2h-.7v18.5Z" class="g0_1"/>
<path d="M431.8,727.7h.7V709.2h-.7v18.5Z" class="g0_1"/>
<path d="M598,727.7h.8V709.2H598v18.5Z" class="g0_1"/>
<path d="M702.4,727.7h.7V709.2h-.7v18.5Z" class="g0_1"/>
<path d="M806.8,727.7h.7V709.2h-.7v18.5Z" class="g0_1"/>
<path d="M99.3,728.4H807.5v-.7H99.3v.7Z" class="g0_1"/>
<path d="M99.3,746.7h.7V728.4h-.7v18.3Z" class="g0_1"/>
<path d="M265.5,746.7h.7V728.4h-.7v18.3Z" class="g0_1"/>
<path d="M431.8,746.7h.7V728.4h-.7v18.3Z" class="g0_1"/>
<path d="M598,746.7h.8V728.4H598v18.3Z" class="g0_1"/>
<path d="M702.4,746.7h.7V728.4h-.7v18.3Z" class="g0_1"/>
<path d="M806.8,746.7h.7V728.4h-.7v18.3Z" class="g0_1"/>
<path d="M99.3,747.4H807.5v-.7H99.3v.7Z" class="g0_1"/>
<path d="M99.3,766.6h.7V747.4h-.7v19.2Z" class="g0_1"/>
<path d="M99.3,766.6H265.5v-.7H99.3v.7Z" class="g0_1"/>
<path d="M265.5,766.6h.7V747.4h-.7v19.2Z" class="g0_1"/>
<path d="M266.2,766.6H431.8v-.7H266.2v.7Z" class="g0_1"/>
<path d="M431.8,766.6h.7V747.4h-.7v19.2Z" class="g0_1"/>
<path d="M432.5,766.6H598v-.7H432.5v.7Z" class="g0_1"/>
<path d="M598,766.6h.8V747.4H598v19.2Z" class="g0_1"/>
<path d="M598.8,766.6H702.4v-.7H598.8v.7Z" class="g0_1"/>
<path d="M702.4,766.6h.7V747.4h-.7v19.2Z" class="g0_1"/>
<path d="M703.1,766.6H806.8v-.7H703.1v.7Z" class="g0_1"/>
<path d="M806.8,766.6h.7V747.4h-.7v19.2Z" class="g0_1"/>
<path d="M806.8,766.6h.7v-.7h-.7v.7Z" class="g0_1"/>
<path d="M448.9,901.4H794.2V787.7H448.9V901.4Z" class="g2_1"/>
<path d="M448.9,901.4H794.2V787.7H448.9V901.4Z" class="ga_1"/>
<path d="M102.5,901.4H448.9V787.7H102.5V901.4Z" class="g2_1"/>
<path d="M102.5,901.4H448.9V787.7H102.5V901.4Z" class="ga_1"/>
<image preserveAspectRatio="none" x="155" y="804" width="15" height="59" xlink:href="img/5.png"/>
<image preserveAspectRatio="none" x="171" y="803" width="18" height="62" xlink:href="img/6.png"/>
<image preserveAspectRatio="none" x="189" y="803" width="4" height="62" xlink:href="img/7.png"/>
<image preserveAspectRatio="none" x="195" y="804" width="6" height="59" xlink:href="img/8.png"/>
<image preserveAspectRatio="none" x="202" y="809" width="4" height="7" xlink:href="img/9.png"/>
<image preserveAspectRatio="none" x="207" y="804" width="9" height="59" xlink:href="img/10.png"/>
<image preserveAspectRatio="none" x="217" y="803" width="13" height="60" xlink:href="img/11.png"/>
<image preserveAspectRatio="none" x="232" y="809" width="4" height="7" xlink:href="img/12.png"/>
<image preserveAspectRatio="none" x="236" y="804" width="8" height="59" xlink:href="img/13.png"/>
<path d="M194.1,816.3h7.7m7,0h22.1" class="ga_1"/>
<image preserveAspectRatio="none" x="291" y="822" width="4" height="76" xlink:href="img/14.png"/>
<image preserveAspectRatio="none" x="296" y="822" width="4" height="60" xlink:href="img/15.png"/>
<image preserveAspectRatio="none" x="304" y="822" width="3" height="76" xlink:href="img/16.png"/>
<image preserveAspectRatio="none" x="308" y="822" width="58" height="19" xlink:href="img/17.png"/>
<image preserveAspectRatio="none" x="366" y="822" width="25" height="19" xlink:href="img/18.png"/>
<image preserveAspectRatio="none" x="291" y="841" width="4" height="76" xlink:href="img/19.png"/>
<image preserveAspectRatio="none" x="295" y="841" width="7" height="60" xlink:href="img/20.png"/>
<image preserveAspectRatio="none" x="304" y="841" width="3" height="76" xlink:href="img/21.png"/>
<image preserveAspectRatio="none" x="308" y="841" width="71" height="16" xlink:href="img/22.png"/>
<image preserveAspectRatio="none" x="379" y="841" width="16" height="16" xlink:href="img/23.png"/>
<image preserveAspectRatio="none" x="291" y="861" width="4" height="76" xlink:href="img/24.png"/>
<image preserveAspectRatio="none" x="296" y="861" width="6" height="61" xlink:href="img/25.png"/>
<image preserveAspectRatio="none" x="304" y="861" width="3" height="76" xlink:href="img/26.png"/>
<image preserveAspectRatio="none" x="308" y="861" width="58" height="19" xlink:href="img/27.png"/>
<image preserveAspectRatio="none" x="366" y="861" width="17" height="19" xlink:href="img/28.png"/>
<path d="M220.5,816.3v28.8h54.1M198.4,816.3v50.4h76.2M234.8,816.5h9.7m-4.5,0v11.9h34.6" class="ga_1"/>
<image preserveAspectRatio="none" x="461" y="822" width="4" height="76" xlink:href="img/29.png"/>
<image preserveAspectRatio="none" x="466" y="822" width="4" height="60" xlink:href="img/30.png"/>
<image preserveAspectRatio="none" x="473" y="822" width="4" height="76" xlink:href="img/31.png"/>
<image preserveAspectRatio="none" x="481" y="822" width="8" height="59" xlink:href="img/32.png"/>
<image preserveAspectRatio="none" x="491" y="825" width="1" height="43" xlink:href="img/33.png"/>
<image preserveAspectRatio="none" x="497" y="822" width="31" height="30" xlink:href="img/34.png"/>
<image preserveAspectRatio="none" x="530" y="831" width="1" height="19" xlink:href="img/35.png"/>
<image preserveAspectRatio="none" x="537" y="822" width="9" height="59" xlink:href="img/36.png"/>
<image preserveAspectRatio="none" x="547" y="825" width="2" height="43" xlink:href="img/37.png"/>
<image preserveAspectRatio="none" x="554" y="822" width="43" height="25" xlink:href="img/38.png"/>
<image preserveAspectRatio="none" x="597" y="822" width="19" height="25" xlink:href="img/39.png"/>
<image preserveAspectRatio="none" x="461" y="841" width="4" height="76" xlink:href="img/40.png"/>
<image preserveAspectRatio="none" x="465" y="841" width="7" height="60" xlink:href="img/41.png"/>
<image preserveAspectRatio="none" x="473" y="841" width="4" height="76" xlink:href="img/42.png"/>
<image preserveAspectRatio="none" x="482" y="841" width="9" height="60" xlink:href="img/43.png"/>
<image preserveAspectRatio="none" x="492" y="841" width="14" height="60" xlink:href="img/44.png"/>
<image preserveAspectRatio="none" x="507" y="844" width="2" height="43" xlink:href="img/45.png"/>
<image preserveAspectRatio="none" x="515" y="841" width="18" height="60" xlink:href="img/46.png"/>
<image preserveAspectRatio="none" x="533" y="841" width="3" height="60" xlink:href="img/47.png"/>
<image preserveAspectRatio="none" x="537" y="847" width="5" height="7" xlink:href="img/48.png"/>
<image preserveAspectRatio="none" x="543" y="841" width="13" height="60" xlink:href="img/49.png"/>
<image preserveAspectRatio="none" x="558" y="850" width="1" height="20" xlink:href="img/50.png"/>
<image preserveAspectRatio="none" x="565" y="841" width="8" height="62" xlink:href="img/51.png"/>
<image preserveAspectRatio="none" x="575" y="841" width="13" height="60" xlink:href="img/52.png"/>
<image preserveAspectRatio="none" x="590" y="844" width="1" height="43" xlink:href="img/53.png"/>
<image preserveAspectRatio="none" x="597" y="841" width="28" height="31" xlink:href="img/54.png"/>
<image preserveAspectRatio="none" x="626" y="847" width="4" height="7" xlink:href="img/55.png"/>
<image preserveAspectRatio="none" x="631" y="841" width="14" height="60" xlink:href="img/56.png"/>
<image preserveAspectRatio="none" x="461" y="861" width="4" height="76" xlink:href="img/57.png"/>
<image preserveAspectRatio="none" x="466" y="861" width="6" height="61" xlink:href="img/58.png"/>
<image preserveAspectRatio="none" x="473" y="861" width="4" height="76" xlink:href="img/59.png"/>
<image preserveAspectRatio="none" x="482" y="861" width="9" height="61" xlink:href="img/60.png"/>
<image preserveAspectRatio="none" x="493" y="864" width="1" height="42" xlink:href="img/61.png"/>
<image preserveAspectRatio="none" x="500" y="861" width="43" height="26" xlink:href="img/62.png"/>
<image preserveAspectRatio="none" x="543" y="861" width="7" height="26" xlink:href="img/63.png"/>
<image preserveAspectRatio="none" x="555" y="861" width="18" height="60" xlink:href="img/64.png"/>
<image preserveAspectRatio="none" x="573" y="861" width="10" height="60" xlink:href="img/65.png"/>
<image preserveAspectRatio="none" x="584" y="869" width="1" height="20" xlink:href="img/66.png"/>
<image preserveAspectRatio="none" x="591" y="861" width="7" height="59" xlink:href="img/67.png"/>
<image preserveAspectRatio="none" x="599" y="864" width="2" height="42" xlink:href="img/68.png"/>
<image preserveAspectRatio="none" x="607" y="861" width="53" height="20" xlink:href="img/69.png"/>
<image preserveAspectRatio="none" x="660" y="861" width="8" height="20" xlink:href="img/70.png"/>
<image preserveAspectRatio="none" x="669" y="869" width="2" height="20" xlink:href="img/71.png"/>
<image preserveAspectRatio="none" x="677" y="861" width="34" height="30" xlink:href="img/72.png"/>
<image preserveAspectRatio="none" x="711" y="864" width="2" height="42" xlink:href="img/73.png"/>
<image preserveAspectRatio="none" x="719" y="861" width="15" height="60" xlink:href="img/74.png"/>
<image preserveAspectRatio="none" x="735" y="861" width="4" height="59" xlink:href="img/75.png"/>
<image preserveAspectRatio="none" x="739" y="861" width="16" height="61" xlink:href="img/76.png"/>
</svg>