<?xml version="1.0" encoding="UTF-8" standalone="no"?>
<svg id="svg2" xmlns:rdf="http://www.w3.org/1999/02/22-rdf-syntax-ns#" xmlns="http://www.w3.org/2000/svg" height="960pt" width="1280pt" version="1.1" xmlns:cc="http://creativecommons.org/ns#" xmlns:dc="http://purl.org/dc/elements/1.1/" viewBox="0 0 1280 960.00003">
<defs id="defs1082">
<pattern id="pattern5234-318-596-132-157-307" width="400.00005" patternUnits="userSpaceOnUse" patternTransform="matrix(.8 0 0 .8 0 640)" height="400.00002">
<g id="g6096" transform="matrix(.2 0 0 .2 0 -200)">
<path id="path6098" d="m0 1250v2500h2500v-2500h-2500z" transform="matrix(0.8 0 0 0.8 0 -.000097656)" fill="#c837c8"/>
<path id="path6100" d="m688.86 1299.8c-3.9622 0.043-7.9234 0.3379-11.852 0.8945-34.788 1.8125-69.925 19.298-86.912 50.711-28.262 51.762-24 117.31-64.225 163.26-25.45 31.088-64.925 45.324-103.66 50.137 28.725 7.875 58.973 2.0629 88.023-0.7871 76.712-12.25 159.59-24.1 220.26-77.225 36.725-29.312 67.15-79.325 47.188-126.96-12.008-37.36-50.522-60.45-88.824-60.031zm1124.6 0.2363c-3.845 0.015-7.6751 0.2047-11.465 0.5703-37.95 1.4625-72.462 29.05-81.75 65.85-14.062 41.112 9.3629 84.162 39.463 111.41 41.362 40.362 96.762 61.65 152.66 72.338 54.15 10.662 110.23 24.675 165.46 14.725-43.4-5.075-88.35-23.85-112.88-62.312-31.562-46.1-28.738-105.8-56.463-153.53-19.201-32.942-57.866-49.2-95.035-49.057zm-261.71 0.7226c-0.8976-0.013-1.7953-0.0001-2.6914 0.022-38.825 0.3375-72.863 23.75-99.4 50.125-46.55 47.338-80.811 105.81-105.24 167.25-4.2875 12.062-8.4379 28.551-7.4629 38.926 17.55-48.162 65.538-82.262 116.94-82 48.6-4.1375 103.51 11.813 147.05-16.637 34.088-27.45 45.173-81.876 21.461-119.49-14.519-24.206-42.833-37.996-70.658-38.197zm-601.44 0.022c-30.25-0.35-61.55 15.251-75.338 42.951-18.6 33.638-9.6246 77.175 14.213 105.91 23.125 24.338 59.525 27.649 91.15 25.574 40.662 0.3125 84.576-5.6 122.24 13.562 29.025 13.462 48.599 40.701 61.324 69.051-1.525-21.288-7.9504-41.738-16.9-60.988-24.75-53.925-55.912-105.96-98.475-147.77-26.562-25.375-59.988-48.602-98.213-48.289zm601.38 30.475c16.518 0.1088 32.024 9.7262 41.387 23.201 16.538 25.125 4.2871 63.938-24.213 74.4-31.65 13.425-69.05 20.112-102.46 9.9746-19.462-5.0625-15.025-28.8-6.3379-41.338 19-30.525 47.725-59.475 84.5-65.688 2.3859-0.389 4.7673-0.5664 7.127-0.5508zm-602.36 0.4141c35.305 0.6502 64.26 29.182 84.381 55.912 11.438 14.338 24.25 43.913-0.7754 51.676-39.412 9.7125-85.312 3.1367-118.32-21.238-30.1-27.25-12.363-81.962 27.574-86.1 2.4094-0.2134 4.7909-0.2934 7.1445-0.25zm-261.34 14.002c21.566 0.5228 42.243 15.514 46.947 37.135 8.5625 26.65-11.65 51.588-31.162 67.213-22.312 16.575-48.712 31.8-77.512 30-13.7-1.85-16.162-17.025-15.875-28.375 2.8-31.338 15.186-61.9 34.648-86.588 7.25-10.038 18.752-16.599 30.977-18.137 3.959-0.9454 7.9827-1.3449 11.977-1.2481zm1126.2 0.2872c15.684 0.031 31.555 6.0489 40.99 18.998 20.225 26.238 33.651 58.813 34.389 92.15 2.1875 18.6-16.614 27.674-32.451 22.424-34.738-7.975-68.387-28.65-87.074-59.438-17.412-27.45 0.8754-68.848 33.4-73.211 3.518-0.6188 7.1268-0.931 10.746-0.9238zm-1402.7 6.9941c-1.5191 0-3.0482 0.09-4.582 0.2656-42.175 6.625-76.711 42.138-91.924 80.738-9.5125 30.088 31.15 33.525 50.812 30.838 33.688-3.3125 79.5-10.175 91.35-47.65 12.188-30.012-14.767-64.281-45.656-64.191zm1678.1 0.2305c-0.9031-0.013-1.8109-0.0003-2.7227 0.023-23.925 1.1-45.462 21.476-46.762 45.613 0.25 19.35 9.2113 40.036 27.486 48.711 28.625 14.462 61.889 20.475 93.727 16.275 10.175-1.2125 23.898-5.725 24.961-17.75 0.1125-20.825-13.638-38.174-26.562-53.199-18.309-19.544-42.131-39.288-70.127-39.674zm-2001.1 65.25c-3.2865-0.018-6.6134 0.2602-9.959 0.8613-36.375 5.275-65.537 41.699-60.074 78.611 1.325 36.938 33.35 60.713 51.475 89.801 19.962 31.112 13.5 71.412-3.6504 102.26 29.337-26.6 49.063-61.712 64.838-97.637 15.425-35.9 28.475-75.375 21.5-114.79-4.384-31.084-32.36-58.935-64.129-59.111zm2324.4 0.068c-3.5065-0.013-7.0537 0.2812-10.621 0.9043-43.95 7.575-64.476 58.612-55.238 98.688 11.25 63.725 40.213 126.45 86.838 171.96-14.038-26.438-21.925-58.174-10.838-87.111 13.475-36.888 53.912-59.488 58.512-100.4 8.2508-41.45-27.276-83.91-68.652-84.043zm-2.3535 21.121c30.935 0.5093 58.423 36.921 44.119 66.221-7.8625 27.912-39.838 38.063-50.812 64.15-10.125 19.175-8.9754 42.414 1.2871 61.264-26.15-30.238-37.35-71.276-43.838-109.95-5.875-30.838 4.7129-73.274 39.713-80.674 2.6894-0.625 5.3827-0.9526 8.0547-1.0078 0.4926-0.01 0.9855-0.01 1.4766 0zm-2319.2 0.1c21.104 0.3498 40.298 17.398 45.012 37.873 9.6 34.988-0.88711 71.339-13.162 104.26-7.525 17.325-14.125 36.187-28.1 49.537 17.037-29.075 6.4496-66.976-19.025-87.301-19.125-14.138-34.725-35.224-34.6-59.824 4.4125-19.8 19.575-40.487 40.75-43.637 3.0562-0.6703 6.1101-0.9621 9.125-0.9121zm2317 20.127c-2.0159-0.013-4.0136 0.1973-5.9336 0.6465-23.438 8.375-23.013 41.437-18.275 61.662 1.15 13.4 16.75 11.664 24.062 4.7011 14.325-11.838 29.775-29.238 24.975-49.488-2.5312-10.863-13.943-17.454-24.828-17.522zm-2317.6 0.4277c-1.4972-0.013-3.0576 0.1039-4.6836 0.3438-42.237 11.275-6.7129 77.126 25.6 70.014 13.57-21.052 9.5274-70.221-20.916-70.357zm1856.3 128.6c-6.1363 0.051-12.383 0.6611-18.703 1.8828-36.188 3.8375-69.199 23.95-92.574 51.312-31.35 36.138-50.062 81.275-63.188 126.79-26.525 93.425-36.125 193.96-15.037 288.76 1.9625-55.5 22.236-112.8 66.299-148.74 50.638-43.238 122.78-41.261 176.95-78.049 31.862-21.888 55.975-56.4 62.875-94.713 13.056-70.535-44.213-147.85-116.62-147.25zm-1392 0.6562c-5.9892-0.016-11.986 0.3633-17.947 1.1523-72.288 9.1875-118.36 93.237-97 160.7 12.812 40.65 43.599 75.038 82.486 92.5 49.475 23.875 108.11 27.463 151.75 63.238 45.688 35.962 65.738 94.488 69.238 150.69 20.638-100.77 9.1879-205.51-20.287-303.36-15.938-49.025-38.85-98.437-79.125-132.14-24.68-21.052-56.773-32.688-89.115-32.777zm1386.8 34.664c57.672 0.738 93.988 68.715 74.615 121.11-7.875 24.588-31.263 39.024-52.4 51.299-29.125 15.225-63.274 11.276-94.012 20.988-51.875 14.338-95.175 59.825-96.537 115.34-8.5125-70.137 12.574-140.53 39.736-204.65 22.038-49.062 61.338-101.37 119.94-103.7 2.9355-0.2988 5.8238-0.4248 8.6602-0.3886zm-1376.4 0.1953c30.026 0.2454 58.285 16.553 78.723 37.881 32.462 35.425 51.275 80.737 65.125 126.14 12.525 46.738 25.112 96.263 17.137 144.46-1.625-42.875-26.925-81.988-64.812-101.8-37.025-24.362-83.85-15.337-123.1-33.162-18-10.325-36.7-21.363-48.438-39.025-31.038-52.562 4.2879-134.81 69.338-134.32 2.0156-0.1297 4.0256-0.1843 6.0273-0.1679zm1370.6 34.713c-1.7458 0.013-3.5167 0.1388-5.3067 0.3925-32.85 8.8-56.212 38.662-70.875 67.887-6.9625 13.412-11.425 37.113 8.5879 40.775 36.125 5.8125 76.988-6.5618 102.74-33.074 25.675-27.748 0.3511-76.187-35.144-75.98zm-1374.1 0.3789c-29.638 1.3375-51.725 35.388-40.65 63.113 15.312 31.588 53.438 42.474 85.426 47.387 17.312 3.7375 47.9-4.2867 38.375-28.137-11.788-37.525-42.125-77.826-83.15-82.363zm328.97 27.844c-2.4431 0.045-4.9305 0.2984-7.4492 0.7813-24.662 2.375-41.249 24.714-48.887 46.539-9.2875 27.838-13.55 59.349-2.7754 87.387 4.3125 10.375 17.15 14.488 27.062 9.5253 31.825-12.25 57.138-38.026 74.562-66.801 20.988-31.605-5.8684-78.107-42.514-77.432zm720.39 0.1543c-2.5468-0.013-5.1573 0.1991-7.8282 0.6406-32.275 2.575-53.836 41.962-39.648 70.75 16.088 31.338 42.923 58.186 75.523 72.049 10.425 5.2625 25.512 2.6129 29.188-9.9121 10.488-23.938 5.3883-51.3 0.4258-76-6.4531-27.391-27.61-57.428-57.66-57.527zm574.05 123.7c-4.7625 39.288-20.95 81.499-56.438 102.8-47.85 29.75-109.12 24.213-156.46 54.775-30.212 20.3-37.826 61.8-28.613 95.062 9.3125 39.9 52.15 67.551 92.412 60.076 48.675-3.8125 84.826-43.564 105.08-85.014 33.938-70.362 47.011-150.59 44.023-227.7zm-1871.7 0.3868c0.125 67.038 7.6867 134.89 32.199 197.75 15.012 39.575 37.563 79.201 75.113 101.14 30.275 16.675 69.8 20.762 100.1 1.9121 52.9-32.112 52.95-125.31-6.0371-150.99-47.112-22.638-103.35-20.412-147.64-49.85-33.738-21.512-46.963-64.15-53.738-99.963zm2029.3 5.5781c-4.7288-0.069-9.5766 0.2792-14.527 1.084-50.688 4.05-82.976 52.288-93.488 98-20.775 73.05 1.2887 148.59 21.076 219.2 10.538 30.012 18.449 63.188 40.236 87.25-18.825-47.65-13.975-105.39 19.9-145.24 31.112-38.838 78.526-61.999 105.33-104.67 36.551-59.578-7.5937-154.59-78.523-155.62zm-2182.1 0c-4.2151-0.013-8.4387 0.2734-12.639 0.8594-68.05 8.3375-103.26 97.988-69.6 154.49 33.188 52.225 98.062 76.738 123.97 134.75 17.35 36.062 14.725 78.413 1.1875 115.28 33.912-44.125 43.813-101.85 57.926-154.61 18.25-70.1 18.874-151.42-24.764-212.5-17.5-23.92-46.58-38.203-76.086-38.26zm850.6 44.4c-51.338 3.3125-97.788 47.139-102.74 98.602-2 63.112 47.062 113.64 48.85 176.12 3.0875 44.238-19.275 87.448-52.625 115.4 9.9875 0.05 19.939-10.311 28.789-15.461 46.625-37.325 86.224-82.714 122.67-129.83 35.9-48.95 59.775-112.45 46.812-173.44-9.95-40.75-50.012-71.388-91.762-71.4zm472.66 0.1875c-35.35 1.7-68.65 24.776-82.6 57.264-20.6 52.775-1.8375 111.76 23.5 159.61 31.675 50.525 72.5 94.712 115.38 135.88 16.662 14.412 33.162 30.325 54.188 38.125-30.512-28.638-55.575-69.738-52.162-113.69 0.6875-57.262 40.2-104.07 48.35-159.61 7.2375-60.012-47.288-117.49-106.65-117.58zm854.12 2.0664c32.829 0.3687 57.969 39.059 44.053 69.797-16.312 33.462-43.475 65.012-79.525 77.25-20.975 3.3375-25.688-24.051-27.188-39.176-2.2875-38.95 5.9629-94.3 50.275-106.19 4.2055-1.1964 8.3531-1.7289 12.385-1.6836zm-2174.6 0.4179c23.59-0.2229 44.084 18.549 51.467 40.566 10.012 30.562 15.814 66.413 1.2012 96.426-4.4875 10.038-17.952 12.675-26.977 7.0625-30.112-14.125-53.975-40.339-69.312-69.539-16.05-27.088 1.1641-68.924 33.352-73.211 3.4672-0.8531 6.8995-1.2728 10.27-1.3047zm1323.3 45.217c27.299-0.8101 52.902 24.399 51.576 52.062-0.3375 33.112-9.7246 67.6-30.6 93.775-6.9625 10.15-21.301 12.299-30.451 3.4493-27.488-26.05-42.062-65.538-39.975-103.25 1.6375-22.1 19.514-40.713 40.951-44.926 2.8325-0.6669 5.6739-1.0276 8.498-1.1114zm-473.52 0.1758c24.148 0.5824 46.919 20.404 48.861 44.986 3.1125 35.962-11.161 72.312-34.486 99.35-8.2375 10.288-25.55 15.388-34.463 2.6875-21.788-24.65-29.624-58.762-31.824-90.85-3.25-25.525 16.725-51.087 41.813-55.262 2.5794-0.539 5.1739-0.8362 7.7598-0.9082 0.7811-0.022 1.5608-0.023 2.3398 0zm1073.5 57.377c9.6215 0.089 19.433 2.7902 22.682 12.51 5.175 27.188-10.35 53.412-24.662 75.375-16.188 25.388-47.25 48.725-78.6 35.162-34.288-11.75-41.001-62.675-13.488-84.775 23.075-19.462 51.912-32.55 81.699-37.188 3.6602-0.625 7.9957-1.1244 12.369-1.084zm-1672.2 0.5469c32.051 0.272 63.009 15.602 88.373 34.35 25.775 17.038 28.525 58.663 5.4375 79.051-18.075 16.288-47.461 17.137-66.461 1.9493-27.938-20.675-46.7-53.538-52.525-87.625-3.0125-11.2 2.3867-26.025 15.199-27.312 3.334-0.307 6.6611-0.4401 9.9766-0.4121zm-156.14 217.3c7.625 60.775 33.562 116.96 65.35 168.62 28.038 45.575 61.489 89.95 107.45 118.78 31.2 20.225 71.387 27.687 106.91 14.824 40.688-12.2 67.375-55.212 64.225-97 0.8375-47.888-36.426-88.376-80.301-102.43-53.075-17.662-110 6.2754-163.49-8.9746-46.288-12.538-81.15-51.112-100.15-93.824zm1982.2 0.8868c-22.45 52.313-72.012 96.689-131.01 98.014-55.35 1-119.18-15.202-166.88 21.711-51.762 32.875-61.85 114.18-19.025 158.05 31.612 32.925 84.601 37.55 124.99 19.162 47.212-21.45 81.7-62.449 111.06-103.92 38.738-58.088 73.299-125.96 80.861-193.01zm-1491.2 23.791c-5.0906-0.025-10.166 0.3282-15.139 1.0449-41.988 3.425-78.288 42.551-74.426 85.238 1.6625 46.025 38.989 79.899 75.826 101.95 54.362 31.175 115.47 49.188 177.09 59.125 18.375 3.3625 37.825 1.825 55.775-0.375-44.35-4.1125-87.786-30.525-105.3-72.562-21.05-44.175-18.089-96.601-43.576-138.93-14.808-24.226-42.758-35.361-70.248-35.494zm1003.7 0c-4.6474 0-9.2845 0.3543-13.852 1.084-26.55 1.1875-50.899 17.351-63.262 40.676-24.162 47.8-19.664 105.95-50.076 151.14-20.062 32.7-60.012 49.338-94.762 55.062 52.15 5.2625 103.7-8.7989 153.03-24.299 47.988-16.912 97.274-38.201 130.95-77.801 23.2-26.038 32.374-65.763 17.137-97.988-13.562-30.286-46.628-47.861-79.16-47.871zm-596.91 8.4531c-1.5359 0.02-3.0789 0.095-4.625 0.2285-41.238-0.012-70.062 32.776-94.6 61.514-29.938 36.75-83.601 44.124-125.89 26.262 60.012 44.675 138.08 66.562 212.6 62.938 33.8-1.85 67.461-20.475 81.299-52.375 20.61-45.798-21.175-99.173-68.787-98.566zm189.34 0.092c-1.329 0.013-2.6585 0.047-3.9883 0.1191-48.975 0.1875-89.799 57.225-65.012 102.54 24.912 49.787 89.162 55.087 137.56 46.1 54.65-9.225 110.33-26.138 154.28-60.838-31.562 12.15-69.526 13.8-99.201-4.2246-27.662-15.738-43.024-45.537-68.361-64.137-15.609-12.363-35.34-19.652-55.275-19.557zm-191.89 25.67c33.763-0.3413 66.137 36.371 49.93 69.91-18.612 41.125-70.887 43.726-109.57 40.863-31.662-4.8-66.425-8.2625-93.15-27.125 35.225 13.05 74.199-6.65 92.299-37.75 10.988-21.2 29.726-40.374 53.738-45.324 2.2493-0.364 4.5068-0.5513 6.7578-0.5742zm190.3 0.014c27.235-0.024 49.564 22.338 61.939 45.06 17.712 31.588 57.024 51.686 92.449 38.611-25.725 18.975-61.749 22.138-93.199 26.738-38.95 4.3125-91.263-0.3008-109.68-41.301-14-31.238 12.164-63.749 42.977-68.799 1.8579-0.207 3.6941-0.309 5.5098-0.3105zm415.03 0.5508c30.628-0.2781 57.12 31.336 48.522 62.047-11.662 34.35-45.575 54.687-77.562 67.537-13.95 3.875-33.138 10.263-43.988-2.7871-8.5875-20.362-1.2879-42.939 6.0996-62.576 11.212-25.725 26.176-58.712 57.326-63.074 3.2226-0.7477 6.435-1.1179 9.6035-1.1465zm-1017.6 0.25c17.124-0.1725 33.635 8.5676 43.338 22.922 19.888 27.625 35.137 61.75 31.662 96.438-2.775 16.175-23.262 16.938-35.938 13-33.712-9.3125-67.225-29.4-84.475-60.588-15.738-27.738 4.175-67.263 35.875-70.738 3.1738-0.6641 6.366-1.0013 9.5371-1.0332zm418.21 24.445c-0.6589 0-1.3263 0.039-1.9981 0.1016-23.338 4.1375-41.625 24.537-48.688 46.412-3.6625 8.875 6.1008 15.45 13.988 15.463 20.438 0.6625 42.7-4.2625 57.875-18.75 13.139-16.142-0.7501-43.381-21.178-43.227zm179.59 0.1133c-23.725 0.012-35.863 36.014-14.338 48.389 18.325 10.612 46.513 21.5 65.213 7 1.9125-26.8-25.412-52.164-50.875-55.389zm-1032.2 5.0254c19.588 45.725 75.8 67.849 123.44 56.574 26.225-5.875 53.888-14.561 80.525-5.711 54.95 7.275 76.013 88.462 34.963 123.72-24.35 21.088-61.338 23.325-89.9 9.8496-47.5-20.962-81.762-62.475-110.85-104.1-15.725-25.112-32.976-50.6-38.176-80.338zm1884.6 0.2246c0.6375 9.675-7.0621 26.139-11.85 36.889-28.262 52.425-64.676 103.06-115.05 136.2-30.425 20.312-73.175 28.35-104.88 6.1621-48.9-31.388-29.438-121.11 28.6-128.61 43.912-14.65 86.725 18.436 130.78 5.6739 31.75-5.475 59.488-26.688 72.4-56.312zm-2062 10.728c-1.2606 0.012-2.5442 0.1398-3.8496 0.3965-10.512 2.7625-15.586 14.076-19.986 22.988-10.775 27.375-15.364 57.761-10.201 86.924 3.075 27.925 33.589 48.575 60.764 42.713 22.062-4.5 39.937-24.45 40.637-47.25 0.3625-32.75-16.512-62.938-36.887-87.438-8.1902-7.8618-18.291-18.454-30.477-18.334zm2239.6 0.01c-1.1504 0.032-2.3458 0.1767-3.5859 0.4414-20.562 6.3-33.399 26.188-44.449 43.338-15.775 27.088-29.352 65.312-6.3516 92.375 22.025 28.55 70.364 20.323 84.914-11.352 11.862-30.075 5.5625-64.162-3.125-94.225-4.5425-11.804-11.816-30.054-26.268-30.572-0.3737-0.014-0.7513-0.017-1.1348-0.01zm-1886.5 73.352c-5.8902-0.099-11.733 0.2777-17.258 0.9277-15.75 2.5-43.514 5.6488-44.164 26.236 12.775 29.125 45.402 45.338 75.227 51.562 30.588 4.625 51.036-36.187 33.174-59.699-11.212-14.175-29.308-18.732-46.979-19.027zm1541.3 0.086c-5.8166-0.07-11.614 0.2447-17.258 0.8164-16.012 1.5875-33.9 8.6621-40.6 24.475-9.775 21.938 5.0754 51.888 30.088 53.588 27.875-1.7375 54.237-16.401 73.199-36.488 6.9375-6.8 13.675-20.887 3.7871-28.074-14.147-10.453-31.767-14.108-49.217-14.316zm-85.369 191.2c-3.962 0.044-7.9235 0.3377-11.852 0.8945-34.788 1.8125-69.937 19.298-86.912 50.711-28.262 51.762-24 117.31-64.225 163.26-25.45 31.088-64.925 45.324-103.66 50.137 28.725 7.875 58.973 2.0629 88.023-0.7871 76.712-12.262 159.59-24.1 220.26-77.225 36.725-29.325 67.15-79.325 47.188-126.96-12.019-37.36-50.524-60.449-88.824-60.031zm-1375.4 0.2363c-3.845 0.015-7.6751 0.2047-11.465 0.5703-37.95 1.45-72.462 29.05-81.75 65.85-14.062 41.112 9.3629 84.162 39.463 111.41 41.362 40.362 96.775 61.65 152.66 72.338 54.15 10.662 110.23 24.662 165.46 14.725-43.4-5.075-88.35-23.85-112.88-62.312-31.562-46.1-28.738-105.8-56.463-153.53-19.201-32.942-57.866-49.2-95.035-49.057zm-261.71 0.7227c-0.89762-0.013-1.7954-0.0002-2.6914 0.021-41.625 0.4625-77.375 26.938-104.97 55.801-43.788 46.712-76.65 103.08-100 162.5-4.05 11.738-8.1375 27.975-7.125 38 17.55-48.162 65.538-82.262 116.94-82 48.6-4.1375 103.53 11.813 147.05-16.637 34.088-27.45 45.173-81.876 21.461-119.49-14.519-24.207-42.833-37.995-70.658-38.197zm1898.6 0.021c-25.212-0.1625-50.962 10.251-66.975 30.076-31.662 38.538-20.387 103.07 20.338 130.54 45.7 25.875 99.949 7.8117 149.36 14.387 49.8 1.225 93.201 36.588 110.86 82.051-1.5375-21.3-7.9504-41.738-16.9-60.988-24.762-53.925-55.912-105.96-98.475-147.77-26.562-25.375-59.988-48.602-98.213-48.289zm-1898.6 30.475c16.518 0.1088 32.024 9.7262 41.387 23.201 16.55 25.125 4.2871 63.938-24.213 74.4-31.65 13.425-69.05 20.112-102.46 9.9746-19.462-5.0625-15.013-28.8-6.3379-41.338 19.012-30.525 47.725-59.475 84.5-65.688 2.3859-0.389 4.7673-0.5663 7.127-0.5508zm1897.6 0.4141c35.305 0.6503 64.26 29.182 84.381 55.912 11.438 14.325 24.25 43.913-0.7754 51.676-39.425 9.7125-85.312 3.1367-118.32-21.238-30.1-27.25-12.363-81.962 27.574-86.1 2.4093-0.2134 4.7908-0.2934 7.1445-0.25zm-261.34 13.996c21.566 0.5156 42.243 15.509 46.947 37.141 8.5625 26.65-11.65 51.588-31.162 67.213-22.312 16.575-48.712 31.788-77.512 30-13.7-1.85-16.175-17.038-15.875-28.375 2.8-31.338 15.186-61.913 34.648-86.588 7.2375-10.05 18.752-16.599 30.977-18.137 3.959-0.9474 7.9827-1.3494 11.977-1.2539zm-1373.8 0.2871c15.684 0.028 31.555 6.0527 40.99 19.002 20.238 26.238 33.651 58.8 34.389 92.15 2.2 18.6-16.614 27.674-32.451 22.424-34.725-7.975-68.387-28.65-87.074-59.438-17.412-27.45 0.87539-68.848 33.4-73.211 3.518-0.6211 7.1267-0.9341 10.746-0.9277zm1097.3 6.9981c-1.5192 0-3.0481 0.09-4.5821 0.2656-42.175 6.625-76.711 42.138-91.924 80.738-9.525 30.088 31.15 33.525 50.812 30.838 33.688-3.3125 79.487-10.175 91.35-47.65 12.188-30.024-14.767-64.282-45.656-64.191zm-821.9 0.2304c-0.90313-0.013-1.8109 0-2.7227 0.025-23.912 1.0875-45.462 21.476-46.762 45.613 0.25 19.35 9.2113 40.036 27.486 48.711 28.638 14.462 61.889 20.463 93.727 16.275 10.188-1.225 23.898-5.725 24.961-17.75 0.1125-20.838-13.638-38.174-26.562-53.199-18.309-19.544-42.131-39.289-70.127-39.674zm498.86 65.252c-3.2862-0.019-6.6132 0.2602-9.959 0.8613-36.375 5.275-65.537 41.699-60.074 78.611 1.325 36.938 33.35 60.701 51.475 89.801 19.95 31.112 13.5 71.399-3.6504 102.26 29.338-26.6 49.063-61.712 64.838-97.637 15.425-35.9 28.475-75.375 21.5-114.79-4.3954-31.084-32.362-58.935-64.129-59.111zm-175.64 0.068c-3.5065-0.012-7.0537 0.2813-10.621 0.9043-43.95 7.575-64.476 58.6-55.238 98.688 11.25 63.725 40.213 126.45 86.838 171.96-14.038-26.45-21.925-58.174-10.838-87.111 13.488-36.888 53.924-59.488 58.512-100.4 8.2508-41.461-27.276-83.912-68.652-84.043zm-2.3535 21.119c30.935 0.5093 58.423 36.923 44.119 66.223-7.85 27.912-39.838 38.063-50.812 64.15-10.125 19.162-8.9629 42.414 1.2871 61.264-26.15-30.238-37.35-71.289-43.838-109.95-5.875-30.85 4.7129-73.286 39.713-80.674 2.6894-0.625 5.3827-0.9526 8.0547-1.0078 0.4926-0.01 0.9855-0.012 1.4766 0zm180.79 0.1c21.102 0.3476 40.289 17.387 45.014 37.873 9.6 34.975-0.8871 71.339-13.162 104.26-7.525 17.325-14.125 36.175-28.1 49.537 17.038-29.075 6.4496-66.976-19.025-87.301-19.125-14.15-34.725-35.224-34.6-59.824 4.4125-19.8 19.575-40.499 40.75-43.637 3.0562-0.6703 6.1084-0.9617 9.123-0.9121zm-183 20.125c-2.0166-0.013-4.0156 0.1992-5.9375 0.6484-23.438 8.3625-23.013 41.437-18.275 61.662 1.15 13.388 16.762 11.651 24.062 4.7012 14.325-11.838 29.775-29.238 24.975-49.488-2.5312-10.874-13.934-17.458-24.824-17.523zm182.41 0.4297c-1.4971-0.012-3.0576 0.1037-4.6836 0.3437-42.25 11.275-6.7254 77.126 25.6 70.014 13.57-21.052 9.5275-70.221-20.916-70.357zm-643.66 128.52c-6.1365 0.051-12.383 0.6612-18.703 1.8828-36.188 3.8375-69.199 23.95-92.574 51.312-31.35 36.138-50.062 81.275-63.188 126.79-26.525 93.425-36.125 193.95-15.037 288.76 1.975-55.5 22.236-112.8 66.299-148.74 50.638-43.238 122.78-41.261 176.95-78.049 31.875-21.888 55.975-56.4 62.875-94.713 13.056-70.535-44.213-147.85-116.62-147.25zm1108 0.6563c-5.9884-0.016-11.984 0.3632-17.943 1.1523-58.362 7.25-100.06 64.2-102.06 120.81-2.05 42.238 20.3 82.599 51.588 109.61 56.212 48.025 139.87 41.1 194.42 91.812 41.438 36.212 58.938 91.614 62.525 144.89 20.638-100.78 9.1879-205.51-20.287-303.36-15.938-49.025-38.85-98.437-79.125-132.14-24.68-21.052-56.782-32.688-89.119-32.777zm-1113.2 34.6c57.682 0.7379 93.986 68.715 74.613 121.11-7.875 24.588-31.263 39.024-52.4 51.299-29.125 15.225-63.274 11.276-94.012 20.988-51.875 14.338-95.175 59.825-96.537 115.34-8.5125-70.138 12.574-140.53 39.736-204.65 22.038-49.062 61.35-101.37 119.94-103.7 2.9361-0.2987 5.8252-0.425 8.6621-0.3887zm1123.6 0.1953c30.026 0.2454 58.285 16.553 78.723 37.881 32.462 35.425 51.275 80.737 65.125 126.14 12.525 46.738 25.112 96.263 17.137 144.46-1.625-42.875-26.925-81.988-64.812-101.8-37.025-24.362-83.85-15.337-123.1-33.162-18.012-10.325-36.712-21.363-48.438-39.025-31.038-52.562 4.2879-134.81 69.338-134.32 2.0156-0.1296 4.0256-0.1843 6.0274-0.168zm-1129.4 34.713c-1.7458 0.012-3.5166 0.1389-5.3066 0.3926-32.838 8.8-56.2 38.662-70.875 67.887-6.9625 13.412-11.412 37.1 8.5879 40.775 36.125 5.8125 76.988-6.5617 102.74-33.074 25.675-27.748 0.35109-76.187-35.145-75.98zm1125.9 0.3789c-29.638 1.3375-51.725 35.388-40.65 63.113 15.312 31.588 53.438 42.474 85.426 47.387 17.3 3.7375 47.9-4.2867 38.375-28.137-11.788-37.525-42.125-77.838-83.15-82.363zm-1450.6 27.998c-2.5468-0.013-5.1572 0.1992-7.8281 0.6406-32.275 2.575-53.823 41.95-39.648 70.75 16.088 31.338 42.923 58.186 75.523 72.049 10.425 5.2625 25.512 2.6129 29.188-9.9121 10.488-23.938 5.3883-51.3 0.42578-76-6.4531-27.403-27.61-57.429-57.66-57.527zm1779.2 0.016c-2.3311 0.017-4.6738 0.2163-7.0117 0.6113-24.662 2.375-41.249 24.714-48.887 46.539-9.2375 27.562-13.376 58.623-3.1758 86.523 3.9125 10.325 16.413 15.538 26.488 10.676 27.962-9.9 50.275-31.537 67.725-54.912 10.512-14.188 19.275-32.388 13.225-50.312-4.4292-22.384-25.829-39.288-48.363-39.125zm-1205.2 123.7c-4.7625 39.288-20.95 81.499-56.438 102.8-47.85 29.75-109.12 24.213-156.46 54.775-30.212 20.3-37.826 61.8-28.613 95.062 9.3125 39.9 52.15 67.551 92.412 60.076 48.675-3.8125 84.826-43.564 105.08-85.014 33.938-70.362 47.011-150.6 44.023-227.7zm628.3 0.3867c0.2 65.738 7.2871 132.26 30.85 194.1 15 40.925 37.775 82.127 76.463 104.79 29.525 16.2 67.688 20.612 97.75 3.2871 46.925-26.638 55.462-99.938 17.875-137.68-49.238-41.112-121.66-29.224-172.85-67.137-31.338-22.075-43.425-62.963-50.088-97.363zm-470.72 5.5782c-4.7288-0.069-9.5766 0.2793-14.527 1.0839-50.675 4.05-82.976 52.288-93.488 98-20.775 73.05 1.2887 148.59 21.076 219.2 10.538 30.012 18.449 63.188 40.236 87.25-13.562-35.95-15.686-77.051 0.039-112.64 25.025-59.675 91.6-84.186 125.19-137.27 36.551-59.578-7.5937-154.59-78.523-155.62zm318.02 0.2226c-4.2143-0.012-8.4383 0.2735-12.637 0.8594-72.525 8.9375-107.37 109.65-62.512 164.9 32.788 42.412 85.175 66.638 111.79 114.46 22.338 37.738 21.35 84.913 6.2871 125.15 33.912-44.125 43.813-101.86 57.926-154.61 18.25-70.1 18.874-151.42-24.764-212.5-17.5-23.92-46.588-38.203-76.088-38.26zm850.6 44.359c-58.05 3.5625-111.19 60.427-101.71 119.73 7.9625 54.05 46.024 99.512 47.824 155 3.0875 44.237-19.275 87.448-52.625 115.4 6.5 0.8875 14.063-6.0625 19.988-9.3125 51.825-37.938 93.849-87.674 133.07-138.14 36.712-51.675 62.551-120.78 41.076-183.43-13.762-34.75-50.362-59.15-87.625-59.25zm-2027.3 0.1875c-35.35 1.6875-68.65 24.776-82.6 57.264-20.6 52.775-1.825 111.76 23.5 159.61 31.675 50.525 72.5 94.712 115.38 135.88 16.675 14.4 33.162 30.325 54.188 38.125-30.512-28.638-55.575-69.738-52.162-113.69 0.6875-57.263 40.2-104.07 48.35-159.61 7.25-60.012-47.288-117.49-106.65-117.58zm854.12 2.0664c32.836 0.3687 57.967 39.059 44.051 69.797-16.312 33.462-43.475 65-79.525 77.25-20.962 3.3375-25.688-24.051-27.188-39.176-2.2875-38.95 5.9629-94.3 50.275-106.19 4.2069-1.1963 8.3542-1.729 12.387-1.6836zm325.38 0.4219c23.59-0.223 44.084 18.549 51.467 40.566 10 30.562 15.814 66.413 1.2012 96.426-4.4875 10.038-17.964 12.662-26.977 7.0625-30.112-14.125-53.975-40.339-69.312-69.539-16.062-27.088 1.1641-68.923 33.352-73.211 3.4671-0.8532 6.8995-1.2729 10.27-1.3047zm-1176.7 45.203c27.301-0.8101 52.913 24.399 51.576 52.062-0.3375 33.1-9.7121 67.6-30.6 93.775-6.9625 10.15-21.301 12.287-30.451 3.4492-27.488-26.05-42.062-65.55-39.975-103.25 1.65-22.1 19.514-40.713 40.951-44.926 2.8324-0.6667 5.6738-1.0274 8.498-1.1113zm2026.5 0.1758c24.148 0.5801 46.919 20.393 48.861 44.986 3.1125 35.962-11.161 72.312-34.486 99.35-8.25 10.288-25.55 15.375-34.463 2.6875-21.788-24.65-29.624-58.762-31.824-90.85-3.2625-25.538 16.712-51.087 41.812-55.262 2.5792-0.539 5.1739-0.8361 7.7598-0.9082 0.7811-0.022 1.5608-0.023 2.3398 0zm-1426.5 57.375c9.6219 0.089 19.427 2.7961 22.676 12.516 5.175 27.188-10.35 53.412-24.662 75.375-16.188 25.388-47.237 48.725-78.6 35.162-34.288-11.75-41.001-62.675-13.488-84.775 23.075-19.462 51.912-32.562 81.699-37.188 3.664-0.6289 8.0014-1.1299 12.375-1.0898zm827.75 0.5527c32.043 0.2719 63.011 15.602 88.375 34.35 25.775 17.025 28.525 58.663 5.4375 79.051-18.075 16.275-47.473 17.137-66.461 1.9492-27.938-20.675-46.7-53.538-52.525-87.625-3.0125-11.212 2.3867-26.025 15.199-27.312 3.3328-0.3071 6.6598-0.4402 9.9746-0.4121zm-156.01 217.28c6.3125 39.312 16.787 78.275 35.137 113.81 34.212 66.55 75.075 134.4 139.96 175.04 41.138 26.45 100.38 27.687 137.88-5.8379 47.862-42.712 38.987-129.39-15.525-162.75-48.162-37.9-112.39-18.913-168.21-21.65-58.625-2-107-46.749-129.24-98.611zm-517.78 0.8867c-20.512 46.625-61.088 87.325-112.75 96.088-51.262 8-105.06-10.962-155.16 7.375-24.188 9.7625-46.849 25.638-60.512 48.275-27.25 43.8-18.163 109.53 26.387 138.65 42.25 27.95 99.475 19.562 138.84-9.7129 66.55-49.2 109.19-123.54 141.99-198 10.225-26.112 17.9-58.513 21.213-82.676zm1009 23.777c-5.1379-0.031-10.26 0.3242-15.279 1.0566-53.038 3.5125-90.588 63.362-69.051 112.64 24.975 59.638 89.226 87.739 146.24 108.76 50.588 15.538 104.01 32.55 157.07 24.537-35.625-3.85-71.512-20.462-92.412-50.449-34.825-47.012-26.988-110.7-55.963-160.29-14.681-24.616-42.862-36.087-70.607-36.256zm-1496.5 0.012c-4.6478 0-9.2844 0.3542-13.852 1.084-26.55 1.1875-50.899 17.351-63.262 40.676-24.162 47.8-19.664 105.95-50.076 151.14-20.062 32.7-60.012 49.338-94.762 55.062 54.112 5.2875 107.6-9.5871 158.59-26.225 47.612-17.312 96.674-39.25 128.7-80.062 20.95-25.65 28.187-63.338 13.824-93.801-13.552-30.286-46.626-47.861-79.16-47.871zm-405.49 8.4316c-1.9998-0.012-4.0248 0.069-6.0762 0.2285-48.975 0.1875-89.799 57.225-65.012 102.54 20.962 42.938 74.161 53.486 117.42 48.611 61.65-7.2375 124.91-24.762 174.41-63.35-41.925 17.65-95.376 10.512-125.26-25.65-24.71-28.82-54.825-62.25-95.486-62.377zm2307.3 0.1016c-1.1065 0.021-2.2153 0.071-3.3242 0.1504-41.238-0.012-70.062 32.776-94.6 61.514-29.938 36.75-83.601 44.124-125.89 26.262 60.012 44.675 138.06 66.562 212.6 62.938 46.4-0.7875 95.525-41.825 85.062-91.463-6.8419-33.628-39.551-60.076-73.852-59.4zm-2310.4 25.5c30.579 0.2719 52.106 27.934 66.25 52.52 18.638 27.612 55.3 42.862 87.412 31.162-25.375 18.8-60.987 21.951-92.037 26.639-39.238 4.475-92.2 0.1862-110.84-41.201-13.988-31.238 12.164-63.749 42.977-68.799 2.1195-0.2343 4.1977-0.3384 6.2363-0.3203zm2309 0c33.763-0.3414 66.137 36.371 49.93 69.91-17.912 39.975-68.288 43.5-106.05 41.15-32.875-4.4625-68.899-8.0621-96.674-27.412 35.212 13.05 74.199-6.65 92.299-37.75 10.975-21.2 29.726-40.374 53.738-45.324 2.2493-0.364 4.5068-0.5514 6.7578-0.5742zm-1894.7 0.5606c30.628-0.278 57.12 31.336 48.521 62.047-11.825 34.638-46.112 55.124-78.5 67.861-13.8 3.675-33.625 10.038-43.562-3.9746-9.1375-26.75 2.9992-54.724 14.324-78.949 10.55-19.988 25.051-43.188 49.613-45.838 3.2226-0.7477 6.4351-1.1178 9.6035-1.1465zm1483.2 0.166c18.384 0.05 35.453 10.875 45.314 26.506 18.075 27.45 33.012 60.375 28.662 93.963-4.975 18.762-29.8 14.549-43.787 9.8868-31.55-11.788-64.012-30.938-78.375-62.75-11.95-27.575 7.95-63.101 37.875-66.488 3.457-0.7677 6.9063-1.1266 10.311-1.1172zm417.44 24.529c-0.6587 0-1.3246 0.039-1.9961 0.1015-23.338 4.1375-41.625 24.537-48.688 46.412-3.675 8.85 6.0883 15.45 13.988 15.463 20.425 0.6625 42.7-4.2625 57.875-18.75 13.139-16.142-0.7627-43.381-21.18-43.226zm-2320.4 0.1152c-23.725 0.013-35.85 36.014-14.338 48.389 18.337 10.6 46.513 21.5 65.213 7 1.9125-26.8-25.412-52.164-50.875-55.389zm1467.8 5.0254c19.588 45.725 75.8 67.837 123.44 56.574 26.212-5.8875 53.875-14.561 80.525-5.7109 54.95 7.275 76 88.462 34.963 123.72-24.35 21.088-61.338 23.312-89.9 9.8496-47.5-20.962-81.762-62.475-110.85-104.1-15.725-25.112-32.976-50.6-38.176-80.338zm-615.45 0.2246c0.6375 9.6625-7.0621 26.139-11.85 36.889-28.262 52.425-64.676 103.06-115.05 136.2-30.425 20.312-73.175 28.35-104.88 6.1621-48.888-31.388-29.438-121.12 28.6-128.61 43.912-14.65 86.725 18.436 130.78 5.6738 31.762-5.475 59.488-26.688 72.4-56.312zm178.4 10.678c-1.4091-0.017-2.8852 0.1407-4.4297 0.4981-31.225 12.462-48.138 46.113-59.15 76.15-11.4 29.125 1.0129 67.436 33.4 75.773 26.175 7.275 56.85-10.224 63.088-36.762 6.7875-28.988 1.7867-59.874-7.3633-87.762-4.4632-11.181-11.923-27.731-25.545-27.898zm259.88 0.1172c-1.3659-0.02-2.7579 0.085-4.1758 0.3282-10.512 2.7625-15.599 14.076-19.986 22.988-11.638 29.625-16.151 62.924-8.6758 94.174 4.6625 18.012 21.375 30.364 38.588 35.389 28.838 6.9 60.05-16.337 61.15-46.1 1.1-31.925-15.189-61.551-34.451-85.826-8.4735-9.0059-19.246-20.763-32.449-20.953zm351.71 73.268c-5.5629-0.046-11.037 0.3231-16.158 0.9492-15.75 2.4875-43.527 5.6364-44.164 26.236 12.775 29.125 45.402 45.338 75.227 51.562 28.412 4.1875 48.724-30.912 36.049-55.074-10.088-18.037-31.085-23.508-50.953-23.674zm-957.63 0.1055c-5.8171-0.069-11.617 0.2465-17.264 0.8183-16 1.5875-33.9 8.6497-40.6 24.475-9.7625 21.937 5.0879 51.888 30.088 53.588 27.875-1.7375 54.237-16.401 73.199-36.488 6.95-6.8125 13.675-20.887 3.7871-28.074-14.147-10.462-31.759-14.113-49.211-14.318z" transform="matrix(0.8 0 0 0.8 0 -.000097656)" fill="#5a0000"/>
<path id="path6102" d="m2198 1261.2c-0.4603-0.015-0.9234-0.013-1.3867 0-1.5337 0.051-3.081 0.2703-4.6231 0.6758-17.675 1.525-27.462 24.9-16.225 38.562 11.975 15.075 40.199 9.5863 44.262-9.6387 4.7957-14.376-7.7591-29.138-22.027-29.602zm-1893.8 0.1309c-1.5785-0.013-3.1727 0.1457-4.7617 0.4844-15.225 1.05-25.536 19.362-18.299 32.949 7.825 19.612 41.362 19.013 46.912-1.9746 5.2562-15.723-8.5929-31.355-23.852-31.459zm1251.8 2.7871c-2.2436 0-4.484 0.043-6.7168 0.1445-49.712 2.45-92.599 33.188-124.55 69.301-50.2 57.388-83.151 127.36-109.01 198.49-17.012 44.788-24.525 92.975-26.438 140.56 15.625-55.762 54.251-107.56 109.36-128.88 58.438-23.988 124.15-6.0113 183.4-26.611 34.662-12.362 65.412-37.063 82.637-69.863 24.3-46.025 16.788-106.7-17.625-145.65-22.945-25.266-57.404-37.413-91.059-37.494zm-614.32 0.049c-1.2066 0.012-2.4169 0.04-3.6328 0.084-25.125 1.85-50.813 8.3496-70.838 24.287-48.225 37.038-59.725 110.86-29.912 162.85 21.562 37.6 60.812 63.612 103.04 71.938 51.5 11.088 106.23 0.15 156.34 18.688 57.088 20.212 98.188 73.051 113.59 130.49-2.1625-101.61-43.514-201.09-96.539-287.55-38.169-59.715-96.021-121.53-172.04-120.78zm609.95 36.549c27.825 0.2017 56.139 13.991 70.658 38.197 23.712 37.612 12.627 92.038-21.461 119.49-43.538 28.45-98.451 12.499-147.05 16.637-51.4-0.2625-99.388 33.838-116.94 82-0.975-10.375 3.1754-26.863 7.4629-38.926 24.425-61.438 58.686-119.91 105.24-167.25 26.538-26.375 60.575-49.788 99.4-50.125 0.8961-0.023 1.7938-0.028 2.6914-0.021zm-601.44 0.021c38.225-0.3125 71.65 22.914 98.213 48.289 42.562 41.812 73.725 93.848 98.475 147.77 8.95 19.25 15.375 39.701 16.9 60.988-12.725-28.35-32.299-55.588-61.324-69.051-37.662-19.162-81.576-13.25-122.24-13.562-31.625 2.075-68.025-1.2367-91.15-25.574-23.838-28.738-32.813-72.275-14.213-105.91 13.788-27.7 45.088-43.301 75.338-42.951zm1320 6.2989c-2.2614-0.026-4.5454 0.2976-6.7891 1.0273-14.512 2.075-25.025 19.25-18.525 32.9 7.7 19.825 40.626 18.862 47.613-1.125 8.236-15.302-6.469-32.622-22.299-32.803zm-2038.5 0.1c-2.3568-0.07-4.7402 0.2155-7.084 0.914-13.962 1.925-24.324 18.763-17.236 31.713 6.85 19.775 38.775 21.038 47.338 2.0508 8.6844-16.231-6.52-34.186-23.018-34.678zm182.38 0.5429c-2.7835 0.016-5.5672 0.1727-8.3398 0.4727-55.25 6.4-99.561 46.862-132.27 89.137-32.55 49.6-56.063 104.69-75.713 160.53-6.25 21.362-14.9 43.336-12.338 65.986 12.85-39.712 39.224-76.438 78.074-94 51.525-24.462 110.19-11.275 164.14-24.625 53.2-12.925 85.424-72.349 76.887-124.61-6.8672-42.152-48.682-73.132-90.436-72.885zm1673 0.047c-2.9567-0.013-5.9259 0.1238-8.9024 0.4121-39.45 3.15-76.838 33.3-83.113 73.375-6.45 48.275 19.364 103.14 66.889 120.22 54.462 19.625 115.46 2.6641 169.16 25.852 41.075 16.562 70.4 54.362 83 96.074 2.675-31.888-12.025-64.812-22.562-95.25-28.675-70.725-59.937-146.29-125.57-190.69-22.849-16.437-50.318-29.908-78.898-30zm-535.49 23.486c-2.3597-0.016-4.7411 0.1618-7.127 0.5508-36.775 6.2125-65.5 35.162-84.5 65.688-8.6875 12.538-13.125 36.275 6.3379 41.338 33.412 10.138 70.813 3.4504 102.46-9.9746 28.5-10.462 40.75-49.275 24.213-74.4-9.3625-13.475-24.869-23.092-41.387-23.201zm-602.36 0.4141c-2.3536-0.044-4.7352 0.036-7.1445 0.25-39.938 4.1375-57.674 58.85-27.574 86.1 33.012 24.375 78.912 30.951 118.32 21.238 25.025-7.7625 12.213-37.338 0.7754-51.676-20.121-26.73-49.076-55.262-84.381-55.912zm-261.34 14.002c-3.9939-0.098-8.0176 0.3026-11.977 1.248-12.225 1.5375-23.727 8.0992-30.977 18.137-19.462 24.688-31.848 55.25-34.648 86.588-0.2875 11.35 2.175 26.525 15.875 28.375 28.8 1.8 55.199-13.425 77.512-30 19.512-15.625 39.725-40.563 31.162-67.213-4.704-21.621-25.381-36.612-46.947-37.135zm1126.2 0.2871c-3.6193-0.012-7.2281 0.305-10.746 0.9238-32.525 4.3625-50.813 45.761-33.4 73.211 18.688 30.788 52.337 51.462 87.074 59.438 15.838 5.25 34.639-3.8238 32.451-22.424-0.7375-33.338-14.164-65.913-34.389-92.15-9.4352-12.949-25.306-18.967-40.99-18.998zm-1402.7 6.9941c30.889-0.089 57.844 34.18 45.656 64.191-11.85 37.475-57.662 44.338-91.35 47.65-19.662 2.6875-60.325-0.7504-50.812-30.838 15.212-38.6 49.749-74.113 91.924-80.738 1.5339-0.1752 3.0629-0.2612 4.582-0.2656zm1678.1 0.2305c27.996 0.3854 51.818 20.129 70.127 39.674 12.925 15.025 26.675 32.374 26.562 53.199-1.0625 12.025-14.786 16.538-24.961 17.75-31.838 4.2-65.102-1.8129-93.727-16.275-18.275-8.675-27.236-29.361-27.486-48.711 1.3-24.138 22.837-44.513 46.762-45.613 0.9118-0.029 1.8196-0.036 2.7227-0.023zm-1890.2 34.1c-1.9478-0.039-3.918 0.2617-5.8223 0.9609-8.95 1.4625-14.65 12.05-10.975 20.4 4.7625 13.788 28.413 14.225 32.713-0.1133 4.4824-10.905-5.3983-21.036-15.916-21.248zm2102 0.084c-1.798 0-3.5957 0.287-5.3145 0.8769-9.9125 1.6125-15.762 14.499-10 22.949 6.725 12.875 30.213 9.4254 32.176-5.3496 2.5735-10.536-7.152-18.51-16.861-18.476zm109.09 52.453c-0.4911-0.01-0.984-0.01-1.4766 0-2.672 0.055-5.3653 0.3828-8.0547 1.0078-35 7.4-45.588 49.836-39.713 80.674 6.4875 38.675 17.688 79.714 43.838 109.95-10.262-18.85-11.412-42.089-1.2871-61.264 10.975-26.088 42.95-36.238 50.812-64.15 14.304-29.3-13.184-65.713-44.119-66.223zm-2319.2 0.1c-3.0149-0.05-6.0688 0.2417-9.125 0.9121-21.175 3.15-36.338 23.837-40.75 43.637-0.125 24.6 15.475 45.687 34.6 59.824 25.475 20.325 36.063 58.226 19.025 87.301 13.975-13.35 20.575-32.212 28.1-49.537 12.275-32.925 22.762-69.276 13.162-104.26-4.7141-20.475-23.907-37.523-45.012-37.873zm2317 20.1c10.885 0.068 22.297 6.6584 24.828 17.522 4.8 20.25-10.65 37.651-24.975 49.488-7.3125 6.9625-22.912 8.6988-24.062-4.7012-4.7375-20.225-5.1621-53.287 18.275-61.662 1.92-0.4491 3.9177-0.6591 5.9336-0.6465zm-2317.6 0.4278c30.443 0.1365 34.486 49.305 20.916 70.357-32.312 7.1125-67.837-58.739-25.6-70.014 1.626-0.2396 3.1863-0.3505 4.6836-0.3437zm1505.9 98.92c-2.503-0.012-5.1966 0.4257-8.0606 1.3984-30.212 5.3875-17.586 54.263 11.639 45.613 27.12-4.9504 20.618-46.91-3.5781-47.012zm-691.07 0.1348c-2.2591 0.019-4.5613 0.4038-6.8535 1.2148-14.125 3.325-22.064 22.063-13.664 34.275 8.125 16.7 36.514 15.35 42.664-2.5625 7.3281-15.236-6.3324-33.057-22.146-32.928zm-81.682 6.0996c-2.4142 0-4.9833 0.4223-7.6856 1.3398-32.575 6.4875-14.887 57.538 14.301 45.062 25.568-7.2839 16.722-46.414-6.6152-46.402zm854.17 0.3535c-2.2878-0.016-4.5899 0.3107-6.8223 1.0234-19 3.9625-23.549 32.075-7.1738 42.088 14.475 11.575 39.774-0.9621 37.236-19.912 1.0969-13.046-10.886-23.113-23.24-23.199zm-695.15 15.74c-1.1024 0.032-2.2199 0.157-3.3496 0.3828-14.7 1.2625-25.188 17.514-19.613 31.539 5.375 19.038 36.001 20.825 43.926 2.6875 8.4492-14.801-4.4271-35.106-20.963-34.609zm534.88 0.096c-1.0817 0.019-2.1721 0.1206-3.2637 0.3125-17.312 1.0625-26.85 24.012-16.275 37.5 10.862 15.95 40.262 10.612 42.949-9.125 3.6703-14.307-8.4684-28.224-22.332-28.68-0.3585-0.012-0.7176-0.014-1.0781-0.01zm693.48 35.978c-1.3381 0.038-2.6899 0.2129-4.041 0.5352-22.525 1.275-27.213 36.275-6.9258 44.438 14.075 7.8875 34.801-3.5379 34.801-19.9 0.8383-13.141-10.899-25.44-23.834-25.072zm-1922.1 0.027c-1.4566 0.013-2.9274 0.1694-4.3945 0.4824-16.762 2.1125-26.299 25.324-14.262 37.887 11.15 15.875 40.337 9.5875 42.137-10.375 3.4098-14.828-9.4004-28.117-23.48-27.994zm1452.5 1.6191c-0.482-0.025-0.9734-0.025-1.4726 0-1.6525 0.09-3.3974 0.475-5.2149 1.2109-20.4 5.7375-8.1621 38.138 10.963 29.838 17.087-4.9823 10.666-30.264-4.2754-31.051zm-981.09 0.1895c-1.8335-0.04-3.7169 0.2753-5.582 1.0117-9.0875 2.5625-14.248 15.05-8.7734 23.062 5.8375 12 26.175 9.2113 29.162-3.5762 3.5542-9.7768-4.9058-20.284-14.807-20.498zm1181.4 4.6855c-2.8364-0.036-5.7247 0.09-8.6602 0.3887-58.6 2.325-97.9 54.637-119.94 103.7-27.162 64.125-48.249 134.51-39.736 204.65 1.3625-55.512 44.662-101 96.537-115.34 30.738-9.7125 64.887-5.7633 94.012-20.988 21.138-12.275 44.525-26.711 52.4-51.299 19.372-52.398-16.943-120.38-74.615-121.11zm-1376.4 0.1953c-2.0018-0.016-4.0117 0.039-6.0273 0.168-65.05-0.4875-100.38 81.762-69.338 134.32 11.738 17.662 30.438 28.7 48.438 39.025 39.25 17.825 86.075 8.7996 123.1 33.162 37.888 19.812 63.188 58.926 64.812 101.8 7.975-48.2-4.6117-97.725-17.137-144.46-13.85-45.4-32.662-90.712-65.125-126.14-20.438-21.328-48.697-37.636-78.723-37.881zm889.28 7.9434c-2.0773-0.04-4.1966 0.2317-6.3106 0.8613-18.212 1.925-24.975 28.626-11.25 39.988 11.8 12.388 35.637 6.4367 39.449-10.551 5.1734-14.514-7.3473-30.023-21.889-30.299zm-407.5 0.022c-2.0632-0.036-4.1691 0.216-6.2754 0.791-14.362 2.45-23.15 19.961-16.037 32.986 7.575 20.275 40.826 16.625 44.738-4.2871 4.3641-14.973-7.9829-29.24-22.426-29.49zm1246.9 1.7324c-0.8169 0.012-1.6534 0.059-2.5078 0.1582-34.888 0.65-24.625 56.6 7.5 46.588 27.355-4.7226 20.328-46.984-4.9922-46.746zm-2087.1 0.125c-0.52662 0.016-1.0567 0.051-1.5898 0.1074-16.85 0.55-28.988 21.251-19.188 35.576 8.3125 16.662 36.487 15.324 42.6-2.5508 7.4472-15.028-5.4938-33.622-21.822-33.133zm687.52 5.6152c-3.6862 0.054-7.4459 0.3538-11.271 0.918-35.25 2.0625-64.601 26.575-81.051 56.562-21.9 42.188-31.55 90.887-26.438 138.22 6.0375 55.225 17.138 110.09 34.775 162.81 6.4875 15.65 10.939 33.375 23.389 45.475-16.95-49.4-8.2375-108.74 30.125-145.94 33.038-36.588 81.524-56.462 109.64-97.85 40.567-60.273-4.2134-161.29-79.166-160.21zm714.74 0.2071c-3.6533 0-7.3293 0.228-11.014 0.7109-76.688 5-113.28 111.86-65.551 167.96 35.362 42.462 90.901 63.925 121.05 111.44 24.225 36.412 25.338 82.986 12.426 123.71 27.638-36.675 34.186-84.775 45.549-128.29 17.425-73.312 23.226-155.6-16.762-222.89-17.23-30.552-50.384-52.613-85.699-52.648zm529.76 12.5c-1.4565-0.054-2.9562 0.1305-4.4687 0.5976-9.425 1.225-15.226 12.876-10.988 21.426 2.8875 12.738 25.862 12.688 29.162 0.25 4.5609-9.7454-3.5097-21.893-13.705-22.273zm-1776.5 0.051c-1.3322-0.013-2.6863 0.1746-4.0332 0.5839-9.325 1.525-14.988 12.914-11.176 21.477 3.675 13.812 29.126 12.112 30.051-2.7754 2.7452-9.5594-5.5153-19.215-14.842-19.285zm1573.5 6.5175c35.496-0.2063 60.819 48.233 35.144 75.98-25.75 26.512-66.613 38.887-102.74 33.074-20.012-3.6625-15.55-27.363-8.5879-40.775 14.662-29.225 38.025-59.087 70.875-67.887 1.79-0.2537 3.5609-0.3824 5.3067-0.3926zm-1374.1 0.3789c41.025 4.5375 71.363 44.838 83.15 82.363 9.525 23.85-21.062 31.874-38.375 28.137-31.988-4.9125-70.113-15.799-85.426-47.387-11.075-27.725 11.013-61.776 40.65-63.113zm1799.7 17.119c-1.105 0.033-2.2254 0.1565-3.3574 0.3808-14.7 1.25-25.188 17.514-19.613 31.539 5.3625 19.05 36.051 20.811 43.951 2.6484 8.5196-14.824-4.4074-35.054-20.98-34.568zm-2222.6 0.092c-1.0817 0.02-2.172 0.1224-3.2637 0.3144-17.375 1.05-26.802 23.963-16.289 37.488 10.85 15.962 40.288 10.637 42.963-9.1133 3.6702-14.307-8.4685-28.235-22.332-28.684-0.35856-0.012-0.71756-0.013-1.0781-0.01zm751.95 10.633c36.645-0.6758 63.502 45.826 42.514 77.432-17.425 28.775-42.738 54.551-74.562 66.801-9.9125 4.9625-22.75 0.8496-27.062-9.5254-10.775-28.038-6.5121-59.549 2.7754-87.387 7.6375-21.825 24.224-44.164 48.887-46.539 2.5188-0.4828 5.0061-0.7361 7.4492-0.7812zm720.39 0.1562c30.051 0.1 51.207 30.136 57.66 57.527 4.9625 24.7 10.062 52.062-0.4258 76-3.675 12.525-18.762 15.175-29.188 9.9121-32.6-13.862-59.436-40.711-75.523-72.049-14.188-28.788 7.3734-68.175 39.648-70.75 2.6709-0.4415 5.2814-0.649 7.8282-0.6407zm-512.29 1.6446c-0.7036 0.0007-1.4133 0.053-2.125 0.1582-9.6625 1.35-15.926 11.551-12.676 21.051 3.3375 13.512 25.974 14.4 29.824 0.6621 4.7578-10.442-4.4683-21.882-15.023-21.871zm301.92 0.045c-0.5443 0-1.0872 0.033-1.6231 0.1-11.288 0.825-18.538 14.536-12 24.236 6.475 13.45 31.538 7.3875 28.875-8.4375 1.6523-8.789-7.0873-15.917-15.252-15.898zm-1104.2 4.625c-19.538 88.825-11.462 181.04 9.5625 268.85 14.262 55.712 35.525 111.95 75.287 154.72 36.575 39.25 96.85 57.512 147.69 36.912 46.225-19.012 74.936-68.887 75.611-117.85-0.5375-53.988-36.8-103.58-84.75-126.36-46.512-23.738-101.57-27.3-144.96-57.537-51.85-34.638-76.862-98.513-78.438-158.74zm1905.9 0.4258c-0.4 56.788-22.787 115.64-68.287 151.4-53.712 43.612-130.4 39.65-184.28 83.225-36.412 29.662-61.412 77.724-53.012 125.45 6.3 50.125 44.211 96.889 94.924 106.45 53.175 9.9375 108.56-15.688 139.86-58.875 48.588-64.612 67.025-146.03 77.875-224.64 9.325-60.4 5.6371-125.45-7.0879-183.01zm206.88 48.455c-1.5632-0.021-3.1469 0.1321-4.7324 0.4825-15.525 2.1125-24.888 20.499-17.25 34.324 8.5625 17.75 38.587 16.5 44.012-2.8496 6.2418-15.078-6.9189-31.746-22.029-31.957zm-2317.8 0.014c-1.4652 0-2.9418 0.1478-4.4102 0.4688-15.412 2.2-25.038 20.413-17.438 34.363 8.3625 19.612 41.275 14.887 44.713-5.7382 4.4632-14.602-8.7004-29.06-22.865-29.094zm2093.7 68.494c2.9875 77.112-10.086 157.34-44.023 227.7-20.25 41.45-56.401 81.201-105.08 85.014-40.262 7.475-83.1-20.176-92.412-60.076-9.2125-33.262-1.5992-74.762 28.613-95.062 47.338-30.562 108.61-25.025 156.46-54.775 35.488-21.3 51.675-63.511 56.438-102.8zm-1871.7 0.3867c6.775 35.812 20.001 78.45 53.738 99.963 44.288 29.438 100.52 27.212 147.64 49.85 58.988 25.675 58.937 118.88 6.0371 150.99-30.3 18.85-69.825 14.763-100.1-1.9121-37.55-21.938-60.101-61.564-75.113-101.14-24.512-62.862-32.074-130.71-32.199-197.75zm2134 0.6094c-1.6863-0.02-3.4961 0.2678-5.418 0.9277-19.588 3.3-12.401 35.388 6.9492 30.625 19.416-2.2544 14.769-31.354-1.5312-31.553zm-2393.9 0.2187c-1.3324 0.04-2.6828 0.2682-4.0234 0.709-13.288 1.55-16.189 22.589-4.4766 28.477 8.7375 5.5749 23.525 0.3242 24.125-10.863 2.1328-9.6797-6.2986-18.604-15.625-18.322zm1086.6 37.525c-1.4427 0.012-2.92 0.2428-4.3965 0.7461-10.612 1.725-15.849 15.138-10.012 24.062 5.85 11.7 25.788 8.9633 29.051-3.6367 3.9485-9.9859-4.5442-21.217-14.643-21.172zm219.75 0.086c-1.3827 0.026-2.7816 0.2504-4.166 0.6973-11.488 1.6875-15.651 18.199-7.6387 26.012 7.7875 9.7375 26.4 5.9508 27.812-7.3242 2.5484-10.095-6.329-19.569-16.008-19.385zm978.16 13.977c-4.0317-0.045-8.1793 0.4872-12.385 1.6836-44.312 11.888-52.563 67.238-50.275 106.19 1.5 15.125 6.2125 42.511 27.188 39.174 36.05-12.238 63.213-43.788 79.525-77.25 13.916-30.738-11.224-69.426-44.053-69.795zm-2174.6 0.416c-3.37 0.031-6.8023 0.4516-10.27 1.3047-32.188 4.2875-49.402 46.125-33.352 73.213 15.338 29.2 39.2 55.412 69.312 69.537 9.025 5.6125 22.489 2.975 26.977-7.0625 14.612-30.012 8.8113-65.863-1.2012-96.426-7.3829-22.017-27.877-40.789-51.467-40.566zm1152.8 42.24c-1.0743 0.025-2.1586 0.1366-3.2461 0.3399-15.912 1.2-26.313 20.125-18.426 34.25 7.6625 17.912 37.675 17.724 44.275-1.0137 7.5-15.14-6.4883-33.961-22.604-33.576zm-132.65 0.037c-1.0324 0.03-2.0737 0.1371-3.1191 0.3261-15.475 1.1-26.725 20.012-19.213 33.938 7.4125 19.325 39.639 17.537 45.014-2.5879 6.2579-15.316-7.1948-32.127-22.682-31.676zm305.73 2.9394c-0.849-0.025-1.7016-0.023-2.5547 0-2.8241 0.084-5.6655 0.4444-8.498 1.1113-21.438 4.2125-39.314 22.826-40.951 44.926-2.0875 37.712 12.487 77.2 39.975 103.25 9.15 8.85 23.489 6.7007 30.451-3.4492 20.875-26.175 30.262-60.663 30.6-93.775 1.284-26.799-22.702-51.296-49.022-52.064zm-476.08 0.1758c-0.779-0.019-1.5587-0.016-2.3398 0.01-2.5859 0.072-5.1804 0.3693-7.7598 0.9083-25.088 4.1749-45.063 29.737-41.813 55.262 2.2 32.088 10.037 66.2 31.824 90.85 8.9125 12.7 26.225 7.6 34.463-2.6875 23.325-27.038 37.599-63.387 34.486-99.35-1.9424-24.582-24.714-44.406-48.861-44.988zm1073.5 57.379c-4.3735-0.04-8.709 0.459-12.369 1.084-29.788 4.6375-58.624 17.725-81.699 37.188-27.512 22.1-20.799 73.025 13.488 84.775 31.35 13.562 62.412-9.7746 78.6-35.162 14.312-21.962 29.837-48.188 24.662-75.375-3.2485-9.7195-13.06-12.421-22.682-12.51zm-1672.2 0.5469c-3.3155-0.027-6.6426 0.105-9.9766 0.4121-12.812 1.2875-18.212 16.112-15.199 27.312 5.825 34.088 24.588 66.95 52.525 87.625 19 15.188 48.386 14.338 66.461-1.9492 23.088-20.388 20.338-62.013-5.4375-79.051-25.364-18.748-56.322-34.078-88.373-34.35zm771.13 22.24c-1.619 0.035-3.2555 0.2679-4.8867 0.7227-14.562 2-24.361 19.636-17.336 32.924 6.975 18.575 37.861 18.001 44.086-1.0117 7.8164-14.817-6.2133-32.971-21.863-32.635zm128.88 0.012c-1.6565 0.025-3.3364 0.2535-5.0157 0.7129-14.338 1.9-23.612 18.875-17.438 32.037 6.4625 18.55 37.088 19.65 44.113 0.9629 8.2583-15.044-5.648-33.948-21.66-33.713zm-155.12 74.658c-2.027 0.03-4.0894 0.3567-6.1426 1.0176-16.6 2.1875-24.936 25.736-12.611 37.461 11.05 14.762 38.775 8.8637 41.5-9.8613 3.9375-14.602-8.5576-28.83-22.746-28.617zm181.41 0.037c-2.0928 0.012-4.2153 0.3243-6.3184 0.9805-17.388 2.7125-23.263 27.625-10.801 39.35 12.65 11.975 35.888 6.4867 40.525-10.738 4.4734-14.962-8.757-29.667-23.406-29.592zm-651.21 17.807c-1.694 0-3.3856 0.2344-4.9863 0.7031-13.538 1.7-15.387 24.25-2.5117 28.75 10.788 6.2375 26.336-4.55 22.523-17-0.29463-8.1454-7.6848-12.462-15.025-12.453zm1121.2 0c-1.6942 0-3.3856 0.2344-4.9863 0.7031-13.288 1.675-15.301 23.363-3.1387 28.4 10.575 6.8875 27.126-3.9504 23.176-16.65-0.3149-8.1454-7.7094-12.462-15.051-12.453zm-1811.2 31.2v1.125c34.312 22.8 61.862 58.45 66.875 100.22 8.5 57.113-23.513 109.47-25.051 165.82-1.5 63.438 66.276 116.25 127.36 104.24 47.338-10.425 79.775-59.8 72.812-107.47-7.8-66.125-48.138-123.85-98.113-165.91-44.143-37.3-88.28-78.9-143.88-98zm2499.3 1.1367c-0.7728 0.016-1.5531 0.07-2.3399 0.1621-59.412 21.788-107.03 67.4-153.68 108.85-47.062 42.062-82.9 101.31-85.75 165.49-2.6 52.188 44.325 101.47 97.188 97.6 52.45-4.075 103.71-49.175 103.43-103.85-0.3375-55.388-31.713-106.49-25.551-162.39 3.4-43.362 30.775-82.7 67.438-105.03 0 0 0.01 0.01 0.014 0.01v-0.8301c-0.2499 0-0.4967-0.021-0.748-0.016zm-634.99 8.3711c-2.5555 0.059-5.2802 0.5834-8.1465 1.666-29.475 7.3375-15.048 55.788 14.102 45.25 26.919-6.2676 18.46-46.238-4.8711-46.914-0.3581-0.01-0.7189-0.01-1.084 0zm-1226.7 0.5254c-2.5238-0.074-5.0918 0.287-7.6074 1.1543-19.438 3.2125-23.386 31.988-7.2988 41.938 13.225 9.85 35.874 1.825 37.262-15.312 3.6492-14.323-8.7273-27.382-22.355-27.779zm757.55 1.2656c-2.1221 0.026-4.2754 0.3699-6.4082 1.0762-17.412 3.0125-23.099 27.249-10.424 38.736 11.6 12.238 34.811 6.95 39.398-9.5625 5.6328-15.083-7.7116-30.433-22.566-30.25zm-290.18 0.018c-2.0932 0.032-4.2187 0.3711-6.3281 1.0586-17.425 2.9-23.112 27.424-10.312 38.736 11.775 12.5 35.638 6.7004 39.525-10.412 4.8562-14.842-8.232-29.608-22.885-29.383zm1046 26.871c-1.2663 0.017-2.6118 0.1902-4.0352 0.5371-17.825 2.0625-16.149 31.324 2.1133 31.174 22.043 2.4257 20.915-31.974 1.9219-31.711zm-1799.9 0.041c-1.245 0.021-2.5688 0.1949-3.9688 0.5449-17.75 2.175-16.325 31.151 1.9121 31.139 21.797 2.2616 20.732-32.006 2.0566-31.684zm395.09 14.385c-62.302 0.5745-126.1 51.139-123.82 116.71-2.65 59.838 41.15 109.73 91.162 136.59 69.438 38.4 148.78 54.549 226.96 63.049 49.425 6.6252 102 0.6879 149.31-7.0371-65.262-3.45-138.01-35.761-167.99-99.299-19.95-40.55-24.625-86.862-45.5-127-22.588-47.988-73.525-83.438-127.16-83-0.98787-0.016-1.9758-0.021-2.9648-0.012zm1003 0.014c-61.925 0.2875-115.98 47.3-135.05 104.62-16.438 42.262-21.662 89.7-49.162 127.06-34.088 50.262-97.426 74.211-154.68 77.549 89.275 18.962 187.7 7.2871 277.12-16.338 55.075-15.638 110.9-37.962 151.62-79.625 35.4-36.338 50.562-93.838 29.5-141.25-20.488-45.125-70.649-72.736-119.36-72.024zm-1175.7 8.0782c-0.39211-0.01-0.78503-0.01-1.1777 0-1.3 0.039-2.6019 0.2002-3.8887 0.4942-19.8 2.025-27.099 30.95-10.512 41.787 13.988 12.388 39.925 0.3504 38.213-18.537 1.1962-12.664-10.479-23.43-22.635-23.746zm1354.9 0.068c-0.3892-0.01-0.779-0.01-1.168 0-1.2878 0.037-2.5714 0.1965-3.8359 0.4883-18.475 1.5125-26.888 28.162-12.551 39.938 13.3 14.975 42.076 3.3132 40.264-16.762 1.3169-12.598-10.643-23.338-22.709-23.666zm-872.94 6.666c-0.8702-0.021-1.7774 0.039-2.7188 0.1875-9.65 0.225-18.099 10.5-13.949 20.037 3.0375 11.05 17.048 12.688 25.398 7.1875 9.1523-8.5782 4.3206-27.089-8.7304-27.412zm391.6 0.043c-0.5742 0.032-1.164 0.096-1.7695 0.1934-21.325-0.2875-16.214 35.713 4.0234 29.863 17.695-1.418 15.704-29.159-0.5781-30.057-0.5428-0.03-1.1015-0.032-1.6758 0zm-1034.4 9.0274c-2.1748-0.012-4.3969 0.2949-6.6172 0.9668-17.462 3.15-23.561 28.625-10.111 39.838 11.425 12.438 34.7 6.875 39.25-9.5 5.6438-15.498-7.2984-31.218-22.521-31.305zm1675 0.1c-1.8286 0.045-3.6645 0.3168-5.4707 0.8418-20.75 2.425-24.875 33.801-7.0254 43.301 14.475 9.475 37.2-2.1765 36.062-20.039 1.6187-13.562-10.765-24.416-23.566-24.104zm-1591 6.0058c-2.2148-0.04-4.4851 0.2836-6.7617 1.0352-13.612 2.7-22.625 19.314-16.15 31.889 5.8375 19.35 37.9 19.224 44 0.1367 7.175-14.634-5.5849-32.78-21.088-33.061zm1508.5 0.09c-2.2144-0.039-4.4797 0.2808-6.7422 1.0215-14.062 2.1875-22.363 20.375-15.676 32.775 6.55 18.512 38.113 17.887 43.588-1.0253 7.3719-14.612-5.6687-32.498-21.17-32.772zm-1255.4 13.762c27.49 0.1329 55.44 11.268 70.248 35.494 25.488 42.325 22.526 94.751 43.576 138.93 17.512 42.038 60.949 68.45 105.3 72.562-17.95 2.2-37.4 3.7375-55.775 0.375-61.612-9.9375-122.72-27.95-177.09-59.125-36.838-22.05-74.164-55.924-75.826-101.95-3.8625-42.688 32.438-81.813 74.426-85.238 4.9726-0.7167 10.048-1.0695 15.139-1.0449zm1003.7 0c32.532 0.012 65.598 17.585 79.16 47.871 15.238 32.225 6.0633 71.951-17.137 97.988-33.675 39.6-82.962 60.888-130.95 77.801-49.325 15.5-100.88 29.561-153.03 24.299 34.75-5.725 74.699-22.362 94.762-55.062 30.412-45.188 25.914-103.34 50.076-151.14 12.362-23.325 36.712-39.488 63.262-40.676 4.5671-0.7297 9.2042-1.0855 13.852-1.084zm-599.47 34.209c-2.251 0.023-4.5085 0.2102-6.7578 0.5742-24.012 4.95-42.751 24.124-53.738 45.324-18.1 31.1-57.074 50.8-92.299 37.75 26.725 18.862 61.488 22.325 93.15 27.125 38.688 2.8624 90.962 0.2617 109.57-40.863 16.207-33.539-16.167-70.252-49.93-69.91zm190.3 0.014c-1.8157 0-3.6519 0.1038-5.5098 0.3106-30.812 5.05-56.977 37.561-42.977 68.799 18.412 41 70.726 45.613 109.68 41.301 31.45-4.6 67.474-7.7633 93.199-26.738-35.425 13.075-74.737-7.0238-92.449-38.611-12.375-22.722-34.704-45.084-61.939-45.061zm415.03 0.5508c-3.1685 0.029-6.3809 0.3989-9.6035 1.1465-31.15 4.3625-46.114 37.349-57.326 63.074-7.3875 19.638-14.687 42.214-6.0996 62.576 10.85 13.05 30.038 6.6621 43.988 2.7871 31.988-12.85 65.9-33.187 77.562-67.537 8.5981-30.71-17.894-62.325-48.522-62.047zm-1017.6 0.25c-3.1711 0.031-6.3634 0.3691-9.5371 1.0332-31.7 3.475-51.612 43.001-35.875 70.738 17.25 31.188 50.762 51.275 84.475 60.588 12.675 3.9375 33.162 3.175 35.938-13 3.475-34.688-11.775-68.812-31.662-96.438-9.7031-14.354-26.214-23.094-43.338-22.922zm418.21 24.445c20.428-0.1543 34.316 27.085 21.178 43.227-15.175 14.488-37.438 19.412-57.875 18.75-7.8875-0.012-17.651-6.5879-13.988-15.463 7.0625-21.875 25.35-42.275 48.688-46.412 0.6718-0.064 1.3392-0.097 1.9981-0.1016zm179.59 0.1153c25.462 3.225 52.788 28.589 50.875 55.389-18.7 14.5-46.888 3.6125-65.213-7-21.525-12.375-9.3871-48.376 14.338-48.389zm-1032.2 5.0254c5.2 29.738 22.451 55.224 38.176 80.336 29.088 41.625 63.35 83.139 110.85 104.1 28.562 13.475 65.55 11.236 89.9-9.8516 41.05-35.262 19.987-116.45-34.963-123.72-26.638-8.85-54.3-0.164-80.525 5.711-47.638 11.275-103.85-10.849-123.44-56.574zm1884.6 0.2246c-12.912 29.625-40.65 50.838-72.4 56.312-44.05 12.762-86.863-20.324-130.78-5.6739-58.038 7.5-77.5 97.224-28.6 128.61 31.7 22.188 74.45 14.15 104.88-6.1621 50.375-33.138 86.788-83.774 115.05-136.2 4.7875-10.75 12.487-27.214 11.85-36.889zm-2062 10.726c12.186-0.12 22.286 10.472 30.477 18.334 20.375 24.5 37.249 54.688 36.887 87.438-0.7 22.8-18.574 42.75-40.637 47.25-27.175 5.8625-57.689-14.788-60.764-42.713-5.227-29-0.638-59.4 10.137-86.8 4.4-8.9125 9.4738-20.226 19.986-22.988 1.3054-0.2566 2.589-0.3841 3.8496-0.3965zm2239.6 0.01c0.3835-0.011 0.7611-0.01 1.1348 0 14.451 0.5179 21.725 18.768 26.268 30.572 8.6875 30.062 14.988 64.15 3.125 94.225-14.55 31.675-62.889 39.902-84.914 11.352-23-27.062-9.4234-65.288 6.3516-92.375 11.05-17.15 23.887-37.038 44.449-43.338 1.2401-0.2646 2.4355-0.4072 3.5859-0.4395zm-1886.5 73.35c17.671 0.2953 35.766 4.8524 46.979 19.027 17.862 23.512-2.5863 64.324-33.174 59.699-29.825-6.225-62.452-22.438-75.227-51.562 0.65-20.588 28.414-23.736 44.164-26.236 5.525-0.65 11.368-1.0262 17.258-0.9277zm1541.3 0.086c17.45 0.2087 35.07 3.8633 49.217 14.316 9.8875 7.1875 3.1504 21.274-3.7871 28.074-18.962 20.088-45.324 34.751-73.199 36.488-25.012-1.7-39.863-31.65-30.088-53.588 6.7-15.812 24.587-22.887 40.6-24.475 5.6438-0.5718 11.441-0.886 17.258-0.8165zm-1077.6 152.7c-1.5346 0.051-3.0836 0.273-4.627 0.6797-17.675 1.5251-27.45 24.9-16.225 38.562 11.988 15.075 40.199 9.5863 44.262-9.6387 4.9618-14.851-8.5752-30.103-23.41-29.604zm607.61 0.1328c-1.5785-0.013-3.1727 0.1456-4.7617 0.4844-15.238 1.05-25.549 19.362-18.299 32.949 7.825 19.6 41.362 19.013 46.912-1.9746 5.2562-15.735-8.5931-31.357-23.852-31.459zm638.53 2.7637c-1.5552 0.022-3.1145 0.076-4.6777 0.1582-25.125 1.8501-50.813 8.3371-70.838 24.287-48.225 37.038-59.725 110.86-29.912 162.85 21.562 37.6 60.8 63.612 103.04 71.938 51.5 11.088 106.23 0.15 156.34 18.688 57.088 20.212 98.188 73.051 113.59 130.49-0.6125-32.562-6.8375-67.851-13.312-100.76-27.688-88.825-65.588-177.7-129.8-246.46-32.005-34.354-76.21-61.894-124.42-61.184zm-1886.7 0.031c-2.2442 0-4.4852 0.043-6.7188 0.1445-37.625 1.8375-72.411 20.375-100.21 44.9-63.812 58.838-102.18 139.02-132.05 219.2-17.725 45.912-25.863 95.325-27.738 144.25 15.625-55.775 54.251-107.56 109.36-128.88 58.438-24 124.15-6.0113 183.4-26.611 34.662-12.362 65.412-37.063 82.637-69.863 24.3-46.038 16.788-106.7-17.625-145.65-22.945-25.266-57.394-37.413-91.057-37.494zm-4.377 36.598c27.825 0.2018 56.139 13.991 70.658 38.197 23.712 37.612 12.627 92.038-21.461 119.49-43.525 28.45-98.451 12.499-147.05 16.637-51.4-0.2625-99.388 33.838-116.94 82-1.0125-10.025 3.075-26.262 7.125-38 23.35-59.425 56.213-115.79 100-162.5 27.6-28.862 63.35-55.338 104.97-55.801 0.896-0.021 1.7938-0.028 2.6914-0.021zm1898.6 0.02c38.225-0.3125 71.65 22.914 98.213 48.289 42.562 41.812 73.712 93.848 98.475 147.77 8.95 19.25 15.363 39.688 16.9 60.988-17.662-45.462-61.063-80.826-110.86-82.051-49.412-6.575-103.66 11.49-149.36-14.385-40.725-27.463-52-92.002-20.338-130.54 16.012-19.825 41.762-30.239 66.975-30.076zm-1180 6.2988c-2.2614-0.026-4.5454 0.2976-6.7891 1.0274-14.512 2.075-25.013 19.25-18.525 32.9 7.7125 19.812 40.626 18.862 47.613-1.125 8.236-15.302-6.469-32.622-22.299-32.803zm461.53 0.1016c-2.3569-0.07-4.7403 0.2157-7.084 0.914-13.962 1.925-24.324 18.75-17.236 31.713 6.85 19.775 38.775 21.026 47.338 2.0508 8.6844-16.242-6.5201-34.188-23.018-34.678zm182.38 0.5429c-2.7837 0.016-5.5672 0.1727-8.3399 0.4727-55.25 6.4-99.561 46.862-132.27 89.137-32.562 49.6-56.063 104.69-75.713 160.53-6.25 21.362-14.9 43.336-12.338 65.986 12.85-39.712 39.224-76.45 78.074-94 51.525-24.462 110.19-11.275 164.14-24.625 53.2-12.925 85.424-72.349 76.887-124.61-6.8672-42.152-48.682-73.132-90.436-72.885zm-827.01 0.047c-2.9576-0.012-5.9266 0.1238-8.9043 0.4121-39.45 3.15-76.826 33.3-83.113 73.375-6.45 48.275 19.364 103.14 66.889 120.22 54.462 19.625 115.47 2.6641 169.16 25.852 41.075 16.562 70.4 54.362 83 96.074 2.675-31.888-12.012-64.812-22.562-95.25-28.662-70.725-59.937-146.29-125.57-190.69-22.838-16.437-50.306-29.908-78.896-30zm-535.49 23.486c-2.3596-0.015-4.7411 0.1617-7.127 0.5507-36.775 6.2127-65.488 35.162-84.5 65.688-8.675 12.537-13.125 36.275 6.3379 41.338 33.412 10.138 70.813 3.4504 102.46-9.9746 28.5-10.462 40.763-49.275 24.213-74.4-9.3625-13.475-24.869-23.092-41.387-23.201zm1897.6 0.414c-2.3537-0.044-4.7352 0.036-7.1445 0.25-39.938 4.1375-57.674 58.85-27.574 86.1 33.012 24.375 78.899 30.951 118.32 21.238 25.025-7.7625 12.213-37.351 0.7754-51.676-20.121-26.73-49.076-55.262-84.381-55.912zm-261.34 13.996c-3.9939-0.095-8.0176 0.3067-11.977 1.2539-12.225 1.5375-23.739 8.0867-30.977 18.137-19.462 24.675-31.848 55.25-34.648 86.588-0.3 11.338 2.175 26.525 15.875 28.375 28.8 1.7875 55.199-13.425 77.512-30 19.512-15.625 39.725-40.563 31.162-67.213-4.7039-21.632-25.381-36.625-46.947-37.141zm-1373.8 0.2891c-3.6194-0.013-7.2281 0.3066-10.746 0.9277-32.525 4.3625-50.813 45.761-33.4 73.211 18.688 30.788 52.349 51.462 87.074 59.438 15.838 5.25 34.651-3.8238 32.451-22.424-0.7375-33.35-14.151-65.913-34.389-92.15-9.4352-12.949-25.306-18.974-40.99-19.002zm1097.3 6.998c30.889-0.09 57.844 34.168 45.656 64.191-11.862 37.475-57.662 44.338-91.35 47.65-19.662 2.6875-60.338-0.7504-50.812-30.838 15.212-38.6 49.749-74.113 91.924-80.738 1.534-0.1752 3.0629-0.2612 4.5821-0.2656zm-821.9 0.2305c27.995 0.3854 51.818 20.129 70.127 39.674 12.925 15.025 26.675 32.362 26.562 53.199-1.0625 12.025-14.773 16.525-24.961 17.75-31.838 4.1875-65.089-1.8129-93.727-16.275-18.275-8.675-27.236-29.361-27.486-48.711 1.3-24.138 22.849-44.526 46.762-45.613 0.91175-0.029 1.8195-0.036 2.7227-0.023zm609.79 33.9c-1.9473-0.039-3.918 0.2618-5.8223 0.9609-8.95 1.4625-14.675 12.038-10.975 20.4 4.7625 13.788 28.4 14.212 32.713-0.1133 4.4719-10.906-5.4008-21.036-15.916-21.248zm-398.01 0.08c-1.798 0.013-3.5957 0.2889-5.3145 0.8808-9.9125 1.6125-15.75 14.487-10 22.949 6.725 12.862 30.213 9.4254 32.176-5.3496 2.5735-10.536-7.152-18.518-16.861-18.48zm109.09 52.457c-0.4911-0.01-0.984-0.01-1.4766 0-2.672 0.055-5.3653 0.3828-8.0547 1.0078-35 7.3875-45.588 49.824-39.713 80.674 6.4875 38.662 17.688 79.714 43.838 109.95-10.25-18.85-11.412-42.101-1.2871-61.264 10.975-26.088 42.962-36.238 50.812-64.15 14.304-29.3-13.184-65.713-44.119-66.223zm180.79 0.1c-3.0146-0.05-6.0668 0.2419-9.123 0.9121-21.175 3.1375-36.338 23.837-40.75 43.637-0.125 24.6 15.475 45.674 34.6 59.824 25.475 20.325 36.063 58.226 19.025 87.301 13.975-13.362 20.575-32.212 28.1-49.537 12.275-32.925 22.762-69.289 13.162-104.26-4.725-20.486-23.912-37.525-45.014-37.873zm-183 20.125c10.89 0.065 22.293 6.6496 24.824 17.523 4.8 20.25-10.65 37.651-24.975 49.488-7.3 6.95-22.912 8.6863-24.062-4.7012-4.7375-20.225-5.1621-53.3 18.275-61.662 1.9219-0.4492 3.9209-0.6604 5.9375-0.6484zm182.41 0.4297c30.444 0.1365 34.486 49.305 20.916 70.357-32.325 7.1125-67.85-58.739-25.6-70.014 1.626-0.2396 3.1865-0.3505 4.6836-0.3437zm-995.37 99.045c-2.2342 0.02-4.5203 0.4218-6.8047 1.2734-15.9 2.375-23.474 24.288-13.262 36.551 9.7375 14.5 35.275 11.776 41.125-4.8242 7.689-14.525-5.4188-33.138-21.059-33zm1810.2 0.014c-2.2592 0.019-4.5614 0.4039-6.8535 1.2148-14.125 3.325-22.064 22.063-13.664 34.275 8.125 16.688 36.514 15.35 42.664-2.5625 7.3281-15.236-6.3325-33.057-22.146-32.928zm-81.684 6.1015c-2.4135 0-4.9825 0.4203-7.6836 1.3379-32.575 6.475-14.887 57.538 14.301 45.062 25.568-7.284 16.713-46.412-6.6172-46.4zm-1645.9 0.6c-2.2879-0.015-4.5899 0.3106-6.8223 1.0234-19 3.9625-23.549 32.075-7.1738 42.088 14.488 11.575 39.774-0.9621 37.236-19.912 1.0969-13.057-10.886-23.115-23.24-23.199zm1804.9 15.738c-1.1018 0.034-2.2187 0.1581-3.3477 0.3847-14.7 1.2625-25.188 17.514-19.613 31.539 5.3625 19.025 36.001 20.825 43.926 2.6875 8.4492-14.801-4.438-35.117-20.965-34.611zm-1965.1 0.096c-1.0821 0.019-2.1732 0.1206-3.2656 0.3125-17.312 1.05-26.85 24-16.275 37.5 10.862 15.938 40.262 10.612 42.949-9.125 3.6702-14.307-8.4591-28.224-22.33-28.68-0.35872-0.012-0.71744-0.014-1.0781-0.01zm693.48 35.975c-1.339 0.039-2.6906 0.2129-4.043 0.5352-22.525 1.2749-27.201 36.275-6.9258 44.437 14.075 7.875 34.801-3.5503 34.801-19.9 0.83825-13.152-10.889-25.442-23.832-25.072zm577.86 0.027c-1.4564 0.012-2.9274 0.1696-4.3946 0.4825-16.762 2.1-26.312 25.324-14.262 37.887 11.15 15.875 40.324 9.5875 42.137-10.375 3.3984-14.84-9.4022-28.119-23.48-27.994zm-1047.5 1.6192c-0.48205-0.025-0.9734-0.025-1.4727 0-1.6528 0.09-3.3972 0.4751-5.2148 1.211-20.388 5.7375-8.1621 38.125 10.963 29.838 17.098-4.9822 10.668-30.265-4.2754-31.051zm1518.9 0.1855c-1.8323-0.039-3.7149 0.2774-5.5782 1.0156-9.0875 2.5627-14.261 15.038-8.7734 23.063 5.8375 11.987 26.175 9.2113 29.162-3.5762 3.5437-9.777-4.917-20.293-14.81-20.502zm-1318.6 4.6953c-2.8369-0.036-5.726 0.09-8.6621 0.3887-58.588 2.325-97.9 54.637-119.94 103.7-27.162 64.125-48.249 134.51-39.736 204.65 1.3625-55.512 44.662-101 96.537-115.34 30.738-9.7125 64.887-5.7633 94.012-20.988 21.138-12.275 44.525-26.711 52.4-51.299 19.372-52.398-16.932-120.38-74.613-121.11zm1123.6 0.1953c-2.0018-0.016-4.0118 0.039-6.0274 0.168-65.05-0.4875-100.38 81.762-69.338 134.32 11.725 17.662 30.425 28.7 48.438 39.025 39.25 17.825 86.075 8.7996 123.1 33.162 37.888 19.812 63.188 58.926 64.812 101.8 7.975-48.2-4.6117-97.725-17.137-144.46-13.85-45.4-32.662-90.712-65.125-126.14-20.438-21.328-48.697-37.636-78.723-37.881zm-1610.7 7.9434c-2.0776-0.04-4.1966 0.2316-6.3106 0.8613-18.2 1.925-24.975 28.613-11.25 39.988 11.8 12.388 35.637 6.4367 39.449-10.551 5.1844-14.514-7.345-30.023-21.889-30.299zm2092.5 0.021c-2.0632-0.036-4.1691 0.216-6.2754 0.791-14.362 2.45-23.15 19.961-16.037 32.986 7.5625 20.275 40.826 16.625 44.738-4.2871 4.3641-14.974-7.9829-29.24-22.426-29.49zm-1253.1 1.7324c-0.8169 0.012-1.6534 0.06-2.5078 0.1582-34.888 0.65-24.625 56.6 7.5 46.588 27.367-4.7347 20.328-46.985-4.9922-46.746zm412.87 0.125c-0.5267 0.016-1.0566 0.051-1.5899 0.1074-16.85 0.55-28.988 21.251-19.188 35.576 8.3 16.65 36.487 15.324 42.6-2.5508 7.4472-15.028-5.4937-33.622-21.822-33.133zm687.52 5.6153c-3.6861 0.054-7.446 0.3537-11.272 0.9179-33.162 2.075-61.825 23.85-78.162 51.938-38.025 63.325-34.6 140.71-19.338 210.45 11.788 47.712 18.451 100.35 48.176 140.69-16.95-49.4-8.2375-108.74 30.125-145.94 33.038-36.588 81.524-56.462 109.64-97.85 40.567-60.273-4.2133-161.29-79.166-160.2zm-1785.3 0.207c-3.6532 0-7.3293 0.2282-11.014 0.7109-76.675 5-113.26 111.86-65.551 167.96 35.362 42.462 90.901 63.925 121.05 111.44 24.225 36.412 25.338 82.986 12.426 123.71 27.638-36.675 34.186-84.775 45.549-128.29 17.425-73.312 23.226-155.6-16.762-222.89-17.23-30.552-50.384-52.614-85.699-52.648zm529.76 12.5c-1.4568-0.054-2.9562 0.1305-4.4688 0.5976-9.425 1.225-15.226 12.863-10.988 21.426 2.8875 12.725 25.862 12.675 29.162 0.25 4.5719-9.7562-3.5076-21.895-13.705-22.273zm723.51 0.051c-1.3324-0.012-2.6863 0.1746-4.0332 0.5839-9.325 1.525-15.001 12.902-11.176 21.477 3.675 13.812 29.113 12.112 30.051-2.7754 2.7454-9.5594-5.5154-19.215-14.842-19.285zm-926.5 6.5175c35.496-0.2065 60.819 48.233 35.145 75.98-25.75 26.512-66.613 38.887-102.74 33.074-20-3.675-15.55-27.363-8.5879-40.775 14.675-29.225 38.038-59.087 70.875-67.887 1.79-0.2537 3.5609-0.3824 5.3066-0.3926zm1125.9 0.3789c41.025 4.525 71.363 44.838 83.15 82.363 9.525 23.85-21.075 31.874-38.375 28.137-31.988-4.9125-70.113-15.799-85.426-47.387-11.075-27.725 11.013-61.776 40.65-63.113zm-700.34 17.119c-1.105 0.032-2.2254 0.1566-3.3574 0.3808-14.7 1.25-25.188 17.514-19.613 31.539 5.375 19.05 36.051 20.811 43.951 2.6484 8.5312-14.836-4.406-35.055-20.98-34.568zm277.37 0.09c-1.0817 0.02-2.1721 0.1243-3.2637 0.3164-17.388 1.0375-26.802 23.951-16.289 37.488 10.85 15.962 40.275 10.624 42.963-9.1133 3.6703-14.308-8.4684-28.235-22.332-28.684-0.3585-0.012-0.7176-0.015-1.0781-0.01zm-1027.8 10.9c30.051 0.098 51.207 30.125 57.66 57.527 4.9625 24.7 10.062 52.062-0.42578 76-3.675 12.525-18.762 15.175-29.188 9.9121-32.6-13.862-59.436-40.711-75.523-72.049-14.175-28.8 7.3734-68.175 39.648-70.75 2.6709-0.4414 5.2814-0.6489 7.8281-0.6406zm1779.2 0.016c22.534-0.1629 43.934 16.741 48.363 39.125 6.05 17.925-2.7121 36.125-13.225 50.312-17.45 23.375-39.762 45.012-67.725 54.912-10.075 4.8625-22.576-0.3508-26.488-10.676-10.2-27.9-6.0617-58.961 3.1758-86.523 7.6375-21.825 24.224-44.164 48.887-46.539 2.3379-0.395 4.6806-0.5944 7.0117-0.6113zm208.54 1.6289c-0.7036 0-1.4133 0.054-2.125 0.1602-9.6625 1.35-15.938 11.536-12.676 21.049 3.3375 13.5 25.974 14.4 29.824 0.6621 4.7578-10.441-4.4683-21.891-15.023-21.871zm-2198.1 0.045c-0.54438 0-1.0872 0.036-1.623 0.1036-11.288 0.825-18.525 14.524-12 24.236 6.475 13.438 31.55 7.3875 28.875-8.4375 1.664-8.8009-7.086-15.931-15.252-15.902zm1395.8 4.627c-13.312 64.25-15.089 130.48-4.3887 195.3 12.075 80.9 32.876 165.99 89.238 228.28 36.788 39.5 97.6 57.7 148.59 36.562 45.712-19.35 74.036-68.825 74.711-117.5-0.5375-53.988-36.8-103.59-84.75-126.36-46.512-23.738-101.57-27.3-144.96-57.537-51.85-34.638-76.862-98.513-78.438-158.74zm-594.11 0.4258c-0.4 56.788-22.787 115.64-68.287 151.4-53.712 43.612-130.4 39.65-184.28 83.225-36.412 29.65-61.412 77.724-53.012 125.45 6.3 50.112 44.211 96.889 94.924 106.45 53.175 9.9375 108.56-15.688 139.86-58.875 48.588-64.612 67.025-146.03 77.875-224.64 9.325-60.4 5.6371-125.45-7.0879-183.01zm206.88 48.455c-1.5632-0.023-3.1469 0.132-4.7324 0.4824-15.525 2.1125-24.888 20.487-17.25 34.324 8.575 17.75 38.587 16.488 44.012-2.8496 6.2418-15.078-6.9189-31.746-22.029-31.957zm182.18 0.014c-1.4652 0-2.9418 0.1478-4.4102 0.4688-15.425 2.2-25.05 20.413-17.438 34.363 8.3625 19.612 41.275 14.887 44.713-5.7383 4.452-14.602-8.7021-29.06-22.865-29.094zm-406.3 68.494c2.9875 77.1-10.086 157.34-44.023 227.7-20.25 41.45-56.401 81.201-105.08 85.014-40.262 7.475-83.1-20.176-92.412-60.076-9.2125-33.262-1.5992-74.762 28.613-95.062 47.338-30.562 108.61-25.025 156.46-54.775 35.488-21.3 51.675-63.511 56.438-102.8zm628.3 0.3867c6.6625 34.4 18.75 75.288 50.088 97.363 51.188 37.912 123.61 26.024 172.85 67.137 37.588 37.738 29.05 111.04-17.875 137.68-30.062 17.325-68.225 12.913-97.75-3.2871-38.688-22.662-61.463-63.864-76.463-104.79-23.562-61.838-30.65-128.36-30.85-194.1zm-365.99 0.6094c-1.6863-0.02-3.4961 0.268-5.418 0.9277-19.575 3.3-12.401 35.388 6.9492 30.625 19.416-2.2656 14.769-31.356-1.5312-31.553zm106.13 0.2187c-1.3312 0.04-2.6804 0.2684-4.0195 0.709-13.288 1.5375-16.189 22.577-4.4766 28.477 8.725 5.5625 23.525 0.3242 24.125-10.863 2.1219-9.6798-6.3108-18.604-15.629-18.322zm1086.6 37.524c-1.4419 0.013-2.9176 0.2433-4.3926 0.748-10.612 1.725-15.849 15.125-10.012 24.062 5.85 11.7 25.788 8.9508 29.051-3.6367 3.9485-9.9859-4.5541-21.225-14.646-21.174zm-2280.2 0.09c-1.3826 0.026-2.7816 0.2504-4.166 0.6973-11.475 1.675-15.651 18.187-7.6387 26.012 7.7875 9.7375 26.4 5.9508 27.813-7.3242 2.5484-10.095-6.3289-19.569-16.008-19.385zm978.16 13.961c-4.0325-0.045-8.1798 0.4874-12.387 1.6836-44.312 11.888-52.563 67.238-50.275 106.19 1.5 15.125 6.225 42.513 27.188 39.176 36.05-12.25 63.213-43.788 79.525-77.25 13.916-30.738-11.215-69.428-44.051-69.797zm325.38 0.4219c-3.37 0.031-6.8024 0.4516-10.27 1.3047-32.188 4.2875-49.414 46.123-33.352 73.211 15.338 29.2 39.2 55.414 69.312 69.539 9.0125 5.6 22.489 2.975 26.977-7.0625 14.612-30.012 8.7988-65.863-1.2012-96.426-7.3827-22.017-27.877-40.789-51.467-40.566zm-1347.3 42.3c-1.0744 0.025-2.1586 0.1367-3.2461 0.3398-15.912 1.2-26.301 20.125-18.426 34.25 7.675 17.912 37.688 17.726 44.275-1.0117 7.5-15.141-6.4884-33.963-22.604-33.578zm2368 0.068c-1.2561-0.015-2.5133 0.081-3.7578 0.2969-21 1.2-29.799 32.6-11.137 43.713 15.275 10.875 39.911-1.2492 37.898-20.637 1.1442-12.733-10.862-23.229-23.004-23.373zm-2197.4 2.9c-2.8242 0.084-5.6657 0.4446-8.498 1.1113-21.438 4.2127-39.301 22.826-40.951 44.926-2.0875 37.7 12.487 77.2 39.975 103.25 9.15 8.8375 23.489 6.7008 30.451-3.4492 20.888-26.175 30.262-60.675 30.6-93.775 1.3368-27.663-24.275-52.873-51.576-52.062zm2026.5 0.1758c-0.779-0.019-1.5587-0.018-2.3398 0-2.5859 0.072-5.1806 0.3692-7.7598 0.9082-25.1 4.175-45.075 29.724-41.812 55.262 2.2 32.088 10.037 66.2 31.824 90.85 8.9125 12.688 26.213 7.6 34.463-2.6875 23.325-27.038 37.599-63.387 34.486-99.35-1.9424-24.593-24.714-44.406-48.861-44.986zm-1426.5 57.371c-4.3736-0.04-8.711 0.4609-12.375 1.0898-29.788 4.625-58.624 17.725-81.699 37.188-27.512 22.1-20.799 73.025 13.488 84.775 31.362 13.562 62.412-9.7746 78.6-35.162 14.312-21.962 29.837-48.188 24.662-75.375-3.2485-9.7195-13.054-12.427-22.676-12.516zm827.75 0.5527c-3.3148-0.029-6.6418 0.105-9.9746 0.4121-12.812 1.2875-18.212 16.1-15.199 27.312 5.825 34.088 24.588 66.95 52.525 87.625 18.988 15.188 48.386 14.326 66.461-1.9492 23.088-20.388 20.338-62.026-5.4375-79.051-25.364-18.748-56.332-34.078-88.375-34.35zm771.14 22.24c-1.619 0.035-3.2555 0.2681-4.8867 0.7227-14.575 2-24.361 19.636-17.336 32.924 6.975 18.562 37.861 18.001 44.086-1.0117 7.8164-14.828-6.2133-32.973-21.863-32.635zm-2371.1 0.014c-1.6565 0.025-3.3364 0.2535-5.0156 0.7129-14.338 1.9-23.6 18.862-17.438 32.037 6.4625 18.55 37.088 19.638 44.113 0.9629 8.2581-15.055-5.648-33.95-21.66-33.713zm26.295 74.691c-2.0936 0.013-4.2176 0.3242-6.3223 0.9805-17.387 2.7125-23.251 27.612-10.801 39.35 12.65 11.962 35.888 6.4867 40.525-10.738 4.4734-14.962-8.7471-29.667-23.402-29.592zm2319.1 0.014c-2.23-0.039-4.4765 0.2676-6.6602 0.9687-16.988 2.2-25.125 26.648-11.975 38.086 12.5 16.075 43.913 5.2633 40.963-15.949 1.2868-12.614-10.286-22.896-22.328-23.106zm-1849.2 17.8c-1.6956 0-3.3891 0.2363-4.9922 0.7051-13.275 1.675-15.301 23.363-3.1387 28.4 10.588 6.8875 27.126-3.9628 23.176-16.65-0.30475-8.1657-7.6973-12.469-15.045-12.455zm1378.8 0c-1.6925 0-3.3821 0.2363-4.9805 0.7051-13.538 1.7-15.387 24.25-2.5117 28.75 10.775 6.225 26.323-4.5625 22.523-17-0.3047-8.1554-7.6968-12.467-15.031-12.455zm-690.52 31.867c-0.7729 0.016-1.5531 0.07-2.3399 0.1621-30.175 8.525-55.338 29.188-80.65 46.875-50.225 39.962-103.36 80.763-133.74 138.78-16.875 34.225-30.564 72.825-22.701 111.4 8.6375 47.175 58.35 83.437 106.09 73.662 44.062-9.0625 85-44.537 91.463-90.35 5.6-59.85-31.601-114.72-24.826-174.66 3.4125-43.362 30.775-82.713 67.438-105.03 45.25 26.812 74.539 80.55 67.352 133.46-3.5 54.612-37.05 107.3-20.963 162.57 16.45 46.588 66.912 80.262 116.44 74.637 47.775-7.075 84.599-54.662 79.486-102.79-5.35-62.575-40.124-120.13-86.924-160.84-38.362-35.512-78.589-69.874-124.2-95.799-10.254-4.4883-20.33-12.34-31.922-12.088zm-634.99 8.3691c-2.556 0.059-5.2822 0.5853-8.1484 1.668-29.462 7.3375-15.048 55.788 14.102 45.25 26.93-6.2678 18.463-46.238-4.8691-46.914-0.35817-0.01-0.71883-0.012-1.084 0zm1272.1 0.502c-2.1252 0.062-4.2801 0.4406-6.416 1.1796-16.35 2.725-22.562 24.625-12.562 36.85 10.562 15.262 38.575 10.812 42.25-8.0625 5.0093-15.345-8.395-30.403-23.272-29.967zm-1741.3 1.291c-2.1221 0.026-4.2754 0.3699-6.4082 1.0761-17.412 3.0125-23.086 27.249-10.424 38.736 11.6 12.238 34.811 6.95 39.398-9.5625 5.6328-15.083-7.7115-30.433-22.566-30.25zm2209.8 0.014c-2.0932 0.032-4.2187 0.3735-6.3281 1.0625-17.438 2.8875-23.125 27.424-10.312 38.736 11.762 12.5 35.638 6.7004 39.525-10.412 4.8562-14.842-8.232-29.618-22.885-29.387zm-1454 26.871c-1.2662 0.019-2.6118 0.1915-4.0352 0.5391-17.825 2.0625-16.149 31.311 2.1133 31.174 22.043 2.414 20.915-31.987 1.9219-31.713zm700.12 0.041c-1.2449 0.021-2.5688 0.1968-3.9688 0.5468-17.75 2.175-16.325 31.139 1.9121 31.139 21.785 2.25 20.731-32.009 2.0567-31.686zm-1101.9 14.3c-45.712 0.2875-89.101 26.573-114.45 63.961-37.06 54-33.69 126.2-76.67 177.1-35.05 45.138-96.163 63.85-147.99 69.35 112.6 18.862 229.91 3.4246 336.12-37.463 42.975-18.175 85.925-43.212 111.35-83.662 23.738-37.25 28.6-88.288 5.9004-127.12-23.062-39.312-69.149-62.762-114.26-62.137zm1500 0c-45.138 0.3375-91.062 23.724-113.41 63.736-18.938 32.812-16.926 74.412-2.3633 108.47 17.175 39.037 52.262 66.412 89.037 85.938 61.612 32.037 130.51 47 198.88 56.125 55.712 8.6377 114.89 4.4004 168.51-4.9746-53.888-3.8-114.48-24.475-149.39-70.412-33.938-41.225-37.975-96.5-58.338-144.15-21.1-53.4-74.424-95.336-132.92-94.736zm-175.68 8.0781c-0.3918-0.01-0.7853-0.01-1.1777 0-1.299 0.039-2.5993 0.2-3.8848 0.4941-19.8 2.025-27.099 30.937-10.512 41.787 13.988 12.388 39.925 0.3504 38.213-18.537 1.1853-12.664-10.491-23.43-22.639-23.746zm-1146.2 0.07c-1.2878 0.037-2.5714 0.1964-3.8359 0.4883-18.462 1.5125-26.888 28.162-12.551 39.938 13.3 14.962 42.089 3.3008 40.264-16.762 1.3594-13.005-11.429-24.028-23.877-23.664zm1627.4 6.6875c-0.6244 0.012-1.2598 0.064-1.9043 0.1641-9.6625 0.225-18.099 10.5-13.949 20.037 3.575 14.3 28.424 13.662 29.824-1.5 2.2618-9.0469-4.6062-18.841-13.971-18.701zm-2105.9 0.02c-1.0855-0.06-2.2343-0.0001-3.4453 0.1933-21.325-0.2875-16.214 35.713 4.0234 29.863 17.695-1.418 15.704-29.159-0.57813-30.057zm1463.9 9.0273c-2.1744-0.012-4.3969 0.2949-6.6172 0.9668-17.462 3.15-23.561 28.625-10.111 39.838 11.425 12.438 34.7 6.8625 39.25-9.5 5.6329-15.509-7.3005-31.22-22.522-31.305zm-825.04 0.1c-1.829 0.045-3.6664 0.3168-5.4727 0.8418-20.738 2.425-24.875 33.801-7.0254 43.301 14.475 9.475 37.2-2.1891 36.062-20.039 1.6298-13.562-10.761-24.416-23.564-24.104zm908.98 6.0059c-2.2147-0.04-4.4851 0.2835-6.7617 1.0351-13.612 2.7-22.625 19.314-16.15 31.889 5.825 19.338 37.9 19.224 44 0.1367 7.175-14.634-5.5849-32.78-21.088-33.06zm-991.48 0.086c-2.2145-0.039-4.4797 0.2832-6.7422 1.0254-14.062 2.1875-22.363 20.375-15.676 32.775 6.55 18.512 38.113 17.887 43.588-1.0254 7.3719-14.612-5.6688-32.508-21.17-32.775zm1244.7 13.752c27.745 0.1685 55.926 11.639 70.607 36.256 28.975 49.588 21.138 113.28 55.963 160.29 20.9 29.988 56.787 46.599 92.412 50.449-53.062 8.0125-106.49-8.9996-157.07-24.537-57.012-21.025-121.26-49.126-146.24-108.76-21.538-49.275 16.013-109.12 69.051-112.64 5.0195-0.7324 10.141-1.0879 15.279-1.0566zm-1496.5 0.014c32.534 0.012 65.609 17.585 79.16 47.871 14.362 30.462 7.1258 68.151-13.824 93.801-32.025 40.812-81.087 62.75-128.7 80.062-50.988 16.638-104.48 31.512-158.59 26.225 34.75-5.725 74.699-22.362 94.762-55.062 30.412-45.188 25.914-103.34 50.076-151.14 12.362-23.325 36.712-39.488 63.262-40.676 4.5671-0.7297 9.2038-1.0855 13.852-1.084zm-408.44 34.211c-2.0386-0.017-4.1168 0.086-6.2363 0.3203-30.812 5.05-56.964 37.561-42.977 68.799 18.638 41.387 71.6 45.676 110.84 41.201 31.05-4.6875 66.662-7.8387 92.037-26.639-32.112 11.7-68.775-3.5496-87.412-31.162-14.144-24.586-35.671-52.248-66.25-52.52zm2309 0c-2.251 0.023-4.5085 0.2102-6.7578 0.5742-24.012 4.95-42.763 24.124-53.738 45.324-18.1 31.1-57.086 50.8-92.299 37.75 27.775 19.35 63.799 22.95 96.674 27.412 37.762 2.35 88.138-1.1754 106.05-41.15 16.207-33.539-16.167-70.252-49.93-69.91zm-1894.7 0.5605c-3.1684 0.029-6.3809 0.3989-9.6035 1.1465-24.562 2.65-39.063 25.85-49.613 45.838-11.325 24.225-23.462 52.199-14.324 78.949 9.9375 14.012 29.762 7.6496 43.562 3.9746 32.388-12.738 66.675-33.224 78.5-67.861 8.5981-30.71-17.894-62.325-48.521-62.047zm1483.2 0.166c-3.4043-0.013-6.8536 0.3496-10.311 1.1172-29.925 3.3875-49.825 38.913-37.875 66.488 14.362 31.812 46.825 50.962 78.375 62.75 13.988 4.6625 38.812 8.8758 43.787-9.8867 4.35-33.588-10.587-66.513-28.662-93.963-9.8614-15.63-26.931-26.456-45.314-26.506zm417.44 24.529c20.417-0.1543 34.318 27.085 21.18 43.227-15.175 14.488-37.45 19.412-57.875 18.75-7.9-0.012-17.663-6.6129-13.988-15.463 7.0625-21.875 25.35-42.275 48.688-46.412 0.6715-0.064 1.3374-0.097 1.9961-0.1016zm-2320.4 0.1133c25.463 3.225 52.788 28.589 50.875 55.389-18.7 14.5-46.875 3.6-65.213-7-21.512-12.375-9.3871-48.376 14.338-48.389zm1467.8 5.0254c5.2 29.738 22.451 55.225 38.176 80.338 29.088 41.625 63.35 83.137 110.85 104.1 28.562 13.462 65.55 11.238 89.9-9.8496 41.038-35.262 19.987-116.45-34.963-123.72-26.65-8.85-54.313-0.1766-80.525 5.7109-47.638 11.262-103.85-10.849-123.44-56.574zm-615.45 0.2246c-12.912 29.625-40.638 50.838-72.4 56.312-44.05 12.762-86.863-20.324-130.78-5.6738-58.038 7.4875-77.487 97.224-28.6 128.61 31.7 22.188 74.45 14.15 104.88-6.1621 50.375-33.138 86.788-83.774 115.05-136.2 4.7875-10.75 12.487-27.226 11.85-36.889zm178.4 10.678c13.622 0.1673 21.082 16.718 25.545 27.898 9.15 27.888 14.151 58.774 7.3633 87.762-6.2375 26.538-36.913 44.037-63.088 36.762-32.388-8.3375-44.8-46.648-33.4-75.773 11.012-30.038 27.925-63.688 59.15-76.15 1.5445-0.3574 3.0206-0.5154 4.4297-0.4981zm259.88 0.1192c13.203 0.1901 23.976 11.947 32.449 20.953 19.262 24.275 35.551 53.901 34.451 85.826-1.1 29.762-32.313 53-61.15 46.1-17.212-5.025-33.925-17.376-38.588-35.389-7.475-31.25-2.9617-64.549 8.6758-94.174 4.3875-8.9125 9.4738-20.226 19.986-22.988 1.4179-0.2437 2.8099-0.3479 4.1758-0.3281zm351.71 73.268c19.868 0.1657 40.865 5.6367 50.953 23.674 12.675 24.162-7.6363 59.262-36.049 55.074-29.825-6.225-62.452-22.438-75.227-51.562 0.6375-20.6 28.414-23.749 44.164-26.236 5.1215-0.6261 10.595-0.9956 16.158-0.9492zm-957.63 0.1054c17.452 0.2058 35.064 3.8559 49.211 14.318 9.8875 7.1875 3.1629 21.262-3.7871 28.074-18.962 20.088-45.324 34.751-73.199 36.488-25-1.7-39.85-31.65-30.088-53.588 6.7-15.825 24.6-22.887 40.6-24.475 5.6469-0.5719 11.447-0.8869 17.264-0.8184z" transform="matrix(0.8 0 0 0.8 0 -.000097656)" fill="#faf"/>
</g>
</pattern>
</defs>
<rect id="rect5232" height="960" width="1280" y="0" x="0" fill="url(#pattern5234-318-596-132-157-307)"/>
</svg>
