<?xml version="1.0" encoding="UTF-8" standalone="no"?>
<!DOCTYPE svg PUBLIC "-//W3C//DTD SVG 1.1//EN"
"http://www.w3.org/Graphics/SVG/1.1/DTD/svg11.dtd">
<svg viewBox="0 0 909 1286" version="1.1" xmlns="http://www.w3.org/2000/svg" xmlns:xlink="http://www.w3.org/1999/xlink">
<defs>
<style type="text/css"><![CDATA[
.g0{
fill: none;
stroke: #000000;
stroke-width: 0.693;
stroke-linecap: round;
stroke-linejoin: round;
}
.g1{
fill: none;
stroke: #000000;
stroke-width: 1.472;
stroke-linecap: round;
stroke-linejoin: round;
}
.g2{
fill: #FFFFFF;
}
.g3{
fill: none;
stroke: #000000;
stroke-width: 0.346;
stroke-linecap: round;
stroke-linejoin: round;
}
.g4{
fill: none;
stroke: #000000;
stroke-width: 2.164;
stroke-linecap: round;
stroke-linejoin: round;
}
.g5{
stroke: #000000;
stroke-width: 0.693;
stroke-linecap: round;
stroke-linejoin: round;
}
.g6{
fill: #231F20;
}
]]></style>
</defs>
<path d="M539.5,885.2v200.9M567.4,885.2v200.9M595.3,885.2v200.9M623.1,885.2v200.9M650.9,885.2v200.9M678.8,885.2v200.9M706.6,885.2v200.9M734.5,885.2v200.9M762.3,885.2v200.9M511.7,1066H790.2M511.7,1046H790.2M511.7,1025.9H790.2M511.7,1005.8H790.2M511.7,985.7H790.2M511.7,965.6H790.2M511.7,945.5H790.2M511.7,925.4H790.2M511.7,905.3H790.2M511.7,739H791.2M511.7,713.8H791.2M511.7,688.6H791.2M511.7,663.4H791.2M511.7,587.7H791.2M581.6,764.3V562.4m35,201.9V562.4m34.9,201.9V562.4m34.9,201.9V562.4m35,201.9V562.4m69.8,201.9V562.4H511.7" class="g0"/>
<path d="M511.7,562.4V748.8" class="g1"/>
<path fill-rule="evenodd" d="M690.1,708.7H753v52.9H690.1V708.7Z" class="g2"/>
<path fill-rule="evenodd" d="M548.3,599.9h28v11.7h-28V599.9Z" class="g2"/>
<path fill-rule="evenodd" d="M568.1,626.4h35v11.7h-35V626.4Z" class="g2"/>
<path d="M160.8,1086.1H438.9" class="g1"/>
<path d="M438.9,1086.1V885.2H160.8" class="g3"/>
<path d="M160.8,885.2v200.9" class="g1"/>
<path d="M181.2,885.2v200.9" class="g0"/>
<path d="M247.7,984.5L200.8,989M399.5,969.3L247.7,984.5" class="g4"/>
<path d="M160.8,909.8h278m-278,24.9h278m-278,25.7h278m-278,24.5h278m-278,24.6h278m-278,26.1h278m-278,25.7h278M201.2,885.2v200.9M220.9,885.2v200.9M241.5,885.2v200.9M260.9,885.2v200.9M281,885.2v200.9M300.7,885.2v200.9M321.3,885.2v200.9M340.8,885.2v200.9M360.4,885.2v200.9M380.8,885.2v200.9M400.2,885.2v200.9m20,-200.9v200.9" class="g0"/>
<path d="M536.2,943.7L570.8,941l26.5,-1.9l19.6,-1.4l13.8,-.8l20.8,-.6l4.8,.3l5.2,.5l16.9,4.5l4.5,1.5l4.7,1.8l5.3,3.4l4.5,2.7l4.6,3l4.6,3.3l4.6,3.3l4.5,3.7l4.4,3.6l4.2,3.7" class="g4"/>
<path d="M511.7,1086.1H790.2" class="g1"/>
<path d="M790.2,1086.1V885.2H511.7" class="g0"/>
<path d="M511.7,885.2v200.9" class="g1"/>
<path d="M513.3,638.1h35v51.3H720.5V638.1h69.9m-242,-1.2l16.9,86.5m0,-1.3c.3,2.3,1.8,4,3.6,4c.9,0,1.8,-.5,2.5,-1.5m0,.1l2.4,-3.2l15.5,-46.3l8.3,19.9c.2,.5,.6,.9,1,.9m0,0h4.1c.4,0,.7,-.3,1,-.7m0,0l6.5,-11.5h2.5m.8,.5l3.3,4.2m103.7,.9l17.8,-61.8h3.8m1.7,.6L754,642.3c.1,.3,.4,.6,.7,.6c.2,0,.5,-.2,.6,-.4m0,0l3,-5.5h3.2" class="g4"/>
<path d="M516.9,749.9c-.6,-1.3,-1.7,-2.1,-2.9,-2.1c-.8,0,-1.6,.4,-2.3,1.1v-.1c-.6,.7,-1.4,1.1,-2.3,1.1c-1.1,0,-2.2,-.8,-2.9,-2m10.4,6.3c-.6,-1.3,-1.7,-2,-2.9,-2c-.8,0,-1.6,.3,-2.3,1c-.6,.6,-1.4,1,-2.3,1c-1.2,0,-2.3,-.8,-2.9,-2.1" class="g0"/>
<path d="M511.2,753.2v11.1" class="g1"/>
<path d="M532.1,634.1l15.8,-17.5" class="g0"/>
<path fill-rule="evenodd" d="M532.1,634.1l5.7,-3l-3,-3.4l-2.7,6.4Z" class="g5"/>
<path d="M555,655.7l15.8,-17.6" class="g0"/>
<path fill-rule="evenodd" d="M555,655.7l5.7,-3l-3,-3.4l-2.7,6.4Z" class="g5"/>
<path d="M511.7,612.9H791.2M546.7,764.3V562.4m-35,75.7H791.2M159,279.4H437.1M159,300.6H437.1M159,320.1H437.1M159,342.1H437.1M159,363.2H437.1M159,423.7H437.1M159,443.2H437.1M187.5,259.8V461.4M214.6,259.8V461.4M243.2,259.8V461.4M270.9,259.8V461.4M298,259.8V461.4M327.3,259.8V461.4M354.4,259.8V461.4M382.1,259.8V461.4M410,259.8V461.4" class="g0"/>
<path fill-rule="evenodd" d="M283.4,388.9h40.5v11.7H283.4V388.9Z" class="g2"/>
<path d="M159,461.4H437.3" class="g1"/>
<path d="M437.3,461.4V259.6H159" class="g0"/>
<path d="M159,259.6V461.4" class="g1"/>
<path d="M203.7,443.5l164.7,-122" class="g4"/>
<path fill-rule="evenodd" d="M227.5,367.6h43.4v11.8H227.5V367.6Z" class="g2"/>
<path d="M159,383.9H437.1" class="g0"/>
<path d="M363,309.5L159,462.1" class="g4"/>
<path d="M159,403.2H437.1" class="g0"/>
<path d="M511.7,764.3H791.2" class="g1"/>
<path d="M756.3,764.3V562.4" class="g0"/>
<path fill-rule="evenodd" d="M351.7,897.5h51.5v32.3H351.7V897.5Z" class="g2"/>
<path fill-rule="evenodd" d="M353.2,901.6h50V928h-50V901.6Z" class="g2"/>
<path d="M160.1,763.3H438.8" class="g1"/>
<path d="M438.8,763.3V563H160.1" class="g0"/>
<path d="M160.1,563V763.3" class="g1"/>
<path d="M160.1,591.6H438.8M160.1,620.2H438.8M160.1,648.9H438.8M160.1,677.5H438.8M160.1,706H438.8M160.1,734.7H438.8M190.3,763.3V563m15.1,200.3V563M217,763.3V563m8.5,200.3V563m7.4,200.3V563m6.8,200.3V563m5,200.3V563m5,200.3V563m3.4,200.3V563M346,763.3V563m-3.4,200.3V563m-5,200.3V563m-5,200.3V563m-6.7,200.3V563m-7.6,200.3V563M310,763.3V563M298.3,763.3V563M283.1,763.3V563m93,200.3V563m15,200.3V563m11.8,200.3V563m8.3,200.3V563m7.6,200.3V563m6.6,200.3V563m5.1,200.3V563m5,200.3V563" class="g0"/>
<path fill-rule="evenodd" d="M339.9,576.6h64.9v84.5H339.9V576.6Z" class="g2"/>
<path fill-rule="evenodd" d="M339.7,578.9h62.5v79.2H339.7V578.9Z" class="g2"/>
<path d="M161.5,569.2h62.1l.1,-.1h.9l.1,.1h.3l.1,.1h.1l.1,.1h.1l.1,.1h.2l.2,.1l.2,.1l.1,.1l.1,.1l.2,.1l.1,.1h.1l.2,.2v.3l.2,.2l.2,.2v.4h.1v.2l.3,.7l.2,.3l.1,.2l.3,.7l.3,.9l.4,1l.3,.6l.2,.7l.3,.7l.3,.7l.6,1.6l.3,.7l.3,.7l.3,.7l.3,.7l.4,1.2l.3,.7l.3,.6l.2,.5l.9,2.4l.4,.6l.2,.7l.3,.7l.3,.8l.3,.7l1,2.3l.9,2.1l.2,.7l.3,.6l.3,.7l.3,.5l.7,1.8l.3,.6l.2,.7l.3,.6l.7,1.4l.6,1.6l.4,.7l.6,1.5l.3,.7l.3,.8l.3,.7l.3,.6l.4,.7l.2,.6l.3,.6l.2,.6l.7,1.2l.2,.7l.3,.6l.3,.7l.4,.7l.3,.8l.4,.8l.3,.7l1.2,2.4l.3,.8l.4,.7l.3,.7l.4,.7l.3,.6l.3,.7l.3,.6l.3,.6l1.2,2.5l.4,.7l.3,.6l.8,1.4l.4,.8l.4,.7l.8,1.6l.3,.7l.7,1.3l.7,1.3l.4,.6l.6,1.2l.3,.5l.3,.6l.3,.5l.3,.6l.4,.6l.4,.7l.4,.6l1.2,2.1l.4,.7l.8,1.4l.8,1.2l.3,.6l.4,.6l.3,.6l.9,1.6l.4,.6l.6,1l.4,.6l.3,.6l.4,.6l.4,.7l.3,.6l.8,1.4l.3,.6l.4,.7l.3,.6l.4,.6l.3,.6l.4,.6l.3,.6l.7,1l.4,.6l.3,.5l.4,.6l.4,.6l.3,.7l.4,.6l1,1.3l.4,.7l.9,1.4l.5,.8l.4,.7l.5,.7l.5,.6l1.5,2.4l.4,.5l1.6,2.5l.4,.7l.4,.7l.5,.6l.5,.7l1,1.6l.5,.8l.5,.8l.5,.7l.5,.6l.4,.7l.5,.7l.4,.6l.8,1.2l.4,.6l.5,.5l.4,.6l.4,.5l.4,.6l.5,.6l.5,.6l.5,.7l.5,.6l1.1,1.4l.5,.7l.5,.6l.6,.7l.5,.6l1.4,1.8l.5,.6l.4,.5l.5,.5l.4,.5l1.4,1.6l.4,.6l2.1,2.3l.6,.7l5.4,6.1l.5,.4l.5,.5l.4,.5l1,1.1l1.1,1l.6,.6l.6,.6l.6,.6l.6,.6l1.6,1.5l.9,1.1l1,.8l.5,.5l1.4,1.3l.9,1.1l1.6,1.5l.7,.7l.5,.5l.5,.6l.7,.6l1.6,1.5l.5,.5l.4,.5l1.4,1.3l.5,.3l.4,.5l.9,.8l.6,.5l.5,.5l.5,.4l.5,.5l.6,.5l.6,.5l1.1,1l.5,.5l.6,.5l.5,.3l1,.9l1.1,1l.4,.3l.4,.3l.4,.3l.4,.4l.4,.2l.5,.4l.3,.2l.8,.7l.5,.3l.4,.3l.5,.4l.3,.2l.4,.4l2,1.3l.3,.1l.8,.6l.4,.1l.4,.3l.4,.3l1.4,.7l.6,.3l.4,.3l.6,.2l.5,.3l.5,.2l.5,.3l.4,.2l.4,.2l.5,.2l.4,.3l1.5,.7l.5,.1l.8,.4l.5,.2l1.4,.6l.5,.2l.5,.2l.4,.2l.5,.2l.6,.2l.3,.2l1,.3l.4,.2l.4,.1l.4,.1l.5,.1l.4,.2l.4,.1l.6,.2l.5,.1l.5,.1l.6,.1l1.8,.5l.6,.1l.7,.2l.5,.1l.6,.2h.6l.5,.2l.5,.1l.5,.1l.4,.1l.9,.1l.4,.1l.9,.2l.4,.1l.6,.1h.3l.6,.1l.5,.1h.5l.5,.1l.5,.1l.5,.1l.5,.1h.4l1,.2h.8l.4,.1l.5,.1h.4l.4,.1h.4l.5,.1l.5,.1h.5l.5,.1l1.1,.1h.4l1.7,.3h.4l.6,.1h.4l.6,.1h1.1l.5,.1h11.8l.8,-.1h5.9l.9,.1l.8,-.1H422l.9,.1l.9,-.1h6.4l.7,.1l.5,-.1h3.9l.6,.1l.5,-.1h1.8" class="g4"/>
<path d="M522.7,261.1V463M537,261.1V463m7.8,-201.9V463m5.6,-201.9V463m4.3,-201.9V463M569.8,261.1V463M583.3,261.1V463m7.8,-201.9V463m5.7,-201.9V463m3.6,-201.9V463m15,-201.9V463M629.7,261.1V463m7.8,-201.9V463m5.7,-201.9V463m5,-201.9V463M661.1,261.1V463M674.6,261.1V463m7.9,-201.9V463m6.4,-201.9V463m5.7,-201.9V463M708.1,261.1V463M721.7,261.1V463m8.6,-201.9V463M736,261.1V463m4.3,-201.9V463M753.8,261.1V463M767.4,261.1V463M776,261.1V463m6.4,-201.9V463M507.6,292.6H785.9M507.6,321.4H785.9M507.6,349.3H785.9M507.6,378H785.9M507.6,406.8H785.9M507.6,434.7H785.9" class="g0"/>
<path d="M570.2,304L785.9,434" class="g4"/>
<path d="M507.5,463H785.9" class="g1"/>
<path d="M785.9,463V261.1H507.5" class="g0"/>
<path d="M507.5,261.1V463" class="g1"/>
<path d="M541.3,294.3H507.6m33.7,0l28.9,9.7" class="g4"/>
<path fill-rule="evenodd" d="M700.8,279H759v47H700.8V279Z" class="g2"/>
<path fill-rule="evenodd" d="M701.7,283.5h55.9v39.7H701.7V283.5Z" class="g2"/>
<path d="M94.6,222.7h10.9V211.9H94.6v10.8Z" class="g6"/>
</svg>