<?xml version="1.0" encoding="UTF-8" standalone="no"?>
<svg
   xmlns:dc="http://purl.org/dc/elements/1.1/"
   xmlns:cc="http://creativecommons.org/ns#"
   xmlns:rdf="http://www.w3.org/1999/02/22-rdf-syntax-ns#"
   xmlns:svg="http://www.w3.org/2000/svg"
   xmlns="http://www.w3.org/2000/svg"
   xmlns:xlink="http://www.w3.org/1999/xlink"
   xmlns:sodipodi="http://sodipodi.sourceforge.net/DTD/sodipodi-0.dtd"
   xmlns:inkscape="http://www.inkscape.org/namespaces/inkscape"
   width="210mm"
   height="297mm"
   viewBox="0 0 210 297"
   version="1.1"
   id="svg8"
   inkscape:version="1.0.1 (3bc2e813f5, 2020-09-07)"
   sodipodi:docname="logo-14.svg">
  <defs
     id="defs2">
    <linearGradient
       inkscape:collect="always"
       id="linearGradient929">
      <stop
         style="stop-color:#ffffff;stop-opacity:1"
         offset="0"
         id="stop925" />
      <stop
         style="stop-color:#4d4d4d;stop-opacity:1"
         offset="1"
         id="stop927" />
    </linearGradient>
    <linearGradient
       inkscape:collect="always"
       id="linearGradient914">
      <stop
         style="stop-color:#4d4d4d;stop-opacity:1"
         offset="0"
         id="stop910" />
      <stop
         style="stop-color:#b2b2b2;stop-opacity:1"
         offset="1"
         id="stop912" />
    </linearGradient>
    <linearGradient
       inkscape:collect="always"
       xlink:href="#linearGradient914"
       id="linearGradient916"
       x1="228.02251"
       y1="153.99193"
       x2="279.93396"
       y2="225.37123"
       gradientUnits="userSpaceOnUse" />
    <radialGradient
       inkscape:collect="always"
       xlink:href="#linearGradient929"
       id="radialGradient931"
       cx="65.278717"
       cy="46.767319"
       fx="65.278717"
       fy="46.767319"
       r="6.302731"
       gradientTransform="matrix(-0.00143282,1.2352964,-1.0847508,-0.0012582,116.10314,-33.885351)"
       gradientUnits="userSpaceOnUse" />
  </defs>
  <sodipodi:namedview
     id="base"
     pagecolor="#ffffff"
     bordercolor="#666666"
     borderopacity="1.0"
     inkscape:pageopacity="0.0"
     inkscape:pageshadow="2"
     inkscape:zoom="2.1397666"
     inkscape:cx="262.61275"
     inkscape:cy="230.7619"
     inkscape:document-units="mm"
     inkscape:current-layer="layer1"
     inkscape:document-rotation="0"
     showgrid="false"
     inkscape:snap-object-midpoints="true"
     inkscape:snap-midpoints="true"
     inkscape:snap-others="true"
     inkscape:snap-nodes="true"
     inkscape:snap-center="true"
     inkscape:window-width="1793"
     inkscape:window-height="1040"
     inkscape:window-x="197"
     inkscape:window-y="34"
     inkscape:window-maximized="0" />
  <metadata
     id="metadata5">
    <rdf:RDF>
      <cc:Work
         rdf:about="">
        <dc:format>image/svg+xml</dc:format>
        <dc:type
           rdf:resource="http://purl.org/dc/dcmitype/StillImage" />
        <dc:title></dc:title>
      </cc:Work>
    </rdf:RDF>
  </metadata>
  <g
     inkscape:label="Capa 1"
     inkscape:groupmode="layer"
     id="layer1">
    <path
       id="path835"
       style="fill:#4d4d4d;fill-opacity:1;stroke-width:0.755906;stroke-linecap:round;stroke-linejoin:round;stop-color:#000000"
       inkscape:transform-center-y="-7.341996"
       d="m 302.30273,237.19531 -3.25195,6.00391 h 52.19141 l -10.39063,-6.00391 c -12.84941,1e-5 -25.69941,0 -38.54883,0 z"
       transform="scale(0.26458333)" />
    <path
       id="path907"
       style="fill:#7f7f7f;fill-opacity:1;stroke-width:0.755906;stroke-linecap:round;stroke-linejoin:round;stop-color:#000000"
       inkscape:transform-center-y="-7.341996"
       d="m 288.43945,215.89062 -7.59375,-0.67382 18.20508,27.98242 3.25195,-6.00391 c -4.62106,-7.10137 -9.24221,-14.20331 -13.86328,-21.30469 z"
       transform="scale(0.26458333)" />
    <path
       id="path905"
       style="fill:url(#linearGradient916);fill-opacity:1;stroke-width:0.755906;stroke-linecap:round;stroke-linejoin:round;stop-color:#000000"
       inkscape:transform-center-y="-7.341996"
       d="m 266.50195,229.87891 2.63282,-7.21289 a 37.672415,37.672415 0 0 1 -14.01954,2.70703 37.672415,37.672415 0 0 1 -37.67187,-37.67188 37.672415,37.672415 0 0 1 37.33398,-37.67187 37.672415,37.672415 0 0 1 0.33789,0 37.672415,37.672415 0 0 1 37.67188,37.67187 37.672415,37.672415 0 0 1 -11.94141,27.51563 l 7.59375,0.67382 c 6.73489,-7.85231 10.42522,-18.21753 10.32813,-28.54882 0.21712,-18.66958 -13.19669,-36.29244 -31.05078,-41.48242 -16.60539,-5.22865 -35.87848,0.87138 -46.66992,14.4707 -11.61326,14.07136 -12.73525,35.54775 -2.79883,50.81445 9.75705,15.85707 30.36527,23.79989 48.2539,18.73438 z"
       transform="scale(0.26458333)" />
    <path
       id="path903"
       style="fill:#4d4d4d;fill-opacity:1;stroke-width:0.755906;stroke-linecap:round;stroke-linejoin:round;stop-color:#000000"
       inkscape:transform-center-y="-7.341996"
       d="m 282.49414,243.19922 -11.0625,-6.00391 c -34.01821,1e-5 -68.03648,0 -102.05469,0 l -10.38867,6.00391 z"
       transform="scale(0.26458333)" />
    <path
       id="path920"
       style="fill:#7f7f7f;fill-opacity:1;stroke-width:0.755906;stroke-linecap:round;stroke-linejoin:round;stop-color:#000000"
       inkscape:transform-center-y="-7.341996"
       d="m 269.13477,222.66602 -2.63282,7.21289 c 1.77526,2.07958 3.26156,4.9445 4.92969,7.3164 l 11.0625,6.00391 z"
       transform="scale(0.26458333)" />
    <path
       id="path901"
       style="fill:#bfbfbf;fill-opacity:1;stroke-width:0.755906;stroke-linecap:round;stroke-linejoin:round;stop-color:#000000"
       inkscape:transform-center-y="-7.341996"
       d="M 255.11523,76.703125 158.98828,243.19922 169.37695,237.19531 255.11719,88.708984 Z"
       transform="scale(0.26458333)" />
    <path
       id="path899"
       style="fill:#4d4d4d;fill-opacity:1;stroke-width:0.755906;stroke-linecap:round;stroke-linejoin:round;stop-color:#000000"
       inkscape:transform-center-y="-7.341996"
       d="m 255.11523,76.703125 0.002,12.005859 85.73437,148.486326 10.39063,6.00391 z"
       transform="scale(0.26458333)" />
    <path
       id="path891"
       style="fill:#7f7f7f;fill-opacity:1;stroke-width:0.2;stroke-linecap:round;stroke-linejoin:round;stop-color:#000000"
       inkscape:transform-center-y="-7.341996"
       d="m 44.814453,62.757812 c 9.000651,0 18.001302,10e-7 27.001953,0 C 71.375047,62.130246 70.981422,61.37249 70.511719,60.822266 65.778686,62.162517 60.326551,60.06098 57.744998,55.865465 55.115989,51.826151 55.412526,46.1437 58.485199,42.420651 c 2.85524,-3.598152 7.954671,-5.211881 12.34818,-3.828469 4.723895,1.373186 8.272871,6.03573 8.215425,10.97539 0.02569,2.733487 -0.950458,5.475928 -2.732398,7.553522 1.222657,1.878906 2.445313,3.757812 3.667969,5.636718 3.39974,0 6.799479,10e-7 10.199219,0 C 82.622396,49.662109 75.061198,36.566406 67.5,23.470703 59.938151,36.566406 52.376302,49.662109 44.814453,62.757812 Z" />
    <circle
       style="display:none;fill:#00ff00;fill-opacity:0.502451;stroke-width:0.2;stroke-linecap:round;stroke-linejoin:round;stop-color:#000000"
       id="circle839"
       cx="67.499161"
       cy="49.662594"
       r="9.9674931" />
    <ellipse
       style="fill:url(#radialGradient931);fill-opacity:1;stroke-width:0.2;stroke-linecap:round;stroke-linejoin:round;stop-color:#000000"
       id="path923"
       cx="67.504425"
       cy="49.66198"
       rx="6.302731"
       ry="6.4615898" />
  </g>
</svg>
