<?xml version="1.0" encoding="UTF-8" standalone="no"?>
<svg
   xmlns:dc="http://purl.org/dc/elements/1.1/"
   xmlns:cc="http://creativecommons.org/ns#"
   xmlns:rdf="http://www.w3.org/1999/02/22-rdf-syntax-ns#"
   xmlns:svg="http://www.w3.org/2000/svg"
   xmlns="http://www.w3.org/2000/svg"
   xmlns:xlink="http://www.w3.org/1999/xlink"
   xmlns:sodipodi="http://sodipodi.sourceforge.net/DTD/sodipodi-0.dtd"
   xmlns:inkscape="http://www.inkscape.org/namespaces/inkscape"
   width="210mm"
   height="297mm"
   viewBox="0 0 210 297"
   version="1.1"
   id="svg8"
   inkscape:version="1.0.1 (3bc2e813f5, 2020-09-07)"
   sodipodi:docname="logo-15.svg">
  <defs
     id="defs2">
    <pattern
       id="EMFhbasepattern"
       patternUnits="userSpaceOnUse"
       width="6"
       height="6"
       x="0"
       y="0" />
  </defs>
  <sodipodi:namedview
     id="base"
     pagecolor="#ffffff"
     bordercolor="#666666"
     borderopacity="1.0"
     inkscape:pageopacity="0.0"
     inkscape:pageshadow="2"
     inkscape:zoom="2"
     inkscape:cx="392.9985"
     inkscape:cy="503.50651"
     inkscape:document-units="mm"
     inkscape:current-layer="layer1"
     inkscape:document-rotation="0"
     showgrid="false"
     inkscape:snap-object-midpoints="true"
     inkscape:snap-midpoints="true"
     inkscape:snap-others="true"
     inkscape:snap-nodes="true"
     inkscape:snap-center="true"
     inkscape:window-width="1793"
     inkscape:window-height="970"
     inkscape:window-x="75"
     inkscape:window-y="3"
     inkscape:window-maximized="0" />
  <metadata
     id="metadata5">
    <rdf:RDF>
      <cc:Work
         rdf:about="">
        <dc:format>image/svg+xml</dc:format>
        <dc:type
           rdf:resource="http://purl.org/dc/dcmitype/StillImage" />
        <dc:title />
      </cc:Work>
    </rdf:RDF>
  </metadata>
  <g
     inkscape:label="Capa 1"
     inkscape:groupmode="layer"
     id="layer1">
    <circle
       style="display:none;fill:#00ff00;fill-opacity:0.502451;stroke-width:0.2;stroke-linecap:round;stroke-linejoin:round;stop-color:#000000"
       id="circle839"
       cx="67.499161"
       cy="49.662594"
       r="9.9674931" />
    <circle
       style="fill:#000000;fill-opacity:1;stroke-width:0.2;stroke-linecap:round;stroke-linejoin:round;stop-color:#000000"
       id="path2178"
       cx="84.446869"
       cy="109.3177"
       r="1.5"
       inkscape:tile-cx="84.446867"
       inkscape:tile-cy="109.3177"
       inkscape:tile-w="2.9999999"
       inkscape:tile-h="2.9999999"
       inkscape:tile-x0="82.946867"
       inkscape:tile-y0="107.8177" />
    <use
       x="0"
       y="0"
       inkscape:tiled-clone-of="#path2178"
       xlink:href="#path2178"
       transform="translate(0,7.7399997)"
       id="use3260"
       width="100%"
       height="100%" />
    <use
       x="0"
       y="0"
       inkscape:tiled-clone-of="#path2178"
       xlink:href="#path2178"
       transform="translate(0,15.479999)"
       id="use3262"
       width="100%"
       height="100%" />
    <use
       x="0"
       y="0"
       inkscape:tiled-clone-of="#path2178"
       xlink:href="#path2178"
       transform="translate(0,23.219999)"
       id="use3264"
       width="100%"
       height="100%" />
    <use
       x="0"
       y="0"
       inkscape:tiled-clone-of="#path2178"
       xlink:href="#path2178"
       transform="translate(0,30.959999)"
       id="use3266"
       width="100%"
       height="100%" />
    <use
       x="0"
       y="0"
       inkscape:tiled-clone-of="#path2178"
       xlink:href="#path2178"
       transform="translate(0,38.699999)"
       id="use3268"
       width="100%"
       height="100%" />
    <use
       x="0"
       y="0"
       inkscape:tiled-clone-of="#path2178"
       xlink:href="#path2178"
       transform="translate(0,46.439998)"
       id="use3270"
       width="100%"
       height="100%" />
    <use
       x="0"
       y="0"
       inkscape:tiled-clone-of="#path2178"
       xlink:href="#path2178"
       transform="matrix(1.22,0,0,1.22,-10.988311,-24.049894)"
       id="use3272"
       width="100%"
       height="100%" />
    <use
       x="0"
       y="0"
       inkscape:tiled-clone-of="#path2178"
       xlink:href="#path2178"
       transform="matrix(1.22,0,0,1.22,-10.988311,-16.309894)"
       id="use3274"
       width="100%"
       height="100%" />
    <use
       x="0"
       y="0"
       inkscape:tiled-clone-of="#path2178"
       xlink:href="#path2178"
       transform="matrix(1.22,0,0,1.22,-10.988311,-8.5698945)"
       id="use3276"
       width="100%"
       height="100%" />
    <use
       x="0"
       y="0"
       inkscape:tiled-clone-of="#path2178"
       xlink:href="#path2178"
       transform="matrix(1.22,0,0,1.22,-10.988311,-0.82989477)"
       id="use3278"
       width="100%"
       height="100%" />
    <use
       x="0"
       y="0"
       inkscape:tiled-clone-of="#path2178"
       xlink:href="#path2178"
       transform="matrix(1.22,0,0,1.22,-10.988311,6.910105)"
       id="use3280"
       width="100%"
       height="100%" />
    <use
       x="0"
       y="0"
       inkscape:tiled-clone-of="#path2178"
       xlink:href="#path2178"
       transform="matrix(1.22,0,0,1.22,-10.988311,14.650105)"
       id="use3282"
       width="100%"
       height="100%" />
    <use
       x="0"
       y="0"
       inkscape:tiled-clone-of="#path2178"
       xlink:href="#path2178"
       transform="matrix(1.22,0,0,1.22,-10.988311,22.390104)"
       id="use3284"
       width="100%"
       height="100%" />
    <use
       x="0"
       y="0"
       inkscape:tiled-clone-of="#path2178"
       xlink:href="#path2178"
       transform="matrix(1.44,0,0,1.44,-21.976622,-48.099788)"
       id="use3286"
       width="100%"
       height="100%" />
    <use
       x="0"
       y="0"
       inkscape:tiled-clone-of="#path2178"
       xlink:href="#path2178"
       transform="matrix(1.44,0,0,1.44,-21.976622,-40.359788)"
       id="use3288"
       width="100%"
       height="100%" />
    <use
       x="0"
       y="0"
       inkscape:tiled-clone-of="#path2178"
       xlink:href="#path2178"
       transform="matrix(1.44,0,0,1.44,-21.976622,-32.619789)"
       id="use3290"
       width="100%"
       height="100%" />
    <use
       x="0"
       y="0"
       inkscape:tiled-clone-of="#path2178"
       xlink:href="#path2178"
       transform="matrix(1.44,0,0,1.44,-21.976622,-24.879789)"
       id="use3292"
       width="100%"
       height="100%" />
    <use
       x="0"
       y="0"
       inkscape:tiled-clone-of="#path2178"
       xlink:href="#path2178"
       transform="matrix(1.44,0,0,1.44,-21.976622,-17.139789)"
       id="use3294"
       width="100%"
       height="100%" />
    <use
       x="0"
       y="0"
       inkscape:tiled-clone-of="#path2178"
       xlink:href="#path2178"
       transform="matrix(1.44,0,0,1.44,-21.976622,-9.3997893)"
       id="use3296"
       width="100%"
       height="100%" />
    <use
       x="0"
       y="0"
       inkscape:tiled-clone-of="#path2178"
       xlink:href="#path2178"
       transform="matrix(1.44,0,0,1.44,-21.976622,-1.6597895)"
       id="use3298"
       width="100%"
       height="100%" />
    <use
       x="0"
       y="0"
       inkscape:tiled-clone-of="#path2178"
       xlink:href="#path2178"
       transform="matrix(1.66,0,0,1.66,-32.964933,-72.149682)"
       id="use3300"
       width="100%"
       height="100%" />
    <use
       x="0"
       y="0"
       inkscape:tiled-clone-of="#path2178"
       xlink:href="#path2178"
       transform="matrix(1.66,0,0,1.66,-32.964933,-64.409682)"
       id="use3302"
       width="100%"
       height="100%" />
    <use
       x="0"
       y="0"
       inkscape:tiled-clone-of="#path2178"
       xlink:href="#path2178"
       transform="matrix(1.66,0,0,1.66,-32.964933,-56.669683)"
       id="use3304"
       width="100%"
       height="100%" />
    <use
       x="0"
       y="0"
       inkscape:tiled-clone-of="#path2178"
       xlink:href="#path2178"
       transform="matrix(1.66,0,0,1.66,-32.964933,-48.929683)"
       id="use3306"
       width="100%"
       height="100%" />
    <use
       x="0"
       y="0"
       inkscape:tiled-clone-of="#path2178"
       xlink:href="#path2178"
       transform="matrix(1.66,0,0,1.66,-32.964933,-41.189683)"
       id="use3308"
       width="100%"
       height="100%" />
    <use
       x="0"
       y="0"
       inkscape:tiled-clone-of="#path2178"
       xlink:href="#path2178"
       transform="matrix(1.66,0,0,1.66,-32.964933,-33.449683)"
       id="use3310"
       width="100%"
       height="100%" />
    <use
       x="0"
       y="0"
       inkscape:tiled-clone-of="#path2178"
       xlink:href="#path2178"
       transform="matrix(1.66,0,0,1.66,-32.964933,-25.709684)"
       id="use3312"
       width="100%"
       height="100%" />
    <use
       x="0"
       y="0"
       inkscape:tiled-clone-of="#path2178"
       xlink:href="#path2178"
       transform="matrix(1.88,0,0,1.88,-43.953244,-96.199576)"
       id="use3314"
       width="100%"
       height="100%" />
    <use
       x="0"
       y="0"
       inkscape:tiled-clone-of="#path2178"
       xlink:href="#path2178"
       transform="matrix(1.88,0,0,1.88,-43.953244,-88.459576)"
       id="use3316"
       width="100%"
       height="100%" />
    <use
       x="0"
       y="0"
       inkscape:tiled-clone-of="#path2178"
       xlink:href="#path2178"
       transform="matrix(1.88,0,0,1.88,-43.953244,-80.719577)"
       id="use3318"
       width="100%"
       height="100%" />
    <use
       x="0"
       y="0"
       inkscape:tiled-clone-of="#path2178"
       xlink:href="#path2178"
       transform="matrix(1.88,0,0,1.88,-43.953244,-72.979577)"
       id="use3320"
       width="100%"
       height="100%" />
    <use
       x="0"
       y="0"
       inkscape:tiled-clone-of="#path2178"
       xlink:href="#path2178"
       transform="matrix(1.88,0,0,1.88,-43.953244,-65.239577)"
       id="use3322"
       width="100%"
       height="100%" />
    <use
       x="0"
       y="0"
       inkscape:tiled-clone-of="#path2178"
       xlink:href="#path2178"
       transform="matrix(1.88,0,0,1.88,-43.953244,-57.499577)"
       id="use3324"
       width="100%"
       height="100%" />
    <use
       x="0"
       y="0"
       inkscape:tiled-clone-of="#path2178"
       xlink:href="#path2178"
       transform="matrix(1.88,0,0,1.88,-43.953244,-49.759578)"
       id="use3326"
       width="100%"
       height="100%" />
    <use
       x="0"
       y="0"
       inkscape:tiled-clone-of="#path2178"
       xlink:href="#path2178"
       transform="matrix(2.1,0,0,2.1,-54.941555,-120.24947)"
       id="use3328"
       width="100%"
       height="100%" />
    <use
       x="0"
       y="0"
       inkscape:tiled-clone-of="#path2178"
       xlink:href="#path2178"
       transform="matrix(2.1,0,0,2.1,-54.941555,-97.029471)"
       id="use3334"
       width="100%"
       height="100%" />
    <use
       x="0"
       y="0"
       inkscape:tiled-clone-of="#path2178"
       xlink:href="#path2178"
       transform="matrix(2.1,0,0,2.1,-54.941555,-89.289471)"
       id="use3336"
       width="100%"
       height="100%" />
    <use
       x="0"
       y="0"
       inkscape:tiled-clone-of="#path2178"
       xlink:href="#path2178"
       transform="matrix(2.1,0,0,2.1,-54.941555,-81.549471)"
       id="use3338"
       width="100%"
       height="100%" />
    <use
       x="0"
       y="0"
       inkscape:tiled-clone-of="#path2178"
       xlink:href="#path2178"
       transform="matrix(2.1,0,0,2.1,-54.941555,-73.809472)"
       id="use3340"
       width="100%"
       height="100%" />
    <use
       x="0"
       y="0"
       inkscape:tiled-clone-of="#path2178"
       xlink:href="#path2178"
       transform="matrix(2.32,0,0,2.32,-65.929866,-113.33937)"
       id="use3350"
       width="100%"
       height="100%" />
    <use
       x="0"
       y="0"
       inkscape:tiled-clone-of="#path2178"
       xlink:href="#path2178"
       transform="matrix(2.32,0,0,2.32,-65.929866,-105.59937)"
       id="use3352"
       width="100%"
       height="100%" />
  </g>
</svg>
