<?xml version="1.0" encoding="UTF-8" standalone="no"?>
<svg
   xmlns:dc="http://purl.org/dc/elements/1.1/"
   xmlns:cc="http://creativecommons.org/ns#"
   xmlns:rdf="http://www.w3.org/1999/02/22-rdf-syntax-ns#"
   xmlns:svg="http://www.w3.org/2000/svg"
   xmlns="http://www.w3.org/2000/svg"
   xmlns:sodipodi="http://sodipodi.sourceforge.net/DTD/sodipodi-0.dtd"
   xmlns:inkscape="http://www.inkscape.org/namespaces/inkscape"
   width="210mm"
   height="297mm"
   viewBox="0 0 210 297"
   version="1.1"
   id="svg8"
   sodipodi:docname="logo-19.svg"
   inkscape:version="1.0.1 (3bc2e813f5, 2020-09-07)">
  <defs
     id="defs2" />
  <sodipodi:namedview
     id="base"
     pagecolor="#ffffff"
     bordercolor="#666666"
     borderopacity="1.0"
     inkscape:pageopacity="0.0"
     inkscape:pageshadow="2"
     inkscape:zoom="1"
     inkscape:cx="298.03798"
     inkscape:cy="445.1782"
     inkscape:document-units="mm"
     inkscape:current-layer="layer1"
     inkscape:document-rotation="0"
     showgrid="true"
     inkscape:window-width="1370"
     inkscape:window-height="967"
     inkscape:window-x="447"
     inkscape:window-y="0"
     inkscape:window-maximized="0">
    <inkscape:grid
       type="xygrid"
       id="grid869"
       units="mm"
       spacingx="1"
       spacingy="1"
       empspacing="4"
       visible="false" />
  </sodipodi:namedview>
  <metadata
     id="metadata5">
    <rdf:RDF>
      <cc:Work
         rdf:about="">
        <dc:format>image/svg+xml</dc:format>
        <dc:type
           rdf:resource="http://purl.org/dc/dcmitype/StillImage" />
        <dc:title></dc:title>
      </cc:Work>
    </rdf:RDF>
  </metadata>
  <g
     inkscape:label="Capa 1"
     inkscape:groupmode="layer"
     id="layer1">
    <path
       style="color:#000000;font-style:normal;font-variant:normal;font-weight:normal;font-stretch:normal;font-size:medium;line-height:normal;font-family:sans-serif;font-variant-ligatures:normal;font-variant-position:normal;font-variant-caps:normal;font-variant-numeric:normal;font-variant-alternates:normal;font-variant-east-asian:normal;font-feature-settings:normal;font-variation-settings:normal;text-indent:0;text-align:start;text-decoration:none;text-decoration-line:none;text-decoration-style:solid;text-decoration-color:#000000;letter-spacing:normal;word-spacing:normal;text-transform:none;writing-mode:lr-tb;direction:ltr;text-orientation:mixed;dominant-baseline:auto;baseline-shift:baseline;text-anchor:start;white-space:normal;shape-padding:0;shape-margin:0;inline-size:0;clip-rule:nonzero;display:inline;overflow:visible;visibility:visible;opacity:1;isolation:auto;mix-blend-mode:normal;color-interpolation:sRGB;color-interpolation-filters:linearRGB;solid-color:#000000;solid-opacity:1;vector-effect:none;fill:#000000;fill-opacity:1;fill-rule:nonzero;stroke:none;stroke-width:5;stroke-linecap:round;stroke-linejoin:round;stroke-miterlimit:4;stroke-dasharray:none;stroke-dashoffset:0;stroke-opacity:1;color-rendering:auto;image-rendering:auto;shape-rendering:auto;text-rendering:auto;enable-background:accumulate;stop-color:#000000;stop-opacity:1"
       d="m 56.2977,56.4181 c -2.2061,-0.3962 -4.1998,0.0994 -4.768,1.2273 L 32.2111,95.9391 c -0.4562,0.9052 -0.1675,1.7426 0.7939,2.3165 0.9475,0.5656 2.4542,0.8186 4.1631,0.7119 1.664,-0.1037 3.378,-0.54 4.7736,-1.203 1.3643,-0.6483 2.3286,-1.468 2.7023,-2.286 l 11.6721,-25.5017 9.5926,22.0314 c 0.4339,0.9977 1.9636,1.4694 3.6607,1.1608 1.6382,-0.2978 3.0205,-1.251 3.3973,-2.3127 l 7.8481,-22.0815 12.4413,19.1261 c 0.3436,0.5283 1.0358,0.7727 1.7776,0.6378 0.7261,-0.132 1.3767,-0.6057 1.6904,-1.2212 l 8.8189,-17.2982 6.774,14.675 c 0.184,0.3979 0.555,0.6012 0.956,0.5284 0.394,-0.0716 0.748,-0.3989 0.92,-0.8439 l 5.724,-14.8267 c 0.194,-0.5043 0.036,-1.1792 -0.358,-1.5169 -0.401,-0.3437 -0.898,-0.2126 -1.106,0.3028 l -5.18,12.8519 -6.511,-14.8188 c -0.227,-0.5165 -0.697,-0.9041 -1.219,-0.9991 -0.532,-0.0968 -1.027,0.1261 -1.272,0.5801 L 95.0337,83.0559 82.4171,62.2758 c -0.5104,-0.8411 -1.6247,-1.485 -2.8147,-1.6078 -1.2246,-0.1264 -2.2631,0.3247 -2.5746,1.1385 L 69.5694,81.282 60.7118,59.1438 c -0.487,-1.2186 -2.2817,-2.3426 -4.4141,-2.7257 z"
       id="path907" />
    <text
       xml:space="preserve"
       style="font-style:normal;font-variant:normal;font-weight:normal;font-stretch:normal;font-size:19.7556px;line-height:1.25;font-family:Arial;-inkscape-font-specification:Arial;letter-spacing:0px;word-spacing:5.29167px;fill:#000000;fill-opacity:1;stroke:none;stroke-width:0.264583px;stroke-linecap:butt;stroke-linejoin:miter;stroke-opacity:1"
       x="29.385416"
       y="115.96875"
       id="text923"><tspan
         sodipodi:role="line"
         id="tspan921"
         x="29.385416"
         y="115.96875"
         style="font-style:normal;font-variant:normal;font-weight:normal;font-stretch:normal;font-size:19.7556px;font-family:Arial;-inkscape-font-specification:Arial;fill:#000000;fill-opacity:1;stroke:none;stroke-width:0.264583px">mutewatch</tspan></text>
  </g>
</svg>
