<?xml version="1.0" encoding="UTF-8" standalone="no"?>
<!DOCTYPE svg PUBLIC "-//W3C//DTD SVG 1.1//EN"
"http://www.w3.org/Graphics/SVG/1.1/DTD/svg11.dtd">
<svg viewBox="0 0 909 1286" version="1.1" xmlns="http://www.w3.org/2000/svg" xmlns:xlink="http://www.w3.org/1999/xlink">
<defs>
<style type="text/css"><![CDATA[
.g0_2{
fill: none;
stroke: #231F20;
stroke-width: 0.33;
stroke-linecap: butt;
stroke-linejoin: miter;
stroke-miterlimit: 22;
}
.g1_2{
fill: #231F20;
}
.g2_2{
fill: none;
stroke: #231F20;
stroke-width: 0.733;
stroke-linecap: round;
stroke-linejoin: round;
}
.g3_2{
fill: #FFFFFF;
}
.g4_2{
fill: #231F20;
stroke: #231F20;
stroke-width: 1.466;
stroke-linecap: round;
stroke-linejoin: round;
}
.g5_2{
fill: none;
stroke: #231F20;
stroke-width: 2.2;
stroke-linecap: round;
stroke-linejoin: round;
}
]]></style>
</defs>
<path d="M96,240.7V461" class="g0_2"/>
<path fill-rule="evenodd" d="M96,240.7h1.4V461H96V240.7Z" class="g1_2"/>
<path d="M429.3,242.2V461" class="g0_2"/>
<path fill-rule="evenodd" d="M429.3,242.2h1.5V461h-1.5V242.2Z" class="g1_2"/>
<path d="M526.7,242.2V461" class="g0_2"/>
<path fill-rule="evenodd" d="M526.7,242.2h1.4V461h-1.4V242.2Z" class="g1_2"/>
<path d="M616.1,242.2V461" class="g0_2"/>
<path fill-rule="evenodd" d="M616.1,242.2h1.5V461h-1.5V242.2Z" class="g1_2"/>
<path d="M97.4,240.7H617.6" class="g0_2"/>
<path fill-rule="evenodd" d="M97.4,240.7H617.6v1.5H97.4v-1.5Z" class="g1_2"/>
<path d="M97.4,263.1H617.6" class="g0_2"/>
<path fill-rule="evenodd" d="M97.4,263.1H617.6v1.5H97.4v-1.5Z" class="g1_2"/>
<path d="M97.4,285.5H617.6" class="g0_2"/>
<path fill-rule="evenodd" d="M97.4,285.5H617.6v1.4H97.4v-1.4Z" class="g1_2"/>
<path d="M97.4,307.8H617.6" class="g0_2"/>
<path fill-rule="evenodd" d="M97.4,307.8H617.6v1.5H97.4v-1.5Z" class="g1_2"/>
<path d="M97.4,330.2H617.6" class="g0_2"/>
<path fill-rule="evenodd" d="M97.4,330.2H617.6v1.4H97.4v-1.4Z" class="g1_2"/>
<path d="M97.4,370.1H617.6" class="g0_2"/>
<path fill-rule="evenodd" d="M97.4,370.1H617.6v1.5H97.4v-1.5Z" class="g1_2"/>
<path d="M97.4,392.5H617.6" class="g0_2"/>
<path fill-rule="evenodd" d="M97.4,392.5H617.6v1.4H97.4v-1.4Z" class="g1_2"/>
<path d="M97.4,414.8H617.6" class="g0_2"/>
<path fill-rule="evenodd" d="M97.4,414.8H617.6v1.5H97.4v-1.5Z" class="g1_2"/>
<path d="M97.4,437.2H617.6" class="g0_2"/>
<path fill-rule="evenodd" d="M97.4,437.2H617.6v1.5H97.4v-1.5Z" class="g1_2"/>
<path d="M97.4,459.5H617.6" class="g0_2"/>
<path fill-rule="evenodd" d="M97.4,459.5H617.6V461H97.4v-1.5Z" class="g1_2"/>
<path d="M93.1,716.7v90.8" class="g0_2"/>
<path fill-rule="evenodd" d="M93.1,716.7h1.5v90.8H93.1V716.7Z" class="g1_2"/>
<path d="M286.7,718.1v89.4" class="g0_2"/>
<path fill-rule="evenodd" d="M286.7,718.1h1.4v89.4h-1.4V718.1Z" class="g1_2"/>
<path d="M360,718.1v89.4" class="g0_2"/>
<path fill-rule="evenodd" d="M360,718.1h1.4v89.4H360V718.1Z" class="g1_2"/>
<path d="M649.8,718.1v89.4" class="g0_2"/>
<path fill-rule="evenodd" d="M649.8,718.1h1.4v89.4h-1.4V718.1Z" class="g1_2"/>
<path d="M734.6,718.1v89.4" class="g0_2"/>
<path fill-rule="evenodd" d="M734.6,718.1h1.5v89.4h-1.5V718.1Z" class="g1_2"/>
<path d="M795.3,718.1v89.4" class="g0_2"/>
<path fill-rule="evenodd" d="M795.3,718.1h1.4v89.4h-1.4V718.1Z" class="g1_2"/>
<path d="M94.6,716.7H796.7" class="g0_2"/>
<path fill-rule="evenodd" d="M94.6,716.7H796.7v1.4H94.6v-1.4Z" class="g1_2"/>
<path d="M94.6,739H796.7" class="g0_2"/>
<path fill-rule="evenodd" d="M94.6,739H796.7v1.5H94.6V739Z" class="g1_2"/>
<path d="M94.6,761.3H796.7" class="g0_2"/>
<path fill-rule="evenodd" d="M94.6,761.3H796.7v1.5H94.6v-1.5Z" class="g1_2"/>
<path d="M94.6,783.7H796.7" class="g0_2"/>
<path fill-rule="evenodd" d="M94.6,783.7H796.7v1.4H94.6v-1.4Z" class="g1_2"/>
<path d="M94.6,806H796.7" class="g0_2"/>
<path fill-rule="evenodd" d="M94.6,806H796.7v1.5H94.6V806Z" class="g1_2"/>
<image preserveAspectRatio="none" x="748" y="786" width="35" height="17" xlink:href="img/1.jpg"/>
<path d="M335.6,1029.8V960.5m-71.8,-66H125.2" class="g2_2"/>
<path fill-rule="evenodd" d="M388.8,956.1h39.4v12.1H388.8V956.1Z" class="g3_2"/>
<path fill-rule="evenodd" d="M331.7,982.2h8v25.3h-8V982.2Z" class="g3_2"/>
<path d="M335.6,973.7v8.5l3.8,2.2l-8,4l8,4.4l-8,4l8,4.4l-8,4.1l4.2,2.2v8.4M125.2,949.5v-55m48.7,55H125.2m260.2,11H225.5" class="g2_2"/>
<path fill-rule="evenodd" d="M263.6,957.3c0,-.1,.1,-.1,.1,-.1c1.5,0,2.8,1.5,2.8,3.3c0,1.9,-1.3,3.3,-2.8,3.3c-1.5,0,-2.8,-1.4,-2.8,-3.3c0,-1.7,1.2,-3.2,2.7,-3.2" class="g4_2"/>
<path d="M263.8,960.5v-66" class="g2_2"/>
<path fill-rule="evenodd" d="M300.1,957.3c1.5,0,2.6,1.5,2.6,3.2c0,1.9,-1.2,3.3,-2.8,3.3c-1.5,0,-2.8,-1.4,-2.8,-3.3c0,-1.8,1.3,-3.3,2.8,-3.3q.1,0,.2,.1" class="g4_2"/>
<path fill-rule="evenodd" d="M335.5,957.2c1.7,0,3.1,1.5,3.1,3.3c0,1.9,-1.4,3.3,-3.1,3.3c-1.8,0,-3.2,-1.4,-3.2,-3.3c0,-1.8,1.4,-3.3,3.2,-3.3" class="g4_2"/>
<path d="M300.4,1029.8V960.5m16.7,107.1h3.5m2.4,-4.4h-8.3m-2.5,-4h13.3m10.1,-29.4H300.4" class="g2_2"/>
<path fill-rule="evenodd" d="M343.6,992.4h34.8v12.5H343.6V992.4Z" class="g3_2"/>
<path fill-rule="evenodd" d="M256.1,988.8h34.5v12.4H256.1V988.8Z" class="g3_2"/>
<path d="M318.8,1059.2v-29.4" class="g2_2"/>
<path fill-rule="evenodd" d="M318.6,1026.6c0,-.1,.1,-.1,.1,-.1c1.6,0,2.8,1.4,2.8,3c0,1.6,-1.2,2.9,-2.8,2.9c-1.5,0,-2.7,-1.3,-2.7,-2.9c0,-1.6,1.1,-2.9,2.6,-2.9" class="g4_2"/>
<path d="M173.2,974.1h-48" class="g2_2"/>
<path fill-rule="evenodd" d="M90.3,969.3h34.9v12.1H90.3V969.3Z" class="g3_2"/>
<path d="M199,986.2V975.6M199,944V931.2" class="g2_2"/>
<path fill-rule="evenodd" d="M172.9,912.9h51.9V925H172.9V912.9Z" class="g3_2"/>
<path fill-rule="evenodd" d="M172.9,992.4h51.9v12.5H172.9V992.4Z" class="g3_2"/>
<path fill-rule="evenodd" d="M290.6,1004.5h19.2V982.9H290.6v21.6Z" class="g3_2"/>
<path d="M300.4,997.2v10.3m9.4,-14H290.6m9.8,0V982.2m-9.8,18.3c1.2,-1,2.6,-1.8,4.1,-2.4c5.1,-2.1,10.9,-1.2,15.1,2.4" class="g2_2"/>
<path d="M173.9,988.4V933.8m50.2,25.6L173.9,933.8m50.5,27.5l-50.5,27.1" class="g5_2"/>
<path d="M748,904.8H605.2" class="g2_2"/>
<path fill-rule="evenodd" d="M659.2,900.8h24v8.4h-24v-8.4Z" class="g3_2"/>
<path d="M691.2,904.8h-8l-2.1,4.1l-3.8,-8.5l-4.2,8.5l-3.8,-8.5l-4.2,8.5l-3.8,-8.5l-2.1,4.4h-8" class="g2_2"/>
<path fill-rule="evenodd" d="M776.2,963.1H810v18H776.2v-18Z" class="g3_2"/>
<path d="M605.2,959.5V904.8m53.6,54.7H513.2m262,11H709.3" class="g2_2"/>
<path fill-rule="evenodd" d="M747.7,967.5c1.5,.1,2.7,1.4,2.7,3c0,1.6,-1.3,2.9,-2.8,2.9c-1.6,0,-2.8,-1.3,-2.8,-2.9c0,-1.6,1.2,-3,2.8,-3c0,0,.1,0,.1,0" class="g4_2"/>
<path d="M748,970.5V904.8M633.8,1023.3h3.8m2.1,-4.1h-8.4m-2.1,-4h12.9m-6.3,0V984m21.6,0H635.8" class="g2_2"/>
<path fill-rule="evenodd" d="M538.7,936.7h47v18h-47v-18Z" class="g3_2"/>
<path fill-rule="evenodd" d="M655.4,920.6h57.4v18H655.4v-18Z" class="g3_2"/>
<path fill-rule="evenodd" d="M655.4,996.9h57.4v17.9H655.4V996.9Z" class="g3_2"/>
<path fill-rule="evenodd" d="M546.7,955.4h24v8.5h-24v-8.5Z" class="g3_2"/>
<path d="M578.7,959.5h-8l-2.1,4l-3.8,-8.1l-4.2,8.1l-3.8,-8.1l-4.2,8.1l-3.8,-8.1l-2.1,4.1h-8" class="g2_2"/>
<path fill-rule="evenodd" d="M545.6,967.5h31v18h-31v-18Z" class="g3_2"/>
<path fill-rule="evenodd" d="M605,956.2c0,0,.1,0,.1,0c1.5,0,2.8,1.5,2.8,3.3c0,1.8,-1.3,3.3,-2.8,3.3c-1.5,0,-2.8,-1.5,-2.8,-3.3c0,-1.8,1.2,-3.2,2.7,-3.3" class="g4_2"/>
<path fill-rule="evenodd" d="M463.1,951.4h57.1v18H463.1v-18Z" class="g3_2"/>
<path d="M684.3,996.9V986.6m0,-31.5V942.2" class="g2_2"/>
<path d="M658.8,999.1v-55m50.5,25.6L658.8,944.1m50.9,27.5l-50.9,27.5" class="g5_2"/>
</svg>