<?xml version="1.0" encoding="UTF-8" standalone="no"?>
<!-- Created with Inkscape (http://www.inkscape.org/) -->

<svg
   width="210mm"
   height="297mm"
   viewBox="0 0 210 297"
   version="1.1"
   id="svg5"
   inkscape:version="1.1.2 (b8e25be833, 2022-02-05)"
   sodipodi:docname="informatica-ondas-wifi.svg"
   inkscape:export-filename="D:\Picuino\Tecno-recursos\es\informatica\_images\informatica-workstation2.png"
   inkscape:export-xdpi="300"
   inkscape:export-ydpi="300"
   xmlns:inkscape="http://www.inkscape.org/namespaces/inkscape"
   xmlns:sodipodi="http://sodipodi.sourceforge.net/DTD/sodipodi-0.dtd"
   xmlns="http://www.w3.org/2000/svg"
   xmlns:svg="http://www.w3.org/2000/svg">
  <sodipodi:namedview
     id="namedview7"
     pagecolor="#ffffff"
     bordercolor="#666666"
     borderopacity="1.0"
     inkscape:pageshadow="2"
     inkscape:pageopacity="0.0"
     inkscape:pagecheckerboard="0"
     inkscape:document-units="mm"
     showgrid="true"
     inkscape:zoom="1.0973349"
     inkscape:cx="492.55701"
     inkscape:cy="459.2946"
     inkscape:window-width="1592"
     inkscape:window-height="1041"
     inkscape:window-x="278"
     inkscape:window-y="0"
     inkscape:window-maximized="0"
     inkscape:current-layer="g11564-1-2-1"
     inkscape:snap-smooth-nodes="true"
     inkscape:snap-midpoints="true"
     inkscape:object-paths="true"
     inkscape:snap-intersection-paths="true"
     inkscape:object-nodes="true"
     inkscape:snap-object-midpoints="true"
     inkscape:snap-center="true">
    <inkscape:grid
       type="axonomgrid"
       id="grid824"
       empspacing="5"
       color="#00ffff"
       opacity="0.1254902"
       empcolor="#00ffff"
       empopacity="0.25098039"
       visible="false" />
    <inkscape:grid
       type="xygrid"
       id="grid826"
       empspacing="5"
       color="#ff00ff"
       opacity="0.1254902"
       empcolor="#ff00ff"
       empopacity="0.25098039"
       units="mm"
       spacingx="1"
       spacingy="1"
       visible="true" />
  </sodipodi:namedview>
  <defs
     id="defs2" />
  <g
     inkscape:label="Capa 1"
     inkscape:groupmode="layer"
     id="layer1">
    <g
       id="g11564-1-2-1"
       inkscape:label="g11564"
       transform="translate(-10.392298,6.000001)">
      <path
         style="fill:none;stroke:#000000;stroke-width:0.8;stroke-linecap:round;stroke-linejoin:round;stroke-opacity:1;stroke-miterlimit:4;stroke-dasharray:none"
         d="m 90.392296,114 c 0,0 2.642977,-5 5,-5 2.357024,0 4.000002,3 5.000004,5 1.03822,2.07644 2.67847,4.84827 5,4.84827 2.32153,0 3.71785,-2.91291 5,-4.84827 1.32497,-2 2.64298,-5 5,-5 2.35702,0 4,3.06882 5,5 1.08383,2.09306 2.64298,5 5,5 2.35702,0 3.75542,-2.99835 5,-5 1.24355,-2 2.64301,-5.01145 5,-5 2.33443,0.0113 4.03778,3 4.90381,5 0.94564,2.18386 2.71641,5.01134 5.09619,5 2.357,-0.0112 3.81581,-2.96204 5,-5 1.16214,-2 2.64298,-5 5,-5 2.35702,0 3.95637,3 5,5 1.09041,2.08964 2.64298,5 5,5 2.35702,0 5,-5 5,-5 v 0"
         id="path939"
         sodipodi:nodetypes="cssssssssssssssssc" />
      <path
         style="fill:none;stroke:#000000;stroke-width:0.4;stroke-linecap:round;stroke-linejoin:round;stroke-opacity:1;stroke-miterlimit:4;stroke-dasharray:none"
         d="m 90.392298,114 c 0,0 2.642977,5 5,5 2.357024,0 4.000002,-3 5.000002,-5 1.03822,-2.07644 2.67847,-4.84827 5,-4.84827 2.32153,0 3.71785,2.91291 5,4.84827 1.32497,2 2.64298,5 5,5 2.35702,0 4,-3.06882 5,-5 1.08383,-2.09306 2.64298,-5 5,-5 2.35702,0 3.75542,2.99835 5,5 1.24355,2 2.64301,5.01145 5,5 2.33443,-0.0113 4.03778,-3 4.90381,-5 0.94564,-2.18386 2.71641,-5.01134 5.09619,-5 2.357,0.0112 3.81581,2.96204 5,5 1.16214,2 2.64298,5 5,5 2.35702,0 3.95637,-3 5,-5 1.09041,-2.08964 2.64298,-5 5,-5 2.35702,0 5,5 5,5 v 0"
         id="path939-4"
         sodipodi:nodetypes="cssssssssssssssssc" />
    </g>
  </g>
</svg>
