<?xml version="1.0" encoding="UTF-8" standalone="no"?>
<!-- Created with Inkscape (http://www.inkscape.org/) -->

<svg
   width="210mm"
   height="297mm"
   viewBox="0 0 210 297"
   version="1.1"
   id="svg5"
   inkscape:version="1.2.1 (9c6d41e410, 2022-07-14)"
   sodipodi:docname="informatica-rgb-cmyk.svg"
   inkscape:export-filename="informatica-rgb-cmyk.png"
   inkscape:export-xdpi="150.00508"
   inkscape:export-ydpi="150.00508"
   xmlns:inkscape="http://www.inkscape.org/namespaces/inkscape"
   xmlns:sodipodi="http://sodipodi.sourceforge.net/DTD/sodipodi-0.dtd"
   xmlns="http://www.w3.org/2000/svg"
   xmlns:svg="http://www.w3.org/2000/svg">
  <sodipodi:namedview
     id="namedview7"
     pagecolor="#ffffff"
     bordercolor="#666666"
     borderopacity="1.0"
     inkscape:pageshadow="2"
     inkscape:pageopacity="0.0"
     inkscape:pagecheckerboard="0"
     inkscape:document-units="mm"
     showgrid="true"
     inkscape:zoom="1.5370249"
     inkscape:cx="278.46004"
     inkscape:cy="178.91708"
     inkscape:window-width="1920"
     inkscape:window-height="1017"
     inkscape:window-x="-8"
     inkscape:window-y="-8"
     inkscape:window-maximized="1"
     inkscape:current-layer="layer1"
     inkscape:showpageshadow="2"
     inkscape:deskcolor="#d1d1d1">
    <inkscape:grid
       type="xygrid"
       id="grid9"
       units="mm"
       spacingx="1"
       spacingy="1" />
  </sodipodi:namedview>
  <defs
     id="defs2" />
  <g
     inkscape:label="Layer 1"
     inkscape:groupmode="layer"
     id="layer1">
    <rect
       style="fill:#ffffff;fill-opacity:1;stroke:#000000;stroke-width:0.222595;stroke-miterlimit:4;stroke-dasharray:none;stroke-opacity:1"
       id="rect26888"
       width="200"
       height="120"
       x="5"
       y="5"
       inkscape:export-filename="informatica-rgb-cmyk.png"
       inkscape:export-xdpi="150.00508"
       inkscape:export-ydpi="150.00508" />
    <path
       id="rect1735"
       style="fill:#000000;fill-opacity:1;stroke:none;stroke-width:0.600001;stroke-linecap:round;stroke-linejoin:round;stop-color:#000000"
       d="M 100.79485,6.0587051 C 70.396908,6.0639243 39.998091,6.0398177 9.6006994,6.0824096 7.4389251,6.2638709 5.7854124,8.4490625 6.0589013,10.577194 c 0.00517,28.604541 -0.018738,57.210326 0.023609,85.814088 0.1373959,2.191433 2.343147,3.882728 4.4906997,3.608713 30.273232,-0.0052 60.547706,0.01874 90.82016,-0.02363 2.19017,-0.137475 3.88049,-2.344501 3.60663,-4.493295 -0.005,-28.605068 0.0187,-57.211381 -0.0237,-85.8156689 -0.13353,-2.0598088 -2.1302,-3.7645439 -4.18153,-3.6087 z" />
    <circle
       style="fill:#ff0000;fill-rule:evenodd;stroke:none;stroke-width:0.264583"
       id="path33"
       cx="55.000011"
       cy="40"
       r="30.000002" />
    <circle
       style="fill:#0000ff;fill-rule:evenodd;stroke:none;stroke-width:0.264583"
       id="circle1071"
       cx="67.631401"
       cy="37.141014"
       r="30.000002"
       transform="rotate(30)" />
    <circle
       style="fill:#00ff00;fill-rule:evenodd;stroke:none;stroke-width:0.264583"
       id="circle1181"
       cx="27.631399"
       cy="92.141022"
       r="30.000002"
       transform="rotate(-30)" />
    <path
       id="circle98"
       style="fill:#ff00ff;fill-rule:evenodd;stroke:none;stroke-width:0.264583"
       d="M 40.000053,35.980658 A 30,30 0 0 0 24.999935,40.000049 30,30 0 0 0 40.002122,65.925083 30,30 0 0 1 55.000171,40.000049 30,30 0 0 0 40.000053,35.980658 Z" />
    <path
       id="circle133"
       style="fill:#ffff00;fill-rule:evenodd;stroke:none;stroke-width:0.264583"
       d="M 69.999773,35.980658 A 30,30 0 0 0 55.000171,40.000049 30,30 0 0 1 69.997706,65.925083 30,30 0 0 0 84.999891,40.000049 30,30 0 0 0 69.999773,35.980658 Z" />
    <path
       id="circle159"
       style="fill:#00ffff;fill-rule:evenodd;stroke:none;stroke-width:0.264583"
       d="M 69.994605,65.983477 A 30,30 0 0 1 55.000171,69.999769 30,30 0 0 1 40.048111,66.006215 30,30 0 0 0 44.019446,80.98101 30,30 0 0 0 55.000171,91.961736 30,30 0 0 0 65.980897,80.98101 30,30 0 0 0 69.994605,65.983477 Z" />
    <path
       id="circle203"
       style="fill:#ffffff;fill-rule:evenodd;stroke:none;stroke-width:0.264583"
       d="M 55.000171,40.000049 A 30,30 0 0 0 40.000053,65.980894 30,30 0 0 0 55.000171,69.999769 30,30 0 0 0 69.997706,65.981926 30,30 0 0 0 55.000171,40.000049 Z" />
    <circle
       style="fill:#00ffff;fill-rule:evenodd;stroke:none;stroke-width:0.264583"
       id="circle240"
       cx="155.00002"
       cy="40"
       r="30.000002" />
    <circle
       style="fill:#ffff00;fill-rule:evenodd;stroke:none;stroke-width:0.264583"
       id="circle242"
       cx="154.23395"
       cy="-12.858983"
       r="30.000002"
       transform="rotate(30)" />
    <circle
       style="fill:#ff00ff;fill-rule:evenodd;stroke:none;stroke-width:0.264583"
       id="circle244"
       cx="114.23393"
       cy="142.14102"
       r="30.000002"
       transform="rotate(-30)" />
    <path
       id="path246"
       style="fill:#00b000;fill-rule:evenodd;stroke:none;stroke-width:0.264583;fill-opacity:1"
       d="m 140.00005,35.980658 a 30,30 0 0 0 -15.00012,4.019391 30,30 0 0 0 15.00219,25.925034 30,30 0 0 1 14.99805,-25.925034 30,30 0 0 0 -15.00012,-4.019391 z" />
    <path
       id="path248"
       style="fill:#0000ff;fill-rule:evenodd;stroke:none;stroke-width:0.264583"
       d="m 169.99977,35.980658 a 30,30 0 0 0 -14.9996,4.019391 30,30 0 0 1 14.99753,25.925034 30,30 0 0 0 15.00219,-25.925034 30,30 0 0 0 -15.00012,-4.019391 z" />
    <path
       id="path250"
       style="fill:#ff0000;fill-rule:evenodd;stroke:none;stroke-width:0.264583"
       d="m 169.9946,65.983477 a 30,30 0 0 1 -14.99443,4.016292 30,30 0 0 1 -14.95206,-3.993554 30,30 0 0 0 3.97133,14.974795 30,30 0 0 0 10.98073,10.980726 30,30 0 0 0 10.98072,-10.980726 30,30 0 0 0 4.01371,-14.997533 z" />
    <path
       id="path252"
       style="fill:#000000;fill-rule:evenodd;stroke:none;stroke-width:0.264583"
       d="m 155.00017,40.000049 a 30,30 0 0 0 -15.00012,25.980845 30,30 0 0 0 15.00012,4.018875 30,30 0 0 0 14.99753,-4.017843 30,30 0 0 0 -14.99753,-25.981877 z" />
    <text
       xml:space="preserve"
       style="font-style:normal;font-variant:normal;font-weight:bold;font-stretch:normal;font-size:10.5833px;line-height:1.25;font-family:'Liberation Sans';-inkscape-font-specification:'Liberation Sans Bold';text-align:center;text-anchor:middle;stroke-width:0.264583"
       x="54.754539"
       y="28.640593"
       id="text2444"><tspan
         sodipodi:role="line"
         style="font-style:normal;font-variant:normal;font-weight:bold;font-stretch:normal;font-family:'Liberation Sans';-inkscape-font-specification:'Liberation Sans Bold';stroke-width:0.264583"
         id="tspan2446"
         x="54.754539"
         y="28.640593">R</tspan></text>
    <text
       xml:space="preserve"
       style="font-style:normal;font-variant:normal;font-weight:bold;font-stretch:normal;font-size:10.5833px;line-height:1.25;font-family:'Liberation Sans';-inkscape-font-specification:'Liberation Sans Bold';text-align:center;text-anchor:middle;stroke-width:0.264583"
       x="26.895931"
       y="77.121353"
       id="text5629"><tspan
         sodipodi:role="line"
         style="font-style:normal;font-variant:normal;font-weight:bold;font-stretch:normal;font-family:'Liberation Sans';-inkscape-font-specification:'Liberation Sans Bold';stroke-width:0.264583"
         id="tspan5627"
         x="26.895931"
         y="77.121353">B</tspan></text>
    <text
       xml:space="preserve"
       style="font-style:normal;font-variant:normal;font-weight:bold;font-stretch:normal;font-size:10.5833px;line-height:1.25;font-family:'Liberation Sans';-inkscape-font-specification:'Liberation Sans Bold';text-align:center;text-anchor:middle;stroke-width:0.264583"
       x="83.101486"
       y="77.143181"
       id="text8124"><tspan
         sodipodi:role="line"
         style="font-style:normal;font-variant:normal;font-weight:bold;font-stretch:normal;font-family:'Liberation Sans';-inkscape-font-specification:'Liberation Sans Bold';stroke-width:0.264583"
         id="tspan8122"
         x="83.101486"
         y="77.143181">G</tspan></text>
    <text
       xml:space="preserve"
       style="font-style:normal;font-variant:normal;font-weight:bold;font-stretch:normal;font-size:10.5833px;line-height:1.25;font-family:'Liberation Sans';-inkscape-font-specification:'Liberation Sans Bold';text-align:center;text-anchor:middle;stroke-width:0.264583"
       x="154.75455"
       y="28.640593"
       id="text9704"><tspan
         sodipodi:role="line"
         style="font-style:normal;font-variant:normal;font-weight:bold;font-stretch:normal;font-family:'Liberation Sans';-inkscape-font-specification:'Liberation Sans Bold';stroke-width:0.264583"
         id="tspan9702"
         x="154.75455"
         y="28.640593">C</tspan></text>
    <text
       xml:space="preserve"
       style="font-style:normal;font-variant:normal;font-weight:bold;font-stretch:normal;font-size:10.5833px;line-height:1.25;font-family:'Liberation Sans';-inkscape-font-specification:'Liberation Sans Bold';text-align:center;text-anchor:middle;stroke-width:0.264583"
       x="126.89594"
       y="77.121353"
       id="text9708"><tspan
         sodipodi:role="line"
         style="font-style:normal;font-variant:normal;font-weight:bold;font-stretch:normal;font-family:'Liberation Sans';-inkscape-font-specification:'Liberation Sans Bold';stroke-width:0.264583"
         id="tspan9706"
         x="126.89594"
         y="77.121353">Y</tspan></text>
    <text
       xml:space="preserve"
       style="font-style:normal;font-variant:normal;font-weight:bold;font-stretch:normal;font-size:10.5833px;line-height:1.25;font-family:'Liberation Sans';-inkscape-font-specification:'Liberation Sans Bold';text-align:center;text-anchor:middle;stroke-width:0.264583"
       x="183.10149"
       y="77.143181"
       id="text9712"><tspan
         sodipodi:role="line"
         style="font-style:normal;font-variant:normal;font-weight:bold;font-stretch:normal;font-family:'Liberation Sans';-inkscape-font-specification:'Liberation Sans Bold';stroke-width:0.264583"
         id="tspan9710"
         x="183.10149"
         y="77.143181">M</tspan></text>
    <text
       xml:space="preserve"
       style="font-style:normal;font-variant:normal;font-weight:bold;font-stretch:normal;font-size:10.5833px;line-height:1.25;font-family:'Liberation Sans';-inkscape-font-specification:'Liberation Sans Bold';text-align:center;text-anchor:middle;fill:#ffffff;stroke-width:0.264583"
       x="154.69398"
       y="60.040188"
       id="text14267"><tspan
         sodipodi:role="line"
         style="font-style:normal;font-variant:normal;font-weight:bold;font-stretch:normal;font-family:'Liberation Sans';-inkscape-font-specification:'Liberation Sans Bold';fill:#ffffff;stroke-width:0.264583"
         id="tspan14265"
         x="154.69398"
         y="60.040188">K</tspan></text>
    <text
       xml:space="preserve"
       style="font-size:7.76111px;line-height:1.1;font-family:'Liberation Sans';-inkscape-font-specification:'Liberation Sans';text-align:center;text-anchor:middle;stroke-width:0.264583"
       x="54.846436"
       y="109.99999"
       id="text19327"><tspan
         sodipodi:role="line"
         id="tspan19325"
         style="font-style:normal;font-variant:normal;font-weight:bold;font-stretch:normal;font-size:7.76111px;font-family:'Liberation Sans';-inkscape-font-specification:'Liberation Sans Bold';stroke-width:0.264583"
         x="54.846436"
         y="109.99999">Sistema de color</tspan><tspan
         sodipodi:role="line"
         style="font-style:normal;font-variant:normal;font-weight:bold;font-stretch:normal;font-size:7.76111px;font-family:'Liberation Sans';-inkscape-font-specification:'Liberation Sans Bold';stroke-width:0.264583"
         x="54.846436"
         y="118.53722"
         id="tspan19329">aditivo RGB</tspan></text>
    <text
       xml:space="preserve"
       style="font-size:7.76111px;line-height:1.1;font-family:'Liberation Sans';-inkscape-font-specification:'Liberation Sans';text-align:center;text-anchor:middle;stroke-width:0.264583"
       x="154.84644"
       y="109.99999"
       id="text24281"><tspan
         sodipodi:role="line"
         id="tspan24277"
         style="font-style:normal;font-variant:normal;font-weight:bold;font-stretch:normal;font-size:7.76111px;font-family:'Liberation Sans';-inkscape-font-specification:'Liberation Sans Bold';stroke-width:0.264583"
         x="154.84644"
         y="109.99999">Sistema de color</tspan><tspan
         sodipodi:role="line"
         style="font-style:normal;font-variant:normal;font-weight:bold;font-stretch:normal;font-size:7.76111px;font-family:'Liberation Sans';-inkscape-font-specification:'Liberation Sans Bold';stroke-width:0.264583"
         x="154.84644"
         y="118.53722"
         id="tspan24279">sustractivo CMYK</tspan></text>
    <text
       xml:space="preserve"
       style="font-size:2.82222px;line-height:1.25;font-family:'Liberation Sans';-inkscape-font-specification:'Liberation Sans';text-align:center;text-anchor:middle;stroke-width:0.264583"
       x="101.43999"
       y="120.48689"
       id="text29240"><tspan
         sodipodi:role="line"
         id="tspan29238"
         style="font-style:normal;font-variant:normal;font-weight:bold;font-stretch:normal;font-size:2.82222px;font-family:'Liberation Sans';-inkscape-font-specification:'Liberation Sans Bold';stroke-width:0.264583"
         x="101.43999"
         y="120.48689">www.picuino.com</tspan></text>
  </g>
</svg>
