<?xml version="1.0" encoding="UTF-8" standalone="no"?>
<!-- Created with Inkscape (http://www.inkscape.org/) -->

<svg
   width="210mm"
   height="297mm"
   viewBox="0 0 210 297"
   version="1.1"
   id="svg5"
   xml:space="preserve"
   inkscape:version="1.2.2 (732a01da63, 2022-12-09)"
   sodipodi:docname="index-legislacion.svg"
   inkscape:export-filename="index-legislacion.png"
   inkscape:export-xdpi="96"
   inkscape:export-ydpi="96"
   xmlns:inkscape="http://www.inkscape.org/namespaces/inkscape"
   xmlns:sodipodi="http://sodipodi.sourceforge.net/DTD/sodipodi-0.dtd"
   xmlns:xlink="http://www.w3.org/1999/xlink"
   xmlns="http://www.w3.org/2000/svg"
   xmlns:svg="http://www.w3.org/2000/svg"><sodipodi:namedview
     id="namedview7"
     pagecolor="#ffffff"
     bordercolor="#000000"
     borderopacity="0.25"
     inkscape:showpageshadow="2"
     inkscape:pageopacity="0.0"
     inkscape:pagecheckerboard="0"
     inkscape:deskcolor="#d1d1d1"
     inkscape:document-units="mm"
     showgrid="true"
     inkscape:zoom="0.52724988"
     inkscape:cx="183.97349"
     inkscape:cy="495.02145"
     inkscape:window-width="1920"
     inkscape:window-height="1017"
     inkscape:window-x="-8"
     inkscape:window-y="-8"
     inkscape:window-maximized="1"
     inkscape:current-layer="layer1"><inkscape:grid
       type="xygrid"
       id="grid302"
       units="mm"
       spacingx="1"
       spacingy="1" /></sodipodi:namedview><defs
     id="defs2"><linearGradient
       inkscape:collect="always"
       id="linearGradient10584"><stop
         style="stop-color:#ffffff;stop-opacity:1;"
         offset="0.30298012"
         id="stop10580" /><stop
         style="stop-color:#aa6218;stop-opacity:1;"
         offset="1"
         id="stop10582" /></linearGradient><linearGradient
       inkscape:collect="always"
       id="linearGradient5999"><stop
         style="stop-color:#aa6218;stop-opacity:1;"
         offset="0"
         id="stop5995" /><stop
         style="stop-color:#ffffff;stop-opacity:1;"
         offset="1"
         id="stop5997" /></linearGradient><linearGradient
       inkscape:collect="always"
       id="linearGradient5139"><stop
         style="stop-color:#aa6218;stop-opacity:1;"
         offset="0"
         id="stop5135" /><stop
         style="stop-color:#ffffff;stop-opacity:1;"
         offset="1"
         id="stop5137" /></linearGradient><linearGradient
       inkscape:collect="always"
       xlink:href="#linearGradient5139"
       id="linearGradient5141"
       x1="81"
       y1="160"
       x2="79"
       y2="160"
       gradientUnits="userSpaceOnUse"
       gradientTransform="translate(-34,-140.70821)" /><filter
       inkscape:collect="always"
       style="color-interpolation-filters:sRGB"
       id="filter5978"
       x="-0.047333813"
       y="-0.14200144"
       width="1.0946676"
       height="1.2840029"><feGaussianBlur
         inkscape:collect="always"
         stdDeviation="0.11530212"
         id="feGaussianBlur5980" /></filter><linearGradient
       inkscape:collect="always"
       xlink:href="#linearGradient5999"
       id="linearGradient6001"
       x1="85"
       y1="190"
       x2="80"
       y2="190"
       gradientUnits="userSpaceOnUse"
       gradientTransform="translate(-37,-144)" /><filter
       inkscape:collect="always"
       style="color-interpolation-filters:sRGB"
       id="filter6011"
       x="-0.011716741"
       y="-0.076439046"
       width="1.0234335"
       height="1.1528781"><feGaussianBlur
         inkscape:collect="always"
         stdDeviation="0.13181333"
         id="feGaussianBlur6013" /></filter><pattern
       id="EMFhbasepattern"
       patternUnits="userSpaceOnUse"
       width="6"
       height="6"
       x="0"
       y="0" /><radialGradient
       inkscape:collect="always"
       xlink:href="#linearGradient10584"
       id="radialGradient10633"
       cx="49.429646"
       cy="10.915041"
       fx="49.429646"
       fy="10.915041"
       r="3"
       gradientUnits="userSpaceOnUse"
       gradientTransform="matrix(0.38005959,1.1401754,-0.9999998,0.33333368,37.128828,-47.996816)" /></defs><g
     inkscape:label="Capa 1"
     inkscape:groupmode="layer"
     id="layer1"><rect
       style="fill:#ffffff;fill-opacity:0;fill-rule:evenodd;stroke:none;stroke-width:1.4;stroke-linecap:round;stroke-linejoin:round;stroke-dasharray:none;stroke-opacity:1"
       id="rect6117"
       width="80"
       height="71"
       x="8"
       y="8.0000076"
       sodipodi:insensitive="true" /><path
       style="fill:#aa6218;fill-opacity:1;fill-rule:evenodd;stroke:#000000;stroke-width:1;stroke-linecap:round;stroke-linejoin:round;stroke-dasharray:none;stroke-opacity:1"
       d="m 27,21 c 0,1 0,2 0,3 2,0 7,-2 9,-2 2,0 7,2 9,2 0,-1 0,-2 0,-3 -2,0 -7,-3 -9.000001,-3 C 34,18 29,21 27,21 Z"
       id="path421"
       sodipodi:nodetypes="ccccccc" /><path
       style="fill:#aa6218;fill-opacity:1;fill-rule:evenodd;stroke:#000000;stroke-width:1;stroke-linecap:round;stroke-linejoin:round;stroke-dasharray:none;stroke-opacity:1"
       d="m 69,21 c 0,1 0,2 0,3 -2,0 -7.000004,-2 -9.000004,-2 -2,0 -6.999996,2 -8.999996,2 0,-1 0,-2 0,-3 2,0 6.999996,-3 8.999996,-3 2,0 7.000004,3 9.000004,3 z"
       id="path421-1"
       sodipodi:nodetypes="ccccccc" /><rect
       style="fill:url(#linearGradient5141);fill-opacity:1;fill-rule:evenodd;stroke:#000000;stroke-width:1;stroke-linecap:round;stroke-linejoin:round;stroke-dasharray:none;stroke-opacity:1"
       id="rect4861"
       width="6"
       height="9.7082043"
       x="45"
       y="16.291794"
       rx="2"
       ry="2" /><circle
       style="fill:#e8b04d;fill-opacity:1;fill-rule:evenodd;stroke:#000000;stroke-width:0.999997;stroke-linecap:round;stroke-linejoin:round;stroke-dasharray:none;stroke-opacity:1"
       id="path356-2"
       cx="48"
       cy="22.791794"
       r="1.5" /><circle
       style="fill:url(#radialGradient10633);fill-opacity:1;fill-rule:evenodd;stroke:#000000;stroke-width:1;stroke-linecap:round;stroke-linejoin:round;stroke-dasharray:none;stroke-opacity:1"
       id="circle5311"
       cx="48"
       cy="13.5"
       r="2.5" /><path
       style="fill:url(#linearGradient6001);fill-opacity:1;fill-rule:evenodd;stroke:#000000;stroke-width:1;stroke-linecap:round;stroke-linejoin:round;stroke-dasharray:none;stroke-opacity:1"
       d="M 46.999998,26 44,72 h 8 L 48.999999,26 Z"
       id="path5385"
       sodipodi:nodetypes="ccccc" /><path
       id="rect5387"
       style="fill:#aa6218;fill-rule:evenodd;stroke:#000000;stroke-linecap:round;stroke-linejoin:round"
       d="m 33,72 c 7,-3 23,-3 30,0 2,1 2,1 2,4 H 31 c 0,-3 0,-3 2,-4 z"
       sodipodi:nodetypes="ccccc" /><path
       style="fill:#f6ce02;fill-opacity:1;fill-rule:evenodd;stroke:#000000;stroke-width:1;stroke-linecap:round;stroke-linejoin:round;stroke-dasharray:none;stroke-opacity:1"
       d="M 25,24.29179 13,51"
       id="path4786"
       sodipodi:nodetypes="cc" /><path
       style="fill:#f6ce02;fill-opacity:1;fill-rule:evenodd;stroke:#000000;stroke-width:1;stroke-linecap:round;stroke-linejoin:round;stroke-dasharray:none;stroke-opacity:1"
       d="M 25,24.29179 37,51"
       id="path4788"
       sodipodi:nodetypes="cc" /><circle
       style="fill:#e8b04d;fill-opacity:1;fill-rule:evenodd;stroke:#000000;stroke-width:1;stroke-linecap:round;stroke-linejoin:round;stroke-dasharray:none;stroke-opacity:1"
       id="path356"
       cx="25"
       cy="22.999996"
       r="2.7499998" /><path
       style="fill:#e8b04d;fill-opacity:1;fill-rule:evenodd;stroke:#000000;stroke-width:1;stroke-linecap:round;stroke-linejoin:round;stroke-dasharray:none;stroke-opacity:1"
       d="M 11,51 H 39.000001 C 34,62.70821 16,62.70821 11,51 Z"
       id="path4784"
       sodipodi:nodetypes="ccc" /><path
       style="mix-blend-mode:normal;fill:none;fill-opacity:1;fill-rule:evenodd;stroke:#c4933d;stroke-width:1.43457;stroke-linecap:round;stroke-linejoin:round;stroke-dasharray:none;stroke-opacity:1;filter:url(#filter5978)"
       d="m 54,201 c 0,0 4,2 8,2 9,0 13,-7 13,-7"
       id="path5842"
       sodipodi:nodetypes="csc"
       transform="matrix(0.95238095,0,0,1,-34.42857,-144)" /><path
       style="fill:none;fill-opacity:1;fill-rule:evenodd;stroke:#000000;stroke-width:1;stroke-linecap:round;stroke-linejoin:round;stroke-dasharray:none;stroke-opacity:1"
       d="M 11,51 H 39.000001 C 34,62.70821 16,62.70821 11,51 Z"
       id="path5913"
       sodipodi:nodetypes="ccc" /><path
       style="mix-blend-mode:normal;fill:#955516;fill-opacity:1;fill-rule:evenodd;stroke:none;stroke-width:1.4;stroke-linecap:round;stroke-linejoin:round;stroke-dasharray:none;stroke-opacity:1;filter:url(#filter6011)"
       d="M 38,75.52671 C 45,76.52671 65,76 65,76 v -3 c 0,0 -1.94591,-1 -3,-1 0,0 -1,2 -3,2 -2,0 -8.999998,0.52671 -21,1.52671 z"
       id="path6003"
       sodipodi:nodetypes="cccssc" /><path
       id="path6009"
       style="fill:none;fill-rule:evenodd;stroke:#000000;stroke-linecap:round;stroke-linejoin:round"
       d="m 33,72 c 7,-3 23,-3 30,0 2,1 2,1 2,4 H 31 c 0,-3 0,-3 2,-4 z"
       sodipodi:nodetypes="ccccc" /><path
       style="fill:#f6ce02;fill-opacity:1;fill-rule:evenodd;stroke:#000000;stroke-width:1;stroke-linecap:round;stroke-linejoin:round;stroke-dasharray:none;stroke-opacity:1"
       d="M 71,24.29179 59,51"
       id="path6026"
       sodipodi:nodetypes="cc" /><path
       style="fill:#f6ce02;fill-opacity:1;fill-rule:evenodd;stroke:#000000;stroke-width:1;stroke-linecap:round;stroke-linejoin:round;stroke-dasharray:none;stroke-opacity:1"
       d="M 71,24.29179 83,51"
       id="path6028"
       sodipodi:nodetypes="cc" /><circle
       style="fill:#e8b04d;fill-opacity:1;fill-rule:evenodd;stroke:#000000;stroke-width:1;stroke-linecap:round;stroke-linejoin:round;stroke-dasharray:none;stroke-opacity:1"
       id="circle6030"
       cx="71"
       cy="22.999996"
       r="2.7499998" /><path
       style="fill:#e8b04d;fill-opacity:1;fill-rule:evenodd;stroke:#000000;stroke-width:1;stroke-linecap:round;stroke-linejoin:round;stroke-dasharray:none;stroke-opacity:1"
       d="M 57,51 H 85.000001 C 80,62.70821 62,62.70821 57,51 Z"
       id="path9953"
       sodipodi:nodetypes="ccc" /><path
       style="mix-blend-mode:normal;fill:none;fill-opacity:1;fill-rule:evenodd;stroke:#c4933d;stroke-width:1.43457;stroke-linecap:round;stroke-linejoin:round;stroke-dasharray:none;stroke-opacity:1;filter:url(#filter5978)"
       d="m 54,201 c 0,0 4,2 8,2 9,0 13,-7 13,-7"
       id="path9955"
       sodipodi:nodetypes="csc"
       transform="matrix(0.95238095,0,0,1,11.57143,-144)" /><path
       style="fill:none;fill-opacity:1;fill-rule:evenodd;stroke:#000000;stroke-width:1;stroke-linecap:round;stroke-linejoin:round;stroke-dasharray:none;stroke-opacity:1"
       d="M 57,51 H 85.000001 C 80,62.70821 62,62.70821 57,51 Z"
       id="path9957"
       sodipodi:nodetypes="ccc" /></g></svg>
