<?xml version="1.0" encoding="UTF-8" standalone="no"?>
<!-- Created with Inkscape (http://www.inkscape.org/) -->

<svg
   width="210mm"
   height="297mm"
   viewBox="0 0 210 297"
   version="1.1"
   id="svg5"
   inkscape:version="1.4.3 (0d15f75, 2025-12-25)"
   sodipodi:docname="taller-tesela-salamandra-color.svg"
   xmlns:inkscape="http://www.inkscape.org/namespaces/inkscape"
   xmlns:sodipodi="http://sodipodi.sourceforge.net/DTD/sodipodi-0.dtd"
   xmlns="http://www.w3.org/2000/svg"
   xmlns:svg="http://www.w3.org/2000/svg"
   xmlns:rdf="http://www.w3.org/1999/02/22-rdf-syntax-ns#"
   xmlns:cc="http://creativecommons.org/ns#"
   xmlns:dc="http://purl.org/dc/elements/1.1/">
  <title
     id="title1624">Teselas de salamandras con color</title>
  <sodipodi:namedview
     id="namedview7"
     pagecolor="#ffffff"
     bordercolor="#000000"
     borderopacity="0.25"
     inkscape:showpageshadow="2"
     inkscape:pageopacity="0.0"
     inkscape:pagecheckerboard="0"
     inkscape:deskcolor="#d1d1d1"
     inkscape:document-units="mm"
     showgrid="true"
     inkscape:zoom="0.7385171"
     inkscape:cx="526.7312"
     inkscape:cy="561.25985"
     inkscape:window-width="1920"
     inkscape:window-height="1009"
     inkscape:window-x="-8"
     inkscape:window-y="-8"
     inkscape:window-maximized="1"
     inkscape:current-layer="layer1"
     inkscape:export-bgcolor="#ffffffff">
    <inkscape:grid
       type="xygrid"
       id="grid1779"
       units="mm"
       spacingx="1"
       spacingy="1"
       originx="0"
       originy="0" />
  </sodipodi:namedview>
  <defs
     id="defs2" />
  <g
     inkscape:label="Capa 1"
     inkscape:groupmode="layer"
     id="layer1">
    <text
       xml:space="preserve"
       style="font-size:3.52777px;fill:#000000;fill-opacity:1;stroke:none;stroke-width:0.4;stroke-linecap:round;stroke-linejoin:round"
       x="40.893379"
       y="287.70227"
       id="text360"><tspan
         sodipodi:role="line"
         id="tspan358"
         style="fill:#000000;fill-opacity:1;stroke:none;stroke-width:0.4"
         x="40.893379"
         y="287.70227">Licencia Creative Commons BY-SA 4.0      www.picuino.com      Versión: 5/2026</tspan></text>
    <text
       xml:space="preserve"
       style="font-weight:bold;font-size:4.9389px;font-family:sans-serif;-inkscape-font-specification:'sans-serif Bold';text-align:center;text-anchor:middle;fill:#000000;stroke-width:0.4;stroke-linecap:round;stroke-linejoin:round"
       x="105.01235"
       y="13.575764"
       id="text4149"><tspan
         sodipodi:role="line"
         id="tspan4147"
         style="stroke-width:0.4"
         x="105.01235"
         y="13.575764">TESELAS DE SALAMANDRAS</tspan></text>
    <g
       id="g31"
       transform="rotate(-30,45.1689,53.019172)"
       inkscape:export-filename="./_images/taller-tesela-salamandra.png"
       inkscape:export-xdpi="300"
       inkscape:export-ydpi="300"
       style="fill:#ff80ff;fill-opacity:1">
      <path
         id="path29"
         style="fill:#ff80ff;stroke:#000000;stroke-width:0.4;stroke-linecap:round;stroke-linejoin:round;stroke-dashoffset:2.28557;fill-opacity:1"
         d="m 40.440525,20.2 -2.525427,0.02584 -7.107576,6.990788 2.500105,9.650573 -1.240234,2.199866 -9.009786,1.572514 -5.759855,-3.324862 -5.329907,-0.768428 -1.767851,7.062618 3.59823,-0.232027 4.509285,5.490104 13.00024,-1.999878 7.00009,6.00015 -7.00009,-1.000455 -8.967411,3.985803 -3.310392,3.567224 2.036051,11.525912 -1.964221,4.598168 4.617289,1.95337 7.088457,-6.979419 -2.500106,-9.62887 4.000272,-3.022038 2.999817,4.000273 10.999846,3.999756 1.434021,4.650879 h 5.16e-4 l -1.032495,9.75806 -4.366141,5.562452 8.696626,-3.062346 4.767668,-12.258166 -0.499711,-9.650574 7.847583,-3.076815 h 5.17e-4 l 11.553816,8.164876 5.428093,-6.598046 -7.830013,-2.490288 -4.000273,-8.000028 -8.928137,-0.535885 -6.071981,5.536096 -2.999817,-8.000028 12.847795,-5.92367 1.259871,-8.334891 -8.607743,-4.39198 -2.500106,6.65024 2.000395,3.000333 -7.00009,1.999878 -2.000394,-5.000211 v -6.65024 z" />
      <circle
         style="fill:#ff80ff;stroke:#000000;stroke-width:0.4;stroke-linecap:round;stroke-linejoin:round;stroke-dashoffset:2.28557;fill-opacity:1"
         id="circle30"
         cx="36.099998"
         cy="28"
         r="0.5" />
      <circle
         style="fill:#ff80ff;stroke:#000000;stroke-width:0.4;stroke-linecap:round;stroke-linejoin:round;stroke-dashoffset:2.28557;fill-opacity:1"
         id="circle31"
         cx="41.599998"
         cy="27.5"
         r="0.5" />
    </g>
    <g
       id="g52"
       transform="rotate(-30,75.590124,-60.514381)"
       style="fill:#80ffff;fill-opacity:1">
      <path
         id="path51"
         style="fill:#80ffff;stroke:#000000;stroke-width:0.4;stroke-linecap:round;stroke-linejoin:round;stroke-dashoffset:2.28557;fill-opacity:1"
         d="m 40.440525,20.2 -2.525427,0.02584 -7.107576,6.990788 2.500105,9.650573 -1.240234,2.199866 -9.009786,1.572514 -5.759855,-3.324862 -5.329907,-0.768428 -1.767851,7.062618 3.59823,-0.232027 4.509285,5.490104 13.00024,-1.999878 7.00009,6.00015 -7.00009,-1.000455 -8.967411,3.985803 -3.310392,3.567224 2.036051,11.525912 -1.964221,4.598168 4.617289,1.95337 7.088457,-6.979419 -2.500106,-9.62887 4.000272,-3.022038 2.999817,4.000273 10.999846,3.999756 1.434021,4.650879 h 5.16e-4 l -1.032495,9.75806 -4.366141,5.562452 8.696626,-3.062346 4.767668,-12.258166 -0.499711,-9.650574 7.847583,-3.076815 h 5.17e-4 l 11.553816,8.164876 5.428093,-6.598046 -7.830013,-2.490288 -4.000273,-8.000028 -8.928137,-0.535885 -6.071981,5.536096 -2.999817,-8.000028 12.847795,-5.92367 1.259871,-8.334891 -8.607743,-4.39198 -2.500106,6.65024 2.000395,3.000333 -7.00009,1.999878 -2.000394,-5.000211 v -6.65024 z" />
      <circle
         style="fill:#80ffff;stroke:#000000;stroke-width:0.4;stroke-linecap:round;stroke-linejoin:round;stroke-dashoffset:2.28557;fill-opacity:1"
         id="circle51"
         cx="36.099998"
         cy="28"
         r="0.5" />
      <circle
         style="fill:#80ffff;stroke:#000000;stroke-width:0.4;stroke-linecap:round;stroke-linejoin:round;stroke-dashoffset:2.28557;fill-opacity:1"
         id="circle52"
         cx="41.599998"
         cy="27.5"
         r="0.5" />
    </g>
    <g
       id="g54"
       transform="rotate(-30,106.01135,-174.04793)"
       style="stroke:#000000;stroke-opacity:1;fill:#ffff00;fill-opacity:1">
      <path
         id="path52"
         style="fill:#ffff00;stroke:#000000;stroke-width:0.4;stroke-linecap:round;stroke-linejoin:round;stroke-dashoffset:2.28557;stroke-opacity:1;fill-opacity:1"
         d="m 40.440525,20.2 -2.525427,0.02584 -7.107576,6.990788 2.500105,9.650573 -1.240234,2.199866 -9.009786,1.572514 -5.759855,-3.324862 -5.329907,-0.768428 -1.767851,7.062618 3.59823,-0.232027 4.509285,5.490104 13.00024,-1.999878 7.00009,6.00015 -7.00009,-1.000455 -8.967411,3.985803 -3.310392,3.567224 2.036051,11.525912 -1.964221,4.598168 4.617289,1.95337 7.088457,-6.979419 -2.500106,-9.62887 4.000272,-3.022038 2.999817,4.000273 10.999846,3.999756 1.434021,4.650879 h 5.16e-4 l -1.032495,9.75806 -4.366141,5.562452 8.696626,-3.062346 4.767668,-12.258166 -0.499711,-9.650574 7.847583,-3.076815 h 5.17e-4 l 11.553816,8.164876 5.428093,-6.598046 -7.830013,-2.490288 -4.000273,-8.000028 -8.928137,-0.535885 -6.071981,5.536096 -2.999817,-8.000028 12.847795,-5.92367 1.259871,-8.334891 -8.607743,-4.39198 -2.500106,6.65024 2.000395,3.000333 -7.00009,1.999878 -2.000394,-5.000211 v -6.65024 z" />
      <circle
         style="fill:#ffff00;stroke:#000000;stroke-width:0.4;stroke-linecap:round;stroke-linejoin:round;stroke-dashoffset:2.28557;stroke-opacity:1;fill-opacity:1"
         id="circle53"
         cx="36.099998"
         cy="28"
         r="0.5" />
      <circle
         style="fill:#ffff00;stroke:#000000;stroke-width:0.4;stroke-linecap:round;stroke-linejoin:round;stroke-dashoffset:2.28557;stroke-opacity:1;fill-opacity:1"
         id="circle54"
         cx="41.599998"
         cy="27.5"
         r="0.5" />
    </g>
    <g
       id="g56"
       transform="rotate(-30,164.79203,85.072093)"
       style="fill:#ff80ff;fill-opacity:1">
      <path
         id="path54"
         style="fill:#ff80ff;stroke:#000000;stroke-width:0.4;stroke-linecap:round;stroke-linejoin:round;stroke-dashoffset:2.28557;fill-opacity:1"
         d="m 40.440525,20.2 -2.525427,0.02584 -7.107576,6.990788 2.500105,9.650573 -1.240234,2.199866 -9.009786,1.572514 -5.759855,-3.324862 -5.329907,-0.768428 -1.767851,7.062618 3.59823,-0.232027 4.509285,5.490104 13.00024,-1.999878 7.00009,6.00015 -7.00009,-1.000455 -8.967411,3.985803 -3.310392,3.567224 2.036051,11.525912 -1.964221,4.598168 4.617289,1.95337 7.088457,-6.979419 -2.500106,-9.62887 4.000272,-3.022038 2.999817,4.000273 10.999846,3.999756 1.434021,4.650879 h 5.16e-4 l -1.032495,9.75806 -4.366141,5.562452 8.696626,-3.062346 4.767668,-12.258166 -0.499711,-9.650574 7.847583,-3.076815 h 5.17e-4 l 11.553816,8.164876 5.428093,-6.598046 -7.830013,-2.490288 -4.000273,-8.000028 -8.928137,-0.535885 -6.071981,5.536096 -2.999817,-8.000028 12.847795,-5.92367 1.259871,-8.334891 -8.607743,-4.39198 -2.500106,6.65024 2.000395,3.000333 -7.00009,1.999878 -2.000394,-5.000211 v -6.65024 z" />
      <circle
         style="fill:#ff80ff;stroke:#000000;stroke-width:0.4;stroke-linecap:round;stroke-linejoin:round;stroke-dashoffset:2.28557;fill-opacity:1"
         id="circle55"
         cx="36.099998"
         cy="28"
         r="0.5" />
      <circle
         style="fill:#ff80ff;stroke:#000000;stroke-width:0.4;stroke-linecap:round;stroke-linejoin:round;stroke-dashoffset:2.28557;fill-opacity:1"
         id="circle56"
         cx="41.599998"
         cy="27.5"
         r="0.5" />
    </g>
    <g
       id="g58"
       transform="rotate(-30,195.21325,-28.46146)"
       style="fill:#80ffff;fill-opacity:1">
      <path
         id="path56"
         style="fill:#80ffff;stroke:#000000;stroke-width:0.4;stroke-linecap:round;stroke-linejoin:round;stroke-dashoffset:2.28557;fill-opacity:1"
         d="m 40.440525,20.2 -2.525427,0.02584 -7.107576,6.990788 2.500105,9.650573 -1.240234,2.199866 -9.009786,1.572514 -5.759855,-3.324862 -5.329907,-0.768428 -1.767851,7.062618 3.59823,-0.232027 4.509285,5.490104 13.00024,-1.999878 7.00009,6.00015 -7.00009,-1.000455 -8.967411,3.985803 -3.310392,3.567224 2.036051,11.525912 -1.964221,4.598168 4.617289,1.95337 7.088457,-6.979419 -2.500106,-9.62887 4.000272,-3.022038 2.999817,4.000273 10.999846,3.999756 1.434021,4.650879 h 5.16e-4 l -1.032495,9.75806 -4.366141,5.562452 8.696626,-3.062346 4.767668,-12.258166 -0.499711,-9.650574 7.847583,-3.076815 h 5.17e-4 l 11.553816,8.164876 5.428093,-6.598046 -7.830013,-2.490288 -4.000273,-8.000028 -8.928137,-0.535885 -6.071981,5.536096 -2.999817,-8.000028 12.847795,-5.92367 1.259871,-8.334891 -8.607743,-4.39198 -2.500106,6.65024 2.000395,3.000333 -7.00009,1.999878 -2.000394,-5.000211 v -6.65024 z" />
      <circle
         style="fill:#80ffff;stroke:#000000;stroke-width:0.4;stroke-linecap:round;stroke-linejoin:round;stroke-dashoffset:2.28557;fill-opacity:1"
         id="circle57"
         cx="36.099998"
         cy="28"
         r="0.5" />
      <circle
         style="fill:#80ffff;stroke:#000000;stroke-width:0.4;stroke-linecap:round;stroke-linejoin:round;stroke-dashoffset:2.28557;fill-opacity:1"
         id="circle58"
         cx="41.599998"
         cy="27.5"
         r="0.5" />
    </g>
    <g
       id="g60"
       transform="rotate(-30,225.63448,-141.99501)"
       style="fill:#ffff00;fill-opacity:1">
      <path
         id="path58"
         style="fill:#ffff00;stroke:#000000;stroke-width:0.4;stroke-linecap:round;stroke-linejoin:round;stroke-dashoffset:2.28557;fill-opacity:1"
         d="m 40.440525,20.2 -2.525427,0.02584 -7.107576,6.990788 2.500105,9.650573 -1.240234,2.199866 -9.009786,1.572514 -5.759855,-3.324862 -5.329907,-0.768428 -1.767851,7.062618 3.59823,-0.232027 4.509285,5.490104 13.00024,-1.999878 7.00009,6.00015 -7.00009,-1.000455 -8.967411,3.985803 -3.310392,3.567224 2.036051,11.525912 -1.964221,4.598168 4.617289,1.95337 7.088457,-6.979419 -2.500106,-9.62887 4.000272,-3.022038 2.999817,4.000273 10.999846,3.999756 1.434021,4.650879 h 5.16e-4 l -1.032495,9.75806 -4.366141,5.562452 8.696626,-3.062346 4.767668,-12.258166 -0.499711,-9.650574 7.847583,-3.076815 h 5.17e-4 l 11.553816,8.164876 5.428093,-6.598046 -7.830013,-2.490288 -4.000273,-8.000028 -8.928137,-0.535885 -6.071981,5.536096 -2.999817,-8.000028 12.847795,-5.92367 1.259871,-8.334891 -8.607743,-4.39198 -2.500106,6.65024 2.000395,3.000333 -7.00009,1.999878 -2.000394,-5.000211 v -6.65024 z" />
      <circle
         style="fill:#ffff00;stroke:#000000;stroke-width:0.4;stroke-linecap:round;stroke-linejoin:round;stroke-dashoffset:2.28557;fill-opacity:1"
         id="circle59"
         cx="36.099998"
         cy="28"
         r="0.5" />
      <circle
         style="fill:#ffff00;stroke:#000000;stroke-width:0.4;stroke-linecap:round;stroke-linejoin:round;stroke-dashoffset:2.28557;fill-opacity:1"
         id="circle60"
         cx="41.599998"
         cy="27.5"
         r="0.5" />
    </g>
    <g
       id="g62"
       transform="rotate(-30,284.41516,117.12501)"
       style="fill:#ff80ff;fill-opacity:1">
      <path
         id="path60"
         style="fill:#ff80ff;stroke:#000000;stroke-width:0.4;stroke-linecap:round;stroke-linejoin:round;stroke-dashoffset:2.28557;fill-opacity:1"
         d="m 40.440525,20.2 -2.525427,0.02584 -7.107576,6.990788 2.500105,9.650573 -1.240234,2.199866 -9.009786,1.572514 -5.759855,-3.324862 -5.329907,-0.768428 -1.767851,7.062618 3.59823,-0.232027 4.509285,5.490104 13.00024,-1.999878 7.00009,6.00015 -7.00009,-1.000455 -8.967411,3.985803 -3.310392,3.567224 2.036051,11.525912 -1.964221,4.598168 4.617289,1.95337 7.088457,-6.979419 -2.500106,-9.62887 4.000272,-3.022038 2.999817,4.000273 10.999846,3.999756 1.434021,4.650879 h 5.16e-4 l -1.032495,9.75806 -4.366141,5.562452 8.696626,-3.062346 4.767668,-12.258166 -0.499711,-9.650574 7.847583,-3.076815 h 5.17e-4 l 11.553816,8.164876 5.428093,-6.598046 -7.830013,-2.490288 -4.000273,-8.000028 -8.928137,-0.535885 -6.071981,5.536096 -2.999817,-8.000028 12.847795,-5.92367 1.259871,-8.334891 -8.607743,-4.39198 -2.500106,6.65024 2.000395,3.000333 -7.00009,1.999878 -2.000394,-5.000211 v -6.65024 z" />
      <circle
         style="fill:#ff80ff;stroke:#000000;stroke-width:0.4;stroke-linecap:round;stroke-linejoin:round;stroke-dashoffset:2.28557;fill-opacity:1"
         id="circle61"
         cx="36.099998"
         cy="28"
         r="0.5" />
      <circle
         style="fill:#ff80ff;stroke:#000000;stroke-width:0.4;stroke-linecap:round;stroke-linejoin:round;stroke-dashoffset:2.28557;fill-opacity:1"
         id="circle62"
         cx="41.599998"
         cy="27.5"
         r="0.5" />
    </g>
    <g
       id="g64"
       transform="rotate(-30,314.83638,3.5914602)"
       style="fill:#80ffff;fill-opacity:1">
      <path
         id="path62"
         style="fill:#80ffff;stroke:#000000;stroke-width:0.4;stroke-linecap:round;stroke-linejoin:round;stroke-dashoffset:2.28557;fill-opacity:1"
         d="m 40.440525,20.2 -2.525427,0.02584 -7.107576,6.990788 2.500105,9.650573 -1.240234,2.199866 -9.009786,1.572514 -5.759855,-3.324862 -5.329907,-0.768428 -1.767851,7.062618 3.59823,-0.232027 4.509285,5.490104 13.00024,-1.999878 7.00009,6.00015 -7.00009,-1.000455 -8.967411,3.985803 -3.310392,3.567224 2.036051,11.525912 -1.964221,4.598168 4.617289,1.95337 7.088457,-6.979419 -2.500106,-9.62887 4.000272,-3.022038 2.999817,4.000273 10.999846,3.999756 1.434021,4.650879 h 5.16e-4 l -1.032495,9.75806 -4.366141,5.562452 8.696626,-3.062346 4.767668,-12.258166 -0.499711,-9.650574 7.847583,-3.076815 h 5.17e-4 l 11.553816,8.164876 5.428093,-6.598046 -7.830013,-2.490288 -4.000273,-8.000028 -8.928137,-0.535885 -6.071981,5.536096 -2.999817,-8.000028 12.847795,-5.92367 1.259871,-8.334891 -8.607743,-4.39198 -2.500106,6.65024 2.000395,3.000333 -7.00009,1.999878 -2.000394,-5.000211 v -6.65024 z" />
      <circle
         style="fill:#80ffff;stroke:#000000;stroke-width:0.4;stroke-linecap:round;stroke-linejoin:round;stroke-dashoffset:2.28557;fill-opacity:1"
         id="circle63"
         cx="36.099998"
         cy="28"
         r="0.5" />
      <circle
         style="fill:#80ffff;stroke:#000000;stroke-width:0.4;stroke-linecap:round;stroke-linejoin:round;stroke-dashoffset:2.28557;fill-opacity:1"
         id="circle64"
         cx="41.599998"
         cy="27.5"
         r="0.5" />
    </g>
    <g
       id="g66"
       transform="rotate(-30,345.2576,-109.94209)"
       style="fill:#ffff00;fill-opacity:1">
      <path
         id="path64"
         style="fill:#ffff00;stroke:#000000;stroke-width:0.4;stroke-linecap:round;stroke-linejoin:round;stroke-dashoffset:2.28557;fill-opacity:1"
         d="m 40.440525,20.2 -2.525427,0.02584 -7.107576,6.990788 2.500105,9.650573 -1.240234,2.199866 -9.009786,1.572514 -5.759855,-3.324862 -5.329907,-0.768428 -1.767851,7.062618 3.59823,-0.232027 4.509285,5.490104 13.00024,-1.999878 7.00009,6.00015 -7.00009,-1.000455 -8.967411,3.985803 -3.310392,3.567224 2.036051,11.525912 -1.964221,4.598168 4.617289,1.95337 7.088457,-6.979419 -2.500106,-9.62887 4.000272,-3.022038 2.999817,4.000273 10.999846,3.999756 1.434021,4.650879 h 5.16e-4 l -1.032495,9.75806 -4.366141,5.562452 8.696626,-3.062346 4.767668,-12.258166 -0.499711,-9.650574 7.847583,-3.076815 h 5.17e-4 l 11.553816,8.164876 5.428093,-6.598046 -7.830013,-2.490288 -4.000273,-8.000028 -8.928137,-0.535885 -6.071981,5.536096 -2.999817,-8.000028 12.847795,-5.92367 1.259871,-8.334891 -8.607743,-4.39198 -2.500106,6.65024 2.000395,3.000333 -7.00009,1.999878 -2.000394,-5.000211 v -6.65024 z" />
      <circle
         style="fill:#ffff00;stroke:#000000;stroke-width:0.4;stroke-linecap:round;stroke-linejoin:round;stroke-dashoffset:2.28557;fill-opacity:1"
         id="circle65"
         cx="36.099998"
         cy="28"
         r="0.5" />
      <circle
         style="fill:#ffff00;stroke:#000000;stroke-width:0.4;stroke-linecap:round;stroke-linejoin:round;stroke-dashoffset:2.28557;fill-opacity:1"
         id="circle66"
         cx="41.599998"
         cy="27.5"
         r="0.5" />
    </g>
    <g
       id="g68"
       transform="rotate(-30,404.03828,149.17793)"
       style="fill:#ff80ff;fill-opacity:1">
      <path
         id="path66"
         style="fill:#ff80ff;stroke:#000000;stroke-width:0.4;stroke-linecap:round;stroke-linejoin:round;stroke-dashoffset:2.28557;fill-opacity:1"
         d="m 40.440525,20.2 -2.525427,0.02584 -7.107576,6.990788 2.500105,9.650573 -1.240234,2.199866 -9.009786,1.572514 -5.759855,-3.324862 -5.329907,-0.768428 -1.767851,7.062618 3.59823,-0.232027 4.509285,5.490104 13.00024,-1.999878 7.00009,6.00015 -7.00009,-1.000455 -8.967411,3.985803 -3.310392,3.567224 2.036051,11.525912 -1.964221,4.598168 4.617289,1.95337 7.088457,-6.979419 -2.500106,-9.62887 4.000272,-3.022038 2.999817,4.000273 10.999846,3.999756 1.434021,4.650879 h 5.16e-4 l -1.032495,9.75806 -4.366141,5.562452 8.696626,-3.062346 4.767668,-12.258166 -0.499711,-9.650574 7.847583,-3.076815 h 5.17e-4 l 11.553816,8.164876 5.428093,-6.598046 -7.830013,-2.490288 -4.000273,-8.000028 -8.928137,-0.535885 -6.071981,5.536096 -2.999817,-8.000028 12.847795,-5.92367 1.259871,-8.334891 -8.607743,-4.39198 -2.500106,6.65024 2.000395,3.000333 -7.00009,1.999878 -2.000394,-5.000211 v -6.65024 z" />
      <circle
         style="fill:#ff80ff;stroke:#000000;stroke-width:0.4;stroke-linecap:round;stroke-linejoin:round;stroke-dashoffset:2.28557;fill-opacity:1"
         id="circle67"
         cx="36.099998"
         cy="28"
         r="0.5" />
      <circle
         style="fill:#ff80ff;stroke:#000000;stroke-width:0.4;stroke-linecap:round;stroke-linejoin:round;stroke-dashoffset:2.28557;fill-opacity:1"
         id="circle68"
         cx="41.599998"
         cy="27.5"
         r="0.5" />
    </g>
    <g
       id="g70"
       transform="rotate(-30,434.45951,35.644381)"
       style="fill:#80ffff;fill-opacity:1">
      <path
         id="path68"
         style="fill:#80ffff;stroke:#000000;stroke-width:0.4;stroke-linecap:round;stroke-linejoin:round;stroke-dashoffset:2.28557;fill-opacity:1"
         d="m 40.440525,20.2 -2.525427,0.02584 -7.107576,6.990788 2.500105,9.650573 -1.240234,2.199866 -9.009786,1.572514 -5.759855,-3.324862 -5.329907,-0.768428 -1.767851,7.062618 3.59823,-0.232027 4.509285,5.490104 13.00024,-1.999878 7.00009,6.00015 -7.00009,-1.000455 -8.967411,3.985803 -3.310392,3.567224 2.036051,11.525912 -1.964221,4.598168 4.617289,1.95337 7.088457,-6.979419 -2.500106,-9.62887 4.000272,-3.022038 2.999817,4.000273 10.999846,3.999756 1.434021,4.650879 h 5.16e-4 l -1.032495,9.75806 -4.366141,5.562452 8.696626,-3.062346 4.767668,-12.258166 -0.499711,-9.650574 7.847583,-3.076815 h 5.17e-4 l 11.553816,8.164876 5.428093,-6.598046 -7.830013,-2.490288 -4.000273,-8.000028 -8.928137,-0.535885 -6.071981,5.536096 -2.999817,-8.000028 12.847795,-5.92367 1.259871,-8.334891 -8.607743,-4.39198 -2.500106,6.65024 2.000395,3.000333 -7.00009,1.999878 -2.000394,-5.000211 v -6.65024 z" />
      <circle
         style="fill:#80ffff;stroke:#000000;stroke-width:0.4;stroke-linecap:round;stroke-linejoin:round;stroke-dashoffset:2.28557;fill-opacity:1"
         id="circle69"
         cx="36.099998"
         cy="28"
         r="0.5" />
      <circle
         style="fill:#80ffff;stroke:#000000;stroke-width:0.4;stroke-linecap:round;stroke-linejoin:round;stroke-dashoffset:2.28557;fill-opacity:1"
         id="circle70"
         cx="41.599998"
         cy="27.5"
         r="0.5" />
    </g>
    <g
       id="g72"
       transform="rotate(-30,464.88073,-77.889172)"
       style="fill:#ffff00;fill-opacity:1">
      <path
         id="path70"
         style="fill:#ffff00;stroke:#000000;stroke-width:0.4;stroke-linecap:round;stroke-linejoin:round;stroke-dashoffset:2.28557;fill-opacity:1"
         d="m 40.440525,20.2 -2.525427,0.02584 -7.107576,6.990788 2.500105,9.650573 -1.240234,2.199866 -9.009786,1.572514 -5.759855,-3.324862 -5.329907,-0.768428 -1.767851,7.062618 3.59823,-0.232027 4.509285,5.490104 13.00024,-1.999878 7.00009,6.00015 -7.00009,-1.000455 -8.967411,3.985803 -3.310392,3.567224 2.036051,11.525912 -1.964221,4.598168 4.617289,1.95337 7.088457,-6.979419 -2.500106,-9.62887 4.000272,-3.022038 2.999817,4.000273 10.999846,3.999756 1.434021,4.650879 h 5.16e-4 l -1.032495,9.75806 -4.366141,5.562452 8.696626,-3.062346 4.767668,-12.258166 -0.499711,-9.650574 7.847583,-3.076815 h 5.17e-4 l 11.553816,8.164876 5.428093,-6.598046 -7.830013,-2.490288 -4.000273,-8.000028 -8.928137,-0.535885 -6.071981,5.536096 -2.999817,-8.000028 12.847795,-5.92367 1.259871,-8.334891 -8.607743,-4.39198 -2.500106,6.65024 2.000395,3.000333 -7.00009,1.999878 -2.000394,-5.000211 v -6.65024 z" />
      <circle
         style="fill:#ffff00;stroke:#000000;stroke-width:0.4;stroke-linecap:round;stroke-linejoin:round;stroke-dashoffset:2.28557;fill-opacity:1"
         id="circle71"
         cx="36.099998"
         cy="28"
         r="0.5" />
      <circle
         style="fill:#ffff00;stroke:#000000;stroke-width:0.4;stroke-linecap:round;stroke-linejoin:round;stroke-dashoffset:2.28557;fill-opacity:1"
         id="circle72"
         cx="41.599998"
         cy="27.5"
         r="0.5" />
    </g>
  </g>
  <metadata
     id="metadata1622">
    <rdf:RDF>
      <cc:Work
         rdf:about="">
        <cc:license
           rdf:resource="http://creativecommons.org/licenses/by-sa/4.0/" />
        <dc:title>Teselas de salamandras con color</dc:title>
        <dc:date>19/05/2026</dc:date>
        <dc:creator>
          <cc:Agent>
            <dc:title>Carlos Félix Pardo Martín</dc:title>
          </cc:Agent>
        </dc:creator>
        <dc:rights>
          <cc:Agent>
            <dc:title>Licencia Creative Commons BY-SA 4.0</dc:title>
          </cc:Agent>
        </dc:rights>
        <dc:publisher>
          <cc:Agent>
            <dc:title>www.picuino.com</dc:title>
          </cc:Agent>
        </dc:publisher>
      </cc:Work>
      <cc:License
         rdf:about="http://creativecommons.org/licenses/by-sa/4.0/">
        <cc:permits
           rdf:resource="http://creativecommons.org/ns#Reproduction" />
        <cc:permits
           rdf:resource="http://creativecommons.org/ns#Distribution" />
        <cc:requires
           rdf:resource="http://creativecommons.org/ns#Notice" />
        <cc:requires
           rdf:resource="http://creativecommons.org/ns#Attribution" />
        <cc:permits
           rdf:resource="http://creativecommons.org/ns#DerivativeWorks" />
        <cc:requires
           rdf:resource="http://creativecommons.org/ns#ShareAlike" />
      </cc:License>
    </rdf:RDF>
  </metadata>
</svg>
