<?xml version="1.0" encoding="UTF-8" standalone="no"?>
<!-- Created with Inkscape (http://www.inkscape.org/) -->

<svg
   width="210mm"
   height="297mm"
   viewBox="0 0 210 297"
   version="1.1"
   id="svg5"
   inkscape:version="1.2.1 (9c6d41e410, 2022-07-14)"
   sodipodi:docname="taller-tesela-salamandra-3d.svg"
   xmlns:inkscape="http://www.inkscape.org/namespaces/inkscape"
   xmlns:sodipodi="http://sodipodi.sourceforge.net/DTD/sodipodi-0.dtd"
   xmlns="http://www.w3.org/2000/svg"
   xmlns:svg="http://www.w3.org/2000/svg"
   xmlns:rdf="http://www.w3.org/1999/02/22-rdf-syntax-ns#"
   xmlns:cc="http://creativecommons.org/ns#"
   xmlns:dc="http://purl.org/dc/elements/1.1/">
  <title
     id="title1624">Teselas de salamandras</title>
  <sodipodi:namedview
     id="namedview7"
     pagecolor="#ffffff"
     bordercolor="#000000"
     borderopacity="0.25"
     inkscape:showpageshadow="2"
     inkscape:pageopacity="0.0"
     inkscape:pagecheckerboard="0"
     inkscape:deskcolor="#d1d1d1"
     inkscape:document-units="mm"
     showgrid="true"
     inkscape:zoom="8.3553672"
     inkscape:cx="-132.96842"
     inkscape:cy="54.695382"
     inkscape:window-width="1920"
     inkscape:window-height="1009"
     inkscape:window-x="-8"
     inkscape:window-y="-8"
     inkscape:window-maximized="1"
     inkscape:current-layer="layer1"
     inkscape:export-bgcolor="#ffffffff">
    <inkscape:grid
       type="xygrid"
       id="grid1779"
       units="mm"
       spacingx="1"
       spacingy="1"
       originx="0"
       originy="0" />
  </sodipodi:namedview>
  <defs
     id="defs2">
    <inkscape:path-effect
       effect="fillet_chamfer"
       id="path-effect853"
       is_visible="true"
       lpeversion="1"
       nodesatellites_param="F,0,0,1,0,0.396875,0,1 @ F,0,0,1,0,0.396875,0,1 @ F,0,0,1,0,0.396875,0,1 @ F,0,0,1,0,0.396875,0,1 @ F,0,0,1,0,0.396875,0,1 @ F,0,0,1,0,0.396875,0,1 @ F,0,0,1,0,0.396875,0,1 @ F,0,0,1,0,0.396875,0,1 @ F,0,0,1,0,0.396875,0,1 @ F,0,0,1,0,0.396875,0,1 @ F,0,0,1,0,0.396875,0,1 @ F,0,0,1,0,0.396875,0,1 @ F,0,0,1,0,0.396875,0,1 @ F,0,0,1,0,0.396875,0,1 @ F,0,0,1,0,0.396875,0,1 @ F,0,0,1,0,0.396875,0,1 @ F,0,0,1,0,0.396875,0,1 @ F,0,0,1,0,0.396875,0,1 @ F,0,0,1,0,0.396875,0,1 @ F,0,0,1,0,0.396875,0,1 @ F,0,0,1,0,0.396875,0,1 @ F,0,0,1,0,0.396875,0,1 @ F,0,0,1,0,0.396875,0,1 @ F,0,0,1,0,0.396875,0,1 @ F,0,0,1,0,0.396875,0,1 @ F,0,0,1,0,0.396875,0,1 @ F,0,0,1,0,0.396875,0,1 @ F,0,0,1,0,0.396875,0,1 @ F,0,0,1,0,0.396875,0,1 @ F,0,0,1,0,0.396875,0,1 @ F,0,0,1,0,0.396875,0,1 @ F,0,0,1,0,0.396875,0,1 @ F,0,0,1,0,0.396875,0,1 @ F,0,0,1,0,0.396875,0,1 @ F,0,0,1,0,0.396875,0,1 @ F,0,0,1,0,0.396875,0,1 @ F,0,0,1,0,0.396875,0,1 @ F,0,0,1,0,0.396875,0,1 @ F,0,0,1,0,0.396875,0,1 @ F,0,0,1,0,0.396875,0,1 @ F,0,0,1,0,0.396875,0,1 @ F,0,0,1,0,0.396875,0,1 @ F,0,0,1,0,0.396875,0,1 @ F,0,0,1,0,0.396875,0,1 @ F,0,0,1,0,0.396875,0,1 @ F,0,0,1,0,0.396875,0,1 @ F,0,0,1,0,0.396875,0,1 @ F,0,0,1,0,0.396875,0,1 @ F,0,0,1,0,0.396875,0,1 @ F,0,0,1,0,0.396875,0,1 @ F,0,0,1,0,0.396875,0,1 @ F,0,0,1,0,0.396875,0,1 @ F,0,0,1,0,0.396875,0,1 @ F,0,0,1,0,0.396875,0,1 @ F,0,0,1,0,0.396875,0,1 @ F,0,0,1,0,0.396875,0,1 @ F,0,0,1,0,0.396875,0,1 @ F,0,0,1,0,0.396875,0,1 @ F,0,0,1,0,0.396875,0,1 @ F,0,0,1,0,0.396875,0,1 @ F,0,0,1,0,0.396875,0,1 @ F,0,0,1,0,0.396875,0,1 @ F,0,0,1,0,0.396875,0,1 @ F,0,0,1,0,0.396875,0,1 @ F,0,0,1,0,0.396875,0,1"
       unit="px"
       method="auto"
       mode="F"
       radius="1.5"
       chamfer_steps="1"
       flexible="false"
       use_knot_distance="true"
       apply_no_radius="true"
       apply_with_radius="true"
       only_selected="false"
       hide_knots="false" />
    <inkscape:path-effect
       effect="fillet_chamfer"
       id="path-effect851"
       is_visible="true"
       lpeversion="1"
       nodesatellites_param="C,0,0,1,0,0,0,1 @ C,0,0,1,0,0,0,1 @ C,0,0,1,0,0,0,1 @ C,0,0,1,0,0,0,1 @ C,0,0,1,0,0,0,1 @ C,0,0,1,0,0,0,1 @ C,0,0,1,0,0,0,1 @ C,0,0,1,0,0,0,1 @ C,0,0,1,0,0,0,1 @ C,0,0,1,0,0,0,1 @ C,0,0,1,0,0,0,1 @ C,0,0,1,0,0,0,1 @ C,0,0,1,0,0,0,1 @ C,0,0,1,0,0,0,1 @ C,0,0,1,0,0,0,1 @ C,0,0,1,0,0,0,1 @ C,0,0,1,0,0,0,1 @ C,0,0,1,0,0,0,1 @ C,0,0,1,0,0,0,1 @ C,0,0,1,0,0,0,1 @ C,0,0,1,0,0,0,1 @ C,0,0,1,0,0,0,1 @ C,0,0,1,0,0,0,1 @ C,0,0,1,0,0,0,1 @ C,0,0,1,0,0,0,1 @ C,0,0,1,0,0,0,1 @ C,0,0,1,0,0,0,1 @ C,0,0,1,0,0,0,1 @ C,0,0,1,0,0,0,1 @ C,0,0,1,0,0,0,1 @ C,0,0,1,0,0,0,1 @ C,0,0,1,0,0,0,1 @ C,0,0,1,0,0,0,1 @ C,0,0,1,0,0,0,1 @ C,0,0,1,0,0,0,1 @ C,0,0,1,0,0,0,1 @ C,0,0,1,0,0,0,1 @ C,0,0,1,0,0,0,1 @ C,0,0,1,0,0,0,1 @ C,0,0,1,0,0,0,1 @ C,0,0,1,0,0,0,1 @ C,0,0,1,0,0,0,1 @ C,0,0,1,0,0,0,1 @ C,0,0,1,0,0,0,1 @ C,0,0,1,0,0,0,1 @ C,0,0,1,0,0,0,1 @ C,0,0,1,0,0,0,1 @ C,0,0,1,0,0,0,1 @ C,0,0,1,0,0,0,1 @ C,0,0,1,0,0,0,1 @ C,0,0,1,0,0,0,1 @ C,0,0,1,0,0,0,1 @ C,0,0,1,0,0,0,1 @ C,0,0,1,0,0,0,1 @ C,0,0,1,0,0,0,1 @ C,0,0,1,0,0,0,1 @ C,0,0,1,0,0,0,1 @ C,0,0,1,0,0,0,1 @ C,0,0,1,0,0,0,1 @ C,0,0,1,0,0,0,1 @ C,0,0,1,0,0,0,1 @ C,0,0,1,0,0,0,1 @ C,0,0,1,0,0,0,1 @ C,0,0,1,0,0,0,1 @ C,0,0,1,0,0,0,1"
       unit="mm"
       method="auto"
       mode="F"
       radius="0.5"
       chamfer_steps="1"
       flexible="false"
       use_knot_distance="true"
       apply_no_radius="true"
       apply_with_radius="true"
       only_selected="false"
       hide_knots="false" />
    <inkscape:path-effect
       effect="bspline"
       id="path-effect849"
       is_visible="true"
       lpeversion="1"
       weight="4"
       steps="1"
       helper_size="0"
       apply_no_weight="true"
       apply_with_weight="true"
       only_selected="false" />
  </defs>
  <g
     inkscape:label="Capa 1"
     inkscape:groupmode="layer"
     id="layer1">
    <path
       id="path29"
       style="fill:#303030;fill-opacity:1;stroke:none;stroke-width:0.4;stroke-linecap:round;stroke-linejoin:round;stroke-dashoffset:2.28557"
       d="m -1.5875715,-24.275244 1.00170858,6.055564 a 0.77387229,0.77387229 53.456513 0 0 0.4205459,0.567434 l 2.47282462,1.222458 a 0.41205764,0.41205764 63.246132 0 1 0.2459984,0.48797 l -4.6474523,4.803086 a 0.54830415,0.54830415 164.93898 0 1 -0.5906695,0.158944 l -3.760833,-2.963572 a 2.0677022,2.0677022 49.10366 0 1 -0.5103464,-0.589236 l -2.9217506,-5.054278 a 1.0942637,1.0942637 40.033836 0 0 -0.5713302,-0.479978 l -7.760448,-2.839736 a 0.83794803,0.83794803 174.75529 0 0 -0.714355,0.06557 l -1.410842,0.833978 a 0.98386687,0.98386687 127.44348 0 0 -0.447544,0.584443 l -2.420632,8.74323 a 0.68739707,0.68739707 75.474791 0 0 0.172405,0.665434 l 6.391056,6.4977782 a 1.0594375,1.0594375 66.010819 0 1 0.302202,0.6791016 11.866802,11.866802 88.463195 0 1 0.01593,0.5937195 l 0.01237,1.2117092 a 0.9220713,0.9220713 112.70304 0 1 -0.281393,0.6725922 7.5753505,7.5753505 138.99208 0 1 -0.409803,0.3563356 l -6.054584,5.0625655 a 1.1640261,1.1640261 158.926 0 1 -0.701035,0.2701414 16.045843,16.045843 179.16984 0 1 -0.628275,0.0091 l -5.276328,3.112e-4 a 2.0615155,2.0615155 169.09958 0 0 -0.765374,0.1473937 l -4.15558,1.6619 a 0.43961143,0.43961143 116.12726 0 0 -0.259452,0.5289701 l 1.716282,6.0059411 a 0.28968518,0.28968518 20.178259 0 0 0.439246,0.161422 l 2.218898,-1.479566 a 0.86123556,0.86123556 171.04576 0 1 0.712104,-0.112204 6.2734678,6.2734678 19.410867 0 1 0.497149,0.17518 l 5.439298,2.044771 a 0.69652985,0.69652985 170.92851 0 0 0.681028,-0.108736 L -13.5443,4.6671385 a 0.94782538,0.94782538 163.97461 0 1 0.703705,-0.2021217 7.9396223,7.9396223 9.5582739 0 1 0.534012,0.089921 l 7.8297677,1.4657823 a 0.26661443,0.26661443 51.985665 0 1 0.2615305,0.3345712 l -6.0175622,2.414867 a 1.3796088,1.3796088 142.0852 0 0 -0.601803,0.4687408 l -5.275228,7.2511055 a 1.9356074,1.9356074 114.44887 0 0 -0.321823,0.707849 l -0.890111,3.89843 a 0.79814447,0.79814447 76.422877 0 0 0.166847,0.690871 l 6.981807,8.315921 a 1.3933917,1.3933917 65.882511 0 1 0.3119278,0.696752 31.289291,31.289291 82.507584 0 1 0.096247,0.731819 l 0.4089352,3.395416 a 0.39547525,0.39547525 38.031306 0 0 0.441313,0.34518 l 4.0122852,-0.497616 a 0.59413163,0.59413163 139.18749 0 0 0.4995498,-0.431391 l 2.4026776,-8.696242 A 0.68743085,0.68743085 75.445736 0 0 -2.172967,24.981639 l -6.3798442,-6.480078 a 0.68767435,0.68767435 75.43695 0 1 -0.1728621,-0.665387 3.832332,3.832332 111.35874 0 1 0.1826131,-0.466963 l 1.4880528,-3.517758 a 0.50794704,0.50794704 145.96921 0 1 0.49599,-0.334937 l 4.0014794,1.709592 a 1.3333787,1.3333787 6.5586773 0 0 0.7557868,0.0869 L 8.912301,13.420596 a 0.88497454,0.88497454 14.137534 0 1 0.7023186,0.176899 6.5893198,6.5893198 41.742091 0 1 0.3921554,0.349915 l 2.662871,2.471292 a 1.6940837,1.6940837 50.284004 0 1 0.389782,0.469228 l 3.750498,8.439631 a 1.4275146,1.4275146 81.576955 0 1 0.11202,0.756496 l -0.01269,0.101728 a 44.708822,44.708822 97.622447 0 1 -0.105283,0.786705 l -0.717754,5.02369 a 0.11556569,0.11556569 24.366028 0 0 0.202148,0.09155 l 5.21586,-6.08523 a 0.86389352,0.86389352 105.92684 0 0 0.197925,-0.69359 L 19.833404,13.163743 A 1.8499666,1.8499666 69.144472 0 0 19.557105,12.4385 L 14.743679,5.0161867 A 0.65261162,0.65261162 88.341471 0 1 14.72405,4.3382814 2.9825641,2.9825641 127.26999 0 1 15.005693,3.9681705 l 4.538166,-5.6868688 a 0.83992855,0.83992855 153.88137 0 1 0.644383,-0.3159396 4.2571474,4.2571474 4.5142499 0 1 0.449837,0.035516 l 12.84132,1.17961584 a 0.42705894,0.42705894 142.34655 0 0 0.460336,-0.35519084 l 1.229908,-7.3935718 a 0.26870659,0.26870659 43.544777 0 0 -0.322559,-0.3065765 l -7.09807,1.5547718 a 1.0202979,1.0202979 8.8999923 0 1 -0.73085,-0.1144478 9.7302722,9.7302722 32.49166 0 1 -0.469473,-0.2989912 l -6.350688,-4.1927462 a 0.68743564,0.68743564 3.4339347 0 0 -0.686181,-0.04117 l -7.195516,3.5977589 a 0.93966763,0.93966763 130.53785 0 0 -0.475248,0.5557 L 9.6050393,-0.78250769 A 0.39284688,0.39284688 145.80878 0 1 9.162353,-0.4817576 L 3.0252292,-5.5310508 A 0.53614814,0.53614814 70.922262 0 1 2.8265764,-6.1054476 L 10.602599,-17.109091 a 0.73622054,0.73622054 96.920161 0 0 0.08418,-0.693606 l -2.738405,-6.984842 a 0.55068418,0.55068418 32.812269 0 0 -0.5412025,-0.348945 l -8.663174,0.449138 a 0.35469161,0.35469161 128.8197 0 0 -0.331572,0.412102 z"
       inkscape:path-effect="#path-effect853"
       inkscape:original-d="m -1.6523422,-24.666798 c 0,0 1.13124996,6.838672 1.13124996,6.838672 0,0 3.18437504,1.574218 3.18437504,1.574218 0,0 -0.1097768,0.31209 -0.1097768,0.31209 0,0 -4.9234264,5.088302 -4.9234264,5.088302 0,0 -0.3146954,-0.126272 -0.3146954,-0.126272 0,0 -4.0725552,-3.209212 -4.0725552,-3.209212 0,0 -3.318999,-5.74147 -3.318999,-5.74147 0,0 -8.50586,-3.1125 -8.50586,-3.1125 0,0 -2.09414,1.23789 -2.09414,1.23789 0,0 -2.632422,9.508204 -2.632422,9.508204 0,0 6.947656,7.0636722 6.947656,7.0636722 0,0 0.03578,0.5930198 0.03578,0.5930198 0,0 0.02047,2.0054178 0.02047,2.0054178 0,0 -0.390782,0.3774938 -0.390782,0.3774938 0,0 -6.663514,5.5717249 -6.663514,5.5717249 0,0 -0.62797,0.024642 -0.62797,0.024642 0,0 -6.070078,3.58e-4 -6.070078,3.58e-4 0,0 -4.892578,1.9566406 -4.892578,1.9566406 0,0 1.934376,6.7691409 1.934376,6.7691409 0,0 2.879296,-1.919922 2.879296,-1.919922 0,0 0.507562,0.143501 0.507562,0.143501 0,0 6.182282,2.324077 6.182282,2.324077 0,0 10.211328,-8.1941406 10.211328,-8.1941406 0,0 0.538083,0.06316 0.538083,0.06316 0,0 8.6099638,1.6118399 8.6099638,1.6118399 0,0 -0.1285676,0.2615424 -0.1285676,0.2615424 0,0 -6.3858852,2.5626764 -6.3858852,2.5626764 0,0 -5.742188,7.8929679 -5.742188,7.8929679 0,0 -1.066797,4.672266 -1.066797,4.672266 0,0 7.4921878,8.923827 7.4921878,8.923827 0,0 0.1055286,0.73059 0.1055286,0.73059 0,0 0.5038464,4.183472 0.5038464,4.183472 0,0 4.8,-0.595312 4.8,-0.595312 0,0 2.6140624,-9.461328 2.6140624,-9.461328 0,0 -6.9367186,-7.045702 -6.9367186,-7.045702 0,0 0.13357,-0.484021 0.13357,-0.484021 0,0 1.7972892,-4.248792 1.7972892,-4.248792 0,0 0.3413718,0.03058 0.3413718,0.03058 0,0 4.3664408,1.865518 4.3664408,1.865518 0,0 11.495703,-2.030469 11.495703,-2.030469 0,0 0.4127466,0.325872 0.4127466,0.325872 0,0 3.244675,3.011238 3.244675,3.011238 0,0 0.09888,0.199255 0.09888,0.199255 0,0 3.911668,8.802307 3.911668,8.802307 0,0 -0.110995,0.889368 -0.110995,0.889368 0,0 -0.83002,5.80946 -0.83002,5.80946 0,0 5.732422,-6.687892 5.732422,-6.687892 0,0 -1.989455,-12.929689 -1.989455,-12.929689 0,0 -5.245312,-8.0882815 -5.245312,-8.0882815 0,0 0.230408,-0.4048235 0.230408,-0.4048235 0,0 5.033264,-6.3072858 5.033264,-6.3072858 0,0 0.45146,-0.00652 0.45146,-0.00652 0,0 13.631742,1.2522248 13.631742,1.2522248 0,0 1.360158,-8.1765624 1.360158,-8.1765624 0,0 -7.873438,1.7246094 -7.873438,1.7246094 0,0 -0.481434,-0.2796954 -0.481434,-0.2796954 0,0 -7.013098,-4.6300706 -7.013098,-4.6300706 0,0 -7.905468,3.9527348 -7.905468,3.9527348 0,0 -2.4765628,7.7878906 -2.4765628,7.7878906 0,0 -0.3224142,-0.077462 -0.3224142,-0.077462 0,0 -6.4436014,-5.3014464 -6.4436014,-5.3014464 0,0 0.1078248,-0.3222436 0.1078248,-0.3222436 0,0 8.0050656,-11.3277564 8.0050656,-11.3277564 0,0 -3.0281248,-7.723828 -3.0281248,-7.723828 0,0 -9.4558594,0.490234 -9.4558594,0.490234 z" />
    <circle
       style="fill:#000000;fill-opacity:1;stroke:none;stroke-width:0;stroke-linecap:round;stroke-linejoin:round;stroke-dasharray:none;stroke-dashoffset:2.28557"
       id="circle30"
       cx="-8.8676071"
       cy="-21.537136"
       r="1.5"
       transform="rotate(-30)" />
    <circle
       style="fill:#000000;fill-opacity:1;stroke:none;stroke-width:0;stroke-linecap:round;stroke-linejoin:round;stroke-dasharray:none;stroke-dashoffset:2.28557"
       id="circle31"
       cx="-3.3676074"
       cy="-22.037136"
       r="1.5"
       transform="rotate(-30)" />
  </g>
  <metadata
     id="metadata1622">
    <rdf:RDF>
      <cc:Work
         rdf:about="">
        <cc:license
           rdf:resource="http://creativecommons.org/licenses/by-sa/4.0/" />
        <dc:title>Teselas de salamandras</dc:title>
        <dc:date>30/04/2026</dc:date>
        <dc:creator>
          <cc:Agent>
            <dc:title>Carlos Félix Pardo Martín</dc:title>
          </cc:Agent>
        </dc:creator>
        <dc:rights>
          <cc:Agent>
            <dc:title>Licencia Creative Commons BY-SA 4.0</dc:title>
          </cc:Agent>
        </dc:rights>
        <dc:publisher>
          <cc:Agent>
            <dc:title>www.picuino.com</dc:title>
          </cc:Agent>
        </dc:publisher>
      </cc:Work>
      <cc:License
         rdf:about="http://creativecommons.org/licenses/by-sa/4.0/">
        <cc:permits
           rdf:resource="http://creativecommons.org/ns#Reproduction" />
        <cc:permits
           rdf:resource="http://creativecommons.org/ns#Distribution" />
        <cc:requires
           rdf:resource="http://creativecommons.org/ns#Notice" />
        <cc:requires
           rdf:resource="http://creativecommons.org/ns#Attribution" />
        <cc:permits
           rdf:resource="http://creativecommons.org/ns#DerivativeWorks" />
        <cc:requires
           rdf:resource="http://creativecommons.org/ns#ShareAlike" />
      </cc:License>
    </rdf:RDF>
  </metadata>
</svg>
