<?xml version="1.0" encoding="UTF-8" standalone="no"?>
<!-- Created with Inkscape (http://www.inkscape.org/) -->

<svg
   width="210mm"
   height="297mm"
   viewBox="0 0 210 297"
   version="1.1"
   id="svg5"
   inkscape:version="1.4.3 (0d15f75, 2025-12-25)"
   sodipodi:docname="taller-tesela-pez.svg"
   xmlns:inkscape="http://www.inkscape.org/namespaces/inkscape"
   xmlns:sodipodi="http://sodipodi.sourceforge.net/DTD/sodipodi-0.dtd"
   xmlns="http://www.w3.org/2000/svg"
   xmlns:svg="http://www.w3.org/2000/svg"
   xmlns:rdf="http://www.w3.org/1999/02/22-rdf-syntax-ns#"
   xmlns:cc="http://creativecommons.org/ns#"
   xmlns:dc="http://purl.org/dc/elements/1.1/">
  <title
     id="title1624">Teselas de peces</title>
  <sodipodi:namedview
     id="namedview7"
     pagecolor="#ffffff"
     bordercolor="#000000"
     borderopacity="0.25"
     inkscape:showpageshadow="2"
     inkscape:pageopacity="0.0"
     inkscape:pagecheckerboard="0"
     inkscape:deskcolor="#d1d1d1"
     inkscape:document-units="mm"
     showgrid="true"
     inkscape:zoom="0.52221045"
     inkscape:cx="466.28711"
     inkscape:cy="585.01319"
     inkscape:window-width="1920"
     inkscape:window-height="1009"
     inkscape:window-x="-8"
     inkscape:window-y="-8"
     inkscape:window-maximized="1"
     inkscape:current-layer="layer1">
    <inkscape:grid
       type="xygrid"
       id="grid1779"
       units="mm"
       spacingx="1"
       spacingy="1"
       originx="0"
       originy="0" />
  </sodipodi:namedview>
  <defs
     id="defs2" />
  <g
     inkscape:label="Capa 1"
     inkscape:groupmode="layer"
     id="layer1">
    <g
       id="g1409"
       transform="matrix(-1.5054087,0,0,-1.5062533,85.47043,106.05669)"
       style="stroke-width:0.664085"
       inkscape:export-filename="./_images/taller-tesela-pez.png"
       inkscape:export-xdpi="300"
       inkscape:export-ydpi="300">
      <g
         id="g1397"
         transform="rotate(-90,20,40)"
         style="stroke-width:0.664085">
        <circle
           style="fill:none;stroke:#000000;stroke-width:0.265635;stroke-linecap:round;stroke-linejoin:round;stroke-opacity:1"
           id="circle1393"
           cx="20"
           cy="40"
           r="1" />
        <circle
           style="fill:#000000;fill-opacity:1;stroke:#000000;stroke-width:0.265635;stroke-linecap:round;stroke-linejoin:round;stroke-opacity:1"
           id="circle1395"
           cx="20"
           cy="39.5"
           r="0.5" />
      </g>
      <path
         id="path1399"
         style="fill:none;stroke:#000000;stroke-width:0.265635;stroke-linecap:round;stroke-linejoin:round;stroke-opacity:1"
         d="m 25.000024,25.000024 c 0,0 -5.99979,6.99991 -11.999784,9.999907 v 5.000211 c 5.999994,2.999997 11.999784,9.999907 11.999784,9.999907 l 5.000212,7.000089 7.999512,-7.000089 h 12.000301 c 0,0 -6.000319,-6.999916 -12.000301,-9.999907 V 34.999931 C 43.99973,31.99994 50.000049,25.000024 50.000049,25.000024 h -7.00009 l -8.000028,7.00009 -4.999695,-7.00009 z" />
      <path
         style="fill:none;fill-opacity:1;stroke:#000000;stroke-width:0.265635;stroke-linecap:round;stroke-linejoin:round;stroke-opacity:1"
         d="M 24,34.999998 27.999999,38 24,41"
         id="path1401"
         sodipodi:nodetypes="ccc" />
      <path
         id="path1403"
         style="fill:none;fill-opacity:1;stroke:#000000;stroke-width:0.265635;stroke-linecap:round;stroke-linejoin:round;stroke-opacity:1"
         d="M 31.846141,55.384597 27.999999,50" />
      <path
         id="path1405"
         style="fill:none;fill-opacity:1;stroke:#000000;stroke-width:0.265635;stroke-linecap:round;stroke-linejoin:round;stroke-opacity:1"
         d="M 35.538422,52.15379 34,50" />
      <path
         id="path1407"
         style="fill:none;fill-opacity:1;stroke:#000000;stroke-width:0.265635;stroke-linecap:round;stroke-linejoin:round;stroke-opacity:1"
         d="M 33.692375,53.769325 31,50" />
    </g>
    <g
       id="g1553"
       transform="matrix(-1.5054087,0,0,-1.5062533,175.47043,106.05669)"
       style="stroke-width:0.664085">
      <g
         id="g1541"
         transform="rotate(-90,20,40)"
         style="stroke-width:0.664085">
        <circle
           style="fill:none;stroke:#000000;stroke-width:0.265635;stroke-linecap:round;stroke-linejoin:round;stroke-opacity:1"
           id="circle1537"
           cx="20"
           cy="40"
           r="1" />
        <circle
           style="fill:#000000;fill-opacity:1;stroke:#000000;stroke-width:0.265635;stroke-linecap:round;stroke-linejoin:round;stroke-opacity:1"
           id="circle1539"
           cx="20"
           cy="39.5"
           r="0.5" />
      </g>
      <path
         id="path1543"
         style="fill:none;stroke:#000000;stroke-width:0.265635;stroke-linecap:round;stroke-linejoin:round;stroke-opacity:1"
         d="m 25.000024,25.000024 c 0,0 -5.99979,6.99991 -11.999784,9.999907 v 5.000211 c 5.999994,2.999997 11.999784,9.999907 11.999784,9.999907 l 5.000212,7.000089 7.999512,-7.000089 h 12.000301 c 0,0 -6.000319,-6.999916 -12.000301,-9.999907 V 34.999931 C 43.99973,31.99994 50.000049,25.000024 50.000049,25.000024 h -7.00009 l -8.000028,7.00009 -4.999695,-7.00009 z" />
      <path
         style="fill:none;fill-opacity:1;stroke:#000000;stroke-width:0.265635;stroke-linecap:round;stroke-linejoin:round;stroke-opacity:1"
         d="M 24,34.999998 27.999999,38 24,41"
         id="path1545"
         sodipodi:nodetypes="ccc" />
      <path
         id="path1547"
         style="fill:none;fill-opacity:1;stroke:#000000;stroke-width:0.265635;stroke-linecap:round;stroke-linejoin:round;stroke-opacity:1"
         d="M 31.846141,55.384597 27.999999,50" />
      <path
         id="path1549"
         style="fill:none;fill-opacity:1;stroke:#000000;stroke-width:0.265635;stroke-linecap:round;stroke-linejoin:round;stroke-opacity:1"
         d="M 35.538422,52.15379 34,50" />
      <path
         id="path1551"
         style="fill:none;fill-opacity:1;stroke:#000000;stroke-width:0.265635;stroke-linecap:round;stroke-linejoin:round;stroke-opacity:1"
         d="M 33.692375,53.769325 31,50" />
    </g>
    <g
       id="g1571"
       transform="matrix(-1.5054087,0,0,-1.5062533,130.47043,106.05669)"
       style="stroke-width:0.664085">
      <g
         id="g1559"
         transform="rotate(-90,20,40)"
         style="stroke-width:0.664085">
        <circle
           style="fill:none;stroke:#000000;stroke-width:0.265635;stroke-linecap:round;stroke-linejoin:round;stroke-opacity:1"
           id="circle1555"
           cx="20"
           cy="40"
           r="1" />
        <circle
           style="fill:#000000;fill-opacity:1;stroke:#000000;stroke-width:0.265635;stroke-linecap:round;stroke-linejoin:round;stroke-opacity:1"
           id="circle1557"
           cx="20"
           cy="39.5"
           r="0.5" />
      </g>
      <path
         id="path1561"
         style="fill:none;stroke:#000000;stroke-width:0.265635;stroke-linecap:round;stroke-linejoin:round;stroke-opacity:1"
         d="m 25.000024,25.000024 c 0,0 -5.99979,6.99991 -11.999784,9.999907 v 5.000211 c 5.999994,2.999997 11.999784,9.999907 11.999784,9.999907 l 5.000212,7.000089 7.999512,-7.000089 h 12.000301 c 0,0 -6.000319,-6.999916 -12.000301,-9.999907 V 34.999931 C 43.99973,31.99994 50.000049,25.000024 50.000049,25.000024 h -7.00009 l -8.000028,7.00009 -4.999695,-7.00009 z" />
      <path
         style="fill:none;fill-opacity:1;stroke:#000000;stroke-width:0.265635;stroke-linecap:round;stroke-linejoin:round;stroke-opacity:1"
         d="M 24,34.999998 27.999999,38 24,41"
         id="path1563"
         sodipodi:nodetypes="ccc" />
      <path
         id="path1565"
         style="fill:none;fill-opacity:1;stroke:#000000;stroke-width:0.265635;stroke-linecap:round;stroke-linejoin:round;stroke-opacity:1"
         d="M 31.846141,55.384597 27.999999,50" />
      <path
         id="path1567"
         style="fill:none;fill-opacity:1;stroke:#000000;stroke-width:0.265635;stroke-linecap:round;stroke-linejoin:round;stroke-opacity:1"
         d="M 35.538422,52.15379 34,50" />
      <path
         id="path1569"
         style="fill:none;fill-opacity:1;stroke:#000000;stroke-width:0.265635;stroke-linecap:round;stroke-linejoin:round;stroke-opacity:1"
         d="M 33.692375,53.769325 31,50" />
    </g>
    <g
       id="g3515"
       transform="matrix(-1.5054087,0,0,-1.5062533,220.47043,106.05669)"
       style="stroke-width:0.664085">
      <g
         id="g3503"
         transform="rotate(-90,20,40)"
         style="stroke-width:0.664085">
        <circle
           style="fill:none;stroke:#000000;stroke-width:0.265635;stroke-linecap:round;stroke-linejoin:round;stroke-opacity:1"
           id="circle3499"
           cx="20"
           cy="40"
           r="1" />
        <circle
           style="fill:#000000;fill-opacity:1;stroke:#000000;stroke-width:0.265635;stroke-linecap:round;stroke-linejoin:round;stroke-opacity:1"
           id="circle3501"
           cx="20"
           cy="39.5"
           r="0.5" />
      </g>
      <path
         id="path3505"
         style="fill:none;stroke:#000000;stroke-width:0.265635;stroke-linecap:round;stroke-linejoin:round;stroke-opacity:1"
         d="m 25.000024,25.000024 c 0,0 -5.99979,6.99991 -11.999784,9.999907 v 5.000211 c 5.999994,2.999997 11.999784,9.999907 11.999784,9.999907 l 5.000212,7.000089 7.999512,-7.000089 h 12.000301 c 0,0 -6.000319,-6.999916 -12.000301,-9.999907 V 34.999931 C 43.99973,31.99994 50.000049,25.000024 50.000049,25.000024 h -7.00009 l -8.000028,7.00009 -4.999695,-7.00009 z" />
      <path
         style="fill:none;fill-opacity:1;stroke:#000000;stroke-width:0.265635;stroke-linecap:round;stroke-linejoin:round;stroke-opacity:1"
         d="M 24,34.999998 27.999999,38 24,41"
         id="path3507"
         sodipodi:nodetypes="ccc" />
      <path
         id="path3509"
         style="fill:none;fill-opacity:1;stroke:#000000;stroke-width:0.265635;stroke-linecap:round;stroke-linejoin:round;stroke-opacity:1"
         d="M 31.846141,55.384597 27.999999,50" />
      <path
         id="path3511"
         style="fill:none;fill-opacity:1;stroke:#000000;stroke-width:0.265635;stroke-linecap:round;stroke-linejoin:round;stroke-opacity:1"
         d="M 35.538422,52.15379 34,50" />
      <path
         id="path3513"
         style="fill:none;fill-opacity:1;stroke:#000000;stroke-width:0.265635;stroke-linecap:round;stroke-linejoin:round;stroke-opacity:1"
         d="M 33.692375,53.769325 31,50" />
    </g>
    <text
       xml:space="preserve"
       style="font-size:3.52777px;fill:#000000;fill-opacity:1;stroke:none;stroke-width:0.4;stroke-linecap:round;stroke-linejoin:round"
       x="40.893379"
       y="287.70227"
       id="text360"><tspan
         sodipodi:role="line"
         id="tspan358"
         style="fill:#000000;fill-opacity:1;stroke:none;stroke-width:0.4"
         x="40.893379"
         y="287.70227">Licencia Creative Commons BY-SA 4.0      www.picuino.com      Versión: 5/2026</tspan></text>
    <g
       id="g3923"
       transform="translate(0,57.600384)">
      <g
         id="g3867"
         transform="matrix(-1.5054087,0,0,-1.5062533,85.47043,101.05669)"
         style="stroke-width:0.664085">
        <g
           id="g3855"
           transform="rotate(-90,20,40)"
           style="stroke-width:0.664085">
          <circle
             style="fill:none;stroke:#000000;stroke-width:0.265635;stroke-linecap:round;stroke-linejoin:round;stroke-opacity:1"
             id="circle3851"
             cx="20"
             cy="40"
             r="1" />
          <circle
             style="fill:#000000;fill-opacity:1;stroke:#000000;stroke-width:0.265635;stroke-linecap:round;stroke-linejoin:round;stroke-opacity:1"
             id="circle3853"
             cx="20"
             cy="39.5"
             r="0.5" />
        </g>
        <path
           id="path3857"
           style="fill:none;stroke:#000000;stroke-width:0.265635;stroke-linecap:round;stroke-linejoin:round;stroke-opacity:1"
           d="m 25.000024,25.000024 c 0,0 -5.99979,6.99991 -11.999784,9.999907 v 5.000211 c 5.999994,2.999997 11.999784,9.999907 11.999784,9.999907 l 5.000212,7.000089 7.999512,-7.000089 h 12.000301 c 0,0 -6.000319,-6.999916 -12.000301,-9.999907 V 34.999931 C 43.99973,31.99994 50.000049,25.000024 50.000049,25.000024 h -7.00009 l -8.000028,7.00009 -4.999695,-7.00009 z" />
        <path
           style="fill:none;fill-opacity:1;stroke:#000000;stroke-width:0.265635;stroke-linecap:round;stroke-linejoin:round;stroke-opacity:1"
           d="M 24,34.999998 27.999999,38 24,41"
           id="path3859"
           sodipodi:nodetypes="ccc" />
        <path
           id="path3861"
           style="fill:none;fill-opacity:1;stroke:#000000;stroke-width:0.265635;stroke-linecap:round;stroke-linejoin:round;stroke-opacity:1"
           d="M 31.846141,55.384597 27.999999,50" />
        <path
           id="path3863"
           style="fill:none;fill-opacity:1;stroke:#000000;stroke-width:0.265635;stroke-linecap:round;stroke-linejoin:round;stroke-opacity:1"
           d="M 35.538422,52.15379 34,50" />
        <path
           id="path3865"
           style="fill:none;fill-opacity:1;stroke:#000000;stroke-width:0.265635;stroke-linecap:round;stroke-linejoin:round;stroke-opacity:1"
           d="M 33.692375,53.769325 31,50" />
      </g>
      <g
         id="g3885"
         transform="matrix(-1.5054087,0,0,-1.5062533,175.47043,101.05669)"
         style="stroke-width:0.664085">
        <g
           id="g3873"
           transform="rotate(-90,20,40)"
           style="stroke-width:0.664085">
          <circle
             style="fill:none;stroke:#000000;stroke-width:0.265635;stroke-linecap:round;stroke-linejoin:round;stroke-opacity:1"
             id="circle3869"
             cx="20"
             cy="40"
             r="1" />
          <circle
             style="fill:#000000;fill-opacity:1;stroke:#000000;stroke-width:0.265635;stroke-linecap:round;stroke-linejoin:round;stroke-opacity:1"
             id="circle3871"
             cx="20"
             cy="39.5"
             r="0.5" />
        </g>
        <path
           id="path3875"
           style="fill:none;stroke:#000000;stroke-width:0.265635;stroke-linecap:round;stroke-linejoin:round;stroke-opacity:1"
           d="m 25.000024,25.000024 c 0,0 -5.99979,6.99991 -11.999784,9.999907 v 5.000211 c 5.999994,2.999997 11.999784,9.999907 11.999784,9.999907 l 5.000212,7.000089 7.999512,-7.000089 h 12.000301 c 0,0 -6.000319,-6.999916 -12.000301,-9.999907 V 34.999931 C 43.99973,31.99994 50.000049,25.000024 50.000049,25.000024 h -7.00009 l -8.000028,7.00009 -4.999695,-7.00009 z" />
        <path
           style="fill:none;fill-opacity:1;stroke:#000000;stroke-width:0.265635;stroke-linecap:round;stroke-linejoin:round;stroke-opacity:1"
           d="M 24,34.999998 27.999999,38 24,41"
           id="path3877"
           sodipodi:nodetypes="ccc" />
        <path
           id="path3879"
           style="fill:none;fill-opacity:1;stroke:#000000;stroke-width:0.265635;stroke-linecap:round;stroke-linejoin:round;stroke-opacity:1"
           d="M 31.846141,55.384597 27.999999,50" />
        <path
           id="path3881"
           style="fill:none;fill-opacity:1;stroke:#000000;stroke-width:0.265635;stroke-linecap:round;stroke-linejoin:round;stroke-opacity:1"
           d="M 35.538422,52.15379 34,50" />
        <path
           id="path3883"
           style="fill:none;fill-opacity:1;stroke:#000000;stroke-width:0.265635;stroke-linecap:round;stroke-linejoin:round;stroke-opacity:1"
           d="M 33.692375,53.769325 31,50" />
      </g>
      <g
         id="g3903"
         transform="matrix(-1.5054087,0,0,-1.5062533,130.47043,101.05669)"
         style="stroke-width:0.664085">
        <g
           id="g3891"
           transform="rotate(-90,20,40)"
           style="stroke-width:0.664085">
          <circle
             style="fill:none;stroke:#000000;stroke-width:0.265635;stroke-linecap:round;stroke-linejoin:round;stroke-opacity:1"
             id="circle3887"
             cx="20"
             cy="40"
             r="1" />
          <circle
             style="fill:#000000;fill-opacity:1;stroke:#000000;stroke-width:0.265635;stroke-linecap:round;stroke-linejoin:round;stroke-opacity:1"
             id="circle3889"
             cx="20"
             cy="39.5"
             r="0.5" />
        </g>
        <path
           id="path3893"
           style="fill:none;stroke:#000000;stroke-width:0.265635;stroke-linecap:round;stroke-linejoin:round;stroke-opacity:1"
           d="m 25.000024,25.000024 c 0,0 -5.99979,6.99991 -11.999784,9.999907 v 5.000211 c 5.999994,2.999997 11.999784,9.999907 11.999784,9.999907 l 5.000212,7.000089 7.999512,-7.000089 h 12.000301 c 0,0 -6.000319,-6.999916 -12.000301,-9.999907 V 34.999931 C 43.99973,31.99994 50.000049,25.000024 50.000049,25.000024 h -7.00009 l -8.000028,7.00009 -4.999695,-7.00009 z" />
        <path
           style="fill:none;fill-opacity:1;stroke:#000000;stroke-width:0.265635;stroke-linecap:round;stroke-linejoin:round;stroke-opacity:1"
           d="M 24,34.999998 27.999999,38 24,41"
           id="path3895"
           sodipodi:nodetypes="ccc" />
        <path
           id="path3897"
           style="fill:none;fill-opacity:1;stroke:#000000;stroke-width:0.265635;stroke-linecap:round;stroke-linejoin:round;stroke-opacity:1"
           d="M 31.846141,55.384597 27.999999,50" />
        <path
           id="path3899"
           style="fill:none;fill-opacity:1;stroke:#000000;stroke-width:0.265635;stroke-linecap:round;stroke-linejoin:round;stroke-opacity:1"
           d="M 35.538422,52.15379 34,50" />
        <path
           id="path3901"
           style="fill:none;fill-opacity:1;stroke:#000000;stroke-width:0.265635;stroke-linecap:round;stroke-linejoin:round;stroke-opacity:1"
           d="M 33.692375,53.769325 31,50" />
      </g>
      <g
         id="g3921"
         transform="matrix(-1.5054087,0,0,-1.5062533,220.47043,101.05669)"
         style="stroke-width:0.664085">
        <g
           id="g3909"
           transform="rotate(-90,20,40)"
           style="stroke-width:0.664085">
          <circle
             style="fill:none;stroke:#000000;stroke-width:0.265635;stroke-linecap:round;stroke-linejoin:round;stroke-opacity:1"
             id="circle3905"
             cx="20"
             cy="40"
             r="1" />
          <circle
             style="fill:#000000;fill-opacity:1;stroke:#000000;stroke-width:0.265635;stroke-linecap:round;stroke-linejoin:round;stroke-opacity:1"
             id="circle3907"
             cx="20"
             cy="39.5"
             r="0.5" />
        </g>
        <path
           id="path3911"
           style="fill:none;stroke:#000000;stroke-width:0.265635;stroke-linecap:round;stroke-linejoin:round;stroke-opacity:1"
           d="m 25.000024,25.000024 c 0,0 -5.99979,6.99991 -11.999784,9.999907 v 5.000211 c 5.999994,2.999997 11.999784,9.999907 11.999784,9.999907 l 5.000212,7.000089 7.999512,-7.000089 h 12.000301 c 0,0 -6.000319,-6.999916 -12.000301,-9.999907 V 34.999931 C 43.99973,31.99994 50.000049,25.000024 50.000049,25.000024 h -7.00009 l -8.000028,7.00009 -4.999695,-7.00009 z" />
        <path
           style="fill:none;fill-opacity:1;stroke:#000000;stroke-width:0.265635;stroke-linecap:round;stroke-linejoin:round;stroke-opacity:1"
           d="M 24,34.999998 27.999999,38 24,41"
           id="path3913"
           sodipodi:nodetypes="ccc" />
        <path
           id="path3915"
           style="fill:none;fill-opacity:1;stroke:#000000;stroke-width:0.265635;stroke-linecap:round;stroke-linejoin:round;stroke-opacity:1"
           d="M 31.846141,55.384597 27.999999,50" />
        <path
           id="path3917"
           style="fill:none;fill-opacity:1;stroke:#000000;stroke-width:0.265635;stroke-linecap:round;stroke-linejoin:round;stroke-opacity:1"
           d="M 35.538422,52.15379 34,50" />
        <path
           id="path3919"
           style="fill:none;fill-opacity:1;stroke:#000000;stroke-width:0.265635;stroke-linecap:round;stroke-linejoin:round;stroke-opacity:1"
           d="M 33.692375,53.769325 31,50" />
      </g>
    </g>
    <g
       id="g3997"
       transform="translate(0,110.20076)">
      <g
         id="g3941"
         transform="matrix(-1.5054087,0,0,-1.5062533,85.47043,101.05669)"
         style="stroke-width:0.664085">
        <g
           id="g3929"
           transform="rotate(-90,20,40)"
           style="stroke-width:0.664085">
          <circle
             style="fill:none;stroke:#000000;stroke-width:0.265635;stroke-linecap:round;stroke-linejoin:round;stroke-opacity:1"
             id="circle3925"
             cx="20"
             cy="40"
             r="1" />
          <circle
             style="fill:#000000;fill-opacity:1;stroke:#000000;stroke-width:0.265635;stroke-linecap:round;stroke-linejoin:round;stroke-opacity:1"
             id="circle3927"
             cx="20"
             cy="39.5"
             r="0.5" />
        </g>
        <path
           id="path3931"
           style="fill:none;stroke:#000000;stroke-width:0.265635;stroke-linecap:round;stroke-linejoin:round;stroke-opacity:1"
           d="m 25.000024,25.000024 c 0,0 -5.99979,6.99991 -11.999784,9.999907 v 5.000211 c 5.999994,2.999997 11.999784,9.999907 11.999784,9.999907 l 5.000212,7.000089 7.999512,-7.000089 h 12.000301 c 0,0 -6.000319,-6.999916 -12.000301,-9.999907 V 34.999931 C 43.99973,31.99994 50.000049,25.000024 50.000049,25.000024 h -7.00009 l -8.000028,7.00009 -4.999695,-7.00009 z" />
        <path
           style="fill:none;fill-opacity:1;stroke:#000000;stroke-width:0.265635;stroke-linecap:round;stroke-linejoin:round;stroke-opacity:1"
           d="M 24,34.999998 27.999999,38 24,41"
           id="path3933"
           sodipodi:nodetypes="ccc" />
        <path
           id="path3935"
           style="fill:none;fill-opacity:1;stroke:#000000;stroke-width:0.265635;stroke-linecap:round;stroke-linejoin:round;stroke-opacity:1"
           d="M 31.846141,55.384597 27.999999,50" />
        <path
           id="path3937"
           style="fill:none;fill-opacity:1;stroke:#000000;stroke-width:0.265635;stroke-linecap:round;stroke-linejoin:round;stroke-opacity:1"
           d="M 35.538422,52.15379 34,50" />
        <path
           id="path3939"
           style="fill:none;fill-opacity:1;stroke:#000000;stroke-width:0.265635;stroke-linecap:round;stroke-linejoin:round;stroke-opacity:1"
           d="M 33.692375,53.769325 31,50" />
      </g>
      <g
         id="g3959"
         transform="matrix(-1.5054087,0,0,-1.5062533,175.47043,101.05669)"
         style="stroke-width:0.664085">
        <g
           id="g3947"
           transform="rotate(-90,20,40)"
           style="stroke-width:0.664085">
          <circle
             style="fill:none;stroke:#000000;stroke-width:0.265635;stroke-linecap:round;stroke-linejoin:round;stroke-opacity:1"
             id="circle3943"
             cx="20"
             cy="40"
             r="1" />
          <circle
             style="fill:#000000;fill-opacity:1;stroke:#000000;stroke-width:0.265635;stroke-linecap:round;stroke-linejoin:round;stroke-opacity:1"
             id="circle3945"
             cx="20"
             cy="39.5"
             r="0.5" />
        </g>
        <path
           id="path3949"
           style="fill:none;stroke:#000000;stroke-width:0.265635;stroke-linecap:round;stroke-linejoin:round;stroke-opacity:1"
           d="m 25.000024,25.000024 c 0,0 -5.99979,6.99991 -11.999784,9.999907 v 5.000211 c 5.999994,2.999997 11.999784,9.999907 11.999784,9.999907 l 5.000212,7.000089 7.999512,-7.000089 h 12.000301 c 0,0 -6.000319,-6.999916 -12.000301,-9.999907 V 34.999931 C 43.99973,31.99994 50.000049,25.000024 50.000049,25.000024 h -7.00009 l -8.000028,7.00009 -4.999695,-7.00009 z" />
        <path
           style="fill:none;fill-opacity:1;stroke:#000000;stroke-width:0.265635;stroke-linecap:round;stroke-linejoin:round;stroke-opacity:1"
           d="M 24,34.999998 27.999999,38 24,41"
           id="path3951"
           sodipodi:nodetypes="ccc" />
        <path
           id="path3953"
           style="fill:none;fill-opacity:1;stroke:#000000;stroke-width:0.265635;stroke-linecap:round;stroke-linejoin:round;stroke-opacity:1"
           d="M 31.846141,55.384597 27.999999,50" />
        <path
           id="path3955"
           style="fill:none;fill-opacity:1;stroke:#000000;stroke-width:0.265635;stroke-linecap:round;stroke-linejoin:round;stroke-opacity:1"
           d="M 35.538422,52.15379 34,50" />
        <path
           id="path3957"
           style="fill:none;fill-opacity:1;stroke:#000000;stroke-width:0.265635;stroke-linecap:round;stroke-linejoin:round;stroke-opacity:1"
           d="M 33.692375,53.769325 31,50" />
      </g>
      <g
         id="g3977"
         transform="matrix(-1.5054087,0,0,-1.5062533,130.47043,101.05669)"
         style="stroke-width:0.664085">
        <g
           id="g3965"
           transform="rotate(-90,20,40)"
           style="stroke-width:0.664085">
          <circle
             style="fill:none;stroke:#000000;stroke-width:0.265635;stroke-linecap:round;stroke-linejoin:round;stroke-opacity:1"
             id="circle3961"
             cx="20"
             cy="40"
             r="1" />
          <circle
             style="fill:#000000;fill-opacity:1;stroke:#000000;stroke-width:0.265635;stroke-linecap:round;stroke-linejoin:round;stroke-opacity:1"
             id="circle3963"
             cx="20"
             cy="39.5"
             r="0.5" />
        </g>
        <path
           id="path3967"
           style="fill:none;stroke:#000000;stroke-width:0.265635;stroke-linecap:round;stroke-linejoin:round;stroke-opacity:1"
           d="m 25.000024,25.000024 c 0,0 -5.99979,6.99991 -11.999784,9.999907 v 5.000211 c 5.999994,2.999997 11.999784,9.999907 11.999784,9.999907 l 5.000212,7.000089 7.999512,-7.000089 h 12.000301 c 0,0 -6.000319,-6.999916 -12.000301,-9.999907 V 34.999931 C 43.99973,31.99994 50.000049,25.000024 50.000049,25.000024 h -7.00009 l -8.000028,7.00009 -4.999695,-7.00009 z" />
        <path
           style="fill:none;fill-opacity:1;stroke:#000000;stroke-width:0.265635;stroke-linecap:round;stroke-linejoin:round;stroke-opacity:1"
           d="M 24,34.999998 27.999999,38 24,41"
           id="path3969"
           sodipodi:nodetypes="ccc" />
        <path
           id="path3971"
           style="fill:none;fill-opacity:1;stroke:#000000;stroke-width:0.265635;stroke-linecap:round;stroke-linejoin:round;stroke-opacity:1"
           d="M 31.846141,55.384597 27.999999,50" />
        <path
           id="path3973"
           style="fill:none;fill-opacity:1;stroke:#000000;stroke-width:0.265635;stroke-linecap:round;stroke-linejoin:round;stroke-opacity:1"
           d="M 35.538422,52.15379 34,50" />
        <path
           id="path3975"
           style="fill:none;fill-opacity:1;stroke:#000000;stroke-width:0.265635;stroke-linecap:round;stroke-linejoin:round;stroke-opacity:1"
           d="M 33.692375,53.769325 31,50" />
      </g>
      <g
         id="g3995"
         transform="matrix(-1.5054087,0,0,-1.5062533,220.47043,101.05669)"
         style="stroke-width:0.664085">
        <g
           id="g3983"
           transform="rotate(-90,20,40)"
           style="stroke-width:0.664085">
          <circle
             style="fill:none;stroke:#000000;stroke-width:0.265635;stroke-linecap:round;stroke-linejoin:round;stroke-opacity:1"
             id="circle3979"
             cx="20"
             cy="40"
             r="1" />
          <circle
             style="fill:#000000;fill-opacity:1;stroke:#000000;stroke-width:0.265635;stroke-linecap:round;stroke-linejoin:round;stroke-opacity:1"
             id="circle3981"
             cx="20"
             cy="39.5"
             r="0.5" />
        </g>
        <path
           id="path3985"
           style="fill:none;stroke:#000000;stroke-width:0.265635;stroke-linecap:round;stroke-linejoin:round;stroke-opacity:1"
           d="m 25.000024,25.000024 c 0,0 -5.99979,6.99991 -11.999784,9.999907 v 5.000211 c 5.999994,2.999997 11.999784,9.999907 11.999784,9.999907 l 5.000212,7.000089 7.999512,-7.000089 h 12.000301 c 0,0 -6.000319,-6.999916 -12.000301,-9.999907 V 34.999931 C 43.99973,31.99994 50.000049,25.000024 50.000049,25.000024 h -7.00009 l -8.000028,7.00009 -4.999695,-7.00009 z" />
        <path
           style="fill:none;fill-opacity:1;stroke:#000000;stroke-width:0.265635;stroke-linecap:round;stroke-linejoin:round;stroke-opacity:1"
           d="M 24,34.999998 27.999999,38 24,41"
           id="path3987"
           sodipodi:nodetypes="ccc" />
        <path
           id="path3989"
           style="fill:none;fill-opacity:1;stroke:#000000;stroke-width:0.265635;stroke-linecap:round;stroke-linejoin:round;stroke-opacity:1"
           d="M 31.846141,55.384597 27.999999,50" />
        <path
           id="path3991"
           style="fill:none;fill-opacity:1;stroke:#000000;stroke-width:0.265635;stroke-linecap:round;stroke-linejoin:round;stroke-opacity:1"
           d="M 35.538422,52.15379 34,50" />
        <path
           id="path3993"
           style="fill:none;fill-opacity:1;stroke:#000000;stroke-width:0.265635;stroke-linecap:round;stroke-linejoin:round;stroke-opacity:1"
           d="M 33.692375,53.769325 31,50" />
      </g>
    </g>
    <g
       id="g4071"
       transform="translate(0,162.80114)">
      <g
         id="g4015"
         transform="matrix(-1.5054087,0,0,-1.5062533,85.47043,101.05669)"
         style="stroke-width:0.664085">
        <g
           id="g4003"
           transform="rotate(-90,20,40)"
           style="stroke-width:0.664085">
          <circle
             style="fill:none;stroke:#000000;stroke-width:0.265635;stroke-linecap:round;stroke-linejoin:round;stroke-opacity:1"
             id="circle3999"
             cx="20"
             cy="40"
             r="1" />
          <circle
             style="fill:#000000;fill-opacity:1;stroke:#000000;stroke-width:0.265635;stroke-linecap:round;stroke-linejoin:round;stroke-opacity:1"
             id="circle4001"
             cx="20"
             cy="39.5"
             r="0.5" />
        </g>
        <path
           id="path4005"
           style="fill:none;stroke:#000000;stroke-width:0.265635;stroke-linecap:round;stroke-linejoin:round;stroke-opacity:1"
           d="m 25.000024,25.000024 c 0,0 -5.99979,6.99991 -11.999784,9.999907 v 5.000211 c 5.999994,2.999997 11.999784,9.999907 11.999784,9.999907 l 5.000212,7.000089 7.999512,-7.000089 h 12.000301 c 0,0 -6.000319,-6.999916 -12.000301,-9.999907 V 34.999931 C 43.99973,31.99994 50.000049,25.000024 50.000049,25.000024 h -7.00009 l -8.000028,7.00009 -4.999695,-7.00009 z" />
        <path
           style="fill:none;fill-opacity:1;stroke:#000000;stroke-width:0.265635;stroke-linecap:round;stroke-linejoin:round;stroke-opacity:1"
           d="M 24,34.999998 27.999999,38 24,41"
           id="path4007"
           sodipodi:nodetypes="ccc" />
        <path
           id="path4009"
           style="fill:none;fill-opacity:1;stroke:#000000;stroke-width:0.265635;stroke-linecap:round;stroke-linejoin:round;stroke-opacity:1"
           d="M 31.846141,55.384597 27.999999,50" />
        <path
           id="path4011"
           style="fill:none;fill-opacity:1;stroke:#000000;stroke-width:0.265635;stroke-linecap:round;stroke-linejoin:round;stroke-opacity:1"
           d="M 35.538422,52.15379 34,50" />
        <path
           id="path4013"
           style="fill:none;fill-opacity:1;stroke:#000000;stroke-width:0.265635;stroke-linecap:round;stroke-linejoin:round;stroke-opacity:1"
           d="M 33.692375,53.769325 31,50" />
      </g>
      <g
         id="g4033"
         transform="matrix(-1.5054087,0,0,-1.5062533,175.47043,101.05669)"
         style="stroke-width:0.664085">
        <g
           id="g4021"
           transform="rotate(-90,20,40)"
           style="stroke-width:0.664085">
          <circle
             style="fill:none;stroke:#000000;stroke-width:0.265635;stroke-linecap:round;stroke-linejoin:round;stroke-opacity:1"
             id="circle4017"
             cx="20"
             cy="40"
             r="1" />
          <circle
             style="fill:#000000;fill-opacity:1;stroke:#000000;stroke-width:0.265635;stroke-linecap:round;stroke-linejoin:round;stroke-opacity:1"
             id="circle4019"
             cx="20"
             cy="39.5"
             r="0.5" />
        </g>
        <path
           id="path4023"
           style="fill:none;stroke:#000000;stroke-width:0.265635;stroke-linecap:round;stroke-linejoin:round;stroke-opacity:1"
           d="m 25.000024,25.000024 c 0,0 -5.99979,6.99991 -11.999784,9.999907 v 5.000211 c 5.999994,2.999997 11.999784,9.999907 11.999784,9.999907 l 5.000212,7.000089 7.999512,-7.000089 h 12.000301 c 0,0 -6.000319,-6.999916 -12.000301,-9.999907 V 34.999931 C 43.99973,31.99994 50.000049,25.000024 50.000049,25.000024 h -7.00009 l -8.000028,7.00009 -4.999695,-7.00009 z" />
        <path
           style="fill:none;fill-opacity:1;stroke:#000000;stroke-width:0.265635;stroke-linecap:round;stroke-linejoin:round;stroke-opacity:1"
           d="M 24,34.999998 27.999999,38 24,41"
           id="path4025"
           sodipodi:nodetypes="ccc" />
        <path
           id="path4027"
           style="fill:none;fill-opacity:1;stroke:#000000;stroke-width:0.265635;stroke-linecap:round;stroke-linejoin:round;stroke-opacity:1"
           d="M 31.846141,55.384597 27.999999,50" />
        <path
           id="path4029"
           style="fill:none;fill-opacity:1;stroke:#000000;stroke-width:0.265635;stroke-linecap:round;stroke-linejoin:round;stroke-opacity:1"
           d="M 35.538422,52.15379 34,50" />
        <path
           id="path4031"
           style="fill:none;fill-opacity:1;stroke:#000000;stroke-width:0.265635;stroke-linecap:round;stroke-linejoin:round;stroke-opacity:1"
           d="M 33.692375,53.769325 31,50" />
      </g>
      <g
         id="g4051"
         transform="matrix(-1.5054087,0,0,-1.5062533,130.47043,101.05669)"
         style="stroke-width:0.664085">
        <g
           id="g4039"
           transform="rotate(-90,20,40)"
           style="stroke-width:0.664085">
          <circle
             style="fill:none;stroke:#000000;stroke-width:0.265635;stroke-linecap:round;stroke-linejoin:round;stroke-opacity:1"
             id="circle4035"
             cx="20"
             cy="40"
             r="1" />
          <circle
             style="fill:#000000;fill-opacity:1;stroke:#000000;stroke-width:0.265635;stroke-linecap:round;stroke-linejoin:round;stroke-opacity:1"
             id="circle4037"
             cx="20"
             cy="39.5"
             r="0.5" />
        </g>
        <path
           id="path4041"
           style="fill:none;stroke:#000000;stroke-width:0.265635;stroke-linecap:round;stroke-linejoin:round;stroke-opacity:1"
           d="m 25.000024,25.000024 c 0,0 -5.99979,6.99991 -11.999784,9.999907 v 5.000211 c 5.999994,2.999997 11.999784,9.999907 11.999784,9.999907 l 5.000212,7.000089 7.999512,-7.000089 h 12.000301 c 0,0 -6.000319,-6.999916 -12.000301,-9.999907 V 34.999931 C 43.99973,31.99994 50.000049,25.000024 50.000049,25.000024 h -7.00009 l -8.000028,7.00009 -4.999695,-7.00009 z" />
        <path
           style="fill:none;fill-opacity:1;stroke:#000000;stroke-width:0.265635;stroke-linecap:round;stroke-linejoin:round;stroke-opacity:1"
           d="M 24,34.999998 27.999999,38 24,41"
           id="path4043"
           sodipodi:nodetypes="ccc" />
        <path
           id="path4045"
           style="fill:none;fill-opacity:1;stroke:#000000;stroke-width:0.265635;stroke-linecap:round;stroke-linejoin:round;stroke-opacity:1"
           d="M 31.846141,55.384597 27.999999,50" />
        <path
           id="path4047"
           style="fill:none;fill-opacity:1;stroke:#000000;stroke-width:0.265635;stroke-linecap:round;stroke-linejoin:round;stroke-opacity:1"
           d="M 35.538422,52.15379 34,50" />
        <path
           id="path4049"
           style="fill:none;fill-opacity:1;stroke:#000000;stroke-width:0.265635;stroke-linecap:round;stroke-linejoin:round;stroke-opacity:1"
           d="M 33.692375,53.769325 31,50" />
      </g>
      <g
         id="g4069"
         transform="matrix(-1.5054087,0,0,-1.5062533,220.47043,101.05669)"
         style="stroke-width:0.664085">
        <g
           id="g4057"
           transform="rotate(-90,20,40)"
           style="stroke-width:0.664085">
          <circle
             style="fill:none;stroke:#000000;stroke-width:0.265635;stroke-linecap:round;stroke-linejoin:round;stroke-opacity:1"
             id="circle4053"
             cx="20"
             cy="40"
             r="1" />
          <circle
             style="fill:#000000;fill-opacity:1;stroke:#000000;stroke-width:0.265635;stroke-linecap:round;stroke-linejoin:round;stroke-opacity:1"
             id="circle4055"
             cx="20"
             cy="39.5"
             r="0.5" />
        </g>
        <path
           id="path4059"
           style="fill:none;stroke:#000000;stroke-width:0.265635;stroke-linecap:round;stroke-linejoin:round;stroke-opacity:1"
           d="m 25.000024,25.000024 c 0,0 -5.99979,6.99991 -11.999784,9.999907 v 5.000211 c 5.999994,2.999997 11.999784,9.999907 11.999784,9.999907 l 5.000212,7.000089 7.999512,-7.000089 h 12.000301 c 0,0 -6.000319,-6.999916 -12.000301,-9.999907 V 34.999931 C 43.99973,31.99994 50.000049,25.000024 50.000049,25.000024 h -7.00009 l -8.000028,7.00009 -4.999695,-7.00009 z" />
        <path
           style="fill:none;fill-opacity:1;stroke:#000000;stroke-width:0.265635;stroke-linecap:round;stroke-linejoin:round;stroke-opacity:1"
           d="M 24,34.999998 27.999999,38 24,41"
           id="path4061"
           sodipodi:nodetypes="ccc" />
        <path
           id="path4063"
           style="fill:none;fill-opacity:1;stroke:#000000;stroke-width:0.265635;stroke-linecap:round;stroke-linejoin:round;stroke-opacity:1"
           d="M 31.846141,55.384597 27.999999,50" />
        <path
           id="path4065"
           style="fill:none;fill-opacity:1;stroke:#000000;stroke-width:0.265635;stroke-linecap:round;stroke-linejoin:round;stroke-opacity:1"
           d="M 35.538422,52.15379 34,50" />
        <path
           id="path4067"
           style="fill:none;fill-opacity:1;stroke:#000000;stroke-width:0.265635;stroke-linecap:round;stroke-linejoin:round;stroke-opacity:1"
           d="M 33.692375,53.769325 31,50" />
      </g>
    </g>
    <g
       id="g4145"
       transform="translate(0,215.40153)">
      <g
         id="g4089"
         transform="matrix(-1.5054087,0,0,-1.5062533,85.47043,101.05669)"
         style="stroke-width:0.664085">
        <g
           id="g4077"
           transform="rotate(-90,20,40)"
           style="stroke-width:0.664085">
          <circle
             style="fill:none;stroke:#000000;stroke-width:0.265635;stroke-linecap:round;stroke-linejoin:round;stroke-opacity:1"
             id="circle4073"
             cx="20"
             cy="40"
             r="1" />
          <circle
             style="fill:#000000;fill-opacity:1;stroke:#000000;stroke-width:0.265635;stroke-linecap:round;stroke-linejoin:round;stroke-opacity:1"
             id="circle4075"
             cx="20"
             cy="39.5"
             r="0.5" />
        </g>
        <path
           id="path4079"
           style="fill:none;stroke:#000000;stroke-width:0.265635;stroke-linecap:round;stroke-linejoin:round;stroke-opacity:1"
           d="m 25.000024,25.000024 c 0,0 -5.99979,6.99991 -11.999784,9.999907 v 5.000211 c 5.999994,2.999997 11.999784,9.999907 11.999784,9.999907 l 5.000212,7.000089 7.999512,-7.000089 h 12.000301 c 0,0 -6.000319,-6.999916 -12.000301,-9.999907 V 34.999931 C 43.99973,31.99994 50.000049,25.000024 50.000049,25.000024 h -7.00009 l -8.000028,7.00009 -4.999695,-7.00009 z" />
        <path
           style="fill:none;fill-opacity:1;stroke:#000000;stroke-width:0.265635;stroke-linecap:round;stroke-linejoin:round;stroke-opacity:1"
           d="M 24,34.999998 27.999999,38 24,41"
           id="path4081"
           sodipodi:nodetypes="ccc" />
        <path
           id="path4083"
           style="fill:none;fill-opacity:1;stroke:#000000;stroke-width:0.265635;stroke-linecap:round;stroke-linejoin:round;stroke-opacity:1"
           d="M 31.846141,55.384597 27.999999,50" />
        <path
           id="path4085"
           style="fill:none;fill-opacity:1;stroke:#000000;stroke-width:0.265635;stroke-linecap:round;stroke-linejoin:round;stroke-opacity:1"
           d="M 35.538422,52.15379 34,50" />
        <path
           id="path4087"
           style="fill:none;fill-opacity:1;stroke:#000000;stroke-width:0.265635;stroke-linecap:round;stroke-linejoin:round;stroke-opacity:1"
           d="M 33.692375,53.769325 31,50" />
      </g>
      <g
         id="g4107"
         transform="matrix(-1.5054087,0,0,-1.5062533,175.47043,101.05669)"
         style="stroke-width:0.664085">
        <g
           id="g4095"
           transform="rotate(-90,20,40)"
           style="stroke-width:0.664085">
          <circle
             style="fill:none;stroke:#000000;stroke-width:0.265635;stroke-linecap:round;stroke-linejoin:round;stroke-opacity:1"
             id="circle4091"
             cx="20"
             cy="40"
             r="1" />
          <circle
             style="fill:#000000;fill-opacity:1;stroke:#000000;stroke-width:0.265635;stroke-linecap:round;stroke-linejoin:round;stroke-opacity:1"
             id="circle4093"
             cx="20"
             cy="39.5"
             r="0.5" />
        </g>
        <path
           id="path4097"
           style="fill:none;stroke:#000000;stroke-width:0.265635;stroke-linecap:round;stroke-linejoin:round;stroke-opacity:1"
           d="m 25.000024,25.000024 c 0,0 -5.99979,6.99991 -11.999784,9.999907 v 5.000211 c 5.999994,2.999997 11.999784,9.999907 11.999784,9.999907 l 5.000212,7.000089 7.999512,-7.000089 h 12.000301 c 0,0 -6.000319,-6.999916 -12.000301,-9.999907 V 34.999931 C 43.99973,31.99994 50.000049,25.000024 50.000049,25.000024 h -7.00009 l -8.000028,7.00009 -4.999695,-7.00009 z" />
        <path
           style="fill:none;fill-opacity:1;stroke:#000000;stroke-width:0.265635;stroke-linecap:round;stroke-linejoin:round;stroke-opacity:1"
           d="M 24,34.999998 27.999999,38 24,41"
           id="path4099"
           sodipodi:nodetypes="ccc" />
        <path
           id="path4101"
           style="fill:none;fill-opacity:1;stroke:#000000;stroke-width:0.265635;stroke-linecap:round;stroke-linejoin:round;stroke-opacity:1"
           d="M 31.846141,55.384597 27.999999,50" />
        <path
           id="path4103"
           style="fill:none;fill-opacity:1;stroke:#000000;stroke-width:0.265635;stroke-linecap:round;stroke-linejoin:round;stroke-opacity:1"
           d="M 35.538422,52.15379 34,50" />
        <path
           id="path4105"
           style="fill:none;fill-opacity:1;stroke:#000000;stroke-width:0.265635;stroke-linecap:round;stroke-linejoin:round;stroke-opacity:1"
           d="M 33.692375,53.769325 31,50" />
      </g>
      <g
         id="g4125"
         transform="matrix(-1.5054087,0,0,-1.5062533,130.47043,101.05669)"
         style="stroke-width:0.664085">
        <g
           id="g4113"
           transform="rotate(-90,20,40)"
           style="stroke-width:0.664085">
          <circle
             style="fill:none;stroke:#000000;stroke-width:0.265635;stroke-linecap:round;stroke-linejoin:round;stroke-opacity:1"
             id="circle4109"
             cx="20"
             cy="40"
             r="1" />
          <circle
             style="fill:#000000;fill-opacity:1;stroke:#000000;stroke-width:0.265635;stroke-linecap:round;stroke-linejoin:round;stroke-opacity:1"
             id="circle4111"
             cx="20"
             cy="39.5"
             r="0.5" />
        </g>
        <path
           id="path4115"
           style="fill:none;stroke:#000000;stroke-width:0.265635;stroke-linecap:round;stroke-linejoin:round;stroke-opacity:1"
           d="m 25.000024,25.000024 c 0,0 -5.99979,6.99991 -11.999784,9.999907 v 5.000211 c 5.999994,2.999997 11.999784,9.999907 11.999784,9.999907 l 5.000212,7.000089 7.999512,-7.000089 h 12.000301 c 0,0 -6.000319,-6.999916 -12.000301,-9.999907 V 34.999931 C 43.99973,31.99994 50.000049,25.000024 50.000049,25.000024 h -7.00009 l -8.000028,7.00009 -4.999695,-7.00009 z" />
        <path
           style="fill:none;fill-opacity:1;stroke:#000000;stroke-width:0.265635;stroke-linecap:round;stroke-linejoin:round;stroke-opacity:1"
           d="M 24,34.999998 27.999999,38 24,41"
           id="path4117"
           sodipodi:nodetypes="ccc" />
        <path
           id="path4119"
           style="fill:none;fill-opacity:1;stroke:#000000;stroke-width:0.265635;stroke-linecap:round;stroke-linejoin:round;stroke-opacity:1"
           d="M 31.846141,55.384597 27.999999,50" />
        <path
           id="path4121"
           style="fill:none;fill-opacity:1;stroke:#000000;stroke-width:0.265635;stroke-linecap:round;stroke-linejoin:round;stroke-opacity:1"
           d="M 35.538422,52.15379 34,50" />
        <path
           id="path4123"
           style="fill:none;fill-opacity:1;stroke:#000000;stroke-width:0.265635;stroke-linecap:round;stroke-linejoin:round;stroke-opacity:1"
           d="M 33.692375,53.769325 31,50" />
      </g>
      <g
         id="g4143"
         transform="matrix(-1.5054087,0,0,-1.5062533,220.47043,101.05669)"
         style="stroke-width:0.664085">
        <g
           id="g4131"
           transform="rotate(-90,20,40)"
           style="stroke-width:0.664085">
          <circle
             style="fill:none;stroke:#000000;stroke-width:0.265635;stroke-linecap:round;stroke-linejoin:round;stroke-opacity:1"
             id="circle4127"
             cx="20"
             cy="40"
             r="1" />
          <circle
             style="fill:#000000;fill-opacity:1;stroke:#000000;stroke-width:0.265635;stroke-linecap:round;stroke-linejoin:round;stroke-opacity:1"
             id="circle4129"
             cx="20"
             cy="39.5"
             r="0.5" />
        </g>
        <path
           id="path4133"
           style="fill:none;stroke:#000000;stroke-width:0.265635;stroke-linecap:round;stroke-linejoin:round;stroke-opacity:1"
           d="m 25.000024,25.000024 c 0,0 -5.99979,6.99991 -11.999784,9.999907 v 5.000211 c 5.999994,2.999997 11.999784,9.999907 11.999784,9.999907 l 5.000212,7.000089 7.999512,-7.000089 h 12.000301 c 0,0 -6.000319,-6.999916 -12.000301,-9.999907 V 34.999931 C 43.99973,31.99994 50.000049,25.000024 50.000049,25.000024 h -7.00009 l -8.000028,7.00009 -4.999695,-7.00009 z" />
        <path
           style="fill:none;fill-opacity:1;stroke:#000000;stroke-width:0.265635;stroke-linecap:round;stroke-linejoin:round;stroke-opacity:1"
           d="M 24,34.999998 27.999999,38 24,41"
           id="path4135"
           sodipodi:nodetypes="ccc" />
        <path
           id="path4137"
           style="fill:none;fill-opacity:1;stroke:#000000;stroke-width:0.265635;stroke-linecap:round;stroke-linejoin:round;stroke-opacity:1"
           d="M 31.846141,55.384597 27.999999,50" />
        <path
           id="path4139"
           style="fill:none;fill-opacity:1;stroke:#000000;stroke-width:0.265635;stroke-linecap:round;stroke-linejoin:round;stroke-opacity:1"
           d="M 35.538422,52.15379 34,50" />
        <path
           id="path4141"
           style="fill:none;fill-opacity:1;stroke:#000000;stroke-width:0.265635;stroke-linecap:round;stroke-linejoin:round;stroke-opacity:1"
           d="M 33.692375,53.769325 31,50" />
      </g>
    </g>
    <text
       xml:space="preserve"
       style="font-weight:bold;font-size:4.9389px;font-family:sans-serif;-inkscape-font-specification:'sans-serif Bold';text-align:center;text-anchor:middle;fill:#000000;stroke-width:0.4;stroke-linecap:round;stroke-linejoin:round"
       x="105.01235"
       y="13.575764"
       id="text4149"><tspan
         sodipodi:role="line"
         id="tspan4147"
         style="stroke-width:0.4"
         x="105.01235"
         y="13.575764">TESELAS DE PECES</tspan></text>
  </g>
  <metadata
     id="metadata1622">
    <rdf:RDF>
      <cc:Work
         rdf:about="">
        <cc:license
           rdf:resource="http://creativecommons.org/licenses/by-sa/4.0/" />
        <dc:title>Teselas de peces</dc:title>
        <dc:date>30/04/2026</dc:date>
        <dc:creator>
          <cc:Agent>
            <dc:title>Carlos Félix Pardo Martín</dc:title>
          </cc:Agent>
        </dc:creator>
        <dc:rights>
          <cc:Agent>
            <dc:title>Licencia Creative Commons BY-SA 4.0</dc:title>
          </cc:Agent>
        </dc:rights>
        <dc:publisher>
          <cc:Agent>
            <dc:title>www.picuino.com</dc:title>
          </cc:Agent>
        </dc:publisher>
      </cc:Work>
      <cc:License
         rdf:about="http://creativecommons.org/licenses/by-sa/4.0/">
        <cc:permits
           rdf:resource="http://creativecommons.org/ns#Reproduction" />
        <cc:permits
           rdf:resource="http://creativecommons.org/ns#Distribution" />
        <cc:requires
           rdf:resource="http://creativecommons.org/ns#Notice" />
        <cc:requires
           rdf:resource="http://creativecommons.org/ns#Attribution" />
        <cc:permits
           rdf:resource="http://creativecommons.org/ns#DerivativeWorks" />
        <cc:requires
           rdf:resource="http://creativecommons.org/ns#ShareAlike" />
      </cc:License>
    </rdf:RDF>
  </metadata>
</svg>
