<?xml version="1.0" encoding="UTF-8" standalone="no"?>
<svg
   width="210mm"
   height="297mm"
   viewBox="0 0 210 297"
   version="1.1"
   id="svg8"
   inkscape:version="1.2.1 (9c6d41e410, 2022-07-14)"
   sodipodi:docname="taller-figura-hat-01.svg"
   inkscape:export-filename="dibujo-isometrica-piezas.png"
   inkscape:export-xdpi="600.02155"
   inkscape:export-ydpi="600.02155"
   xmlns:inkscape="http://www.inkscape.org/namespaces/inkscape"
   xmlns:sodipodi="http://sodipodi.sourceforge.net/DTD/sodipodi-0.dtd"
   xmlns="http://www.w3.org/2000/svg"
   xmlns:svg="http://www.w3.org/2000/svg"
   xmlns:rdf="http://www.w3.org/1999/02/22-rdf-syntax-ns#"
   xmlns:cc="http://creativecommons.org/ns#"
   xmlns:dc="http://purl.org/dc/elements/1.1/">
  <title
     id="title2228">Figura en 3 dimensiones</title>
  <defs
     id="defs2">
    <inkscape:path-effect
       effect="bspline"
       id="path-effect5172"
       is_visible="true"
       weight="33.333333"
       steps="2"
       helper_size="0"
       apply_no_weight="true"
       apply_with_weight="true"
       only_selected="false" />
    <pattern
       id="EMFhbasepattern"
       patternUnits="userSpaceOnUse"
       width="6"
       height="6"
       x="0"
       y="0" />
  </defs>
  <sodipodi:namedview
     id="base"
     pagecolor="#ffffff"
     bordercolor="#666666"
     borderopacity="1.0"
     inkscape:pageopacity="0.0"
     inkscape:pageshadow="2"
     inkscape:zoom="0.7367354"
     inkscape:cx="236.17706"
     inkscape:cy="291.82797"
     inkscape:document-units="mm"
     inkscape:current-layer="layer1"
     showgrid="true"
     gridtolerance="10"
     inkscape:window-width="1920"
     inkscape:window-height="1017"
     inkscape:window-x="-8"
     inkscape:window-y="-8"
     inkscape:window-maximized="1"
     showguides="false"
     inkscape:document-rotation="0"
     inkscape:snap-grids="true"
     inkscape:showpageshadow="2"
     inkscape:pagecheckerboard="0"
     inkscape:deskcolor="#d1d1d1">
    <inkscape:grid
       type="axonomgrid"
       id="grid1257" />
  </sodipodi:namedview>
  <metadata
     id="metadata5">
    <rdf:RDF>
      <cc:Work
         rdf:about="">
        <dc:format>image/svg+xml</dc:format>
        <dc:type
           rdf:resource="http://purl.org/dc/dcmitype/StillImage" />
        <dc:title>Figura en 3 dimensiones</dc:title>
        <cc:license
           rdf:resource="http://creativecommons.org/licenses/by-sa/4.0/" />
        <dc:date>17/05/2021</dc:date>
        <dc:creator>
          <cc:Agent>
            <dc:title>Carlos Pardo</dc:title>
          </cc:Agent>
        </dc:creator>
        <dc:rights>
          <cc:Agent>
            <dc:title>CC BY-SA 4.0</dc:title>
          </cc:Agent>
        </dc:rights>
        <dc:publisher>
          <cc:Agent>
            <dc:title>Picuino</dc:title>
          </cc:Agent>
        </dc:publisher>
      </cc:Work>
      <cc:License
         rdf:about="http://creativecommons.org/licenses/by-sa/4.0/">
        <cc:permits
           rdf:resource="http://creativecommons.org/ns#Reproduction" />
        <cc:permits
           rdf:resource="http://creativecommons.org/ns#Distribution" />
        <cc:requires
           rdf:resource="http://creativecommons.org/ns#Notice" />
        <cc:requires
           rdf:resource="http://creativecommons.org/ns#Attribution" />
        <cc:permits
           rdf:resource="http://creativecommons.org/ns#DerivativeWorks" />
        <cc:requires
           rdf:resource="http://creativecommons.org/ns#ShareAlike" />
      </cc:License>
    </rdf:RDF>
  </metadata>
  <g
     inkscape:groupmode="layer"
     id="layer2"
     inkscape:label="Figura"
     style="display:inline" />
  <g
     inkscape:groupmode="layer"
     id="layer3"
     inkscape:label="Solapas" />
  <g
     inkscape:groupmode="layer"
     id="layer4"
     inkscape:label="Isométrica" />
  <g
     inkscape:label="Pauta"
     id="layer1"
     style="display:inline"
     inkscape:groupmode="layer">
    <text
       xml:space="preserve"
       style="font-style:normal;font-variant:normal;font-weight:normal;font-stretch:normal;font-size:2.82222px;line-height:1.25;font-family:sans-serif;-inkscape-font-specification:'sans-serif, Normal';font-variant-ligatures:normal;font-variant-caps:normal;font-variant-numeric:normal;font-feature-settings:normal;text-align:center;letter-spacing:0px;word-spacing:0px;writing-mode:lr-tb;text-anchor:middle;fill:#000000;fill-opacity:1;stroke:none;stroke-width:0.264583"
       x="104.00319"
       y="289.07718"
       id="text6517"
       inkscape:label="Footer"><tspan
         sodipodi:role="line"
         id="tspan6515"
         x="104.00319"
         y="289.07718"
         style="font-style:normal;font-variant:normal;font-weight:normal;font-stretch:normal;font-size:2.82222px;font-family:sans-serif;-inkscape-font-specification:'sans-serif, Normal';font-variant-ligatures:normal;font-variant-caps:normal;font-variant-numeric:normal;font-feature-settings:normal;text-align:center;writing-mode:lr-tb;text-anchor:middle;stroke-width:0.264583">CC BY-SA 4.0       www.picuino.com</tspan></text>
    <path
       style="fill:none;stroke:#000000;stroke-width:0.264583px;stroke-linecap:butt;stroke-linejoin:miter;stroke-opacity:1"
       d="m 12.990384,32.5 h 8.660251 v -5 l 8.660254,-5 4.330129,2.5 -4.330129,7.5 4.330129,7.5 -4.330129,2.5 v 5.000001 H 21.650635 L 17.320509,40 12.990384,42.5 8.6602553,40 c 0,0 4.3301287,-7.5 4.3301287,-7.5 z"
       id="path2537" />
    <path
       style="display:inline;fill:none;stroke:#000000;stroke-width:0.264583px;stroke-linecap:butt;stroke-linejoin:miter;stroke-opacity:1"
       d="m 39.971146,32.5 h 8.660251 v -5 l 8.660254,-5 4.330129,2.5 -4.330129,7.5 4.330129,7.5 -4.330129,2.5 v 5.000001 H 48.631397 L 44.301271,40 39.971146,42.5 35.641017,40 c 0,0 4.330129,-7.5 4.330129,-7.5 z"
       id="path2537-9" />
    <path
       style="display:inline;fill:none;stroke:#000000;stroke-width:0.264583px;stroke-linecap:butt;stroke-linejoin:miter;stroke-opacity:1"
       d="m 174.87496,32.5 h 8.66025 v -5 l 8.66025,-5 4.33013,2.5 -4.33013,7.5 4.33013,7.5 -4.33013,2.5 v 5.000001 h -8.66025 L 179.20508,40 174.87496,42.5 170.54483,40 c 0,0 4.33013,-7.5 4.33013,-7.5 z"
       id="path2690" />
    <path
       style="display:inline;fill:none;stroke:#000000;stroke-width:0.264583px;stroke-linecap:butt;stroke-linejoin:miter;stroke-opacity:1"
       d="m 147.89419,32.5 h 8.66025 v -5 l 8.66025,-5 4.33013,2.5 -4.33013,7.5 4.33013,7.5 -4.33013,2.5 v 5.000001 h -8.66025 L 152.22431,40 147.89419,42.5 143.56406,40 c 0,0 4.33013,-7.5 4.33013,-7.5 z"
       id="path2692" />
    <path
       style="display:inline;fill:none;stroke:#000000;stroke-width:0.264583px;stroke-linecap:butt;stroke-linejoin:miter;stroke-opacity:1"
       d="m 120.91343,32.5 h 8.66025 v -5 l 8.66025,-5 4.33013,2.5 -4.33013,7.5 4.33013,7.5 -4.33013,2.5 v 5.000001 h -8.66025 L 125.24355,40 120.91343,42.5 116.5833,40 c 0,0 4.33013,-7.5 4.33013,-7.5 z"
       id="path2694" />
    <path
       style="display:inline;fill:none;stroke:#000000;stroke-width:0.264583px;stroke-linecap:butt;stroke-linejoin:miter;stroke-opacity:1"
       d="m 93.93267,32.5 h 8.66025 v -5 l 8.66026,-5 4.33012,2.5 -4.33012,7.5 4.33012,7.5 -4.33012,2.5 v 5.000001 h -8.66026 L 98.262795,40 93.93267,42.5 89.602541,40 c 0,0 4.330129,-7.5 4.330129,-7.5 z"
       id="path2696" />
    <path
       style="display:inline;fill:none;stroke:#000000;stroke-width:0.264583px;stroke-linecap:butt;stroke-linejoin:miter;stroke-opacity:1"
       d="m 66.951908,32.5 h 8.660251 v -5 l 8.660254,-5 4.330129,2.5 -4.330129,7.5 4.330129,7.5 -4.330129,2.5 v 5.000001 H 75.612159 L 71.282033,40 66.951908,42.5 62.621779,40 c 0,0 4.330129,-7.5 4.330129,-7.5 z"
       id="path2698" />
    <text
       xml:space="preserve"
       style="font-weight:bold;font-size:7.05556px;line-height:1.25;font-family:Alef;-inkscape-font-specification:'Alef Bold';text-align:center;text-anchor:middle;fill:#000000;fill-opacity:1;stroke:none;stroke-width:0.264583px;stroke-linecap:butt;stroke-linejoin:miter;stroke-opacity:1"
       x="104.89759"
       y="15.5"
       id="text2760"><tspan
         sodipodi:role="line"
         id="tspan2758"
         style="font-style:normal;font-variant:normal;font-weight:bold;font-stretch:normal;font-size:7.05556px;font-family:'Liberation Sans';-inkscape-font-specification:'Liberation Sans Bold';fill:#000000;fill-opacity:1;stroke:none;stroke-width:0.264583px"
         x="104.89759"
         y="15.5">TESELA SOMBRERO</tspan></text>
    <path
       style="fill:none;stroke:#000000;stroke-width:0.264583px;stroke-linecap:butt;stroke-linejoin:miter;stroke-opacity:1"
       d="M 51.961524,54.999999 60.621778,60 51.961524,75.000001 60.621778,90 51.961524,95.000001 V 105 H 34.641016 L 25.980762,90 17.320508,95.000001 8.660254,90 17.320508,75.000001 H 34.641016 V 65 Z"
       id="path2828" />
    <path
       style="fill:none;stroke:#000000;stroke-width:0.264583px;stroke-linecap:butt;stroke-linejoin:miter;stroke-opacity:1"
       d="m 173.20508,110 8.66025,5 -8.66025,15 8.66025,15 -8.66025,5 v 10 h -17.32051 l -8.66025,-15 -8.66026,5 -8.66025,-5 8.66025,-15 h 17.32051 v -10 z"
       id="path2830" />
    <path
       style="fill:none;stroke:#000000;stroke-width:0.264583px;stroke-linecap:butt;stroke-linejoin:miter;stroke-opacity:1"
       d="m 112.5833,110 8.66026,5 -8.66026,15 8.66026,15 -8.66026,5 v 10 H 95.262794 l -8.660254,-15 -8.660254,5 -8.660254,-5 8.660254,-15 h 17.320508 v -10 z"
       id="path2832" />
    <path
       style="fill:none;stroke:#000000;stroke-width:0.264583px;stroke-linecap:butt;stroke-linejoin:miter;stroke-opacity:1"
       d="m 51.961524,110 8.660254,5 -8.660254,15 8.660254,15 -8.660254,5 v 10 H 34.641016 l -8.660254,-15 -8.660254,5 -8.6602538,-5 8.6602538,-15 h 17.320508 v -10 z"
       id="path2834" />
    <path
       style="fill:none;stroke:#000000;stroke-width:0.264583px;stroke-linecap:butt;stroke-linejoin:miter;stroke-opacity:1"
       d="m 173.20508,54.999998 8.66025,5.000001 L 173.20508,75 181.86533,89.999999 173.20508,95 v 10 H 155.88457 L 147.22432,89.999999 138.56406,95 129.90381,89.999999 138.56406,75 h 17.32051 V 64.999999 Z"
       id="path2836" />
    <path
       style="fill:none;stroke:#000000;stroke-width:0.264583px;stroke-linecap:butt;stroke-linejoin:miter;stroke-opacity:1"
       d="m 112.5833,54.999998 8.66026,5.000001 L 112.5833,75 121.24356,89.999999 112.5833,95 v 10 H 95.262794 L 86.60254,89.999999 77.942286,95 69.282032,89.999999 77.942286,75 H 95.262794 V 64.999999 Z"
       id="path2838" />
    <path
       style="fill:none;stroke:#000000;stroke-width:0.264583px;stroke-linecap:butt;stroke-linejoin:miter;stroke-opacity:1"
       d="m 12.990381,257.5 17.320512,-29.99999 -17.320509,-10 -3e-6,-40.00001 17.320507,-10 17.320511,30.00001 H 82.272414 V 217.5 l 17.32052,10.00001 -17.32051,30 -34.641026,-10e-6 1e-6,20 -17.320508,10 z"
       id="path2871" />
    <path
       style="fill:none;stroke:#000000;stroke-width:0.264583px;stroke-linecap:butt;stroke-linejoin:miter;stroke-opacity:1"
       d="m 194.85572,197.49999 -17.32052,30.00002 17.32051,10 1e-5,39.99999 -17.32051,10 -17.32051,-30 -34.64101,-10e-6 -1e-5,-19.99999 -17.32051,-10 17.3205,-30 h 34.64103 v -20 l 17.3205,-9.99999 z"
       id="path2873" />
  </g>
</svg>
