<?xml version="1.0" encoding="UTF-8" standalone="no"?>
<!-- Created with Inkscape (http://www.inkscape.org/) -->

<svg
   width="210mm"
   height="297mm"
   viewBox="0 0 210 297"
   version="1.1"
   id="svg5"
   inkscape:version="1.2.1 (9c6d41e410, 2022-07-14)"
   sodipodi:docname="taller-tesela-pajaro-3d-b.svg"
   xmlns:inkscape="http://www.inkscape.org/namespaces/inkscape"
   xmlns:sodipodi="http://sodipodi.sourceforge.net/DTD/sodipodi-0.dtd"
   xmlns="http://www.w3.org/2000/svg"
   xmlns:svg="http://www.w3.org/2000/svg"
   xmlns:rdf="http://www.w3.org/1999/02/22-rdf-syntax-ns#"
   xmlns:cc="http://creativecommons.org/ns#"
   xmlns:dc="http://purl.org/dc/elements/1.1/">
  <title
     id="title1103">Teselas de pájaros</title>
  <sodipodi:namedview
     id="namedview7"
     pagecolor="#ffffff"
     bordercolor="#000000"
     borderopacity="0.25"
     inkscape:showpageshadow="2"
     inkscape:pageopacity="0.0"
     inkscape:pagecheckerboard="0"
     inkscape:deskcolor="#d1d1d1"
     inkscape:document-units="mm"
     showgrid="true"
     inkscape:zoom="2"
     inkscape:cx="81.75"
     inkscape:cy="82.75"
     inkscape:window-width="1763"
     inkscape:window-height="1032"
     inkscape:window-x="118"
     inkscape:window-y="0"
     inkscape:window-maximized="0"
     inkscape:current-layer="layer1"
     inkscape:export-bgcolor="#ffffffff">
    <inkscape:grid
       type="xygrid"
       id="grid1779"
       units="mm"
       spacingx="1"
       spacingy="1"
       originx="0"
       originy="0" />
  </sodipodi:namedview>
  <defs
     id="defs2" />
  <g
     inkscape:label="Capa 1"
     inkscape:groupmode="layer"
     id="layer1">
    <path
       id="path1279"
       style="fill:#525252;fill-opacity:1;stroke:none;stroke-width:0.1;stroke-linecap:round;stroke-linejoin:round;stroke-dasharray:none"
       d="m -20.442088,-24.497266 c 3.588884,2.54763 6.499326,6.086538 8.157858,10.174212 0.706579,1.734794 1.099207,3.587443 1.228226,5.4536724 0.100716,1.3543272 0.09535,2.7136248 0.09712,4.0709437 -0.0779,0.1645409 -0.277092,0.2192955 -0.409717,0.3353863 -2.858392,1.9851989 -5.28822,4.5960956 -7.016846,7.6196918 -0.84834,1.4889886 -1.554466,3.0986916 -1.970992,4.7638834 -0.530404,2.0531716 -0.59563,4.1746824 -0.600794,6.2859544 -0.002,0.282863 -0.0012,0.565733 -0.0016,0.8486 2.942578,-0.98099 5.885156,-1.961979 8.827734,-2.942969 0.859859,-1.148541 2.064328,-2.031441 3.4035154,-2.5402344 0.9732458,-0.360902 2.024778,-0.5307478 3.0616556,-0.45544 1.0384284,0.092872 1.9817356,0.6722916 2.6524028,1.4526014 0.908066,1.044419 1.4555414,2.349748 1.832426,3.668073 0.078196,0.283795 0.1474876,0.57013 0.2042968,0.858984 1.236198,0 2.4723958,0 3.7085938,0 -0.758408,-1.142836 -1.3480736,-2.427397 -1.54375,-3.79375 C 1.0334474,10.226298 1.2113158,9.0759398 1.8317554,8.1668876 2.5466112,7.081008 3.6150736,6.242794 4.829552,5.7838168 6.3895417,5.1821638 8.0871161,5.0923296 9.7420098,5.1113514 c 2.1531242,0.024523 4.3126092,0.2813034 6.4604842,0.1859138 0.678906,-0.038896 1.343668,-0.101183 1.995395,-0.2669228 1.025323,-0.2720344 1.855825,-0.9892828 2.549152,-1.7631858 0.997351,-1.119201 1.88627,-2.3361908 2.970077,-3.3772456 1.363752,-1.3422788 3.001548,-2.3964218 4.77443,-3.1125911 2.521238,-1.0239083 5.242252,-1.4505913 7.945982,-1.6110537 0.619046,-0.037225 1.23926,-0.057232 1.859444,-0.065876 -2.798436,-0.9326823 -5.596874,-1.8653646 -8.395312,-2.7980468 -0.151974,-0.140089 -0.25578,-0.3305716 -0.403358,-0.4787306 -1.044238,-1.1806686 -2.477562,-2.0355358 -4.015001,-2.3564258 -0.652141,-0.130725 -1.301203,-0.196271 -1.966606,-0.135446 -0.991918,0.100065 -1.882273,0.6724082 -2.515107,1.4238392 -0.872395,1.0301684 -1.400877,2.304888 -1.761217,3.5937659 -0.07813,0.2875862 -0.147246,0.5778463 -0.201211,0.870966 -0.106909,0.1426087 -0.291933,0.069831 -0.444297,0.087109 -1.219609,0 -2.439218,0 -3.658828,0 -0.07729,-0.1052501 -0.102897,-0.2051981 0.0058,-0.2974358 0.678424,-1.0109433 1.204651,-2.1183667 1.459069,-3.3119393 0.218049,-1.0445894 0.164588,-2.168375 -0.357804,-3.113129 -0.671938,-1.185384 -1.778819,-2.103105 -3.04773,-2.590176 -0.637302,-0.251604 -1.293708,-0.408354 -1.959441,-0.508707 -1.9675902,-0.290307 -3.9796758,-0.130086 -5.9658019,-0.03256 -1.6699761,0.0797 -3.3607649,0.175247 -5.0159607,-0.12066 -0.9656086,-0.149706 -1.8333314,-0.674488 -2.5278718,-1.346093 -0.9832168,-0.948652 -1.7697008,-2.072559 -2.6903832,-3.07806 -1.0992654,-1.233009 -2.3815398,-2.310654 -3.8283668,-3.113737 -1.6629106,-0.932405 -3.5216886,-1.531579 -5.3912246,-1.901743 -2.086824,-0.412512 -4.207616,-0.565264 -6.334164,-0.583022 0.09193,0.06419 0.183854,0.128386 0.275778,0.192578 z" />
    <g
       id="g1285"
       transform="translate(49.454091,-44.983464)">
      <path
         style="color:#000000;fill:#000000;stroke-width:0;stroke-linecap:round;stroke-linejoin:round;-inkscape-stroke:none"
         d="m -23.5,36.699001 a 0.99999952,0.99999952 0 0 1 -1,1 0.99999952,0.99999952 0 0 1 -1,-1 0.99999952,0.99999952 0 0 1 1,-0.999999 0.99999952,0.99999952 0 0 1 1,0.999999 z"
         id="path1281" />
      <path
         style="color:#000000;fill:#000000;stroke-linecap:round;stroke-linejoin:round;-inkscape-stroke:none"
         d="m -23.5,36.699001 c 0,0.552284 -0.447716,1 -1,1 -0.552284,0 -1,-0.447716 -1,-1 0,-0.552284 0.447716,-0.999999 1,-0.999999 0.552284,0 1,0.447715 1,0.999999 z"
         id="path1283" />
    </g>
    <path
       style="color:#000000;fill:#000000;stroke-linecap:round;stroke-linejoin:round;-inkscape-stroke:none"
       d="m 29.196538,-7.7881515 a 0.30000001,0.30000001 0 0 1 0.414063,0.08984 0.30000001,0.30000001 0 0 1 -0.08984,0.414063 l -2.320312,1.498047 2.451172,1.566406 a 0.30000001,0.30000001 0 0 1 0.0918,0.414062 0.30000001,0.30000001 0 0 1 -0.416015,0.0918 l -2.845703,-1.818359 a 0.30003001,0.30003001 0 0 1 0,-0.503906 z"
       id="path1287" />
  </g>
  <metadata
     id="metadata1101">
    <rdf:RDF>
      <cc:Work
         rdf:about="">
        <dc:title>Teselas de pájaros</dc:title>
        <dc:date>30/04/2026</dc:date>
        <dc:creator>
          <cc:Agent>
            <dc:title>Carlos Félix Pardo Martín</dc:title>
          </cc:Agent>
        </dc:creator>
        <dc:rights>
          <cc:Agent>
            <dc:title>Licencia Creative Commons BY-SA 4.0</dc:title>
          </cc:Agent>
        </dc:rights>
        <dc:publisher>
          <cc:Agent>
            <dc:title>www.picuino.com</dc:title>
          </cc:Agent>
        </dc:publisher>
        <cc:license
           rdf:resource="http://creativecommons.org/licenses/by-sa/4.0/" />
      </cc:Work>
      <cc:License
         rdf:about="http://creativecommons.org/licenses/by-sa/4.0/">
        <cc:permits
           rdf:resource="http://creativecommons.org/ns#Reproduction" />
        <cc:permits
           rdf:resource="http://creativecommons.org/ns#Distribution" />
        <cc:requires
           rdf:resource="http://creativecommons.org/ns#Notice" />
        <cc:requires
           rdf:resource="http://creativecommons.org/ns#Attribution" />
        <cc:permits
           rdf:resource="http://creativecommons.org/ns#DerivativeWorks" />
        <cc:requires
           rdf:resource="http://creativecommons.org/ns#ShareAlike" />
      </cc:License>
    </rdf:RDF>
  </metadata>
</svg>
