<?xml version="1.0" encoding="UTF-8" standalone="no"?>
<!-- Created with Inkscape (http://www.inkscape.org/) -->

<svg
   width="210mm"
   height="297mm"
   viewBox="0 0 210 297"
   version="1.1"
   id="svg5"
   inkscape:version="1.2.1 (9c6d41e410, 2022-07-14)"
   sodipodi:docname="taller-tesela-pajaro-3d-a.svg"
   xmlns:inkscape="http://www.inkscape.org/namespaces/inkscape"
   xmlns:sodipodi="http://sodipodi.sourceforge.net/DTD/sodipodi-0.dtd"
   xmlns="http://www.w3.org/2000/svg"
   xmlns:svg="http://www.w3.org/2000/svg"
   xmlns:rdf="http://www.w3.org/1999/02/22-rdf-syntax-ns#"
   xmlns:cc="http://creativecommons.org/ns#"
   xmlns:dc="http://purl.org/dc/elements/1.1/">
  <title
     id="title1103">Teselas de pájaros</title>
  <sodipodi:namedview
     id="namedview7"
     pagecolor="#ffffff"
     bordercolor="#000000"
     borderopacity="0.25"
     inkscape:showpageshadow="2"
     inkscape:pageopacity="0.0"
     inkscape:pagecheckerboard="0"
     inkscape:deskcolor="#d1d1d1"
     inkscape:document-units="mm"
     showgrid="true"
     inkscape:zoom="2.8284271"
     inkscape:cx="91.039998"
     inkscape:cy="53.209785"
     inkscape:window-width="1763"
     inkscape:window-height="1032"
     inkscape:window-x="118"
     inkscape:window-y="0"
     inkscape:window-maximized="0"
     inkscape:current-layer="layer1"
     inkscape:export-bgcolor="#ffffffff">
    <inkscape:grid
       type="xygrid"
       id="grid1779"
       units="mm"
       spacingx="1"
       spacingy="1"
       originx="0"
       originy="0" />
  </sodipodi:namedview>
  <defs
     id="defs2" />
  <g
     inkscape:label="Capa 1"
     inkscape:groupmode="layer"
     id="layer1">
    <path
       id="path3457"
       style="fill:#525252;fill-opacity:1;stroke:none;stroke-width:0.1;stroke-linecap:round;stroke-linejoin:round;stroke-dasharray:none"
       d="m 40.670712,-19.689453 c -2.57826,0.0252 -5.160968,0.245861 -7.659766,0.898047 -1.860362,0.488458 -3.670082,1.245169 -5.247969,2.360405 -1.304826,0.910015 -2.405075,2.058237 -3.412183,3.283844 -0.820309,0.967297 -1.5841,2.020132 -2.636499,2.754877 -0.59778,0.423213 -1.303055,0.6759786 -2.027325,0.7693116 -1.74055,0.262611 -3.506999,0.1357118 -5.256276,0.050179 -1.966831,-0.098861 -3.959808,-0.229998 -5.8998262,0.1325554 -1.1036859,0.2080514 -2.2334262,0.6295078 -3.1313192,1.3493688 -0.6228704,0.5029168 -1.1651648,1.1224172 -1.526457,1.8398872 -0.5255996,1.0719302 -0.474205,2.3316014 -0.147811,3.4616356 0.2974664,1.0319755 0.7798452,1.99758594 1.3915248,2.88348342 0.060771,0.08748191 -0.049543,0.26626907 -0.1727344,0.21328126 -1.2929428,-10e-9 -2.5858854,0 -3.8788282,0 C 0.9118586,0.23136853 0.9444824,0.04703347 0.8971326,-0.09363556 0.5934008,-1.418481 0.108894,-2.7238856 -0.6816322,-3.8386718 c -0.601345,-0.8438324 -1.4586944,-1.5632382 -2.494977,-1.7740066 -0.6162104,-0.1308244 -1.2486072,-0.080056 -1.8566738,-3.18e-5 -1.8212304,0.258652 -3.533708,1.2600312 -4.6849164,2.7005666 -0.083887,0.1128536 -0.1607796,0.2435934 -0.3161726,0.2587536 -2.754164,0.9179269 -5.50833,1.83585378 -8.262494,2.75378062 2.870792,0.0443445 5.76734,0.3317103 8.5136838,1.20727308 2.045744,0.6505419 3.9843532,1.6845535 5.5806416,3.1295935 1.2024844,1.0592242 2.17522,2.3393064 3.2102156,3.554107 0.709234,0.8187262 1.5212082,1.6210028 2.5720922,1.9708508 0.6058716,0.196278 1.2180768,0.257159 1.8516284,0.31177 1.7929142,0.125012 3.6033322,-0.04131 5.4009807,-0.11823 1.8574847,-0.07821 3.7539607,-0.119607 5.5641167,0.370807 1.226883,0.332482 2.38622,0.976587 3.230004,1.938435 0.538098,0.601467 0.978883,1.313773 1.136839,2.114298 0.271721,1.283531 -0.04366,2.613391 -0.553111,3.796785 -0.260576,0.60049 -0.576697,1.17681 -0.941857,1.720014 1.236198,0 2.472396,0 3.708594,0 0.27663,-1.337746 0.743508,-2.651924 1.487299,-3.803728 0.602038,-0.925128 1.461604,-1.742543 2.544904,-2.049906 0.797837,-0.229261 1.644939,-0.154694 2.452531,-0.02081 1.822048,0.331346 3.502068,1.370443 4.630182,2.836398 0.07667,0.114102 0.246216,0.100894 0.361928,0.161591 2.835062,0.945146 5.670124,1.890292 8.505186,2.835438 1.48e-4,-2.411532 -4e-4,-4.84498 -0.616804,-7.190927 C 39.852916,10.947971 38.995142,9.1174474 37.9569,7.438173 36.18715,4.5935838 33.789442,2.1490778 31.005476,0.2890625 c -0.0928,-0.15657666 -0.02638,-0.35277504 -0.04625,-0.52749994 4e-4,-2.23224876 0.0238,-4.49088096 0.554072,-6.67220676 0.560392,-2.341601 1.636898,-4.5361848 2.977422,-6.5267398 1.661118,-2.448799 3.792036,-4.573655 6.227256,-6.25246 -0.01576,1.3e-4 -0.03151,2.6e-4 -0.04726,4e-4 z" />
    <g
       id="circle3459"
       transform="matrix(-1,0,0,1,-30,-40)">
      <path
         style="color:#000000;fill:#000000;stroke-width:0;stroke-linecap:round;stroke-linejoin:round;-inkscape-stroke:none"
         d="m -23.5,36.699001 a 0.99999952,0.99999952 0 0 1 -1,1 0.99999952,0.99999952 0 0 1 -1,-1 0.99999952,0.99999952 0 0 1 1,-0.999999 0.99999952,0.99999952 0 0 1 1,0.999999 z"
         id="path1275" />
      <path
         style="color:#000000;fill:#000000;stroke-linecap:round;stroke-linejoin:round;-inkscape-stroke:none"
         d="m -23.5,36.699001 c 0,0.552284 -0.447716,1 -1,1 -0.552284,0 -1,-0.447716 -1,-1 0,-0.552284 0.447716,-0.999999 1,-0.999999 0.552284,0 1,0.447715 1,0.999999 z"
         id="path1277" />
    </g>
    <path
       style="color:#000000;fill:#000000;stroke-linecap:round;stroke-linejoin:round;-inkscape-stroke:none"
       d="m -9.2344386,-2.8484674 a 0.30000001,0.30000001 0 0 0 -0.414063,0.08984 0.30000001,0.30000001 0 0 0 0.08984,0.414063 l 2.320312,1.49804702 -2.451172,1.566406 a 0.30000001,0.30000001 0 0 0 -0.0918,0.41406198 0.30000001,0.30000001 0 0 0 0.416015,0.0918 l 2.845703,-1.81835898 a 0.30003001,0.30003001 0 0 0 0,-0.50390602 z"
       id="path3461" />
  </g>
  <metadata
     id="metadata1101">
    <rdf:RDF>
      <cc:Work
         rdf:about="">
        <dc:title>Teselas de pájaros</dc:title>
        <dc:date>30/04/2026</dc:date>
        <dc:creator>
          <cc:Agent>
            <dc:title>Carlos Félix Pardo Martín</dc:title>
          </cc:Agent>
        </dc:creator>
        <dc:rights>
          <cc:Agent>
            <dc:title>Licencia Creative Commons BY-SA 4.0</dc:title>
          </cc:Agent>
        </dc:rights>
        <dc:publisher>
          <cc:Agent>
            <dc:title>www.picuino.com</dc:title>
          </cc:Agent>
        </dc:publisher>
        <cc:license
           rdf:resource="http://creativecommons.org/licenses/by-sa/4.0/" />
      </cc:Work>
      <cc:License
         rdf:about="http://creativecommons.org/licenses/by-sa/4.0/">
        <cc:permits
           rdf:resource="http://creativecommons.org/ns#Reproduction" />
        <cc:permits
           rdf:resource="http://creativecommons.org/ns#Distribution" />
        <cc:requires
           rdf:resource="http://creativecommons.org/ns#Notice" />
        <cc:requires
           rdf:resource="http://creativecommons.org/ns#Attribution" />
        <cc:permits
           rdf:resource="http://creativecommons.org/ns#DerivativeWorks" />
        <cc:requires
           rdf:resource="http://creativecommons.org/ns#ShareAlike" />
      </cc:License>
    </rdf:RDF>
  </metadata>
</svg>
