<?xml version="1.0" encoding="UTF-8" standalone="no"?>
<!-- Created with Inkscape (http://www.inkscape.org/) -->

<svg
   width="210mm"
   height="297mm"
   viewBox="0 0 210 297"
   version="1.1"
   id="svg5"
   inkscape:version="1.4.3 (0d15f75, 2025-12-25)"
   sodipodi:docname="taller-tesela-pez-3d.svg"
   xmlns:inkscape="http://www.inkscape.org/namespaces/inkscape"
   xmlns:sodipodi="http://sodipodi.sourceforge.net/DTD/sodipodi-0.dtd"
   xmlns="http://www.w3.org/2000/svg"
   xmlns:svg="http://www.w3.org/2000/svg"
   xmlns:rdf="http://www.w3.org/1999/02/22-rdf-syntax-ns#"
   xmlns:cc="http://creativecommons.org/ns#"
   xmlns:dc="http://purl.org/dc/elements/1.1/">
  <title
     id="title1624">Teselas de peces</title>
  <sodipodi:namedview
     id="namedview7"
     pagecolor="#ffffff"
     bordercolor="#000000"
     borderopacity="0.25"
     inkscape:showpageshadow="2"
     inkscape:pageopacity="0.0"
     inkscape:pagecheckerboard="0"
     inkscape:deskcolor="#d1d1d1"
     inkscape:document-units="mm"
     showgrid="true"
     inkscape:zoom="33.421469"
     inkscape:cx="-13.539202"
     inkscape:cy="-94.116151"
     inkscape:window-width="1920"
     inkscape:window-height="1009"
     inkscape:window-x="-8"
     inkscape:window-y="-8"
     inkscape:window-maximized="1"
     inkscape:current-layer="layer1"
     inkscape:export-bgcolor="#ffffffff">
    <inkscape:grid
       type="xygrid"
       id="grid1779"
       units="mm"
       spacingx="1"
       spacingy="1"
       originx="0"
       originy="0" />
  </sodipodi:namedview>
  <defs
     id="defs2" />
  <g
     inkscape:label="Capa 1"
     inkscape:groupmode="layer"
     id="layer1">
    <path
       id="path1399"
       style="fill:#303030;stroke:#000000;stroke-width:0;stroke-linecap:round;stroke-linejoin:round;stroke-opacity:1;stroke-dasharray:none;fill-opacity:1"
       d="m -14.610053,-17.893469 c -0.199978,0.05717 -0.418642,0.0112 -0.626298,0.026 -5.739112,0 -11.478223,0 -17.217334,0 5.947229,4.958696 11.89446,9.9173928 17.84169,14.8760892 0.07873,0.1645613 0.01913,0.359766 0.03767,0.537661 0,2.35813913 0,4.7162782 0,7.0744174 -0.07557,0.1660416 -0.264099,0.2452334 -0.388821,0.3734845 -5.830181,4.8609759 -11.660361,9.7219519 -17.490542,14.5829279 3.402318,0 6.804638,0 10.206958,0 4.004435,-3.505765 8.00887,-7.01153 12.013304,-10.5172945 0.146129,-0.022469 0.214541,0.086349 0.2823645,0.1961604 2.4559677,3.4403781 4.9119354,6.8807561 7.3679031,10.3211341 2.47810987,0 4.9562195,0 7.4343293,0 C 10.850188,14.575213 16.849201,9.573315 22.848215,4.5714171 c 0,-2.4776021 0,-4.95520414 0,-7.4328062 C 16.839493,-7.8715649 10.830769,-12.881741 4.8220454,-17.891917 c -2.0397865,-2.843642 -4.06825311,-5.69647 -6.1036862,-8.543645 -0.458047,-0.641585 -0.9160941,-1.28317 -1.3741412,-1.924758 -3.984757,3.488951 -7.969514,6.977901 -11.954271,10.466851 z" />
    <path
       id="circle1393"
       style="stroke:#000000;stroke-width:0;stroke-linecap:round;stroke-linejoin:round"
       transform="rotate(90)"
       d="m -0.90576005,-12.343358 a 1.8065,1.8054999 0 0 1 -1.80649995,1.8055 1.8065,1.8054999 0 0 1 -1.8065,-1.8055 1.8065,1.8054999 0 0 1 1.8065,-1.8055 1.8065,1.8054999 0 0 1 1.80649995,1.8055 z" />
    <path
       style="baseline-shift:baseline;display:inline;overflow:visible;vector-effect:none;stroke-linecap:round;stroke-linejoin:round;enable-background:accumulate;stop-color:#000000;stop-opacity:1;opacity:1"
       d="m 6.0917969,-5.0136719 a 0.5,0.5 0 0 0 -0.3710938,0.095703 l -6.02148435,4.51757807 a 0.50005,0.50005 0 0 0 0,0.80078126 L 5.7207031,4.9179687 A 0.5,0.5 0 0 0 6.421875,4.8183594 0.5,0.5 0 0 0 6.3222656,4.1191406 L 0.83398438,0 6.3222656,-4.1191406 A 0.5,0.5 0 0 0 6.421875,-4.8183594 0.5,0.5 0 0 0 6.0917969,-5.0136719 Z"
       id="path1401" />
    <path
       style="baseline-shift:baseline;display:inline;overflow:visible;vector-effect:none;stroke-linecap:round;stroke-linejoin:round;enable-background:accumulate;stop-color:#000000;stop-opacity:1;opacity:1"
       d="m -5.1796875,-25.693359 a 0.5,0.5 0 0 0 -0.1171875,0.697265 l 5.79101563,8.111328 a 0.5,0.5 0 0 0 0.69726557,0.117188 0.5,0.5 0 0 0 0.1152344,-0.699219 l -5.7890625,-8.109375 a 0.5,0.5 0 0 0 -0.6972656,-0.117187 z"
       id="path1403" />
    <path
       style="baseline-shift:baseline;display:inline;overflow:visible;vector-effect:none;stroke-linecap:round;stroke-linejoin:round;enable-background:accumulate;stop-color:#000000;stop-opacity:1;opacity:1"
       d="m -10.738281,-20.826172 a 0.5,0.5 0 0 0 -0.117188,0.697266 l 2.3164065,3.24414 a 0.5,0.5 0 0 0 0.6972656,0.117188 0.5,0.5 0 0 0 0.1171875,-0.699219 l -2.3164066,-3.24414 a 0.5,0.5 0 0 0 -0.697265,-0.115235 z"
       id="path1405" />
    <path
       style="baseline-shift:baseline;display:inline;overflow:visible;vector-effect:none;stroke-linecap:round;stroke-linejoin:round;enable-background:accumulate;stop-color:#000000;stop-opacity:1;opacity:1"
       d="m -7.9589844,-23.259766 a 0.5,0.5 0 0 0 -0.1171875,0.697266 l 4.0527344,5.677734 a 0.5,0.5 0 0 0 0.6972656,0.117188 0.5,0.5 0 0 0 0.1171875,-0.699219 l -4.0527343,-5.675781 a 0.5,0.5 0 0 0 -0.6972657,-0.117188 z"
       id="path1407" />
  </g>
  <metadata
     id="metadata1622">
    <rdf:RDF>
      <cc:Work
         rdf:about="">
        <cc:license
           rdf:resource="http://creativecommons.org/licenses/by-sa/4.0/" />
        <dc:title>Teselas de peces</dc:title>
        <dc:date>30/04/2026</dc:date>
        <dc:creator>
          <cc:Agent>
            <dc:title>Carlos Félix Pardo Martín</dc:title>
          </cc:Agent>
        </dc:creator>
        <dc:rights>
          <cc:Agent>
            <dc:title>Licencia Creative Commons BY-SA 4.0</dc:title>
          </cc:Agent>
        </dc:rights>
        <dc:publisher>
          <cc:Agent>
            <dc:title>www.picuino.com</dc:title>
          </cc:Agent>
        </dc:publisher>
      </cc:Work>
      <cc:License
         rdf:about="http://creativecommons.org/licenses/by-sa/4.0/">
        <cc:permits
           rdf:resource="http://creativecommons.org/ns#Reproduction" />
        <cc:permits
           rdf:resource="http://creativecommons.org/ns#Distribution" />
        <cc:requires
           rdf:resource="http://creativecommons.org/ns#Notice" />
        <cc:requires
           rdf:resource="http://creativecommons.org/ns#Attribution" />
        <cc:permits
           rdf:resource="http://creativecommons.org/ns#DerivativeWorks" />
        <cc:requires
           rdf:resource="http://creativecommons.org/ns#ShareAlike" />
      </cc:License>
    </rdf:RDF>
  </metadata>
</svg>
