<?xml version="1.0" encoding="UTF-8" standalone="no"?>
<!-- Created with Inkscape (http://www.inkscape.org/) -->

<svg
   width="210mm"
   height="297mm"
   viewBox="0 0 210 297"
   version="1.1"
   id="svg5"
   inkscape:version="1.4.3 (0d15f75, 2025-12-25)"
   sodipodi:docname="taller-tesela-pajaro.svg"
   xmlns:inkscape="http://www.inkscape.org/namespaces/inkscape"
   xmlns:sodipodi="http://sodipodi.sourceforge.net/DTD/sodipodi-0.dtd"
   xmlns="http://www.w3.org/2000/svg"
   xmlns:svg="http://www.w3.org/2000/svg"
   xmlns:rdf="http://www.w3.org/1999/02/22-rdf-syntax-ns#"
   xmlns:cc="http://creativecommons.org/ns#"
   xmlns:dc="http://purl.org/dc/elements/1.1/">
  <title
     id="title1103">Teselas de pájaros</title>
  <sodipodi:namedview
     id="namedview7"
     pagecolor="#ffffff"
     bordercolor="#000000"
     borderopacity="0.25"
     inkscape:showpageshadow="2"
     inkscape:pageopacity="0.0"
     inkscape:pagecheckerboard="0"
     inkscape:deskcolor="#d1d1d1"
     inkscape:document-units="mm"
     showgrid="true"
     inkscape:zoom="0.7385171"
     inkscape:cx="1187.5148"
     inkscape:cy="595.78851"
     inkscape:window-width="1763"
     inkscape:window-height="1032"
     inkscape:window-x="118"
     inkscape:window-y="0"
     inkscape:window-maximized="0"
     inkscape:current-layer="layer1"
     inkscape:export-bgcolor="#ffffffff">
    <inkscape:grid
       type="xygrid"
       id="grid1779"
       units="mm"
       spacingx="1"
       spacingy="1"
       originx="0"
       originy="0" />
  </sodipodi:namedview>
  <defs
     id="defs2" />
  <g
     inkscape:label="Capa 1"
     inkscape:groupmode="layer"
     id="layer1">
    <g
       id="g3463"
       transform="translate(0,-4.801058)"
       inkscape:export-filename="./_images/taller-tesela-pajaro.png"
       inkscape:export-xdpi="300"
       inkscape:export-ydpi="300"
       style="fill:none">
      <path
         id="path3457"
         style="fill:none;stroke:#000000;stroke-width:0.4;stroke-linecap:round;stroke-linejoin:round"
         d="m 69.999862,25.001058 c -17.000077,1.63e-4 -16.000279,9.000425 -21.000269,10.000423 -4.99999,0.999998 -12.635773,-1.968576 -15.99954,2.999817 -2.01057,2.969678 0.9925,6.989971 0.998905,6.998539 h -3.998722 c 0,0 -1.000216,-5.999634 -5.000212,-5.999634 -3.999996,0 -6.00015,2.999817 -6.00015,2.999817 L 9.9999064,44.999837 C 26.999949,45 26.000195,53.999748 31.000175,54.999744 c 4.99998,0.999996 12.636296,-1.96805 16.000057,3.000333 2.012711,2.97284 -1.000456,7.00009 -1.000456,7.00009 h 4.000273 c 0,0 0.999707,-6.000151 4.999695,-6.000151 3.999988,0 6.00015,2.999817 6.00015,2.999817 l 8.999968,3.000334 c 0,-3.999996 1.2e-4,-7.000366 -1.999878,-11.000362 -1.999998,-3.999996 -5.000032,-6.999969 -8.000029,-8.999968 0,-3.999194 1.48e-4,-6.999352 1.999878,-10.998812 1.999996,-3.999992 5.000035,-6.99997 8.000029,-8.999967 z" />
      <circle
         style="fill:none;stroke:#000000;stroke-width:0.4;stroke-linecap:round;stroke-linejoin:round"
         id="circle3459"
         cx="-24.499998"
         cy="41.5"
         r="0.5"
         transform="scale(-1,1)" />
      <path
         style="fill:none;stroke:#000000;stroke-width:0.4;stroke-linecap:round;stroke-linejoin:round"
         d="M 19,42.000001 22,44 19,46"
         id="path3461"
         sodipodi:nodetypes="ccc" />
    </g>
    <g
       id="g3495"
       transform="matrix(-1,0,0,1,79.999871,35.397942)"
       style="fill:none">
      <path
         id="path3489"
         style="fill:none;stroke:#000000;stroke-width:0.4;stroke-linecap:round;stroke-linejoin:round"
         d="m 69.999862,25.001058 c -17.000077,1.63e-4 -16.000279,9.000425 -21.000269,10.000423 -4.99999,0.999998 -12.635773,-1.968576 -15.99954,2.999817 -2.01057,2.969678 0.9925,6.989971 0.998905,6.998539 h -3.998722 c 0,0 -1.000216,-5.999634 -5.000212,-5.999634 -3.999996,0 -6.00015,2.999817 -6.00015,2.999817 L 9.9999064,44.999837 C 26.999949,45 26.000195,53.999748 31.000175,54.999744 c 4.99998,0.999996 12.636296,-1.96805 16.000057,3.000333 2.012711,2.97284 -1.000456,7.00009 -1.000456,7.00009 h 4.000273 c 0,0 0.999707,-6.000151 4.999695,-6.000151 3.999988,0 6.00015,2.999817 6.00015,2.999817 l 8.999968,3.000334 c 0,-3.999996 1.2e-4,-7.000366 -1.999878,-11.000362 -1.999998,-3.999996 -5.000032,-6.999969 -8.000029,-8.999968 0,-3.999194 1.48e-4,-6.999352 1.999878,-10.998812 1.999996,-3.999992 5.000035,-6.99997 8.000029,-8.999967 z" />
      <circle
         style="fill:none;stroke:#000000;stroke-width:0.4;stroke-linecap:round;stroke-linejoin:round"
         id="circle3491"
         cx="-24.499998"
         cy="41.5"
         r="0.5"
         transform="scale(-1,1)" />
      <path
         style="fill:none;stroke:#000000;stroke-width:0.4;stroke-linecap:round;stroke-linejoin:round"
         d="M 19,42.000001 22,44 19,46"
         id="path3493"
         sodipodi:nodetypes="ccc" />
    </g>
    <g
       id="g3503"
       transform="matrix(-1,0,0,1,144.39973,35.397942)"
       style="fill:none">
      <path
         id="path3497"
         style="fill:none;stroke:#000000;stroke-width:0.4;stroke-linecap:round;stroke-linejoin:round"
         d="m 69.999862,25.001058 c -17.000077,1.63e-4 -16.000279,9.000425 -21.000269,10.000423 -4.99999,0.999998 -12.635773,-1.968576 -15.99954,2.999817 -2.01057,2.969678 0.9925,6.989971 0.998905,6.998539 h -3.998722 c 0,0 -1.000216,-5.999634 -5.000212,-5.999634 -3.999996,0 -6.00015,2.999817 -6.00015,2.999817 L 9.9999064,44.999837 C 26.999949,45 26.000195,53.999748 31.000175,54.999744 c 4.99998,0.999996 12.636296,-1.96805 16.000057,3.000333 2.012711,2.97284 -1.000456,7.00009 -1.000456,7.00009 h 4.000273 c 0,0 0.999707,-6.000151 4.999695,-6.000151 3.999988,0 6.00015,2.999817 6.00015,2.999817 l 8.999968,3.000334 c 0,-3.999996 1.2e-4,-7.000366 -1.999878,-11.000362 -1.999998,-3.999996 -5.000032,-6.999969 -8.000029,-8.999968 0,-3.999194 1.48e-4,-6.999352 1.999878,-10.998812 1.999996,-3.999992 5.000035,-6.99997 8.000029,-8.999967 z" />
      <circle
         style="fill:none;stroke:#000000;stroke-width:0.4;stroke-linecap:round;stroke-linejoin:round"
         id="circle3499"
         cx="-24.499998"
         cy="41.5"
         r="0.5"
         transform="scale(-1,1)" />
      <path
         style="fill:none;stroke:#000000;stroke-width:0.4;stroke-linecap:round;stroke-linejoin:round"
         d="M 19,42.000001 22,44 19,46"
         id="path3501"
         sodipodi:nodetypes="ccc" />
    </g>
    <g
       id="g3511"
       transform="matrix(-1,0,0,1,208.79958,35.397942)"
       style="fill:none">
      <path
         id="path3505"
         style="fill:none;stroke:#000000;stroke-width:0.4;stroke-linecap:round;stroke-linejoin:round"
         d="m 69.999862,25.001058 c -17.000077,1.63e-4 -16.000279,9.000425 -21.000269,10.000423 -4.99999,0.999998 -12.635773,-1.968576 -15.99954,2.999817 -2.01057,2.969678 0.9925,6.989971 0.998905,6.998539 h -3.998722 c 0,0 -1.000216,-5.999634 -5.000212,-5.999634 -3.999996,0 -6.00015,2.999817 -6.00015,2.999817 L 9.9999064,44.999837 C 26.999949,45 26.000195,53.999748 31.000175,54.999744 c 4.99998,0.999996 12.636296,-1.96805 16.000057,3.000333 2.012711,2.97284 -1.000456,7.00009 -1.000456,7.00009 h 4.000273 c 0,0 0.999707,-6.000151 4.999695,-6.000151 3.999988,0 6.00015,2.999817 6.00015,2.999817 l 8.999968,3.000334 c 0,-3.999996 1.2e-4,-7.000366 -1.999878,-11.000362 -1.999998,-3.999996 -5.000032,-6.999969 -8.000029,-8.999968 0,-3.999194 1.48e-4,-6.999352 1.999878,-10.998812 1.999996,-3.999992 5.000035,-6.99997 8.000029,-8.999967 z" />
      <circle
         style="fill:none;stroke:#000000;stroke-width:0.4;stroke-linecap:round;stroke-linejoin:round"
         id="circle3507"
         cx="-24.499998"
         cy="41.5"
         r="0.5"
         transform="scale(-1,1)" />
      <path
         style="fill:none;stroke:#000000;stroke-width:0.4;stroke-linecap:round;stroke-linejoin:round"
         d="M 19,42.000001 22,44 19,46"
         id="path3509"
         sodipodi:nodetypes="ccc" />
    </g>
    <g
       id="g3519"
       transform="translate(128.79971,-4.801058)"
       style="fill:none">
      <path
         id="path3513"
         style="fill:none;stroke:#000000;stroke-width:0.4;stroke-linecap:round;stroke-linejoin:round"
         d="m 69.999862,25.001058 c -17.000077,1.63e-4 -16.000279,9.000425 -21.000269,10.000423 -4.99999,0.999998 -12.635773,-1.968576 -15.99954,2.999817 -2.01057,2.969678 0.9925,6.989971 0.998905,6.998539 h -3.998722 c 0,0 -1.000216,-5.999634 -5.000212,-5.999634 -3.999996,0 -6.00015,2.999817 -6.00015,2.999817 L 9.9999064,44.999837 C 26.999949,45 26.000195,53.999748 31.000175,54.999744 c 4.99998,0.999996 12.636296,-1.96805 16.000057,3.000333 2.012711,2.97284 -1.000456,7.00009 -1.000456,7.00009 h 4.000273 c 0,0 0.999707,-6.000151 4.999695,-6.000151 3.999988,0 6.00015,2.999817 6.00015,2.999817 l 8.999968,3.000334 c 0,-3.999996 1.2e-4,-7.000366 -1.999878,-11.000362 -1.999998,-3.999996 -5.000032,-6.999969 -8.000029,-8.999968 0,-3.999194 1.48e-4,-6.999352 1.999878,-10.998812 1.999996,-3.999992 5.000035,-6.99997 8.000029,-8.999967 z" />
      <circle
         style="fill:none;stroke:#000000;stroke-width:0.4;stroke-linecap:round;stroke-linejoin:round"
         id="circle3515"
         cx="-24.499998"
         cy="41.5"
         r="0.5"
         transform="scale(-1,1)" />
      <path
         style="fill:none;stroke:#000000;stroke-width:0.4;stroke-linecap:round;stroke-linejoin:round"
         d="M 19,42.000001 22,44 19,46"
         id="path3517"
         sodipodi:nodetypes="ccc" />
    </g>
    <g
       id="g3527"
       transform="translate(64.399853,-4.801058)"
       style="fill:none">
      <path
         id="path3521"
         style="fill:none;stroke:#000000;stroke-width:0.4;stroke-linecap:round;stroke-linejoin:round"
         d="m 69.999862,25.001058 c -17.000077,1.63e-4 -16.000279,9.000425 -21.000269,10.000423 -4.99999,0.999998 -12.635773,-1.968576 -15.99954,2.999817 -2.01057,2.969678 0.9925,6.989971 0.998905,6.998539 h -3.998722 c 0,0 -1.000216,-5.999634 -5.000212,-5.999634 -3.999996,0 -6.00015,2.999817 -6.00015,2.999817 L 9.9999064,44.999837 C 26.999949,45 26.000195,53.999748 31.000175,54.999744 c 4.99998,0.999996 12.636296,-1.96805 16.000057,3.000333 2.012711,2.97284 -1.000456,7.00009 -1.000456,7.00009 h 4.000273 c 0,0 0.999707,-6.000151 4.999695,-6.000151 3.999988,0 6.00015,2.999817 6.00015,2.999817 l 8.999968,3.000334 c 0,-3.999996 1.2e-4,-7.000366 -1.999878,-11.000362 -1.999998,-3.999996 -5.000032,-6.999969 -8.000029,-8.999968 0,-3.999194 1.48e-4,-6.999352 1.999878,-10.998812 1.999996,-3.999992 5.000035,-6.99997 8.000029,-8.999967 z" />
      <circle
         style="fill:none;stroke:#000000;stroke-width:0.4;stroke-linecap:round;stroke-linejoin:round"
         id="circle3523"
         cx="-24.499998"
         cy="41.5"
         r="0.5"
         transform="scale(-1,1)" />
      <path
         style="fill:none;stroke:#000000;stroke-width:0.4;stroke-linecap:round;stroke-linejoin:round"
         d="M 19,42.000001 22,44 19,46"
         id="path3525"
         sodipodi:nodetypes="ccc" />
    </g>
    <text
       xml:space="preserve"
       style="font-size:3.52777px;fill:#000000;fill-opacity:1;stroke:none;stroke-width:0.4;stroke-linecap:round;stroke-linejoin:round"
       x="40.893379"
       y="285.00226"
       id="text360"><tspan
         sodipodi:role="line"
         id="tspan358"
         style="fill:#000000;fill-opacity:1;stroke:none;stroke-width:0.4"
         x="40.893379"
         y="285.00226">Licencia Creative Commons BY-SA 4.0      www.picuino.com      Versión: 5/2026</tspan></text>
    <text
       xml:space="preserve"
       style="font-style:normal;font-variant:normal;font-weight:bold;font-stretch:normal;font-size:3.52777px;font-family:sans-serif;-inkscape-font-specification:'sans-serif Bold';fill:#000000;fill-opacity:1;stroke:none;stroke-width:0.4;stroke-linecap:round;stroke-linejoin:round"
       x="80"
       y="320"
       id="text1107"><tspan
         sodipodi:role="line"
         id="tspan1105"
         style="stroke-width:0.4"
         x="80"
         y="320">e</tspan></text>
    <g
       id="g694"
       transform="translate(0.199991,80.397942)"
       style="fill:none">
      <path
         id="path688"
         style="fill:none;stroke:#000000;stroke-width:0.4;stroke-linecap:round;stroke-linejoin:round"
         d="m 69.999862,25.001058 c -17.000077,1.63e-4 -16.000279,9.000425 -21.000269,10.000423 -4.99999,0.999998 -12.635773,-1.968576 -15.99954,2.999817 -2.01057,2.969678 0.9925,6.989971 0.998905,6.998539 h -3.998722 c 0,0 -1.000216,-5.999634 -5.000212,-5.999634 -3.999996,0 -6.00015,2.999817 -6.00015,2.999817 L 9.9999064,44.999837 C 26.999949,45 26.000195,53.999748 31.000175,54.999744 c 4.99998,0.999996 12.636296,-1.96805 16.000057,3.000333 2.012711,2.97284 -1.000456,7.00009 -1.000456,7.00009 h 4.000273 c 0,0 0.999707,-6.000151 4.999695,-6.000151 3.999988,0 6.00015,2.999817 6.00015,2.999817 l 8.999968,3.000334 c 0,-3.999996 1.2e-4,-7.000366 -1.999878,-11.000362 -1.999998,-3.999996 -5.000032,-6.999969 -8.000029,-8.999968 0,-3.999194 1.48e-4,-6.999352 1.999878,-10.998812 1.999996,-3.999992 5.000035,-6.99997 8.000029,-8.999967 z" />
      <circle
         style="fill:none;stroke:#000000;stroke-width:0.4;stroke-linecap:round;stroke-linejoin:round"
         id="circle690"
         cx="-24.499998"
         cy="41.5"
         r="0.5"
         transform="scale(-1,1)" />
      <path
         style="fill:none;stroke:#000000;stroke-width:0.4;stroke-linecap:round;stroke-linejoin:round"
         d="M 19,42.000001 22,44 19,46"
         id="path692"
         sodipodi:nodetypes="ccc" />
    </g>
    <g
       id="g702"
       transform="matrix(-1,0,0,1,80.199862,120.59694)"
       style="fill:none">
      <path
         id="path696"
         style="fill:none;stroke:#000000;stroke-width:0.4;stroke-linecap:round;stroke-linejoin:round"
         d="m 69.999862,25.001058 c -17.000077,1.63e-4 -16.000279,9.000425 -21.000269,10.000423 -4.99999,0.999998 -12.635773,-1.968576 -15.99954,2.999817 -2.01057,2.969678 0.9925,6.989971 0.998905,6.998539 h -3.998722 c 0,0 -1.000216,-5.999634 -5.000212,-5.999634 -3.999996,0 -6.00015,2.999817 -6.00015,2.999817 L 9.9999064,44.999837 C 26.999949,45 26.000195,53.999748 31.000175,54.999744 c 4.99998,0.999996 12.636296,-1.96805 16.000057,3.000333 2.012711,2.97284 -1.000456,7.00009 -1.000456,7.00009 h 4.000273 c 0,0 0.999707,-6.000151 4.999695,-6.000151 3.999988,0 6.00015,2.999817 6.00015,2.999817 l 8.999968,3.000334 c 0,-3.999996 1.2e-4,-7.000366 -1.999878,-11.000362 -1.999998,-3.999996 -5.000032,-6.999969 -8.000029,-8.999968 0,-3.999194 1.48e-4,-6.999352 1.999878,-10.998812 1.999996,-3.999992 5.000035,-6.99997 8.000029,-8.999967 z" />
      <circle
         style="fill:none;stroke:#000000;stroke-width:0.4;stroke-linecap:round;stroke-linejoin:round"
         id="circle698"
         cx="-24.499998"
         cy="41.5"
         r="0.5"
         transform="scale(-1,1)" />
      <path
         style="fill:none;stroke:#000000;stroke-width:0.4;stroke-linecap:round;stroke-linejoin:round"
         d="M 19,42.000001 22,44 19,46"
         id="path700"
         sodipodi:nodetypes="ccc" />
    </g>
    <g
       id="g710"
       transform="matrix(-1,0,0,1,144.59972,120.59694)"
       style="fill:none">
      <path
         id="path704"
         style="fill:none;stroke:#000000;stroke-width:0.4;stroke-linecap:round;stroke-linejoin:round"
         d="m 69.999862,25.001058 c -17.000077,1.63e-4 -16.000279,9.000425 -21.000269,10.000423 -4.99999,0.999998 -12.635773,-1.968576 -15.99954,2.999817 -2.01057,2.969678 0.9925,6.989971 0.998905,6.998539 h -3.998722 c 0,0 -1.000216,-5.999634 -5.000212,-5.999634 -3.999996,0 -6.00015,2.999817 -6.00015,2.999817 L 9.9999064,44.999837 C 26.999949,45 26.000195,53.999748 31.000175,54.999744 c 4.99998,0.999996 12.636296,-1.96805 16.000057,3.000333 2.012711,2.97284 -1.000456,7.00009 -1.000456,7.00009 h 4.000273 c 0,0 0.999707,-6.000151 4.999695,-6.000151 3.999988,0 6.00015,2.999817 6.00015,2.999817 l 8.999968,3.000334 c 0,-3.999996 1.2e-4,-7.000366 -1.999878,-11.000362 -1.999998,-3.999996 -5.000032,-6.999969 -8.000029,-8.999968 0,-3.999194 1.48e-4,-6.999352 1.999878,-10.998812 1.999996,-3.999992 5.000035,-6.99997 8.000029,-8.999967 z" />
      <circle
         style="fill:none;stroke:#000000;stroke-width:0.4;stroke-linecap:round;stroke-linejoin:round"
         id="circle706"
         cx="-24.499998"
         cy="41.5"
         r="0.5"
         transform="scale(-1,1)" />
      <path
         style="fill:none;stroke:#000000;stroke-width:0.4;stroke-linecap:round;stroke-linejoin:round"
         d="M 19,42.000001 22,44 19,46"
         id="path708"
         sodipodi:nodetypes="ccc" />
    </g>
    <g
       id="g718"
       transform="matrix(-1,0,0,1,208.99957,120.59694)"
       style="fill:none">
      <path
         id="path712"
         style="fill:none;stroke:#000000;stroke-width:0.4;stroke-linecap:round;stroke-linejoin:round"
         d="m 69.999862,25.001058 c -17.000077,1.63e-4 -16.000279,9.000425 -21.000269,10.000423 -4.99999,0.999998 -12.635773,-1.968576 -15.99954,2.999817 -2.01057,2.969678 0.9925,6.989971 0.998905,6.998539 h -3.998722 c 0,0 -1.000216,-5.999634 -5.000212,-5.999634 -3.999996,0 -6.00015,2.999817 -6.00015,2.999817 L 9.9999064,44.999837 C 26.999949,45 26.000195,53.999748 31.000175,54.999744 c 4.99998,0.999996 12.636296,-1.96805 16.000057,3.000333 2.012711,2.97284 -1.000456,7.00009 -1.000456,7.00009 h 4.000273 c 0,0 0.999707,-6.000151 4.999695,-6.000151 3.999988,0 6.00015,2.999817 6.00015,2.999817 l 8.999968,3.000334 c 0,-3.999996 1.2e-4,-7.000366 -1.999878,-11.000362 -1.999998,-3.999996 -5.000032,-6.999969 -8.000029,-8.999968 0,-3.999194 1.48e-4,-6.999352 1.999878,-10.998812 1.999996,-3.999992 5.000035,-6.99997 8.000029,-8.999967 z" />
      <circle
         style="fill:none;stroke:#000000;stroke-width:0.4;stroke-linecap:round;stroke-linejoin:round"
         id="circle714"
         cx="-24.499998"
         cy="41.5"
         r="0.5"
         transform="scale(-1,1)" />
      <path
         style="fill:none;stroke:#000000;stroke-width:0.4;stroke-linecap:round;stroke-linejoin:round"
         d="M 19,42.000001 22,44 19,46"
         id="path716"
         sodipodi:nodetypes="ccc" />
    </g>
    <g
       id="g726"
       transform="translate(128.9997,80.397942)"
       style="fill:none">
      <path
         id="path720"
         style="fill:none;stroke:#000000;stroke-width:0.4;stroke-linecap:round;stroke-linejoin:round"
         d="m 69.999862,25.001058 c -17.000077,1.63e-4 -16.000279,9.000425 -21.000269,10.000423 -4.99999,0.999998 -12.635773,-1.968576 -15.99954,2.999817 -2.01057,2.969678 0.9925,6.989971 0.998905,6.998539 h -3.998722 c 0,0 -1.000216,-5.999634 -5.000212,-5.999634 -3.999996,0 -6.00015,2.999817 -6.00015,2.999817 L 9.9999064,44.999837 C 26.999949,45 26.000195,53.999748 31.000175,54.999744 c 4.99998,0.999996 12.636296,-1.96805 16.000057,3.000333 2.012711,2.97284 -1.000456,7.00009 -1.000456,7.00009 h 4.000273 c 0,0 0.999707,-6.000151 4.999695,-6.000151 3.999988,0 6.00015,2.999817 6.00015,2.999817 l 8.999968,3.000334 c 0,-3.999996 1.2e-4,-7.000366 -1.999878,-11.000362 -1.999998,-3.999996 -5.000032,-6.999969 -8.000029,-8.999968 0,-3.999194 1.48e-4,-6.999352 1.999878,-10.998812 1.999996,-3.999992 5.000035,-6.99997 8.000029,-8.999967 z" />
      <circle
         style="fill:none;stroke:#000000;stroke-width:0.4;stroke-linecap:round;stroke-linejoin:round"
         id="circle722"
         cx="-24.499998"
         cy="41.5"
         r="0.5"
         transform="scale(-1,1)" />
      <path
         style="fill:none;stroke:#000000;stroke-width:0.4;stroke-linecap:round;stroke-linejoin:round"
         d="M 19,42.000001 22,44 19,46"
         id="path724"
         sodipodi:nodetypes="ccc" />
    </g>
    <g
       id="g734"
       transform="translate(64.599844,80.397942)"
       style="fill:none">
      <path
         id="path728"
         style="fill:none;stroke:#000000;stroke-width:0.4;stroke-linecap:round;stroke-linejoin:round"
         d="m 69.999862,25.001058 c -17.000077,1.63e-4 -16.000279,9.000425 -21.000269,10.000423 -4.99999,0.999998 -12.635773,-1.968576 -15.99954,2.999817 -2.01057,2.969678 0.9925,6.989971 0.998905,6.998539 h -3.998722 c 0,0 -1.000216,-5.999634 -5.000212,-5.999634 -3.999996,0 -6.00015,2.999817 -6.00015,2.999817 L 9.9999064,44.999837 C 26.999949,45 26.000195,53.999748 31.000175,54.999744 c 4.99998,0.999996 12.636296,-1.96805 16.000057,3.000333 2.012711,2.97284 -1.000456,7.00009 -1.000456,7.00009 h 4.000273 c 0,0 0.999707,-6.000151 4.999695,-6.000151 3.999988,0 6.00015,2.999817 6.00015,2.999817 l 8.999968,3.000334 c 0,-3.999996 1.2e-4,-7.000366 -1.999878,-11.000362 -1.999998,-3.999996 -5.000032,-6.999969 -8.000029,-8.999968 0,-3.999194 1.48e-4,-6.999352 1.999878,-10.998812 1.999996,-3.999992 5.000035,-6.99997 8.000029,-8.999967 z" />
      <circle
         style="fill:none;stroke:#000000;stroke-width:0.4;stroke-linecap:round;stroke-linejoin:round"
         id="circle730"
         cx="-24.499998"
         cy="41.5"
         r="0.5"
         transform="scale(-1,1)" />
      <path
         style="fill:none;stroke:#000000;stroke-width:0.4;stroke-linecap:round;stroke-linejoin:round"
         d="M 19,42.000001 22,44 19,46"
         id="path732"
         sodipodi:nodetypes="ccc" />
    </g>
    <g
       id="g798"
       transform="translate(0.199991,165.39794)"
       style="fill:none">
      <path
         id="path792"
         style="fill:none;stroke:#000000;stroke-width:0.4;stroke-linecap:round;stroke-linejoin:round"
         d="m 69.999862,25.001058 c -17.000077,1.63e-4 -16.000279,9.000425 -21.000269,10.000423 -4.99999,0.999998 -12.635773,-1.968576 -15.99954,2.999817 -2.01057,2.969678 0.9925,6.989971 0.998905,6.998539 h -3.998722 c 0,0 -1.000216,-5.999634 -5.000212,-5.999634 -3.999996,0 -6.00015,2.999817 -6.00015,2.999817 L 9.9999064,44.999837 C 26.999949,45 26.000195,53.999748 31.000175,54.999744 c 4.99998,0.999996 12.636296,-1.96805 16.000057,3.000333 2.012711,2.97284 -1.000456,7.00009 -1.000456,7.00009 h 4.000273 c 0,0 0.999707,-6.000151 4.999695,-6.000151 3.999988,0 6.00015,2.999817 6.00015,2.999817 l 8.999968,3.000334 c 0,-3.999996 1.2e-4,-7.000366 -1.999878,-11.000362 -1.999998,-3.999996 -5.000032,-6.999969 -8.000029,-8.999968 0,-3.999194 1.48e-4,-6.999352 1.999878,-10.998812 1.999996,-3.999992 5.000035,-6.99997 8.000029,-8.999967 z" />
      <circle
         style="fill:none;stroke:#000000;stroke-width:0.4;stroke-linecap:round;stroke-linejoin:round"
         id="circle794"
         cx="-24.499998"
         cy="41.5"
         r="0.5"
         transform="scale(-1,1)" />
      <path
         style="fill:none;stroke:#000000;stroke-width:0.4;stroke-linecap:round;stroke-linejoin:round"
         d="M 19,42.000001 22,44 19,46"
         id="path796"
         sodipodi:nodetypes="ccc" />
    </g>
    <g
       id="g806"
       transform="matrix(-1,0,0,1,80.199862,205.59694)"
       style="fill:none">
      <path
         id="path800"
         style="fill:none;stroke:#000000;stroke-width:0.4;stroke-linecap:round;stroke-linejoin:round"
         d="m 69.999862,25.001058 c -17.000077,1.63e-4 -16.000279,9.000425 -21.000269,10.000423 -4.99999,0.999998 -12.635773,-1.968576 -15.99954,2.999817 -2.01057,2.969678 0.9925,6.989971 0.998905,6.998539 h -3.998722 c 0,0 -1.000216,-5.999634 -5.000212,-5.999634 -3.999996,0 -6.00015,2.999817 -6.00015,2.999817 L 9.9999064,44.999837 C 26.999949,45 26.000195,53.999748 31.000175,54.999744 c 4.99998,0.999996 12.636296,-1.96805 16.000057,3.000333 2.012711,2.97284 -1.000456,7.00009 -1.000456,7.00009 h 4.000273 c 0,0 0.999707,-6.000151 4.999695,-6.000151 3.999988,0 6.00015,2.999817 6.00015,2.999817 l 8.999968,3.000334 c 0,-3.999996 1.2e-4,-7.000366 -1.999878,-11.000362 -1.999998,-3.999996 -5.000032,-6.999969 -8.000029,-8.999968 0,-3.999194 1.48e-4,-6.999352 1.999878,-10.998812 1.999996,-3.999992 5.000035,-6.99997 8.000029,-8.999967 z" />
      <circle
         style="fill:none;stroke:#000000;stroke-width:0.4;stroke-linecap:round;stroke-linejoin:round"
         id="circle802"
         cx="-24.499998"
         cy="41.5"
         r="0.5"
         transform="scale(-1,1)" />
      <path
         style="fill:none;stroke:#000000;stroke-width:0.4;stroke-linecap:round;stroke-linejoin:round"
         d="M 19,42.000001 22,44 19,46"
         id="path804"
         sodipodi:nodetypes="ccc" />
    </g>
    <g
       id="g814"
       transform="matrix(-1,0,0,1,144.59972,205.59694)"
       style="fill:none">
      <path
         id="path808"
         style="fill:none;stroke:#000000;stroke-width:0.4;stroke-linecap:round;stroke-linejoin:round"
         d="m 69.999862,25.001058 c -17.000077,1.63e-4 -16.000279,9.000425 -21.000269,10.000423 -4.99999,0.999998 -12.635773,-1.968576 -15.99954,2.999817 -2.01057,2.969678 0.9925,6.989971 0.998905,6.998539 h -3.998722 c 0,0 -1.000216,-5.999634 -5.000212,-5.999634 -3.999996,0 -6.00015,2.999817 -6.00015,2.999817 L 9.9999064,44.999837 C 26.999949,45 26.000195,53.999748 31.000175,54.999744 c 4.99998,0.999996 12.636296,-1.96805 16.000057,3.000333 2.012711,2.97284 -1.000456,7.00009 -1.000456,7.00009 h 4.000273 c 0,0 0.999707,-6.000151 4.999695,-6.000151 3.999988,0 6.00015,2.999817 6.00015,2.999817 l 8.999968,3.000334 c 0,-3.999996 1.2e-4,-7.000366 -1.999878,-11.000362 -1.999998,-3.999996 -5.000032,-6.999969 -8.000029,-8.999968 0,-3.999194 1.48e-4,-6.999352 1.999878,-10.998812 1.999996,-3.999992 5.000035,-6.99997 8.000029,-8.999967 z" />
      <circle
         style="fill:none;stroke:#000000;stroke-width:0.4;stroke-linecap:round;stroke-linejoin:round"
         id="circle810"
         cx="-24.499998"
         cy="41.5"
         r="0.5"
         transform="scale(-1,1)" />
      <path
         style="fill:none;stroke:#000000;stroke-width:0.4;stroke-linecap:round;stroke-linejoin:round"
         d="M 19,42.000001 22,44 19,46"
         id="path812"
         sodipodi:nodetypes="ccc" />
    </g>
    <g
       id="g822"
       transform="matrix(-1,0,0,1,208.99957,205.59694)"
       style="fill:none">
      <path
         id="path816"
         style="fill:none;stroke:#000000;stroke-width:0.4;stroke-linecap:round;stroke-linejoin:round"
         d="m 69.999862,25.001058 c -17.000077,1.63e-4 -16.000279,9.000425 -21.000269,10.000423 -4.99999,0.999998 -12.635773,-1.968576 -15.99954,2.999817 -2.01057,2.969678 0.9925,6.989971 0.998905,6.998539 h -3.998722 c 0,0 -1.000216,-5.999634 -5.000212,-5.999634 -3.999996,0 -6.00015,2.999817 -6.00015,2.999817 L 9.9999064,44.999837 C 26.999949,45 26.000195,53.999748 31.000175,54.999744 c 4.99998,0.999996 12.636296,-1.96805 16.000057,3.000333 2.012711,2.97284 -1.000456,7.00009 -1.000456,7.00009 h 4.000273 c 0,0 0.999707,-6.000151 4.999695,-6.000151 3.999988,0 6.00015,2.999817 6.00015,2.999817 l 8.999968,3.000334 c 0,-3.999996 1.2e-4,-7.000366 -1.999878,-11.000362 -1.999998,-3.999996 -5.000032,-6.999969 -8.000029,-8.999968 0,-3.999194 1.48e-4,-6.999352 1.999878,-10.998812 1.999996,-3.999992 5.000035,-6.99997 8.000029,-8.999967 z" />
      <circle
         style="fill:none;stroke:#000000;stroke-width:0.4;stroke-linecap:round;stroke-linejoin:round"
         id="circle818"
         cx="-24.499998"
         cy="41.5"
         r="0.5"
         transform="scale(-1,1)" />
      <path
         style="fill:none;stroke:#000000;stroke-width:0.4;stroke-linecap:round;stroke-linejoin:round"
         d="M 19,42.000001 22,44 19,46"
         id="path820"
         sodipodi:nodetypes="ccc" />
    </g>
    <g
       id="g830"
       transform="translate(128.9997,165.39794)"
       style="fill:none">
      <path
         id="path824"
         style="fill:none;stroke:#000000;stroke-width:0.4;stroke-linecap:round;stroke-linejoin:round"
         d="m 69.999862,25.001058 c -17.000077,1.63e-4 -16.000279,9.000425 -21.000269,10.000423 -4.99999,0.999998 -12.635773,-1.968576 -15.99954,2.999817 -2.01057,2.969678 0.9925,6.989971 0.998905,6.998539 h -3.998722 c 0,0 -1.000216,-5.999634 -5.000212,-5.999634 -3.999996,0 -6.00015,2.999817 -6.00015,2.999817 L 9.9999064,44.999837 C 26.999949,45 26.000195,53.999748 31.000175,54.999744 c 4.99998,0.999996 12.636296,-1.96805 16.000057,3.000333 2.012711,2.97284 -1.000456,7.00009 -1.000456,7.00009 h 4.000273 c 0,0 0.999707,-6.000151 4.999695,-6.000151 3.999988,0 6.00015,2.999817 6.00015,2.999817 l 8.999968,3.000334 c 0,-3.999996 1.2e-4,-7.000366 -1.999878,-11.000362 -1.999998,-3.999996 -5.000032,-6.999969 -8.000029,-8.999968 0,-3.999194 1.48e-4,-6.999352 1.999878,-10.998812 1.999996,-3.999992 5.000035,-6.99997 8.000029,-8.999967 z" />
      <circle
         style="fill:none;stroke:#000000;stroke-width:0.4;stroke-linecap:round;stroke-linejoin:round"
         id="circle826"
         cx="-24.499998"
         cy="41.5"
         r="0.5"
         transform="scale(-1,1)" />
      <path
         style="fill:none;stroke:#000000;stroke-width:0.4;stroke-linecap:round;stroke-linejoin:round"
         d="M 19,42.000001 22,44 19,46"
         id="path828"
         sodipodi:nodetypes="ccc" />
    </g>
    <g
       id="g838"
       transform="translate(64.599844,165.39794)"
       style="fill:none">
      <path
         id="path832"
         style="fill:none;stroke:#000000;stroke-width:0.4;stroke-linecap:round;stroke-linejoin:round"
         d="m 69.999862,25.001058 c -17.000077,1.63e-4 -16.000279,9.000425 -21.000269,10.000423 -4.99999,0.999998 -12.635773,-1.968576 -15.99954,2.999817 -2.01057,2.969678 0.9925,6.989971 0.998905,6.998539 h -3.998722 c 0,0 -1.000216,-5.999634 -5.000212,-5.999634 -3.999996,0 -6.00015,2.999817 -6.00015,2.999817 L 9.9999064,44.999837 C 26.999949,45 26.000195,53.999748 31.000175,54.999744 c 4.99998,0.999996 12.636296,-1.96805 16.000057,3.000333 2.012711,2.97284 -1.000456,7.00009 -1.000456,7.00009 h 4.000273 c 0,0 0.999707,-6.000151 4.999695,-6.000151 3.999988,0 6.00015,2.999817 6.00015,2.999817 l 8.999968,3.000334 c 0,-3.999996 1.2e-4,-7.000366 -1.999878,-11.000362 -1.999998,-3.999996 -5.000032,-6.999969 -8.000029,-8.999968 0,-3.999194 1.48e-4,-6.999352 1.999878,-10.998812 1.999996,-3.999992 5.000035,-6.99997 8.000029,-8.999967 z" />
      <circle
         style="fill:none;stroke:#000000;stroke-width:0.4;stroke-linecap:round;stroke-linejoin:round"
         id="circle834"
         cx="-24.499998"
         cy="41.5"
         r="0.5"
         transform="scale(-1,1)" />
      <path
         style="fill:none;stroke:#000000;stroke-width:0.4;stroke-linecap:round;stroke-linejoin:round"
         d="M 19,42.000001 22,44 19,46"
         id="path836"
         sodipodi:nodetypes="ccc" />
    </g>
    <text
       xml:space="preserve"
       style="font-weight:bold;font-size:4.9389px;font-family:sans-serif;-inkscape-font-specification:'sans-serif Bold';text-align:center;text-anchor:middle;fill:#000000;stroke-width:0.4;stroke-linecap:round;stroke-linejoin:round"
       x="105.09137"
       y="14.612932"
       id="text2981"><tspan
         sodipodi:role="line"
         id="tspan2979"
         style="stroke-width:0.4"
         x="105.09137"
         y="14.612932">TESELAS DE PÁJAROS</tspan></text>
    <g
       id="g5"
       inkscape:export-filename="./_images/taller-teselado-pajaro.png"
       inkscape:export-xdpi="150"
       inkscape:export-ydpi="150">
      <g
         id="g2"
         transform="translate(234.00023,-5.0001687)"
         inkscape:export-filename="./_images/taller-tesela-pajaro.png"
         inkscape:export-xdpi="300"
         inkscape:export-ydpi="300"
         style="fill:none">
        <path
           id="path1"
           style="fill:none;stroke:#000000;stroke-width:0.4;stroke-linecap:round;stroke-linejoin:round"
           d="m 69.999862,25.001058 c -17.000077,1.63e-4 -16.000279,9.000425 -21.000269,10.000423 -4.99999,0.999998 -12.635773,-1.968576 -15.99954,2.999817 -2.01057,2.969678 0.9925,6.989971 0.998905,6.998539 h -3.998722 c 0,0 -1.000216,-5.999634 -5.000212,-5.999634 -3.999996,0 -6.00015,2.999817 -6.00015,2.999817 L 9.9999064,44.999837 C 26.999949,45 26.000195,53.999748 31.000175,54.999744 c 4.99998,0.999996 12.636296,-1.96805 16.000057,3.000333 2.012711,2.97284 -1.000456,7.00009 -1.000456,7.00009 h 4.000273 c 0,0 0.999707,-6.000151 4.999695,-6.000151 3.999988,0 6.00015,2.999817 6.00015,2.999817 l 8.999968,3.000334 c 0,-3.999996 1.2e-4,-7.000366 -1.999878,-11.000362 -1.999998,-3.999996 -5.000032,-6.999969 -8.000029,-8.999968 0,-3.999194 1.48e-4,-6.999352 1.999878,-10.998812 1.999996,-3.999992 5.000035,-6.99997 8.000029,-8.999967 z" />
        <circle
           style="fill:none;stroke:#000000;stroke-width:0.4;stroke-linecap:round;stroke-linejoin:round"
           id="circle1"
           cx="-24.499998"
           cy="41.5"
           r="0.5"
           transform="scale(-1,1)" />
        <path
           style="fill:none;stroke:#000000;stroke-width:0.4;stroke-linecap:round;stroke-linejoin:round"
           d="M 19,42.000001 22,44 19,46"
           id="path2"
           sodipodi:nodetypes="ccc" />
      </g>
      <g
         id="g4"
         transform="matrix(-1,0,0,1,313.99896,15.000161)"
         style="fill:none">
        <path
           id="path3"
           style="fill:none;stroke:#000000;stroke-width:0.4;stroke-linecap:round;stroke-linejoin:round"
           d="m 69.999862,25.001058 c -17.000077,1.63e-4 -16.000279,9.000425 -21.000269,10.000423 -4.99999,0.999998 -12.635773,-1.968576 -15.99954,2.999817 -2.01057,2.969678 0.9925,6.989971 0.998905,6.998539 h -3.998722 c 0,0 -1.000216,-5.999634 -5.000212,-5.999634 -3.999996,0 -6.00015,2.999817 -6.00015,2.999817 L 9.9999064,44.999837 C 26.999949,45 26.000195,53.999748 31.000175,54.999744 c 4.99998,0.999996 12.636296,-1.96805 16.000057,3.000333 2.012711,2.97284 -1.000456,7.00009 -1.000456,7.00009 h 4.000273 c 0,0 0.999707,-6.000151 4.999695,-6.000151 3.999988,0 6.00015,2.999817 6.00015,2.999817 l 8.999968,3.000334 c 0,-3.999996 1.2e-4,-7.000366 -1.999878,-11.000362 -1.999998,-3.999996 -5.000032,-6.999969 -8.000029,-8.999968 0,-3.999194 1.48e-4,-6.999352 1.999878,-10.998812 1.999996,-3.999992 5.000035,-6.99997 8.000029,-8.999967 z" />
        <circle
           style="fill:none;stroke:#000000;stroke-width:0.4;stroke-linecap:round;stroke-linejoin:round"
           id="circle3"
           cx="-24.499998"
           cy="41.5"
           r="0.5"
           transform="scale(-1,1)" />
        <path
           style="fill:none;stroke:#000000;stroke-width:0.4;stroke-linecap:round;stroke-linejoin:round"
           d="M 19,42.000001 22,44 19,46"
           id="path4"
           sodipodi:nodetypes="ccc" />
      </g>
    </g>
    <g
       id="g9"
       transform="translate(50.00064,-0.00164341)">
      <g
         id="g6"
         transform="translate(234.00023,-5.0001687)"
         inkscape:export-filename="./_images/taller-tesela-pajaro.png"
         inkscape:export-xdpi="300"
         inkscape:export-ydpi="300"
         style="fill:none">
        <path
           id="path5"
           style="fill:none;stroke:#000000;stroke-width:0.4;stroke-linecap:round;stroke-linejoin:round"
           d="m 69.999862,25.001058 c -17.000077,1.63e-4 -16.000279,9.000425 -21.000269,10.000423 -4.99999,0.999998 -12.635773,-1.968576 -15.99954,2.999817 -2.01057,2.969678 0.9925,6.989971 0.998905,6.998539 h -3.998722 c 0,0 -1.000216,-5.999634 -5.000212,-5.999634 -3.999996,0 -6.00015,2.999817 -6.00015,2.999817 L 9.9999064,44.999837 C 26.999949,45 26.000195,53.999748 31.000175,54.999744 c 4.99998,0.999996 12.636296,-1.96805 16.000057,3.000333 2.012711,2.97284 -1.000456,7.00009 -1.000456,7.00009 h 4.000273 c 0,0 0.999707,-6.000151 4.999695,-6.000151 3.999988,0 6.00015,2.999817 6.00015,2.999817 l 8.999968,3.000334 c 0,-3.999996 1.2e-4,-7.000366 -1.999878,-11.000362 -1.999998,-3.999996 -5.000032,-6.999969 -8.000029,-8.999968 0,-3.999194 1.48e-4,-6.999352 1.999878,-10.998812 1.999996,-3.999992 5.000035,-6.99997 8.000029,-8.999967 z" />
        <circle
           style="fill:none;stroke:#000000;stroke-width:0.4;stroke-linecap:round;stroke-linejoin:round"
           id="circle5"
           cx="-24.499998"
           cy="41.5"
           r="0.5"
           transform="scale(-1,1)" />
        <path
           style="fill:none;stroke:#000000;stroke-width:0.4;stroke-linecap:round;stroke-linejoin:round"
           d="M 19,42.000001 22,44 19,46"
           id="path6"
           sodipodi:nodetypes="ccc" />
      </g>
      <g
         id="g8"
         transform="matrix(-1,0,0,1,313.99896,15.000161)"
         style="fill:none">
        <path
           id="path7"
           style="fill:none;stroke:#000000;stroke-width:0.4;stroke-linecap:round;stroke-linejoin:round"
           d="m 69.999862,25.001058 c -17.000077,1.63e-4 -16.000279,9.000425 -21.000269,10.000423 -4.99999,0.999998 -12.635773,-1.968576 -15.99954,2.999817 -2.01057,2.969678 0.9925,6.989971 0.998905,6.998539 h -3.998722 c 0,0 -1.000216,-5.999634 -5.000212,-5.999634 -3.999996,0 -6.00015,2.999817 -6.00015,2.999817 L 9.9999064,44.999837 C 26.999949,45 26.000195,53.999748 31.000175,54.999744 c 4.99998,0.999996 12.636296,-1.96805 16.000057,3.000333 2.012711,2.97284 -1.000456,7.00009 -1.000456,7.00009 h 4.000273 c 0,0 0.999707,-6.000151 4.999695,-6.000151 3.999988,0 6.00015,2.999817 6.00015,2.999817 l 8.999968,3.000334 c 0,-3.999996 1.2e-4,-7.000366 -1.999878,-11.000362 -1.999998,-3.999996 -5.000032,-6.999969 -8.000029,-8.999968 0,-3.999194 1.48e-4,-6.999352 1.999878,-10.998812 1.999996,-3.999992 5.000035,-6.99997 8.000029,-8.999967 z" />
        <circle
           style="fill:none;stroke:#000000;stroke-width:0.4;stroke-linecap:round;stroke-linejoin:round"
           id="circle7"
           cx="-24.499998"
           cy="41.5"
           r="0.5"
           transform="scale(-1,1)" />
        <path
           style="fill:none;stroke:#000000;stroke-width:0.4;stroke-linecap:round;stroke-linejoin:round"
           d="M 19,42.000001 22,44 19,46"
           id="path8"
           sodipodi:nodetypes="ccc" />
      </g>
    </g>
    <g
       id="g13"
       transform="translate(100.00069,-0.00164341)">
      <g
         id="g10"
         transform="translate(234.00023,-5.0001687)"
         inkscape:export-filename="./_images/taller-tesela-pajaro.png"
         inkscape:export-xdpi="300"
         inkscape:export-ydpi="300"
         style="fill:none">
        <path
           id="path9"
           style="fill:none;stroke:#000000;stroke-width:0.4;stroke-linecap:round;stroke-linejoin:round"
           d="m 69.999862,25.001058 c -17.000077,1.63e-4 -16.000279,9.000425 -21.000269,10.000423 -4.99999,0.999998 -12.635773,-1.968576 -15.99954,2.999817 -2.01057,2.969678 0.9925,6.989971 0.998905,6.998539 h -3.998722 c 0,0 -1.000216,-5.999634 -5.000212,-5.999634 -3.999996,0 -6.00015,2.999817 -6.00015,2.999817 L 9.9999064,44.999837 C 26.999949,45 26.000195,53.999748 31.000175,54.999744 c 4.99998,0.999996 12.636296,-1.96805 16.000057,3.000333 2.012711,2.97284 -1.000456,7.00009 -1.000456,7.00009 h 4.000273 c 0,0 0.999707,-6.000151 4.999695,-6.000151 3.999988,0 6.00015,2.999817 6.00015,2.999817 l 8.999968,3.000334 c 0,-3.999996 1.2e-4,-7.000366 -1.999878,-11.000362 -1.999998,-3.999996 -5.000032,-6.999969 -8.000029,-8.999968 0,-3.999194 1.48e-4,-6.999352 1.999878,-10.998812 1.999996,-3.999992 5.000035,-6.99997 8.000029,-8.999967 z" />
        <circle
           style="fill:none;stroke:#000000;stroke-width:0.4;stroke-linecap:round;stroke-linejoin:round"
           id="circle9"
           cx="-24.499998"
           cy="41.5"
           r="0.5"
           transform="scale(-1,1)" />
        <path
           style="fill:none;stroke:#000000;stroke-width:0.4;stroke-linecap:round;stroke-linejoin:round"
           d="M 19,42.000001 22,44 19,46"
           id="path10"
           sodipodi:nodetypes="ccc" />
      </g>
      <g
         id="g12"
         transform="matrix(-1,0,0,1,313.99896,15.000161)"
         style="fill:none">
        <path
           id="path11"
           style="fill:none;stroke:#000000;stroke-width:0.4;stroke-linecap:round;stroke-linejoin:round"
           d="m 69.999862,25.001058 c -17.000077,1.63e-4 -16.000279,9.000425 -21.000269,10.000423 -4.99999,0.999998 -12.635773,-1.968576 -15.99954,2.999817 -2.01057,2.969678 0.9925,6.989971 0.998905,6.998539 h -3.998722 c 0,0 -1.000216,-5.999634 -5.000212,-5.999634 -3.999996,0 -6.00015,2.999817 -6.00015,2.999817 L 9.9999064,44.999837 C 26.999949,45 26.000195,53.999748 31.000175,54.999744 c 4.99998,0.999996 12.636296,-1.96805 16.000057,3.000333 2.012711,2.97284 -1.000456,7.00009 -1.000456,7.00009 h 4.000273 c 0,0 0.999707,-6.000151 4.999695,-6.000151 3.999988,0 6.00015,2.999817 6.00015,2.999817 l 8.999968,3.000334 c 0,-3.999996 1.2e-4,-7.000366 -1.999878,-11.000362 -1.999998,-3.999996 -5.000032,-6.999969 -8.000029,-8.999968 0,-3.999194 1.48e-4,-6.999352 1.999878,-10.998812 1.999996,-3.999992 5.000035,-6.99997 8.000029,-8.999967 z" />
        <circle
           style="fill:none;stroke:#000000;stroke-width:0.4;stroke-linecap:round;stroke-linejoin:round"
           id="circle11"
           cx="-24.499998"
           cy="41.5"
           r="0.5"
           transform="scale(-1,1)" />
        <path
           style="fill:none;stroke:#000000;stroke-width:0.4;stroke-linecap:round;stroke-linejoin:round"
           d="M 19,42.000001 22,44 19,46"
           id="path12"
           sodipodi:nodetypes="ccc" />
      </g>
    </g>
    <g
       id="g17"
       transform="translate(-4.47e-4,39.999016)">
      <g
         id="g14"
         transform="translate(234.00023,-5.0001687)"
         inkscape:export-filename="./_images/taller-tesela-pajaro.png"
         inkscape:export-xdpi="300"
         inkscape:export-ydpi="300"
         style="fill:none">
        <path
           id="path13"
           style="fill:none;stroke:#000000;stroke-width:0.4;stroke-linecap:round;stroke-linejoin:round"
           d="m 69.999862,25.001058 c -17.000077,1.63e-4 -16.000279,9.000425 -21.000269,10.000423 -4.99999,0.999998 -12.635773,-1.968576 -15.99954,2.999817 -2.01057,2.969678 0.9925,6.989971 0.998905,6.998539 h -3.998722 c 0,0 -1.000216,-5.999634 -5.000212,-5.999634 -3.999996,0 -6.00015,2.999817 -6.00015,2.999817 L 9.9999064,44.999837 C 26.999949,45 26.000195,53.999748 31.000175,54.999744 c 4.99998,0.999996 12.636296,-1.96805 16.000057,3.000333 2.012711,2.97284 -1.000456,7.00009 -1.000456,7.00009 h 4.000273 c 0,0 0.999707,-6.000151 4.999695,-6.000151 3.999988,0 6.00015,2.999817 6.00015,2.999817 l 8.999968,3.000334 c 0,-3.999996 1.2e-4,-7.000366 -1.999878,-11.000362 -1.999998,-3.999996 -5.000032,-6.999969 -8.000029,-8.999968 0,-3.999194 1.48e-4,-6.999352 1.999878,-10.998812 1.999996,-3.999992 5.000035,-6.99997 8.000029,-8.999967 z" />
        <circle
           style="fill:none;stroke:#000000;stroke-width:0.4;stroke-linecap:round;stroke-linejoin:round"
           id="circle13"
           cx="-24.499998"
           cy="41.5"
           r="0.5"
           transform="scale(-1,1)" />
        <path
           style="fill:none;stroke:#000000;stroke-width:0.4;stroke-linecap:round;stroke-linejoin:round"
           d="M 19,42.000001 22,44 19,46"
           id="path14"
           sodipodi:nodetypes="ccc" />
      </g>
      <g
         id="g16"
         transform="matrix(-1,0,0,1,313.99896,15.000161)"
         style="fill:none">
        <path
           id="path15"
           style="fill:none;stroke:#000000;stroke-width:0.4;stroke-linecap:round;stroke-linejoin:round"
           d="m 69.999862,25.001058 c -17.000077,1.63e-4 -16.000279,9.000425 -21.000269,10.000423 -4.99999,0.999998 -12.635773,-1.968576 -15.99954,2.999817 -2.01057,2.969678 0.9925,6.989971 0.998905,6.998539 h -3.998722 c 0,0 -1.000216,-5.999634 -5.000212,-5.999634 -3.999996,0 -6.00015,2.999817 -6.00015,2.999817 L 9.9999064,44.999837 C 26.999949,45 26.000195,53.999748 31.000175,54.999744 c 4.99998,0.999996 12.636296,-1.96805 16.000057,3.000333 2.012711,2.97284 -1.000456,7.00009 -1.000456,7.00009 h 4.000273 c 0,0 0.999707,-6.000151 4.999695,-6.000151 3.999988,0 6.00015,2.999817 6.00015,2.999817 l 8.999968,3.000334 c 0,-3.999996 1.2e-4,-7.000366 -1.999878,-11.000362 -1.999998,-3.999996 -5.000032,-6.999969 -8.000029,-8.999968 0,-3.999194 1.48e-4,-6.999352 1.999878,-10.998812 1.999996,-3.999992 5.000035,-6.99997 8.000029,-8.999967 z" />
        <circle
           style="fill:none;stroke:#000000;stroke-width:0.4;stroke-linecap:round;stroke-linejoin:round"
           id="circle15"
           cx="-24.499998"
           cy="41.5"
           r="0.5"
           transform="scale(-1,1)" />
        <path
           style="fill:none;stroke:#000000;stroke-width:0.4;stroke-linecap:round;stroke-linejoin:round"
           d="M 19,42.000001 22,44 19,46"
           id="path16"
           sodipodi:nodetypes="ccc" />
      </g>
    </g>
    <g
       id="g21"
       transform="translate(50.000193,39.997373)">
      <g
         id="g18"
         transform="translate(234.00023,-5.0001687)"
         inkscape:export-filename="./_images/taller-tesela-pajaro.png"
         inkscape:export-xdpi="300"
         inkscape:export-ydpi="300"
         style="fill:none">
        <path
           id="path17"
           style="fill:none;stroke:#000000;stroke-width:0.4;stroke-linecap:round;stroke-linejoin:round"
           d="m 69.999862,25.001058 c -17.000077,1.63e-4 -16.000279,9.000425 -21.000269,10.000423 -4.99999,0.999998 -12.635773,-1.968576 -15.99954,2.999817 -2.01057,2.969678 0.9925,6.989971 0.998905,6.998539 h -3.998722 c 0,0 -1.000216,-5.999634 -5.000212,-5.999634 -3.999996,0 -6.00015,2.999817 -6.00015,2.999817 L 9.9999064,44.999837 C 26.999949,45 26.000195,53.999748 31.000175,54.999744 c 4.99998,0.999996 12.636296,-1.96805 16.000057,3.000333 2.012711,2.97284 -1.000456,7.00009 -1.000456,7.00009 h 4.000273 c 0,0 0.999707,-6.000151 4.999695,-6.000151 3.999988,0 6.00015,2.999817 6.00015,2.999817 l 8.999968,3.000334 c 0,-3.999996 1.2e-4,-7.000366 -1.999878,-11.000362 -1.999998,-3.999996 -5.000032,-6.999969 -8.000029,-8.999968 0,-3.999194 1.48e-4,-6.999352 1.999878,-10.998812 1.999996,-3.999992 5.000035,-6.99997 8.000029,-8.999967 z" />
        <circle
           style="fill:none;stroke:#000000;stroke-width:0.4;stroke-linecap:round;stroke-linejoin:round"
           id="circle17"
           cx="-24.499998"
           cy="41.5"
           r="0.5"
           transform="scale(-1,1)" />
        <path
           style="fill:none;stroke:#000000;stroke-width:0.4;stroke-linecap:round;stroke-linejoin:round"
           d="M 19,42.000001 22,44 19,46"
           id="path18"
           sodipodi:nodetypes="ccc" />
      </g>
      <g
         id="g20"
         transform="matrix(-1,0,0,1,313.99896,15.000161)"
         style="fill:none">
        <path
           id="path19"
           style="fill:none;stroke:#000000;stroke-width:0.4;stroke-linecap:round;stroke-linejoin:round"
           d="m 69.999862,25.001058 c -17.000077,1.63e-4 -16.000279,9.000425 -21.000269,10.000423 -4.99999,0.999998 -12.635773,-1.968576 -15.99954,2.999817 -2.01057,2.969678 0.9925,6.989971 0.998905,6.998539 h -3.998722 c 0,0 -1.000216,-5.999634 -5.000212,-5.999634 -3.999996,0 -6.00015,2.999817 -6.00015,2.999817 L 9.9999064,44.999837 C 26.999949,45 26.000195,53.999748 31.000175,54.999744 c 4.99998,0.999996 12.636296,-1.96805 16.000057,3.000333 2.012711,2.97284 -1.000456,7.00009 -1.000456,7.00009 h 4.000273 c 0,0 0.999707,-6.000151 4.999695,-6.000151 3.999988,0 6.00015,2.999817 6.00015,2.999817 l 8.999968,3.000334 c 0,-3.999996 1.2e-4,-7.000366 -1.999878,-11.000362 -1.999998,-3.999996 -5.000032,-6.999969 -8.000029,-8.999968 0,-3.999194 1.48e-4,-6.999352 1.999878,-10.998812 1.999996,-3.999992 5.000035,-6.99997 8.000029,-8.999967 z" />
        <circle
           style="fill:none;stroke:#000000;stroke-width:0.4;stroke-linecap:round;stroke-linejoin:round"
           id="circle19"
           cx="-24.499998"
           cy="41.5"
           r="0.5"
           transform="scale(-1,1)" />
        <path
           style="fill:none;stroke:#000000;stroke-width:0.4;stroke-linecap:round;stroke-linejoin:round"
           d="M 19,42.000001 22,44 19,46"
           id="path20"
           sodipodi:nodetypes="ccc" />
      </g>
    </g>
    <g
       id="g25"
       transform="translate(100.00024,39.997373)">
      <g
         id="g22"
         transform="translate(234.00023,-5.0001687)"
         inkscape:export-filename="./_images/taller-tesela-pajaro.png"
         inkscape:export-xdpi="300"
         inkscape:export-ydpi="300"
         style="fill:none">
        <path
           id="path21"
           style="fill:none;stroke:#000000;stroke-width:0.4;stroke-linecap:round;stroke-linejoin:round"
           d="m 69.999862,25.001058 c -17.000077,1.63e-4 -16.000279,9.000425 -21.000269,10.000423 -4.99999,0.999998 -12.635773,-1.968576 -15.99954,2.999817 -2.01057,2.969678 0.9925,6.989971 0.998905,6.998539 h -3.998722 c 0,0 -1.000216,-5.999634 -5.000212,-5.999634 -3.999996,0 -6.00015,2.999817 -6.00015,2.999817 L 9.9999064,44.999837 C 26.999949,45 26.000195,53.999748 31.000175,54.999744 c 4.99998,0.999996 12.636296,-1.96805 16.000057,3.000333 2.012711,2.97284 -1.000456,7.00009 -1.000456,7.00009 h 4.000273 c 0,0 0.999707,-6.000151 4.999695,-6.000151 3.999988,0 6.00015,2.999817 6.00015,2.999817 l 8.999968,3.000334 c 0,-3.999996 1.2e-4,-7.000366 -1.999878,-11.000362 -1.999998,-3.999996 -5.000032,-6.999969 -8.000029,-8.999968 0,-3.999194 1.48e-4,-6.999352 1.999878,-10.998812 1.999996,-3.999992 5.000035,-6.99997 8.000029,-8.999967 z" />
        <circle
           style="fill:none;stroke:#000000;stroke-width:0.4;stroke-linecap:round;stroke-linejoin:round"
           id="circle21"
           cx="-24.499998"
           cy="41.5"
           r="0.5"
           transform="scale(-1,1)" />
        <path
           style="fill:none;stroke:#000000;stroke-width:0.4;stroke-linecap:round;stroke-linejoin:round"
           d="M 19,42.000001 22,44 19,46"
           id="path22"
           sodipodi:nodetypes="ccc" />
      </g>
      <g
         id="g24"
         transform="matrix(-1,0,0,1,313.99896,15.000161)"
         style="fill:none">
        <path
           id="path23"
           style="fill:none;stroke:#000000;stroke-width:0.4;stroke-linecap:round;stroke-linejoin:round"
           d="m 69.999862,25.001058 c -17.000077,1.63e-4 -16.000279,9.000425 -21.000269,10.000423 -4.99999,0.999998 -12.635773,-1.968576 -15.99954,2.999817 -2.01057,2.969678 0.9925,6.989971 0.998905,6.998539 h -3.998722 c 0,0 -1.000216,-5.999634 -5.000212,-5.999634 -3.999996,0 -6.00015,2.999817 -6.00015,2.999817 L 9.9999064,44.999837 C 26.999949,45 26.000195,53.999748 31.000175,54.999744 c 4.99998,0.999996 12.636296,-1.96805 16.000057,3.000333 2.012711,2.97284 -1.000456,7.00009 -1.000456,7.00009 h 4.000273 c 0,0 0.999707,-6.000151 4.999695,-6.000151 3.999988,0 6.00015,2.999817 6.00015,2.999817 l 8.999968,3.000334 c 0,-3.999996 1.2e-4,-7.000366 -1.999878,-11.000362 -1.999998,-3.999996 -5.000032,-6.999969 -8.000029,-8.999968 0,-3.999194 1.48e-4,-6.999352 1.999878,-10.998812 1.999996,-3.999992 5.000035,-6.99997 8.000029,-8.999967 z" />
        <circle
           style="fill:none;stroke:#000000;stroke-width:0.4;stroke-linecap:round;stroke-linejoin:round"
           id="circle23"
           cx="-24.499998"
           cy="41.5"
           r="0.5"
           transform="scale(-1,1)" />
        <path
           style="fill:none;stroke:#000000;stroke-width:0.4;stroke-linecap:round;stroke-linejoin:round"
           d="M 19,42.000001 22,44 19,46"
           id="path24"
           sodipodi:nodetypes="ccc" />
      </g>
    </g>
    <g
       id="g29"
       transform="translate(-8.94e-4,79.998033)">
      <g
         id="g26"
         transform="translate(234.00023,-5.0001687)"
         inkscape:export-filename="./_images/taller-tesela-pajaro.png"
         inkscape:export-xdpi="300"
         inkscape:export-ydpi="300"
         style="fill:none">
        <path
           id="path25"
           style="fill:none;stroke:#000000;stroke-width:0.4;stroke-linecap:round;stroke-linejoin:round"
           d="m 69.999862,25.001058 c -17.000077,1.63e-4 -16.000279,9.000425 -21.000269,10.000423 -4.99999,0.999998 -12.635773,-1.968576 -15.99954,2.999817 -2.01057,2.969678 0.9925,6.989971 0.998905,6.998539 h -3.998722 c 0,0 -1.000216,-5.999634 -5.000212,-5.999634 -3.999996,0 -6.00015,2.999817 -6.00015,2.999817 L 9.9999064,44.999837 C 26.999949,45 26.000195,53.999748 31.000175,54.999744 c 4.99998,0.999996 12.636296,-1.96805 16.000057,3.000333 2.012711,2.97284 -1.000456,7.00009 -1.000456,7.00009 h 4.000273 c 0,0 0.999707,-6.000151 4.999695,-6.000151 3.999988,0 6.00015,2.999817 6.00015,2.999817 l 8.999968,3.000334 c 0,-3.999996 1.2e-4,-7.000366 -1.999878,-11.000362 -1.999998,-3.999996 -5.000032,-6.999969 -8.000029,-8.999968 0,-3.999194 1.48e-4,-6.999352 1.999878,-10.998812 1.999996,-3.999992 5.000035,-6.99997 8.000029,-8.999967 z" />
        <circle
           style="fill:none;stroke:#000000;stroke-width:0.4;stroke-linecap:round;stroke-linejoin:round"
           id="circle25"
           cx="-24.499998"
           cy="41.5"
           r="0.5"
           transform="scale(-1,1)" />
        <path
           style="fill:none;stroke:#000000;stroke-width:0.4;stroke-linecap:round;stroke-linejoin:round"
           d="M 19,42.000001 22,44 19,46"
           id="path26"
           sodipodi:nodetypes="ccc" />
      </g>
      <g
         id="g28"
         transform="matrix(-1,0,0,1,313.99896,15.000161)"
         style="fill:none">
        <path
           id="path27"
           style="fill:none;stroke:#000000;stroke-width:0.4;stroke-linecap:round;stroke-linejoin:round"
           d="m 69.999862,25.001058 c -17.000077,1.63e-4 -16.000279,9.000425 -21.000269,10.000423 -4.99999,0.999998 -12.635773,-1.968576 -15.99954,2.999817 -2.01057,2.969678 0.9925,6.989971 0.998905,6.998539 h -3.998722 c 0,0 -1.000216,-5.999634 -5.000212,-5.999634 -3.999996,0 -6.00015,2.999817 -6.00015,2.999817 L 9.9999064,44.999837 C 26.999949,45 26.000195,53.999748 31.000175,54.999744 c 4.99998,0.999996 12.636296,-1.96805 16.000057,3.000333 2.012711,2.97284 -1.000456,7.00009 -1.000456,7.00009 h 4.000273 c 0,0 0.999707,-6.000151 4.999695,-6.000151 3.999988,0 6.00015,2.999817 6.00015,2.999817 l 8.999968,3.000334 c 0,-3.999996 1.2e-4,-7.000366 -1.999878,-11.000362 -1.999998,-3.999996 -5.000032,-6.999969 -8.000029,-8.999968 0,-3.999194 1.48e-4,-6.999352 1.999878,-10.998812 1.999996,-3.999992 5.000035,-6.99997 8.000029,-8.999967 z" />
        <circle
           style="fill:none;stroke:#000000;stroke-width:0.4;stroke-linecap:round;stroke-linejoin:round"
           id="circle27"
           cx="-24.499998"
           cy="41.5"
           r="0.5"
           transform="scale(-1,1)" />
        <path
           style="fill:none;stroke:#000000;stroke-width:0.4;stroke-linecap:round;stroke-linejoin:round"
           d="M 19,42.000001 22,44 19,46"
           id="path28"
           sodipodi:nodetypes="ccc" />
      </g>
    </g>
    <g
       id="g33"
       transform="translate(49.999746,79.99639)">
      <g
         id="g30"
         transform="translate(234.00023,-5.0001687)"
         inkscape:export-filename="./_images/taller-tesela-pajaro.png"
         inkscape:export-xdpi="300"
         inkscape:export-ydpi="300"
         style="fill:none">
        <path
           id="path29"
           style="fill:none;stroke:#000000;stroke-width:0.4;stroke-linecap:round;stroke-linejoin:round"
           d="m 69.999862,25.001058 c -17.000077,1.63e-4 -16.000279,9.000425 -21.000269,10.000423 -4.99999,0.999998 -12.635773,-1.968576 -15.99954,2.999817 -2.01057,2.969678 0.9925,6.989971 0.998905,6.998539 h -3.998722 c 0,0 -1.000216,-5.999634 -5.000212,-5.999634 -3.999996,0 -6.00015,2.999817 -6.00015,2.999817 L 9.9999064,44.999837 C 26.999949,45 26.000195,53.999748 31.000175,54.999744 c 4.99998,0.999996 12.636296,-1.96805 16.000057,3.000333 2.012711,2.97284 -1.000456,7.00009 -1.000456,7.00009 h 4.000273 c 0,0 0.999707,-6.000151 4.999695,-6.000151 3.999988,0 6.00015,2.999817 6.00015,2.999817 l 8.999968,3.000334 c 0,-3.999996 1.2e-4,-7.000366 -1.999878,-11.000362 -1.999998,-3.999996 -5.000032,-6.999969 -8.000029,-8.999968 0,-3.999194 1.48e-4,-6.999352 1.999878,-10.998812 1.999996,-3.999992 5.000035,-6.99997 8.000029,-8.999967 z" />
        <circle
           style="fill:none;stroke:#000000;stroke-width:0.4;stroke-linecap:round;stroke-linejoin:round"
           id="circle29"
           cx="-24.499998"
           cy="41.5"
           r="0.5"
           transform="scale(-1,1)" />
        <path
           style="fill:none;stroke:#000000;stroke-width:0.4;stroke-linecap:round;stroke-linejoin:round"
           d="M 19,42.000001 22,44 19,46"
           id="path30"
           sodipodi:nodetypes="ccc" />
      </g>
      <g
         id="g32"
         transform="matrix(-1,0,0,1,313.99896,15.000161)"
         style="fill:none">
        <path
           id="path31"
           style="fill:none;stroke:#000000;stroke-width:0.4;stroke-linecap:round;stroke-linejoin:round"
           d="m 69.999862,25.001058 c -17.000077,1.63e-4 -16.000279,9.000425 -21.000269,10.000423 -4.99999,0.999998 -12.635773,-1.968576 -15.99954,2.999817 -2.01057,2.969678 0.9925,6.989971 0.998905,6.998539 h -3.998722 c 0,0 -1.000216,-5.999634 -5.000212,-5.999634 -3.999996,0 -6.00015,2.999817 -6.00015,2.999817 L 9.9999064,44.999837 C 26.999949,45 26.000195,53.999748 31.000175,54.999744 c 4.99998,0.999996 12.636296,-1.96805 16.000057,3.000333 2.012711,2.97284 -1.000456,7.00009 -1.000456,7.00009 h 4.000273 c 0,0 0.999707,-6.000151 4.999695,-6.000151 3.999988,0 6.00015,2.999817 6.00015,2.999817 l 8.999968,3.000334 c 0,-3.999996 1.2e-4,-7.000366 -1.999878,-11.000362 -1.999998,-3.999996 -5.000032,-6.999969 -8.000029,-8.999968 0,-3.999194 1.48e-4,-6.999352 1.999878,-10.998812 1.999996,-3.999992 5.000035,-6.99997 8.000029,-8.999967 z" />
        <circle
           style="fill:none;stroke:#000000;stroke-width:0.4;stroke-linecap:round;stroke-linejoin:round"
           id="circle31"
           cx="-24.499998"
           cy="41.5"
           r="0.5"
           transform="scale(-1,1)" />
        <path
           style="fill:none;stroke:#000000;stroke-width:0.4;stroke-linecap:round;stroke-linejoin:round"
           d="M 19,42.000001 22,44 19,46"
           id="path32"
           sodipodi:nodetypes="ccc" />
      </g>
    </g>
    <g
       id="g37"
       transform="translate(99.999793,79.99639)">
      <g
         id="g34"
         transform="translate(234.00023,-5.0001687)"
         inkscape:export-filename="./_images/taller-tesela-pajaro.png"
         inkscape:export-xdpi="300"
         inkscape:export-ydpi="300"
         style="fill:none">
        <path
           id="path33"
           style="fill:none;stroke:#000000;stroke-width:0.4;stroke-linecap:round;stroke-linejoin:round"
           d="m 69.999862,25.001058 c -17.000077,1.63e-4 -16.000279,9.000425 -21.000269,10.000423 -4.99999,0.999998 -12.635773,-1.968576 -15.99954,2.999817 -2.01057,2.969678 0.9925,6.989971 0.998905,6.998539 h -3.998722 c 0,0 -1.000216,-5.999634 -5.000212,-5.999634 -3.999996,0 -6.00015,2.999817 -6.00015,2.999817 L 9.9999064,44.999837 C 26.999949,45 26.000195,53.999748 31.000175,54.999744 c 4.99998,0.999996 12.636296,-1.96805 16.000057,3.000333 2.012711,2.97284 -1.000456,7.00009 -1.000456,7.00009 h 4.000273 c 0,0 0.999707,-6.000151 4.999695,-6.000151 3.999988,0 6.00015,2.999817 6.00015,2.999817 l 8.999968,3.000334 c 0,-3.999996 1.2e-4,-7.000366 -1.999878,-11.000362 -1.999998,-3.999996 -5.000032,-6.999969 -8.000029,-8.999968 0,-3.999194 1.48e-4,-6.999352 1.999878,-10.998812 1.999996,-3.999992 5.000035,-6.99997 8.000029,-8.999967 z" />
        <circle
           style="fill:none;stroke:#000000;stroke-width:0.4;stroke-linecap:round;stroke-linejoin:round"
           id="circle33"
           cx="-24.499998"
           cy="41.5"
           r="0.5"
           transform="scale(-1,1)" />
        <path
           style="fill:none;stroke:#000000;stroke-width:0.4;stroke-linecap:round;stroke-linejoin:round"
           d="M 19,42.000001 22,44 19,46"
           id="path34"
           sodipodi:nodetypes="ccc" />
      </g>
      <g
         id="g36"
         transform="matrix(-1,0,0,1,313.99896,15.000161)"
         style="fill:none">
        <path
           id="path35"
           style="fill:none;stroke:#000000;stroke-width:0.4;stroke-linecap:round;stroke-linejoin:round"
           d="m 69.999862,25.001058 c -17.000077,1.63e-4 -16.000279,9.000425 -21.000269,10.000423 -4.99999,0.999998 -12.635773,-1.968576 -15.99954,2.999817 -2.01057,2.969678 0.9925,6.989971 0.998905,6.998539 h -3.998722 c 0,0 -1.000216,-5.999634 -5.000212,-5.999634 -3.999996,0 -6.00015,2.999817 -6.00015,2.999817 L 9.9999064,44.999837 C 26.999949,45 26.000195,53.999748 31.000175,54.999744 c 4.99998,0.999996 12.636296,-1.96805 16.000057,3.000333 2.012711,2.97284 -1.000456,7.00009 -1.000456,7.00009 h 4.000273 c 0,0 0.999707,-6.000151 4.999695,-6.000151 3.999988,0 6.00015,2.999817 6.00015,2.999817 l 8.999968,3.000334 c 0,-3.999996 1.2e-4,-7.000366 -1.999878,-11.000362 -1.999998,-3.999996 -5.000032,-6.999969 -8.000029,-8.999968 0,-3.999194 1.48e-4,-6.999352 1.999878,-10.998812 1.999996,-3.999992 5.000035,-6.99997 8.000029,-8.999967 z" />
        <circle
           style="fill:none;stroke:#000000;stroke-width:0.4;stroke-linecap:round;stroke-linejoin:round"
           id="circle35"
           cx="-24.499998"
           cy="41.5"
           r="0.5"
           transform="scale(-1,1)" />
        <path
           style="fill:none;stroke:#000000;stroke-width:0.4;stroke-linecap:round;stroke-linejoin:round"
           d="M 19,42.000001 22,44 19,46"
           id="path36"
           sodipodi:nodetypes="ccc" />
      </g>
    </g>
  </g>
  <metadata
     id="metadata1101">
    <rdf:RDF>
      <cc:Work
         rdf:about="">
        <dc:title>Teselas de pájaros</dc:title>
        <dc:date>30/04/2026</dc:date>
        <dc:creator>
          <cc:Agent>
            <dc:title>Carlos Félix Pardo Martín</dc:title>
          </cc:Agent>
        </dc:creator>
        <dc:rights>
          <cc:Agent>
            <dc:title>Licencia Creative Commons BY-SA 4.0</dc:title>
          </cc:Agent>
        </dc:rights>
        <dc:publisher>
          <cc:Agent>
            <dc:title>www.picuino.com</dc:title>
          </cc:Agent>
        </dc:publisher>
        <cc:license
           rdf:resource="http://creativecommons.org/licenses/by-sa/4.0/" />
      </cc:Work>
      <cc:License
         rdf:about="http://creativecommons.org/licenses/by-sa/4.0/">
        <cc:permits
           rdf:resource="http://creativecommons.org/ns#Reproduction" />
        <cc:permits
           rdf:resource="http://creativecommons.org/ns#Distribution" />
        <cc:requires
           rdf:resource="http://creativecommons.org/ns#Notice" />
        <cc:requires
           rdf:resource="http://creativecommons.org/ns#Attribution" />
        <cc:permits
           rdf:resource="http://creativecommons.org/ns#DerivativeWorks" />
        <cc:requires
           rdf:resource="http://creativecommons.org/ns#ShareAlike" />
      </cc:License>
    </rdf:RDF>
  </metadata>
</svg>
