<?xml version="1.0" encoding="UTF-8" standalone="no"?>
<!-- Created with Inkscape (http://www.inkscape.org/) -->

<svg
   width="210mm"
   height="297mm"
   viewBox="0 0 210 297"
   version="1.1"
   id="svg5"
   inkscape:version="1.2.1 (9c6d41e410, 2022-07-14)"
   sodipodi:docname="taller-tesela-pez-volador-3d.svg"
   xmlns:inkscape="http://www.inkscape.org/namespaces/inkscape"
   xmlns:sodipodi="http://sodipodi.sourceforge.net/DTD/sodipodi-0.dtd"
   xmlns="http://www.w3.org/2000/svg"
   xmlns:svg="http://www.w3.org/2000/svg"
   xmlns:rdf="http://www.w3.org/1999/02/22-rdf-syntax-ns#"
   xmlns:cc="http://creativecommons.org/ns#"
   xmlns:dc="http://purl.org/dc/elements/1.1/">
  <title
     id="title1624">Teselas de peces voladores</title>
  <sodipodi:namedview
     id="namedview7"
     pagecolor="#ffffff"
     bordercolor="#000000"
     borderopacity="0.25"
     inkscape:showpageshadow="2"
     inkscape:pageopacity="0.0"
     inkscape:pagecheckerboard="0"
     inkscape:deskcolor="#d1d1d1"
     inkscape:document-units="mm"
     showgrid="true"
     inkscape:zoom="1.4142136"
     inkscape:cx="75.660422"
     inkscape:cy="83.438596"
     inkscape:window-width="1920"
     inkscape:window-height="1009"
     inkscape:window-x="-8"
     inkscape:window-y="-8"
     inkscape:window-maximized="1"
     inkscape:current-layer="layer1"
     inkscape:export-bgcolor="#ffffffff">
    <inkscape:grid
       type="xygrid"
       id="grid1779"
       units="mm"
       spacingx="1"
       spacingy="1"
       originx="0"
       originy="0" />
  </sodipodi:namedview>
  <defs
     id="defs2" />
  <g
     inkscape:label="Capa 1"
     inkscape:groupmode="layer"
     id="layer1">
    <path
       id="path859"
       style="fill:#525252;fill-opacity:1;stroke:none;stroke-width:0;stroke-linecap:round;stroke-linejoin:round;stroke-dasharray:none;stroke-dashoffset:2.28557;stroke-opacity:1"
       d="m 2.0167986,-11.250389 c -0.1447878,0.01827 -0.2168588,-0.07207 -0.2667922,-0.195474 -1.9535172,-3.3838 -3.9070344,-6.767601 -5.8605515,-10.151401 -3.1393229,-0.841146 -6.2786459,-1.682292 -9.4179689,-2.523438 -0.841146,3.139192 -1.682292,6.278386 -2.523437,9.417578 1.992708,3.451433 3.985416,6.9028648 5.978125,10.3542972 -0.01959,0.1446606 -0.125717,0.1904158 -0.2577,0.2066114 -8.550689,2.280218 -17.101378,4.56043606 -25.652066,6.8406542 7.786588,8.3089842 15.573177,16.6179692 23.359766,24.9269532 3.3095048,-5.732162 6.61901,-11.464323 9.9285152,-17.196484 0.1369287,-0.05322 0.228998,0.01591 0.3059027,0.1264 7.7706887,8.291721 15.5413771,16.583442 23.3120661,24.875162 2.304818,-8.560938 4.609636,-17.121875 6.914454,-25.6828124 -3.953908,-2e-7 -7.907814,0 -11.86172,0 C 15.809606,9.6775068 15.712265,9.5046582 15.575123,9.391529 13.350213,7.1666188 11.125303,4.9417084 8.9003924,2.7167981 8.86106,2.5771728 8.9632678,2.4961754 9.0559558,2.4112346 11.337435,0.1297558 13.618914,-2.151723 15.900392,-4.4332018 c 0.173726,-0.067315 0.37135,-0.013748 0.555,-0.030859 3.782708,0 7.565418,0 11.348126,0 C 25.509246,-13.026431 23.214976,-21.5888 20.920704,-30.15117 14.619403,-23.85091 8.3181008,-17.55065 2.0167986,-11.250389 Z" />
    <path
       style="fill:none;stroke:#000000;stroke-width:0.4;stroke-linecap:round;stroke-linejoin:round;stroke-dashoffset:2.28557"
       d="m 67.32051,62.399998 v 0 0"
       id="path63"
       sodipodi:nodetypes="ccc" />
    <g
       id="g90"
       transform="rotate(-150,-56.003987,30.786689)" />
    <path
       style="color:#000000;fill:#000000;stroke-linecap:round;stroke-linejoin:round;stroke-dashoffset:2.28557;-inkscape-stroke:none"
       d="m -9.044531,-16.732422 a 0.30000001,0.30000001 0 0 0 -0.226563,0.0293 0.30000001,0.30000001 0 0 0 -0.113281,0.408203 C -3.757227,-6.3584939 0.065396,1.3125199 4.504297,7.4140655 8.943198,13.515611 14.009318,18.039064 22.06094,21.621097 a 0.30000001,0.30000001 0 0 0 0.39648,-0.152344 0.30000001,0.30000001 0 0 0 -0.15234,-0.396484 C 14.339037,17.528305 9.383093,13.100953 4.988672,7.0605469 0.59425,1.020141 -3.227949,-6.6396581 -8.862891,-16.589844 a 0.30000001,0.30000001 0 0 0 -0.18164,-0.142578 z"
       id="path77" />
    <path
       style="color:#000000;fill:#000000;stroke-linecap:round;stroke-linejoin:round;stroke-dashoffset:2.28557;-inkscape-stroke:none"
       d="m 20.24453,-24.96875 a 0.30000001,0.30000001 0 0 0 -0.212889,0.08398 L 3.164453,-8.6484375 a 0.30000001,0.30000001 0 0 0 -0.0098,0.4238281 0.30000001,0.30000001 0 0 0 0.425782,0.00977 L 20.44766,-24.451172 a 0.30000001,0.30000001 0 0 0 0.008,-0.425781 0.30000001,0.30000001 0 0 0 -0.21094,-0.0918 z"
       id="path78" />
    <path
       style="color:#000000;fill:#000000;stroke-linecap:round;stroke-linejoin:round;stroke-dashoffset:2.28557;-inkscape-stroke:none"
       d="M 20.9125,-17.722656 4.914453,-5.2363281 a 0.30000001,0.30000001 0 0 0 -0.05078,0.421875 0.30000001,0.30000001 0 0 0 0.421875,0.050781 L 21.28164,-17.25 a 0.30000001,0.30000001 0 0 0 0.0508,-0.419922 0.30000001,0.30000001 0 0 0 -0.41992,-0.05273 z"
       id="path79" />
    <path
       style="color:#000000;fill:#000000;stroke-linecap:round;stroke-linejoin:round;stroke-dashoffset:2.28557;-inkscape-stroke:none"
       d="m 23.42422,-10.158203 -8.958986,2.4980468 a 0.30003001,0.30003001 0 0 0 -0.09961,0.050781 l -7.71875,5.796875 a 0.30000001,0.30000001 0 0 0 -0.06055,0.4199219 0.30000001,0.30000001 0 0 0 0.419922,0.060547 l 7.673828,-5.765625 8.906252,-2.4843751 a 0.30000001,0.30000001 0 0 0 0.20898,-0.3691406 0.30000001,0.30000001 0 0 0 -0.37109,-0.207031 z"
       id="path80" />
    <path
       style="color:#000000;fill:#000000;stroke-linecap:round;stroke-linejoin:round;stroke-dashoffset:2.28557;-inkscape-stroke:none"
       d="m 15.637109,10.634766 a 0.30000001,0.30000001 0 0 0 -0.361328,0.224609 0.30000001,0.30000001 0 0 0 0.22461,0.361328 l 9.199219,2.134766 a 0.30000001,0.30000001 0 0 0 0.35937,-0.22461 0.30000001,0.30000001 0 0 0 -0.2246,-0.361328 z"
       id="path81" />
    <path
       style="color:#000000;fill:#000000;stroke-linecap:round;stroke-linejoin:round;stroke-dashoffset:2.28557;-inkscape-stroke:none"
       d="m 14.621484,13.111328 a 0.30000001,0.30000001 0 0 0 -0.392578,0.158203 0.30000001,0.30000001 0 0 0 0.15625,0.392578 l 9.136724,3.923828 a 0.30000001,0.30000001 0 0 0 0.39257,-0.158203 0.30000001,0.30000001 0 0 0 -0.15625,-0.392578 z"
       id="path82" />
    <path
       style="color:#000000;fill:#000000;stroke-linecap:round;stroke-linejoin:round;stroke-dashoffset:2.28557;-inkscape-stroke:none"
       d="m 11.955469,18.939453 a 0.30000001,0.30000001 0 0 0 -0.417969,0.07031 0.30000001,0.30000001 0 0 0 0.07031,0.417968 l 8.917968,6.328125 a 0.30000001,0.30000001 0 0 0 0.41797,-0.07031 0.30000001,0.30000001 0 0 0 -0.0723,-0.417969 z"
       id="path83" />
    <path
       style="color:#000000;fill:#000000;stroke-linecap:round;stroke-linejoin:round;stroke-dashoffset:2.28557;-inkscape-stroke:none"
       d="m 10.867578,21.208984 a 0.30000001,0.30000001 0 0 0 -0.423828,0.02539 0.30000001,0.30000001 0 0 0 0.02539,0.423828 l 8.988281,7.970703 a 0.30000001,0.30000001 0 0 0 0.423828,-0.02539 0.30000001,0.30000001 0 0 0 -0.02734,-0.423829 z"
       id="path84" />
    <path
       style="color:#000000;fill:#000000;stroke-linecap:round;stroke-linejoin:round;stroke-dashoffset:2.28557;-inkscape-stroke:none"
       d="M -4.386328,6.4921875 A 0.30000001,0.30000001 0 0 0 -4.80625,6.5566406 L -15.138281,20.664062 a 0.30000001,0.30000001 0 0 0 0.06445,0.417969 0.30000001,0.30000001 0 0 0 0.419922,-0.06445 L -4.321875,6.9121094 a 0.30000001,0.30000001 0 0 0 -0.06445,-0.4199219 z"
       id="path85" />
    <path
       style="color:#000000;fill:#000000;stroke-linecap:round;stroke-linejoin:round;stroke-dashoffset:2.28557;-inkscape-stroke:none"
       d="m -6.353125,2.8105469 a 0.30000001,0.30000001 0 0 0 -0.224609,0.050781 L -21.4625,13.320313 a 0.30000001,0.30000001 0 0 0 -0.07227,0.417968 0.30000001,0.30000001 0 0 0 0.416016,0.07227 L -6.232031,3.3515625 A 0.30000001,0.30000001 0 0 0 -6.159761,2.9335938 0.30000001,0.30000001 0 0 0 -6.35312,2.8105469 Z"
       id="path86" />
    <path
       style="color:#000000;fill:#000000;stroke-linecap:round;stroke-linejoin:round;stroke-dashoffset:2.28557;-inkscape-stroke:none"
       d="m -8.849219,-1.7246094 -19.771484,8.2128906 a 0.30000001,0.30000001 0 0 0 -0.16211,0.3925782 0.30000001,0.30000001 0 0 0 0.392579,0.1621093 L -8.620703,-1.1699219 A 0.30000001,0.30000001 0 0 0 -8.458594,-1.5625 0.30000001,0.30000001 0 0 0 -8.849219,-1.7246094 Z"
       id="path87" />
    <path
       style="color:#000000;fill:#000000;stroke-linecap:round;stroke-linejoin:round;stroke-dashoffset:2.28557;-inkscape-stroke:none"
       d="m -10.601386,-12.010341 c 1.52583,-0.880938 2.049532,-2.840734 1.16859,-4.36657 -0.880942,-1.525835 -2.839049,-2.050503 -4.364879,-1.169565 -1.525829,0.880938 -2.052198,2.840019 -1.171256,4.365854 0.880942,1.525836 2.841716,2.051219 4.367545,1.170281 z m -0.299805,-0.519277 c -1.245006,0.718805 -2.829653,0.294209 -3.548464,-0.950808 -0.71881,-1.245017 -0.293222,-2.827968 0.951785,-3.546773 1.245008,-0.718806 2.826986,-0.294923 3.545796,0.950093 0.718811,1.245017 0.295891,2.828682 -0.949117,3.547488 z"
       id="ellipse87" />
    <g
       id="circle87"
       transform="rotate(150,-39.95,-10.704571)">
      <path
         style="color:#000000;fill:#000000;stroke-width:0.6;stroke-linecap:round;stroke-linejoin:round;stroke-dashoffset:2.28557;-inkscape-stroke:none"
         d="m -64.718814,-19.92794 a 1.3,1.3 0 0 1 -1.3,1.3 1.3,1.3 0 0 1 -1.3,-1.3 1.3,1.3 0 0 1 1.3,-1.3 1.3,1.3 0 0 1 1.3,1.3 z"
         id="path1026" />
      <path
         style="color:#000000;fill:#000000;stroke-linecap:round;stroke-linejoin:round;stroke-dashoffset:2.28557;-inkscape-stroke:none"
         d="m -66.019531,-21.527344 c -0.880102,0 -1.59961,0.719508 -1.59961,1.59961 0,0.880101 0.719508,1.599609 1.59961,1.599609 0.880101,0 1.601562,-0.719508 1.601562,-1.599609 0,-0.880102 -0.721461,-1.59961 -1.601562,-1.59961 z m 0,0.59961 c 0.555837,0 1,0.444162 1,1 0,0.555837 -0.444163,1 -1,1 -0.555838,0 -1,-0.444163 -1,-1 0,-0.555838 0.444162,-1 1,-1 z"
         id="path1028" />
    </g>
    <path
       style="color:#000000;fill:#000000;stroke-linecap:round;stroke-linejoin:round;stroke-dashoffset:2.28557;-inkscape-stroke:none"
       d="m -4.539208,-15.510341 c 1.52583,-0.880938 2.049532,-2.840734 1.16859,-4.36657 -0.880942,-1.525835 -2.839049,-2.050503 -4.364879,-1.169565 -1.525829,0.880938 -2.052198,2.840019 -1.171256,4.365854 0.880942,1.525836 2.841716,2.051219 4.367545,1.170281 z m -0.299805,-0.519277 c -1.245006,0.718805 -2.829653,0.294209 -3.548464,-0.950808 -0.71881,-1.245017 -0.293222,-2.827968 0.951785,-3.546773 1.245007,-0.718806 2.826986,-0.294923 3.545796,0.950093 0.718811,1.245017 0.295891,2.828682 -0.949117,3.547488 z"
       id="ellipse88" />
    <g
       id="circle88"
       transform="rotate(150,-39.95,-10.704571)">
      <path
         style="color:#000000;fill:#000000;stroke-width:0.6;stroke-linecap:round;stroke-linejoin:round;stroke-dashoffset:2.28557;-inkscape-stroke:none"
         d="m -71.718814,-19.927942 a 1.3,1.3 0 0 1 -1.3,1.3 1.3,1.3 0 0 1 -1.3,-1.3 1.3,1.3 0 0 1 1.3,-1.3 1.3,1.3 0 0 1 1.3,1.3 z"
         id="path1036" />
      <path
         style="color:#000000;fill:#000000;stroke-linecap:round;stroke-linejoin:round;stroke-dashoffset:2.28557;-inkscape-stroke:none"
         d="m -73.019531,-21.527344 c -0.880102,0 -1.59961,0.719508 -1.59961,1.59961 0,0.880101 0.719508,1.599609 1.59961,1.599609 0.880101,0 1.601562,-0.719508 1.601562,-1.599609 0,-0.880102 -0.721461,-1.59961 -1.601562,-1.59961 z m 0,0.59961 c 0.555837,0 1,0.444162 1,1 0,0.555837 -0.444163,1 -1,1 -0.555838,0 -1,-0.444163 -1,-1 0,-0.555838 0.444162,-1 1,-1 z"
         id="path1038" />
    </g>
  </g>
  <metadata
     id="metadata1622">
    <rdf:RDF>
      <cc:Work
         rdf:about="">
        <cc:license
           rdf:resource="http://creativecommons.org/licenses/by-sa/4.0/" />
        <dc:title>Teselas de peces voladores</dc:title>
        <dc:date>30/04/2026</dc:date>
        <dc:creator>
          <cc:Agent>
            <dc:title>Carlos Félix Pardo Martín</dc:title>
          </cc:Agent>
        </dc:creator>
        <dc:rights>
          <cc:Agent>
            <dc:title>Licencia Creative Commons BY-SA 4.0</dc:title>
          </cc:Agent>
        </dc:rights>
        <dc:publisher>
          <cc:Agent>
            <dc:title>www.picuino.com</dc:title>
          </cc:Agent>
        </dc:publisher>
      </cc:Work>
      <cc:License
         rdf:about="http://creativecommons.org/licenses/by-sa/4.0/">
        <cc:permits
           rdf:resource="http://creativecommons.org/ns#Reproduction" />
        <cc:permits
           rdf:resource="http://creativecommons.org/ns#Distribution" />
        <cc:requires
           rdf:resource="http://creativecommons.org/ns#Notice" />
        <cc:requires
           rdf:resource="http://creativecommons.org/ns#Attribution" />
        <cc:permits
           rdf:resource="http://creativecommons.org/ns#DerivativeWorks" />
        <cc:requires
           rdf:resource="http://creativecommons.org/ns#ShareAlike" />
      </cc:License>
    </rdf:RDF>
  </metadata>
</svg>
