<?xml version="1.0" encoding="UTF-8" standalone="no"?>
<!-- Created with Inkscape (http://www.inkscape.org/) -->

<svg
   width="210mm"
   height="297mm"
   viewBox="0 0 210 297"
   version="1.1"
   id="svg5"
   inkscape:version="1.4.3 (0d15f75, 2025-12-25)"
   sodipodi:docname="taller-tesela-perro-3d-b.svg"
   xmlns:inkscape="http://www.inkscape.org/namespaces/inkscape"
   xmlns:sodipodi="http://sodipodi.sourceforge.net/DTD/sodipodi-0.dtd"
   xmlns="http://www.w3.org/2000/svg"
   xmlns:svg="http://www.w3.org/2000/svg"
   xmlns:rdf="http://www.w3.org/1999/02/22-rdf-syntax-ns#"
   xmlns:cc="http://creativecommons.org/ns#"
   xmlns:dc="http://purl.org/dc/elements/1.1/">
  <title
     id="title1624">Tesela de perro para imprimir en 3D</title>
  <sodipodi:namedview
     id="namedview7"
     pagecolor="#ffffff"
     bordercolor="#000000"
     borderopacity="0.25"
     inkscape:showpageshadow="2"
     inkscape:pageopacity="0.0"
     inkscape:pagecheckerboard="0"
     inkscape:deskcolor="#d1d1d1"
     inkscape:document-units="mm"
     showgrid="true"
     inkscape:zoom="0.7385171"
     inkscape:cx="-175.35139"
     inkscape:cy="-80.566855"
     inkscape:window-width="1920"
     inkscape:window-height="1009"
     inkscape:window-x="-8"
     inkscape:window-y="-8"
     inkscape:window-maximized="1"
     inkscape:current-layer="layer1"
     inkscape:export-bgcolor="#ffffffff">
    <inkscape:grid
       type="xygrid"
       id="grid1779"
       units="mm"
       spacingx="1"
       spacingy="1"
       originx="0"
       originy="0" />
  </sodipodi:namedview>
  <defs
     id="defs2">
    <inkscape:path-effect
       effect="fillet_chamfer"
       id="path-effect4"
       is_visible="true"
       lpeversion="1"
       nodesatellites_param="F,0,1,1,0,2,0,1 @ F,0,0,1,0,0,0,1 @ F,0,0,1,0,0,0,1 @ F,0,0,1,0,0,0,1 @ F,0,0,1,0,0,0,1 @ F,0,0,1,0,0,0,1 @ F,0,0,1,0,0,0,1 @ F,0,0,1,0,0,0,1 @ F,0,0,1,0,0,0,1 @ F,0,0,1,0,0,0,1 @ F,0,0,1,0,0,0,1 @ F,0,0,1,0,0,0,1 @ F,0,0,1,0,0,0,1 @ F,0,0,1,0,0,0,1 @ F,0,0,1,0,0,0,1 @ F,0,0,1,0,0,0,1 @ F,0,0,1,0,0,0,1 @ F,0,0,1,0,0,0,1 @ F,0,0,1,0,2,0,1 @ F,0,0,1,0,0,0,1 @ F,0,0,1,0,0,0,1 @ F,0,0,1,0,0,0,1 @ F,0,0,1,0,0,0,1 @ F,0,0,1,0,0,0,1 @ F,0,0,1,0,0,0,1 @ F,0,0,1,0,0,0,1 @ F,0,0,1,0,0,0,1 @ F,0,0,1,0,0,0,1 @ F,0,0,1,0,0,0,1 @ F,0,0,1,0,0,0,1 @ F,0,0,1,0,0,0,1 @ F,0,0,1,0,0,0,1 @ F,0,0,1,0,0,0,1 @ F,0,0,1,0,0,0,1 @ F,0,0,1,0,0,0,1 @ F,0,0,1,0,0,0,1 @ F,0,0,1,0,0,0,1 @ F,0,0,1,0,0,0,1 @ F,0,0,1,0,0,0,1 @ F,0,0,1,0,0,0,1 @ F,0,0,1,0,0,0,1 @ F,0,0,1,0,0,0,1 @ F,0,0,1,0,0,0,1 @ F,0,0,1,0,0,0,1 @ F,0,0,1,0,0,0,1 @ F,0,0,1,0,0,0,1 @ F,0,0,1,0,0,0,1 @ F,0,0,1,0,0,0,1 @ F,0,0,1,0,0,0,1 @ F,0,0,1,0,0,0,1 @ F,0,0,1,0,0,0,1 @ F,0,0,1,0,0,0,1 @ F,0,0,1,0,0,0,1 @ F,0,0,1,0,0,0,1 @ F,0,0,1,0,0,0,1 @ F,0,1,1,0,2,0,1 @ F,0,1,1,0,2,0,1"
       radius="2"
       unit="mm"
       method="auto"
       mode="F"
       chamfer_steps="1"
       flexible="false"
       use_knot_distance="true"
       apply_no_radius="true"
       apply_with_radius="true"
       only_selected="true"
       hide_knots="false" />
    <inkscape:path-effect
       effect="fillet_chamfer"
       id="path-effect1"
       is_visible="true"
       lpeversion="1"
       nodesatellites_param="F,0,1,1,0,2,0,1 @ F,0,0,1,0,0,0,1 @ F,0,0,1,0,0,0,1 @ F,0,0,1,0,0,0,1 @ F,0,0,1,0,0,0,1 @ F,0,0,1,0,0,0,1 @ F,0,0,1,0,0,0,1 @ F,0,0,1,0,0,0,1 @ F,0,0,1,0,0,0,1 @ F,0,0,1,0,0,0,1 @ F,0,0,1,0,0,0,1 @ F,0,0,1,0,0,0,1 @ F,0,0,1,0,0,0,1 @ F,0,0,1,0,0,0,1 @ F,0,0,1,0,0,0,1 @ F,0,0,1,0,0,0,1 @ F,0,0,1,0,0,0,1 @ F,0,0,1,0,0,0,1 @ F,0,0,1,0,2,0,1 @ F,0,0,1,0,0,0,1 @ F,0,0,1,0,0,0,1 @ F,0,0,1,0,0,0,1 @ F,0,0,1,0,0,0,1 @ F,0,0,1,0,0,0,1 @ F,0,0,1,0,0,0,1 @ F,0,0,1,0,0,0,1 @ F,0,0,1,0,0,0,1 @ F,0,0,1,0,0,0,1 @ F,0,0,1,0,0,0,1 @ F,0,0,1,0,0,0,1 @ F,0,0,1,0,0,0,1 @ F,0,0,1,0,0,0,1 @ F,0,0,1,0,0,0,1 @ F,0,0,1,0,0,0,1 @ F,0,0,1,0,0,0,1 @ F,0,0,1,0,0,0,1 @ F,0,0,1,0,0,0,1 @ F,0,0,1,0,0,0,1 @ F,0,0,1,0,0,0,1 @ F,0,0,1,0,0,0,1 @ F,0,0,1,0,0,0,1 @ F,0,0,1,0,0,0,1 @ F,0,0,1,0,0,0,1 @ F,0,0,1,0,0,0,1 @ F,0,0,1,0,0,0,1 @ F,0,0,1,0,0,0,1 @ F,0,0,1,0,0,0,1 @ F,0,0,1,0,0,0,1 @ F,0,0,1,0,0,0,1 @ F,0,0,1,0,0,0,1 @ F,0,0,1,0,0,0,1 @ F,0,0,1,0,0,0,1 @ F,0,0,1,0,0,0,1 @ F,0,0,1,0,0,0,1 @ F,0,0,1,0,0,0,1 @ F,0,1,1,0,2,0,1 @ F,0,1,1,0,2,0,1"
       radius="2"
       unit="mm"
       method="auto"
       mode="F"
       chamfer_steps="1"
       flexible="false"
       use_knot_distance="true"
       apply_no_radius="true"
       apply_with_radius="true"
       only_selected="true"
       hide_knots="false" />
  </defs>
  <g
     inkscape:label="Capa 1"
     inkscape:groupmode="layer"
     id="layer1">
    <path
       id="path1"
       style="fill:#404040;fill-opacity:1;stroke:#000000;stroke-width:0;stroke-linecap:round;stroke-linejoin:round;stroke-dasharray:none"
       d="m 53.483689,21.658105 c -0.775346,0.338424 -1.595361,0.582844 -2.413763,0.781304 -2.470638,0.576113 -5.013757,0.737462 -7.541773,0.831081 -2.081233,0.07684 -4.165157,0.0635 -6.245415,0.168164 -0.801382,0.05624 -1.631785,0.09448 -2.407262,0.342844 -0.483069,0.159583 -0.838403,0.559633 -1.129865,0.958964 -0.651085,0.951422 -0.915077,2.102926 -1.087459,3.225998 -0.321669,2.221056 -0.200191,4.470972 -0.213305,6.710085 -0.01763,0.977627 -0.195449,1.95407 -0.564164,2.861561 -0.306108,0.761233 -0.614841,1.517789 -0.725682,2.334301 -0.07598,0.489578 -0.100078,0.971055 -0.102341,1.468981 -0.07126,0.125799 -0.200834,0.109712 -0.32586,0.104688 H 18.380394 c -0.110354,-0.06635 -0.118349,-0.174777 -0.103107,-0.291469 0.01595,-0.878639 0.265849,-1.755532 0.75738,-2.487703 0.567357,-0.86805 1.366643,-1.593835 1.735871,-2.583255 0.177512,-0.458423 0.261146,-0.921361 0.289153,-1.418042 0.01669,-0.825775 0.0029,-1.676509 0.0074,-2.511719 v -4.388281 c 0,-1.104569 -0.157145,-1.11497 -0.485691,-0.06106 -0.545789,1.75078 -1.343894,3.422848 -2.206837,5.037786 -0.998211,1.881723 -2.13888,3.684915 -3.105783,5.583475 -0.396791,0.802818 -0.781134,1.647711 -0.929423,2.515193 -0.07851,0.550356 -0.02694,1.1085 -0.0418,1.662343 0.0014,8.985487 -0.0028,17.971016 0.0021,26.956476 0.0099,0.904772 0.219104,1.829026 0.666591,2.62843 0.433871,0.787956 0.973072,1.535722 1.203166,2.41816 0.152476,0.53671 0.214852,1.096028 0.221476,1.65295 h 6.070703 c -0.0074,-0.722064 -0.164348,-1.464684 -0.516285,-2.10139 -0.540782,-1.00256 -1.459177,-1.758432 -1.901344,-2.82084 -0.324634,-0.732372 -0.394828,-1.544778 -0.372996,-2.337066 0.0021,-3.481624 -0.0043,-6.963322 0.0032,-10.444897 0.02688,-1.093527 0.367516,-2.146113 0.699908,-3.178229 0.117566,-0.06272 0.217395,-0.04218 0.300409,0.0609 0.885256,0.71252 1.956109,1.171726 3.016006,1.507228 1.520677,0.473205 3.115402,0.722524 4.698732,0.887129 3.12579,0.323018 6.274999,0.280631 9.414951,0.384562 1.000905,0.04728 2.013667,0.07527 2.991665,0.313007 0.364984,0.08374 0.707293,0.257478 0.973831,0.522787 0.777262,0.721292 1.170572,1.750358 1.418066,2.758682 0.415608,1.768794 0.447321,3.597896 0.44697,5.406252 0.0067,0.97774 -0.04637,1.95675 0.01009,2.933558 0.04088,0.623946 0.155785,1.26859 0.356808,1.86319 0.277857,0.816534 0.682001,1.621178 0.843821,2.486644 0.118277,0.57816 0.163562,1.16907 0.168099,1.758484 h 6.071875 c -0.0058,-0.534204 -0.06363,-1.038974 -0.188672,-1.56914 -0.211352,-0.912828 -0.681406,-1.731198 -1.124614,-2.546498 -0.441902,-0.791008 -0.759558,-1.67022 -0.776928,-2.584238 -0.0073,-4.353068 -10e-4,-8.706292 -0.0031,-13.059421 0.0016,-5.047631 -0.0033,-10.095362 0.0024,-15.142931 0.04105,-0.940783 0.42453,-1.822292 0.81511,-2.664688 0.849808,-1.752446 1.888146,-3.403762 2.825486,-5.109185 1.298606,-2.345437 2.504162,-4.779825 3.062572,-7.414444 0.164134,-0.804774 0.278718,-1.625015 0.274078,-2.455549 -0.0021,-0.301684 -0.03135,-0.603325 -0.07936,-0.903808 -0.174112,-1.089673 -0.600583,-2.139266 -0.681579,-2.050098 l 6.9e-5,-1e-6 z"
       inkscape:path-effect="#path-effect4"
       inkscape:original-d="m 55.210862,20.659357 c -1.20908,0.923398 -2.677588,1.425194 -4.140936,1.780052 -2.470638,0.576113 -5.013757,0.737462 -7.541773,0.831081 -2.081233,0.07684 -4.165157,0.0635 -6.245415,0.168164 -0.801382,0.05624 -1.631785,0.09448 -2.407262,0.342844 -0.483069,0.159583 -0.838403,0.559633 -1.129865,0.958964 -0.651085,0.951422 -0.915077,2.102926 -1.087459,3.225998 -0.321669,2.221056 -0.200191,4.470972 -0.213305,6.710085 -0.01763,0.977627 -0.195449,1.95407 -0.564164,2.861561 -0.306108,0.761233 -0.614841,1.517789 -0.725682,2.334301 -0.07598,0.489578 -0.100078,0.971055 -0.102341,1.468981 -0.07126,0.125799 -0.200834,0.109712 -0.32586,0.104688 -4.115468,0 -8.230937,0 -12.346406,0 -0.110354,-0.06635 -0.118349,-0.174777 -0.103107,-0.291469 0.01595,-0.878639 0.265849,-1.755532 0.75738,-2.487703 0.567357,-0.86805 1.366643,-1.593835 1.735871,-2.583255 0.177512,-0.458423 0.261146,-0.921361 0.289153,-1.418042 0.01669,-0.825775 0.0029,-1.676509 0.0074,-2.511719 0,-2.129427 0,-4.258854 0,-6.388281 -0.460545,2.468148 -1.516306,4.775506 -2.692528,6.976723 -0.998211,1.881723 -2.13888,3.684915 -3.105783,5.583475 -0.396791,0.802818 -0.781134,1.647711 -0.929423,2.515193 -0.07851,0.550356 -0.02694,1.1085 -0.0418,1.662343 0.0014,8.985487 -0.0028,17.971016 0.0021,26.956476 0.0099,0.904772 0.219104,1.829026 0.666591,2.62843 0.433871,0.787956 0.973072,1.535722 1.203166,2.41816 0.152476,0.53671 0.214852,1.096028 0.221476,1.65295 2.023568,0 4.047135,0 6.070703,0 -0.0074,-0.722064 -0.164348,-1.464684 -0.516285,-2.10139 -0.540782,-1.00256 -1.459177,-1.758432 -1.901344,-2.82084 -0.324634,-0.732372 -0.394828,-1.544778 -0.372996,-2.337066 0.0021,-3.481624 -0.0043,-6.963322 0.0032,-10.444897 0.02688,-1.093527 0.367516,-2.146113 0.699908,-3.178229 0.117566,-0.06272 0.217395,-0.04218 0.300409,0.0609 0.885256,0.71252 1.956109,1.171726 3.016006,1.507228 1.520677,0.473205 3.115402,0.722524 4.698732,0.887129 3.12579,0.323018 6.274999,0.280631 9.414951,0.384562 1.000905,0.04728 2.013667,0.07527 2.991665,0.313007 0.364984,0.08374 0.707293,0.257478 0.973831,0.522787 0.777262,0.721292 1.170572,1.750358 1.418066,2.758682 0.415608,1.768794 0.447321,3.597896 0.44697,5.406252 0.0067,0.97774 -0.04637,1.95675 0.01009,2.933558 0.04088,0.623946 0.155785,1.26859 0.356808,1.86319 0.277857,0.816534 0.682001,1.621178 0.843821,2.486644 0.118277,0.57816 0.163562,1.16907 0.168099,1.758484 2.023959,0 4.047917,0 6.071875,0 -0.0058,-0.534204 -0.06363,-1.038974 -0.188672,-1.56914 -0.211352,-0.912828 -0.681406,-1.731198 -1.124614,-2.546498 -0.441902,-0.791008 -0.759558,-1.67022 -0.776928,-2.584238 -0.0073,-4.353068 -10e-4,-8.706292 -0.0031,-13.059421 0.0016,-5.047631 -0.0033,-10.095362 0.0024,-15.142931 0.04105,-0.940783 0.42453,-1.822292 0.81511,-2.664688 0.849808,-1.752446 1.888146,-3.403762 2.825486,-5.109185 1.298606,-2.345437 2.504162,-4.779825 3.062572,-7.414444 0.164134,-0.804774 0.278718,-1.625015 0.274078,-2.455549 -0.0068,-0.958805 -0.287008,-1.917174 -0.575356,-2.839322 -0.0575,-0.130053 -0.02785,-0.288231 -0.185582,-0.114584 z"
       transform="matrix(-1,0,0,1,35.133162,-48.406706)" />
    <path
       id="path2"
       style="stroke-width:0.4;stroke-linecap:round;stroke-linejoin:round"
       d="m -9.1668369,-21.406706 a 1.5,1.5 0 0 1 1.5,1.5 1.5,1.5 0 0 1 -1.5,1.5 1.5,1.5 0 0 1 -1.5000011,-1.5 1.5,1.5 0 0 1 1.5000011,-1.5 z" />
    <path
       style="baseline-shift:baseline;display:inline;overflow:visible;vector-effect:none;stroke-linecap:round;stroke-linejoin:round;enable-background:accumulate;stop-color:#000000"
       d="m -5.1969159,-23.516081 a 0.5,0.5 0 0 1 0.5,0.5 v 7.683594 c 0,0.739862 0.272748,1.231007 0.691406,1.580077 0.418659,0.349069 1.005707,0.539062 1.59961,0.539062 0.593902,0 1.18095,-0.189993 1.59960896,-0.539062 0.418658,-0.34907 0.693359,-0.840215 0.693359,-1.580077 v -6.28711 a 0.5,0.5 0 0 1 0.5,-0.5 0.5,0.5 0 0 1 0.5,0.5 v 6.28711 c 0,1.006386 -0.424205,1.823599 -1.052734,2.347655 -0.628529,0.524056 -1.43788696,0.771484 -2.24023396,0.771484 -0.802348,0 -1.611706,-0.247428 -2.240235,-0.771484 -0.628529,-0.524056 -1.050781,-1.341269 -1.050781,-2.347655 v -7.683594 a 0.5,0.5 0 0 1 0.5,-0.5 z"
       id="path3" />
  </g>
  <metadata
     id="metadata1622">
    <rdf:RDF>
      <cc:Work
         rdf:about="">
        <cc:license
           rdf:resource="http://creativecommons.org/licenses/by-sa/4.0/" />
        <dc:title>Tesela de perro para imprimir en 3D</dc:title>
        <dc:date>23/05/2026</dc:date>
        <dc:creator>
          <cc:Agent>
            <dc:title>Carlos Félix Pardo Martín</dc:title>
          </cc:Agent>
        </dc:creator>
        <dc:rights>
          <cc:Agent>
            <dc:title>Licencia Creative Commons BY-SA 4.0</dc:title>
          </cc:Agent>
        </dc:rights>
        <dc:publisher>
          <cc:Agent>
            <dc:title>www.picuino.com</dc:title>
          </cc:Agent>
        </dc:publisher>
      </cc:Work>
      <cc:License
         rdf:about="http://creativecommons.org/licenses/by-sa/4.0/">
        <cc:permits
           rdf:resource="http://creativecommons.org/ns#Reproduction" />
        <cc:permits
           rdf:resource="http://creativecommons.org/ns#Distribution" />
        <cc:requires
           rdf:resource="http://creativecommons.org/ns#Notice" />
        <cc:requires
           rdf:resource="http://creativecommons.org/ns#Attribution" />
        <cc:permits
           rdf:resource="http://creativecommons.org/ns#DerivativeWorks" />
        <cc:requires
           rdf:resource="http://creativecommons.org/ns#ShareAlike" />
      </cc:License>
    </rdf:RDF>
  </metadata>
</svg>
