<?xml version="1.0" encoding="UTF-8" standalone="no"?>
<svg
   width="210mm"
   height="297mm"
   viewBox="0 0 210 297"
   version="1.1"
   id="svg8"
   inkscape:version="1.2.1 (9c6d41e410, 2022-07-14)"
   sodipodi:docname="taller-figura-hat-03.svg"
   inkscape:export-filename="taller-figura-hat-03.png"
   inkscape:export-xdpi="200"
   inkscape:export-ydpi="200"
   xml:space="preserve"
   xmlns:inkscape="http://www.inkscape.org/namespaces/inkscape"
   xmlns:sodipodi="http://sodipodi.sourceforge.net/DTD/sodipodi-0.dtd"
   xmlns:xlink="http://www.w3.org/1999/xlink"
   xmlns="http://www.w3.org/2000/svg"
   xmlns:svg="http://www.w3.org/2000/svg"
   xmlns:rdf="http://www.w3.org/1999/02/22-rdf-syntax-ns#"
   xmlns:cc="http://creativecommons.org/ns#"
   xmlns:dc="http://purl.org/dc/elements/1.1/"><title
     id="title2027">Teselado del sombrero</title><defs
     id="defs2" /><sodipodi:namedview
     id="base"
     pagecolor="#ffffff"
     bordercolor="#666666"
     borderopacity="1.0"
     inkscape:pageopacity="0.0"
     inkscape:pageshadow="2"
     inkscape:zoom="1.0544998"
     inkscape:cx="307.25468"
     inkscape:cy="413.46618"
     inkscape:document-units="mm"
     inkscape:current-layer="layer1"
     showgrid="true"
     gridtolerance="10"
     inkscape:window-width="1920"
     inkscape:window-height="1017"
     inkscape:window-x="-8"
     inkscape:window-y="-8"
     inkscape:window-maximized="1"
     showguides="false"
     inkscape:document-rotation="0"
     inkscape:snap-grids="true"
     inkscape:showpageshadow="2"
     inkscape:pagecheckerboard="0"
     inkscape:deskcolor="#d1d1d1"><inkscape:grid
       type="axonomgrid"
       id="grid1257"
       spacingy="2"
       gridanglex="30"
       gridanglez="30"
       visible="false"
       enabled="true" /></sodipodi:namedview><metadata
     id="metadata5"><rdf:RDF><cc:Work
         rdf:about=""><dc:format>image/svg+xml</dc:format><dc:type
           rdf:resource="http://purl.org/dc/dcmitype/StillImage" /><cc:license
           rdf:resource="http://creativecommons.org/licenses/by-sa/4.0/" /><dc:creator><cc:Agent><dc:title>Carlos Pardo Martín</dc:title></cc:Agent></dc:creator><dc:rights><cc:Agent><dc:title>CC BY-SA 4.0</dc:title></cc:Agent></dc:rights><dc:publisher><cc:Agent><dc:title>Picuino</dc:title></cc:Agent></dc:publisher><dc:title>Teselado del sombrero</dc:title><dc:date>09/04/2023</dc:date></cc:Work><cc:License
         rdf:about="http://creativecommons.org/licenses/by-sa/4.0/"><cc:permits
           rdf:resource="http://creativecommons.org/ns#Reproduction" /><cc:permits
           rdf:resource="http://creativecommons.org/ns#Distribution" /><cc:requires
           rdf:resource="http://creativecommons.org/ns#Notice" /><cc:requires
           rdf:resource="http://creativecommons.org/ns#Attribution" /><cc:permits
           rdf:resource="http://creativecommons.org/ns#DerivativeWorks" /><cc:requires
           rdf:resource="http://creativecommons.org/ns#ShareAlike" /></cc:License></rdf:RDF></metadata><g
     id="g2537"
     inkscape:label="Grid"
     style="display:inline"
     transform="translate(-17.220505,-4.9000005)"
     inkscape:groupmode="layer"
     sodipodi:insensitive="true"><g
       id="g5593"
       inkscape:label="grid_tesela"
       style="display:inline;fill:none;stroke:#c0c0c0;stroke-linecap:round;stroke-linejoin:round;stroke-opacity:1"
       transform="translate(-122.20958,-117.7238)"><path
         style="fill:none;stroke:#c0c0c0;stroke-width:0.264583px;stroke-linecap:round;stroke-linejoin:round;stroke-opacity:1"
         d="m 78.808309,137.6238 8.660254,5 v 10 l -8.660254,5 -8.660254,-5 v -10 z"
         id="path4960" /><path
         style="fill:none;stroke:#c0c0c0;stroke-width:0.264583px;stroke-linecap:round;stroke-linejoin:round;stroke-opacity:1"
         d="m 83.138435,155.1238 -8.660255,-15"
         id="path5529" /><path
         style="fill:none;stroke:#c0c0c0;stroke-width:0.264583px;stroke-linecap:round;stroke-linejoin:round;stroke-opacity:1"
         d="m 83.138435,140.1238 -8.660255,15"
         id="path5585" /><path
         style="fill:none;stroke:#c0c0c0;stroke-width:0.264583px;stroke-linecap:round;stroke-linejoin:round;stroke-opacity:1"
         d="M 70.148055,147.6238 H 87.468563"
         id="path5587" /></g><g
       id="g5636"
       inkscape:label="grid_mini"
       transform="translate(-17.320507,-9.9999995)"><use
         x="0"
         y="0"
         xlink:href="#g5593"
         id="use5595"
         transform="translate(8.6602528,44.999999)"
         style="display:inline" /><use
         x="0"
         y="0"
         xlink:href="#g5593"
         id="use5608"
         transform="translate(34.641015,60)"
         style="display:inline" /><use
         x="0"
         y="0"
         xlink:href="#g5593"
         id="use5612"
         transform="translate(17.320507,59.999999)"
         style="display:inline" /><use
         x="0"
         y="0"
         xlink:href="#g5593"
         id="use5614"
         transform="translate(43.301269,44.999999)"
         style="display:inline" /><use
         x="0"
         y="0"
         xlink:href="#g5593"
         id="use5616"
         transform="translate(25.980761,45)"
         style="display:inline" /><use
         x="0"
         y="0"
         xlink:href="#g5593"
         id="use5618"
         transform="translate(43.301269,74.999999)"
         style="display:inline" /><use
         x="0"
         y="0"
         xlink:href="#g5593"
         id="use5620"
         transform="translate(25.980761,74.999999)"
         style="display:inline" /><use
         x="0"
         y="0"
         xlink:href="#g5593"
         id="use5622"
         transform="translate(8.6602538,75)"
         style="display:inline" /><use
         x="0"
         y="0"
         xlink:href="#g5593"
         id="use5624"
         transform="translate(51.961523,60)"
         style="display:inline" /></g><g
       id="g5652"
       inkscape:label="grid_line"><use
         x="0"
         y="0"
         xlink:href="#g5636"
         id="use5638"
         transform="translate(69.282032,-30)" /><use
         x="0"
         y="0"
         xlink:href="#g5636"
         id="use5642"
         transform="translate(225.1666,-30)" /><use
         x="0"
         y="0"
         xlink:href="#g5636"
         id="use5644"
         transform="translate(173.20508,-29.999999)" /><use
         x="0"
         y="0"
         xlink:href="#g5636"
         id="use5646"
         transform="translate(121.24355,-29.999999)" /></g><use
       x="0"
       y="0"
       xlink:href="#g5652"
       id="use5654"
       transform="translate(8.6602522,45.000001)" /><use
       x="0"
       y="0"
       xlink:href="#g5652"
       id="use5660"
       transform="translate(-1.8107799e-6,90.000001)" /><use
       x="0"
       y="0"
       xlink:href="#g5652"
       id="use19393"
       transform="translate(8.660247,135)" /></g><g
     inkscape:groupmode="layer"
     id="layer2"
     inkscape:label="Figures"
     style="display:inline"
     transform="translate(-0.86602331,-102.6238)"><path
       style="fill:#ffffff;fill-opacity:0.7;stroke:#000000;stroke-width:0.5;stroke-linecap:round;stroke-linejoin:round;stroke-dasharray:none;stroke-opacity:1"
       d="m 113.44931,167.6238 v -10 l 4.33013,-2.5 4.33013,7.5 8.66025,1e-5 v 4.99999 l 4.33013,2.5 -4.33013,7.50001 -8.66025,-1e-5 v 5.00001 l -4.33013,2.5 -4.33013,-7.50001 4.33013,-7.49999 z"
       id="path5674" /><path
       style="fill:#ccccff;fill-opacity:0.701961;stroke:#000000;stroke-width:0.5;stroke-linecap:round;stroke-linejoin:round;stroke-dasharray:none;stroke-opacity:1"
       d="m 104.78906,172.6238 8.66025,-5 4.33013,2.5 -4.33013,7.5 4.33013,7.5 -4.33013,2.5 v 5 h -8.66025 l -4.33013,-7.5 -4.33012,2.5 -4.330126,-2.5 4.330125,-7.5 h 8.660251 z"
       id="path6159" /><path
       style="fill:#ff9898;fill-opacity:0.701961;stroke:#000000;stroke-width:0.5;stroke-linecap:round;stroke-linejoin:round;stroke-dasharray:none;stroke-opacity:1"
       d="m 113.44931,187.6238 8.66026,-5 4.33012,2.5 -4.33012,7.5 4.33012,7.5 -4.33012,2.5 v 5 h -8.66026 l -4.33013,-7.5 -4.33012,2.5 -4.33012,-2.5 4.33012,-7.5 h 8.66025 z"
       id="path6920" /><path
       style="fill:#ccffcc;fill-opacity:0.7019608;stroke:#000000;stroke-width:0.5;stroke-linecap:round;stroke-linejoin:round;stroke-dasharray:none;stroke-opacity:1"
       d="m 104.78906,212.6238 v -10 l 4.33012,-2.5 4.33013,7.5 h 8.66025 v 5 l 4.33013,2.5 -4.33013,7.5 h -8.66025 v 5 l -4.33013,2.5 -4.33012,-7.5 4.33012,-7.5 z"
       id="path7648" /><path
       style="fill:#ccccff;fill-opacity:0.701961;stroke:#000000;stroke-width:0.5;stroke-linecap:round;stroke-linejoin:round;stroke-dasharray:none;stroke-opacity:1"
       d="m 139.43007,182.6238 8.66025,5 v 5 h -8.66025 l -4.33012,7.5 -4.33013,-2.5 -4.33012,2.5 -4.33013,-7.5 4.33013,-7.5 -4.33013,-2.5 v -5 h 8.66025 l 4.33013,7.5 z"
       id="path8271" /><path
       style="fill:#ff9898;fill-opacity:0.701961;stroke:#000000;stroke-width:0.5;stroke-linecap:round;stroke-linejoin:round;stroke-dasharray:none;stroke-opacity:1"
       d="m 87.468554,172.6238 -2e-6,10 4.330128,2.5 4.330126,-7.5 h 8.660254 l -1e-5,-5 4.33013,-2.5 -4.33012,-7.5 h -8.660254 l -10e-7,-5 -4.330125,-2.5 -4.330129,7.5 4.33013,7.5 z"
       id="path8275" /><path
       style="fill:#ccffcc;fill-opacity:0.7019608;stroke:#000000;stroke-width:0.5;stroke-linecap:round;stroke-linejoin:round;stroke-dasharray:none;stroke-opacity:1"
       d="m 113.44931,157.62381 v 10 l -4.33013,2.49999 -4.33011,-7.5 h -8.660261 l -2e-6,-4.99999 -4.330128,-2.5 4.33013,-7.50001 h 8.660261 v -5 l 4.33011,-2.5 4.33013,7.50001 -4.33013,7.49999 z"
       id="path8277" /><path
       style="fill:#ffffff;fill-opacity:0.7;stroke:#000000;stroke-width:0.5;stroke-linecap:round;stroke-linejoin:round;stroke-dasharray:none;stroke-opacity:1"
       d="m 87.468553,202.62379 -8.660253,-4.99999 -2e-6,-5.00001 8.660258,10e-6 4.330136,-7.5 4.330116,2.5 4.330132,-2.5 4.33013,7.5 -4.33014,7.5 4.33014,2.5 v 5 h -8.660261 l -4.330117,-7.5 z"
       id="path8279" /><path
       style="fill:#ccffcc;fill-opacity:0.70196098;stroke:#000000;stroke-width:0.5;stroke-linecap:round;stroke-linejoin:round;stroke-dasharray:none;stroke-opacity:1"
       d="m 70.148046,182.62381 2e-6,-10 4.330127,-2.5 4.330125,7.5 h 8.660255 l -3e-6,4.99999 4.330128,2.5 -4.330125,7.50001 -8.660257,-1e-5 3e-6,5.00001 -4.330127,2.5 -4.33013,-7.50001 4.33013,-7.49999 z"
       id="path8281" /><path
       style="fill:#ccccff;fill-opacity:0.701961;stroke:#000000;stroke-width:0.5;stroke-linecap:round;stroke-linejoin:round;stroke-dasharray:none;stroke-opacity:1"
       d="m 78.808299,157.62381 8.660254,-5 4.330127,2.5 -4.330127,7.5 4.330127,7.5 -4.330127,2.5 v 5 h -8.660254 l -4.330129,-7.5 -4.330125,2.5 -4.330126,-2.5 4.330125,-7.5 h 8.660255 z"
       id="path8283" /><path
       style="fill:#ffffff;fill-opacity:0.7;stroke:#000000;stroke-width:0.5;stroke-linecap:round;stroke-linejoin:round;stroke-dasharray:none;stroke-opacity:1"
       d="m 96.128834,137.62382 8.660246,4.99998 v 5.00002 l -8.660242,-1e-5 -4.33015,7.49999 -4.330116,-2.49999 -4.330115,2.5 -4.33014,-7.5 4.330139,-7.5 -4.330144,-2.5 6e-6,-5 8.660254,-1e-5 4.330116,7.50001 z"
       id="path8285" /><path
       style="fill:#ff9999;fill-opacity:0.7;stroke:#000000;stroke-width:0.5;stroke-linecap:round;stroke-linejoin:round;stroke-dasharray:none;stroke-opacity:1"
       d="m 122.10957,142.6238 8.66025,-4.99999 4.33012,2.5 -4.33012,7.49999 4.33013,7.5 -4.33014,2.49999 v 5.00001 h -8.66024 l -4.33013,-7.5 -4.33014,2.5 -4.33011,-2.5 4.33012,-7.49999 h 8.66025 z"
       id="path8350" /><path
       style="fill:#ccccff;fill-opacity:0.701961;stroke:#000000;stroke-width:0.5;stroke-linecap:round;stroke-linejoin:round;stroke-dasharray:none;stroke-opacity:1"
       d="m 113.44931,127.62382 8.66025,-5 4.33013,2.5 -4.33013,7.49999 4.33013,7.5 -4.33013,2.5 v 5 h -8.66025 l -4.33013,-7.5 -4.33012,2.5 -4.33013,-2.5 4.33013,-7.49999 8.66025,-1e-5 z"
       id="path8352" /><path
       style="fill:#ccffcc;fill-opacity:0.7019608;stroke:#000000;stroke-width:0.5;stroke-linecap:round;stroke-linejoin:round;stroke-dasharray:none;stroke-opacity:1"
       d="m 148.09033,167.62381 8.66025,5 v 4.99999 l -8.66025,1e-5 -4.33013,7.5 -4.33012,-2.5 -4.33013,2.49999 -4.33013,-7.49999 4.33013,-7.5 -4.33013,-2.5 v -5 h 8.66026 l 4.33012,7.49999 z"
       id="path8356" /><path
       style="fill:#ccccff;fill-opacity:0.701961;stroke:#000000;stroke-width:0.5;stroke-linecap:round;stroke-linejoin:round;stroke-dasharray:none;stroke-opacity:1"
       d="m 139.43008,152.6238 -8.66024,5.00001 v 4.99999 h 8.66024 l 4.33013,7.5 4.33011,-2.5 4.33013,2.50001 4.33014,-7.50001 -4.33014,-7.49999 4.33013,-2.5 10e-6,-5.00001 -8.66025,1e-5 -4.33013,7.49999 z"
       id="path8368" /><path
       style="fill:#ffffff;fill-opacity:0.7;stroke:#000000;stroke-width:0.5;stroke-linecap:round;stroke-linejoin:round;stroke-dasharray:none;stroke-opacity:1"
       d="m 148.09034,137.6238 8.66025,4.99999 -10e-6,5.00001 h -8.66025 l -4.33013,7.49999 -4.33013,-2.49999 -4.33013,2.5 -4.33013,-7.5 4.33014,-7.49999 -4.33013,-2.50001 -1e-5,-5.00001 h 8.66027 l 4.33012,7.5 z"
       id="path8372" /><path
       style="fill:#ffffff;fill-opacity:0.7;stroke:#000000;stroke-width:0.5;stroke-linecap:round;stroke-linejoin:round;stroke-dasharray:none;stroke-opacity:1"
       d="m 122.10956,212.62379 2e-5,-10 4.33012,-2.49998 4.33012,7.49997 8.66026,3e-5 -1e-5,4.99998 4.33013,2.50002 -4.33013,7.49999 -8.66025,-2e-5 v 5.00002 l -4.33012,2.49999 -4.33014,-7.5 4.33013,-7.49999 z"
       id="path8376" /><path
       style="fill:#ccffcc;fill-opacity:0.7019608;stroke:#000000;stroke-width:0.5;stroke-linecap:round;stroke-linejoin:round;stroke-dasharray:none;stroke-opacity:1"
       d="m 139.43006,212.62379 8.66027,5 4.3301,-2.49999 -4.33012,-7.50001 4.33013,-7.5 -4.33013,-2.5 1e-5,-4.99999 -8.66027,-10e-6 -4.33011,7.5 -4.33013,-2.49999 -4.33013,2.49997 4.33013,7.50001 8.66024,1e-5 z"
       id="path8378" /><path
       style="fill:#ccccff;fill-opacity:0.7;stroke:#000000;stroke-width:0.5;stroke-linecap:round;stroke-linejoin:round;stroke-dasharray:none;stroke-opacity:1"
       d="m 78.808299,197.6238 8.660254,5 -2e-6,5 -8.66025,-10e-6 -4.33013,7.50001 -4.330127,-2.5 -4.330124,2.49999 -4.33013,-7.49999 4.330128,-7.50001 -4.330125,-2.5 -3e-6,-4.99999 h 8.660254 l 4.330126,7.5 z"
       id="path8476" /><path
       style="fill:#ff9898;fill-opacity:0.701961;stroke:#000000;stroke-width:0.5;stroke-linecap:round;stroke-linejoin:round;stroke-dasharray:none;stroke-opacity:1"
       d="m 87.468552,212.62379 2e-6,-9.99999 4.330127,-2.5 4.330125,7.49999 8.660254,10e-6 -1e-5,4.99999 4.33013,2.5 -4.33012,7.50001 -8.660257,-10e-6 4e-6,5.00001 -4.330127,2.5 -4.330131,-7.50001 4.330131,-7.49999 z"
       id="path8479" /><path
       style="fill:#ccffcc;fill-opacity:0.7019608;stroke:#000000;stroke-width:0.5;stroke-linecap:round;stroke-linejoin:round;stroke-dasharray:none;stroke-opacity:1"
       d="m 78.808301,227.62379 8.660253,5 4.330124,-2.49999 -4.330127,-7.5 4.330127,-7.5 -4.330129,-2.5 2e-6,-5 h -8.660254 l -4.330125,7.5 -4.330139,-2.5 -4.330117,2.5 4.330119,7.5 h 8.660262 z"
       id="path8481" /><path
       style="fill:#ff9898;fill-opacity:0.701961;stroke:#000000;stroke-width:0.5;stroke-linecap:round;stroke-linejoin:round;stroke-dasharray:none;stroke-opacity:1"
       d="m 61.487779,197.6238 -8.660245,5 -4.330139,-2.5 4.330138,-7.5 -4.330123,-7.50001 4.330124,-2.49999 v -5 l 8.660257,-10e-6 4.330122,7.50001 4.330138,-2.50001 4.330121,2.5 -4.330128,7.50001 -8.660253,-10e-6 z"
       id="path8483" /><path
       style="fill:#ffffff;fill-opacity:0.701961;stroke:#000000;stroke-width:0.5;stroke-linecap:round;stroke-linejoin:round;stroke-dasharray:none;stroke-opacity:1"
       d="m 70.148044,172.62381 7e-6,10 -4.330132,2.5 -4.330095,-7.5 -8.660294,1e-5 1.9e-5,-5.00001 -4.33011,-2.49999 4.330098,-7.50001 8.660276,2e-5 v -5.00001 l 4.330105,-2.5 4.330137,7.49999 -4.330136,7.5 z"
       id="path8485" /><path
       style="fill:#ccffcc;fill-opacity:0.7019608;stroke:#000000;stroke-width:0.5;stroke-linecap:round;stroke-linejoin:round;stroke-dasharray:none;stroke-opacity:1"
       d="m 70.148034,142.62382 8.660258,-5 4.330127,2.5 -4.330127,7.5 4.330125,7.5 -4.330118,2.49999 -1e-6,5 -8.660264,1e-5 -4.330118,-7.50001 -4.330136,2.50001 -4.330127,-2.5 4.330137,-7.50001 8.660244,1e-5 z"
       id="path8487" /><path
       style="fill:#ff9898;fill-opacity:0.701961;stroke:#000000;stroke-width:0.5;stroke-linecap:round;stroke-linejoin:round;stroke-dasharray:none;stroke-opacity:1"
       d="m 52.827527,152.62382 8.660252,4.99999 1.1e-5,5 -8.660259,-1e-5 -4.330142,7.5 -4.330115,-2.49999 -4.330124,2.49999 -4.330142,-7.5 4.330141,-7.5 -4.33014,-2.49999 v -5.00001 l 8.660266,1e-5 4.330114,7.49999 z"
       id="path8559" /><path
       style="fill:#ffffff;fill-opacity:0.701961;stroke:#000000;stroke-width:0.5;stroke-linecap:round;stroke-linejoin:round;stroke-dasharray:none;stroke-opacity:1"
       d="m 52.827546,202.62378 8.660245,-4.99999 4.330127,2.5 -4.330118,7.49999 4.330117,7.50001 -4.330116,2.49999 -10e-7,5 -8.660263,1e-5 -4.33012,-7.50001 -4.330135,2.50001 -4.330127,-2.5 4.330137,-7.50001 8.660244,1e-5 z"
       id="path8563" /><path
       style="fill:#ff9898;fill-opacity:0.701961;stroke:#000000;stroke-width:0.5;stroke-linecap:round;stroke-linejoin:round;stroke-dasharray:none;stroke-opacity:1"
       d="m 61.487799,227.6238 -1.1e-5,-9.99999 4.330137,-2.50001 4.330119,7.50001 8.660258,1e-5 -6e-6,4.99999 4.330129,2.5 -4.330124,7.50001 -8.660258,-1e-5 8e-6,5.00001 -4.33013,2.5 -4.330133,-7.50001 4.330133,-7.49999 z"
       id="path8565" /><path
       style="fill:#ccffcc;fill-opacity:0.7019608;stroke:#000000;stroke-width:0.5;stroke-linecap:round;stroke-linejoin:round;stroke-dasharray:none;stroke-opacity:1"
       d="m 61.487784,257.6238 -8.660256,5.00001 -4.330119,-2.49999 4.33013,-7.49999 -4.330131,-7.5 4.33013,-2.50001 -4e-6,-4.99999 8.660254,-2e-5 4.330125,7.50002 4.330138,-2.5 4.33012,2.5 -4.33012,7.5 h -8.66026 z"
       id="path8567" /><path
       style="fill:#ff9898;fill-opacity:0.701961;stroke:#000000;stroke-width:0.5;stroke-linecap:round;stroke-linejoin:round;stroke-dasharray:none;stroke-opacity:1"
       d="m 104.78905,262.62381 -1e-5,9.99999 -4.33012,2.5 -4.330124,-7.49999 -8.660259,-10e-6 2e-6,-4.99998 -4.330128,-2.5 4.330126,-7.50002 8.660259,1e-5 5e-6,-5.00002 4.330119,-2.49999 4.33013,7.50001 -4.33013,7.49999 z"
       id="path8569" /><path
       style="fill:#ffffff;fill-opacity:0.701961;stroke:#000000;stroke-width:0.5;stroke-linecap:round;stroke-linejoin:round;stroke-dasharray:none;stroke-opacity:1"
       d="m 78.808302,247.62381 -8.660254,-5 -2e-6,-4.99999 8.660252,1e-5 4.330133,-7.50002 4.330127,2.5 4.33012,-2.49998 4.330134,7.49998 -4.330132,7.50002 4.330126,2.5 10e-7,4.99999 -8.66025,-1e-5 -4.33013,-7.49999 z"
       id="path8571" /><path
       style="fill:#ccccff;fill-opacity:0.701961;stroke:#000000;stroke-width:0.5;stroke-linecap:round;stroke-linejoin:round;stroke-dasharray:none;stroke-opacity:1"
       d="m 70.148054,262.62381 -8.660259,-5 -3e-6,-4.99999 h 8.660247 l 4.330143,-7.50001 4.330121,2.5 4.330117,-2.49999 4.330143,7.49999 -4.330128,7.50002 4.330112,2.5 6e-6,4.99998 h -8.660249 l -4.330132,-7.49999 z"
       id="path9401" /><path
       style="fill:#ccccff;fill-opacity:0.701961;stroke:#000000;stroke-width:0.5;stroke-linecap:round;stroke-linejoin:round;stroke-dasharray:none;stroke-opacity:1"
       d="m 44.167314,227.62381 3e-6,-10.00001 4.330129,-2.49999 4.330104,7.50001 8.660269,-1e-5 7e-6,5 4.330095,2.50001 -4.330101,7.5 h -8.66027 l -2e-6,5.00001 -4.330112,2.49999 -4.33012,-7.5 4.330119,-7.5 z"
       id="path9403" /><path
       style="fill:#ccccff;fill-opacity:0.701961;stroke:#000000;stroke-width:0.5;stroke-linecap:round;stroke-linejoin:round;stroke-dasharray:none;stroke-opacity:1"
       d="m 104.78905,242.62381 -8.660237,4.99999 -4.330124,-2.5 4.330118,-7.49999 -4.330125,-7.5 4.330125,-2.5 1e-6,-5 h 8.660252 l 4.33012,7.5 4.33013,-2.5 4.33013,2.5 -4.33013,7.5 h -8.66025 z"
       id="path9484" /><path
       style="fill:#ff9898;fill-opacity:0.701961;stroke:#000000;stroke-width:0.5;stroke-linecap:round;stroke-linejoin:round;stroke-dasharray:none;stroke-opacity:1"
       d="m 130.76982,227.6238 8.66025,5 v 5 l -8.66025,-10e-6 -4.33013,7.50001 -4.33013,-2.5 -4.33012,2.49999 -4.33013,-7.49999 4.33013,-7.50001 -4.33013,-2.5 v -4.99999 h 8.66025 l 4.33013,7.5 z"
       id="path9486" /><path
       style="fill:#ff9898;fill-opacity:0.701961;stroke:#000000;stroke-width:0.5;stroke-linecap:round;stroke-linejoin:round;stroke-dasharray:none;stroke-opacity:1"
       d="m 148.09036,197.62379 v -9.99999 l 4.3301,-2.5 4.33011,7.5 8.66029,-3e-5 -1e-5,5.00005 4.33009,2.49995 -4.33007,7.50002 -8.66029,10e-6 -1e-5,4.99999 -4.3301,2.49999 -4.33015,-7.49999 4.33011,-7.49999 z"
       id="path9488" /><path
       style="fill:#ccffcc;fill-opacity:0.7019608;stroke:#000000;stroke-width:0.5;stroke-linecap:round;stroke-linejoin:round;stroke-dasharray:none;stroke-opacity:1"
       d="m 113.4493,257.62379 -8.66024,5 -4.33014,-2.5 4.33014,-7.49999 -4.33014,-7.5 4.33013,-2.50001 1e-5,-4.99999 h 8.66023 l 4.33015,7.5 4.33012,-2.50001 4.33013,2.5 -4.33014,7.5 h -8.66024 z"
       id="path9697" /><path
       style="fill:#ffffff;fill-opacity:0.701961;stroke:#000000;stroke-width:0.5;stroke-linecap:round;stroke-linejoin:round;stroke-dasharray:none;stroke-opacity:1"
       d="m 156.75062,172.6238 8.66026,-4.99997 4.33011,2.49999 -4.33013,7.49999 4.33013,7.50002 -4.33011,2.49999 -1e-5,4.99997 -8.66027,3e-5 -4.33009,-7.50003 -4.33015,2.50001 -4.33014,-2.49998 4.33014,-7.50001 8.66023,-1e-5 z"
       id="path10115" /><path
       style="fill:#ff9898;fill-opacity:0.701961;stroke:#000000;stroke-width:0.5;stroke-linecap:round;stroke-linejoin:round;stroke-dasharray:none;stroke-opacity:1"
       d="m 165.41081,167.62378 -8.66022,4.99999 -4.33015,-2.49998 4.33015,-7.49999 -4.33017,-7.50001 4.33018,-2.50001 -1e-5,-4.99998 8.66022,-3e-5 4.33018,7.50002 4.33009,-2.49999 4.33014,2.50001 -4.33016,7.49999 h -8.66022 z"
       id="path12914" /><path
       style="fill:#ccffcc;fill-opacity:0.7019608;stroke:#000000;stroke-width:0.5;stroke-linecap:round;stroke-linejoin:round;stroke-dasharray:none;stroke-opacity:1"
       d="m 174.07109,142.62381 v 10 l -4.33012,2.49999 -4.33013,-7.49999 h -8.66026 v -5 l -4.33011,-2.50001 4.33011,-7.5 8.66026,1e-5 v -5 l 4.33013,-2.50001 4.33012,7.50001 -4.33012,7.49999 z"
       id="path12916" /><path
       style="fill:#ccccff;fill-opacity:0.701961;stroke:#000000;stroke-width:0.5;stroke-linecap:round;stroke-linejoin:round;stroke-dasharray:none;stroke-opacity:1"
       d="m 182.73137,167.62384 8.66025,4.99998 v 5 h -8.66025 l -4.33012,7.50002 -4.33013,-2.50002 -4.33013,2.49999 -4.33014,-7.49999 4.33015,-7.49998 -4.33014,-2.50002 v -5 l 8.66026,2e-5 4.33012,7.49998 z"
       id="path12918" /><path
       style="fill:#ccccff;fill-opacity:0.701961;stroke:#000000;stroke-width:0.5;stroke-linecap:round;stroke-linejoin:round;stroke-dasharray:none;stroke-opacity:1"
       d="m 139.43008,232.6238 -8.66022,-5.00001 -3e-5,-4.99998 8.66024,-1e-5 4.3301,-7.49999 4.33017,2.5 4.33008,-2.50004 4.33016,7.50005 -4.33011,7.49999 4.33013,2.50002 -3e-5,4.99997 -8.66025,3e-5 -4.33012,-7.5 z"
       id="path12920"
       inkscape:transform-center-x="8.6602605"
       inkscape:transform-center-y="-3.749992" /><path
       style="fill:#ff9898;fill-opacity:0.701961;stroke:#000000;stroke-width:0.5;stroke-linecap:round;stroke-linejoin:round;stroke-dasharray:none;stroke-opacity:1"
       d="m 182.73138,197.62379 8.66022,4.99998 4.33015,-2.49998 -4.33015,-7.49998 4.33016,-7.50001 -4.33016,-2.50001 v -4.99998 l -8.66021,-2e-5 -4.33019,7.50002 -4.33011,-2.49999 -4.33011,2.49999 4.33015,7.50001 8.66024,-1e-5 z"
       id="path12922" /><path
       style="fill:#ffffff;fill-opacity:0.701961;stroke:#000000;stroke-width:0.5;stroke-linecap:round;stroke-linejoin:round;stroke-dasharray:none;stroke-opacity:1"
       d="m 165.41084,227.62381 -8.66026,4.99999 -4.33011,-2.49999 4.33013,-7.5 -4.33014,-7.50001 4.3301,-2.49999 2e-5,-4.99999 8.66028,-2e-5 4.3301,7.50002 4.33014,-2.5 4.33014,2.49998 -4.33014,7.50002 -8.66024,1e-5 z"
       id="path14479" /><path
       style="fill:#ccffcc;fill-opacity:0.7019608;stroke:#000000;stroke-width:0.5;stroke-linecap:round;stroke-linejoin:round;stroke-dasharray:none;stroke-opacity:1"
       d="m 165.41085,197.6238 1e-5,-10.00001 4.33009,-2.49999 4.33015,7.50001 8.66025,-1e-5 3e-5,5 4.33011,2.49998 -4.33012,7.50004 -8.66027,-3e-5 -1e-5,5 -4.33009,2.50001 -4.33013,-7.50001 4.3301,-7.49996 z"
       id="path14481" /><path
       style="fill:#ffffff;fill-opacity:0.701961;stroke:#000000;stroke-width:0.5;stroke-linecap:round;stroke-linejoin:round;stroke-dasharray:none;stroke-opacity:1"
       d="m 174.07109,152.62381 2e-5,-9.99998 4.33011,-2.5 4.33011,7.49999 8.66026,-1e-5 -1e-5,4.99999 4.33014,2.5 -4.33013,7.50001 -8.66026,-2e-5 2e-5,5.00001 -4.33013,2.50001 -4.33013,-7.49999 4.33013,-7.50001 z"
       id="path14483" /><path
       style="fill:#ff9898;fill-opacity:0.701961;stroke:#000000;stroke-width:0.5;stroke-linecap:round;stroke-linejoin:round;stroke-dasharray:none;stroke-opacity:1"
       d="m 191.39161,172.62385 -8.66024,-5.00001 v -4.99998 h 8.66025 l 4.33013,-7.50002 4.33011,2.49999 4.33012,-2.49998 4.33016,7.50001 -4.33016,7.49999 4.33014,2.50001 2e-5,5 h -8.66028 l -4.33012,-7.49998 z"
       id="path14485" /><path
       style="fill:#ffffff;fill-opacity:0.701961;stroke:#000000;stroke-width:0.5;stroke-linecap:round;stroke-linejoin:round;stroke-dasharray:none;stroke-opacity:1"
       d="m 191.3916,182.62378 2e-5,-9.99998 4.33011,-2.5 4.33011,7.49999 8.66026,-1e-5 -1e-5,4.99999 4.33014,2.5 -4.33013,7.50001 -8.66026,-2e-5 2e-5,5.00001 -4.33013,2.50001 -4.33013,-7.49999 4.33013,-7.50001 z"
       id="path14487" /><path
       style="fill:#ff9898;fill-opacity:0.701961;stroke:#000000;stroke-width:0.5;stroke-linecap:round;stroke-linejoin:round;stroke-dasharray:none;stroke-opacity:1"
       d="m 182.73135,127.62386 8.66021,-5 4.33015,2.49999 -4.33014,7.49999 4.33017,7.50001 -4.33019,2.5 2e-5,4.99999 -8.66022,1e-5 -4.33018,-7.50001 -4.33008,2.49998 -4.33016,-2.50001 4.33017,-7.49997 h 8.66021 z"
       id="path14489" /><path
       style="fill:#ccffcc;fill-opacity:0.7019608;stroke:#000000;stroke-width:0.5;stroke-linecap:round;stroke-linejoin:round;stroke-dasharray:none;stroke-opacity:1"
       d="m 200.05182,157.6238 -8.66024,-5 v -5 l 8.66025,2e-5 4.33011,-7.50005 4.33013,2.50004 4.33012,-2.5 4.33016,7.50001 -4.33016,7.49998 4.33014,2.50002 v 4.99998 h -8.66026 l -4.33012,-7.5 z"
       id="path14491" /><path
       style="fill:#ccccff;fill-opacity:0.701961;stroke:#000000;stroke-width:0.5;stroke-linecap:round;stroke-linejoin:round;stroke-dasharray:none;stroke-opacity:1"
       d="m 208.71212,142.62378 8.66025,-5.00001 1e-5,-4.99998 -8.66026,10e-6 -4.33012,-7.50002 -4.33011,2.49997 -4.33014,-2.49997 -4.33015,7.50002 4.33017,7.49998 -4.33015,2.50001 -2e-5,5.00001 h 8.66028 l 4.33013,-7.5 z"
       id="path14493" /><path
       style="fill:#ccccff;fill-opacity:0.701961;stroke:#000000;stroke-width:0.5;stroke-linecap:round;stroke-linejoin:round;stroke-dasharray:none;stroke-opacity:1"
       d="m 182.73135,217.62379 -8.66022,-5.00001 -2e-5,-4.99998 h 8.66024 l 4.33012,-7.5 4.33012,2.5 4.33013,-2.50001 4.33013,7.50001 -4.33014,7.49999 4.33014,2.49999 1e-5,5.00001 -8.66024,10e-6 -4.33014,-7.50001 z"
       id="path14495" /><path
       style="fill:#ffffff;fill-opacity:0.7;stroke:#000000;stroke-width:0.5;stroke-linecap:round;stroke-linejoin:round;stroke-dasharray:none;stroke-opacity:1"
       d="m 148.09034,247.62381 -2e-5,10.00001 -4.33012,2.49997 -4.33012,-7.49996 -8.66025,-3e-5 v -4.99998 l -4.33014,-2.50003 4.33014,-7.49999 8.66024,2e-5 1e-5,-5.00002 4.33012,-2.49997 4.33014,7.49999 -4.33013,7.49999 z"
       id="path14587" /><path
       style="fill:#ff9898;fill-opacity:0.7019608;stroke:#000000;stroke-width:0.5;stroke-linecap:round;stroke-linejoin:round;stroke-dasharray:none;stroke-opacity:1"
       d="m 130.76983,257.62381 10e-6,-9.99999 -4.33013,-2.5 -4.33013,7.49998 -8.66023,-2e-5 -2e-5,5.00004 -4.33014,2.49994 4.33015,7.50007 8.66024,-10e-6 3e-5,5.00002 4.33009,2.49996 4.33016,-7.49997 -4.33011,-7.50002 z"
       id="path14589"
       inkscape:transform-center-x="2.1650365"
       inkscape:transform-center-y="-7.500012" /><path
       style="fill:#ff9898;fill-opacity:0.701961;stroke:#000000;stroke-width:0.5;stroke-linecap:round;stroke-linejoin:round;stroke-dasharray:none;stroke-opacity:1"
       d="m 156.7506,232.62384 8.66027,-5.00002 4.33011,2.49999 -4.33013,7.49999 4.33013,7.50004 -4.33011,2.49998 -2e-5,4.99999 -8.66025,1e-5 -4.33013,-7.50002 -4.33012,2.50002 -4.33014,-2.49999 4.33013,-7.50002 8.66025,-1e-5 z"
       id="path14591" /><path
       style="fill:#ccccff;fill-opacity:0.701961;stroke:#000000;stroke-width:0.5;stroke-linecap:round;stroke-linejoin:round;stroke-dasharray:none;stroke-opacity:1"
       d="m 148.09031,257.6238 3e-5,-9.99997 4.33009,-2.50001 4.33013,7.49997 8.66023,-2e-5 2e-5,5.00004 4.33014,2.49994 -4.33016,7.50006 h -8.66023 l -2e-5,5.00002 -4.33012,2.49996 -4.33015,-7.49998 4.33014,-7.49999 z"
       id="path14593"
       inkscape:transform-center-x="-2.165033"
       inkscape:transform-center-y="-7.500007" /><path
       style="fill:#ccffcc;fill-opacity:0.7019608;stroke:#000000;stroke-width:0.5;stroke-linecap:round;stroke-linejoin:round;stroke-dasharray:none;stroke-opacity:1"
       d="m 174.0711,232.62381 -8.66026,-5.00001 -1e-5,-4.99996 8.66028,-2e-5 4.33011,-7.5 4.33015,2.49997 4.3301,-2.49999 4.33017,7.50001 -4.33017,7.49999 4.33012,2.50002 3e-5,4.99997 h -8.66026 l -4.33011,-7.49996 z"
       id="path14595" /><path
       style="fill:#ffffff;fill-opacity:0.701961;stroke:#000000;stroke-width:0.5;stroke-linecap:round;stroke-linejoin:round;stroke-dasharray:none;stroke-opacity:1"
       d="m 182.73136,247.6238 8.66025,-5.00002 1e-5,-4.99998 -8.66026,2e-5 -4.33012,-7.50002 -4.33011,2.49996 -4.33014,-2.49996 -4.33015,7.50002 4.33017,7.49998 -4.33015,2.5 -2e-5,5.00002 h 8.66028 l 4.33013,-7.5 z"
       id="path18444" /><path
       style="fill:#ccffcc;fill-opacity:0.7019608;stroke:#000000;stroke-width:0.5;stroke-linecap:round;stroke-linejoin:round;stroke-dasharray:none;stroke-opacity:1"
       d="m 174.0711,262.62381 -8.66026,-5.00001 -1e-5,-4.99996 8.66028,-2e-5 4.33011,-7.5 4.33015,2.49997 4.3301,-2.49999 4.33017,7.50001 -4.33017,7.49999 4.33012,2.50002 3e-5,4.99997 h -8.66026 l -4.33011,-7.49996 z"
       id="path18542" /><path
       style="fill:#ccccff;fill-opacity:0.701961;stroke:#000000;stroke-width:0.5;stroke-linecap:round;stroke-linejoin:round;stroke-dasharray:none;stroke-opacity:1"
       d="m 200.05185,257.62378 -8.66024,4.99996 -4.33012,-2.49997 4.33012,-7.49999 -4.33013,-7.49999 4.33013,-2.5 -2e-5,-5 h 8.66027 l 4.33011,7.5 4.33013,-2.50001 4.33013,2.5 -4.33011,7.49999 h -8.66026 z"
       id="path18544" /><path
       style="fill:#ff9898;fill-opacity:0.701961;stroke:#000000;stroke-width:0.5;stroke-linecap:round;stroke-linejoin:round;stroke-dasharray:none;stroke-opacity:1"
       d="m 208.71207,232.62381 v 9.99997 l -4.33012,2.50003 -4.3301,-7.50001 -8.66026,2e-5 -1e-5,-5.00003 -4.33011,-2.49999 4.33009,-7.49998 8.6603,-3e-5 v -4.99998 l 4.33011,-2.49999 4.33013,7.50001 -4.33012,7.49999 z"
       id="path18546" /><path
       style="fill:#ffffff;fill-opacity:0.701961;stroke:#000000;stroke-width:0.5;stroke-linecap:round;stroke-linejoin:round;stroke-dasharray:none;stroke-opacity:1"
       d="m 61.487782,137.62381 8.660258,4.99999 -1.2e-5,5 -8.660233,-2e-5 -4.330136,7.50004 -4.330128,-2.50003 -4.33011,2.49999 -4.330146,-7.49997 4.330155,-7.50001 -4.330138,-2.50001 -1.5e-5,-4.99998 8.660255,-1e-5 4.330124,7.50001 z"
       id="path18554" /><path
       style="fill:#ff9898;fill-opacity:0.701961;stroke:#000000;stroke-width:0.5;stroke-linecap:round;stroke-linejoin:round;stroke-dasharray:none;stroke-opacity:1"
       d="m 78.808318,137.62381 -8.660251,5 -4.330129,-2.5 4.330127,-7.5 -4.330127,-7.5 4.330133,-2.49999 -10e-7,-5 8.660249,-10e-6 4.330127,7.5 4.330127,-2.5 4.330128,2.5 -4.330128,7.5 h -8.660255 z"
       id="path18556" /><path
       style="fill:#ccccff;fill-opacity:0.701961;stroke:#000000;stroke-width:0.5;stroke-linecap:round;stroke-linejoin:round;stroke-dasharray:none;stroke-opacity:1"
       d="m 52.827556,122.62381 -8.660254,5 v 5 h 8.660254 l 4.330128,7.5 4.330127,-2.5 4.330124,2.49999 4.33013,-7.49999 -4.330127,-7.5 4.330126,-2.5 -1e-6,-5 H 61.48781 l -4.330127,7.5 z"
       id="path18558" /><path
       style="fill:#ccffcc;fill-opacity:0.7019608;stroke:#000000;stroke-width:0.5;stroke-linecap:round;stroke-linejoin:round;stroke-dasharray:none;stroke-opacity:1"
       d="m 44.16728,167.6238 8.660254,5 -2e-6,5 -8.66025,-10e-6 -4.330131,7.50001 -4.330109,-2.5 -4.33013,2.5 -4.330141,-7.5 4.33014,-7.5 -4.330137,-2.50001 -4e-6,-4.99999 h 8.660268 l 4.330112,7.5 z"
       id="path18560" /><path
       style="fill:#ccccff;fill-opacity:0.7;stroke:#000000;stroke-width:0.5;stroke-linecap:round;stroke-linejoin:round;stroke-dasharray:none;stroke-opacity:1"
       d="m 35.507034,182.62382 -8.660257,5 -1.5e-5,4.99998 8.660252,1e-5 4.330138,7.50002 4.330132,-2.5 4.330109,2.49998 4.330144,-7.49999 -4.33012,-7.5 4.33011,-2.50002 3e-6,-4.99998 h -8.660245 l -4.330142,7.49998 z"
       id="path18562" /><path
       style="fill:#ccffcc;fill-opacity:0.7019608;stroke:#000000;stroke-width:0.5;stroke-linecap:round;stroke-linejoin:round;stroke-dasharray:none;stroke-opacity:1"
       d="m 44.167292,197.62378 8.660254,5 -2e-6,5 -8.66025,-1e-5 -4.330131,7.50001 -4.330109,-2.5 -4.33013,2.5 -4.330141,-7.5 4.33014,-7.5 -4.330137,-2.50001 -4e-6,-4.99999 h 8.660268 l 4.330112,7.5 z"
       id="path18564" /><path
       style="fill:#ff9898;fill-opacity:0.701961;stroke:#000000;stroke-width:0.5;stroke-linecap:round;stroke-linejoin:round;stroke-dasharray:none;stroke-opacity:1"
       d="m 18.186532,172.6238 8.660246,-5.00001 4.330135,2.50001 -4.33015,7.49998 4.330156,7.50002 -4.330152,2.49998 v 4.99999 l -8.660234,3e-5 -4.330121,-7.50004 -4.3301427,2.50001 -4.3301177,-2.49998 4.3301207,-7.5 8.6602607,10e-6 z"
       id="path18566" /><path
       style="fill:#ccccff;fill-opacity:0.7;stroke:#000000;stroke-width:0.5;stroke-linecap:round;stroke-linejoin:round;stroke-dasharray:none;stroke-opacity:1"
       d="m 26.846785,167.62378 -8.660259,5 -4.330119,-2.49998 4.330106,-7.5 -4.33014,-7.50002 4.330142,-2.5 -3e-6,-4.99997 8.660265,-2e-5 4.330132,7.49999 4.330123,-2.49996 4.330124,2.49996 -4.330135,7.50002 -8.660234,0 z"
       id="path18568" /><path
       style="fill:#ffffff;fill-opacity:0.701961;stroke:#000000;stroke-width:0.5;stroke-linecap:round;stroke-linejoin:round;stroke-dasharray:none;stroke-opacity:1"
       d="m 0.86602831,172.62377 -8.66024501,-4.99999 -2.1e-5,-5 8.66025901,2e-5 4.33013999,-7.49999 4.330122,2.49997 4.3301237,-2.49998 4.330135,7.5 -4.330139,7.5 4.330136,2.49999 3e-6,5.00001 -8.6602677,-10e-6 -4.330103,-7.5 z"
       id="path18570" /><path
       style="fill:#ffffff;fill-opacity:0.701961;stroke:#000000;stroke-width:0.5;stroke-linecap:round;stroke-linejoin:round;stroke-dasharray:none;stroke-opacity:1"
       d="m 9.5262868,197.62379 3e-6,-10 4.3301232,-2.5 4.330119,7.50001 8.660259,1e-5 8e-6,4.99998 4.330115,2.50001 -4.330122,7.50001 -8.66026,-1e-5 7e-6,5.00002 -4.330128,2.49999 -4.3301312,-7.50001 4.3301312,-7.49999 z"
       id="path18572" /><path
       style="fill:#ff9898;fill-opacity:0.701961;stroke:#000000;stroke-width:0.5;stroke-linecap:round;stroke-linejoin:round;stroke-dasharray:none;stroke-opacity:1"
       d="m 35.507045,212.62381 8.660255,5 1.3e-5,4.99999 -8.66025,1e-5 -4.330139,7.50002 -4.330139,-2.5 -4.330102,2.49998 -4.330144,-7.49999 4.330114,-7.5 -4.330103,-2.50003 -1.2e-5,-4.99996 8.660254,-2e-5 4.33014,7.49999 z"
       id="path18574" /><path
       style="fill:#ccffcc;fill-opacity:0.7019608;stroke:#000000;stroke-width:0.5;stroke-linecap:round;stroke-linejoin:round;stroke-dasharray:none;stroke-opacity:1"
       d="m 35.507045,242.62381 8.660257,5.00001 4.330123,-2.50002 -4.330131,-7.49998 4.330131,-7.50002 -4.330111,-2.49999 -4e-6,-4.99998 -8.660265,-3e-5 -4.330121,7.50001 -4.330137,-2.49999 -4.330123,2.49998 4.330143,7.50001 8.660238,-1e-5 z"
       id="path18792" /><path
       style="fill:#ccffcc;fill-opacity:0.7019608;stroke:#000000;stroke-width:0.5;stroke-linecap:round;stroke-linejoin:round;stroke-dasharray:none;stroke-opacity:1"
       d="m 78.808297,277.62379 8.660254,-4.99999 -1e-5,-4.99999 -8.660233,3e-5 -4.330144,-7.50005 -4.33011,2.50002 -4.330131,-2.49998 -4.330146,7.49995 4.330175,7.50003 -4.330161,2.5 -6e-6,4.99998 h 8.660253 l 4.330112,-7.5 z"
       id="path18794" /><path
       style="fill:#ffffff;fill-opacity:0.701961;stroke:#000000;stroke-width:0.5;stroke-linecap:round;stroke-linejoin:round;stroke-dasharray:none;stroke-opacity:1"
       d="m 52.827554,262.62381 8.660245,-5 4.330118,2.49999 -4.330141,7.5 4.330122,7.50001 -4.330102,2.49999 -2e-5,5 -8.660258,10e-6 -4.330122,-7.50001 -4.330139,2.50002 -4.330121,-2.50001 4.330141,-7.50001 8.660241,10e-6 z"
       id="path18798" /><path
       style="fill:#ff9898;fill-opacity:0.701961;stroke:#000000;stroke-width:0.5;stroke-linecap:round;stroke-linejoin:round;stroke-dasharray:none;stroke-opacity:1"
       d="m 35.507013,262.62381 -8.660229,-4.99999 8e-6,-4.99998 8.66024,3e-5 4.330138,-7.50005 4.330114,2.50002 4.33011,-2.49999 4.330159,7.49995 -4.330169,7.50005 4.33015,2.5 1.8e-5,4.99997 -8.660259,10e-6 -4.330108,-7.5 z"
       id="path18802" /><path
       style="fill:#ffffff;fill-opacity:0.701961;stroke:#000000;stroke-width:0.5;stroke-linecap:round;stroke-linejoin:round;stroke-dasharray:none;stroke-opacity:1"
       d="m 18.186538,242.62379 3e-6,-10.00001 4.330129,-2.49999 4.330104,7.50001 8.660269,-10e-6 7e-6,5 4.330095,2.50001 -4.330101,7.5 h -8.66027 l -2e-6,5.00001 -4.330112,2.49999 -4.33012,-7.5 4.330119,-7.5 z"
       id="path18804" /><path
       style="fill:#ccccff;fill-opacity:0.701961;stroke:#000000;stroke-width:0.5;stroke-linecap:round;stroke-linejoin:round;stroke-dasharray:none;stroke-opacity:1"
       d="m 9.5262813,217.62381 8.6602447,-4.99999 4.330127,2.5 -4.330118,7.49999 4.330117,7.50001 -4.330116,2.49999 -1e-6,5 -8.6602627,1e-5 -4.33012,-7.50001 -4.330135,2.50001 -4.3301273,-2.5 4.3301373,-7.50001 8.660244,1e-5 z"
       id="path18806" /><path
       style="fill:#ff9898;fill-opacity:0.701961;stroke:#000000;stroke-width:0.5;stroke-linecap:round;stroke-linejoin:round;stroke-dasharray:none;stroke-opacity:1"
       d="m 0.86603631,242.62381 -5e-6,-10.00001 4.33013729,-2.49999 4.3301082,7.49999 8.6602772,2e-5 v 4.99998 l 4.330106,2.49999 -4.330105,7.50003 -8.6602602,-2e-5 -1.6e-5,5 -4.330105,2.50002 -4.33012749,-7.50002 4.33012779,-7.49998 z"
       id="path19153" /><path
       style="fill:#ccccff;fill-opacity:0.701961;stroke:#000000;stroke-width:0.5;stroke-linecap:round;stroke-linejoin:round;stroke-dasharray:none;stroke-opacity:1"
       d="m 26.846758,277.62379 -8.660265,-5.00001 10e-6,-5 8.660252,3e-5 4.330128,-7.50002 4.330128,2.49999 4.330122,-2.49996 4.33014,7.49998 -4.330137,7.50001 4.330136,2.50001 -2e-6,4.99998 -8.66025,-1e-5 -4.330131,-7.49999 z"
       id="path19155" /><path
       style="fill:#ccffcc;fill-opacity:0.7019608;stroke:#000000;stroke-width:0.5;stroke-linecap:round;stroke-linejoin:round;stroke-dasharray:none;stroke-opacity:1"
       d="m 18.186551,272.62379 -8.6602565,5.00002 -4.3301469,-2.50004 4.3301679,-7.49997 -4.3301516,-7.50002 4.3301166,-2.49997 2e-5,-4.99999 8.6602455,-3e-5 4.33011,7.50001 4.330146,-2.49999 4.330124,2.49998 -4.330122,7.50002 -8.660269,-2e-5 z"
       id="path19226" /><path
       style="fill:#ccccff;fill-opacity:0.7019608;stroke:#000000;stroke-width:0.5;stroke-linecap:round;stroke-linejoin:round;stroke-dasharray:none;stroke-opacity:1"
       d="m 104.78908,272.62387 3e-5,-10.00002 4.33011,-2.49995 4.33012,7.49993 8.66027,6e-5 -1e-5,4.99997 4.33014,2.50002 -4.33014,7.49999 -8.66025,-1e-5 v 5.00002 l -4.33012,2.49996 -4.33014,-7.49999 4.33012,-7.49999 z"
       id="path19228" /><path
       style="fill:#ccffcc;fill-opacity:0.7019608;stroke:#000000;stroke-width:0.5;stroke-linecap:round;stroke-linejoin:round;stroke-dasharray:none;stroke-opacity:1"
       d="m 139.43009,272.6238 -8.66027,4.99999 -4.3301,-2.49999 4.33012,-7.5 -4.33012,-7.50001 4.33011,-2.49998 v -5 h 8.66025 l 4.33013,7.5 4.33012,-2.50001 4.33011,2.50001 -4.3301,7.5 -8.66025,-10e-6 z"
       id="path19230" /><path
       style="fill:#ccffcc;fill-opacity:0.7019608;stroke:#000000;stroke-width:0.5;stroke-linecap:round;stroke-linejoin:round;stroke-dasharray:none;stroke-opacity:1"
       d="m 26.84676,137.6238 4e-6,-9.99999 4.330128,-2.5 4.330133,7.49999 8.660245,1e-5 0,4.99998 4.330112,2.5 -4.330112,7.50002 -8.660255,-2e-5 -1.3e-5,5.00002 -4.330113,2.5 -4.330128,-7.50002 4.330129,-7.49998 z"
       id="path19516" /><path
       style="fill:#ccccff;fill-opacity:0.7019608;stroke:#000000;stroke-width:0.5;stroke-linecap:round;stroke-linejoin:round;stroke-dasharray:none;stroke-opacity:1"
       d="m 9.526251,127.62378 -8.660263,-4.99999 1e-6,-4.99999 8.66026,1e-5 4.330137,-7.5 4.330109,2.49999 4.330134,-2.49999 4.330138,7.5 -4.330139,7.5 4.330138,2.49999 1e-6,5 -8.660269,-10e-6 -4.330112,-7.49999 z"
       id="path19518" /><path
       style="fill:#ff9898;fill-opacity:0.701961;stroke:#000000;stroke-width:0.5;stroke-linecap:round;stroke-linejoin:round;stroke-dasharray:none;stroke-opacity:1"
       d="m 9.526279,137.6238 -1.31e-5,-10.00001 4.3301201,-2.49999 4.33012,7.50001 8.660259,1e-5 -1e-6,4.99998 4.330123,2.50001 -4.330121,7.50001 -8.660261,-1e-5 1.7e-5,5 -4.330128,2.5 -4.3301276,-7.50001 4.3301266,-7.49999 z"
       id="path19520" /><path
       style="fill:#ff9898;fill-opacity:0.7019608;stroke:#000000;stroke-width:0.5;stroke-linecap:round;stroke-linejoin:round;stroke-dasharray:none;stroke-opacity:1"
       d="m 35.507055,112.62383 8.660248,-5.00001 4.33013,2.50001 -4.330146,7.49999 4.330167,7.50001 -4.330174,2.5 5e-6,4.99997 -8.660241,4e-5 -4.33013,-7.50004 -4.330124,2.50001 -4.330126,-2.49997 4.330121,-7.50001 8.660259,1e-5 z"
       id="path19591" /><path
       style="fill:#ccffcc;fill-opacity:0.7019608;stroke:#000000;stroke-width:0.5;stroke-linecap:round;stroke-linejoin:round;stroke-dasharray:none;stroke-opacity:1"
       d="m 104.78908,122.62382 8.66025,5 v 5 l -8.66025,-1e-5 -4.33013,7.50001 -4.330116,-2.5 -4.330127,2.5 -4.330142,-7.5 4.330141,-7.5 -4.330138,-2.50001 -4e-6,-4.99999 h 8.660268 l 4.330118,7.5 z"
       id="path19662" /><path
       style="fill:#ccffcc;fill-opacity:0.7019608;stroke:#000000;stroke-width:0.5;stroke-linecap:round;stroke-linejoin:round;stroke-dasharray:none;stroke-opacity:1"
       d="m 122.10957,122.62381 v -10.00002 l 4.33012,-2.49997 4.33012,7.49998 8.66025,-1e-5 1e-5,5 4.33012,2.50003 -4.33012,7.49999 -8.66027,-1e-5 1e-5,4.99999 -4.33012,2.50003 -4.33013,-7.50002 4.33013,-7.49998 z"
       id="path19664" /><path
       style="fill:#ccccff;fill-opacity:0.701961;stroke:#000000;stroke-width:0.5;stroke-linecap:round;stroke-linejoin:round;stroke-dasharray:none;stroke-opacity:1"
       d="m 156.75059,122.62381 8.66024,4.99999 1e-5,5.00001 -8.66025,-2e-5 -4.33013,7.50001 -4.33012,-2.5 -4.33013,2.49999 -4.33013,-7.49999 4.33013,-7.50001 -4.33012,-2.49998 -1e-5,-5.00001 8.66025,1e-5 4.33014,7.49999 z"
       id="path19666" /><path
       style="fill:#ffffff;fill-opacity:0.7019608;stroke:#000000;stroke-width:0.5;stroke-linecap:round;stroke-linejoin:round;stroke-dasharray:none;stroke-opacity:1"
       d="m 165.41084,127.6238 -8.66025,-4.99998 -10e-6,-5.00002 8.66026,1e-5 4.33013,-7.49999 4.33012,2.49998 4.33013,-2.49999 4.33014,7.50001 -4.33014,7.49999 4.3301,2.49999 2e-5,5 -8.66025,-10e-6 -4.33012,-7.49997 z"
       id="path19668" /><path
       style="fill:#ff9898;fill-opacity:0.701961;stroke:#000000;stroke-width:0.5;stroke-linecap:round;stroke-linejoin:round;stroke-dasharray:none;stroke-opacity:1"
       d="m 0.8660399,202.62378 8.66024,-4.99998 4.3301351,2.5 -4.3301421,7.5 4.3301451,7.50002 -4.3301401,2.49998 -1.3e-5,4.99998 -8.660217,4e-5 -4.330121,-7.50004 -4.330149,2.5 -4.3301189,-2.49998 4.3301189,-7.49998 8.66025,-2e-5 z"
       id="path19739" /><path
       style="fill:#98ff98;fill-opacity:0.701961;stroke:#000000;stroke-width:0.5;stroke-linecap:round;stroke-linejoin:round;stroke-dasharray:none;stroke-opacity:1"
       d="m 0.86604556,122.62381 8.66024454,5 -1.5e-5,4.99999 -8.66024704,2e-5 -4.33013226,7.49998 -4.3301098,-2.49999 -4.330115,2.49999 -4.330155,-7.5 4.330153,-7.5 -4.33015,-2.50001 -3e-6,-4.99999 8.6602718,1e-5 4.3301083,7.49999 z"
       id="path19741" /><path
       style="fill:#ccccff;fill-opacity:0.701961;stroke:#000000;stroke-width:0.5;stroke-linecap:round;stroke-linejoin:round;stroke-dasharray:none;stroke-opacity:1"
       d="m 0.86603005,152.6238 8.66025155,5 4.3301184,-2.5 -4.3301394,-7.5 4.3301224,-7.5 -4.330109,-2.49998 -1.31e-5,-5 -8.66025905,-2e-5 -4.33012075,7.50002 -4.3301256,-2.50002 -4.3301255,2.5 4.3301425,7.5 8.66023945,0 z"
       id="path19743" /><path
       style="fill:#ffffff;fill-opacity:0.7019608;stroke:#000000;stroke-width:0.5;stroke-linecap:round;stroke-linejoin:round;stroke-dasharray:none;stroke-opacity:1"
       d="m 165.41083,277.62374 -8.66023,-4.99998 -2e-5,-5 8.66024,2e-5 4.3301,-7.5 4.33018,2.5 4.3301,-2.49999 4.33013,7.49994 -4.33013,7.50008 4.33011,2.49999 v 4.99998 l -8.66026,-1e-5 -4.33014,-7.49999 z"
       id="path19745" /><path
       style="fill:#ff9898;fill-opacity:0.7019608;stroke:#000000;stroke-width:0.5;stroke-linecap:round;stroke-linejoin:round;stroke-dasharray:none;stroke-opacity:1"
       d="m 191.39159,262.62381 8.66029,-4.99999 4.33011,2.50001 -4.33014,7.49998 4.33015,7.5 -4.33008,2.5 -5e-5,4.99999 -8.66028,4e-5 -4.3301,-7.50004 -4.33013,2.5 -4.33016,-2.49995 4.33012,-7.50003 8.66028,-2e-5 z"
       id="path19747" /><path
       style="fill:#ccffcc;fill-opacity:0.7019608;stroke:#000000;stroke-width:0.5;stroke-linecap:round;stroke-linejoin:round;stroke-dasharray:none;stroke-opacity:1"
       d="m 208.71209,212.62379 -8.66026,4.99998 -4.3301,-2.49997 4.33013,-7.50002 -4.33014,-7.5 4.3301,-2.50002 v -4.99998 l 8.66028,-1e-5 4.33011,7.50003 4.33014,-2.50001 4.33011,2.49998 -4.33014,7.49999 h -8.66019 z"
       id="path19749" /><path
       style="fill:#ff9898;fill-opacity:0.701961;stroke:#000000;stroke-width:0.5;stroke-linecap:round;stroke-linejoin:round;stroke-dasharray:none;stroke-opacity:1"
       d="m 9.52632,277.62377 8.660231,-4.99998 4.330101,2.5 -4.330142,7.49997 4.330159,7.50003 -4.33013,2.49998 1e-6,4.99998 -8.660232,5e-5 -4.3301501,-7.50006 -4.3301385,2.50002 -4.3301108,-2.49997 4.3301214,-7.50001 8.66025,2e-5 z"
       id="path20921" /><path
       style="fill:#ffffff;fill-opacity:0.701961;stroke:#000000;stroke-width:0.5;stroke-linecap:round;stroke-linejoin:round;stroke-dasharray:none;stroke-opacity:1"
       d="m 35.507028,292.62377 8.660261,-5.00001 v -5 l -8.660262,3e-5 -4.330129,-7.50002 -4.330118,2.5 -4.330132,-2.49997 -4.330134,7.49999 4.330133,7.5 -4.330132,2.50001 1e-6,4.99998 8.660244,-1e-5 4.330136,-7.49999 z"
       id="path20923" /><path
       style="fill:#ff9898;fill-opacity:0.701961;stroke:#000000;stroke-width:0.5;stroke-linecap:round;stroke-linejoin:round;stroke-dasharray:none;stroke-opacity:1"
       d="m 44.167279,287.6238 -1.3e-5,-10 4.33012,-2.49998 4.33009,7.49999 8.660311,-10e-6 -3.6e-5,4.99999 4.33012,2.50002 -4.330078,7.49999 -8.660305,-2e-5 1.9e-5,5.00003 -4.330114,2.49999 -4.330118,-7.5 4.330132,-7.49998 z"
       id="path20925" /><path
       style="fill:#ccccff;fill-opacity:0.701961;stroke:#000000;stroke-width:0.5;stroke-linecap:round;stroke-linejoin:round;stroke-dasharray:none;stroke-opacity:1"
       d="m 70.148042,292.62378 -8.660259,-5 -3e-6,-4.99999 h 8.660247 l 4.330143,-7.50001 4.330121,2.5 4.330117,-2.49999 4.330143,7.49999 -4.330128,7.50002 4.330112,2.5 6e-6,4.99998 h -8.660249 l -4.330132,-7.49999 z"
       id="path20996" /><path
       style="fill:#ffffff;fill-opacity:0.701961;stroke:#000000;stroke-width:0.5;stroke-linecap:round;stroke-linejoin:round;stroke-dasharray:none;stroke-opacity:1"
       d="m 96.128775,287.62378 -8.660254,5 -4.330125,-2.49999 4.330142,-7.49999 -4.330144,-7.50002 4.330127,-2.5 1.7e-5,-4.99998 8.660238,-2e-5 4.330144,7.50002 4.33013,-2.5 4.33011,2.49999 -4.33013,7.49999 -8.660253,10e-6 z"
       id="path20998" /><path
       style="fill:#ff9898;fill-opacity:0.701961;stroke:#000000;stroke-width:0.5;stroke-linecap:round;stroke-linejoin:round;stroke-dasharray:none;stroke-opacity:1"
       d="m 113.44931,287.6238 8.66025,5.00001 1e-5,4.99999 h -8.66025 l -4.33013,7.50001 -4.33011,-2.49999 -4.33013,2.5 -4.330144,-7.50001 4.330134,-7.5 -4.330139,-2.50002 1.1e-5,-4.99998 8.660268,-10e-6 4.33011,7.50001 z"
       id="path21276" /><path
       style="fill:#ffffff;fill-opacity:0.7;stroke:#000000;stroke-width:0.5;stroke-linecap:round;stroke-linejoin:round;stroke-dasharray:none;stroke-opacity:1"
       d="m 122.10961,292.62389 -8.66027,-5.00004 3e-5,-4.99997 8.66021,-2e-5 4.33015,-7.49998 4.33011,2.49999 4.33016,-2.5 4.33012,7.50002 -4.33014,7.49999 4.33015,2.50001 -4e-5,4.99996 -8.66025,2e-5 -4.33011,-7.49999 z"
       id="path21278" /><path
       style="fill:#ff9898;fill-opacity:0.701961;stroke:#000000;stroke-width:0.5;stroke-linecap:round;stroke-linejoin:round;stroke-dasharray:none;stroke-opacity:1"
       d="m 148.09035,287.62379 -8.66024,5 -4.33013,-2.5 4.33011,-7.49999 -4.33013,-7.49997 4.33015,-2.50004 -6e-5,-4.99998 h 8.66033 l 4.33012,7.49998 4.33016,-2.49999 4.33007,2.49999 -4.33009,7.50003 -8.66025,10e-6 z"
       id="path21280"
       inkscape:transform-center-x="4.3301415"
       inkscape:transform-center-y="5.000028" /><path
       style="fill:#ccffcc;fill-opacity:0.7019608;stroke:#000000;stroke-width:0.5;stroke-linecap:round;stroke-linejoin:round;stroke-dasharray:none;stroke-opacity:1"
       d="m 191.39157,292.62379 3e-5,9.99999 -4.3301,2.49999 -4.33015,-7.5 h -8.66024 l -5e-5,-5 -4.33009,-2.49997 4.33011,-7.50006 8.66026,5e-5 3e-5,-5.00001 4.33007,-2.5 4.33014,7.49999 -4.33011,7.49997 z"
       id="path21696" /><path
       style="fill:#ccccff;fill-opacity:0.701961;stroke:#000000;stroke-width:0.5;stroke-linecap:round;stroke-linejoin:round;stroke-dasharray:none;stroke-opacity:1"
       d="m 156.75064,292.62384 -8.66021,-5.00002 -1e-5,-4.99998 8.66024,1e-5 4.33008,-7.49999 4.33017,2.49998 4.33006,-2.50004 4.33018,7.50005 -4.33012,7.49999 4.33015,2.50004 -3e-5,4.99995 -8.66026,3e-5 -4.33011,-7.50001 z"
       id="path21698"
       inkscape:transform-center-x="8.660247"
       inkscape:transform-center-y="-3.749997" /><path
       style="fill:#ffffff;fill-opacity:0.7019608;stroke:#000000;stroke-width:0.5;stroke-linecap:round;stroke-linejoin:round;stroke-dasharray:none;stroke-opacity:1"
       d="m 208.7121,292.6238 1e-5,10 -4.3301,2.49999 -4.33015,-7.5 h -8.66024 l -6e-5,-5 -4.33008,-2.49997 4.33011,-7.50006 8.66026,5e-5 3e-5,-5.00001 4.33007,-2.5 4.33014,7.49999 -4.33011,7.49997 z"
       id="path21700" /><path
       style="fill:#98ff98;fill-opacity:0.701961;stroke:#000000;stroke-width:0.5;stroke-linecap:round;stroke-linejoin:round;stroke-dasharray:none;stroke-opacity:1"
       d="m 87.468546,292.62378 8.660249,-5 4.330115,2.5 -4.330144,7.49997 4.330164,7.50003 -4.330139,2.49998 -2.8e-5,4.99997 -8.660201,5e-5 -4.330145,-7.50005 -4.330141,2.50003 -4.330103,-2.5 4.330123,-7.49998 8.660235,2e-5 z"
       id="path21909" /><path
       style="fill:#ffffff;fill-opacity:0.701961;stroke:#000000;stroke-width:0.5;stroke-linecap:round;stroke-linejoin:round;stroke-dasharray:none;stroke-opacity:1"
       d="m 61.487793,307.62379 -8.660254,-5 -2e-6,-4.99999 8.660252,10e-6 4.330133,-7.50002 4.330127,2.5 4.33012,-2.49998 4.330134,7.49998 -4.330132,7.50002 4.330126,2.5 10e-7,4.99999 -8.66025,-1e-5 -4.33013,-7.49999 z"
       id="path21911" /></g><path
     id="rect8341"
     style="display:inline;fill:#fffffd;fill-opacity:1;fill-rule:evenodd;stroke:#000000;stroke-width:0.499999;stroke-linecap:round;stroke-linejoin:round;stroke-dasharray:none;stroke-opacity:1;stop-color:#000000"
     d="m -25.114739,97.6238 v 310 H 234.69288 v -310 z M 9.5264766,127.62382 H 200.0518 l 6e-5,159.99998 H 9.5262723 Z"
     transform="translate(-0.86602332,-102.6238)"
     inkscape:label="marco"
     sodipodi:nodetypes="cccccccccc"
     sodipodi:insensitive="true" /><g
     inkscape:label="Text"
     id="layer1"
     style="display:inline"
     inkscape:groupmode="layer"><text
       xml:space="preserve"
       style="font-style:normal;font-variant:normal;font-weight:normal;font-stretch:normal;font-size:2.82222px;line-height:1.25;font-family:sans-serif;-inkscape-font-specification:'sans-serif, Normal';font-variant-ligatures:normal;font-variant-caps:normal;font-variant-numeric:normal;font-feature-settings:normal;text-align:center;letter-spacing:0px;word-spacing:0px;writing-mode:lr-tb;text-anchor:middle;fill:#000000;fill-opacity:1;stroke:none;stroke-width:0.264583"
       x="105.02822"
       y="190.70132"
       id="text6517"
       inkscape:label="Footer"><tspan
         sodipodi:role="line"
         id="tspan6515"
         x="105.02822"
         y="190.70132"
         style="font-style:normal;font-variant:normal;font-weight:normal;font-stretch:normal;font-size:2.82222px;font-family:sans-serif;-inkscape-font-specification:'sans-serif, Normal';font-variant-ligatures:normal;font-variant-caps:normal;font-variant-numeric:normal;font-feature-settings:normal;text-align:center;writing-mode:lr-tb;text-anchor:middle;stroke-width:0.264583">CC BY-SA 4.0       www.picuino.com</tspan></text><text
       xml:space="preserve"
       style="font-weight:bold;font-size:7.05556px;line-height:1.25;font-family:Alef;-inkscape-font-specification:'Alef Bold';text-align:center;text-anchor:middle;fill:#000000;fill-opacity:1;stroke:none;stroke-width:0.264583px;stroke-linecap:butt;stroke-linejoin:miter;stroke-opacity:1"
       x="104.89759"
       y="17.5"
       id="text2760"
       inkscape:label="Header"><tspan
         sodipodi:role="line"
         id="tspan2758"
         style="font-style:normal;font-variant:normal;font-weight:bold;font-stretch:normal;font-size:7.05556px;font-family:'Liberation Sans';-inkscape-font-specification:'Liberation Sans Bold';fill:#000000;fill-opacity:1;stroke:none;stroke-width:0.264583px"
         x="104.89759"
         y="17.5">TESELADO DEL SOMBRERO</tspan></text></g></svg>
