<?xml version="1.0" encoding="UTF-8" standalone="no"?>
<!-- Created with Inkscape (http://www.inkscape.org/) -->

<svg
   width="210mm"
   height="297mm"
   viewBox="0 0 210 297"
   version="1.1"
   id="svg5"
   inkscape:version="1.4.3 (0d15f75, 2025-12-25)"
   sodipodi:docname="taller-tesela-hueso-color.svg"
   xmlns:inkscape="http://www.inkscape.org/namespaces/inkscape"
   xmlns:sodipodi="http://sodipodi.sourceforge.net/DTD/sodipodi-0.dtd"
   xmlns="http://www.w3.org/2000/svg"
   xmlns:svg="http://www.w3.org/2000/svg"
   xmlns:rdf="http://www.w3.org/1999/02/22-rdf-syntax-ns#"
   xmlns:cc="http://creativecommons.org/ns#"
   xmlns:dc="http://purl.org/dc/elements/1.1/">
  <title
     id="title1103">Teselas de huesos nazaríes a color</title>
  <sodipodi:namedview
     id="namedview7"
     pagecolor="#ffffff"
     bordercolor="#000000"
     borderopacity="0.25"
     inkscape:showpageshadow="2"
     inkscape:pageopacity="0.0"
     inkscape:pagecheckerboard="0"
     inkscape:deskcolor="#d1d1d1"
     inkscape:document-units="mm"
     showgrid="true"
     inkscape:zoom="0.52221045"
     inkscape:cx="908.63751"
     inkscape:cy="658.73825"
     inkscape:window-width="1763"
     inkscape:window-height="1032"
     inkscape:window-x="126"
     inkscape:window-y="0"
     inkscape:window-maximized="0"
     inkscape:current-layer="layer1"
     inkscape:export-bgcolor="#ffffffff">
    <inkscape:grid
       type="xygrid"
       id="grid1779"
       units="mm"
       spacingx="1"
       spacingy="1"
       originx="0"
       originy="0" />
  </sodipodi:namedview>
  <defs
     id="defs2" />
  <g
     inkscape:label="Capa 1"
     inkscape:groupmode="layer"
     id="layer1">
    <text
       xml:space="preserve"
       style="font-size:3.52777px;fill:#000000;fill-opacity:1;stroke:none;stroke-width:0.4;stroke-linecap:round;stroke-linejoin:round"
       x="40.893379"
       y="285.00226"
       id="text360"><tspan
         sodipodi:role="line"
         id="tspan358"
         style="fill:#000000;fill-opacity:1;stroke:none;stroke-width:0.4"
         x="40.893379"
         y="285.00226">Licencia Creative Commons BY-SA 4.0      www.picuino.com      Versión: 5/2026</tspan></text>
    <text
       xml:space="preserve"
       style="font-weight:bold;font-size:4.9389px;font-family:sans-serif;-inkscape-font-specification:'sans-serif Bold';text-align:center;text-anchor:middle;fill:#000000;stroke-width:0.4;stroke-linecap:round;stroke-linejoin:round"
       x="105.09137"
       y="14.612932"
       id="text2981"><tspan
         sodipodi:role="line"
         id="tspan2979"
         style="stroke-width:0.4"
         x="105.09137"
         y="14.612932">TESELAS DE HUESOS NAZARÍES A COLOR</tspan></text>
    <path
       style="fill:#ffff00;stroke:#000000;stroke-width:0.4;stroke-linecap:round;stroke-linejoin:round;stroke-dashoffset:2.28557;fill-opacity:1"
       d="M 92.499995,28.5 H 72.499998 l -10.000001,10 10.000001,10.000002 V 68.500001 L 62.499997,78.500003 72.499998,88.5 H 92.499995 L 102.5,78.500003 92.499995,68.500001 V 48.500002 L 102.5,38.5 Z"
       id="use2" />
    <path
       style="fill:#ff7fff;stroke:#000000;stroke-width:0.4;stroke-linecap:round;stroke-linejoin:round;stroke-dashoffset:2.28557;fill-opacity:1"
       d="M 157.5,68.499999 V 48.500001 L 147.5,38.5 l -10,10.000001 h -20 L 107.5,38.5 97.499997,48.500001 V 68.499999 L 107.5,78.5 l 10,-10.000001 h 20 L 147.5,78.5 Z"
       id="use3" />
    <path
       style="fill:#7fffff;stroke:#000000;stroke-width:0.4;stroke-linecap:round;stroke-linejoin:round;stroke-dashoffset:2.28557;fill-opacity:1"
       d="m 182.5,28.5 h -20 l -10,10 10,10.000001 V 68.5 l -10,10.000001 10,9.999999 h 20 l 10,-9.999998 L 182.5,68.5 V 48.500001 l 10,-10.000002 z"
       id="use4" />
    <path
       style="fill:#ffff00;stroke:#000000;stroke-width:0.4;stroke-linecap:round;stroke-linejoin:round;stroke-dashoffset:2.28557;fill-opacity:1"
       d="M 67.499997,68.499999 V 48.500001 L 57.499997,38.5 47.499995,48.500001 H 27.499996 L 17.499995,38.5 7.499997,48.500001 V 68.499999 L 17.499995,78.5 27.499996,68.499999 H 47.499995 L 57.499997,78.5 Z"
       id="use5" />
    <path
       style="fill:#ffff00;stroke:#000000;stroke-width:0.4;stroke-linecap:round;stroke-linejoin:round;stroke-dashoffset:2.28557;fill-opacity:1"
       d="M 47.499994,73.500002 H 27.499997 l -10.000001,10 10.000001,10.000002 V 113.5 l -10.000001,10 10.000001,10 h 19.999997 l 10.000001,-10 -10.000001,-10 V 93.500004 L 57.499995,83.500002 Z"
       id="use6" />
    <path
       style="fill:#ffff00;stroke:#000000;stroke-width:0.4;stroke-linecap:round;stroke-linejoin:round;stroke-dashoffset:2.28557;fill-opacity:1"
       d="M 112.5,113.5 V 93.500002 L 102.5,83.5 92.499997,93.500002 H 72.499998 L 62.499997,83.5 52.499999,93.500002 V 113.5 l 9.999998,10 10.000001,-10 H 92.499997 L 102.5,123.5 Z"
       id="use7" />
    <path
       style="fill:#ff7fff;stroke:#000000;stroke-width:0.4;stroke-linecap:round;stroke-linejoin:round;stroke-dashoffset:2.28557;fill-opacity:1"
       d="m 137.5,73.499999 h -20 l -10,10 10,10.000001 v 20 l -10,10 10,9.99999 h 20 l 10,-9.99999 -10,-10 v -20 l 10,-10.000001 z"
       id="use8" />
    <path
       style="fill:#7fffff;stroke:#000000;stroke-width:0.4;stroke-linecap:round;stroke-linejoin:round;stroke-dashoffset:2.28557;fill-opacity:1"
       d="M 202.5,113.5 V 93.500002 L 192.5,83.5 l -10,10.000002 h -20 L 152.5,83.5 142.5,93.500002 V 113.5 l 10,10 10,-10 h 20 l 10,10 z"
       id="use9" />
    <path
       style="fill:#ffff00;stroke:#000000;stroke-width:0.4;stroke-linecap:round;stroke-linejoin:round;stroke-dashoffset:2.28557;fill-opacity:1"
       d="M 92.499995,118.5 H 72.499998 l -10.000001,10 10.000001,10 v 20 l -10.000001,10 10.000001,10 H 92.499995 L 102.5,168.5 92.499995,158.5 v -20 L 102.5,128.5 Z"
       id="use25" />
    <path
       style="fill:#ff7fff;stroke:#000000;stroke-width:0.4;stroke-linecap:round;stroke-linejoin:round;stroke-dashoffset:2.28557;fill-opacity:1"
       d="m 157.5,158.5 v -20 l -10,-10 -10,10 h -20 l -10,-10 -10.000003,10 v 20 l 10.000003,10 10,-10 h 20 l 10,10 z"
       id="use26" />
    <path
       style="fill:#7fffff;stroke:#000000;stroke-width:0.4;stroke-linecap:round;stroke-linejoin:round;stroke-dashoffset:2.28557;fill-opacity:1"
       d="m 182.5,118.5 h -20 l -10,10 10,10 v 20 l -10,10 10,9.99999 h 20 l 10,-9.99999 -10,-10 v -20 l 10,-10 z"
       id="use27" />
    <path
       style="fill:#ffff00;stroke:#000000;stroke-width:0.4;stroke-linecap:round;stroke-linejoin:round;stroke-dashoffset:2.28557;fill-opacity:1"
       d="m 67.499999,158.5 v -20 l -10,-10 -10.000002,10 H 27.499998 l -10.000001,-10 -9.999998,10 v 20 l 9.999998,10 10.000001,-10 h 19.999999 l 10.000002,10 z"
       id="use28" />
    <path
       style="fill:#ffff00;stroke:#000000;stroke-width:0.4;stroke-linecap:round;stroke-linejoin:round;stroke-dashoffset:2.28557;fill-opacity:1"
       d="M 47.499995,163.5 H 27.499998 l -10.000001,10 10.000001,10 v 20 l -10.000001,10 10.000001,10 h 19.999997 l 10.000001,-10 -10.000001,-10 v -20 l 10.000001,-10 z"
       id="use29" />
    <path
       style="fill:#ffff00;stroke:#000000;stroke-width:0.4;stroke-linecap:round;stroke-linejoin:round;stroke-dashoffset:2.28557;fill-opacity:1"
       d="m 112.5,203.5 v -20 l -10,-10 -10.000001,10 H 72.5 l -10.000001,-10 -9.999998,10 v 20 l 9.999998,10 L 72.5,203.5 H 92.499999 L 102.5,213.5 Z"
       id="use30" />
    <path
       style="fill:#ff7fff;stroke:#000000;stroke-width:0.4;stroke-linecap:round;stroke-linejoin:round;stroke-dashoffset:2.28557;fill-opacity:1"
       d="m 137.5,163.49999 h -20 l -10,10 10,10.00001 v 20 l -10,10 10,9.99999 h 20 l 10,-9.99999 -10,-10 v -20 l 10,-10.00001 z"
       id="use31" />
    <path
       style="fill:#7fffff;stroke:#000000;stroke-width:0.4;stroke-linecap:round;stroke-linejoin:round;stroke-dashoffset:2.28557;fill-opacity:1"
       d="m 202.50001,203.5 v -20 l -10,-10 -10.00001,10 h -20 l -10,-10 -9.99999,10 v 20 l 9.99999,10 10,-10 h 20 l 10.00001,10 z"
       id="use32" />
    <path
       style="fill:#ffff00;stroke:#000000;stroke-width:0.4;stroke-linecap:round;stroke-linejoin:round;stroke-dashoffset:2.28557;fill-opacity:1"
       d="M 92.499995,208.5 H 72.499998 l -10.000001,10 10.000001,10 v 20 l -10.000001,10 10.000001,10 H 92.499995 L 102.5,258.5 92.499995,248.5 v -20 L 102.5,218.5 Z"
       id="use33" />
    <path
       style="fill:#ff7fff;stroke:#000000;stroke-width:0.4;stroke-linecap:round;stroke-linejoin:round;stroke-dashoffset:2.28557;fill-opacity:1"
       d="m 157.5,248.5 v -20 l -10,-10 -10,10 h -20 l -10,-10 -10.000003,10 v 20 l 10.000003,10 10,-10 h 20 l 10,10 z"
       id="use34" />
    <path
       style="fill:#7fffff;stroke:#000000;stroke-width:0.4;stroke-linecap:round;stroke-linejoin:round;stroke-dashoffset:2.28557;fill-opacity:1"
       d="m 182.5,208.5 h -20 l -10,10 10,10 v 20 l -10,10 10,10 h 20 l 10,-10 -10,-10 v -20 l 10,-10 z"
       id="use35" />
    <path
       style="fill:#ffff00;stroke:#000000;stroke-width:0.4;stroke-linecap:round;stroke-linejoin:round;stroke-dashoffset:2.28557;fill-opacity:1"
       d="m 67.499999,248.5 v -20 l -10,-10 -10.000002,10 H 27.499998 l -10.000001,-10 -9.999998,10 v 20 l 9.999998,10 10.000001,-10 h 19.999999 l 10.000002,10 z"
       id="use36" />
  </g>
  <metadata
     id="metadata1101">
    <rdf:RDF>
      <cc:Work
         rdf:about="">
        <dc:title>Teselas de huesos nazaríes a color</dc:title>
        <dc:date>31/05/2026</dc:date>
        <dc:creator>
          <cc:Agent>
            <dc:title>Carlos Félix Pardo Martín</dc:title>
          </cc:Agent>
        </dc:creator>
        <dc:rights>
          <cc:Agent>
            <dc:title>Licencia Creative Commons BY-SA 4.0</dc:title>
          </cc:Agent>
        </dc:rights>
        <dc:publisher>
          <cc:Agent>
            <dc:title>www.picuino.com</dc:title>
          </cc:Agent>
        </dc:publisher>
        <cc:license
           rdf:resource="http://creativecommons.org/licenses/by-sa/4.0/" />
      </cc:Work>
      <cc:License
         rdf:about="http://creativecommons.org/licenses/by-sa/4.0/">
        <cc:permits
           rdf:resource="http://creativecommons.org/ns#Reproduction" />
        <cc:permits
           rdf:resource="http://creativecommons.org/ns#Distribution" />
        <cc:requires
           rdf:resource="http://creativecommons.org/ns#Notice" />
        <cc:requires
           rdf:resource="http://creativecommons.org/ns#Attribution" />
        <cc:permits
           rdf:resource="http://creativecommons.org/ns#DerivativeWorks" />
        <cc:requires
           rdf:resource="http://creativecommons.org/ns#ShareAlike" />
      </cc:License>
    </rdf:RDF>
  </metadata>
</svg>
