<?xml version="1.0" encoding="UTF-8" standalone="no"?>
<!-- Created with Inkscape (http://www.inkscape.org/) -->

<svg
   width="210mm"
   height="297mm"
   viewBox="0 0 210 297"
   version="1.1"
   id="svg5"
   inkscape:version="1.4.3 (0d15f75, 2025-12-25)"
   sodipodi:docname="taller-tesela-salamandra-3d.svg"
   xmlns:inkscape="http://www.inkscape.org/namespaces/inkscape"
   xmlns:sodipodi="http://sodipodi.sourceforge.net/DTD/sodipodi-0.dtd"
   xmlns="http://www.w3.org/2000/svg"
   xmlns:svg="http://www.w3.org/2000/svg"
   xmlns:rdf="http://www.w3.org/1999/02/22-rdf-syntax-ns#"
   xmlns:cc="http://creativecommons.org/ns#"
   xmlns:dc="http://purl.org/dc/elements/1.1/">
  <title
     id="title1624">Teselas de salamandras</title>
  <sodipodi:namedview
     id="namedview7"
     pagecolor="#ffffff"
     bordercolor="#000000"
     borderopacity="0.25"
     inkscape:showpageshadow="2"
     inkscape:pageopacity="0.0"
     inkscape:pagecheckerboard="0"
     inkscape:deskcolor="#d1d1d1"
     inkscape:document-units="mm"
     showgrid="true"
     inkscape:zoom="1.4770342"
     inkscape:cx="-103.92447"
     inkscape:cy="-13.879164"
     inkscape:window-width="1920"
     inkscape:window-height="1009"
     inkscape:window-x="-8"
     inkscape:window-y="-8"
     inkscape:window-maximized="1"
     inkscape:current-layer="layer1"
     inkscape:export-bgcolor="#ffffffff">
    <inkscape:grid
       type="xygrid"
       id="grid1779"
       units="mm"
       spacingx="1"
       spacingy="1"
       originx="0"
       originy="0" />
  </sodipodi:namedview>
  <defs
     id="defs2" />
  <g
     inkscape:label="Capa 1"
     inkscape:groupmode="layer"
     id="layer1">
    <path
       id="path29"
       style="fill:#303030;fill-opacity:1;stroke:none;stroke-width:0.4;stroke-linecap:round;stroke-linejoin:round;stroke-dashoffset:2.28557"
       d="m -1.6523422,-24.666798 c 0.3770833,2.279558 0.75416662,4.559114 1.13124996,6.838672 1.06145832,0.52474 2.12291664,1.04948 3.18437504,1.574218 0.061081,0.134066 -0.00258,0.22977 -0.1097768,0.31209 -1.64114208,1.696101 -3.28228422,3.392202 -4.9234264,5.088302 -0.132668,0.04802 -0.2205736,-0.04921 -0.3146954,-0.126272 -1.3566214,-1.070674 -2.7204116,-2.133863 -4.0725552,-3.209212 -1.1124498,-1.909488 -2.2116456,-3.82837 -3.318999,-5.74147 -2.835287,-1.0375 -5.670573,-2.075 -8.50586,-3.1125 -0.698047,0.41263 -1.396094,0.82526 -2.09414,1.23789 -0.877474,3.169402 -1.754948,6.338803 -2.632422,9.508204 2.315886,2.3545576 4.631771,4.709115 6.947656,7.0636722 0.06576,0.1866098 0.01791,0.3965672 0.03578,0.5930198 0.0068,0.6684726 0.01365,1.3369452 0.02047,2.0054178 -0.07485,0.1681848 -0.265369,0.2479576 -0.390782,0.3774938 -2.221172,1.8572416 -4.442344,3.7144832 -6.663514,5.5717249 -0.201196,0.054527 -0.419714,0.010342 -0.62797,0.024642 -2.023358,1.192e-4 -4.046718,2.38e-4 -6.070078,3.58e-4 -1.63086,0.6522135 -3.261718,1.3044271 -4.892578,1.9566406 0.644792,2.2563803 1.289584,4.5127605 1.934376,6.7691409 0.959764,-0.639974 1.91953,-1.279948 2.879296,-1.919922 0.178438,-0.02832 0.337774,0.100614 0.507562,0.143501 2.06076,0.774692 4.121522,1.549385 6.182282,2.324077 3.403776,-2.7313802 6.807552,-5.4627604 10.211328,-8.1941406 0.177362,-0.045658 0.358908,0.048336 0.538083,0.06316 2.8699876,0.5372799 5.7399758,1.0745599 8.6099638,1.6118399 0.030973,0.131982 0.035589,0.2479694 -0.1285676,0.2615424 -2.1286286,0.8542254 -4.257257,1.708451 -6.3858852,2.5626764 -1.914063,2.6309889 -3.828125,5.2619789 -5.742188,7.8929679 -0.355599,1.557422 -0.711198,3.114844 -1.066797,4.672266 2.497396,2.974609 4.994792,5.949217 7.4921878,8.923827 0.069023,0.234316 0.064804,0.48857 0.1055286,0.73059 0.1679488,1.394492 0.3358976,2.788982 0.5038464,4.183472 1.6,-0.198436 3.2,-0.396874 4.8,-0.595312 0.8713542,-3.153776 1.7427082,-6.307552 2.6140624,-9.461328 -2.3122396,-2.348567 -4.6244792,-4.697134 -6.9367186,-7.045702 -0.058792,-0.172226 0.088962,-0.322689 0.13357,-0.484021 0.5990964,-1.416264 1.1981928,-2.832528 1.7972892,-4.248792 0.1148676,-0.08857 0.2280624,-0.02374 0.3413718,0.03058 1.4554804,0.621839 2.9109606,1.243679 4.3664408,1.865518 3.831901,-0.676823 7.663802,-1.353646 11.495703,-2.030469 0.1738008,0.04495 0.2725794,0.221792 0.4127466,0.325872 1.081558,1.003746 2.163117,2.007492 3.244675,3.011238 -0.141683,-0.07725 0.118939,0.0996 0.09888,0.199255 1.30389,2.934102 2.607779,5.868205 3.911668,8.802307 -0.0056,0.296574 -0.07882,0.592894 -0.110995,0.889368 -0.276673,1.936486 -0.553347,3.872972 -0.83002,5.80946 1.910807,-2.229298 3.821614,-4.458594 5.732422,-6.687892 C 21.09935,21.391275 20.4362,17.08138 19.773048,12.771484 18.024611,10.07539 16.276173,7.3792962 14.527736,4.6832025 14.501744,4.5095129 14.677751,4.411967 14.758144,4.278379 c 1.677754,-2.1024286 3.355509,-4.2048572 5.033264,-6.3072858 0.13563,-0.085014 0.302055,0.00122 0.45146,-0.00652 4.543914,0.4174082 9.087828,0.8348166 13.631742,1.2522248 0.453386,-2.7255208 0.906772,-5.4510416 1.360158,-8.1765624 -2.62448,0.5748698 -5.24896,1.1497396 -7.873438,1.7246094 -0.182876,-0.037937 -0.31835,-0.1928966 -0.481434,-0.2796954 -2.3377,-1.5433568 -4.675398,-3.0867136 -7.013098,-4.6300706 -2.635156,1.317578 -5.270312,2.6351566 -7.905468,3.9527348 -0.825521,2.5959634 -1.651042,5.191927 -2.4765628,7.7878906 C 9.3565574,-0.328146 9.2539832,-0.3780452 9.162353,-0.4817576 7.0144858,-2.2489064 4.8666186,-4.0160552 2.7187516,-5.783204 2.6618852,-5.913416 2.753425,-6.0071734 2.8265764,-6.1054476 5.4949316,-9.8813664 8.163287,-13.657285 10.831642,-17.433204 c -1.0093748,-2.57461 -2.0187498,-5.149218 -3.0281248,-7.723828 -3.1519532,0.163412 -6.3039063,0.326822 -9.4558594,0.490234 z" />
    <circle
       style="fill:#000000;fill-opacity:1;stroke:none;stroke-width:0;stroke-linecap:round;stroke-linejoin:round;stroke-dasharray:none;stroke-dashoffset:2.28557"
       id="circle30"
       cx="-8.8676071"
       cy="-21.537136"
       r="1.5"
       transform="rotate(-30)" />
    <circle
       style="fill:#000000;fill-opacity:1;stroke:none;stroke-width:0;stroke-linecap:round;stroke-linejoin:round;stroke-dasharray:none;stroke-dashoffset:2.28557"
       id="circle31"
       cx="-3.3676074"
       cy="-22.037136"
       r="1.5"
       transform="rotate(-30)" />
  </g>
  <metadata
     id="metadata1622">
    <rdf:RDF>
      <cc:Work
         rdf:about="">
        <cc:license
           rdf:resource="http://creativecommons.org/licenses/by-sa/4.0/" />
        <dc:title>Teselas de salamandras</dc:title>
        <dc:date>30/04/2026</dc:date>
        <dc:creator>
          <cc:Agent>
            <dc:title>Carlos Félix Pardo Martín</dc:title>
          </cc:Agent>
        </dc:creator>
        <dc:rights>
          <cc:Agent>
            <dc:title>Licencia Creative Commons BY-SA 4.0</dc:title>
          </cc:Agent>
        </dc:rights>
        <dc:publisher>
          <cc:Agent>
            <dc:title>www.picuino.com</dc:title>
          </cc:Agent>
        </dc:publisher>
      </cc:Work>
      <cc:License
         rdf:about="http://creativecommons.org/licenses/by-sa/4.0/">
        <cc:permits
           rdf:resource="http://creativecommons.org/ns#Reproduction" />
        <cc:permits
           rdf:resource="http://creativecommons.org/ns#Distribution" />
        <cc:requires
           rdf:resource="http://creativecommons.org/ns#Notice" />
        <cc:requires
           rdf:resource="http://creativecommons.org/ns#Attribution" />
        <cc:permits
           rdf:resource="http://creativecommons.org/ns#DerivativeWorks" />
        <cc:requires
           rdf:resource="http://creativecommons.org/ns#ShareAlike" />
      </cc:License>
    </rdf:RDF>
  </metadata>
</svg>
