<?xml version="1.0" encoding="UTF-8" standalone="no"?>
<!-- Created with Inkscape (http://www.inkscape.org/) -->

<svg
   width="210mm"
   height="297mm"
   viewBox="0 0 210 297"
   version="1.1"
   id="svg5"
   inkscape:version="1.4.3 (0d15f75, 2025-12-25)"
   sodipodi:docname="taller-tesela-perro.svg"
   xmlns:inkscape="http://www.inkscape.org/namespaces/inkscape"
   xmlns:sodipodi="http://sodipodi.sourceforge.net/DTD/sodipodi-0.dtd"
   xmlns="http://www.w3.org/2000/svg"
   xmlns:svg="http://www.w3.org/2000/svg"
   xmlns:rdf="http://www.w3.org/1999/02/22-rdf-syntax-ns#"
   xmlns:cc="http://creativecommons.org/ns#"
   xmlns:dc="http://purl.org/dc/elements/1.1/">
  <title
     id="title1624">Teselas de perros</title>
  <sodipodi:namedview
     id="namedview7"
     pagecolor="#ffffff"
     bordercolor="#000000"
     borderopacity="0.25"
     inkscape:showpageshadow="2"
     inkscape:pageopacity="0.0"
     inkscape:pagecheckerboard="0"
     inkscape:deskcolor="#d1d1d1"
     inkscape:document-units="mm"
     showgrid="true"
     inkscape:zoom="1.0444209"
     inkscape:cx="1243.7514"
     inkscape:cy="410.27521"
     inkscape:window-width="1920"
     inkscape:window-height="1009"
     inkscape:window-x="-8"
     inkscape:window-y="-8"
     inkscape:window-maximized="1"
     inkscape:current-layer="layer1"
     inkscape:export-bgcolor="#ffffffff">
    <inkscape:grid
       type="xygrid"
       id="grid1779"
       units="mm"
       spacingx="1"
       spacingy="1"
       originx="0"
       originy="0" />
  </sodipodi:namedview>
  <defs
     id="defs2" />
  <g
     inkscape:label="Capa 1"
     inkscape:groupmode="layer"
     id="layer1">
    <text
       xml:space="preserve"
       style="font-size:3.52777px;fill:#000000;fill-opacity:1;stroke:none;stroke-width:0.4;stroke-linecap:round;stroke-linejoin:round"
       x="40.893379"
       y="285.00226"
       id="text360"><tspan
         sodipodi:role="line"
         id="tspan358"
         style="fill:#000000;fill-opacity:1;stroke:none;stroke-width:0.4"
         x="40.893379"
         y="285.00226">Licencia Creative Commons BY-SA 4.0      www.picuino.com      Versión: 5/2026</tspan></text>
    <text
       xml:space="preserve"
       style="font-weight:bold;font-size:4.93889px;font-family:sans-serif;-inkscape-font-specification:'sans-serif Bold';text-align:center;text-anchor:middle;fill:#000000;fill-opacity:1;stroke:none;stroke-width:0.4;stroke-linecap:round;stroke-linejoin:round"
       x="105.09137"
       y="13.580695"
       id="text1890"><tspan
         sodipodi:role="line"
         id="tspan1888"
         style="font-size:4.93889px;text-align:center;text-anchor:middle;fill:#000000;fill-opacity:1;stroke:none;stroke-width:0.4"
         x="105.09137"
         y="13.580695">TESELAS DE PERROS</tspan></text>
    <g
       id="g3"
       transform="translate(125.26948,131.25336)">
      <path
         id="path1"
         style="fill:none;stroke:#000000;stroke-width:0.4;stroke-linecap:round;stroke-linejoin:round"
         d="m 68.981836,21.507214 c -4.886865,4.190992 -18.89516,2.028978 -20.943425,3.49281 -2.443433,1.746246 -2.094445,7.275284 -2.094445,10.477397 0,3.492494 -1.396298,3.49261 -1.396298,6.985103 H 31.98151 c 0,-3.492497 2.792595,-3.492606 2.792595,-6.985103 V 25.000024 c -0.253523,7.081913 -6.981486,13.970003 -6.981486,17.4625 0,0 5.9e-5,24.44752 0,27.939897 -6e-5,3.492376 2.094447,3.492614 2.094446,6.985103 h 2.094445 4.188375 c 0,-3.492489 -2.792077,-3.492614 -2.792077,-6.985103 V 59.925024 c 10e-7,-0.698497 2.6e-5,-1.397318 0.698148,-3.49281 4.886856,4.190983 18.895165,2.028981 20.943425,3.49281 2.44343,1.746242 2.094445,7.275288 2.094445,10.477397 0,3.492486 1.396298,3.492617 1.396298,6.985103 h 6.283337 c 1e-6,-3.492486 -2.094446,-4.191114 -2.094446,-6.985103 V 42.462524 c 0,-3.492493 6.727447,-10.380594 6.98097,-17.4625 0,-0.698499 -2.5e-5,-1.397314 -0.698149,-3.49281 z" />
      <g
         id="g2"
         transform="matrix(0,-0.69850006,-0.69812501,0,97.605132,65.513002)"
         style="stroke-width:1.43202">
        <ellipse
           style="fill:none;stroke:#000000;stroke-width:0.572809;stroke-linecap:round;stroke-linejoin:round"
           id="ellipse1"
           cx="51.000004"
           cy="57"
           rx="1.8000008"
           ry="1.8000004" />
        <ellipse
           style="fill:#000000;fill-opacity:1;stroke:#000000;stroke-width:0.572809;stroke-linecap:round;stroke-linejoin:round"
           id="ellipse2"
           cx="51"
           cy="56.099998"
           rx="1"
           ry="0.89999998" />
      </g>
      <path
         style="fill:none;fill-opacity:1;stroke:#000000;stroke-width:0.4;stroke-linecap:round;stroke-linejoin:round"
         d="m 53.623271,26.396948 v 7.683501 c 0,3.4925 -5.585001,3.4925 -5.585001,0 v -6.286501"
         id="path2"
         sodipodi:nodetypes="cccc" />
    </g>
    <g
       id="g15"
       transform="matrix(-1,0,0,1,83.879985,197.53366)">
      <path
         id="path13"
         style="fill:none;stroke:#000000;stroke-width:0.4;stroke-linecap:round;stroke-linejoin:round"
         d="m 68.981836,21.507214 c -4.886865,4.190992 -18.89516,2.028978 -20.943425,3.49281 -2.443433,1.746246 -2.094445,7.275284 -2.094445,10.477397 0,3.492494 -1.396298,3.49261 -1.396298,6.985103 H 31.98151 c 0,-3.492497 2.792595,-3.492606 2.792595,-6.985103 V 25.000024 c -0.253523,7.081913 -6.981486,13.970003 -6.981486,17.4625 0,0 5.9e-5,24.44752 0,27.939897 -6e-5,3.492376 2.094447,3.492614 2.094446,6.985103 h 2.094445 4.188375 c 0,-3.492489 -2.792077,-3.492614 -2.792077,-6.985103 V 59.925024 c 10e-7,-0.698497 2.6e-5,-1.397318 0.698148,-3.49281 4.886856,4.190983 18.895165,2.028981 20.943425,3.49281 2.44343,1.746242 2.094445,7.275288 2.094445,10.477397 0,3.492486 1.396298,3.492617 1.396298,6.985103 h 6.283337 c 1e-6,-3.492486 -2.094446,-4.191114 -2.094446,-6.985103 V 42.462524 c 0,-3.492493 6.727447,-10.380594 6.98097,-17.4625 0,-0.698499 -2.5e-5,-1.397314 -0.698149,-3.49281 z" />
      <g
         id="g14"
         transform="matrix(0,-0.69850006,-0.69812501,0,97.605132,65.513002)"
         style="stroke-width:1.43202">
        <ellipse
           style="fill:none;stroke:#000000;stroke-width:0.572809;stroke-linecap:round;stroke-linejoin:round"
           id="ellipse13"
           cx="51.000004"
           cy="57"
           rx="1.8000008"
           ry="1.8000004" />
        <ellipse
           style="fill:#000000;fill-opacity:1;stroke:#000000;stroke-width:0.572809;stroke-linecap:round;stroke-linejoin:round"
           id="ellipse14"
           cx="51"
           cy="56.099998"
           rx="1"
           ry="0.89999998" />
      </g>
      <path
         style="fill:none;fill-opacity:1;stroke:#000000;stroke-width:0.4;stroke-linecap:round;stroke-linejoin:round"
         d="m 53.623271,26.396948 v 7.683501 c 0,3.4925 -5.585001,3.4925 -5.585001,0 v -6.286501"
         id="path14"
         sodipodi:nodetypes="cccc" />
    </g>
    <g
       id="g17"
       transform="matrix(-1,0,0,1,130.16735,197.53366)">
      <path
         id="path15"
         style="fill:none;stroke:#000000;stroke-width:0.4;stroke-linecap:round;stroke-linejoin:round"
         d="m 68.981836,21.507214 c -4.886865,4.190992 -18.89516,2.028978 -20.943425,3.49281 -2.443433,1.746246 -2.094445,7.275284 -2.094445,10.477397 0,3.492494 -1.396298,3.49261 -1.396298,6.985103 H 31.98151 c 0,-3.492497 2.792595,-3.492606 2.792595,-6.985103 V 25.000024 c -0.253523,7.081913 -6.981486,13.970003 -6.981486,17.4625 0,0 5.9e-5,24.44752 0,27.939897 -6e-5,3.492376 2.094447,3.492614 2.094446,6.985103 h 2.094445 4.188375 c 0,-3.492489 -2.792077,-3.492614 -2.792077,-6.985103 V 59.925024 c 10e-7,-0.698497 2.6e-5,-1.397318 0.698148,-3.49281 4.886856,4.190983 18.895165,2.028981 20.943425,3.49281 2.44343,1.746242 2.094445,7.275288 2.094445,10.477397 0,3.492486 1.396298,3.492617 1.396298,6.985103 h 6.283337 c 1e-6,-3.492486 -2.094446,-4.191114 -2.094446,-6.985103 V 42.462524 c 0,-3.492493 6.727447,-10.380594 6.98097,-17.4625 0,-0.698499 -2.5e-5,-1.397314 -0.698149,-3.49281 z" />
      <g
         id="g16"
         transform="matrix(0,-0.69850006,-0.69812501,0,97.605132,65.513002)"
         style="stroke-width:1.43202">
        <ellipse
           style="fill:none;stroke:#000000;stroke-width:0.572809;stroke-linecap:round;stroke-linejoin:round"
           id="ellipse15"
           cx="51.000004"
           cy="57"
           rx="1.8000008"
           ry="1.8000004" />
        <ellipse
           style="fill:#000000;fill-opacity:1;stroke:#000000;stroke-width:0.572809;stroke-linecap:round;stroke-linejoin:round"
           id="ellipse16"
           cx="51"
           cy="56.099998"
           rx="1"
           ry="0.89999998" />
      </g>
      <path
         style="fill:none;fill-opacity:1;stroke:#000000;stroke-width:0.4;stroke-linecap:round;stroke-linejoin:round"
         d="m 53.623271,26.396948 v 7.683501 c 0,3.4925 -5.585001,3.4925 -5.585001,0 v -6.286501"
         id="path16"
         sodipodi:nodetypes="cccc" />
    </g>
    <g
       id="g19"
       transform="matrix(-1,0,0,1,176.45472,197.53366)">
      <path
         id="path17"
         style="fill:none;stroke:#000000;stroke-width:0.4;stroke-linecap:round;stroke-linejoin:round"
         d="m 68.981836,21.507214 c -4.886865,4.190992 -18.89516,2.028978 -20.943425,3.49281 -2.443433,1.746246 -2.094445,7.275284 -2.094445,10.477397 0,3.492494 -1.396298,3.49261 -1.396298,6.985103 H 31.98151 c 0,-3.492497 2.792595,-3.492606 2.792595,-6.985103 V 25.000024 c -0.253523,7.081913 -6.981486,13.970003 -6.981486,17.4625 0,0 5.9e-5,24.44752 0,27.939897 -6e-5,3.492376 2.094447,3.492614 2.094446,6.985103 h 2.094445 4.188375 c 0,-3.492489 -2.792077,-3.492614 -2.792077,-6.985103 V 59.925024 c 10e-7,-0.698497 2.6e-5,-1.397318 0.698148,-3.49281 4.886856,4.190983 18.895165,2.028981 20.943425,3.49281 2.44343,1.746242 2.094445,7.275288 2.094445,10.477397 0,3.492486 1.396298,3.492617 1.396298,6.985103 h 6.283337 c 1e-6,-3.492486 -2.094446,-4.191114 -2.094446,-6.985103 V 42.462524 c 0,-3.492493 6.727447,-10.380594 6.98097,-17.4625 0,-0.698499 -2.5e-5,-1.397314 -0.698149,-3.49281 z" />
      <g
         id="g18"
         transform="matrix(0,-0.69850006,-0.69812501,0,97.605132,65.513002)"
         style="stroke-width:1.43202">
        <ellipse
           style="fill:none;stroke:#000000;stroke-width:0.572809;stroke-linecap:round;stroke-linejoin:round"
           id="ellipse17"
           cx="51.000004"
           cy="57"
           rx="1.8000008"
           ry="1.8000004" />
        <ellipse
           style="fill:#000000;fill-opacity:1;stroke:#000000;stroke-width:0.572809;stroke-linecap:round;stroke-linejoin:round"
           id="ellipse18"
           cx="51"
           cy="56.099998"
           rx="1"
           ry="0.89999998" />
      </g>
      <path
         style="fill:none;fill-opacity:1;stroke:#000000;stroke-width:0.4;stroke-linecap:round;stroke-linejoin:round"
         d="m 53.623271,26.396948 v 7.683501 c 0,3.4925 -5.585001,3.4925 -5.585001,0 v -6.286501"
         id="path18"
         sodipodi:nodetypes="cccc" />
    </g>
    <g
       id="g21"
       transform="matrix(-1,0,0,1,222.74208,197.53366)">
      <path
         id="path19"
         style="fill:none;stroke:#000000;stroke-width:0.4;stroke-linecap:round;stroke-linejoin:round"
         d="m 68.981836,21.507214 c -4.886865,4.190992 -18.89516,2.028978 -20.943425,3.49281 -2.443433,1.746246 -2.094445,7.275284 -2.094445,10.477397 0,3.492494 -1.396298,3.49261 -1.396298,6.985103 H 31.98151 c 0,-3.492497 2.792595,-3.492606 2.792595,-6.985103 V 25.000024 c -0.253523,7.081913 -6.981486,13.970003 -6.981486,17.4625 0,0 5.9e-5,24.44752 0,27.939897 -6e-5,3.492376 2.094447,3.492614 2.094446,6.985103 h 2.094445 4.188375 c 0,-3.492489 -2.792077,-3.492614 -2.792077,-6.985103 V 59.925024 c 10e-7,-0.698497 2.6e-5,-1.397318 0.698148,-3.49281 4.886856,4.190983 18.895165,2.028981 20.943425,3.49281 2.44343,1.746242 2.094445,7.275288 2.094445,10.477397 0,3.492486 1.396298,3.492617 1.396298,6.985103 h 6.283337 c 1e-6,-3.492486 -2.094446,-4.191114 -2.094446,-6.985103 V 42.462524 c 0,-3.492493 6.727447,-10.380594 6.98097,-17.4625 0,-0.698499 -2.5e-5,-1.397314 -0.698149,-3.49281 z" />
      <g
         id="g20"
         transform="matrix(0,-0.69850006,-0.69812501,0,97.605132,65.513002)"
         style="stroke-width:1.43202">
        <ellipse
           style="fill:none;stroke:#000000;stroke-width:0.572809;stroke-linecap:round;stroke-linejoin:round"
           id="ellipse19"
           cx="51.000004"
           cy="57"
           rx="1.8000008"
           ry="1.8000004" />
        <ellipse
           style="fill:#000000;fill-opacity:1;stroke:#000000;stroke-width:0.572809;stroke-linecap:round;stroke-linejoin:round"
           id="ellipse20"
           cx="51"
           cy="56.099998"
           rx="1"
           ry="0.89999998" />
      </g>
      <path
         style="fill:none;fill-opacity:1;stroke:#000000;stroke-width:0.4;stroke-linecap:round;stroke-linejoin:round"
         d="m 53.623271,26.396948 v 7.683501 c 0,3.4925 -5.585001,3.4925 -5.585001,0 v -6.286501"
         id="path20"
         sodipodi:nodetypes="cccc" />
    </g>
    <g
       id="g23"
       transform="translate(-13.592619,-1.3072285)"
       inkscape:export-filename="./_images/taller-tesela-perro.png"
       inkscape:export-xdpi="300"
       inkscape:export-ydpi="300">
      <path
         id="path21"
         style="fill:none;stroke:#000000;stroke-width:0.4;stroke-linecap:round;stroke-linejoin:round"
         d="m 68.981836,21.507214 c -4.886865,4.190992 -18.89516,2.028978 -20.943425,3.49281 -2.443433,1.746246 -2.094445,7.275284 -2.094445,10.477397 0,3.492494 -1.396298,3.49261 -1.396298,6.985103 H 31.98151 c 0,-3.492497 2.792595,-3.492606 2.792595,-6.985103 V 25.000024 c -0.253523,7.081913 -6.981486,13.970003 -6.981486,17.4625 0,0 5.9e-5,24.44752 0,27.939897 -6e-5,3.492376 2.094447,3.492614 2.094446,6.985103 h 2.094445 4.188375 c 0,-3.492489 -2.792077,-3.492614 -2.792077,-6.985103 V 59.925024 c 10e-7,-0.698497 2.6e-5,-1.397318 0.698148,-3.49281 4.886856,4.190983 18.895165,2.028981 20.943425,3.49281 2.44343,1.746242 2.094445,7.275288 2.094445,10.477397 0,3.492486 1.396298,3.492617 1.396298,6.985103 h 6.283337 c 1e-6,-3.492486 -2.094446,-4.191114 -2.094446,-6.985103 V 42.462524 c 0,-3.492493 6.727447,-10.380594 6.98097,-17.4625 0,-0.698499 -2.5e-5,-1.397314 -0.698149,-3.49281 z" />
      <g
         id="g22"
         transform="matrix(0,-0.69850006,-0.69812501,0,97.605132,65.513002)"
         style="stroke-width:1.43202">
        <ellipse
           style="fill:none;stroke:#000000;stroke-width:0.572809;stroke-linecap:round;stroke-linejoin:round"
           id="ellipse21"
           cx="51.000004"
           cy="57"
           rx="1.8000008"
           ry="1.8000004" />
        <ellipse
           style="fill:#000000;fill-opacity:1;stroke:#000000;stroke-width:0.572809;stroke-linecap:round;stroke-linejoin:round"
           id="ellipse22"
           cx="51"
           cy="56.099998"
           rx="1"
           ry="0.89999998" />
      </g>
      <path
         style="fill:none;fill-opacity:1;stroke:#000000;stroke-width:0.4;stroke-linecap:round;stroke-linejoin:round"
         d="m 53.623271,26.396948 v 7.683501 c 0,3.4925 -5.585001,3.4925 -5.585001,0 v -6.286501"
         id="path22"
         sodipodi:nodetypes="cccc" />
    </g>
    <g
       id="g25"
       transform="translate(78.982113,131.25336)">
      <path
         id="path23"
         style="fill:none;stroke:#000000;stroke-width:0.4;stroke-linecap:round;stroke-linejoin:round"
         d="m 68.981836,21.507214 c -4.886865,4.190992 -18.89516,2.028978 -20.943425,3.49281 -2.443433,1.746246 -2.094445,7.275284 -2.094445,10.477397 0,3.492494 -1.396298,3.49261 -1.396298,6.985103 H 31.98151 c 0,-3.492497 2.792595,-3.492606 2.792595,-6.985103 V 25.000024 c -0.253523,7.081913 -6.981486,13.970003 -6.981486,17.4625 0,0 5.9e-5,24.44752 0,27.939897 -6e-5,3.492376 2.094447,3.492614 2.094446,6.985103 h 2.094445 4.188375 c 0,-3.492489 -2.792077,-3.492614 -2.792077,-6.985103 V 59.925024 c 10e-7,-0.698497 2.6e-5,-1.397318 0.698148,-3.49281 4.886856,4.190983 18.895165,2.028981 20.943425,3.49281 2.44343,1.746242 2.094445,7.275288 2.094445,10.477397 0,3.492486 1.396298,3.492617 1.396298,6.985103 h 6.283337 c 1e-6,-3.492486 -2.094446,-4.191114 -2.094446,-6.985103 V 42.462524 c 0,-3.492493 6.727447,-10.380594 6.98097,-17.4625 0,-0.698499 -2.5e-5,-1.397314 -0.698149,-3.49281 z" />
      <g
         id="g24"
         transform="matrix(0,-0.69850006,-0.69812501,0,97.605132,65.513002)"
         style="stroke-width:1.43202">
        <ellipse
           style="fill:none;stroke:#000000;stroke-width:0.572809;stroke-linecap:round;stroke-linejoin:round"
           id="ellipse23"
           cx="51.000004"
           cy="57"
           rx="1.8000008"
           ry="1.8000004" />
        <ellipse
           style="fill:#000000;fill-opacity:1;stroke:#000000;stroke-width:0.572809;stroke-linecap:round;stroke-linejoin:round"
           id="ellipse24"
           cx="51"
           cy="56.099998"
           rx="1"
           ry="0.89999998" />
      </g>
      <path
         style="fill:none;fill-opacity:1;stroke:#000000;stroke-width:0.4;stroke-linecap:round;stroke-linejoin:round"
         d="m 53.623271,26.396948 v 7.683501 c 0,3.4925 -5.585001,3.4925 -5.585001,0 v -6.286501"
         id="path24"
         sodipodi:nodetypes="cccc" />
    </g>
    <g
       id="g27"
       transform="translate(32.694747,131.25336)">
      <path
         id="path25"
         style="fill:none;stroke:#000000;stroke-width:0.4;stroke-linecap:round;stroke-linejoin:round"
         d="m 68.981836,21.507214 c -4.886865,4.190992 -18.89516,2.028978 -20.943425,3.49281 -2.443433,1.746246 -2.094445,7.275284 -2.094445,10.477397 0,3.492494 -1.396298,3.49261 -1.396298,6.985103 H 31.98151 c 0,-3.492497 2.792595,-3.492606 2.792595,-6.985103 V 25.000024 c -0.253523,7.081913 -6.981486,13.970003 -6.981486,17.4625 0,0 5.9e-5,24.44752 0,27.939897 -6e-5,3.492376 2.094447,3.492614 2.094446,6.985103 h 2.094445 4.188375 c 0,-3.492489 -2.792077,-3.492614 -2.792077,-6.985103 V 59.925024 c 10e-7,-0.698497 2.6e-5,-1.397318 0.698148,-3.49281 4.886856,4.190983 18.895165,2.028981 20.943425,3.49281 2.44343,1.746242 2.094445,7.275288 2.094445,10.477397 0,3.492486 1.396298,3.492617 1.396298,6.985103 h 6.283337 c 1e-6,-3.492486 -2.094446,-4.191114 -2.094446,-6.985103 V 42.462524 c 0,-3.492493 6.727447,-10.380594 6.98097,-17.4625 0,-0.698499 -2.5e-5,-1.397314 -0.698149,-3.49281 z" />
      <g
         id="g26"
         transform="matrix(0,-0.69850006,-0.69812501,0,97.605132,65.513002)"
         style="stroke-width:1.43202">
        <ellipse
           style="fill:none;stroke:#000000;stroke-width:0.572809;stroke-linecap:round;stroke-linejoin:round"
           id="ellipse25"
           cx="51.000004"
           cy="57"
           rx="1.8000008"
           ry="1.8000004" />
        <ellipse
           style="fill:#000000;fill-opacity:1;stroke:#000000;stroke-width:0.572809;stroke-linecap:round;stroke-linejoin:round"
           id="ellipse26"
           cx="51"
           cy="56.099998"
           rx="1"
           ry="0.89999998" />
      </g>
      <path
         style="fill:none;fill-opacity:1;stroke:#000000;stroke-width:0.4;stroke-linecap:round;stroke-linejoin:round"
         d="m 53.623271,26.396948 v 7.683501 c 0,3.4925 -5.585001,3.4925 -5.585001,0 v -6.286501"
         id="path26"
         sodipodi:nodetypes="cccc" />
    </g>
    <g
       id="g29"
       transform="translate(-13.592619,131.25336)">
      <path
         id="path27"
         style="fill:none;stroke:#000000;stroke-width:0.4;stroke-linecap:round;stroke-linejoin:round"
         d="m 68.981836,21.507214 c -4.886865,4.190992 -18.89516,2.028978 -20.943425,3.49281 -2.443433,1.746246 -2.094445,7.275284 -2.094445,10.477397 0,3.492494 -1.396298,3.49261 -1.396298,6.985103 H 31.98151 c 0,-3.492497 2.792595,-3.492606 2.792595,-6.985103 V 25.000024 c -0.253523,7.081913 -6.981486,13.970003 -6.981486,17.4625 0,0 5.9e-5,24.44752 0,27.939897 -6e-5,3.492376 2.094447,3.492614 2.094446,6.985103 h 2.094445 4.188375 c 0,-3.492489 -2.792077,-3.492614 -2.792077,-6.985103 V 59.925024 c 10e-7,-0.698497 2.6e-5,-1.397318 0.698148,-3.49281 4.886856,4.190983 18.895165,2.028981 20.943425,3.49281 2.44343,1.746242 2.094445,7.275288 2.094445,10.477397 0,3.492486 1.396298,3.492617 1.396298,6.985103 h 6.283337 c 1e-6,-3.492486 -2.094446,-4.191114 -2.094446,-6.985103 V 42.462524 c 0,-3.492493 6.727447,-10.380594 6.98097,-17.4625 0,-0.698499 -2.5e-5,-1.397314 -0.698149,-3.49281 z" />
      <g
         id="g28"
         transform="matrix(0,-0.69850006,-0.69812501,0,97.605132,65.513002)"
         style="stroke-width:1.43202">
        <ellipse
           style="fill:none;stroke:#000000;stroke-width:0.572809;stroke-linecap:round;stroke-linejoin:round"
           id="ellipse27"
           cx="51.000004"
           cy="57"
           rx="1.8000008"
           ry="1.8000004" />
        <ellipse
           style="fill:#000000;fill-opacity:1;stroke:#000000;stroke-width:0.572809;stroke-linecap:round;stroke-linejoin:round"
           id="ellipse28"
           cx="51"
           cy="56.099998"
           rx="1"
           ry="0.89999998" />
      </g>
      <path
         style="fill:none;fill-opacity:1;stroke:#000000;stroke-width:0.4;stroke-linecap:round;stroke-linejoin:round"
         d="m 53.623271,26.396948 v 7.683501 c 0,3.4925 -5.585001,3.4925 -5.585001,0 v -6.286501"
         id="path28"
         sodipodi:nodetypes="cccc" />
    </g>
    <g
       id="g31"
       transform="matrix(-1,0,0,1,83.879985,64.973067)">
      <path
         id="path29"
         style="fill:none;stroke:#000000;stroke-width:0.4;stroke-linecap:round;stroke-linejoin:round"
         d="m 68.981836,21.507214 c -4.886865,4.190992 -18.89516,2.028978 -20.943425,3.49281 -2.443433,1.746246 -2.094445,7.275284 -2.094445,10.477397 0,3.492494 -1.396298,3.49261 -1.396298,6.985103 H 31.98151 c 0,-3.492497 2.792595,-3.492606 2.792595,-6.985103 V 25.000024 c -0.253523,7.081913 -6.981486,13.970003 -6.981486,17.4625 0,0 5.9e-5,24.44752 0,27.939897 -6e-5,3.492376 2.094447,3.492614 2.094446,6.985103 h 2.094445 4.188375 c 0,-3.492489 -2.792077,-3.492614 -2.792077,-6.985103 V 59.925024 c 10e-7,-0.698497 2.6e-5,-1.397318 0.698148,-3.49281 4.886856,4.190983 18.895165,2.028981 20.943425,3.49281 2.44343,1.746242 2.094445,7.275288 2.094445,10.477397 0,3.492486 1.396298,3.492617 1.396298,6.985103 h 6.283337 c 1e-6,-3.492486 -2.094446,-4.191114 -2.094446,-6.985103 V 42.462524 c 0,-3.492493 6.727447,-10.380594 6.98097,-17.4625 0,-0.698499 -2.5e-5,-1.397314 -0.698149,-3.49281 z" />
      <g
         id="g30"
         transform="matrix(0,-0.69850006,-0.69812501,0,97.605132,65.513002)"
         style="stroke-width:1.43202">
        <ellipse
           style="fill:none;stroke:#000000;stroke-width:0.572809;stroke-linecap:round;stroke-linejoin:round"
           id="ellipse29"
           cx="51.000004"
           cy="57"
           rx="1.8000008"
           ry="1.8000004" />
        <ellipse
           style="fill:#000000;fill-opacity:1;stroke:#000000;stroke-width:0.572809;stroke-linecap:round;stroke-linejoin:round"
           id="ellipse30"
           cx="51"
           cy="56.099998"
           rx="1"
           ry="0.89999998" />
      </g>
      <path
         style="fill:none;fill-opacity:1;stroke:#000000;stroke-width:0.4;stroke-linecap:round;stroke-linejoin:round"
         d="m 53.623271,26.396948 v 7.683501 c 0,3.4925 -5.585001,3.4925 -5.585001,0 v -6.286501"
         id="path30"
         sodipodi:nodetypes="cccc" />
    </g>
    <g
       id="g33"
       transform="matrix(-1,0,0,1,130.16735,64.973067)">
      <path
         id="path31"
         style="fill:none;stroke:#000000;stroke-width:0.4;stroke-linecap:round;stroke-linejoin:round"
         d="m 68.981836,21.507214 c -4.886865,4.190992 -18.89516,2.028978 -20.943425,3.49281 -2.443433,1.746246 -2.094445,7.275284 -2.094445,10.477397 0,3.492494 -1.396298,3.49261 -1.396298,6.985103 H 31.98151 c 0,-3.492497 2.792595,-3.492606 2.792595,-6.985103 V 25.000024 c -0.253523,7.081913 -6.981486,13.970003 -6.981486,17.4625 0,0 5.9e-5,24.44752 0,27.939897 -6e-5,3.492376 2.094447,3.492614 2.094446,6.985103 h 2.094445 4.188375 c 0,-3.492489 -2.792077,-3.492614 -2.792077,-6.985103 V 59.925024 c 10e-7,-0.698497 2.6e-5,-1.397318 0.698148,-3.49281 4.886856,4.190983 18.895165,2.028981 20.943425,3.49281 2.44343,1.746242 2.094445,7.275288 2.094445,10.477397 0,3.492486 1.396298,3.492617 1.396298,6.985103 h 6.283337 c 1e-6,-3.492486 -2.094446,-4.191114 -2.094446,-6.985103 V 42.462524 c 0,-3.492493 6.727447,-10.380594 6.98097,-17.4625 0,-0.698499 -2.5e-5,-1.397314 -0.698149,-3.49281 z" />
      <g
         id="g32"
         transform="matrix(0,-0.69850006,-0.69812501,0,97.605132,65.513002)"
         style="stroke-width:1.43202">
        <ellipse
           style="fill:none;stroke:#000000;stroke-width:0.572809;stroke-linecap:round;stroke-linejoin:round"
           id="ellipse31"
           cx="51.000004"
           cy="57"
           rx="1.8000008"
           ry="1.8000004" />
        <ellipse
           style="fill:#000000;fill-opacity:1;stroke:#000000;stroke-width:0.572809;stroke-linecap:round;stroke-linejoin:round"
           id="ellipse32"
           cx="51"
           cy="56.099998"
           rx="1"
           ry="0.89999998" />
      </g>
      <path
         style="fill:none;fill-opacity:1;stroke:#000000;stroke-width:0.4;stroke-linecap:round;stroke-linejoin:round"
         d="m 53.623271,26.396948 v 7.683501 c 0,3.4925 -5.585001,3.4925 -5.585001,0 v -6.286501"
         id="path32"
         sodipodi:nodetypes="cccc" />
    </g>
    <g
       id="g35"
       transform="matrix(-1,0,0,1,176.45472,64.973067)">
      <path
         id="path33"
         style="fill:none;stroke:#000000;stroke-width:0.4;stroke-linecap:round;stroke-linejoin:round"
         d="m 68.981836,21.507214 c -4.886865,4.190992 -18.89516,2.028978 -20.943425,3.49281 -2.443433,1.746246 -2.094445,7.275284 -2.094445,10.477397 0,3.492494 -1.396298,3.49261 -1.396298,6.985103 H 31.98151 c 0,-3.492497 2.792595,-3.492606 2.792595,-6.985103 V 25.000024 c -0.253523,7.081913 -6.981486,13.970003 -6.981486,17.4625 0,0 5.9e-5,24.44752 0,27.939897 -6e-5,3.492376 2.094447,3.492614 2.094446,6.985103 h 2.094445 4.188375 c 0,-3.492489 -2.792077,-3.492614 -2.792077,-6.985103 V 59.925024 c 10e-7,-0.698497 2.6e-5,-1.397318 0.698148,-3.49281 4.886856,4.190983 18.895165,2.028981 20.943425,3.49281 2.44343,1.746242 2.094445,7.275288 2.094445,10.477397 0,3.492486 1.396298,3.492617 1.396298,6.985103 h 6.283337 c 1e-6,-3.492486 -2.094446,-4.191114 -2.094446,-6.985103 V 42.462524 c 0,-3.492493 6.727447,-10.380594 6.98097,-17.4625 0,-0.698499 -2.5e-5,-1.397314 -0.698149,-3.49281 z" />
      <g
         id="g34"
         transform="matrix(0,-0.69850006,-0.69812501,0,97.605132,65.513002)"
         style="stroke-width:1.43202">
        <ellipse
           style="fill:none;stroke:#000000;stroke-width:0.572809;stroke-linecap:round;stroke-linejoin:round"
           id="ellipse33"
           cx="51.000004"
           cy="57"
           rx="1.8000008"
           ry="1.8000004" />
        <ellipse
           style="fill:#000000;fill-opacity:1;stroke:#000000;stroke-width:0.572809;stroke-linecap:round;stroke-linejoin:round"
           id="ellipse34"
           cx="51"
           cy="56.099998"
           rx="1"
           ry="0.89999998" />
      </g>
      <path
         style="fill:none;fill-opacity:1;stroke:#000000;stroke-width:0.4;stroke-linecap:round;stroke-linejoin:round"
         d="m 53.623271,26.396948 v 7.683501 c 0,3.4925 -5.585001,3.4925 -5.585001,0 v -6.286501"
         id="path34"
         sodipodi:nodetypes="cccc" />
    </g>
    <g
       id="g37"
       transform="matrix(-1,0,0,1,222.74208,64.973067)">
      <path
         id="path35"
         style="fill:none;stroke:#000000;stroke-width:0.4;stroke-linecap:round;stroke-linejoin:round"
         d="m 68.981836,21.507214 c -4.886865,4.190992 -18.89516,2.028978 -20.943425,3.49281 -2.443433,1.746246 -2.094445,7.275284 -2.094445,10.477397 0,3.492494 -1.396298,3.49261 -1.396298,6.985103 H 31.98151 c 0,-3.492497 2.792595,-3.492606 2.792595,-6.985103 V 25.000024 c -0.253523,7.081913 -6.981486,13.970003 -6.981486,17.4625 0,0 5.9e-5,24.44752 0,27.939897 -6e-5,3.492376 2.094447,3.492614 2.094446,6.985103 h 2.094445 4.188375 c 0,-3.492489 -2.792077,-3.492614 -2.792077,-6.985103 V 59.925024 c 10e-7,-0.698497 2.6e-5,-1.397318 0.698148,-3.49281 4.886856,4.190983 18.895165,2.028981 20.943425,3.49281 2.44343,1.746242 2.094445,7.275288 2.094445,10.477397 0,3.492486 1.396298,3.492617 1.396298,6.985103 h 6.283337 c 1e-6,-3.492486 -2.094446,-4.191114 -2.094446,-6.985103 V 42.462524 c 0,-3.492493 6.727447,-10.380594 6.98097,-17.4625 0,-0.698499 -2.5e-5,-1.397314 -0.698149,-3.49281 z" />
      <g
         id="g36"
         transform="matrix(0,-0.69850006,-0.69812501,0,97.605132,65.513002)"
         style="stroke-width:1.43202">
        <ellipse
           style="fill:none;stroke:#000000;stroke-width:0.572809;stroke-linecap:round;stroke-linejoin:round"
           id="ellipse35"
           cx="51.000004"
           cy="57"
           rx="1.8000008"
           ry="1.8000004" />
        <ellipse
           style="fill:#000000;fill-opacity:1;stroke:#000000;stroke-width:0.572809;stroke-linecap:round;stroke-linejoin:round"
           id="ellipse36"
           cx="51"
           cy="56.099998"
           rx="1"
           ry="0.89999998" />
      </g>
      <path
         style="fill:none;fill-opacity:1;stroke:#000000;stroke-width:0.4;stroke-linecap:round;stroke-linejoin:round"
         d="m 53.623271,26.396948 v 7.683501 c 0,3.4925 -5.585001,3.4925 -5.585001,0 v -6.286501"
         id="path36"
         sodipodi:nodetypes="cccc" />
    </g>
    <g
       id="g39"
       transform="translate(125.26948,-1.3072285)">
      <path
         id="path37"
         style="fill:none;stroke:#000000;stroke-width:0.4;stroke-linecap:round;stroke-linejoin:round"
         d="m 68.981836,21.507214 c -4.886865,4.190992 -18.89516,2.028978 -20.943425,3.49281 -2.443433,1.746246 -2.094445,7.275284 -2.094445,10.477397 0,3.492494 -1.396298,3.49261 -1.396298,6.985103 H 31.98151 c 0,-3.492497 2.792595,-3.492606 2.792595,-6.985103 V 25.000024 c -0.253523,7.081913 -6.981486,13.970003 -6.981486,17.4625 0,0 5.9e-5,24.44752 0,27.939897 -6e-5,3.492376 2.094447,3.492614 2.094446,6.985103 h 2.094445 4.188375 c 0,-3.492489 -2.792077,-3.492614 -2.792077,-6.985103 V 59.925024 c 10e-7,-0.698497 2.6e-5,-1.397318 0.698148,-3.49281 4.886856,4.190983 18.895165,2.028981 20.943425,3.49281 2.44343,1.746242 2.094445,7.275288 2.094445,10.477397 0,3.492486 1.396298,3.492617 1.396298,6.985103 h 6.283337 c 1e-6,-3.492486 -2.094446,-4.191114 -2.094446,-6.985103 V 42.462524 c 0,-3.492493 6.727447,-10.380594 6.98097,-17.4625 0,-0.698499 -2.5e-5,-1.397314 -0.698149,-3.49281 z" />
      <g
         id="g38"
         transform="matrix(0,-0.69850006,-0.69812501,0,97.605132,65.513002)"
         style="stroke-width:1.43202">
        <ellipse
           style="fill:none;stroke:#000000;stroke-width:0.572809;stroke-linecap:round;stroke-linejoin:round"
           id="ellipse37"
           cx="51.000004"
           cy="57"
           rx="1.8000008"
           ry="1.8000004" />
        <ellipse
           style="fill:#000000;fill-opacity:1;stroke:#000000;stroke-width:0.572809;stroke-linecap:round;stroke-linejoin:round"
           id="ellipse38"
           cx="51"
           cy="56.099998"
           rx="1"
           ry="0.89999998" />
      </g>
      <path
         style="fill:none;fill-opacity:1;stroke:#000000;stroke-width:0.4;stroke-linecap:round;stroke-linejoin:round"
         d="m 53.623271,26.396948 v 7.683501 c 0,3.4925 -5.585001,3.4925 -5.585001,0 v -6.286501"
         id="path38"
         sodipodi:nodetypes="cccc" />
    </g>
    <g
       id="g41"
       transform="translate(78.982113,-1.3072285)">
      <path
         id="path39"
         style="fill:none;stroke:#000000;stroke-width:0.4;stroke-linecap:round;stroke-linejoin:round"
         d="m 68.981836,21.507214 c -4.886865,4.190992 -18.89516,2.028978 -20.943425,3.49281 -2.443433,1.746246 -2.094445,7.275284 -2.094445,10.477397 0,3.492494 -1.396298,3.49261 -1.396298,6.985103 H 31.98151 c 0,-3.492497 2.792595,-3.492606 2.792595,-6.985103 V 25.000024 c -0.253523,7.081913 -6.981486,13.970003 -6.981486,17.4625 0,0 5.9e-5,24.44752 0,27.939897 -6e-5,3.492376 2.094447,3.492614 2.094446,6.985103 h 2.094445 4.188375 c 0,-3.492489 -2.792077,-3.492614 -2.792077,-6.985103 V 59.925024 c 10e-7,-0.698497 2.6e-5,-1.397318 0.698148,-3.49281 4.886856,4.190983 18.895165,2.028981 20.943425,3.49281 2.44343,1.746242 2.094445,7.275288 2.094445,10.477397 0,3.492486 1.396298,3.492617 1.396298,6.985103 h 6.283337 c 1e-6,-3.492486 -2.094446,-4.191114 -2.094446,-6.985103 V 42.462524 c 0,-3.492493 6.727447,-10.380594 6.98097,-17.4625 0,-0.698499 -2.5e-5,-1.397314 -0.698149,-3.49281 z" />
      <g
         id="g40"
         transform="matrix(0,-0.69850006,-0.69812501,0,97.605132,65.513002)"
         style="stroke-width:1.43202">
        <ellipse
           style="fill:none;stroke:#000000;stroke-width:0.572809;stroke-linecap:round;stroke-linejoin:round"
           id="ellipse39"
           cx="51.000004"
           cy="57"
           rx="1.8000008"
           ry="1.8000004" />
        <ellipse
           style="fill:#000000;fill-opacity:1;stroke:#000000;stroke-width:0.572809;stroke-linecap:round;stroke-linejoin:round"
           id="ellipse40"
           cx="51"
           cy="56.099998"
           rx="1"
           ry="0.89999998" />
      </g>
      <path
         style="fill:none;fill-opacity:1;stroke:#000000;stroke-width:0.4;stroke-linecap:round;stroke-linejoin:round"
         d="m 53.623271,26.396948 v 7.683501 c 0,3.4925 -5.585001,3.4925 -5.585001,0 v -6.286501"
         id="path40"
         sodipodi:nodetypes="cccc" />
    </g>
    <g
       id="g43"
       transform="translate(32.694747,-1.3072285)">
      <path
         id="path41"
         style="fill:none;stroke:#000000;stroke-width:0.4;stroke-linecap:round;stroke-linejoin:round"
         d="m 68.981836,21.507214 c -4.886865,4.190992 -18.89516,2.028978 -20.943425,3.49281 -2.443433,1.746246 -2.094445,7.275284 -2.094445,10.477397 0,3.492494 -1.396298,3.49261 -1.396298,6.985103 H 31.98151 c 0,-3.492497 2.792595,-3.492606 2.792595,-6.985103 V 25.000024 c -0.253523,7.081913 -6.981486,13.970003 -6.981486,17.4625 0,0 5.9e-5,24.44752 0,27.939897 -6e-5,3.492376 2.094447,3.492614 2.094446,6.985103 h 2.094445 4.188375 c 0,-3.492489 -2.792077,-3.492614 -2.792077,-6.985103 V 59.925024 c 10e-7,-0.698497 2.6e-5,-1.397318 0.698148,-3.49281 4.886856,4.190983 18.895165,2.028981 20.943425,3.49281 2.44343,1.746242 2.094445,7.275288 2.094445,10.477397 0,3.492486 1.396298,3.492617 1.396298,6.985103 h 6.283337 c 1e-6,-3.492486 -2.094446,-4.191114 -2.094446,-6.985103 V 42.462524 c 0,-3.492493 6.727447,-10.380594 6.98097,-17.4625 0,-0.698499 -2.5e-5,-1.397314 -0.698149,-3.49281 z" />
      <g
         id="g42"
         transform="matrix(0,-0.69850006,-0.69812501,0,97.605132,65.513002)"
         style="stroke-width:1.43202">
        <ellipse
           style="fill:none;stroke:#000000;stroke-width:0.572809;stroke-linecap:round;stroke-linejoin:round"
           id="ellipse41"
           cx="51.000004"
           cy="57"
           rx="1.8000008"
           ry="1.8000004" />
        <ellipse
           style="fill:#000000;fill-opacity:1;stroke:#000000;stroke-width:0.572809;stroke-linecap:round;stroke-linejoin:round"
           id="ellipse42"
           cx="51"
           cy="56.099998"
           rx="1"
           ry="0.89999998" />
      </g>
      <path
         style="fill:none;fill-opacity:1;stroke:#000000;stroke-width:0.4;stroke-linecap:round;stroke-linejoin:round"
         d="m 53.623271,26.396948 v 7.683501 c 0,3.4925 -5.585001,3.4925 -5.585001,0 v -6.286501"
         id="path42"
         sodipodi:nodetypes="cccc" />
    </g>
    <g
       id="g10"
       inkscape:export-filename="./_images/taller-teselado-perro.png"
       inkscape:export-xdpi="150"
       inkscape:export-ydpi="150">
      <g
         id="g5"
         transform="translate(214.98063,10.074974)"
         inkscape:export-filename="./_images/taller-tesela-perro.png"
         inkscape:export-xdpi="300"
         inkscape:export-ydpi="300">
        <path
           id="path3"
           style="fill:none;stroke:#000000;stroke-width:0.4;stroke-linecap:round;stroke-linejoin:round"
           d="m 68.981836,21.507214 c -4.886865,4.190992 -18.89516,2.028978 -20.943425,3.49281 -2.443433,1.746246 -2.094445,7.275284 -2.094445,10.477397 0,3.492494 -1.396298,3.49261 -1.396298,6.985103 H 31.98151 c 0,-3.492497 2.792595,-3.492606 2.792595,-6.985103 V 25.000024 c -0.253523,7.081913 -6.981486,13.970003 -6.981486,17.4625 0,0 5.9e-5,24.44752 0,27.939897 -6e-5,3.492376 2.094447,3.492614 2.094446,6.985103 h 2.094445 4.188375 c 0,-3.492489 -2.792077,-3.492614 -2.792077,-6.985103 V 59.925024 c 10e-7,-0.698497 2.6e-5,-1.397318 0.698148,-3.49281 4.886856,4.190983 18.895165,2.028981 20.943425,3.49281 2.44343,1.746242 2.094445,7.275288 2.094445,10.477397 0,3.492486 1.396298,3.492617 1.396298,6.985103 h 6.283337 c 1e-6,-3.492486 -2.094446,-4.191114 -2.094446,-6.985103 V 42.462524 c 0,-3.492493 6.727447,-10.380594 6.98097,-17.4625 0,-0.698499 -2.5e-5,-1.397314 -0.698149,-3.49281 z" />
        <g
           id="g4"
           transform="matrix(0,-0.69850006,-0.69812501,0,97.605132,65.513002)"
           style="stroke-width:1.43202">
          <ellipse
             style="fill:none;stroke:#000000;stroke-width:0.572809;stroke-linecap:round;stroke-linejoin:round"
             id="ellipse3"
             cx="51.000004"
             cy="57"
             rx="1.8000008"
             ry="1.8000004" />
          <ellipse
             style="fill:#000000;fill-opacity:1;stroke:#000000;stroke-width:0.572809;stroke-linecap:round;stroke-linejoin:round"
             id="ellipse4"
             cx="51"
             cy="56.099998"
             rx="1"
             ry="0.89999998" />
        </g>
        <path
           style="fill:none;fill-opacity:1;stroke:#000000;stroke-width:0.4;stroke-linecap:round;stroke-linejoin:round"
           d="m 53.623271,26.396948 v 7.683501 c 0,3.4925 -5.585001,3.4925 -5.585001,0 v -6.286501"
           id="path4"
           sodipodi:nodetypes="cccc" />
      </g>
      <g
         id="g7"
         transform="translate(249.88703,10.074974)"
         inkscape:export-filename="./_images/taller-tesela-perro.png"
         inkscape:export-xdpi="300"
         inkscape:export-ydpi="300">
        <path
           id="path5"
           style="fill:none;stroke:#000000;stroke-width:0.4;stroke-linecap:round;stroke-linejoin:round"
           d="m 68.981836,21.507214 c -4.886865,4.190992 -18.89516,2.028978 -20.943425,3.49281 -2.443433,1.746246 -2.094445,7.275284 -2.094445,10.477397 0,3.492494 -1.396298,3.49261 -1.396298,6.985103 H 31.98151 c 0,-3.492497 2.792595,-3.492606 2.792595,-6.985103 V 25.000024 c -0.253523,7.081913 -6.981486,13.970003 -6.981486,17.4625 0,0 5.9e-5,24.44752 0,27.939897 -6e-5,3.492376 2.094447,3.492614 2.094446,6.985103 h 2.094445 4.188375 c 0,-3.492489 -2.792077,-3.492614 -2.792077,-6.985103 V 59.925024 c 10e-7,-0.698497 2.6e-5,-1.397318 0.698148,-3.49281 4.886856,4.190983 18.895165,2.028981 20.943425,3.49281 2.44343,1.746242 2.094445,7.275288 2.094445,10.477397 0,3.492486 1.396298,3.492617 1.396298,6.985103 h 6.283337 c 1e-6,-3.492486 -2.094446,-4.191114 -2.094446,-6.985103 V 42.462524 c 0,-3.492493 6.727447,-10.380594 6.98097,-17.4625 0,-0.698499 -2.5e-5,-1.397314 -0.698149,-3.49281 z" />
        <g
           id="g6"
           transform="matrix(0,-0.69850006,-0.69812501,0,97.605132,65.513002)"
           style="stroke-width:1.43202">
          <ellipse
             style="fill:none;stroke:#000000;stroke-width:0.572809;stroke-linecap:round;stroke-linejoin:round"
             id="ellipse5"
             cx="51.000004"
             cy="57"
             rx="1.8000008"
             ry="1.8000004" />
          <ellipse
             style="fill:#000000;fill-opacity:1;stroke:#000000;stroke-width:0.572809;stroke-linecap:round;stroke-linejoin:round"
             id="ellipse6"
             cx="51"
             cy="56.099998"
             rx="1"
             ry="0.89999998" />
        </g>
        <path
           style="fill:none;fill-opacity:1;stroke:#000000;stroke-width:0.4;stroke-linecap:round;stroke-linejoin:round"
           d="m 53.623271,26.396948 v 7.683501 c 0,3.4925 -5.585001,3.4925 -5.585001,0 v -6.286501"
           id="path6"
           sodipodi:nodetypes="cccc" />
      </g>
      <g
         id="g9"
         transform="translate(284.79343,10.074974)"
         inkscape:export-filename="./_images/taller-tesela-perro.png"
         inkscape:export-xdpi="300"
         inkscape:export-ydpi="300">
        <path
           id="path7"
           style="fill:none;stroke:#000000;stroke-width:0.4;stroke-linecap:round;stroke-linejoin:round"
           d="m 68.981836,21.507214 c -4.886865,4.190992 -18.89516,2.028978 -20.943425,3.49281 -2.443433,1.746246 -2.094445,7.275284 -2.094445,10.477397 0,3.492494 -1.396298,3.49261 -1.396298,6.985103 H 31.98151 c 0,-3.492497 2.792595,-3.492606 2.792595,-6.985103 V 25.000024 c -0.253523,7.081913 -6.981486,13.970003 -6.981486,17.4625 0,0 5.9e-5,24.44752 0,27.939897 -6e-5,3.492376 2.094447,3.492614 2.094446,6.985103 h 2.094445 4.188375 c 0,-3.492489 -2.792077,-3.492614 -2.792077,-6.985103 V 59.925024 c 10e-7,-0.698497 2.6e-5,-1.397318 0.698148,-3.49281 4.886856,4.190983 18.895165,2.028981 20.943425,3.49281 2.44343,1.746242 2.094445,7.275288 2.094445,10.477397 0,3.492486 1.396298,3.492617 1.396298,6.985103 h 6.283337 c 1e-6,-3.492486 -2.094446,-4.191114 -2.094446,-6.985103 V 42.462524 c 0,-3.492493 6.727447,-10.380594 6.98097,-17.4625 0,-0.698499 -2.5e-5,-1.397314 -0.698149,-3.49281 z" />
        <g
           id="g8"
           transform="matrix(0,-0.69850006,-0.69812501,0,97.605132,65.513002)"
           style="stroke-width:1.43202">
          <ellipse
             style="fill:none;stroke:#000000;stroke-width:0.572809;stroke-linecap:round;stroke-linejoin:round"
             id="ellipse7"
             cx="51.000004"
             cy="57"
             rx="1.8000008"
             ry="1.8000004" />
          <ellipse
             style="fill:#000000;fill-opacity:1;stroke:#000000;stroke-width:0.572809;stroke-linecap:round;stroke-linejoin:round"
             id="ellipse8"
             cx="51"
             cy="56.099998"
             rx="1"
             ry="0.89999998" />
        </g>
        <path
           style="fill:none;fill-opacity:1;stroke:#000000;stroke-width:0.4;stroke-linecap:round;stroke-linejoin:round"
           d="m 53.623271,26.396948 v 7.683501 c 0,3.4925 -5.585001,3.4925 -5.585001,0 v -6.286501"
           id="path8"
           sodipodi:nodetypes="cccc" />
      </g>
    </g>
    <g
       id="g48"
       transform="matrix(-1,0,0,1,602.83185,34.925)">
      <g
         id="g12"
         transform="translate(214.98063,10.074974)"
         inkscape:export-filename="./_images/taller-tesela-perro.png"
         inkscape:export-xdpi="300"
         inkscape:export-ydpi="300">
        <path
           id="path10"
           style="fill:none;stroke:#000000;stroke-width:0.4;stroke-linecap:round;stroke-linejoin:round"
           d="m 68.981836,21.507214 c -4.886865,4.190992 -18.89516,2.028978 -20.943425,3.49281 -2.443433,1.746246 -2.094445,7.275284 -2.094445,10.477397 0,3.492494 -1.396298,3.49261 -1.396298,6.985103 H 31.98151 c 0,-3.492497 2.792595,-3.492606 2.792595,-6.985103 V 25.000024 c -0.253523,7.081913 -6.981486,13.970003 -6.981486,17.4625 0,0 5.9e-5,24.44752 0,27.939897 -6e-5,3.492376 2.094447,3.492614 2.094446,6.985103 h 2.094445 4.188375 c 0,-3.492489 -2.792077,-3.492614 -2.792077,-6.985103 V 59.925024 c 10e-7,-0.698497 2.6e-5,-1.397318 0.698148,-3.49281 4.886856,4.190983 18.895165,2.028981 20.943425,3.49281 2.44343,1.746242 2.094445,7.275288 2.094445,10.477397 0,3.492486 1.396298,3.492617 1.396298,6.985103 h 6.283337 c 1e-6,-3.492486 -2.094446,-4.191114 -2.094446,-6.985103 V 42.462524 c 0,-3.492493 6.727447,-10.380594 6.98097,-17.4625 0,-0.698499 -2.5e-5,-1.397314 -0.698149,-3.49281 z" />
        <g
           id="g11"
           transform="matrix(0,-0.69850006,-0.69812501,0,97.605132,65.513002)"
           style="stroke-width:1.43202">
          <ellipse
             style="fill:none;stroke:#000000;stroke-width:0.572809;stroke-linecap:round;stroke-linejoin:round"
             id="ellipse10"
             cx="51.000004"
             cy="57"
             rx="1.8000008"
             ry="1.8000004" />
          <ellipse
             style="fill:#000000;fill-opacity:1;stroke:#000000;stroke-width:0.572809;stroke-linecap:round;stroke-linejoin:round"
             id="ellipse11"
             cx="51"
             cy="56.099998"
             rx="1"
             ry="0.89999998" />
        </g>
        <path
           style="fill:none;fill-opacity:1;stroke:#000000;stroke-width:0.4;stroke-linecap:round;stroke-linejoin:round"
           d="m 53.623271,26.396948 v 7.683501 c 0,3.4925 -5.585001,3.4925 -5.585001,0 v -6.286501"
           id="path11"
           sodipodi:nodetypes="cccc" />
      </g>
      <g
         id="g45"
         transform="translate(249.88703,10.074974)"
         inkscape:export-filename="./_images/taller-tesela-perro.png"
         inkscape:export-xdpi="300"
         inkscape:export-ydpi="300">
        <path
           id="path12"
           style="fill:none;stroke:#000000;stroke-width:0.4;stroke-linecap:round;stroke-linejoin:round"
           d="m 68.981836,21.507214 c -4.886865,4.190992 -18.89516,2.028978 -20.943425,3.49281 -2.443433,1.746246 -2.094445,7.275284 -2.094445,10.477397 0,3.492494 -1.396298,3.49261 -1.396298,6.985103 H 31.98151 c 0,-3.492497 2.792595,-3.492606 2.792595,-6.985103 V 25.000024 c -0.253523,7.081913 -6.981486,13.970003 -6.981486,17.4625 0,0 5.9e-5,24.44752 0,27.939897 -6e-5,3.492376 2.094447,3.492614 2.094446,6.985103 h 2.094445 4.188375 c 0,-3.492489 -2.792077,-3.492614 -2.792077,-6.985103 V 59.925024 c 10e-7,-0.698497 2.6e-5,-1.397318 0.698148,-3.49281 4.886856,4.190983 18.895165,2.028981 20.943425,3.49281 2.44343,1.746242 2.094445,7.275288 2.094445,10.477397 0,3.492486 1.396298,3.492617 1.396298,6.985103 h 6.283337 c 1e-6,-3.492486 -2.094446,-4.191114 -2.094446,-6.985103 V 42.462524 c 0,-3.492493 6.727447,-10.380594 6.98097,-17.4625 0,-0.698499 -2.5e-5,-1.397314 -0.698149,-3.49281 z" />
        <g
           id="g44"
           transform="matrix(0,-0.69850006,-0.69812501,0,97.605132,65.513002)"
           style="stroke-width:1.43202">
          <ellipse
             style="fill:none;stroke:#000000;stroke-width:0.572809;stroke-linecap:round;stroke-linejoin:round"
             id="ellipse12"
             cx="51.000004"
             cy="57"
             rx="1.8000008"
             ry="1.8000004" />
          <ellipse
             style="fill:#000000;fill-opacity:1;stroke:#000000;stroke-width:0.572809;stroke-linecap:round;stroke-linejoin:round"
             id="ellipse43"
             cx="51"
             cy="56.099998"
             rx="1"
             ry="0.89999998" />
        </g>
        <path
           style="fill:none;fill-opacity:1;stroke:#000000;stroke-width:0.4;stroke-linecap:round;stroke-linejoin:round"
           d="m 53.623271,26.396948 v 7.683501 c 0,3.4925 -5.585001,3.4925 -5.585001,0 v -6.286501"
           id="path44"
           sodipodi:nodetypes="cccc" />
      </g>
      <g
         id="g47"
         transform="translate(284.79343,10.074974)"
         inkscape:export-filename="./_images/taller-tesela-perro.png"
         inkscape:export-xdpi="300"
         inkscape:export-ydpi="300">
        <path
           id="path45"
           style="fill:none;stroke:#000000;stroke-width:0.4;stroke-linecap:round;stroke-linejoin:round"
           d="m 68.981836,21.507214 c -4.886865,4.190992 -18.89516,2.028978 -20.943425,3.49281 -2.443433,1.746246 -2.094445,7.275284 -2.094445,10.477397 0,3.492494 -1.396298,3.49261 -1.396298,6.985103 H 31.98151 c 0,-3.492497 2.792595,-3.492606 2.792595,-6.985103 V 25.000024 c -0.253523,7.081913 -6.981486,13.970003 -6.981486,17.4625 0,0 5.9e-5,24.44752 0,27.939897 -6e-5,3.492376 2.094447,3.492614 2.094446,6.985103 h 2.094445 4.188375 c 0,-3.492489 -2.792077,-3.492614 -2.792077,-6.985103 V 59.925024 c 10e-7,-0.698497 2.6e-5,-1.397318 0.698148,-3.49281 4.886856,4.190983 18.895165,2.028981 20.943425,3.49281 2.44343,1.746242 2.094445,7.275288 2.094445,10.477397 0,3.492486 1.396298,3.492617 1.396298,6.985103 h 6.283337 c 1e-6,-3.492486 -2.094446,-4.191114 -2.094446,-6.985103 V 42.462524 c 0,-3.492493 6.727447,-10.380594 6.98097,-17.4625 0,-0.698499 -2.5e-5,-1.397314 -0.698149,-3.49281 z" />
        <g
           id="g46"
           transform="matrix(0,-0.69850006,-0.69812501,0,97.605132,65.513002)"
           style="stroke-width:1.43202">
          <ellipse
             style="fill:none;stroke:#000000;stroke-width:0.572809;stroke-linecap:round;stroke-linejoin:round"
             id="ellipse45"
             cx="51.000004"
             cy="57"
             rx="1.8000008"
             ry="1.8000004" />
          <ellipse
             style="fill:#000000;fill-opacity:1;stroke:#000000;stroke-width:0.572809;stroke-linecap:round;stroke-linejoin:round"
             id="ellipse46"
             cx="51"
             cy="56.099998"
             rx="1"
             ry="0.89999998" />
        </g>
        <path
           style="fill:none;fill-opacity:1;stroke:#000000;stroke-width:0.4;stroke-linecap:round;stroke-linejoin:round"
           d="m 53.623271,26.396948 v 7.683501 c 0,3.4925 -5.585001,3.4925 -5.585001,0 v -6.286501"
           id="path46"
           sodipodi:nodetypes="cccc" />
      </g>
    </g>
    <g
       id="g55"
       transform="translate(-2.6e-4,69.85)">
      <g
         id="g50"
         transform="translate(214.98063,10.074974)"
         inkscape:export-filename="./_images/taller-tesela-perro.png"
         inkscape:export-xdpi="300"
         inkscape:export-ydpi="300">
        <path
           id="path48"
           style="fill:none;stroke:#000000;stroke-width:0.4;stroke-linecap:round;stroke-linejoin:round"
           d="m 68.981836,21.507214 c -4.886865,4.190992 -18.89516,2.028978 -20.943425,3.49281 -2.443433,1.746246 -2.094445,7.275284 -2.094445,10.477397 0,3.492494 -1.396298,3.49261 -1.396298,6.985103 H 31.98151 c 0,-3.492497 2.792595,-3.492606 2.792595,-6.985103 V 25.000024 c -0.253523,7.081913 -6.981486,13.970003 -6.981486,17.4625 0,0 5.9e-5,24.44752 0,27.939897 -6e-5,3.492376 2.094447,3.492614 2.094446,6.985103 h 2.094445 4.188375 c 0,-3.492489 -2.792077,-3.492614 -2.792077,-6.985103 V 59.925024 c 10e-7,-0.698497 2.6e-5,-1.397318 0.698148,-3.49281 4.886856,4.190983 18.895165,2.028981 20.943425,3.49281 2.44343,1.746242 2.094445,7.275288 2.094445,10.477397 0,3.492486 1.396298,3.492617 1.396298,6.985103 h 6.283337 c 1e-6,-3.492486 -2.094446,-4.191114 -2.094446,-6.985103 V 42.462524 c 0,-3.492493 6.727447,-10.380594 6.98097,-17.4625 0,-0.698499 -2.5e-5,-1.397314 -0.698149,-3.49281 z" />
        <g
           id="g49"
           transform="matrix(0,-0.69850006,-0.69812501,0,97.605132,65.513002)"
           style="stroke-width:1.43202">
          <ellipse
             style="fill:none;stroke:#000000;stroke-width:0.572809;stroke-linecap:round;stroke-linejoin:round"
             id="ellipse48"
             cx="51.000004"
             cy="57"
             rx="1.8000008"
             ry="1.8000004" />
          <ellipse
             style="fill:#000000;fill-opacity:1;stroke:#000000;stroke-width:0.572809;stroke-linecap:round;stroke-linejoin:round"
             id="ellipse49"
             cx="51"
             cy="56.099998"
             rx="1"
             ry="0.89999998" />
        </g>
        <path
           style="fill:none;fill-opacity:1;stroke:#000000;stroke-width:0.4;stroke-linecap:round;stroke-linejoin:round"
           d="m 53.623271,26.396948 v 7.683501 c 0,3.4925 -5.585001,3.4925 -5.585001,0 v -6.286501"
           id="path49"
           sodipodi:nodetypes="cccc" />
      </g>
      <g
         id="g52"
         transform="translate(249.88703,10.074974)"
         inkscape:export-filename="./_images/taller-tesela-perro.png"
         inkscape:export-xdpi="300"
         inkscape:export-ydpi="300">
        <path
           id="path50"
           style="fill:none;stroke:#000000;stroke-width:0.4;stroke-linecap:round;stroke-linejoin:round"
           d="m 68.981836,21.507214 c -4.886865,4.190992 -18.89516,2.028978 -20.943425,3.49281 -2.443433,1.746246 -2.094445,7.275284 -2.094445,10.477397 0,3.492494 -1.396298,3.49261 -1.396298,6.985103 H 31.98151 c 0,-3.492497 2.792595,-3.492606 2.792595,-6.985103 V 25.000024 c -0.253523,7.081913 -6.981486,13.970003 -6.981486,17.4625 0,0 5.9e-5,24.44752 0,27.939897 -6e-5,3.492376 2.094447,3.492614 2.094446,6.985103 h 2.094445 4.188375 c 0,-3.492489 -2.792077,-3.492614 -2.792077,-6.985103 V 59.925024 c 10e-7,-0.698497 2.6e-5,-1.397318 0.698148,-3.49281 4.886856,4.190983 18.895165,2.028981 20.943425,3.49281 2.44343,1.746242 2.094445,7.275288 2.094445,10.477397 0,3.492486 1.396298,3.492617 1.396298,6.985103 h 6.283337 c 1e-6,-3.492486 -2.094446,-4.191114 -2.094446,-6.985103 V 42.462524 c 0,-3.492493 6.727447,-10.380594 6.98097,-17.4625 0,-0.698499 -2.5e-5,-1.397314 -0.698149,-3.49281 z" />
        <g
           id="g51"
           transform="matrix(0,-0.69850006,-0.69812501,0,97.605132,65.513002)"
           style="stroke-width:1.43202">
          <ellipse
             style="fill:none;stroke:#000000;stroke-width:0.572809;stroke-linecap:round;stroke-linejoin:round"
             id="ellipse50"
             cx="51.000004"
             cy="57"
             rx="1.8000008"
             ry="1.8000004" />
          <ellipse
             style="fill:#000000;fill-opacity:1;stroke:#000000;stroke-width:0.572809;stroke-linecap:round;stroke-linejoin:round"
             id="ellipse51"
             cx="51"
             cy="56.099998"
             rx="1"
             ry="0.89999998" />
        </g>
        <path
           style="fill:none;fill-opacity:1;stroke:#000000;stroke-width:0.4;stroke-linecap:round;stroke-linejoin:round"
           d="m 53.623271,26.396948 v 7.683501 c 0,3.4925 -5.585001,3.4925 -5.585001,0 v -6.286501"
           id="path51"
           sodipodi:nodetypes="cccc" />
      </g>
      <g
         id="g54"
         transform="translate(284.79343,10.074974)"
         inkscape:export-filename="./_images/taller-tesela-perro.png"
         inkscape:export-xdpi="300"
         inkscape:export-ydpi="300">
        <path
           id="path52"
           style="fill:none;stroke:#000000;stroke-width:0.4;stroke-linecap:round;stroke-linejoin:round"
           d="m 68.981836,21.507214 c -4.886865,4.190992 -18.89516,2.028978 -20.943425,3.49281 -2.443433,1.746246 -2.094445,7.275284 -2.094445,10.477397 0,3.492494 -1.396298,3.49261 -1.396298,6.985103 H 31.98151 c 0,-3.492497 2.792595,-3.492606 2.792595,-6.985103 V 25.000024 c -0.253523,7.081913 -6.981486,13.970003 -6.981486,17.4625 0,0 5.9e-5,24.44752 0,27.939897 -6e-5,3.492376 2.094447,3.492614 2.094446,6.985103 h 2.094445 4.188375 c 0,-3.492489 -2.792077,-3.492614 -2.792077,-6.985103 V 59.925024 c 10e-7,-0.698497 2.6e-5,-1.397318 0.698148,-3.49281 4.886856,4.190983 18.895165,2.028981 20.943425,3.49281 2.44343,1.746242 2.094445,7.275288 2.094445,10.477397 0,3.492486 1.396298,3.492617 1.396298,6.985103 h 6.283337 c 1e-6,-3.492486 -2.094446,-4.191114 -2.094446,-6.985103 V 42.462524 c 0,-3.492493 6.727447,-10.380594 6.98097,-17.4625 0,-0.698499 -2.5e-5,-1.397314 -0.698149,-3.49281 z" />
        <g
           id="g53"
           transform="matrix(0,-0.69850006,-0.69812501,0,97.605132,65.513002)"
           style="stroke-width:1.43202">
          <ellipse
             style="fill:none;stroke:#000000;stroke-width:0.572809;stroke-linecap:round;stroke-linejoin:round"
             id="ellipse52"
             cx="51.000004"
             cy="57"
             rx="1.8000008"
             ry="1.8000004" />
          <ellipse
             style="fill:#000000;fill-opacity:1;stroke:#000000;stroke-width:0.572809;stroke-linecap:round;stroke-linejoin:round"
             id="ellipse53"
             cx="51"
             cy="56.099998"
             rx="1"
             ry="0.89999998" />
        </g>
        <path
           style="fill:none;fill-opacity:1;stroke:#000000;stroke-width:0.4;stroke-linecap:round;stroke-linejoin:round"
           d="m 53.623271,26.396948 v 7.683501 c 0,3.4925 -5.585001,3.4925 -5.585001,0 v -6.286501"
           id="path53"
           sodipodi:nodetypes="cccc" />
      </g>
    </g>
  </g>
  <metadata
     id="metadata1622">
    <rdf:RDF>
      <cc:Work
         rdf:about="">
        <cc:license
           rdf:resource="http://creativecommons.org/licenses/by-sa/4.0/" />
        <dc:title>Teselas de perros</dc:title>
        <dc:date>30/04/2026</dc:date>
        <dc:creator>
          <cc:Agent>
            <dc:title>Carlos Félix Pardo Martín</dc:title>
          </cc:Agent>
        </dc:creator>
        <dc:rights>
          <cc:Agent>
            <dc:title>Licencia Creative Commons BY-SA 4.0</dc:title>
          </cc:Agent>
        </dc:rights>
        <dc:publisher>
          <cc:Agent>
            <dc:title>www.picuino.com</dc:title>
          </cc:Agent>
        </dc:publisher>
      </cc:Work>
      <cc:License
         rdf:about="http://creativecommons.org/licenses/by-sa/4.0/">
        <cc:permits
           rdf:resource="http://creativecommons.org/ns#Reproduction" />
        <cc:permits
           rdf:resource="http://creativecommons.org/ns#Distribution" />
        <cc:requires
           rdf:resource="http://creativecommons.org/ns#Notice" />
        <cc:requires
           rdf:resource="http://creativecommons.org/ns#Attribution" />
        <cc:permits
           rdf:resource="http://creativecommons.org/ns#DerivativeWorks" />
        <cc:requires
           rdf:resource="http://creativecommons.org/ns#ShareAlike" />
      </cc:License>
    </rdf:RDF>
  </metadata>
</svg>
