<?xml version="1.0" encoding="UTF-8" standalone="no"?>
<!DOCTYPE svg PUBLIC "-//W3C//DTD SVG 1.1//EN"
"http://www.w3.org/Graphics/SVG/1.1/DTD/svg11.dtd">
<svg viewBox="0 0 909 1286" version="1.1" xmlns="http://www.w3.org/2000/svg" xmlns:xlink="http://www.w3.org/1999/xlink">
<defs>
<style type="text/css"><![CDATA[
.g0{
}
.g1{
fill: #0000FF;
}
.g2{
fill: #FFFFFF;
}
.g3{
fill: none;
stroke: #FF0000;
stroke-width: 1.145;
stroke-linecap: round;
stroke-linejoin: miter;
stroke-miterlimit: 8;
}
.g4{
fill: #FF0000;
}
.g5{
fill: none;
stroke: #FF0000;
stroke-width: 1.145;
stroke-linecap: round;
stroke-linejoin: round;
}
.g6{
fill: none;
stroke: #000000;
stroke-width: 1.099;
stroke-linecap: round;
stroke-linejoin: round;
}
.g7{
fill: #FFFFFF;
stroke: #000000;
stroke-width: 1.074;
stroke-linecap: round;
stroke-linejoin: round;
}
]]></style>
</defs>
<path d="M97.4,131.6H812.2v-2.3H97.4v2.3Z" class="g0"/>
<path d="M97.4,1183.9H812.2v-2.3H97.4v2.3Z" class="g0"/>
<path d="M168.7,1221H312.6v-1.5H168.7v1.5Z" class="g1"/>
<path d="M99.6,1219.7H173v-37.8H99.6v37.8Z" class="g2"/>
<path d="M173,1181.8H99.6v37.9H173v-37.9Z" class="g3"/>
<path fill-rule="evenodd" d="M129.2,1192.4c-1.3,.2,-2.2,.5,-2.8,.9c-.5,.6,-1.2,1.7,-1.8,3.3c-1,2.8,-2,5.6,-3.1,8.5c-.8,2.2,-1.8,4,-2.8,5.2c-1.9,2.3,-4.6,3.4,-7.9,3.4c-3.2,0,-4.8,-1.2,-5.1,-3.4c-.1,-1.1,.2,-2.7,1,-4.9c1.2,-3.3,2.6,-6.7,3.8,-10c.4,-1.2,.5,-2,.1,-2.4c-.1,-.3,-1,-.5,-2.3,-.6c.1,-.2,.2,-.4,.3,-.6c2.8,0,5.6,0,8.4,0c-.1,.2,-.2,.4,-.2,.6c-1.4,.1,-2.3,.3,-2.8,.6c-.6,.5,-1.2,1.2,-1.5,2.4c-1.3,3.4,-2.7,6.9,-3.9,10.3c-1.6,4.7,-.5,7,3.4,7c2.2,0,4.2,-1,6,-2.9c.8,-.8,1.5,-2.3,2.4,-4.5c1,-2.9,2.1,-5.7,3.2,-8.7c.5,-1.7,.8,-2.8,.7,-3.4c-.2,-.4,-.8,-.7,-1.8,-.8c.1,-.2,.1,-.4,.1,-.6c2.3,0,4.5,0,6.7,0c-.1,.2,-.1,.4,-.1,.6Z" class="g4"/>
<path fill-rule="evenodd" d="M145.8,1197.1c-.2,0,-.5,0,-.7,0c.3,-1.9,.2,-3,-.3,-3.5c-.4,-.6,-1.5,-.7,-3.3,-.7c-.6,0,-1.2,0,-1.8,0c-1.1,3.1,-2.3,6.1,-3.4,9.2c-.9,2.5,-1.8,4.9,-2.7,7.4c-.4,1.1,-.5,1.9,-.2,2.4c.3,.4,1.1,.7,2.4,.8c-.1,.1,-.2,.3,-.2,.6c-3,0,-5.8,0,-8.6,0c.1,-.3,.1,-.5,.1,-.6c1.4,-.1,2.4,-.4,3.1,-1c.5,-.4,1.1,-1.3,1.5,-2.6c1.5,-4.2,3.1,-8.4,4.6,-12.5c.5,-1.3,.9,-2.5,1.4,-3.7c-.5,0,-.9,0,-1.4,0c-.2,0,-.4,0,-.5,0c-1.8,0,-3.1,.2,-3.9,.7c-.8,.5,-1.7,1.6,-2.7,3.5c-.3,0,-.5,0,-.8,0c.8,-1.8,1.4,-3.5,2.1,-5.2c2,0,3.8,0,5.8,0c3.8,0,7.4,0,11.2,0c-.6,1.7,-1.2,3.4,-1.7,5.2Z" class="g4"/>
<path fill-rule="evenodd" d="M160.9,1209.6c-.8,.8,-1.8,1.5,-3.1,2.2c-2.1,1.3,-4.3,1.9,-6.5,1.9c-2.8,0,-4.8,-.9,-6,-2.6c-1.4,-2,-1.5,-4.9,-.1,-8.6c1.3,-3.4,3.4,-6.2,6.2,-8.3c2.7,-1.9,5.4,-2.8,8.2,-2.8c1.1,0,2.2,.1,3.3,.5c1.1,.3,1.6,.5,1.6,.5c.6,0,1.1,-.2,1.7,-1c.3,0,.5,0,.6,0c-.7,2.3,-1.5,4.7,-2.3,7c-.2,0,-.4,.1,-.6,.1c.5,-4.2,-1,-6.2,-4.4,-6.2c-1,0,-2,.2,-3.2,.5c-1.3,.4,-2.4,.9,-3.2,1.5c-2.4,1.9,-4.3,4.6,-5.7,8.3c-1.2,3.2,-1.1,5.8,.1,7.6c1,1.5,2.7,2.3,5,2.3c2.6,0,5.4,-1.1,8.2,-3.4c.1,.2,.1,.4,.2,.5Z" class="g4"/>
<path d="M129.2,1192.4c-1.3,.2,-2.2,.5,-2.8,.9c-.5,.6,-1.2,1.7,-1.8,3.3c-1,2.8,-2,5.6,-3.1,8.5c-.8,2.2,-1.8,4,-2.8,5.2c-1.9,2.3,-4.6,3.4,-7.9,3.4c-3.2,0,-4.8,-1.2,-5.1,-3.4c-.1,-1.1,.2,-2.7,1,-4.9c1.2,-3.3,2.6,-6.7,3.8,-10c.4,-1.2,.5,-2,.1,-2.4c-.1,-.3,-1,-.5,-2.3,-.6c.1,-.2,.2,-.4,.3,-.6c2.8,0,5.6,0,8.4,0c-.1,.2,-.2,.4,-.2,.6c-1.4,.1,-2.3,.3,-2.8,.6c-.6,.5,-1.2,1.2,-1.5,2.4c-1.3,3.4,-2.7,6.9,-3.9,10.3c-1.6,4.7,-.5,7,3.4,7c2.2,0,4.2,-1,6,-2.9c.8,-.8,1.5,-2.3,2.4,-4.5c1,-2.9,2.1,-5.7,3.2,-8.7c.5,-1.7,.8,-2.8,.7,-3.4c-.2,-.4,-.8,-.7,-1.8,-.8c.1,-.2,.1,-.4,.1,-.6c2.3,0,4.5,0,6.7,0c-.1,.2,-.1,.4,-.1,.6Zm16.6,4.7c-.2,0,-.5,0,-.7,0c.3,-1.9,.2,-3,-.3,-3.5c-.4,-.6,-1.5,-.7,-3.3,-.7c-.6,0,-1.2,0,-1.8,0c-1.1,3.1,-2.3,6.1,-3.4,9.2c-.9,2.5,-1.8,4.9,-2.7,7.4c-.4,1.1,-.5,1.9,-.2,2.4c.3,.4,1.1,.7,2.4,.8c-.1,.1,-.2,.3,-.2,.6c-3,0,-5.8,0,-8.6,0c.1,-.3,.1,-.5,.1,-.6c1.4,-.1,2.4,-.4,3.1,-1c.5,-.4,1.1,-1.3,1.5,-2.6c1.5,-4.2,3.1,-8.4,4.6,-12.5c.5,-1.3,.9,-2.5,1.4,-3.7c-.5,0,-.9,0,-1.4,0c-.2,0,-.4,0,-.5,0c-1.8,0,-3.1,.2,-3.9,.7c-.8,.5,-1.7,1.6,-2.7,3.5c-.3,0,-.5,0,-.8,0c.8,-1.8,1.4,-3.5,2.1,-5.2c2,0,3.8,0,5.8,0c3.8,0,7.4,0,11.2,0c-.6,1.7,-1.2,3.4,-1.7,5.2Zm15.1,12.5c-.8,.8,-1.8,1.5,-3.1,2.2c-2.1,1.3,-4.3,1.9,-6.5,1.9c-2.8,0,-4.8,-.9,-6,-2.6c-1.4,-2,-1.5,-4.9,-.1,-8.6c1.3,-3.4,3.4,-6.2,6.2,-8.3c2.7,-1.9,5.4,-2.8,8.2,-2.8c1.1,0,2.2,.1,3.3,.5c1.1,.3,1.6,.5,1.6,.5c.6,0,1.1,-.2,1.7,-1c.3,0,.5,0,.6,0c-.7,2.3,-1.5,4.7,-2.3,7c-.2,0,-.4,.1,-.6,.1c.5,-4.2,-1,-6.2,-4.4,-6.2c-1,0,-2,.2,-3.2,.5c-1.3,.4,-2.4,.9,-3.2,1.5c-2.4,1.9,-4.3,4.6,-5.7,8.3c-1.2,3.2,-1.1,5.8,.1,7.6c1,1.5,2.7,2.3,5,2.3c2.6,0,5.4,-1.1,8.2,-3.4c.1,.2,.1,.4,.2,.5Z" class="g5"/>
<path d="M99.6,1227.7H173v-10H99.6v10Z" class="g4"/>
<path d="M173,1217.7H99.6v9.9H173v-9.9Z" class="g3"/>
<path d="M99.6,1186.4H173v-4.5H99.6v4.5Z" class="g4"/>
<path d="M173,1186.4H99.6v-4.6H173v4.6Z" class="g3"/>
<path d="M319.7,232.2l71.4,40.7l-71.4,40.6V232.2Z" class="g6"/>
<image preserveAspectRatio="none" x="323" y="298" width="7" height="39" xlink:href="img/1.png"/>
<image preserveAspectRatio="none" x="323" y="244" width="5" height="7" xlink:href="img/2.png"/>
<path d="M319.2,244.8H308.5m10.7,56.7H303.4m-7,0c0,-1.9,1.6,-3.6,3.5,-3.6c2,0,3.5,1.7,3.5,3.6c0,1.9,-1.5,3.5,-3.5,3.5c-1.9,0,-3.5,-1.6,-3.5,-3.5Z" class="g6"/>
<image preserveAspectRatio="none" x="290" y="311" width="10" height="59" xlink:href="img/3.png"/>
<image preserveAspectRatio="none" x="301" y="316" width="7" height="39" xlink:href="img/4.png"/>
<path d="M403.6,221.1H308.5m0,23.7V221.3M403.8,274V221.3" class="g6"/>
<path fill-rule="evenodd" d="M403.8,270.3c-2.1,0,-3.8,1.7,-3.8,3.7c0,2,1.7,3.7,3.8,3.7c2,0,3.7,-1.7,3.7,-3.7c0,-2,-1.7,-3.7,-3.7,-3.7Z" class="g0"/>
<path d="M569.4,272.9H391.1m178.3,0c0,-1.8,1.5,-3.4,3.3,-3.4c1.9,0,3.3,1.6,3.3,3.4c0,1.8,-1.4,3.3,-3.3,3.3c-1.8,0,-3.3,-1.5,-3.3,-3.3Z" class="g6"/>
<image preserveAspectRatio="none" x="585" y="268" width="9" height="60" xlink:href="img/5.png"/>
<image preserveAspectRatio="none" x="594" y="274" width="19" height="39" xlink:href="img/6.png"/>
<image preserveAspectRatio="none" x="324" y="269" width="36" height="23" xlink:href="img/7.png"/>
<image preserveAspectRatio="none" x="361" y="269" width="5" height="47" xlink:href="img/8.png"/>
<image preserveAspectRatio="none" x="367" y="269" width="5" height="47" xlink:href="img/9.png"/>
<image preserveAspectRatio="none" x="372" y="269" width="6" height="46" xlink:href="img/10.png"/>
<path d="M484.9,274v20.1" class="g6"/>
<path fill-rule="evenodd" d="M484.9,277.7c2,0,3.8,-1.7,3.8,-3.7c0,-2,-1.8,-3.7,-3.8,-3.7c-2,0,-3.6,1.7,-3.6,3.7c0,2,1.6,3.7,3.6,3.7Z" class="g0"/>
<path d="M465.2,310.7V294.1m40.9,39.8v-7.5M465.2,294.1h40.9m-40.9,39.5V318.5m.3,15.4H506m.1,-31.9v-7.7m0,32.1l-4.9,-2.1l9.8,-4l-9.8,-4.1l9.8,-4.1L501.2,308l9.8,-4l-4.9,-2m-21.2,32.1v12.6" class="g6"/>
<path fill-rule="evenodd" d="M484.9,337.8c2,0,3.8,-1.7,3.8,-3.7c0,-2,-1.8,-3.7,-3.8,-3.7c-2,0,-3.6,1.7,-3.6,3.7c0,2,1.6,3.7,3.6,3.7Z" class="g0"/>
<path d="M481.7,354h6.4m-9.5,-3.2h12.7m-15.9,-3.1h19m-9.5,-1v1" class="g6"/>
<image preserveAspectRatio="none" x="517" y="307" width="9" height="59" xlink:href="img/11.png"/>
<image preserveAspectRatio="none" x="526" y="312" width="5" height="38" xlink:href="img/12.png"/>
<image preserveAspectRatio="none" x="535" y="309" width="7" height="26" xlink:href="img/13.png"/>
<image preserveAspectRatio="none" x="547" y="306" width="6" height="60" xlink:href="img/14.png"/>
<image preserveAspectRatio="none" x="555" y="307" width="9" height="59" xlink:href="img/15.png"/>
<image preserveAspectRatio="none" x="564" y="306" width="9" height="61" xlink:href="img/16.png"/>
<image preserveAspectRatio="none" x="380" y="306" width="9" height="61" xlink:href="img/17.png"/>
<image preserveAspectRatio="none" x="390" y="311" width="5" height="39" xlink:href="img/18.png"/>
<image preserveAspectRatio="none" x="399" y="309" width="7" height="25" xlink:href="img/19.png"/>
<image preserveAspectRatio="none" x="411" y="306" width="18" height="61" xlink:href="img/20.png"/>
<image preserveAspectRatio="none" x="429" y="306" width="4" height="61" xlink:href="img/21.png"/>
<image preserveAspectRatio="none" x="434" y="306" width="14" height="76" xlink:href="img/22.png"/>
<path d="M456,312.9h18.5v-4.3H456v4.3Z" class="g0"/>
<path d="M456,312.9h18.5v-4.3H456v4.3Z" class="g6"/>
<path d="M456,320.7h18.5v-4.3H456v4.3Z" class="g0"/>
<path d="M456,320.7h18.5v-4.3H456v4.3ZM390.5,485.7L462,526.3l-71.5,40.8V485.7Z" class="g6"/>
<image preserveAspectRatio="none" x="394" y="551" width="7" height="39" xlink:href="img/23.png"/>
<image preserveAspectRatio="none" x="394" y="498" width="4" height="7" xlink:href="img/24.png"/>
<path d="M390,498.3H366.3M390,555H376.6M317.4,498.3c0,-1.9,1.6,-3.5,3.5,-3.5c1.9,0,3.6,1.6,3.6,3.5c0,2,-1.7,3.6,-3.6,3.6c-1.9,0,-3.5,-1.6,-3.5,-3.6Z" class="g6"/>
<image preserveAspectRatio="none" x="296" y="494" width="9" height="59" xlink:href="img/25.png"/>
<image preserveAspectRatio="none" x="306" y="499" width="7" height="39" xlink:href="img/26.png"/>
<path d="M474.4,474.6H436.2m-56.9,23.7V474.8" class="g6"/>
<path fill-rule="evenodd" d="M379.3,494.6c-2.1,0,-3.7,1.7,-3.7,3.7c0,2.1,1.6,3.8,3.7,3.8c2,0,3.7,-1.7,3.7,-3.8c0,-2,-1.7,-3.7,-3.7,-3.7Z" class="g0"/>
<path d="M474.6,527.5V474.8" class="g6"/>
<path fill-rule="evenodd" d="M474.6,523.8c-2.1,0,-3.7,1.7,-3.7,3.7c0,2.1,1.6,3.7,3.7,3.7c2.1,0,3.7,-1.6,3.7,-3.7c0,-2,-1.6,-3.7,-3.7,-3.7Z" class="g0"/>
<path d="M546.9,526.3H462m84.9,0c0,-1.8,1.4,-3.3,3.3,-3.3c1.8,0,3.3,1.5,3.3,3.3c0,1.9,-1.5,3.4,-3.3,3.4c-1.9,0,-3.3,-1.5,-3.3,-3.4Z" class="g6"/>
<image preserveAspectRatio="none" x="559" y="522" width="10" height="59" xlink:href="img/27.png"/>
<image preserveAspectRatio="none" x="569" y="527" width="18" height="40" xlink:href="img/28.png"/>
<image preserveAspectRatio="none" x="394" y="522" width="37" height="24" xlink:href="img/29.png"/>
<image preserveAspectRatio="none" x="431" y="522" width="6" height="47" xlink:href="img/30.png"/>
<image preserveAspectRatio="none" x="437" y="522" width="6" height="47" xlink:href="img/31.png"/>
<image preserveAspectRatio="none" x="443" y="523" width="6" height="45" xlink:href="img/32.png"/>
<path d="M530.3,563.7V526.3" class="g6"/>
<path fill-rule="evenodd" d="M530.3,529.9c2.1,0,3.8,-1.6,3.8,-3.6c0,-2.1,-1.7,-3.8,-3.8,-3.8c-2,0,-3.7,1.7,-3.7,3.8c0,2,1.7,3.6,3.7,3.6Z" class="g0"/>
<path d="M530.7,587.5H490.6m-.2,-32V526.3" class="g6"/>
<path fill-rule="evenodd" d="M490.4,529.9c2,0,3.8,-1.6,3.8,-3.6c0,-2.1,-1.8,-3.8,-3.8,-3.8c-2,0,-3.6,1.7,-3.6,3.8c0,2,1.6,3.6,3.6,3.6Z" class="g0"/>
<path d="M490.4,580l-4.8,-2.1l9.7,-4.1l-9.7,-4.1l9.7,-4l-9.7,-4.1l9.7,-4.1l-4.9,-2m18.9,32.2v12.5" class="g6"/>
<path fill-rule="evenodd" d="M509.3,591.3c2.1,0,3.8,-1.6,3.8,-3.6c0,-2,-1.7,-3.8,-3.8,-3.8c-2,0,-3.7,1.8,-3.7,3.8c0,2,1.7,3.6,3.7,3.6Z" class="g0"/>
<path d="M506.2,607.6h6.3M503,604.4h12.7m-15.9,-3.2h19.1m-9.6,-1v1" class="g6"/>
<image preserveAspectRatio="none" x="464" y="560" width="8" height="59" xlink:href="img/33.png"/>
<image preserveAspectRatio="none" x="473" y="565" width="5" height="39" xlink:href="img/34.png"/>
<image preserveAspectRatio="none" x="546" y="560" width="9" height="61" xlink:href="img/35.png"/>
<image preserveAspectRatio="none" x="556" y="565" width="5" height="39" xlink:href="img/36.png"/>
<image preserveAspectRatio="none" x="565" y="563" width="7" height="25" xlink:href="img/37.png"/>
<image preserveAspectRatio="none" x="578" y="560" width="17" height="61" xlink:href="img/38.png"/>
<image preserveAspectRatio="none" x="595" y="560" width="4" height="61" xlink:href="img/39.png"/>
<image preserveAspectRatio="none" x="600" y="560" width="14" height="76" xlink:href="img/40.png"/>
<image preserveAspectRatio="none" x="614" y="560" width="1" height="76" xlink:href="img/41.png"/>
<path d="M521.1,565.8h18.5v-4.3H521.1v4.3Z" class="g0"/>
<path d="M521.1,565.8h18.5v-4.3H521.1v4.3Z" class="g6"/>
<path d="M521.1,573.7h18.5v-4.3H521.1v4.3Z" class="g0"/>
<path d="M521.1,573.7h18.5v-4.3H521.1v4.3ZM341.8,498.3l2,-4.9l4.2,9.9l4,-9.9l4.1,9.9l4.1,-9.9l4.1,9.9l2,-5m-24.5,0H324.5m52.1,98.4V554.9M373.5,604h6.3m-9.6,-3.2H383m-16,-3.1h19.2m-9.6,-1v1M490.4,586.9V580m39.9,6.9V571.5" class="g6"/>
<image preserveAspectRatio="none" x="341" y="479" width="3" height="59" xlink:href="img/42.png"/>
<image preserveAspectRatio="none" x="348" y="479" width="9" height="59" xlink:href="img/43.png"/>
<image preserveAspectRatio="none" x="357" y="478" width="9" height="61" xlink:href="img/44.png"/>
<image preserveAspectRatio="none" x="408" y="455" width="13" height="61" xlink:href="img/45.png"/>
<image preserveAspectRatio="none" x="423" y="455" width="9" height="60" xlink:href="img/46.png"/>
<image preserveAspectRatio="none" x="432" y="455" width="8" height="60" xlink:href="img/47.png"/>
<path d="M411.7,474.6l2.1,-4.8l4,9.7l4.1,-9.7l4.1,9.7l4.1,-9.7l4,9.7l2,-4.9m-24.4,0H378.9" class="g6"/>
<path fill-rule="evenodd" d="M104.7,1173.6H803.6V1012.4H104.7v161.2Z" class="g7"/>
</svg>