<?xml version="1.0" encoding="UTF-8" standalone="no"?>
<!-- Created with Inkscape (http://www.inkscape.org/) -->

<svg
   width="210mm"
   height="297mm"
   viewBox="0 0 210 297"
   version="1.1"
   id="svg5"
   inkscape:version="1.2.1 (9c6d41e410, 2022-07-14)"
   sodipodi:docname="electric-motor-simplified.svg"
   xmlns:inkscape="http://www.inkscape.org/namespaces/inkscape"
   xmlns:sodipodi="http://sodipodi.sourceforge.net/DTD/sodipodi-0.dtd"
   xmlns="http://www.w3.org/2000/svg"
   xmlns:svg="http://www.w3.org/2000/svg">
  <sodipodi:namedview
     id="namedview7"
     pagecolor="#ffffff"
     bordercolor="#666666"
     borderopacity="1.0"
     inkscape:showpageshadow="2"
     inkscape:pageopacity="0.0"
     inkscape:pagecheckerboard="0"
     inkscape:deskcolor="#d1d1d1"
     inkscape:document-units="mm"
     showgrid="true"
     inkscape:zoom="16.871996"
     inkscape:cx="198.02043"
     inkscape:cy="361.13095"
     inkscape:window-width="1920"
     inkscape:window-height="1017"
     inkscape:window-x="-8"
     inkscape:window-y="-8"
     inkscape:window-maximized="1"
     inkscape:current-layer="layer1">
    <inkscape:grid
       type="axonomgrid"
       id="grid1779"
       enabled="true" />
    <inkscape:grid
       type="xygrid"
       id="grid4154"
       enabled="false" />
  </sodipodi:namedview>
  <defs
     id="defs2">
    <inkscape:path-effect
       effect="fillet_chamfer"
       id="path-effect4039"
       is_visible="true"
       lpeversion="1"
       nodesatellites_param="F,0,0,1,0,5,0,1 @ F,0,0,1,0,5,0,1 @ F,0,0,1,0,5,0,1 @ F,0,0,1,0,5,0,1"
       unit="mm"
       method="auto"
       mode="F"
       radius="5"
       chamfer_steps="1"
       flexible="false"
       use_knot_distance="true"
       apply_no_radius="true"
       apply_with_radius="true"
       only_selected="false"
       hide_knots="false" />
  </defs>
  <g
     inkscape:label="Capa 1"
     inkscape:groupmode="layer"
     id="layer1">
    <path
       style="fill:none;stroke:#000000;stroke-width:0.3;stroke-linecap:round;stroke-linejoin:round;stroke-dasharray:none;stroke-opacity:1"
       d="m 60.621777,94.999999 8.660254,-5 L 60.621777,84.999998 86.60254,69.999999 109.1192,83 83.138439,98 74.478185,93 65.817931,98"
       id="path2988"
       sodipodi:nodetypes="cccccccc" />
    <path
       style="fill:none;stroke:#000000;stroke-width:0.3;stroke-linecap:round;stroke-linejoin:round;stroke-dasharray:none;stroke-opacity:1"
       d="M 61.487803,95.499998 71.014081,89.999999 62.35383,84.999998 86.60254,71 l 20.78461,12 -24.248711,14 -8.660254,-5 -9.52628,5.5"
       id="path3145"
       sodipodi:nodetypes="cccccccc" />
    <path
       id="path4156"
       style="fill:none;fill-opacity:0.701961;fill-rule:evenodd;stroke:#000000;stroke-width:0.2;stroke-linecap:round;stroke-linejoin:round;stroke-dasharray:none;stop-color:#000000"
       d="m 50.270833,116.52777 v 1.35082 a 6.614583,6.614583 0 0 1 5.152657,5.15266 h 1.350822 a 7.9375,7.9375 0 0 0 -6.503479,-6.50348 z m -2.645833,5.2e-4 a 7.9375,7.9375 0 0 0 -6.502962,6.50296 h 1.350305 A 6.614583,6.614583 0 0 1 47.625,117.87859 Z m 1.322917,6.50296 a 1.3229166,1.3229166 0 0 0 -1.322917,1.32291 1.3229166,1.3229166 0 0 0 1.322917,1.32292 1.3229166,1.3229166 0 0 0 1.322916,-1.32292 1.3229166,1.3229166 0 0 0 -1.322916,-1.32291 z m -7.825879,2.64583 a 7.9375,7.9375 0 0 0 6.502962,6.50296 v -1.3503 a 6.614583,6.614583 0 0 1 -5.152657,-5.15266 z m 14.306103,0 a 6.614583,6.614583 0 0 1 -5.157308,5.15731 v 1.34565 a 7.9375,7.9375 0 0 0 6.502963,-6.50296 z" />
    <path
       style="fill:none;stroke:#000000;stroke-width:0.05;stroke-linecap:butt;stroke-linejoin:miter;stroke-opacity:1;stroke-dasharray:none"
       d="m 47.631397,92.5 v 10 l 8.660254,5 v -10 z"
       id="path4950" />
    <path
       style="fill:none;fill-opacity:0.701961;fill-rule:evenodd;stroke:#000000;stroke-width:0.05;stroke-linecap:round;stroke-linejoin:round;stroke-dasharray:none;stop-color:#000000"
       d="m 52.444617,99.694953 c -0.276481,-0.46969 -0.724745,-0.713879 -1.001228,-0.545412 -0.276479,0.168471 -0.27648,0.685799 -2e-6,1.155489 0.27648,0.46969 0.724747,0.71389 1.001232,0.54542 0.276482,-0.16847 0.276481,-0.68581 -2e-6,-1.155497 z"
       id="path6408" />
    <path
       style="fill:none;fill-opacity:0.701961;fill-rule:evenodd;stroke:#000000;stroke-width:0.05;stroke-linecap:round;stroke-linejoin:round;stroke-dasharray:none;stop-color:#000000"
       d="m 48.481936,95.274084 c -1.047202,1.130014 -1.047202,3.409061 1e-6,5.679976 l 0.777568,-0.48386 c -0.780562,-1.790155 -1.069329,-3.477014 -0.288767,-4.416766 -0.09148,-0.149697 -0.488802,-0.77935 -0.488802,-0.77935 z"
       id="path6410" />
    <path
       style="fill:#b0b0b0;fill-opacity:1;fill-rule:evenodd;stroke:#000000;stroke-width:0.05;stroke-linecap:round;stroke-linejoin:round;stroke-dasharray:none;stop-color:#000000"
       d="m 49.608555,94.62363 c 1.502222,-0.341896 3.475935,0.797627 4.919003,2.839989 l -0.807819,0.431464 C 52.5597,96.324019 51.243221,95.23051 50.039091,95.43662 49.95519,95.282548 49.608555,94.62363 49.608555,94.62363 Z"
       id="path6430" />
    <path
       style="fill:none;fill-opacity:0.701961;fill-rule:evenodd;stroke:#000000;stroke-width:0.05;stroke-linecap:round;stroke-linejoin:round;stroke-dasharray:none;stop-color:#000000"
       d="m 54.314491,105.37637 c -1.502222,0.3419 -3.475934,-0.79763 -4.919003,-2.83999 l 0.807819,-0.43146 c 1.160039,1.57106 2.476518,2.66457 3.680648,2.45846 0.0839,0.15407 0.430536,0.81299 0.430536,0.81299 z"
       id="path6436" />
    <path
       style="fill:none;fill-opacity:0.701961;fill-rule:evenodd;stroke:#000000;stroke-width:0.05;stroke-linecap:round;stroke-linejoin:round;stroke-dasharray:none;stop-color:#000000"
       d="m 55.441112,104.72591 c 1.047202,-1.13001 1.047202,-3.40906 -10e-7,-5.679972 l -0.777568,0.48386 c 0.780562,1.790152 1.069329,3.477012 0.288767,4.416762 0.09148,0.1497 0.488802,0.77935 0.488802,0.77935 z"
       id="path6442" />
    <path
       style="fill:none;fill-opacity:0.701961;fill-rule:evenodd;stroke:#000000;stroke-width:0.05;stroke-linecap:round;stroke-linejoin:round;stroke-dasharray:none;stop-color:#000000"
       d="m 58.023702,96.5 c -0.276481,-0.46969 -0.724745,-0.713879 -1.001228,-0.545412 -0.276479,0.168471 -0.27648,0.685799 -2e-6,1.155489 0.27648,0.46969 0.724747,0.71389 1.001232,0.54542 0.276482,-0.16847 0.276481,-0.68581 -2e-6,-1.155497 z"
       id="path6463" />
    <path
       style="fill:none;fill-opacity:0.701961;fill-rule:evenodd;stroke:#000000;stroke-width:0.05;stroke-linecap:round;stroke-linejoin:round;stroke-dasharray:none;stop-color:#000000"
       d="m 54.061021,92.079131 c -1.047202,1.130014 -1.047202,3.409061 1e-6,5.679976 l 0.777568,-0.48386 c -0.780562,-1.790155 -1.069329,-3.477014 -0.288767,-4.416766 -0.09148,-0.149697 -0.488802,-0.77935 -0.488802,-0.77935 z"
       id="path6465" />
    <path
       style="fill:none;stroke:#000000;stroke-width:0.05;stroke-linecap:round;stroke-linejoin:round;stroke-opacity:1;stroke-dasharray:none"
       d="m 48.481935,95.274084 5.579086,-3.194955 0.488801,0.779351 -5.579086,3.194953 z"
       id="path6482" />
    <path
       style="fill:#e5e5e5;fill-opacity:1;stroke:#000000;stroke-width:0.05;stroke-linecap:round;stroke-linejoin:round;stroke-dasharray:none;stroke-opacity:1"
       d="m 49.608554,94.62363 5.579086,-3.194955 c 0,0 1.236302,-0.355084 2.765813,0.700933 1.628305,1.124229 2.153188,2.139057 2.153188,2.139057 l -5.579083,3.194954 c 0,0 -1.106657,-1.621047 -2.61011,-2.409802 -1.386348,-0.727319 -2.293757,-0.433578 -2.293757,-0.433578"
       id="path6475"
       sodipodi:nodetypes="ccsccsc" />
    <path
       style="fill:none;stroke:#000000;stroke-width:0.05;stroke-linecap:round;stroke-linejoin:round;stroke-dasharray:none;stroke-opacity:1"
       d="m 55.441111,99.045936 5.579085,-3.194951 c 0,0 0.784234,1.564509 0.784234,3.15207 0,1.925615 -0.784233,2.527905 -0.784233,2.527905 l -5.579086,3.19495 c 0,0 0.78042,-0.56548 0.78042,-2.6525 0,-1.28595 -0.78042,-3.027474 -0.78042,-3.027474 z"
       id="path6484"
       sodipodi:nodetypes="ccsccsc" />
    <path
       style="fill:none;stroke:#000000;stroke-width:0.05;stroke-linecap:round;stroke-linejoin:round;stroke-opacity:1;stroke-dasharray:none"
       d="m 53.883954,104.56338 5.579086,-3.19495 0.430535,0.81299 -5.579084,3.19495 z"
       id="path6486" />
    <path
       style="fill:none;stroke:#000000;stroke-width:0.05;stroke-linecap:butt;stroke-linejoin:miter;stroke-dasharray:none;stroke-opacity:1"
       d="m 50.203306,102.10492 c 0,0 0.845935,1.18298 1.847926,1.91271 1.006859,0.73328 1.832722,0.54575 1.832722,0.54575 l 5.579086,-3.19495 -1.999597,-0.66816 -1.681051,-1.790303 z"
       id="path6488"
       sodipodi:nodetypes="csccccc" />
  </g>
</svg>
