<?xml version="1.0" encoding="UTF-8" standalone="no"?>
<svg xmlns:dc="http://purl.org/dc/elements/1.1/" xmlns:cc="http://creativecommons.org/ns#" xmlns:rdf="http://www.w3.org/1999/02/22-rdf-syntax-ns#" xmlns:svg="http://www.w3.org/2000/svg" xmlns="http://www.w3.org/2000/svg" xmlns:xlink="http://www.w3.org/1999/xlink" xmlns:sodipodi="http://sodipodi.sourceforge.net/DTD/sodipodi-0.dtd" xmlns:inkscape="http://www.inkscape.org/namespaces/inkscape" height="128" width="128" version="1.1" id="svg158" sodipodi:docname="Inkscape Logo.svg" inkscape:version="1.0.2 (e86c870879, 2021-01-15, custom)">
  <sodipodi:namedview pagecolor="#ffffff" bordercolor="#666666" borderopacity="1" objecttolerance="10" gridtolerance="10" guidetolerance="10" inkscape:pageopacity="0" inkscape:pageshadow="2" inkscape:window-width="1600" inkscape:window-height="837" id="namedview160" showgrid="false" units="px" width="128mm" inkscape:zoom="2.5976563" inkscape:cx="83.299044" inkscape:cy="82.70896" inkscape:window-x="-8" inkscape:window-y="-8" inkscape:window-maximized="1" inkscape:current-layer="svg158"/>
  <defs id="defs91">
    <linearGradient id="a" gradientUnits="userSpaceOnUse">
      <stop offset="0" stop-color="#fff" id="stop10"/>
      <stop offset="1" stop-color="#fff" stop-opacity="0" id="stop12"/>
    </linearGradient>
    <linearGradient id="b" xlink:href="#a"/>
    <linearGradient id="c" x1="60" x2="90" xlink:href="#b" y1="20" y2="50"/>
    <filter id="d" color-interpolation-filters="sRGB">
      <feGaussianBlur stdDeviation=".80546496" id="feGaussianBlur17"/>
    </filter>
    <filter id="e" color-interpolation-filters="sRGB">
      <feGaussianBlur stdDeviation="3.4903482" id="feGaussianBlur20"/>
    </filter>
    <linearGradient id="f" gradientUnits="userSpaceOnUse" x1="82.120003" x2="60" y1="20" y2="40">
      <stop offset="0" stop-color="#c0cdf9" id="stop23"/>
      <stop offset="1" stop-color="#07092d" stop-opacity=".288" id="stop25"/>
    </linearGradient>
    <clipPath id="g">
      <use height="300" width="400" xlink:href="#I" id="use28" x="0" y="0"/>
    </clipPath>
    <filter id="h" color-interpolation-filters="sRGB">
      <feGaussianBlur stdDeviation="2.4163949" id="feGaussianBlur31"/>
    </filter>
    <linearGradient id="i" x1="32.91" x2="58.139999" xlink:href="#b" y1="34.939999" y2="60.169998"/>
    <radialGradient id="j" cx="116.31" cy="250.89999" gradientTransform="matrix(1.57005,0,0,1.05093,-75.5,-22.1)" gradientUnits="userSpaceOnUse" r="30.6" xlink:href="#k"/>
    <linearGradient id="k" gradientUnits="objectBoundingBox" xlink:href="#a"/>
    <radialGradient id="l" cx="132.44" cy="251.99001" gradientTransform="matrix(2.00325,0,0,1.3409,-132.88,-95.17)" gradientUnits="userSpaceOnUse" r="30.6" xlink:href="#k"/>
    <filter id="m" color-interpolation-filters="sRGB" height="1.23" width="1.16" x="-0.079999998" y="-0.11">
      <feGaussianBlur stdDeviation="1.9579068" id="feGaussianBlur38"/>
    </filter>
    <radialGradient id="n" cx="210.25" cy="168.5" gradientTransform="matrix(1,0,0,0.42336,0,97.16)" gradientUnits="userSpaceOnUse" r="34.25" xlink:href="#k"/>
    <radialGradient id="o" cx="217.5" cy="182.08" gradientTransform="matrix(1,0,0,0.42336,0,97.16)" gradientUnits="userSpaceOnUse" r="34.25" xlink:href="#k"/>
    <filter id="p" color-interpolation-filters="sRGB" height="1.35" width="1.15" x="-0.07" y="-0.18000001">
      <feGaussianBlur stdDeviation="2.1195652" id="feGaussianBlur43"/>
    </filter>
    <linearGradient id="q" gradientUnits="userSpaceOnUse" x1="231.63" x2="231.75" xlink:href="#k" y1="195.19" y2="201.5"/>
    <linearGradient id="r" gradientUnits="userSpaceOnUse" x1="231.38" x2="231.38" xlink:href="#k" y1="195.62" y2="200.07001"/>
    <filter id="s" color-interpolation-filters="sRGB" height="1.5599999" width="1.17" x="-0.090000004" y="-0.28">
      <feGaussianBlur stdDeviation=".56515877" id="feGaussianBlur48"/>
    </filter>
    <radialGradient id="t" cx="228.22" cy="204.83" gradientTransform="matrix(1,0,0,0.14775,0,174.57)" gradientUnits="userSpaceOnUse" r="14.09" xlink:href="#k"/>
    <filter id="u" color-interpolation-filters="sRGB" height="1.95" width="1.14" x="-0.07" y="-0.47">
      <feGaussianBlur stdDeviation=".82052366" id="feGaussianBlur52"/>
    </filter>
    <radialGradient id="v" cx="89.879997" cy="187.87" gradientTransform="matrix(1,0,0,0.40708,0,115.76)" gradientUnits="userSpaceOnUse" r="22.75">
      <stop offset="0" stop-color="#fff" stop-opacity=".33" id="stop55"/>
      <stop offset="1" stop-color="#fff" stop-opacity="0" id="stop57"/>
    </radialGradient>
    <radialGradient id="w" cx="90.279999" cy="230.84" gradientTransform="matrix(1.18508,-0.32836,0.12286,0.4434,-45.07,152.92)" r="10.47" xlink:href="#a"/>
    <filter id="x" color-interpolation-filters="sRGB" height="1.33" width="1.15" x="-0.079999998" y="-0.17">
      <feGaussianBlur stdDeviation=".66458488" id="feGaussianBlur61"/>
    </filter>
    <radialGradient id="y" cx="68.400002" cy="21.23" gradientTransform="matrix(1.72215,0,0,1.69498,-49.4,-14.08)" r="54.779999" xlink:href="#a"/>
    <filter id="z" color-interpolation-filters="sRGB">
      <feGaussianBlur stdDeviation=".32610678" id="feGaussianBlur65"/>
    </filter>
    <linearGradient id="A" x1="95.5" x2="153.5" xlink:href="#a" y1="208.16" y2="223.5"/>
    <filter id="B" color-interpolation-filters="sRGB" height="1.24" width="1.17" x="-0.079999998" y="-0.12">
      <feGaussianBlur stdDeviation="3.6868363" id="feGaussianBlur69"/>
    </filter>
    <linearGradient id="C" gradientUnits="userSpaceOnUse" x1="55.84" x2="52.66" y1="76.730003" y2="84.019997">
      <stop offset="0" stop-color="#eeeeec" id="stop72"/>
      <stop offset="1" stop-color="#eeeeec" stop-opacity="0" id="stop74"/>
    </linearGradient>
    <radialGradient id="D" cx="181.23" cy="214.55" gradientTransform="matrix(1.35152,0,0,1.71757,-63.71,-153.96)" r="22.469999" xlink:href="#a"/>
    <filter id="E" color-interpolation-filters="sRGB">
      <feGaussianBlur stdDeviation="1.2409356" id="feGaussianBlur78"/>
    </filter>
    <linearGradient id="F" x1="30.32" x2="34.779999" xlink:href="#b" y1="79.220001" y2="82.760002"/>
    <filter id="G" color-interpolation-filters="sRGB">
      <feGaussianBlur stdDeviation="2.7696726" id="feGaussianBlur82"/>
    </filter>
    <linearGradient id="H" gradientUnits="userSpaceOnUse" x1="50.639999" x2="23.530001" y1="134.14999" y2="61.150002">
      <stop offset="0" stop-color="#729fcf" id="stop85"/>
      <stop offset="1" stop-color="#729fcf" stop-opacity="0" id="stop87"/>
    </linearGradient>
    <path id="I" d="M 54.1,12.5 12.9,54.7 C -2.7,70.3 23,69 32.3,74.9 36.6,77.7 18.5,81.3 22.2,85 c 3.6,3.7 21.7,7.1 25.3,10.7 3.6,3.7 -7.3,7.6 -3.7,11.3 3.5,3.7 11.9,0.2 13.4,8.6 1.1,6.2 15.4,3.1 21.8,-2.2 4,-3.4 -6.9,-3.4 -3.3,-7.1 9,-9.1 17,-4.1 20.3,-12.5 1.8,-4.5 -13.6,-7.7 -9.5,-10.6 9.8,-6.9 45.8,-10.4 29.2,-27 L 73,12.5 c -5.3,-5 -14,-5 -18.9,0 z m -9.9,64.7 c 0.9,0 30.8,4 19.3,7.1 -4.4,1.2 -24.6,-7.1 -19.3,-7.1 z m 57.2,16.6 c 0,2.1 16.3,3.3 15.4,-0.5 -1.3,-6.4 -13.6,-5.9 -15.4,0.5 z m -69.5,11.1 c 3.7,3.2 9.3,-0.7 11.1,-5.2 -3.6,-4.7 -16.9,0.3 -11.1,5.2 z m 67.5,-6.7 c -4.6,4.2 0.8,8.6 5.3,5.7 1.2,-0.8 -0.1,-4.7 -5.3,-5.7 z"/>
    <linearGradient x1="0" y1="128" x2="0" y2="76" id="liquidSpecular" xlink:href="#a" gradientUnits="userSpaceOnUse"/>
    <linearGradient x1="80" y1="20" x2="60" y2="40" id="sideSpecular" xlink:href="#a" gradientUnits="userSpaceOnUse"/>
    <clipPath id="clipoutline1">
      <path d="M 54.1,12.5 12.9,54.7 C -2.7,70.3 23,69 32.3,74.9 36.6,77.7 18.5,81.3 22.2,85 c 3.6,3.7 21.7,7.1 25.3,10.7 3.6,3.7 -7.3,7.6 -3.7,11.3 3.5,3.7 11.9,0.2 13.4,8.6 1.1,6.2 15.4,3.1 21.8,-2.2 4,-3.4 -6.9,-3.4 -3.3,-7.1 9,-9.1 17,-4.1 20.3,-12.5 1.8,-4.5 -13.6,-7.7 -9.5,-10.6 9.8,-6.9 45.8,-10.4 29.2,-27 L 73,12.5 c -5.3,-5 -14,-5 -18.9,0 z m -9.9,64.7 c 0.9,0 30.8,4 19.3,7.1 -4.4,1.2 -24.6,-7.1 -19.3,-7.1 z m 57.2,16.6 c 0,2.1 16.3,3.3 15.4,-0.5 -1.3,-6.4 -13.6,-5.9 -15.4,0.5 z m -69.5,11.1 c 3.7,3.2 9.3,-0.7 11.1,-5.2 -3.6,-4.7 -16.9,0.3 -11.1,5.2 z m 67.5,-6.7 c -4.6,4.2 0.8,8.6 5.3,5.7 1.2,-0.8 -0.1,-4.7 -5.3,-5.7 z" id="outline1"/>
    </clipPath>
    <linearGradient x1="82.118591" y1="20" x2="60" y2="40" id="linearGradient9175" xlink:href="#linearGradient5785" gradientUnits="userSpaceOnUse"/>
    <linearGradient id="linearGradient5785" gradientUnits="userSpaceOnUse">
      <stop id="stop5787" style="stop-color:#c0cdf9;stop-opacity:1" offset="0"/>
      <stop id="stop5789" style="stop-color:#07092d;stop-opacity:0.28804347" offset="1"/>
    </linearGradient>
    <filter id="filter8490" color-interpolation-filters="sRGB">
      <feGaussianBlur id="feGaussianBlur8492" stdDeviation="2.4163949" inkscape:collect="always"/>
    </filter>
    <filter id="filter6017-3" color-interpolation-filters="sRGB">
      <feGaussianBlur id="feGaussianBlur6019-9" stdDeviation="0.80546496" inkscape:collect="always"/>
    </filter>
    <filter id="filter6031-0" color-interpolation-filters="sRGB">
      <feGaussianBlur id="feGaussianBlur6033-8" stdDeviation="3.4903482" inkscape:collect="always"/>
    </filter>
    <clipPath id="clipPath9086-1">
      <use transform="translate(1.0095461e-6)" id="use9088-0" style="opacity:0.25;fill:#ffffff;fill-opacity:1" x="0" y="0" width="400" height="300" xlink:href="#outline1"/>
    </clipPath>
    <filter id="filter8490-0" color-interpolation-filters="sRGB">
      <feGaussianBlur id="feGaussianBlur8492-5" stdDeviation="2.4163949" inkscape:collect="always"/>
    </filter>
    <linearGradient x1="33" y1="35" x2="58" y2="60" id="shinySpecular-0" xlink:href="#a" gradientUnits="userSpaceOnUse" gradientTransform="matrix(0.94545955,0,0,0.94545955,2.6498984,0.86036966)"/>
    <radialGradient cx="116.31038" cy="250.89737" r="30.599579" fx="116.31038" fy="250.89737" id="radialGradient9177-1" xlink:href="#a" gradientUnits="userSpaceOnUse" gradientTransform="matrix(0.77906588,0,0,0.52147572,-45.431112,-22.733425)"/>
    <radialGradient cx="132.44434" cy="251.99396" r="30.599579" fx="132.44434" fy="251.99396" id="radialGradient8574-0" xlink:href="#a" gradientUnits="userSpaceOnUse" gradientTransform="matrix(2.0032532,0,0,1.340898,-132.8752,-95.166065)"/>
    <filter height="1.2284414" y="-0.11422065" width="1.1561583" x="-0.078079157" id="filter8732-3" color-interpolation-filters="sRGB">
      <feGaussianBlur id="feGaussianBlur8734-5" stdDeviation="1.9579068" inkscape:collect="always"/>
    </filter>
    <radialGradient cx="210.25" cy="168.5" r="34.25" fx="210.25" fy="168.5" id="radialGradient8744-9" xlink:href="#a" gradientUnits="userSpaceOnUse" gradientTransform="matrix(0.496204,0,0,0.21007178,-7.9676572,36.443935)"/>
    <radialGradient cx="217.5" cy="182.08189" r="34.25" fx="217.5" fy="182.08189" id="radialGradient8768-6" xlink:href="#a" gradientUnits="userSpaceOnUse" gradientTransform="matrix(1,0,0,0.4233577,0,97.164234)"/>
    <filter height="1.3508246" y="-0.1754123" width="1.1485243" x="-0.074262142" id="filter8764-9" color-interpolation-filters="sRGB">
      <feGaussianBlur id="feGaussianBlur8766-2" stdDeviation="2.1195652" inkscape:collect="always"/>
    </filter>
    <linearGradient x1="231.625" y1="195.1875" x2="231.75" y2="201.5" id="linearGradient8912-9" xlink:href="#a" gradientUnits="userSpaceOnUse"/>
    <linearGradient x1="231.37646" y1="195.62132" x2="231.37646" y2="200.07138" id="linearGradient8910-3" xlink:href="#a" gradientUnits="userSpaceOnUse"/>
    <filter height="1.556464" y="-0.27823201" width="1.1708827" x="-0.085441329" id="filter8906-3" color-interpolation-filters="sRGB">
      <feGaussianBlur id="feGaussianBlur8908-7" stdDeviation="0.56515877" inkscape:collect="always"/>
    </filter>
    <radialGradient cx="228.21875" cy="204.83229" r="14.09375" fx="228.21875" fy="204.83229" id="radialGradient8922-9" xlink:href="#a" gradientUnits="userSpaceOnUse" gradientTransform="matrix(1,0,0,0.1477455,0,174.56924)"/>
    <filter height="1.9457178" y="-0.47285891" width="1.1397254" x="-0.069862768" id="filter8980-1" color-interpolation-filters="sRGB">
      <feGaussianBlur id="feGaussianBlur8982-9" stdDeviation="0.82052366" inkscape:collect="always"/>
    </filter>
    <radialGradient cx="228.21875" cy="204.83229" r="14.09375" fx="228.21875" fy="204.83229" id="radialGradient8994-0" xlink:href="#a" gradientUnits="userSpaceOnUse" gradientTransform="matrix(1,0,0,0.1477455,0,174.56924)"/>
    <radialGradient cx="89.875" cy="187.86935" r="22.75" fx="89.875" fy="187.86935" id="radialGradient9004-6" xlink:href="#linearGradient8998-5" gradientUnits="userSpaceOnUse" gradientTransform="matrix(0.496204,0,0,0.20199691,-7.9676572,45.671298)"/>
    <linearGradient id="linearGradient8998-5">
      <stop id="stop9000-9" style="stop-color:#ffffff;stop-opacity:0.33004925" offset="0"/>
      <stop id="stop9002-5" style="stop-color:#ffffff;stop-opacity:0" offset="1"/>
    </linearGradient>
    <radialGradient cx="90.28125" cy="230.83626" r="10.46875" fx="90.28125" fy="230.83626" id="radialGradient9046-1" xlink:href="#a" gradientUnits="userSpaceOnUse" gradientTransform="matrix(1.1850746,-0.3283582,0.1228557,0.4433973,-45.068314,152.92161)"/>
    <filter height="1.3311402" y="-0.1655701" width="1.1523587" x="-0.076179281" id="filter9068-2" color-interpolation-filters="sRGB">
      <feGaussianBlur id="feGaussianBlur9070-7" stdDeviation="0.66458488" inkscape:collect="always"/>
    </filter>
    <radialGradient cx="68.39994" cy="21.225746" r="54.783398" fx="68.39994" fy="21.225746" id="radialGradient11553-3" xlink:href="#a" gradientUnits="userSpaceOnUse" gradientTransform="matrix(1.7221535,0,0,1.6949765,-49.39526,-14.078057)"/>
    <filter id="filter9298-4" color-interpolation-filters="sRGB">
      <feGaussianBlur id="feGaussianBlur9300-4" stdDeviation="0.32610678" inkscape:collect="always"/>
    </filter>
    <linearGradient x1="95.5" y1="208.16444" x2="153.5" y2="223.5" id="linearGradient5905-4" xlink:href="#a" gradientUnits="userSpaceOnUse"/>
    <filter height="1.2446715" y="-0.12233575" width="1.165018" x="-0.082508981" id="filter5983-8" color-interpolation-filters="sRGB">
      <feGaussianBlur id="feGaussianBlur5985-3" stdDeviation="3.6868363" inkscape:collect="always"/>
    </filter>
    <linearGradient x1="57.225197" y1="76.246338" x2="53.63158" y2="84.480316" id="linearGradient5801-2" xlink:href="#linearGradient5793-9" gradientUnits="userSpaceOnUse" gradientTransform="matrix(0.82935833,0,0,0.82935833,7.8647066,9.8659214)"/>
    <linearGradient id="linearGradient5793-9">
      <stop id="stop5795-5" style="stop-color:#eeeeec;stop-opacity:1" offset="0"/>
      <stop id="stop5797-4" style="stop-color:#eeeeec;stop-opacity:0" offset="1"/>
    </linearGradient>
    <radialGradient cx="181.22731" cy="214.55121" r="22.466398" fx="181.22731" fy="214.55121" id="radialGradient5811-3" xlink:href="#a" gradientUnits="userSpaceOnUse" gradientTransform="matrix(1.3515234,0,0,1.7175707,-63.705646,-153.95568)"/>
    <filter id="filter5845-5" color-interpolation-filters="sRGB">
      <feGaussianBlur id="feGaussianBlur5847-5" stdDeviation="1.2409356" inkscape:collect="always"/>
    </filter>
    <linearGradient x1="73.712105" y1="180.47572" x2="82.754066" y2="187.65974" id="linearGradient5822-7" xlink:href="#a" gradientUnits="userSpaceOnUse" gradientTransform="matrix(0.46167422,0,0,0.46167422,-2.6070925,-7.889228)"/>
    <linearGradient id="linearGradient10981-3-9">
      <stop id="stop10983-2-0" style="stop-color:#729fcf;stop-opacity:1" offset="0"/>
      <stop id="stop10985-3-7" style="stop-color:#729fcf;stop-opacity:0" offset="1"/>
    </linearGradient>
    <filter id="filter10997-7-2" color-interpolation-filters="sRGB">
      <feGaussianBlur id="feGaussianBlur10999-0-7" stdDeviation="2.7696726" inkscape:collect="always"/>
    </filter>
    <linearGradient x1="180.81293" y1="217.5" x2="153.70045" y2="144.5" id="linearGradient1539" xlink:href="#linearGradient10981-3-9" gradientUnits="userSpaceOnUse" gradientTransform="translate(-130.16572,-83.352786)"/>
    <linearGradient inkscape:collect="always" xlink:href="#a" id="linearGradient409" x1="60" y1="20" x2="90" y2="50" gradientTransform="matrix(0.93685547,0,0,0.93685547,3.0144043,1.2193664)"/>
    <linearGradient inkscape:collect="always" xlink:href="#a" id="linearGradient411" gradientUnits="userSpaceOnUse" x1="231.625" y1="195.1875" x2="231.75" y2="201.5" gradientTransform="matrix(0.496204,0,0,0.496204,-8.5879118,-12.637704)"/>
    <linearGradient inkscape:collect="always" xlink:href="#a" id="linearGradient413" gradientUnits="userSpaceOnUse" x1="231.37646" y1="195.62132" x2="231.37646" y2="200.07138"/>
    <linearGradient inkscape:collect="always" xlink:href="#a" id="linearGradient415" gradientUnits="userSpaceOnUse" x1="231.625" y1="195.1875" x2="231.75" y2="201.5" gradientTransform="matrix(0.19135423,-0.09702122,0.22439262,0.4425679,8.4058159,29.593491)"/>
    <linearGradient inkscape:collect="always" xlink:href="#a" id="linearGradient417" gradientUnits="userSpaceOnUse" x1="231.37646" y1="195.62132" x2="231.37646" y2="200.07138"/>
  </defs>
  <metadata id="metadata93">
    <rdf:RDF>
      <cc:Work rdf:about="">
        <dc:format>image/svg+xml</dc:format>
        <dc:type rdf:resource="http://purl.org/dc/dcmitype/StillImage"/>
        <dc:title/>
      </cc:Work>
    </rdf:RDF>
  </metadata>
  <style type="text/css" id="style26"/>
  <g id="g486" transform="matrix(1.0163299,0,0,1.0163299,-1.7169457e-6,0.53196536)">
    <g transform="matrix(0.93685547,0,0,0.93685547,3.0144046,1.6768392)" id="g6035" style="opacity:0.783251">
      <path d="m 54.1,12.988307 -41.2,42.2 c -15.6,15.6 10.1,14.3 19.4,20.2 4.3,2.8 -13.8,6.4 -10.1,10.1 3.6,3.7 21.7,7.1 25.3,10.7 3.6,3.699996 -7.3,7.600003 -3.7,11.300003 3.5,3.7 11.9,0.2 13.4,8.6 1.1,6.2 15.4,3.1 21.8,-2.2 4,-3.4 -6.9,-3.4 -3.3,-7.1 9,-9.100003 17,-4.1 20.3,-12.500003 1.8,-4.5 -13.6,-7.7 -9.5,-10.6 9.8,-6.9 45.8,-10.4 29.2,-27 l -42.7,-43.7 c -5.3,-5.0000003 -14,-5.0000003 -18.9,0 z m 47.3,81.3 c 0,2.1 16.3,3.3 15.4,-0.5 -1.3,-6.4 -13.6,-5.9 -15.4,0.5 z M 31.9,105.38831 c 3.7,3.2 9.3,-0.7 11.1,-5.2 -3.6,-4.700003 -16.9,0.3 -11.1,5.2 z m 67.5,-6.700003 c -4.6,4.200003 0.8,8.600003 5.3,5.700003 1.2,-0.8 -0.1,-4.700007 -5.3,-5.700003 z" id="path5987" style="fill:#000000;fill-opacity:1;filter:url(#filter6017-3)"/>
      <path d="m 54.1,13.964921 -41.2,42.2 c -15.6,15.6 10.1,14.3 19.4,20.2 4.3,2.8 -13.8,6.4 -10.1,10.1 3.6,3.7 21.7,7.1 25.3,10.7 3.6,3.699999 -7.3,7.600009 -3.7,11.300009 3.5,3.7 11.9,0.2 13.4,8.6 1.1,6.2 15.4,3.1 21.8,-2.2 4,-3.4 -6.9,-3.4 -3.3,-7.1 9,-9.100009 17,-4.1 20.3,-12.500009 1.8,-4.5 -13.6,-7.7 -9.5,-10.6 9.8,-6.9 45.8,-10.4 29.2,-27 l -42.7,-43.7 c -5.3,-5.0000009 -14,-5.0000009 -18.9,0 z m 47.3,81.3 c 0,2.1 16.3,3.3 15.4,-0.5 -1.3,-6.4 -13.6,-5.9 -15.4,0.5 z M 31.9,106.36493 c 3.7,3.2 9.3,-0.7 11.1,-5.2 -3.6,-4.700009 -16.9,0.3 -11.1,5.2 z m 67.5,-6.700009 c -4.6,4.200009 0.8,8.600009 5.3,5.700009 1.2,-0.8 -0.1,-4.70001 -5.3,-5.700009 z" id="path6021" style="opacity:0.576355;fill:#000000;fill-opacity:1;filter:url(#filter6031-0)"/>
    </g>
    <path d="M 53.698285,12.93006 15.09984,52.465361 c -14.61494547,14.614945 9.46224,13.397033 18.174996,18.92448 4.028479,2.623195 -12.928606,5.995875 -9.46224,9.46224 3.372679,3.466366 20.329763,6.651674 23.702443,10.024354 3.37268,3.466365 -6.839045,7.120101 -3.466365,10.586465 3.278994,3.46637 11.14858,0.18737 12.553863,8.05696 1.030541,5.8085 14.427574,2.90425 20.423449,-2.06108 3.747422,-3.18531 -6.464302,-3.18531 -3.091623,-6.65168 8.4317,-8.525382 15.926543,-3.841105 19.018166,-11.710691 1.68634,-4.215849 -12.741234,-7.213787 -8.900127,-9.930667 9.181184,-6.464303 42.907978,-9.743297 27.356178,-25.295098 L 71.404854,12.93006 c -4.965334,-4.6842776 -13.115977,-4.6842776 -17.706569,0 z m 44.313264,76.166349 c 0,1.967397 15.270741,3.091624 14.427571,-0.468427 -1.21791,-5.995875 -12.741231,-5.527448 -14.427571,0.468427 z M 32.900094,99.495505 c 3.466365,2.997935 8.712756,-0.655799 10.399096,-4.871648 -3.37268,-4.403221 -15.832858,0.281056 -10.399096,4.871648 z m 63.237744,-6.276931 c -4.309535,3.934793 0.749484,8.056956 4.965332,5.340076 1.12423,-0.749485 -0.0937,-4.403221 -4.965332,-5.340076 z" id="use7631" style="fill:#000000;fill-opacity:1;stroke-width:0.936855"/>
    <path d="M 53.698285,12.93006 15.09984,52.465361 c -14.61494547,14.614945 9.46224,13.397033 18.174996,18.92448 4.028479,2.623195 -12.928606,5.995875 -9.46224,9.46224 3.372679,3.466366 20.329763,6.651674 23.702443,10.024354 3.37268,3.466365 -6.839045,7.120101 -3.466365,10.586465 3.278994,3.46637 11.14858,0.18737 12.553863,8.05696 1.030541,5.8085 14.427574,2.90425 20.423449,-2.06108 3.747422,-3.18531 -6.464302,-3.18531 -3.091623,-6.65168 8.4317,-8.525382 15.926543,-3.841105 19.018166,-11.710691 1.68634,-4.215849 -12.741234,-7.213787 -8.900127,-9.930667 9.181184,-6.464303 42.907978,-9.743297 27.356178,-25.295098 L 71.404854,12.93006 c -4.965334,-4.6842776 -13.115977,-4.6842776 -17.706569,0 z m 44.313264,76.166349 c 0,1.967397 15.270741,3.091624 14.427571,-0.468427 -1.21791,-5.995875 -12.741231,-5.527448 -14.427571,0.468427 z M 32.900094,99.495505 c 3.466365,2.997935 8.712756,-0.655799 10.399096,-4.871648 -3.37268,-4.403221 -15.832858,0.281056 -10.399096,4.871648 z m 63.237744,-6.276931 c -4.309535,3.934793 0.749484,8.056956 4.965332,5.340076 1.12423,-0.749485 -0.0937,-4.403221 -4.965332,-5.340076 z" id="use7639" style="fill:none;stroke-width:0.936855"/>
    <use transform="matrix(0.92799675,0,0,0.92799675,3.5813457,1.7853545)" clip-path="url(#clipPath9086-1)" id="use7641" style="opacity:0.669951;fill:url(#linearGradient9175);filter:url(#filter8490-0)" x="0" y="0" width="400" height="300" xlink:href="#outline1"/>
    <path d="m 18.533618,54.657016 c -10.4946004,10.400055 7.94186,7.46913 22.123752,13.047342 L 69.966616,16.176814 c -4.44366,-4.538206 -10.116417,-4.160022 -14.181893,0 z" id="path7643" style="opacity:0.505263;fill:url(#shinySpecular-0);stroke:none;stroke-width:0.936855"/>
    <path d="m 69.062715,15.740626 15.270744,15.551801 c 1.405283,1.405283 1.405283,4.309535 0.562113,5.152705 l -7.588529,-6.183246 -1.498969,9.087498 -6.276931,-3.37268 -10.211725,6.464303 -3.37268,-13.584404 -5.433761,11.804379 -13.584405,-0.09369 c -2.623195,0 -2.248453,-2.716881 0.468428,-5.433762 5.340076,-5.902189 15.739172,-15.926543 19.018166,-19.392908 3.37268,-3.466365 9.274869,-3.37268 12.647549,0 z" id="icecap" style="fill:url(#linearGradient409);stroke-width:0.936855"/>
    <path d="m 48.103395,89.208167 c 0,0 1.657549,2.530993 1.488612,3.72153 -0.331549,2.336466 -5.363693,3.502416 -4.248747,5.582295 1.101528,2.054848 5.071895,0.890215 8.404455,3.039248 3.318365,2.13988 2.426185,6.50101 4.837989,7.59813 4.703642,2.13965 17.057013,-3.69052 16.436758,-3.56647 -0.620255,0.12405 -12.191802,2.52838 -14.796873,0.41951 -2.970237,-2.40448 -3.821848,-4.08389 -6.012682,-5.5056 -2.053049,-1.3323 -4.937067,-1.875832 -5.608326,-2.966632 -0.67126,-1.0908 1.344316,-2.498233 1.48363,-4.600481 0.08367,-1.262551 -1.984816,-3.72153 -1.984816,-3.72153 z" id="path8566" style="opacity:0.216749;fill:url(#radialGradient9177-1);fill-opacity:1;fill-rule:evenodd;stroke:none;stroke-width:0.496204"/>
    <path d="m 113,203.5 c 0,0 3.34046,5.10071 3,7.5 -0.66817,4.70868 -10.80945,7.05842 -8.5625,11.25 2.21991,4.14114 10.22139,1.79405 16.9375,6.125 6.6875,4.3125 4.88949,13.10149 9.75,15.3125 9.47925,4.31205 34.375,-7.4375 33.125,-7.1875 -41.33959,0.15736 -33.62485,-10.4946 -49.5625,-17.5 -2.30305,-1.0123 -0.96826,-3.76334 -0.6875,-8 0.16862,-2.54442 -4,-7.5 -4,-7.5 z" transform="matrix(0.496204,0,0,0.496204,-7.9676572,-11.769347)" id="path8718" style="opacity:0.275862;fill:url(#radialGradient8574-0);fill-opacity:1;fill-rule:evenodd;stroke:none;filter:url(#filter8732-3)"/>
    <path d="M 82.961726,78.41573 C 101.37274,71.640268 107.28745,70.709394 113.35422,64.646069 106.32763,70.577523 91.472384,73.759252 79.364247,79.035985 Z" id="path8736" style="opacity:0.453202;fill:url(#radialGradient8744-9);fill-opacity:1;fill-rule:evenodd;stroke:none;stroke-width:0.496204"/>
    <path d="m 183.25,181.75 c 61.10371,-21.65459 50.77363,-21.53058 61.25,-27.75 -19.42769,7.43666 -55.73446,8.22981 -68.5,29 z" transform="matrix(0.496204,0,0,0.496204,-7.9676572,-12.637704)" id="path8746" style="opacity:0.512315;fill:url(#radialGradient8768-6);fill-opacity:1;fill-rule:evenodd;stroke:none;filter:url(#filter8764-9)"/>
    <path d="m 109.44661,86.137905 a 3.9386193,1.2094972 0 1 1 -7.87723,0 3.9386193,1.2094972 0 1 1 7.87723,0 z" id="path8864" style="display:inline;overflow:visible;visibility:visible;opacity:0.285714;fill:url(#linearGradient411);fill-opacity:1;fill-rule:nonzero;stroke:none;stroke-width:0.496204;marker:none;enable-background:accumulate"/>
    <path d="m 237.875,199.0625 a 7.9375,2.4375 0 1 1 -15.875,0 7.9375,2.4375 0 1 1 15.875,0 z" transform="matrix(0.66811717,0,0,1.068747,-48.117202,-125.21398)" id="path8874" style="display:inline;overflow:visible;visibility:visible;opacity:0.620689;fill:url(#linearGradient413);fill-opacity:1;fill-rule:nonzero;stroke:none;stroke-width:1;marker:none;filter:url(#filter8906-3);enable-background:accumulate"/>
    <path d="m 214.125,203.75 c 3.76948,3.48424 24.75576,5.27219 28.1875,-1 -6.73663,4.7839 -21.71677,3.10264 -28.1875,1 z" transform="matrix(0.496204,0,0,0.496204,-7.9676572,-12.120216)" id="path8914" style="fill:url(#radialGradient8922-9);fill-opacity:1;fill-rule:evenodd;stroke:none;filter:url(#filter8980-1)"/>
    <path d="m 98.318903,94.75189 a 1.5293415,1.396354 63.113892 1 1 -2.490835,1.262914 1.5293415,1.396354 63.113892 1 1 2.490835,-1.262914 z" id="path8984" style="display:inline;overflow:visible;visibility:visible;opacity:0.285714;fill:url(#linearGradient415);fill-opacity:1;fill-rule:nonzero;stroke:none;stroke-width:0.326279;marker:none;enable-background:accumulate"/>
    <path d="m 236.99305,199.0625 a 7.0555515,2.1400476 0 1 1 -14.1111,0 7.0555515,2.1400476 0 1 1 14.1111,0 z" transform="matrix(0.25765015,-0.13063485,0.48330725,0.95322308,-58.212376,-63.705313)" id="path8986" style="display:inline;overflow:visible;visibility:visible;opacity:0.620689;fill:url(#linearGradient417);fill-opacity:1;fill-rule:nonzero;stroke:none;stroke-width:1;marker:none;filter:url(#filter8906-3);enable-background:accumulate"/>
    <path d="m 217.05754,201.94027 c 3.76948,3.48424 26.97122,8.91123 25.25496,0.80973 -3.31737,5.32326 -18.78423,1.29291 -25.25496,-0.80973 z" transform="matrix(0.19135423,-0.09702122,0.22439262,0.4425679,8.8790266,29.933765)" id="path8988" style="fill:url(#radialGradient8994-0);fill-opacity:1;fill-rule:evenodd;stroke:none;filter:url(#filter8980-1)"/>
    <path d="m 25.898266,80.524597 c 0,-0.307929 19.27565,5.874331 22.577282,9.179774 C 45.760707,87.055366 32.021568,80.963197 29.929923,80.89675 27.838279,80.8303 26.146368,80.648648 25.898266,80.524597 Z" id="path8996" style="fill:url(#radialGradient9004-6);fill-opacity:1;fill-rule:evenodd;stroke:none;stroke-width:0.496204"/>
    <g transform="matrix(0.82350982,-0.18080926,0.21906876,0.65198536,-15.919007,35.625905)" id="g9018">
      <path d="m 237.875,199.0625 a 7.9375,2.4375 0 1 1 -15.875,0 7.9375,2.4375 0 1 1 15.875,0 z" transform="matrix(0.5296484,0,0,0.5296484,-84.4165,-4.7277245)" id="path9006" style="display:inline;overflow:visible;visibility:visible;opacity:0.285714;fill:url(#linearGradient8912-9);fill-opacity:1;fill-rule:nonzero;stroke:none;stroke-width:1;marker:none;enable-background:accumulate"/>
      <path d="m 237.875,199.0625 a 7.9375,2.4375 0 1 1 -15.875,0 7.9375,2.4375 0 1 1 15.875,0 z" transform="matrix(0.7131486,0,0,1.1407811,-126.61008,-124.8917)" id="path9008" style="display:inline;overflow:visible;visibility:visible;opacity:0.620689;fill:url(#linearGradient8910-3);fill-opacity:1;fill-rule:nonzero;stroke:none;stroke-width:1;marker:none;filter:url(#filter8906-3);enable-background:accumulate"/>
    </g>
    <path d="m 80.5,220.0625 c 0,0 2.10339,5.65078 7.875,5.9375 5.83887,0.29006 12.50324,-7.00698 13.0625,-9.625 -1,2.25 -6.590334,9.03328 -13.8125,8.9375 -4.099862,-0.0544 -7.125,-5.25 -7.125,-5.25 z" transform="matrix(0.496204,0,0,0.496204,-7.874619,-12.296563)" id="path9038" style="opacity:0.615764;fill:url(#radialGradient9046-1);fill-opacity:1;fill-rule:evenodd;stroke:none;filter:url(#filter9068-2)"/>
    <path d="m 63.40625,10.21875 c -3.098181,0 -6.134601,1.122042 -8.28125,3.3125 l -41.1875,42.1875 c -3.76562,3.76562 -4.6702413,6.23069 -4.4375,7.625 0.1163706,0.697155 0.4585994,1.303027 1.1875,1.9375 0.728901,0.634473 1.831495,1.256389 3.15625,1.8125 2.649511,1.112222 6.217961,2.008085 9.71875,2.96875 3.500789,0.960665 6.929812,1.974626 9.53125,3.625 0.396623,0.258266 0.769088,0.576468 1.03125,1.03125 0.262162,0.454782 0.354216,1.056088 0.25,1.5625 -0.208431,1.012824 -0.83202,1.546985 -1.46875,2.03125 -1.27346,0.96853 -3.023257,1.773229 -4.78125,2.625 -1.757993,0.851771 -3.524925,1.723242 -4.40625,2.4375 -0.440663,0.357129 -0.600112,0.678133 -0.59375,0.65625 0.0064,-0.02188 -0.116851,-0.273101 0.09375,-0.0625 0.551764,0.56709 2.274075,1.538165 4.46875,2.40625 2.194675,0.868085 4.88065,1.745624 7.59375,2.625 2.7131,0.879376 5.4575,1.749959 7.78125,2.65625 2.32375,0.906291 4.217694,1.748944 5.46875,3 0.622681,0.639978 1.062632,1.435956 1.15625,2.25 0.09362,0.814044 -0.126809,1.578032 -0.4375,2.21875 -0.621382,1.28144 -1.620313,2.26719 -2.53125,3.21875 -0.910938,0.95156 -1.736226,1.86034 -2.03125,2.46875 -0.147512,0.3042 -0.170347,0.50242 -0.15625,0.625 0.0141,0.12258 0.03518,0.24623 0.3125,0.53125 A 1.4566768,1.4566768 0 0 1 44.875,106 c 1.193594,1.2618 3.787002,1.43924 6.71875,2.125 1.465874,0.34288 2.998909,0.86196 4.3125,2 1.313591,1.13804 2.299435,2.87059 2.71875,5.21875 0.176459,0.99459 0.702722,1.4788 1.96875,1.875 1.266028,0.3962 3.194353,0.46554 5.3125,0.15625 4.236295,-0.61859 9.260035,-2.69532 12.15625,-5.09375 0.17999,-0.15299 0.129956,-0.11255 0.1875,-0.1875 -0.194805,-0.13939 -0.651644,-0.43652 -1.40625,-0.8125 -0.891527,-0.4442 -1.944708,-0.85956 -2.75,-1.875 -0.402646,-0.50772 -0.679877,-1.30934 -0.5625,-2.09375 0.117377,-0.78441 0.546832,-1.43702 1.125,-2.03125 4.745751,-4.79848 9.421937,-5.944136 12.9375,-6.875 1.757782,-0.465432 3.229292,-0.891233 4.34375,-1.59375 1.114458,-0.702517 1.98508,-1.663728 2.71875,-3.53125 0.08087,-0.202174 0.07855,-0.260846 -0.03125,-0.5 C 94.515197,92.542096 94.220541,92.159521 93.75,91.75 92.808918,90.930959 91.239577,90.050804 89.6875,89.1875 88.135423,88.324196 86.627034,87.519262 85.53125,86.5 84.983358,85.990369 84.409233,85.348367 84.34375,84.375 84.27827,83.401633 84.916318,82.523367 85.65625,82 88.401968,80.06679 92.552528,78.595094 97.0625,77.03125 101.57247,75.467406 106.42363,73.849125 110.375,72 c 3.95137,-1.849125 6.85729,-3.978669 7.78125,-6.125 0.46198,-1.073165 0.54663,-2.158606 0.0625,-3.5625 -0.48413,-1.403894 -1.58958,-3.120831 -3.5625,-5.09375 L 72,13.5625 c -0.01071,-0.0101 -0.02051,-0.02119 -0.03125,-0.03125 -2.357722,-2.207738 -5.478371,-3.3125 -8.5625,-3.3125 z m 45.9375,80 c -2.63522,0.09513 -5.05952,1.301393 -6.09375,3.1875 0.29381,0.110524 0.55838,0.234969 1.03125,0.34375 1.37562,0.316455 3.29543,0.520736 5.1875,0.5625 1.89207,0.04176 3.78415,-0.117472 4.9375,-0.4375 0.50487,-0.14009 0.77236,-0.281778 0.90625,-0.375 -0.2558,-1.091098 -0.86487,-1.862126 -1.90625,-2.4375 -1.07862,-0.595951 -2.55669,-0.898111 -4.0625,-0.84375 z m -70.5,9.0625 c -2.089872,-0.145348 -4.716548,0.686551 -6,1.71875 -0.641726,0.5161 -0.913269,0.99441 -0.9375,1.3125 -0.02423,0.31809 0.07726,0.74199 0.9375,1.46875 a 1.4566768,1.4566768 0 0 1 0,0.0312 c 1.352809,1.17 2.882256,1.04802 4.625,0.0937 1.460951,-0.79997 2.757201,-2.30075 3.625,-3.875 -0.585032,-0.377341 -1.284532,-0.682853 -2.25,-0.75 z m 61,0.625 c -0.447303,0.5686 -0.690902,1.09797 -0.71875,1.46875 -0.03844,0.51176 0.106611,0.90723 0.5,1.28125 0.73729,0.70099 2.33912,1.00278 3.96875,0.125 -0.0322,-0.1891 -0.0933,-0.47591 -0.34375,-0.84375 -0.4999,-0.73414 -1.6686,-1.5251 -3.40625,-2.03125 z" id="87235" style="fill:none;stroke:url(#radialGradient11553-3);stroke-width:0.488307;stroke-miterlimit:4;stroke-dasharray:none;stroke-opacity:1;filter:url(#filter9298-4)" transform="matrix(0.93685547,0,0,0.93685547,3.0144043,1.2193664)"/>
    <path d="m 95.5,172 c -5.090606,1.50191 -21.592018,7.73713 -19.25,12.5 2.243595,4.56272 40.61138,6.40132 46.5,20 2.5679,5.93009 -5.89238,10.40326 -3.75,16.5 1.64973,4.69477 14.41196,16.49084 22.48603,22.06781 6.33298,4.37435 14.65096,-3.52244 11.26397,-10.06781 -5.39589,-10.42759 18.44266,-23.19912 29.25,-29 6.30524,-3.38436 -13,-20 -13,-20 0,0 -73.5,-12 -73.5,-12 z" transform="matrix(0.4574728,0,0,0.4574728,-2.4291018,-5.9984043)" id="path5897" style="opacity:0.325123;fill:url(#linearGradient5905-4);fill-opacity:1;fill-rule:evenodd;stroke:none;filter:url(#filter5983-8)"/>
    <path d="m 42.120782,74.793472 c 2.090998,1.535718 6.217682,0.60946 8.696008,1.725462 5.948581,2.678674 13.261134,5.663691 11.91546,0.379009 0,0 -1.513743,1.2573 -1.513743,1.2573 0,0 -0.02954,-2.39605 -0.02954,-2.39605 0,0 -3.51506,0.858435 -3.51506,0.858435 0,0 -2.722664,-2.185458 -3.970886,-2.906121 -0.260717,-0.150524 -1.599863,1.21118 -1.599863,1.21118 0,0 -0.240744,-1.446321 -0.240744,-1.446321 -1.740089,-0.185158 -3.462767,-0.266821 -4.979527,-0.254657 -3.635882,0.02916 -6.088679,0.597471 -4.762105,1.571763 z" id="path5783" style="fill:url(#linearGradient5801-2);fill-opacity:1;fill-rule:evenodd;stroke:none;stroke-width:0.936855"/>
    <path d="m 182.75,187.25 c -1.75981,6.4783 21.62776,15.27989 19.875,19.75 -3.85895,9.84158 -24.97596,3.13755 -41.125,23.75 -2.31318,2.95251 3.25,13.5 2.5,12.25 -0.75,-1.25 -6.4649,-9.96285 -5,-14.25 4.59417,-13.44525 49.0128,-18.45749 40.875,-24.875 -4.67988,-3.69058 -21.50546,-13.88721 -17.125,-16.625 z" transform="matrix(0.4574728,0,0,0.4574728,-2.4291018,-5.9984043)" id="path5803" style="opacity:0.477833;fill:url(#radialGradient5811-3);fill-opacity:1;fill-rule:evenodd;stroke:none;filter:url(#filter5845-5)"/>
    <path d="m 105.24856,85.753484 a 1.172275,0.48606526 0 1 1 -2.34455,0 1.172275,0.48606526 0 1 1 2.34455,0 z" id="path6041" style="display:inline;overflow:visible;visibility:visible;opacity:0.586207;fill:#ffffff;fill-opacity:1;fill-rule:nonzero;stroke:none;stroke-width:0.457473;marker:none;enable-background:accumulate"/>
    <path d="m 97.414339,94.731389 a 0.7433935,0.48606499 0 1 1 -1.486787,0 0.7433935,0.48606499 0 1 1 1.486787,0 z" id="path6043" style="display:inline;overflow:visible;visibility:visible;opacity:0.586207;fill:#ffffff;fill-opacity:1;fill-rule:nonzero;stroke:none;stroke-width:0.364301;marker:none;enable-background:accumulate"/>
    <path d="m 38.114427,94.302514 a 1.3152343,0.48606485 0 1 1 -2.630468,0 1.3152343,0.48606485 0 1 1 2.630468,0 z" id="path6045" style="display:inline;overflow:visible;visibility:visible;opacity:0.586207;fill:#ffffff;fill-opacity:1;fill-rule:nonzero;stroke:none;stroke-width:0.484565;marker:none;enable-background:accumulate"/>
    <path d="m 37.371032,72.915655 c -6.701316,4.144748 -17.120126,5.6532 -5.71841,8.406062 -1.358171,-3.024263 2.940397,-2.690669 5.71841,-8.406062 z" id="path5049" style="display:inline;overflow:visible;visibility:visible;opacity:0.251232;fill:url(#linearGradient5822-7);fill-opacity:1;fill-rule:nonzero;stroke:none;stroke-width:1.91858;marker:none;enable-background:accumulate"/>
    <path d="m 8.8342799,171.64721 c 0,0 22.5917801,-2.12795 27.8180201,-8.64645 3.05755,-3.81358 -12.15146,-8.2638 -8.86827,-12 12.35008,-14.0541 22.73076,-13.46729 37.05025,-19.35355 14.31949,-5.88626 9.03544,-8.76906 4.40381,-11.35355 -7.9325,-4.4264 -25.58722,-9.14237 -19.74696,-19.64645 5.87688,-10.569936 57.34315,-25.249996 57.34315,-25.249996 15.59619,-5.32843 13.63909,-14.96447 6,-23 l -46,-45.7499997 c 0,0 2.28296,43.3886497 -7,61.9999997 -11.4715,22.99914 -72.54408,48.661766 -47,51.499996 9,1 13.32065,4.0705 17,11 7.57631,14.26883 -21.0000001,40.5 -21.0000001,40.5 z" transform="matrix(0.45747284,0,0,0.45747284,57.11818,32.133233)" id="path10207" style="color:#000000;display:inline;overflow:visible;visibility:visible;opacity:0.363158;fill:url(#linearGradient1539);fill-opacity:1;fill-rule:nonzero;stroke:none;stroke-width:2;marker:none;filter:url(#filter10997-7-2);enable-background:accumulate"/>
  </g>
</svg>