%TF.GenerationSoftware,KiCad,Pcbnew,(5.1.12)-1*%
%TF.CreationDate,2022-01-16T14:32:37+01:00*%
%TF.ProjectId,pcb-luces-led-navidad,7063622d-6c75-4636-9573-2d6c65642d6e,R2*%
%TF.SameCoordinates,PX3072580PY3072580*%
%TF.FileFunction,Legend,Top*%
%TF.FilePolarity,Positive*%
%FSLAX46Y46*%
G04 Gerber Fmt 4.6, Leading zero omitted, Abs format (unit mm)*
G04 Created by KiCad (PCBNEW (5.1.12)-1) date 2022-01-16 14:32:37*
%MOMM*%
%LPD*%
G01*
G04 APERTURE LIST*
%ADD10C,0.250000*%
%ADD11C,0.300000*%
%ADD12C,0.120000*%
%ADD13C,0.127000*%
G04 APERTURE END LIST*
D10*
X7620000Y-31750000D02*
X6350000Y-31750000D01*
X6985000Y-31115000D02*
X6985000Y-32385000D01*
X1905000Y-31750000D02*
X635000Y-31750000D01*
X1270000Y-31115000D02*
X1270000Y-32385000D01*
D11*
X4127619Y-10338571D02*
X6032380Y-10338571D01*
X5080000Y-11290952D02*
X5080000Y-9386190D01*
X4127619Y-12878571D02*
X6032380Y-12878571D01*
D12*
X59690000Y-39370000D02*
X59690000Y0D01*
X0Y-39370000D02*
X59690000Y-39370000D01*
X0Y-39370000D02*
X0Y0D01*
X59690000Y0D02*
X0Y0D01*
D13*
%TO.C,M3*%
X4699000Y-36195000D02*
G75*
G03*
X4699000Y-36195000I-1524000J0D01*
G01*
X5746554Y-36195000D02*
G75*
G03*
X5746554Y-36195000I-2571554J0D01*
G01*
X4699000Y-33528000D02*
X1651000Y-33528000D01*
X1651000Y-33528000D02*
X127000Y-36195000D01*
X127000Y-36195000D02*
X1651000Y-38862000D01*
X1651000Y-38862000D02*
X4699000Y-38862000D01*
X4699000Y-38862000D02*
X6223000Y-36195000D01*
X6223000Y-36195000D02*
X4699000Y-33528000D01*
X6223000Y-36195000D02*
G75*
G03*
X6223000Y-36195000I-3048000J0D01*
G01*
X4699000Y-3175000D02*
G75*
G03*
X4699000Y-3175000I-1524000J0D01*
G01*
X5746554Y-3175000D02*
G75*
G03*
X5746554Y-3175000I-2571554J0D01*
G01*
X4699000Y-508000D02*
X1651000Y-508000D01*
X1651000Y-508000D02*
X127000Y-3175000D01*
X127000Y-3175000D02*
X1651000Y-5842000D01*
X1651000Y-5842000D02*
X4699000Y-5842000D01*
X4699000Y-5842000D02*
X6223000Y-3175000D01*
X6223000Y-3175000D02*
X4699000Y-508000D01*
X6223000Y-3175000D02*
G75*
G03*
X6223000Y-3175000I-3048000J0D01*
G01*
X58039000Y-36195000D02*
G75*
G03*
X58039000Y-36195000I-1524000J0D01*
G01*
X59086554Y-36195000D02*
G75*
G03*
X59086554Y-36195000I-2571554J0D01*
G01*
X58039000Y-33528000D02*
X54991000Y-33528000D01*
X54991000Y-33528000D02*
X53467000Y-36195000D01*
X53467000Y-36195000D02*
X54991000Y-38862000D01*
X54991000Y-38862000D02*
X58039000Y-38862000D01*
X58039000Y-38862000D02*
X59563000Y-36195000D01*
X59563000Y-36195000D02*
X58039000Y-33528000D01*
X59563000Y-36195000D02*
G75*
G03*
X59563000Y-36195000I-3048000J0D01*
G01*
X58039000Y-3175000D02*
G75*
G03*
X58039000Y-3175000I-1524000J0D01*
G01*
X59086554Y-3175000D02*
G75*
G03*
X59086554Y-3175000I-2571554J0D01*
G01*
X58039000Y-508000D02*
X54991000Y-508000D01*
X54991000Y-508000D02*
X53467000Y-3175000D01*
X53467000Y-3175000D02*
X54991000Y-5842000D01*
X54991000Y-5842000D02*
X58039000Y-5842000D01*
X58039000Y-5842000D02*
X59563000Y-3175000D01*
X59563000Y-3175000D02*
X58039000Y-508000D01*
X59563000Y-3175000D02*
G75*
G03*
X59563000Y-3175000I-3048000J0D01*
G01*
D10*
%TO.C,C3*%
X7620000Y-9525000D02*
X6350000Y-9525000D01*
X6985000Y-8890000D02*
X6985000Y-10160000D01*
D12*
X12510000Y-12065000D02*
G75*
G03*
X12510000Y-12065000I-2620000J0D01*
G01*
X9890000Y-13105000D02*
X9890000Y-14645000D01*
X9890000Y-9485000D02*
X9890000Y-11025000D01*
X9930000Y-13105000D02*
X9930000Y-14645000D01*
X9930000Y-9485000D02*
X9930000Y-11025000D01*
X9970000Y-9486000D02*
X9970000Y-11025000D01*
X9970000Y-13105000D02*
X9970000Y-14644000D01*
X10010000Y-9487000D02*
X10010000Y-11025000D01*
X10010000Y-13105000D02*
X10010000Y-14643000D01*
X10050000Y-9489000D02*
X10050000Y-11025000D01*
X10050000Y-13105000D02*
X10050000Y-14641000D01*
X10090000Y-9492000D02*
X10090000Y-11025000D01*
X10090000Y-13105000D02*
X10090000Y-14638000D01*
X10130000Y-9496000D02*
X10130000Y-11025000D01*
X10130000Y-13105000D02*
X10130000Y-14634000D01*
X10170000Y-9500000D02*
X10170000Y-11025000D01*
X10170000Y-13105000D02*
X10170000Y-14630000D01*
X10210000Y-9504000D02*
X10210000Y-11025000D01*
X10210000Y-13105000D02*
X10210000Y-14626000D01*
X10250000Y-9509000D02*
X10250000Y-11025000D01*
X10250000Y-13105000D02*
X10250000Y-14621000D01*
X10290000Y-9515000D02*
X10290000Y-11025000D01*
X10290000Y-13105000D02*
X10290000Y-14615000D01*
X10330000Y-9522000D02*
X10330000Y-11025000D01*
X10330000Y-13105000D02*
X10330000Y-14608000D01*
X10370000Y-9529000D02*
X10370000Y-11025000D01*
X10370000Y-13105000D02*
X10370000Y-14601000D01*
X10410000Y-9537000D02*
X10410000Y-11025000D01*
X10410000Y-13105000D02*
X10410000Y-14593000D01*
X10450000Y-9545000D02*
X10450000Y-11025000D01*
X10450000Y-13105000D02*
X10450000Y-14585000D01*
X10490000Y-9554000D02*
X10490000Y-11025000D01*
X10490000Y-13105000D02*
X10490000Y-14576000D01*
X10530000Y-9564000D02*
X10530000Y-11025000D01*
X10530000Y-13105000D02*
X10530000Y-14566000D01*
X10570000Y-9574000D02*
X10570000Y-11025000D01*
X10570000Y-13105000D02*
X10570000Y-14556000D01*
X10611000Y-9585000D02*
X10611000Y-11025000D01*
X10611000Y-13105000D02*
X10611000Y-14545000D01*
X10651000Y-9597000D02*
X10651000Y-11025000D01*
X10651000Y-13105000D02*
X10651000Y-14533000D01*
X10691000Y-9610000D02*
X10691000Y-11025000D01*
X10691000Y-13105000D02*
X10691000Y-14520000D01*
X10731000Y-9623000D02*
X10731000Y-11025000D01*
X10731000Y-13105000D02*
X10731000Y-14507000D01*
X10771000Y-9637000D02*
X10771000Y-11025000D01*
X10771000Y-13105000D02*
X10771000Y-14493000D01*
X10811000Y-9651000D02*
X10811000Y-11025000D01*
X10811000Y-13105000D02*
X10811000Y-14479000D01*
X10851000Y-9667000D02*
X10851000Y-11025000D01*
X10851000Y-13105000D02*
X10851000Y-14463000D01*
X10891000Y-9683000D02*
X10891000Y-11025000D01*
X10891000Y-13105000D02*
X10891000Y-14447000D01*
X10931000Y-9700000D02*
X10931000Y-11025000D01*
X10931000Y-13105000D02*
X10931000Y-14430000D01*
X10971000Y-9717000D02*
X10971000Y-11025000D01*
X10971000Y-13105000D02*
X10971000Y-14413000D01*
X11011000Y-9736000D02*
X11011000Y-11025000D01*
X11011000Y-13105000D02*
X11011000Y-14394000D01*
X11051000Y-9755000D02*
X11051000Y-11025000D01*
X11051000Y-13105000D02*
X11051000Y-14375000D01*
X11091000Y-9775000D02*
X11091000Y-11025000D01*
X11091000Y-13105000D02*
X11091000Y-14355000D01*
X11131000Y-9797000D02*
X11131000Y-11025000D01*
X11131000Y-13105000D02*
X11131000Y-14333000D01*
X11171000Y-9818000D02*
X11171000Y-11025000D01*
X11171000Y-13105000D02*
X11171000Y-14312000D01*
X11211000Y-9841000D02*
X11211000Y-11025000D01*
X11211000Y-13105000D02*
X11211000Y-14289000D01*
X11251000Y-9865000D02*
X11251000Y-11025000D01*
X11251000Y-13105000D02*
X11251000Y-14265000D01*
X11291000Y-9890000D02*
X11291000Y-11025000D01*
X11291000Y-13105000D02*
X11291000Y-14240000D01*
X11331000Y-9916000D02*
X11331000Y-11025000D01*
X11331000Y-13105000D02*
X11331000Y-14214000D01*
X11371000Y-9943000D02*
X11371000Y-11025000D01*
X11371000Y-13105000D02*
X11371000Y-14187000D01*
X11411000Y-9970000D02*
X11411000Y-11025000D01*
X11411000Y-13105000D02*
X11411000Y-14160000D01*
X11451000Y-10000000D02*
X11451000Y-11025000D01*
X11451000Y-13105000D02*
X11451000Y-14130000D01*
X11491000Y-10030000D02*
X11491000Y-11025000D01*
X11491000Y-13105000D02*
X11491000Y-14100000D01*
X11531000Y-10061000D02*
X11531000Y-11025000D01*
X11531000Y-13105000D02*
X11531000Y-14069000D01*
X11571000Y-10094000D02*
X11571000Y-11025000D01*
X11571000Y-13105000D02*
X11571000Y-14036000D01*
X11611000Y-10128000D02*
X11611000Y-11025000D01*
X11611000Y-13105000D02*
X11611000Y-14002000D01*
X11651000Y-10164000D02*
X11651000Y-11025000D01*
X11651000Y-13105000D02*
X11651000Y-13966000D01*
X11691000Y-10201000D02*
X11691000Y-11025000D01*
X11691000Y-13105000D02*
X11691000Y-13929000D01*
X11731000Y-10239000D02*
X11731000Y-11025000D01*
X11731000Y-13105000D02*
X11731000Y-13891000D01*
X11771000Y-10280000D02*
X11771000Y-11025000D01*
X11771000Y-13105000D02*
X11771000Y-13850000D01*
X11811000Y-10322000D02*
X11811000Y-11025000D01*
X11811000Y-13105000D02*
X11811000Y-13808000D01*
X11851000Y-10366000D02*
X11851000Y-11025000D01*
X11851000Y-13105000D02*
X11851000Y-13764000D01*
X11891000Y-10412000D02*
X11891000Y-11025000D01*
X11891000Y-13105000D02*
X11891000Y-13718000D01*
X11931000Y-10460000D02*
X11931000Y-13670000D01*
X11971000Y-10511000D02*
X11971000Y-13619000D01*
X12011000Y-10565000D02*
X12011000Y-13565000D01*
X12051000Y-10622000D02*
X12051000Y-13508000D01*
X12091000Y-10682000D02*
X12091000Y-13448000D01*
X12131000Y-10746000D02*
X12131000Y-13384000D01*
X12171000Y-10814000D02*
X12171000Y-13316000D01*
X12211000Y-10887000D02*
X12211000Y-13243000D01*
X12251000Y-10967000D02*
X12251000Y-13163000D01*
X12291000Y-11054000D02*
X12291000Y-13076000D01*
X12331000Y-11150000D02*
X12331000Y-12980000D01*
X12371000Y-11260000D02*
X12371000Y-12870000D01*
X12411000Y-11388000D02*
X12411000Y-12742000D01*
X12451000Y-11547000D02*
X12451000Y-12583000D01*
X12491000Y-11781000D02*
X12491000Y-12349000D01*
%TO.C,R3*%
X4460000Y-18425000D02*
X3980000Y-18425000D01*
X4460000Y-28565000D02*
X4460000Y-18425000D01*
X3980000Y-28565000D02*
X4460000Y-28565000D01*
X620000Y-18425000D02*
X1100000Y-18425000D01*
X620000Y-28565000D02*
X620000Y-18425000D01*
X1100000Y-28565000D02*
X620000Y-28565000D01*
%TO.C,R9*%
X12080000Y-18425000D02*
X11600000Y-18425000D01*
X12080000Y-28565000D02*
X12080000Y-18425000D01*
X11600000Y-28565000D02*
X12080000Y-28565000D01*
X8240000Y-18425000D02*
X8720000Y-18425000D01*
X8240000Y-28565000D02*
X8240000Y-18425000D01*
X8720000Y-28565000D02*
X8240000Y-28565000D01*
%TO.C,U1*%
X24300000Y-12580000D02*
X13800000Y-12580000D01*
X24300000Y-30600000D02*
X24300000Y-12580000D01*
X13800000Y-30600000D02*
X24300000Y-30600000D01*
X13800000Y-12580000D02*
X13800000Y-30600000D01*
X21300000Y-12640000D02*
X20050000Y-12640000D01*
X21300000Y-30540000D02*
X21300000Y-12640000D01*
X16800000Y-30540000D02*
X21300000Y-30540000D01*
X16800000Y-12640000D02*
X16800000Y-30540000D01*
X18050000Y-12640000D02*
X16800000Y-12640000D01*
X20050000Y-12640000D02*
G75*
G02*
X18050000Y-12640000I-1000000J0D01*
G01*
%TO.C,C1*%
X7335225Y-32565000D02*
X7335225Y-33065000D01*
X7085225Y-32815000D02*
X7585225Y-32815000D01*
X12491000Y-34006000D02*
X12491000Y-34574000D01*
X12451000Y-33772000D02*
X12451000Y-34808000D01*
X12411000Y-33613000D02*
X12411000Y-34967000D01*
X12371000Y-33485000D02*
X12371000Y-35095000D01*
X12331000Y-33375000D02*
X12331000Y-35205000D01*
X12291000Y-33279000D02*
X12291000Y-35301000D01*
X12251000Y-33192000D02*
X12251000Y-35388000D01*
X12211000Y-33112000D02*
X12211000Y-35468000D01*
X12171000Y-33039000D02*
X12171000Y-35541000D01*
X12131000Y-32971000D02*
X12131000Y-35609000D01*
X12091000Y-32907000D02*
X12091000Y-35673000D01*
X12051000Y-32847000D02*
X12051000Y-35733000D01*
X12011000Y-32790000D02*
X12011000Y-35790000D01*
X11971000Y-32736000D02*
X11971000Y-35844000D01*
X11931000Y-32685000D02*
X11931000Y-35895000D01*
X11891000Y-35330000D02*
X11891000Y-35943000D01*
X11891000Y-32637000D02*
X11891000Y-33250000D01*
X11851000Y-35330000D02*
X11851000Y-35989000D01*
X11851000Y-32591000D02*
X11851000Y-33250000D01*
X11811000Y-35330000D02*
X11811000Y-36033000D01*
X11811000Y-32547000D02*
X11811000Y-33250000D01*
X11771000Y-35330000D02*
X11771000Y-36075000D01*
X11771000Y-32505000D02*
X11771000Y-33250000D01*
X11731000Y-35330000D02*
X11731000Y-36116000D01*
X11731000Y-32464000D02*
X11731000Y-33250000D01*
X11691000Y-35330000D02*
X11691000Y-36154000D01*
X11691000Y-32426000D02*
X11691000Y-33250000D01*
X11651000Y-35330000D02*
X11651000Y-36191000D01*
X11651000Y-32389000D02*
X11651000Y-33250000D01*
X11611000Y-35330000D02*
X11611000Y-36227000D01*
X11611000Y-32353000D02*
X11611000Y-33250000D01*
X11571000Y-35330000D02*
X11571000Y-36261000D01*
X11571000Y-32319000D02*
X11571000Y-33250000D01*
X11531000Y-35330000D02*
X11531000Y-36294000D01*
X11531000Y-32286000D02*
X11531000Y-33250000D01*
X11491000Y-35330000D02*
X11491000Y-36325000D01*
X11491000Y-32255000D02*
X11491000Y-33250000D01*
X11451000Y-35330000D02*
X11451000Y-36355000D01*
X11451000Y-32225000D02*
X11451000Y-33250000D01*
X11411000Y-35330000D02*
X11411000Y-36385000D01*
X11411000Y-32195000D02*
X11411000Y-33250000D01*
X11371000Y-35330000D02*
X11371000Y-36412000D01*
X11371000Y-32168000D02*
X11371000Y-33250000D01*
X11331000Y-35330000D02*
X11331000Y-36439000D01*
X11331000Y-32141000D02*
X11331000Y-33250000D01*
X11291000Y-35330000D02*
X11291000Y-36465000D01*
X11291000Y-32115000D02*
X11291000Y-33250000D01*
X11251000Y-35330000D02*
X11251000Y-36490000D01*
X11251000Y-32090000D02*
X11251000Y-33250000D01*
X11211000Y-35330000D02*
X11211000Y-36514000D01*
X11211000Y-32066000D02*
X11211000Y-33250000D01*
X11171000Y-35330000D02*
X11171000Y-36537000D01*
X11171000Y-32043000D02*
X11171000Y-33250000D01*
X11131000Y-35330000D02*
X11131000Y-36558000D01*
X11131000Y-32022000D02*
X11131000Y-33250000D01*
X11091000Y-35330000D02*
X11091000Y-36580000D01*
X11091000Y-32000000D02*
X11091000Y-33250000D01*
X11051000Y-35330000D02*
X11051000Y-36600000D01*
X11051000Y-31980000D02*
X11051000Y-33250000D01*
X11011000Y-35330000D02*
X11011000Y-36619000D01*
X11011000Y-31961000D02*
X11011000Y-33250000D01*
X10971000Y-35330000D02*
X10971000Y-36638000D01*
X10971000Y-31942000D02*
X10971000Y-33250000D01*
X10931000Y-35330000D02*
X10931000Y-36655000D01*
X10931000Y-31925000D02*
X10931000Y-33250000D01*
X10891000Y-35330000D02*
X10891000Y-36672000D01*
X10891000Y-31908000D02*
X10891000Y-33250000D01*
X10851000Y-35330000D02*
X10851000Y-36688000D01*
X10851000Y-31892000D02*
X10851000Y-33250000D01*
X10811000Y-35330000D02*
X10811000Y-36704000D01*
X10811000Y-31876000D02*
X10811000Y-33250000D01*
X10771000Y-35330000D02*
X10771000Y-36718000D01*
X10771000Y-31862000D02*
X10771000Y-33250000D01*
X10731000Y-35330000D02*
X10731000Y-36732000D01*
X10731000Y-31848000D02*
X10731000Y-33250000D01*
X10691000Y-35330000D02*
X10691000Y-36745000D01*
X10691000Y-31835000D02*
X10691000Y-33250000D01*
X10651000Y-35330000D02*
X10651000Y-36758000D01*
X10651000Y-31822000D02*
X10651000Y-33250000D01*
X10611000Y-35330000D02*
X10611000Y-36770000D01*
X10611000Y-31810000D02*
X10611000Y-33250000D01*
X10570000Y-35330000D02*
X10570000Y-36781000D01*
X10570000Y-31799000D02*
X10570000Y-33250000D01*
X10530000Y-35330000D02*
X10530000Y-36791000D01*
X10530000Y-31789000D02*
X10530000Y-33250000D01*
X10490000Y-35330000D02*
X10490000Y-36801000D01*
X10490000Y-31779000D02*
X10490000Y-33250000D01*
X10450000Y-35330000D02*
X10450000Y-36810000D01*
X10450000Y-31770000D02*
X10450000Y-33250000D01*
X10410000Y-35330000D02*
X10410000Y-36818000D01*
X10410000Y-31762000D02*
X10410000Y-33250000D01*
X10370000Y-35330000D02*
X10370000Y-36826000D01*
X10370000Y-31754000D02*
X10370000Y-33250000D01*
X10330000Y-35330000D02*
X10330000Y-36833000D01*
X10330000Y-31747000D02*
X10330000Y-33250000D01*
X10290000Y-35330000D02*
X10290000Y-36840000D01*
X10290000Y-31740000D02*
X10290000Y-33250000D01*
X10250000Y-35330000D02*
X10250000Y-36846000D01*
X10250000Y-31734000D02*
X10250000Y-33250000D01*
X10210000Y-35330000D02*
X10210000Y-36851000D01*
X10210000Y-31729000D02*
X10210000Y-33250000D01*
X10170000Y-35330000D02*
X10170000Y-36855000D01*
X10170000Y-31725000D02*
X10170000Y-33250000D01*
X10130000Y-35330000D02*
X10130000Y-36859000D01*
X10130000Y-31721000D02*
X10130000Y-33250000D01*
X10090000Y-35330000D02*
X10090000Y-36863000D01*
X10090000Y-31717000D02*
X10090000Y-33250000D01*
X10050000Y-35330000D02*
X10050000Y-36866000D01*
X10050000Y-31714000D02*
X10050000Y-33250000D01*
X10010000Y-35330000D02*
X10010000Y-36868000D01*
X10010000Y-31712000D02*
X10010000Y-33250000D01*
X9970000Y-35330000D02*
X9970000Y-36869000D01*
X9970000Y-31711000D02*
X9970000Y-33250000D01*
X9930000Y-31710000D02*
X9930000Y-33250000D01*
X9930000Y-35330000D02*
X9930000Y-36870000D01*
X9890000Y-31710000D02*
X9890000Y-33250000D01*
X9890000Y-35330000D02*
X9890000Y-36870000D01*
X12510000Y-34290000D02*
G75*
G03*
X12510000Y-34290000I-2620000J0D01*
G01*
%TO.C,C2*%
X18225000Y-34290000D02*
G75*
G03*
X18225000Y-34290000I-2620000J0D01*
G01*
X15605000Y-35330000D02*
X15605000Y-36870000D01*
X15605000Y-31710000D02*
X15605000Y-33250000D01*
X15645000Y-35330000D02*
X15645000Y-36870000D01*
X15645000Y-31710000D02*
X15645000Y-33250000D01*
X15685000Y-31711000D02*
X15685000Y-33250000D01*
X15685000Y-35330000D02*
X15685000Y-36869000D01*
X15725000Y-31712000D02*
X15725000Y-33250000D01*
X15725000Y-35330000D02*
X15725000Y-36868000D01*
X15765000Y-31714000D02*
X15765000Y-33250000D01*
X15765000Y-35330000D02*
X15765000Y-36866000D01*
X15805000Y-31717000D02*
X15805000Y-33250000D01*
X15805000Y-35330000D02*
X15805000Y-36863000D01*
X15845000Y-31721000D02*
X15845000Y-33250000D01*
X15845000Y-35330000D02*
X15845000Y-36859000D01*
X15885000Y-31725000D02*
X15885000Y-33250000D01*
X15885000Y-35330000D02*
X15885000Y-36855000D01*
X15925000Y-31729000D02*
X15925000Y-33250000D01*
X15925000Y-35330000D02*
X15925000Y-36851000D01*
X15965000Y-31734000D02*
X15965000Y-33250000D01*
X15965000Y-35330000D02*
X15965000Y-36846000D01*
X16005000Y-31740000D02*
X16005000Y-33250000D01*
X16005000Y-35330000D02*
X16005000Y-36840000D01*
X16045000Y-31747000D02*
X16045000Y-33250000D01*
X16045000Y-35330000D02*
X16045000Y-36833000D01*
X16085000Y-31754000D02*
X16085000Y-33250000D01*
X16085000Y-35330000D02*
X16085000Y-36826000D01*
X16125000Y-31762000D02*
X16125000Y-33250000D01*
X16125000Y-35330000D02*
X16125000Y-36818000D01*
X16165000Y-31770000D02*
X16165000Y-33250000D01*
X16165000Y-35330000D02*
X16165000Y-36810000D01*
X16205000Y-31779000D02*
X16205000Y-33250000D01*
X16205000Y-35330000D02*
X16205000Y-36801000D01*
X16245000Y-31789000D02*
X16245000Y-33250000D01*
X16245000Y-35330000D02*
X16245000Y-36791000D01*
X16285000Y-31799000D02*
X16285000Y-33250000D01*
X16285000Y-35330000D02*
X16285000Y-36781000D01*
X16326000Y-31810000D02*
X16326000Y-33250000D01*
X16326000Y-35330000D02*
X16326000Y-36770000D01*
X16366000Y-31822000D02*
X16366000Y-33250000D01*
X16366000Y-35330000D02*
X16366000Y-36758000D01*
X16406000Y-31835000D02*
X16406000Y-33250000D01*
X16406000Y-35330000D02*
X16406000Y-36745000D01*
X16446000Y-31848000D02*
X16446000Y-33250000D01*
X16446000Y-35330000D02*
X16446000Y-36732000D01*
X16486000Y-31862000D02*
X16486000Y-33250000D01*
X16486000Y-35330000D02*
X16486000Y-36718000D01*
X16526000Y-31876000D02*
X16526000Y-33250000D01*
X16526000Y-35330000D02*
X16526000Y-36704000D01*
X16566000Y-31892000D02*
X16566000Y-33250000D01*
X16566000Y-35330000D02*
X16566000Y-36688000D01*
X16606000Y-31908000D02*
X16606000Y-33250000D01*
X16606000Y-35330000D02*
X16606000Y-36672000D01*
X16646000Y-31925000D02*
X16646000Y-33250000D01*
X16646000Y-35330000D02*
X16646000Y-36655000D01*
X16686000Y-31942000D02*
X16686000Y-33250000D01*
X16686000Y-35330000D02*
X16686000Y-36638000D01*
X16726000Y-31961000D02*
X16726000Y-33250000D01*
X16726000Y-35330000D02*
X16726000Y-36619000D01*
X16766000Y-31980000D02*
X16766000Y-33250000D01*
X16766000Y-35330000D02*
X16766000Y-36600000D01*
X16806000Y-32000000D02*
X16806000Y-33250000D01*
X16806000Y-35330000D02*
X16806000Y-36580000D01*
X16846000Y-32022000D02*
X16846000Y-33250000D01*
X16846000Y-35330000D02*
X16846000Y-36558000D01*
X16886000Y-32043000D02*
X16886000Y-33250000D01*
X16886000Y-35330000D02*
X16886000Y-36537000D01*
X16926000Y-32066000D02*
X16926000Y-33250000D01*
X16926000Y-35330000D02*
X16926000Y-36514000D01*
X16966000Y-32090000D02*
X16966000Y-33250000D01*
X16966000Y-35330000D02*
X16966000Y-36490000D01*
X17006000Y-32115000D02*
X17006000Y-33250000D01*
X17006000Y-35330000D02*
X17006000Y-36465000D01*
X17046000Y-32141000D02*
X17046000Y-33250000D01*
X17046000Y-35330000D02*
X17046000Y-36439000D01*
X17086000Y-32168000D02*
X17086000Y-33250000D01*
X17086000Y-35330000D02*
X17086000Y-36412000D01*
X17126000Y-32195000D02*
X17126000Y-33250000D01*
X17126000Y-35330000D02*
X17126000Y-36385000D01*
X17166000Y-32225000D02*
X17166000Y-33250000D01*
X17166000Y-35330000D02*
X17166000Y-36355000D01*
X17206000Y-32255000D02*
X17206000Y-33250000D01*
X17206000Y-35330000D02*
X17206000Y-36325000D01*
X17246000Y-32286000D02*
X17246000Y-33250000D01*
X17246000Y-35330000D02*
X17246000Y-36294000D01*
X17286000Y-32319000D02*
X17286000Y-33250000D01*
X17286000Y-35330000D02*
X17286000Y-36261000D01*
X17326000Y-32353000D02*
X17326000Y-33250000D01*
X17326000Y-35330000D02*
X17326000Y-36227000D01*
X17366000Y-32389000D02*
X17366000Y-33250000D01*
X17366000Y-35330000D02*
X17366000Y-36191000D01*
X17406000Y-32426000D02*
X17406000Y-33250000D01*
X17406000Y-35330000D02*
X17406000Y-36154000D01*
X17446000Y-32464000D02*
X17446000Y-33250000D01*
X17446000Y-35330000D02*
X17446000Y-36116000D01*
X17486000Y-32505000D02*
X17486000Y-33250000D01*
X17486000Y-35330000D02*
X17486000Y-36075000D01*
X17526000Y-32547000D02*
X17526000Y-33250000D01*
X17526000Y-35330000D02*
X17526000Y-36033000D01*
X17566000Y-32591000D02*
X17566000Y-33250000D01*
X17566000Y-35330000D02*
X17566000Y-35989000D01*
X17606000Y-32637000D02*
X17606000Y-33250000D01*
X17606000Y-35330000D02*
X17606000Y-35943000D01*
X17646000Y-32685000D02*
X17646000Y-35895000D01*
X17686000Y-32736000D02*
X17686000Y-35844000D01*
X17726000Y-32790000D02*
X17726000Y-35790000D01*
X17766000Y-32847000D02*
X17766000Y-35733000D01*
X17806000Y-32907000D02*
X17806000Y-35673000D01*
X17846000Y-32971000D02*
X17846000Y-35609000D01*
X17886000Y-33039000D02*
X17886000Y-35541000D01*
X17926000Y-33112000D02*
X17926000Y-35468000D01*
X17966000Y-33192000D02*
X17966000Y-35388000D01*
X18006000Y-33279000D02*
X18006000Y-35301000D01*
X18046000Y-33375000D02*
X18046000Y-35205000D01*
X18086000Y-33485000D02*
X18086000Y-35095000D01*
X18126000Y-33613000D02*
X18126000Y-34967000D01*
X18166000Y-33772000D02*
X18166000Y-34808000D01*
X18206000Y-34006000D02*
X18206000Y-34574000D01*
X12800225Y-32815000D02*
X13300225Y-32815000D01*
X13050225Y-32565000D02*
X13050225Y-33065000D01*
%TO.C,C4*%
X23730000Y-11881000D02*
X14490000Y-11881000D01*
X23730000Y-8439000D02*
X14490000Y-8439000D01*
X23730000Y-11881000D02*
X23730000Y-10825000D01*
X23730000Y-9495000D02*
X23730000Y-8439000D01*
X14490000Y-11881000D02*
X14490000Y-10825000D01*
X14490000Y-9495000D02*
X14490000Y-8439000D01*
%TO.C,R1*%
X41265000Y-11600000D02*
X41265000Y-12080000D01*
X41265000Y-12080000D02*
X31125000Y-12080000D01*
X31125000Y-12080000D02*
X31125000Y-11600000D01*
X41265000Y-8720000D02*
X41265000Y-8240000D01*
X41265000Y-8240000D02*
X31125000Y-8240000D01*
X31125000Y-8240000D02*
X31125000Y-8720000D01*
%TO.C,R2*%
X41265000Y-15410000D02*
X41265000Y-15890000D01*
X41265000Y-15890000D02*
X31125000Y-15890000D01*
X31125000Y-15890000D02*
X31125000Y-15410000D01*
X41265000Y-12530000D02*
X41265000Y-12050000D01*
X41265000Y-12050000D02*
X31125000Y-12050000D01*
X31125000Y-12050000D02*
X31125000Y-12530000D01*
%TO.C,R4*%
X31125000Y-19670000D02*
X31125000Y-20150000D01*
X41265000Y-19670000D02*
X31125000Y-19670000D01*
X41265000Y-20150000D02*
X41265000Y-19670000D01*
X31125000Y-23510000D02*
X31125000Y-23030000D01*
X41265000Y-23510000D02*
X31125000Y-23510000D01*
X41265000Y-23030000D02*
X41265000Y-23510000D01*
%TO.C,R5*%
X31125000Y-15860000D02*
X31125000Y-16340000D01*
X41265000Y-15860000D02*
X31125000Y-15860000D01*
X41265000Y-16340000D02*
X41265000Y-15860000D01*
X31125000Y-19700000D02*
X31125000Y-19220000D01*
X41265000Y-19700000D02*
X31125000Y-19700000D01*
X41265000Y-19220000D02*
X41265000Y-19700000D01*
%TO.C,R6*%
X4910000Y-28565000D02*
X4430000Y-28565000D01*
X4430000Y-28565000D02*
X4430000Y-18425000D01*
X4430000Y-18425000D02*
X4910000Y-18425000D01*
X7790000Y-28565000D02*
X8270000Y-28565000D01*
X8270000Y-28565000D02*
X8270000Y-18425000D01*
X8270000Y-18425000D02*
X7790000Y-18425000D01*
%TO.C,R7*%
X41265000Y-26840000D02*
X41265000Y-27320000D01*
X41265000Y-27320000D02*
X31125000Y-27320000D01*
X31125000Y-27320000D02*
X31125000Y-26840000D01*
X41265000Y-23960000D02*
X41265000Y-23480000D01*
X41265000Y-23480000D02*
X31125000Y-23480000D01*
X31125000Y-23480000D02*
X31125000Y-23960000D01*
%TO.C,R8*%
X41265000Y-30650000D02*
X41265000Y-31130000D01*
X41265000Y-31130000D02*
X31125000Y-31130000D01*
X31125000Y-31130000D02*
X31125000Y-30650000D01*
X41265000Y-27770000D02*
X41265000Y-27290000D01*
X41265000Y-27290000D02*
X31125000Y-27290000D01*
X31125000Y-27290000D02*
X31125000Y-27770000D01*
%TO.C,BT1*%
X1210000Y-8830000D02*
X2540000Y-8830000D01*
X1210000Y-10160000D02*
X1210000Y-8830000D01*
X1210000Y-11430000D02*
X3870000Y-11430000D01*
X3870000Y-11430000D02*
X3870000Y-14030000D01*
X1210000Y-11430000D02*
X1210000Y-14030000D01*
X1210000Y-14030000D02*
X3870000Y-14030000D01*
%TO.C,D1*%
X31075000Y-3810000D02*
G75*
G03*
X31075000Y-3810000I-2500000J0D01*
G01*
X26015000Y-2265000D02*
X26015000Y-5355000D01*
X31565000Y-3810462D02*
G75*
G03*
X26015000Y-2265170I-2990000J462D01*
G01*
X31565000Y-3809538D02*
G75*
G02*
X26015000Y-5354830I-2990000J-462D01*
G01*
%TO.C,D2*%
X41255000Y-2265000D02*
X41255000Y-5355000D01*
X46315000Y-3810000D02*
G75*
G03*
X46315000Y-3810000I-2500000J0D01*
G01*
X46805000Y-3809538D02*
G75*
G02*
X41255000Y-5354830I-2990000J-462D01*
G01*
X46805000Y-3810462D02*
G75*
G03*
X41255000Y-2265170I-2990000J462D01*
G01*
%TO.C,D3*%
X58380000Y-12065000D02*
G75*
G03*
X58380000Y-12065000I-2500000J0D01*
G01*
X53320000Y-10520000D02*
X53320000Y-13610000D01*
X58870000Y-12065462D02*
G75*
G03*
X53320000Y-10520170I-2990000J462D01*
G01*
X58870000Y-12064538D02*
G75*
G02*
X53320000Y-13609830I-2990000J-462D01*
G01*
%TO.C,D4*%
X53320000Y-25760000D02*
X53320000Y-28850000D01*
X58380000Y-27305000D02*
G75*
G03*
X58380000Y-27305000I-2500000J0D01*
G01*
X58870000Y-27304538D02*
G75*
G02*
X53320000Y-28849830I-2990000J-462D01*
G01*
X58870000Y-27305462D02*
G75*
G03*
X53320000Y-25760170I-2990000J462D01*
G01*
%TO.C,D5*%
X46315000Y-35560000D02*
G75*
G03*
X46315000Y-35560000I-2500000J0D01*
G01*
X41255000Y-34015000D02*
X41255000Y-37105000D01*
X46805000Y-35560462D02*
G75*
G03*
X41255000Y-34015170I-2990000J462D01*
G01*
X46805000Y-35559538D02*
G75*
G02*
X41255000Y-37104830I-2990000J-462D01*
G01*
%TO.C,D6*%
X26015000Y-34015000D02*
X26015000Y-37105000D01*
X31075000Y-35560000D02*
G75*
G03*
X31075000Y-35560000I-2500000J0D01*
G01*
X31565000Y-35559538D02*
G75*
G02*
X26015000Y-37104830I-2990000J-462D01*
G01*
X31565000Y-35560462D02*
G75*
G03*
X26015000Y-34015170I-2990000J462D01*
G01*
%TO.C,SW1*%
X17015000Y-4800000D02*
X8195000Y-4800000D01*
X8195000Y-4800000D02*
X8195000Y-4490000D01*
X8195000Y-280000D02*
X17015000Y-280000D01*
X17015000Y-4490000D02*
X17015000Y-4800000D01*
X17015000Y-280000D02*
X17015000Y-590000D01*
X8195000Y-280000D02*
X8195000Y-590000D01*
X15105000Y-5500000D02*
X14605000Y-5000000D01*
X14605000Y-5000000D02*
X14105000Y-5500000D01*
X14105000Y-5500000D02*
X15105000Y-5500000D01*
%TO.C,C3*%
D10*
X9556666Y-16589285D02*
X9461428Y-16684523D01*
X9175714Y-16779761D01*
X8985238Y-16779761D01*
X8699523Y-16684523D01*
X8509047Y-16494047D01*
X8413809Y-16303571D01*
X8318571Y-15922619D01*
X8318571Y-15636904D01*
X8413809Y-15255952D01*
X8509047Y-15065476D01*
X8699523Y-14875000D01*
X8985238Y-14779761D01*
X9175714Y-14779761D01*
X9461428Y-14875000D01*
X9556666Y-14970238D01*
X10223333Y-14779761D02*
X11461428Y-14779761D01*
X10794761Y-15541666D01*
X11080476Y-15541666D01*
X11270952Y-15636904D01*
X11366190Y-15732142D01*
X11461428Y-15922619D01*
X11461428Y-16398809D01*
X11366190Y-16589285D01*
X11270952Y-16684523D01*
X11080476Y-16779761D01*
X10509047Y-16779761D01*
X10318571Y-16684523D01*
X10223333Y-16589285D01*
%TO.C,R3*%
X3444761Y-26368333D02*
X2492380Y-27035000D01*
X3444761Y-27511190D02*
X1444761Y-27511190D01*
X1444761Y-26749285D01*
X1540000Y-26558809D01*
X1635238Y-26463571D01*
X1825714Y-26368333D01*
X2111428Y-26368333D01*
X2301904Y-26463571D01*
X2397142Y-26558809D01*
X2492380Y-26749285D01*
X2492380Y-27511190D01*
X1444761Y-25701666D02*
X1444761Y-24463571D01*
X2206666Y-25130238D01*
X2206666Y-24844523D01*
X2301904Y-24654047D01*
X2397142Y-24558809D01*
X2587619Y-24463571D01*
X3063809Y-24463571D01*
X3254285Y-24558809D01*
X3349523Y-24654047D01*
X3444761Y-24844523D01*
X3444761Y-25415952D01*
X3349523Y-25606428D01*
X3254285Y-25701666D01*
%TO.C,R9*%
X11064761Y-26368333D02*
X10112380Y-27035000D01*
X11064761Y-27511190D02*
X9064761Y-27511190D01*
X9064761Y-26749285D01*
X9160000Y-26558809D01*
X9255238Y-26463571D01*
X9445714Y-26368333D01*
X9731428Y-26368333D01*
X9921904Y-26463571D01*
X10017142Y-26558809D01*
X10112380Y-26749285D01*
X10112380Y-27511190D01*
X11064761Y-25415952D02*
X11064761Y-25035000D01*
X10969523Y-24844523D01*
X10874285Y-24749285D01*
X10588571Y-24558809D01*
X10207619Y-24463571D01*
X9445714Y-24463571D01*
X9255238Y-24558809D01*
X9160000Y-24654047D01*
X9064761Y-24844523D01*
X9064761Y-25225476D01*
X9160000Y-25415952D01*
X9255238Y-25511190D01*
X9445714Y-25606428D01*
X9921904Y-25606428D01*
X10112380Y-25511190D01*
X10207619Y-25415952D01*
X10302857Y-25225476D01*
X10302857Y-24844523D01*
X10207619Y-24654047D01*
X10112380Y-24558809D01*
X9921904Y-24463571D01*
%TO.C,U1*%
X24511190Y-12239761D02*
X24511190Y-13858809D01*
X24606428Y-14049285D01*
X24701666Y-14144523D01*
X24892142Y-14239761D01*
X25273095Y-14239761D01*
X25463571Y-14144523D01*
X25558809Y-14049285D01*
X25654047Y-13858809D01*
X25654047Y-12239761D01*
X27654047Y-14239761D02*
X26511190Y-14239761D01*
X27082619Y-14239761D02*
X27082619Y-12239761D01*
X26892142Y-12525476D01*
X26701666Y-12715952D01*
X26511190Y-12811190D01*
%TO.C,C1*%
X11731666Y-38814285D02*
X11636428Y-38909523D01*
X11350714Y-39004761D01*
X11160238Y-39004761D01*
X10874523Y-38909523D01*
X10684047Y-38719047D01*
X10588809Y-38528571D01*
X10493571Y-38147619D01*
X10493571Y-37861904D01*
X10588809Y-37480952D01*
X10684047Y-37290476D01*
X10874523Y-37100000D01*
X11160238Y-37004761D01*
X11350714Y-37004761D01*
X11636428Y-37100000D01*
X11731666Y-37195238D01*
X13636428Y-39004761D02*
X12493571Y-39004761D01*
X13065000Y-39004761D02*
X13065000Y-37004761D01*
X12874523Y-37290476D01*
X12684047Y-37480952D01*
X12493571Y-37576190D01*
%TO.C,C2*%
X18081666Y-38814285D02*
X17986428Y-38909523D01*
X17700714Y-39004761D01*
X17510238Y-39004761D01*
X17224523Y-38909523D01*
X17034047Y-38719047D01*
X16938809Y-38528571D01*
X16843571Y-38147619D01*
X16843571Y-37861904D01*
X16938809Y-37480952D01*
X17034047Y-37290476D01*
X17224523Y-37100000D01*
X17510238Y-37004761D01*
X17700714Y-37004761D01*
X17986428Y-37100000D01*
X18081666Y-37195238D01*
X18843571Y-37195238D02*
X18938809Y-37100000D01*
X19129285Y-37004761D01*
X19605476Y-37004761D01*
X19795952Y-37100000D01*
X19891190Y-37195238D01*
X19986428Y-37385714D01*
X19986428Y-37576190D01*
X19891190Y-37861904D01*
X18748333Y-39004761D01*
X19986428Y-39004761D01*
%TO.C,C4*%
X18716666Y-10874285D02*
X18621428Y-10969523D01*
X18335714Y-11064761D01*
X18145238Y-11064761D01*
X17859523Y-10969523D01*
X17669047Y-10779047D01*
X17573809Y-10588571D01*
X17478571Y-10207619D01*
X17478571Y-9921904D01*
X17573809Y-9540952D01*
X17669047Y-9350476D01*
X17859523Y-9160000D01*
X18145238Y-9064761D01*
X18335714Y-9064761D01*
X18621428Y-9160000D01*
X18716666Y-9255238D01*
X20430952Y-9731428D02*
X20430952Y-11064761D01*
X19954761Y-8969523D02*
X19478571Y-10398095D01*
X20716666Y-10398095D01*
%TO.C,R1*%
X45386666Y-11064761D02*
X44720000Y-10112380D01*
X44243809Y-11064761D02*
X44243809Y-9064761D01*
X45005714Y-9064761D01*
X45196190Y-9160000D01*
X45291428Y-9255238D01*
X45386666Y-9445714D01*
X45386666Y-9731428D01*
X45291428Y-9921904D01*
X45196190Y-10017142D01*
X45005714Y-10112380D01*
X44243809Y-10112380D01*
X47291428Y-11064761D02*
X46148571Y-11064761D01*
X46720000Y-11064761D02*
X46720000Y-9064761D01*
X46529523Y-9350476D01*
X46339047Y-9540952D01*
X46148571Y-9636190D01*
%TO.C,R2*%
X45386666Y-14874761D02*
X44720000Y-13922380D01*
X44243809Y-14874761D02*
X44243809Y-12874761D01*
X45005714Y-12874761D01*
X45196190Y-12970000D01*
X45291428Y-13065238D01*
X45386666Y-13255714D01*
X45386666Y-13541428D01*
X45291428Y-13731904D01*
X45196190Y-13827142D01*
X45005714Y-13922380D01*
X44243809Y-13922380D01*
X46148571Y-13065238D02*
X46243809Y-12970000D01*
X46434285Y-12874761D01*
X46910476Y-12874761D01*
X47100952Y-12970000D01*
X47196190Y-13065238D01*
X47291428Y-13255714D01*
X47291428Y-13446190D01*
X47196190Y-13731904D01*
X46053333Y-14874761D01*
X47291428Y-14874761D01*
%TO.C,R4*%
X45386666Y-22494761D02*
X44720000Y-21542380D01*
X44243809Y-22494761D02*
X44243809Y-20494761D01*
X45005714Y-20494761D01*
X45196190Y-20590000D01*
X45291428Y-20685238D01*
X45386666Y-20875714D01*
X45386666Y-21161428D01*
X45291428Y-21351904D01*
X45196190Y-21447142D01*
X45005714Y-21542380D01*
X44243809Y-21542380D01*
X47100952Y-21161428D02*
X47100952Y-22494761D01*
X46624761Y-20399523D02*
X46148571Y-21828095D01*
X47386666Y-21828095D01*
%TO.C,R5*%
X45386666Y-18684761D02*
X44720000Y-17732380D01*
X44243809Y-18684761D02*
X44243809Y-16684761D01*
X45005714Y-16684761D01*
X45196190Y-16780000D01*
X45291428Y-16875238D01*
X45386666Y-17065714D01*
X45386666Y-17351428D01*
X45291428Y-17541904D01*
X45196190Y-17637142D01*
X45005714Y-17732380D01*
X44243809Y-17732380D01*
X47196190Y-16684761D02*
X46243809Y-16684761D01*
X46148571Y-17637142D01*
X46243809Y-17541904D01*
X46434285Y-17446666D01*
X46910476Y-17446666D01*
X47100952Y-17541904D01*
X47196190Y-17637142D01*
X47291428Y-17827619D01*
X47291428Y-18303809D01*
X47196190Y-18494285D01*
X47100952Y-18589523D01*
X46910476Y-18684761D01*
X46434285Y-18684761D01*
X46243809Y-18589523D01*
X46148571Y-18494285D01*
%TO.C,R6*%
X7254761Y-26368333D02*
X6302380Y-27035000D01*
X7254761Y-27511190D02*
X5254761Y-27511190D01*
X5254761Y-26749285D01*
X5350000Y-26558809D01*
X5445238Y-26463571D01*
X5635714Y-26368333D01*
X5921428Y-26368333D01*
X6111904Y-26463571D01*
X6207142Y-26558809D01*
X6302380Y-26749285D01*
X6302380Y-27511190D01*
X5254761Y-24654047D02*
X5254761Y-25035000D01*
X5350000Y-25225476D01*
X5445238Y-25320714D01*
X5730952Y-25511190D01*
X6111904Y-25606428D01*
X6873809Y-25606428D01*
X7064285Y-25511190D01*
X7159523Y-25415952D01*
X7254761Y-25225476D01*
X7254761Y-24844523D01*
X7159523Y-24654047D01*
X7064285Y-24558809D01*
X6873809Y-24463571D01*
X6397619Y-24463571D01*
X6207142Y-24558809D01*
X6111904Y-24654047D01*
X6016666Y-24844523D01*
X6016666Y-25225476D01*
X6111904Y-25415952D01*
X6207142Y-25511190D01*
X6397619Y-25606428D01*
%TO.C,R7*%
X45386666Y-26304761D02*
X44720000Y-25352380D01*
X44243809Y-26304761D02*
X44243809Y-24304761D01*
X45005714Y-24304761D01*
X45196190Y-24400000D01*
X45291428Y-24495238D01*
X45386666Y-24685714D01*
X45386666Y-24971428D01*
X45291428Y-25161904D01*
X45196190Y-25257142D01*
X45005714Y-25352380D01*
X44243809Y-25352380D01*
X46053333Y-24304761D02*
X47386666Y-24304761D01*
X46529523Y-26304761D01*
%TO.C,R8*%
X45386666Y-30114761D02*
X44720000Y-29162380D01*
X44243809Y-30114761D02*
X44243809Y-28114761D01*
X45005714Y-28114761D01*
X45196190Y-28210000D01*
X45291428Y-28305238D01*
X45386666Y-28495714D01*
X45386666Y-28781428D01*
X45291428Y-28971904D01*
X45196190Y-29067142D01*
X45005714Y-29162380D01*
X44243809Y-29162380D01*
X46529523Y-28971904D02*
X46339047Y-28876666D01*
X46243809Y-28781428D01*
X46148571Y-28590952D01*
X46148571Y-28495714D01*
X46243809Y-28305238D01*
X46339047Y-28210000D01*
X46529523Y-28114761D01*
X46910476Y-28114761D01*
X47100952Y-28210000D01*
X47196190Y-28305238D01*
X47291428Y-28495714D01*
X47291428Y-28590952D01*
X47196190Y-28781428D01*
X47100952Y-28876666D01*
X46910476Y-28971904D01*
X46529523Y-28971904D01*
X46339047Y-29067142D01*
X46243809Y-29162380D01*
X46148571Y-29352857D01*
X46148571Y-29733809D01*
X46243809Y-29924285D01*
X46339047Y-30019523D01*
X46529523Y-30114761D01*
X46910476Y-30114761D01*
X47100952Y-30019523D01*
X47196190Y-29924285D01*
X47291428Y-29733809D01*
X47291428Y-29352857D01*
X47196190Y-29162380D01*
X47100952Y-29067142D01*
X46910476Y-28971904D01*
%TO.C,BT1*%
X1603571Y-7477142D02*
X1889285Y-7572380D01*
X1984523Y-7667619D01*
X2079761Y-7858095D01*
X2079761Y-8143809D01*
X1984523Y-8334285D01*
X1889285Y-8429523D01*
X1698809Y-8524761D01*
X936904Y-8524761D01*
X936904Y-6524761D01*
X1603571Y-6524761D01*
X1794047Y-6620000D01*
X1889285Y-6715238D01*
X1984523Y-6905714D01*
X1984523Y-7096190D01*
X1889285Y-7286666D01*
X1794047Y-7381904D01*
X1603571Y-7477142D01*
X936904Y-7477142D01*
X2651190Y-6524761D02*
X3794047Y-6524761D01*
X3222619Y-8524761D02*
X3222619Y-6524761D01*
X5508333Y-8524761D02*
X4365476Y-8524761D01*
X4936904Y-8524761D02*
X4936904Y-6524761D01*
X4746428Y-6810476D01*
X4555952Y-7000952D01*
X4365476Y-7096190D01*
%TO.C,D1*%
X32178809Y-4714761D02*
X32178809Y-2714761D01*
X32655000Y-2714761D01*
X32940714Y-2810000D01*
X33131190Y-3000476D01*
X33226428Y-3190952D01*
X33321666Y-3571904D01*
X33321666Y-3857619D01*
X33226428Y-4238571D01*
X33131190Y-4429047D01*
X32940714Y-4619523D01*
X32655000Y-4714761D01*
X32178809Y-4714761D01*
X35226428Y-4714761D02*
X34083571Y-4714761D01*
X34655000Y-4714761D02*
X34655000Y-2714761D01*
X34464523Y-3000476D01*
X34274047Y-3190952D01*
X34083571Y-3286190D01*
%TO.C,D2*%
X47418809Y-4714761D02*
X47418809Y-2714761D01*
X47895000Y-2714761D01*
X48180714Y-2810000D01*
X48371190Y-3000476D01*
X48466428Y-3190952D01*
X48561666Y-3571904D01*
X48561666Y-3857619D01*
X48466428Y-4238571D01*
X48371190Y-4429047D01*
X48180714Y-4619523D01*
X47895000Y-4714761D01*
X47418809Y-4714761D01*
X49323571Y-2905238D02*
X49418809Y-2810000D01*
X49609285Y-2714761D01*
X50085476Y-2714761D01*
X50275952Y-2810000D01*
X50371190Y-2905238D01*
X50466428Y-3095714D01*
X50466428Y-3286190D01*
X50371190Y-3571904D01*
X49228333Y-4714761D01*
X50466428Y-4714761D01*
%TO.C,D3*%
X54403809Y-18049761D02*
X54403809Y-16049761D01*
X54880000Y-16049761D01*
X55165714Y-16145000D01*
X55356190Y-16335476D01*
X55451428Y-16525952D01*
X55546666Y-16906904D01*
X55546666Y-17192619D01*
X55451428Y-17573571D01*
X55356190Y-17764047D01*
X55165714Y-17954523D01*
X54880000Y-18049761D01*
X54403809Y-18049761D01*
X56213333Y-16049761D02*
X57451428Y-16049761D01*
X56784761Y-16811666D01*
X57070476Y-16811666D01*
X57260952Y-16906904D01*
X57356190Y-17002142D01*
X57451428Y-17192619D01*
X57451428Y-17668809D01*
X57356190Y-17859285D01*
X57260952Y-17954523D01*
X57070476Y-18049761D01*
X56499047Y-18049761D01*
X56308571Y-17954523D01*
X56213333Y-17859285D01*
%TO.C,D4*%
X54403809Y-23764761D02*
X54403809Y-21764761D01*
X54880000Y-21764761D01*
X55165714Y-21860000D01*
X55356190Y-22050476D01*
X55451428Y-22240952D01*
X55546666Y-22621904D01*
X55546666Y-22907619D01*
X55451428Y-23288571D01*
X55356190Y-23479047D01*
X55165714Y-23669523D01*
X54880000Y-23764761D01*
X54403809Y-23764761D01*
X57260952Y-22431428D02*
X57260952Y-23764761D01*
X56784761Y-21669523D02*
X56308571Y-23098095D01*
X57546666Y-23098095D01*
%TO.C,D5*%
X47418809Y-36464761D02*
X47418809Y-34464761D01*
X47895000Y-34464761D01*
X48180714Y-34560000D01*
X48371190Y-34750476D01*
X48466428Y-34940952D01*
X48561666Y-35321904D01*
X48561666Y-35607619D01*
X48466428Y-35988571D01*
X48371190Y-36179047D01*
X48180714Y-36369523D01*
X47895000Y-36464761D01*
X47418809Y-36464761D01*
X50371190Y-34464761D02*
X49418809Y-34464761D01*
X49323571Y-35417142D01*
X49418809Y-35321904D01*
X49609285Y-35226666D01*
X50085476Y-35226666D01*
X50275952Y-35321904D01*
X50371190Y-35417142D01*
X50466428Y-35607619D01*
X50466428Y-36083809D01*
X50371190Y-36274285D01*
X50275952Y-36369523D01*
X50085476Y-36464761D01*
X49609285Y-36464761D01*
X49418809Y-36369523D01*
X49323571Y-36274285D01*
%TO.C,D6*%
X32178809Y-36464761D02*
X32178809Y-34464761D01*
X32655000Y-34464761D01*
X32940714Y-34560000D01*
X33131190Y-34750476D01*
X33226428Y-34940952D01*
X33321666Y-35321904D01*
X33321666Y-35607619D01*
X33226428Y-35988571D01*
X33131190Y-36179047D01*
X32940714Y-36369523D01*
X32655000Y-36464761D01*
X32178809Y-36464761D01*
X35035952Y-34464761D02*
X34655000Y-34464761D01*
X34464523Y-34560000D01*
X34369285Y-34655238D01*
X34178809Y-34940952D01*
X34083571Y-35321904D01*
X34083571Y-36083809D01*
X34178809Y-36274285D01*
X34274047Y-36369523D01*
X34464523Y-36464761D01*
X34845476Y-36464761D01*
X35035952Y-36369523D01*
X35131190Y-36274285D01*
X35226428Y-36083809D01*
X35226428Y-35607619D01*
X35131190Y-35417142D01*
X35035952Y-35321904D01*
X34845476Y-35226666D01*
X34464523Y-35226666D01*
X34274047Y-35321904D01*
X34178809Y-35417142D01*
X34083571Y-35607619D01*
%TO.C,SW1*%
X18923333Y-3349523D02*
X19209047Y-3444761D01*
X19685238Y-3444761D01*
X19875714Y-3349523D01*
X19970952Y-3254285D01*
X20066190Y-3063809D01*
X20066190Y-2873333D01*
X19970952Y-2682857D01*
X19875714Y-2587619D01*
X19685238Y-2492380D01*
X19304285Y-2397142D01*
X19113809Y-2301904D01*
X19018571Y-2206666D01*
X18923333Y-2016190D01*
X18923333Y-1825714D01*
X19018571Y-1635238D01*
X19113809Y-1540000D01*
X19304285Y-1444761D01*
X19780476Y-1444761D01*
X20066190Y-1540000D01*
X20732857Y-1444761D02*
X21209047Y-3444761D01*
X21590000Y-2016190D01*
X21970952Y-3444761D01*
X22447142Y-1444761D01*
X24256666Y-3444761D02*
X23113809Y-3444761D01*
X23685238Y-3444761D02*
X23685238Y-1444761D01*
X23494761Y-1730476D01*
X23304285Y-1920952D01*
X23113809Y-2016190D01*
%TD*%
M02*
