%TF.GenerationSoftware,KiCad,Pcbnew,(5.1.12)-1*%
%TF.CreationDate,2022-01-26T16:18:48+01:00*%
%TF.ProjectId,pcb-luces-led-navidad,7063622d-6c75-4636-9573-2d6c65642d6e,R2*%
%TF.SameCoordinates,PX3072580PY3072580*%
%TF.FileFunction,Soldermask,Top*%
%TF.FilePolarity,Negative*%
%FSLAX46Y46*%
G04 Gerber Fmt 4.6, Leading zero omitted, Abs format (unit mm)*
G04 Created by KiCad (PCBNEW (5.1.12)-1) date 2022-01-26 16:18:48*
%MOMM*%
%LPD*%
G01*
G04 APERTURE LIST*
%ADD10C,2.000000*%
%ADD11R,1.500000X2.500000*%
%ADD12O,1.500000X2.500000*%
%ADD13O,2.200000X3.500000*%
%ADD14R,1.600000X1.600000*%
%ADD15C,1.600000*%
%ADD16R,2.400000X1.600000*%
%ADD17O,2.400000X1.600000*%
%ADD18R,1.700000X1.700000*%
%ADD19O,1.700000X1.700000*%
%ADD20R,1.800000X1.800000*%
%ADD21C,1.800000*%
G04 APERTURE END LIST*
D10*
%TO.C,C4*%
X22860000Y-10160000D03*
X15240000Y-10160000D03*
X17780000Y-10160000D03*
X20320000Y-10160000D03*
%TD*%
D11*
%TO.C,SW1*%
X15680000Y-3810000D03*
D12*
X13680000Y-3810000D03*
X11680000Y-3810000D03*
D13*
X17780000Y-3810000D03*
X9580000Y-3810000D03*
%TD*%
D14*
%TO.C,C3*%
X8890000Y-12065000D03*
D15*
X10890000Y-12065000D03*
%TD*%
D14*
%TO.C,C1*%
X8890000Y-34290000D03*
D15*
X10890000Y-34290000D03*
%TD*%
D14*
%TO.C,C2*%
X14605000Y-34290000D03*
D15*
X16605000Y-34290000D03*
%TD*%
D10*
%TO.C,R9*%
X10160000Y-29845000D03*
X10160000Y-17145000D03*
%TD*%
%TO.C,R6*%
X6350000Y-29845000D03*
X6350000Y-17145000D03*
%TD*%
%TO.C,R3*%
X2540000Y-29845000D03*
X2540000Y-17145000D03*
%TD*%
%TO.C,R8*%
X42545000Y-29210000D03*
X29845000Y-29210000D03*
%TD*%
%TO.C,R7*%
X42545000Y-25400000D03*
X29845000Y-25400000D03*
%TD*%
%TO.C,R4*%
X42545000Y-21590000D03*
X29845000Y-21590000D03*
%TD*%
%TO.C,R5*%
X42545000Y-17780000D03*
X29845000Y-17780000D03*
%TD*%
%TO.C,R2*%
X42545000Y-13970000D03*
X29845000Y-13970000D03*
%TD*%
%TO.C,R1*%
X42545000Y-10160000D03*
X29845000Y-10160000D03*
%TD*%
D16*
%TO.C,U1*%
X15240000Y-13970000D03*
D17*
X22860000Y-29210000D03*
X15240000Y-16510000D03*
X22860000Y-26670000D03*
X15240000Y-19050000D03*
X22860000Y-24130000D03*
X15240000Y-21590000D03*
X22860000Y-21590000D03*
X15240000Y-24130000D03*
X22860000Y-19050000D03*
X15240000Y-26670000D03*
X22860000Y-16510000D03*
X15240000Y-29210000D03*
X22860000Y-13970000D03*
%TD*%
D18*
%TO.C,BT1*%
X2540000Y-10160000D03*
D19*
X2540000Y-12700000D03*
%TD*%
D20*
%TO.C,D1*%
X27305000Y-3810000D03*
D21*
X29845000Y-3810000D03*
%TD*%
%TO.C,D2*%
X45085000Y-3810000D03*
D20*
X42545000Y-3810000D03*
%TD*%
%TO.C,D3*%
X54610000Y-12065000D03*
D21*
X57150000Y-12065000D03*
%TD*%
%TO.C,D4*%
X57150000Y-27305000D03*
D20*
X54610000Y-27305000D03*
%TD*%
%TO.C,D5*%
X42545000Y-35560000D03*
D21*
X45085000Y-35560000D03*
%TD*%
%TO.C,D6*%
X29845000Y-35560000D03*
D20*
X27305000Y-35560000D03*
%TD*%
M02*
