%TF.GenerationSoftware,KiCad,Pcbnew,(5.1.12)-1*%
%TF.CreationDate,2022-01-05T14:07:08+01:00*%
%TF.ProjectId,pcb-luces-led-navidad,7063622d-6c75-4636-9573-2d6c65642d6e,R1*%
%TF.SameCoordinates,PX3072580PY3072580*%
%TF.FileFunction,Legend,Bot*%
%TF.FilePolarity,Positive*%
%FSLAX46Y46*%
G04 Gerber Fmt 4.6, Leading zero omitted, Abs format (unit mm)*
G04 Created by KiCad (PCBNEW (5.1.12)-1) date 2022-01-05 14:07:08*
%MOMM*%
%LPD*%
G01*
G04 APERTURE LIST*
%ADD10C,0.150000*%
%ADD11C,0.250000*%
%ADD12C,0.300000*%
G04 APERTURE END LIST*
D10*
X36786428Y-24309285D02*
X36715000Y-24380714D01*
X36643571Y-24523571D01*
X36643571Y-24880714D01*
X36715000Y-25023571D01*
X36786428Y-25095000D01*
X36929285Y-25166428D01*
X37072142Y-25166428D01*
X37286428Y-25095000D01*
X38143571Y-24237857D01*
X38143571Y-25166428D01*
X36643571Y-26095000D02*
X36643571Y-26237857D01*
X36715000Y-26380714D01*
X36786428Y-26452142D01*
X36929285Y-26523571D01*
X37215000Y-26595000D01*
X37572142Y-26595000D01*
X37857857Y-26523571D01*
X38000714Y-26452142D01*
X38072142Y-26380714D01*
X38143571Y-26237857D01*
X38143571Y-26095000D01*
X38072142Y-25952142D01*
X38000714Y-25880714D01*
X37857857Y-25809285D01*
X37572142Y-25737857D01*
X37215000Y-25737857D01*
X36929285Y-25809285D01*
X36786428Y-25880714D01*
X36715000Y-25952142D01*
X36643571Y-26095000D01*
X36786428Y-27166428D02*
X36715000Y-27237857D01*
X36643571Y-27380714D01*
X36643571Y-27737857D01*
X36715000Y-27880714D01*
X36786428Y-27952142D01*
X36929285Y-28023571D01*
X37072142Y-28023571D01*
X37286428Y-27952142D01*
X38143571Y-27095000D01*
X38143571Y-28023571D01*
X36786428Y-28595000D02*
X36715000Y-28666428D01*
X36643571Y-28809285D01*
X36643571Y-29166428D01*
X36715000Y-29309285D01*
X36786428Y-29380714D01*
X36929285Y-29452142D01*
X37072142Y-29452142D01*
X37286428Y-29380714D01*
X38143571Y-28523571D01*
X38143571Y-29452142D01*
X37572142Y-30095000D02*
X37572142Y-31237857D01*
X38143571Y-32809285D02*
X37429285Y-32309285D01*
X38143571Y-31952142D02*
X36643571Y-31952142D01*
X36643571Y-32523571D01*
X36715000Y-32666428D01*
X36786428Y-32737857D01*
X36929285Y-32809285D01*
X37143571Y-32809285D01*
X37286428Y-32737857D01*
X37357857Y-32666428D01*
X37429285Y-32523571D01*
X37429285Y-31952142D01*
X38143571Y-34237857D02*
X38143571Y-33380714D01*
X38143571Y-33809285D02*
X36643571Y-33809285D01*
X36857857Y-33666428D01*
X37000714Y-33523571D01*
X37072142Y-33380714D01*
D11*
X34559761Y-5430952D02*
X34559761Y-4478571D01*
X32559761Y-4478571D01*
X32559761Y-6097619D02*
X34178809Y-6097619D01*
X34369285Y-6192857D01*
X34464523Y-6288095D01*
X34559761Y-6478571D01*
X34559761Y-6859523D01*
X34464523Y-7050000D01*
X34369285Y-7145238D01*
X34178809Y-7240476D01*
X32559761Y-7240476D01*
X34369285Y-9335714D02*
X34464523Y-9240476D01*
X34559761Y-8954761D01*
X34559761Y-8764285D01*
X34464523Y-8478571D01*
X34274047Y-8288095D01*
X34083571Y-8192857D01*
X33702619Y-8097619D01*
X33416904Y-8097619D01*
X33035952Y-8192857D01*
X32845476Y-8288095D01*
X32655000Y-8478571D01*
X32559761Y-8764285D01*
X32559761Y-8954761D01*
X32655000Y-9240476D01*
X32750238Y-9335714D01*
X33512142Y-10192857D02*
X33512142Y-10859523D01*
X34559761Y-11145238D02*
X34559761Y-10192857D01*
X32559761Y-10192857D01*
X32559761Y-11145238D01*
X34464523Y-11907142D02*
X34559761Y-12192857D01*
X34559761Y-12669047D01*
X34464523Y-12859523D01*
X34369285Y-12954761D01*
X34178809Y-13050000D01*
X33988333Y-13050000D01*
X33797857Y-12954761D01*
X33702619Y-12859523D01*
X33607380Y-12669047D01*
X33512142Y-12288095D01*
X33416904Y-12097619D01*
X33321666Y-12002380D01*
X33131190Y-11907142D01*
X32940714Y-11907142D01*
X32750238Y-12002380D01*
X32655000Y-12097619D01*
X32559761Y-12288095D01*
X32559761Y-12764285D01*
X32655000Y-13050000D01*
X34559761Y-16383333D02*
X34559761Y-15430952D01*
X32559761Y-15430952D01*
X33512142Y-17050000D02*
X33512142Y-17716666D01*
X34559761Y-18002380D02*
X34559761Y-17050000D01*
X32559761Y-17050000D01*
X32559761Y-18002380D01*
X34559761Y-18859523D02*
X32559761Y-18859523D01*
X32559761Y-19335714D01*
X32655000Y-19621428D01*
X32845476Y-19811904D01*
X33035952Y-19907142D01*
X33416904Y-20002380D01*
X33702619Y-20002380D01*
X34083571Y-19907142D01*
X34274047Y-19811904D01*
X34464523Y-19621428D01*
X34559761Y-19335714D01*
X34559761Y-18859523D01*
X34559761Y-22383333D02*
X32559761Y-22383333D01*
X34559761Y-23526190D01*
X32559761Y-23526190D01*
X33988333Y-24383333D02*
X33988333Y-25335714D01*
X34559761Y-24192857D02*
X32559761Y-24859523D01*
X34559761Y-25526190D01*
X32559761Y-25907142D02*
X34559761Y-26573809D01*
X32559761Y-27240476D01*
X34559761Y-27907142D02*
X32559761Y-27907142D01*
X34559761Y-28859523D02*
X32559761Y-28859523D01*
X32559761Y-29335714D01*
X32655000Y-29621428D01*
X32845476Y-29811904D01*
X33035952Y-29907142D01*
X33416904Y-30002380D01*
X33702619Y-30002380D01*
X34083571Y-29907142D01*
X34274047Y-29811904D01*
X34464523Y-29621428D01*
X34559761Y-29335714D01*
X34559761Y-28859523D01*
X33988333Y-30764285D02*
X33988333Y-31716666D01*
X34559761Y-30573809D02*
X32559761Y-31240476D01*
X34559761Y-31907142D01*
X34559761Y-32573809D02*
X32559761Y-32573809D01*
X32559761Y-33049999D01*
X32655000Y-33335714D01*
X32845476Y-33526190D01*
X33035952Y-33621428D01*
X33416904Y-33716666D01*
X33702619Y-33716666D01*
X34083571Y-33621428D01*
X34274047Y-33526190D01*
X34464523Y-33335714D01*
X34559761Y-33049999D01*
X34559761Y-32573809D01*
D12*
%TO.C,Picuino_Logo_B6*%
X38163500Y-21785580D02*
G75*
G03*
X38163500Y-21785580I-698500J0D01*
G01*
X36763960Y-19286220D02*
X36763960Y-20083780D01*
X37066220Y-20386040D02*
X37863780Y-20386040D01*
X38163500Y-17584420D02*
G75*
G03*
X38163500Y-17584420I-698500J0D01*
G01*
X37863780Y-18983960D02*
X37066220Y-18983960D01*
X38166040Y-20083780D02*
X38166040Y-19286220D01*
X35712400Y-20736560D02*
G75*
G02*
X36763960Y-19685000I1051560J0D01*
G01*
X36763960Y-19286220D02*
G75*
G02*
X37066220Y-18983960I302260J0D01*
G01*
X38166040Y-20083780D02*
G75*
G02*
X37863780Y-20386040I-302260J0D01*
G01*
X36763960Y-21785580D02*
G75*
G02*
X35714940Y-20736560I0J1049020D01*
G01*
X38166040Y-17584420D02*
G75*
G02*
X39215060Y-18633440I0J-1049020D01*
G01*
X39217600Y-18633440D02*
G75*
G02*
X38166040Y-19685000I-1051560J0D01*
G01*
X37863780Y-18983960D02*
G75*
G02*
X38166040Y-19286220I0J-302260D01*
G01*
X37066220Y-20386040D02*
G75*
G02*
X36763960Y-20083780I0J302260D01*
G01*
D10*
X39790714Y-13518333D02*
X40457380Y-13708809D01*
X39981190Y-13899285D01*
X40457380Y-14089761D01*
X39790714Y-14280238D01*
X39790714Y-14565952D02*
X40457380Y-14756428D01*
X39981190Y-14946904D01*
X40457380Y-15137380D01*
X39790714Y-15327857D01*
X39790714Y-15613571D02*
X40457380Y-15804047D01*
X39981190Y-15994523D01*
X40457380Y-16185000D01*
X39790714Y-16375476D01*
X40362142Y-16756428D02*
X40409761Y-16804047D01*
X40457380Y-16756428D01*
X40409761Y-16708809D01*
X40362142Y-16756428D01*
X40457380Y-16756428D01*
X39790714Y-17232619D02*
X40790714Y-17232619D01*
X39838333Y-17232619D02*
X39790714Y-17327857D01*
X39790714Y-17518333D01*
X39838333Y-17613571D01*
X39885952Y-17661190D01*
X39981190Y-17708809D01*
X40266904Y-17708809D01*
X40362142Y-17661190D01*
X40409761Y-17613571D01*
X40457380Y-17518333D01*
X40457380Y-17327857D01*
X40409761Y-17232619D01*
X40457380Y-18137380D02*
X39790714Y-18137380D01*
X39457380Y-18137380D02*
X39505000Y-18089761D01*
X39552619Y-18137380D01*
X39505000Y-18184999D01*
X39457380Y-18137380D01*
X39552619Y-18137380D01*
X40409761Y-19042142D02*
X40457380Y-18946904D01*
X40457380Y-18756428D01*
X40409761Y-18661190D01*
X40362142Y-18613571D01*
X40266904Y-18565952D01*
X39981190Y-18565952D01*
X39885952Y-18613571D01*
X39838333Y-18661190D01*
X39790714Y-18756428D01*
X39790714Y-18946904D01*
X39838333Y-19042142D01*
X39790714Y-19899285D02*
X40457380Y-19899285D01*
X39790714Y-19470714D02*
X40314523Y-19470714D01*
X40409761Y-19518333D01*
X40457380Y-19613571D01*
X40457380Y-19756428D01*
X40409761Y-19851666D01*
X40362142Y-19899285D01*
X40457380Y-20375476D02*
X39790714Y-20375476D01*
X39457380Y-20375476D02*
X39505000Y-20327857D01*
X39552619Y-20375476D01*
X39505000Y-20423095D01*
X39457380Y-20375476D01*
X39552619Y-20375476D01*
X39790714Y-20851666D02*
X40457380Y-20851666D01*
X39885952Y-20851666D02*
X39838333Y-20899285D01*
X39790714Y-20994523D01*
X39790714Y-21137380D01*
X39838333Y-21232619D01*
X39933571Y-21280238D01*
X40457380Y-21280238D01*
X40457380Y-21899285D02*
X40409761Y-21804047D01*
X40362142Y-21756428D01*
X40266904Y-21708809D01*
X39981190Y-21708809D01*
X39885952Y-21756428D01*
X39838333Y-21804047D01*
X39790714Y-21899285D01*
X39790714Y-22042142D01*
X39838333Y-22137380D01*
X39885952Y-22184999D01*
X39981190Y-22232619D01*
X40266904Y-22232619D01*
X40362142Y-22184999D01*
X40409761Y-22137380D01*
X40457380Y-22042142D01*
X40457380Y-21899285D01*
X40362142Y-22661190D02*
X40409761Y-22708809D01*
X40457380Y-22661190D01*
X40409761Y-22613571D01*
X40362142Y-22661190D01*
X40457380Y-22661190D01*
X40409761Y-23565952D02*
X40457380Y-23470714D01*
X40457380Y-23280238D01*
X40409761Y-23184999D01*
X40362142Y-23137380D01*
X40266904Y-23089761D01*
X39981190Y-23089761D01*
X39885952Y-23137380D01*
X39838333Y-23184999D01*
X39790714Y-23280238D01*
X39790714Y-23470714D01*
X39838333Y-23565952D01*
X40457380Y-24137380D02*
X40409761Y-24042142D01*
X40362142Y-23994523D01*
X40266904Y-23946904D01*
X39981190Y-23946904D01*
X39885952Y-23994523D01*
X39838333Y-24042142D01*
X39790714Y-24137380D01*
X39790714Y-24280238D01*
X39838333Y-24375476D01*
X39885952Y-24423095D01*
X39981190Y-24470714D01*
X40266904Y-24470714D01*
X40362142Y-24423095D01*
X40409761Y-24375476D01*
X40457380Y-24280238D01*
X40457380Y-24137380D01*
X40457380Y-24899285D02*
X39790714Y-24899285D01*
X39885952Y-24899285D02*
X39838333Y-24946904D01*
X39790714Y-25042142D01*
X39790714Y-25184999D01*
X39838333Y-25280238D01*
X39933571Y-25327857D01*
X40457380Y-25327857D01*
X39933571Y-25327857D02*
X39838333Y-25375476D01*
X39790714Y-25470714D01*
X39790714Y-25613571D01*
X39838333Y-25708809D01*
X39933571Y-25756428D01*
X40457380Y-25756428D01*
%TD*%
M02*
