%TF.GenerationSoftware,KiCad,Pcbnew,(5.1.12)-1*%
%TF.CreationDate,2022-01-26T16:18:48+01:00*%
%TF.ProjectId,pcb-luces-led-navidad,7063622d-6c75-4636-9573-2d6c65642d6e,R2*%
%TF.SameCoordinates,PX3072580PY3072580*%
%TF.FileFunction,Copper,L2,Bot*%
%TF.FilePolarity,Positive*%
%FSLAX46Y46*%
G04 Gerber Fmt 4.6, Leading zero omitted, Abs format (unit mm)*
G04 Created by KiCad (PCBNEW (5.1.12)-1) date 2022-01-26 16:18:48*
%MOMM*%
%LPD*%
G01*
G04 APERTURE LIST*
%ADD10C,0.250000*%
%TA.AperFunction,EtchedComponent*%
%ADD11C,0.300000*%
%TD*%
%TA.AperFunction,ComponentPad*%
%ADD12C,2.000000*%
%TD*%
%TA.AperFunction,ComponentPad*%
%ADD13R,1.500000X2.500000*%
%TD*%
%TA.AperFunction,ComponentPad*%
%ADD14O,1.500000X2.500000*%
%TD*%
%TA.AperFunction,ComponentPad*%
%ADD15O,2.200000X3.500000*%
%TD*%
%TA.AperFunction,ComponentPad*%
%ADD16R,1.600000X1.600000*%
%TD*%
%TA.AperFunction,ComponentPad*%
%ADD17C,1.600000*%
%TD*%
%TA.AperFunction,ComponentPad*%
%ADD18C,6.096000*%
%TD*%
%TA.AperFunction,ComponentPad*%
%ADD19R,2.400000X1.600000*%
%TD*%
%TA.AperFunction,ComponentPad*%
%ADD20O,2.400000X1.600000*%
%TD*%
%TA.AperFunction,ComponentPad*%
%ADD21R,1.700000X1.700000*%
%TD*%
%TA.AperFunction,ComponentPad*%
%ADD22O,1.700000X1.700000*%
%TD*%
%TA.AperFunction,ComponentPad*%
%ADD23R,1.800000X1.800000*%
%TD*%
%TA.AperFunction,ComponentPad*%
%ADD24C,1.800000*%
%TD*%
%TA.AperFunction,Conductor*%
%ADD25C,0.635000*%
%TD*%
G04 APERTURE END LIST*
%TO.C,Picuino_Logo_B6*%
D10*
X34496428Y-10435000D02*
X35829761Y-10720714D01*
X34877380Y-11006428D01*
X35829761Y-11292142D01*
X34496428Y-11577857D01*
X34496428Y-12006428D02*
X35829761Y-12292142D01*
X34877380Y-12577857D01*
X35829761Y-12863571D01*
X34496428Y-13149285D01*
X34496428Y-13577857D02*
X35829761Y-13863571D01*
X34877380Y-14149285D01*
X35829761Y-14435000D01*
X34496428Y-14720714D01*
X35639285Y-15292142D02*
X35734523Y-15363571D01*
X35829761Y-15292142D01*
X35734523Y-15220714D01*
X35639285Y-15292142D01*
X35829761Y-15292142D01*
X34496428Y-16006428D02*
X36496428Y-16006428D01*
X34591666Y-16006428D02*
X34496428Y-16149285D01*
X34496428Y-16435000D01*
X34591666Y-16577857D01*
X34686904Y-16649285D01*
X34877380Y-16720714D01*
X35448809Y-16720714D01*
X35639285Y-16649285D01*
X35734523Y-16577857D01*
X35829761Y-16435000D01*
X35829761Y-16149285D01*
X35734523Y-16006428D01*
X35829761Y-17363571D02*
X34496428Y-17363571D01*
X33829761Y-17363571D02*
X33925000Y-17292142D01*
X34020238Y-17363571D01*
X33925000Y-17435000D01*
X33829761Y-17363571D01*
X34020238Y-17363571D01*
X35734523Y-18720714D02*
X35829761Y-18577857D01*
X35829761Y-18292142D01*
X35734523Y-18149285D01*
X35639285Y-18077857D01*
X35448809Y-18006428D01*
X34877380Y-18006428D01*
X34686904Y-18077857D01*
X34591666Y-18149285D01*
X34496428Y-18292142D01*
X34496428Y-18577857D01*
X34591666Y-18720714D01*
X34496428Y-20006428D02*
X35829761Y-20006428D01*
X34496428Y-19363571D02*
X35544047Y-19363571D01*
X35734523Y-19435000D01*
X35829761Y-19577857D01*
X35829761Y-19792142D01*
X35734523Y-19935000D01*
X35639285Y-20006428D01*
X35829761Y-20720714D02*
X34496428Y-20720714D01*
X33829761Y-20720714D02*
X33925000Y-20649285D01*
X34020238Y-20720714D01*
X33925000Y-20792142D01*
X33829761Y-20720714D01*
X34020238Y-20720714D01*
X34496428Y-21435000D02*
X35829761Y-21435000D01*
X34686904Y-21435000D02*
X34591666Y-21506428D01*
X34496428Y-21649285D01*
X34496428Y-21863571D01*
X34591666Y-22006428D01*
X34782142Y-22077857D01*
X35829761Y-22077857D01*
X35829761Y-23006428D02*
X35734523Y-22863571D01*
X35639285Y-22792142D01*
X35448809Y-22720714D01*
X34877380Y-22720714D01*
X34686904Y-22792142D01*
X34591666Y-22863571D01*
X34496428Y-23006428D01*
X34496428Y-23220714D01*
X34591666Y-23363571D01*
X34686904Y-23435000D01*
X34877380Y-23506428D01*
X35448809Y-23506428D01*
X35639285Y-23435000D01*
X35734523Y-23363571D01*
X35829761Y-23220714D01*
X35829761Y-23006428D01*
X35639285Y-24149285D02*
X35734523Y-24220714D01*
X35829761Y-24149285D01*
X35734523Y-24077857D01*
X35639285Y-24149285D01*
X35829761Y-24149285D01*
X35734523Y-25506428D02*
X35829761Y-25363571D01*
X35829761Y-25077857D01*
X35734523Y-24935000D01*
X35639285Y-24863571D01*
X35448809Y-24792142D01*
X34877380Y-24792142D01*
X34686904Y-24863571D01*
X34591666Y-24935000D01*
X34496428Y-25077857D01*
X34496428Y-25363571D01*
X34591666Y-25506428D01*
X35829761Y-26363571D02*
X35734523Y-26220714D01*
X35639285Y-26149285D01*
X35448809Y-26077857D01*
X34877380Y-26077857D01*
X34686904Y-26149285D01*
X34591666Y-26220714D01*
X34496428Y-26363571D01*
X34496428Y-26577857D01*
X34591666Y-26720714D01*
X34686904Y-26792142D01*
X34877380Y-26863571D01*
X35448809Y-26863571D01*
X35639285Y-26792142D01*
X35734523Y-26720714D01*
X35829761Y-26577857D01*
X35829761Y-26363571D01*
X35829761Y-27506428D02*
X34496428Y-27506428D01*
X34686904Y-27506428D02*
X34591666Y-27577857D01*
X34496428Y-27720714D01*
X34496428Y-27935000D01*
X34591666Y-28077857D01*
X34782142Y-28149285D01*
X35829761Y-28149285D01*
X34782142Y-28149285D02*
X34591666Y-28220714D01*
X34496428Y-28363571D01*
X34496428Y-28577857D01*
X34591666Y-28720714D01*
X34782142Y-28792142D01*
X35829761Y-28792142D01*
D11*
X38798500Y-21785580D02*
G75*
G03*
X38798500Y-21785580I-698500J0D01*
G01*
X37398960Y-19286220D02*
X37398960Y-20083780D01*
X37701220Y-20386040D02*
X38498780Y-20386040D01*
X38801040Y-20083780D02*
X38801040Y-19286220D01*
X38498780Y-18983960D02*
X37701220Y-18983960D01*
X38798500Y-17584420D02*
G75*
G03*
X38798500Y-17584420I-698500J0D01*
G01*
X37398960Y-19286220D02*
G75*
G02*
X37701220Y-18983960I302260J0D01*
G01*
X37701220Y-20386040D02*
G75*
G02*
X37398960Y-20083780I0J302260D01*
G01*
X38801040Y-20083780D02*
G75*
G02*
X38498780Y-20386040I-302260J0D01*
G01*
X38498780Y-18983960D02*
G75*
G02*
X38801040Y-19286220I0J-302260D01*
G01*
X39852600Y-18633440D02*
G75*
G02*
X38801040Y-19685000I-1051560J0D01*
G01*
X38801040Y-17584420D02*
G75*
G02*
X39850060Y-18633440I0J-1049020D01*
G01*
X36347400Y-20736560D02*
G75*
G02*
X37398960Y-19685000I1051560J0D01*
G01*
X37398960Y-21785580D02*
G75*
G02*
X36349940Y-20736560I0J1049020D01*
G01*
%TD*%
D12*
%TO.P,C4,1*%
%TO.N,+BATT*%
X22860000Y-10160000D03*
%TO.P,C4,2*%
%TO.N,GND*%
X15240000Y-10160000D03*
X17780000Y-10160000D03*
%TO.P,C4,1*%
%TO.N,+BATT*%
X20320000Y-10160000D03*
%TD*%
D13*
%TO.P,SW1,1*%
%TO.N,+BATT*%
X15680000Y-3810000D03*
D14*
%TO.P,SW1,2*%
%TO.N,Net-(BT1-Pad1)*%
X13680000Y-3810000D03*
%TO.P,SW1,3*%
%TO.N,Net-(SW1-Pad3)*%
X11680000Y-3810000D03*
D15*
%TO.P,SW1,*%
%TO.N,*%
X17780000Y-3810000D03*
X9580000Y-3810000D03*
%TD*%
D16*
%TO.P,C3,1*%
%TO.N,Net-(C3-Pad1)*%
X8890000Y-12065000D03*
D17*
%TO.P,C3,2*%
%TO.N,GND*%
X10890000Y-12065000D03*
%TD*%
D16*
%TO.P,C1,1*%
%TO.N,Net-(C1-Pad1)*%
X8890000Y-34290000D03*
D17*
%TO.P,C1,2*%
%TO.N,GND*%
X10890000Y-34290000D03*
%TD*%
D16*
%TO.P,C2,1*%
%TO.N,Net-(C2-Pad1)*%
X14605000Y-34290000D03*
D17*
%TO.P,C2,2*%
%TO.N,GND*%
X16605000Y-34290000D03*
%TD*%
D12*
%TO.P,R9,1*%
%TO.N,Net-(R8-Pad2)*%
X10160000Y-29845000D03*
%TO.P,R9,2*%
%TO.N,Net-(C3-Pad1)*%
X10160000Y-17145000D03*
%TD*%
%TO.P,R6,1*%
%TO.N,Net-(R5-Pad2)*%
X6350000Y-29845000D03*
%TO.P,R6,2*%
%TO.N,Net-(C2-Pad1)*%
X6350000Y-17145000D03*
%TD*%
%TO.P,R3,1*%
%TO.N,Net-(R2-Pad2)*%
X2540000Y-29845000D03*
%TO.P,R3,2*%
%TO.N,Net-(C1-Pad1)*%
X2540000Y-17145000D03*
%TD*%
%TO.P,R8,1*%
%TO.N,Net-(D5-Pad1)*%
X42545000Y-29210000D03*
%TO.P,R8,2*%
%TO.N,Net-(R8-Pad2)*%
X29845000Y-29210000D03*
%TD*%
%TO.P,R7,1*%
%TO.N,Net-(D6-Pad1)*%
X42545000Y-25400000D03*
%TO.P,R7,2*%
%TO.N,Net-(R7-Pad2)*%
X29845000Y-25400000D03*
%TD*%
%TO.P,R4,1*%
%TO.N,Net-(D4-Pad1)*%
X42545000Y-21590000D03*
%TO.P,R4,2*%
%TO.N,Net-(R4-Pad2)*%
X29845000Y-21590000D03*
%TD*%
%TO.P,R5,1*%
%TO.N,Net-(D3-Pad1)*%
X42545000Y-17780000D03*
%TO.P,R5,2*%
%TO.N,Net-(R5-Pad2)*%
X29845000Y-17780000D03*
%TD*%
%TO.P,R2,1*%
%TO.N,Net-(D1-Pad1)*%
X42545000Y-13970000D03*
%TO.P,R2,2*%
%TO.N,Net-(R2-Pad2)*%
X29845000Y-13970000D03*
%TD*%
%TO.P,R1,1*%
%TO.N,Net-(D2-Pad1)*%
X42545000Y-10160000D03*
%TO.P,R1,2*%
%TO.N,Net-(R1-Pad2)*%
X29845000Y-10160000D03*
%TD*%
D18*
%TO.P,M3,*%
%TO.N,*%
X3175000Y-36195000D03*
%TD*%
%TO.P,M3,*%
%TO.N,*%
X3175000Y-3175000D03*
%TD*%
%TO.P,M3,*%
%TO.N,*%
X56515000Y-36195000D03*
%TD*%
%TO.P,M3,*%
%TO.N,*%
X56515000Y-3175000D03*
%TD*%
D19*
%TO.P,U1,1*%
%TO.N,Net-(C1-Pad1)*%
X15240000Y-13970000D03*
D20*
%TO.P,U1,8*%
%TO.N,Net-(R7-Pad2)*%
X22860000Y-29210000D03*
%TO.P,U1,2*%
%TO.N,Net-(R2-Pad2)*%
X15240000Y-16510000D03*
%TO.P,U1,9*%
%TO.N,Net-(R8-Pad2)*%
X22860000Y-26670000D03*
%TO.P,U1,3*%
%TO.N,Net-(C2-Pad1)*%
X15240000Y-19050000D03*
%TO.P,U1,10*%
%TO.N,Net-(R4-Pad2)*%
X22860000Y-24130000D03*
%TO.P,U1,4*%
%TO.N,Net-(R5-Pad2)*%
X15240000Y-21590000D03*
%TO.P,U1,11*%
X22860000Y-21590000D03*
%TO.P,U1,5*%
%TO.N,Net-(C3-Pad1)*%
X15240000Y-24130000D03*
%TO.P,U1,12*%
%TO.N,Net-(R1-Pad2)*%
X22860000Y-19050000D03*
%TO.P,U1,6*%
%TO.N,Net-(R8-Pad2)*%
X15240000Y-26670000D03*
%TO.P,U1,13*%
%TO.N,Net-(R2-Pad2)*%
X22860000Y-16510000D03*
%TO.P,U1,7*%
%TO.N,GND*%
X15240000Y-29210000D03*
%TO.P,U1,14*%
%TO.N,+BATT*%
X22860000Y-13970000D03*
%TD*%
D21*
%TO.P,BT1,1*%
%TO.N,Net-(BT1-Pad1)*%
X2540000Y-10160000D03*
D22*
%TO.P,BT1,2*%
%TO.N,GND*%
X2540000Y-12700000D03*
%TD*%
D23*
%TO.P,D1,1*%
%TO.N,Net-(D1-Pad1)*%
X27305000Y-3810000D03*
D24*
%TO.P,D1,2*%
%TO.N,+BATT*%
X29845000Y-3810000D03*
%TD*%
%TO.P,D2,2*%
%TO.N,+BATT*%
X45085000Y-3810000D03*
D23*
%TO.P,D2,1*%
%TO.N,Net-(D2-Pad1)*%
X42545000Y-3810000D03*
%TD*%
%TO.P,D3,1*%
%TO.N,Net-(D3-Pad1)*%
X54610000Y-12065000D03*
D24*
%TO.P,D3,2*%
%TO.N,+BATT*%
X57150000Y-12065000D03*
%TD*%
%TO.P,D4,2*%
%TO.N,+BATT*%
X57150000Y-27305000D03*
D23*
%TO.P,D4,1*%
%TO.N,Net-(D4-Pad1)*%
X54610000Y-27305000D03*
%TD*%
%TO.P,D5,1*%
%TO.N,Net-(D5-Pad1)*%
X42545000Y-35560000D03*
D24*
%TO.P,D5,2*%
%TO.N,+BATT*%
X45085000Y-35560000D03*
%TD*%
%TO.P,D6,2*%
%TO.N,+BATT*%
X29845000Y-35560000D03*
D23*
%TO.P,D6,1*%
%TO.N,Net-(D6-Pad1)*%
X27305000Y-35560000D03*
%TD*%
D25*
%TO.N,Net-(C1-Pad1)*%
X2540000Y-17145000D02*
X5080000Y-14605000D01*
X14605000Y-14605000D02*
X15240000Y-13970000D01*
X5080000Y-14605000D02*
X14605000Y-14605000D01*
X8890000Y-34290000D02*
X7620000Y-34290000D01*
X7620000Y-34290000D02*
X4445000Y-31115000D01*
X4445000Y-19050000D02*
X2540000Y-17145000D01*
X4445000Y-31115000D02*
X4445000Y-19050000D01*
%TO.N,Net-(R4-Pad2)*%
X22860000Y-24130000D02*
X27305000Y-24130000D01*
X27305000Y-24130000D02*
X29845000Y-21590000D01*
%TO.N,Net-(R2-Pad2)*%
X26670000Y-13970000D02*
X29845000Y-13970000D01*
X24130000Y-16510000D02*
X26670000Y-13970000D01*
X22860000Y-16510000D02*
X24130000Y-16510000D01*
X15240000Y-16510000D02*
X22860000Y-16510000D01*
%TO.N,Net-(R5-Pad2)*%
X22860000Y-21590000D02*
X23495000Y-21590000D01*
X22860000Y-21590000D02*
X26035000Y-21590000D01*
X26035000Y-21590000D02*
X29845000Y-17780000D01*
X15240000Y-21590000D02*
X22860000Y-21590000D01*
X12700000Y-21590000D02*
X15240000Y-21590000D01*
X6350000Y-29845000D02*
X6350000Y-27940000D01*
X6350000Y-27940000D02*
X12700000Y-21590000D01*
%TO.N,Net-(R8-Pad2)*%
X27305000Y-26670000D02*
X22860000Y-26670000D01*
X29845000Y-29210000D02*
X27305000Y-26670000D01*
X15240000Y-26670000D02*
X22860000Y-26670000D01*
X13335000Y-26670000D02*
X15240000Y-26670000D01*
X10160000Y-29845000D02*
X13335000Y-26670000D01*
%TO.N,Net-(R1-Pad2)*%
X31750000Y-14605000D02*
X31750000Y-12065000D01*
X27940000Y-15875000D02*
X30480000Y-15875000D01*
X22860000Y-19050000D02*
X24765000Y-19050000D01*
X24765000Y-19050000D02*
X27940000Y-15875000D01*
X30480000Y-15875000D02*
X31750000Y-14605000D01*
X31750000Y-12065000D02*
X29845000Y-10160000D01*
%TO.N,Net-(C2-Pad1)*%
X8255000Y-19050000D02*
X6350000Y-17145000D01*
X15240000Y-19050000D02*
X8255000Y-19050000D01*
%TO.N,Net-(R7-Pad2)*%
X31750000Y-27305000D02*
X29845000Y-25400000D01*
X31750000Y-30480000D02*
X31750000Y-27305000D01*
X30480000Y-31750000D02*
X31750000Y-30480000D01*
X28575000Y-31750000D02*
X30480000Y-31750000D01*
X26035000Y-29210000D02*
X28575000Y-31750000D01*
X22860000Y-29210000D02*
X26035000Y-29210000D01*
%TO.N,GND*%
X5715000Y-12700000D02*
X8255000Y-10160000D01*
X2540000Y-12700000D02*
X5715000Y-12700000D01*
X10890000Y-10255000D02*
X10795000Y-10160000D01*
X10890000Y-10700000D02*
X11430000Y-10160000D01*
X11430000Y-10160000D02*
X15360000Y-10160000D01*
X10795000Y-10160000D02*
X11430000Y-10160000D01*
X10890000Y-12065000D02*
X10890000Y-10700000D01*
X10890000Y-10700000D02*
X10890000Y-10255000D01*
X10890000Y-10700000D02*
X10700000Y-10700000D01*
X10700000Y-10700000D02*
X10160000Y-10160000D01*
X10160000Y-10160000D02*
X10795000Y-10160000D01*
X8255000Y-10160000D02*
X10160000Y-10160000D01*
X16605000Y-34290000D02*
X16605000Y-33115000D01*
X15240000Y-31750000D02*
X15240000Y-29210000D01*
X16605000Y-33115000D02*
X15240000Y-31750000D01*
X10890000Y-34290000D02*
X10890000Y-35020000D01*
X10890000Y-35020000D02*
X12065000Y-36195000D01*
X12065000Y-36195000D02*
X15875000Y-36195000D01*
X16605000Y-35465000D02*
X16605000Y-34290000D01*
X15875000Y-36195000D02*
X16605000Y-35465000D01*
X15240000Y-10160000D02*
X17780000Y-10160000D01*
%TO.N,+BATT*%
X32385000Y-38100000D02*
X43180000Y-38100000D01*
X29845000Y-35560000D02*
X32385000Y-38100000D01*
X57150000Y-28575000D02*
X57150000Y-27305000D01*
X50165000Y-35560000D02*
X57150000Y-28575000D01*
X57150000Y-27305000D02*
X57150000Y-12065000D01*
X45085000Y-2540000D02*
X45085000Y-3810000D01*
X31750000Y-1905000D02*
X44450000Y-1905000D01*
X44450000Y-1905000D02*
X45085000Y-2540000D01*
X29845000Y-2540000D02*
X30480000Y-1905000D01*
X30480000Y-1905000D02*
X31750000Y-1905000D01*
X29845000Y-2540000D02*
X29210000Y-1905000D01*
X29845000Y-3810000D02*
X29845000Y-2540000D01*
X29210000Y-1905000D02*
X30480000Y-1905000D01*
X47625000Y-38100000D02*
X50165000Y-35560000D01*
X45085000Y-35560000D02*
X45085000Y-37465000D01*
X43180000Y-38100000D02*
X44450000Y-38100000D01*
X45085000Y-37465000D02*
X45720000Y-38100000D01*
X45720000Y-38100000D02*
X47625000Y-38100000D01*
X44450000Y-38100000D02*
X45720000Y-38100000D01*
X45085000Y-2540000D02*
X45720000Y-1905000D01*
X45720000Y-1905000D02*
X44450000Y-1905000D01*
X45085000Y-37465000D02*
X44450000Y-38100000D01*
X45720000Y-1905000D02*
X48260000Y-1905000D01*
X57150000Y-10795000D02*
X57150000Y-12065000D01*
X48260000Y-1905000D02*
X57150000Y-10795000D01*
X20955000Y-6985000D02*
X22860000Y-8890000D01*
X20320000Y-6985000D02*
X20955000Y-6985000D01*
X22860000Y-8890000D02*
X22860000Y-6985000D01*
X22860000Y-10160000D02*
X22860000Y-8890000D01*
X20955000Y-6985000D02*
X22860000Y-5080000D01*
X22860000Y-6985000D02*
X22860000Y-5080000D01*
X26035000Y-1905000D02*
X29210000Y-1905000D01*
X22860000Y-5080000D02*
X26035000Y-1905000D01*
X15680000Y-3810000D02*
X15680000Y-5520000D01*
X17145000Y-6985000D02*
X20320000Y-6985000D01*
X15680000Y-5520000D02*
X17145000Y-6985000D01*
X22860000Y-13970000D02*
X22860000Y-10160000D01*
X22860000Y-10160000D02*
X20320000Y-10160000D01*
%TO.N,Net-(D1-Pad1)*%
X30480000Y-6985000D02*
X27305000Y-3810000D01*
X35560000Y-6985000D02*
X30480000Y-6985000D01*
X42545000Y-13970000D02*
X35560000Y-6985000D01*
%TO.N,Net-(D2-Pad1)*%
X42545000Y-10160000D02*
X42545000Y-3810000D01*
%TO.N,Net-(D3-Pad1)*%
X42545000Y-17780000D02*
X48260000Y-12065000D01*
X48260000Y-12065000D02*
X54610000Y-12065000D01*
%TO.N,Net-(D4-Pad1)*%
X42545000Y-21590000D02*
X48260000Y-27305000D01*
X48260000Y-27305000D02*
X54610000Y-27305000D01*
%TO.N,Net-(D5-Pad1)*%
X42545000Y-29210000D02*
X42545000Y-35560000D01*
%TO.N,Net-(D6-Pad1)*%
X34925000Y-33020000D02*
X42545000Y-25400000D01*
X29210000Y-33020000D02*
X34925000Y-33020000D01*
X27305000Y-34925000D02*
X29210000Y-33020000D01*
X27305000Y-35560000D02*
X27305000Y-34925000D01*
%TO.N,Net-(BT1-Pad1)*%
X13680000Y-5370000D02*
X13680000Y-3810000D01*
X5715000Y-10160000D02*
X8890000Y-6985000D01*
X8890000Y-6985000D02*
X12065000Y-6985000D01*
X12065000Y-6985000D02*
X13680000Y-5370000D01*
X2540000Y-10160000D02*
X5715000Y-10160000D01*
%TD*%
M02*
