%TF.GenerationSoftware,KiCad,Pcbnew,(5.1.12)-1*%
%TF.CreationDate,2022-01-26T16:18:48+01:00*%
%TF.ProjectId,pcb-luces-led-navidad,7063622d-6c75-4636-9573-2d6c65642d6e,R2*%
%TF.SameCoordinates,PX3072580PY3072580*%
%TF.FileFunction,Legend,Bot*%
%TF.FilePolarity,Positive*%
%FSLAX46Y46*%
G04 Gerber Fmt 4.6, Leading zero omitted, Abs format (unit mm)*
G04 Created by KiCad (PCBNEW (5.1.12)-1) date 2022-01-26 16:18:48*
%MOMM*%
%LPD*%
G01*
G04 APERTURE LIST*
%ADD10C,0.250000*%
%ADD11C,0.300000*%
G04 APERTURE END LIST*
D10*
X27574761Y-6065952D02*
X27574761Y-5113571D01*
X25574761Y-5113571D01*
X25574761Y-6732619D02*
X27193809Y-6732619D01*
X27384285Y-6827857D01*
X27479523Y-6923095D01*
X27574761Y-7113571D01*
X27574761Y-7494523D01*
X27479523Y-7685000D01*
X27384285Y-7780238D01*
X27193809Y-7875476D01*
X25574761Y-7875476D01*
X27384285Y-9970714D02*
X27479523Y-9875476D01*
X27574761Y-9589761D01*
X27574761Y-9399285D01*
X27479523Y-9113571D01*
X27289047Y-8923095D01*
X27098571Y-8827857D01*
X26717619Y-8732619D01*
X26431904Y-8732619D01*
X26050952Y-8827857D01*
X25860476Y-8923095D01*
X25670000Y-9113571D01*
X25574761Y-9399285D01*
X25574761Y-9589761D01*
X25670000Y-9875476D01*
X25765238Y-9970714D01*
X26527142Y-10827857D02*
X26527142Y-11494523D01*
X27574761Y-11780238D02*
X27574761Y-10827857D01*
X25574761Y-10827857D01*
X25574761Y-11780238D01*
X27479523Y-12542142D02*
X27574761Y-12827857D01*
X27574761Y-13304047D01*
X27479523Y-13494523D01*
X27384285Y-13589761D01*
X27193809Y-13685000D01*
X27003333Y-13685000D01*
X26812857Y-13589761D01*
X26717619Y-13494523D01*
X26622380Y-13304047D01*
X26527142Y-12923095D01*
X26431904Y-12732619D01*
X26336666Y-12637380D01*
X26146190Y-12542142D01*
X25955714Y-12542142D01*
X25765238Y-12637380D01*
X25670000Y-12732619D01*
X25574761Y-12923095D01*
X25574761Y-13399285D01*
X25670000Y-13685000D01*
X27574761Y-17018333D02*
X27574761Y-16065952D01*
X25574761Y-16065952D01*
X26527142Y-17685000D02*
X26527142Y-18351666D01*
X27574761Y-18637380D02*
X27574761Y-17685000D01*
X25574761Y-17685000D01*
X25574761Y-18637380D01*
X27574761Y-19494523D02*
X25574761Y-19494523D01*
X25574761Y-19970714D01*
X25670000Y-20256428D01*
X25860476Y-20446904D01*
X26050952Y-20542142D01*
X26431904Y-20637380D01*
X26717619Y-20637380D01*
X27098571Y-20542142D01*
X27289047Y-20446904D01*
X27479523Y-20256428D01*
X27574761Y-19970714D01*
X27574761Y-19494523D01*
X27574761Y-23018333D02*
X25574761Y-23018333D01*
X27574761Y-24161190D01*
X25574761Y-24161190D01*
X27003333Y-25018333D02*
X27003333Y-25970714D01*
X27574761Y-24827857D02*
X25574761Y-25494523D01*
X27574761Y-26161190D01*
X25574761Y-26542142D02*
X27574761Y-27208809D01*
X25574761Y-27875476D01*
X27574761Y-28542142D02*
X25574761Y-28542142D01*
X27574761Y-29494523D02*
X25574761Y-29494523D01*
X25574761Y-29970714D01*
X25670000Y-30256428D01*
X25860476Y-30446904D01*
X26050952Y-30542142D01*
X26431904Y-30637380D01*
X26717619Y-30637380D01*
X27098571Y-30542142D01*
X27289047Y-30446904D01*
X27479523Y-30256428D01*
X27574761Y-29970714D01*
X27574761Y-29494523D01*
X27003333Y-31399285D02*
X27003333Y-32351666D01*
X27574761Y-31208809D02*
X25574761Y-31875476D01*
X27574761Y-32542142D01*
X27574761Y-33208809D02*
X25574761Y-33208809D01*
X25574761Y-33685000D01*
X25670000Y-33970714D01*
X25860476Y-34161190D01*
X26050952Y-34256428D01*
X26431904Y-34351666D01*
X26717619Y-34351666D01*
X27098571Y-34256428D01*
X27289047Y-34161190D01*
X27479523Y-33970714D01*
X27574761Y-33685000D01*
X27574761Y-33208809D01*
X18145238Y-14335952D02*
X18050000Y-14431190D01*
X17954761Y-14621666D01*
X17954761Y-15097857D01*
X18050000Y-15288333D01*
X18145238Y-15383571D01*
X18335714Y-15478809D01*
X18526190Y-15478809D01*
X18811904Y-15383571D01*
X19954761Y-14240714D01*
X19954761Y-15478809D01*
X17954761Y-16716904D02*
X17954761Y-16907380D01*
X18050000Y-17097857D01*
X18145238Y-17193095D01*
X18335714Y-17288333D01*
X18716666Y-17383571D01*
X19192857Y-17383571D01*
X19573809Y-17288333D01*
X19764285Y-17193095D01*
X19859523Y-17097857D01*
X19954761Y-16907380D01*
X19954761Y-16716904D01*
X19859523Y-16526428D01*
X19764285Y-16431190D01*
X19573809Y-16335952D01*
X19192857Y-16240714D01*
X18716666Y-16240714D01*
X18335714Y-16335952D01*
X18145238Y-16431190D01*
X18050000Y-16526428D01*
X17954761Y-16716904D01*
X18145238Y-18145476D02*
X18050000Y-18240714D01*
X17954761Y-18431190D01*
X17954761Y-18907380D01*
X18050000Y-19097857D01*
X18145238Y-19193095D01*
X18335714Y-19288333D01*
X18526190Y-19288333D01*
X18811904Y-19193095D01*
X19954761Y-18050238D01*
X19954761Y-19288333D01*
X18145238Y-20050238D02*
X18050000Y-20145476D01*
X17954761Y-20335952D01*
X17954761Y-20812142D01*
X18050000Y-21002619D01*
X18145238Y-21097857D01*
X18335714Y-21193095D01*
X18526190Y-21193095D01*
X18811904Y-21097857D01*
X19954761Y-19955000D01*
X19954761Y-21193095D01*
X19192857Y-22050238D02*
X19192857Y-23574047D01*
X19954761Y-25669285D02*
X19002380Y-25002619D01*
X19954761Y-24526428D02*
X17954761Y-24526428D01*
X17954761Y-25288333D01*
X18050000Y-25478809D01*
X18145238Y-25574047D01*
X18335714Y-25669285D01*
X18621428Y-25669285D01*
X18811904Y-25574047D01*
X18907142Y-25478809D01*
X19002380Y-25288333D01*
X19002380Y-24526428D01*
X18145238Y-26431190D02*
X18050000Y-26526428D01*
X17954761Y-26716904D01*
X17954761Y-27193095D01*
X18050000Y-27383571D01*
X18145238Y-27478809D01*
X18335714Y-27574047D01*
X18526190Y-27574047D01*
X18811904Y-27478809D01*
X19954761Y-26335952D01*
X19954761Y-27574047D01*
D11*
%TO.C,Picuino_Logo_B6*%
X38798500Y-21785580D02*
G75*
G03*
X38798500Y-21785580I-698500J0D01*
G01*
X37398960Y-19286220D02*
X37398960Y-20083780D01*
X37701220Y-20386040D02*
X38498780Y-20386040D01*
X38798500Y-17584420D02*
G75*
G03*
X38798500Y-17584420I-698500J0D01*
G01*
X38498780Y-18983960D02*
X37701220Y-18983960D01*
X38801040Y-20083780D02*
X38801040Y-19286220D01*
X36347400Y-20736560D02*
G75*
G02*
X37398960Y-19685000I1051560J0D01*
G01*
X37398960Y-19286220D02*
G75*
G02*
X37701220Y-18983960I302260J0D01*
G01*
X38801040Y-20083780D02*
G75*
G02*
X38498780Y-20386040I-302260J0D01*
G01*
X37398960Y-21785580D02*
G75*
G02*
X36349940Y-20736560I0J1049020D01*
G01*
X38801040Y-17584420D02*
G75*
G02*
X39850060Y-18633440I0J-1049020D01*
G01*
X39852600Y-18633440D02*
G75*
G02*
X38801040Y-19685000I-1051560J0D01*
G01*
X38498780Y-18983960D02*
G75*
G02*
X38801040Y-19286220I0J-302260D01*
G01*
X37701220Y-20386040D02*
G75*
G02*
X37398960Y-20083780I0J302260D01*
G01*
D10*
X34496428Y-10435000D02*
X35829761Y-10720714D01*
X34877380Y-11006428D01*
X35829761Y-11292142D01*
X34496428Y-11577857D01*
X34496428Y-12006428D02*
X35829761Y-12292142D01*
X34877380Y-12577857D01*
X35829761Y-12863571D01*
X34496428Y-13149285D01*
X34496428Y-13577857D02*
X35829761Y-13863571D01*
X34877380Y-14149285D01*
X35829761Y-14435000D01*
X34496428Y-14720714D01*
X35639285Y-15292142D02*
X35734523Y-15363571D01*
X35829761Y-15292142D01*
X35734523Y-15220714D01*
X35639285Y-15292142D01*
X35829761Y-15292142D01*
X34496428Y-16006428D02*
X36496428Y-16006428D01*
X34591666Y-16006428D02*
X34496428Y-16149285D01*
X34496428Y-16435000D01*
X34591666Y-16577857D01*
X34686904Y-16649285D01*
X34877380Y-16720714D01*
X35448809Y-16720714D01*
X35639285Y-16649285D01*
X35734523Y-16577857D01*
X35829761Y-16435000D01*
X35829761Y-16149285D01*
X35734523Y-16006428D01*
X35829761Y-17363571D02*
X34496428Y-17363571D01*
X33829761Y-17363571D02*
X33925000Y-17292142D01*
X34020238Y-17363571D01*
X33925000Y-17435000D01*
X33829761Y-17363571D01*
X34020238Y-17363571D01*
X35734523Y-18720714D02*
X35829761Y-18577857D01*
X35829761Y-18292142D01*
X35734523Y-18149285D01*
X35639285Y-18077857D01*
X35448809Y-18006428D01*
X34877380Y-18006428D01*
X34686904Y-18077857D01*
X34591666Y-18149285D01*
X34496428Y-18292142D01*
X34496428Y-18577857D01*
X34591666Y-18720714D01*
X34496428Y-20006428D02*
X35829761Y-20006428D01*
X34496428Y-19363571D02*
X35544047Y-19363571D01*
X35734523Y-19435000D01*
X35829761Y-19577857D01*
X35829761Y-19792142D01*
X35734523Y-19935000D01*
X35639285Y-20006428D01*
X35829761Y-20720714D02*
X34496428Y-20720714D01*
X33829761Y-20720714D02*
X33925000Y-20649285D01*
X34020238Y-20720714D01*
X33925000Y-20792142D01*
X33829761Y-20720714D01*
X34020238Y-20720714D01*
X34496428Y-21435000D02*
X35829761Y-21435000D01*
X34686904Y-21435000D02*
X34591666Y-21506428D01*
X34496428Y-21649285D01*
X34496428Y-21863571D01*
X34591666Y-22006428D01*
X34782142Y-22077857D01*
X35829761Y-22077857D01*
X35829761Y-23006428D02*
X35734523Y-22863571D01*
X35639285Y-22792142D01*
X35448809Y-22720714D01*
X34877380Y-22720714D01*
X34686904Y-22792142D01*
X34591666Y-22863571D01*
X34496428Y-23006428D01*
X34496428Y-23220714D01*
X34591666Y-23363571D01*
X34686904Y-23435000D01*
X34877380Y-23506428D01*
X35448809Y-23506428D01*
X35639285Y-23435000D01*
X35734523Y-23363571D01*
X35829761Y-23220714D01*
X35829761Y-23006428D01*
X35639285Y-24149285D02*
X35734523Y-24220714D01*
X35829761Y-24149285D01*
X35734523Y-24077857D01*
X35639285Y-24149285D01*
X35829761Y-24149285D01*
X35734523Y-25506428D02*
X35829761Y-25363571D01*
X35829761Y-25077857D01*
X35734523Y-24935000D01*
X35639285Y-24863571D01*
X35448809Y-24792142D01*
X34877380Y-24792142D01*
X34686904Y-24863571D01*
X34591666Y-24935000D01*
X34496428Y-25077857D01*
X34496428Y-25363571D01*
X34591666Y-25506428D01*
X35829761Y-26363571D02*
X35734523Y-26220714D01*
X35639285Y-26149285D01*
X35448809Y-26077857D01*
X34877380Y-26077857D01*
X34686904Y-26149285D01*
X34591666Y-26220714D01*
X34496428Y-26363571D01*
X34496428Y-26577857D01*
X34591666Y-26720714D01*
X34686904Y-26792142D01*
X34877380Y-26863571D01*
X35448809Y-26863571D01*
X35639285Y-26792142D01*
X35734523Y-26720714D01*
X35829761Y-26577857D01*
X35829761Y-26363571D01*
X35829761Y-27506428D02*
X34496428Y-27506428D01*
X34686904Y-27506428D02*
X34591666Y-27577857D01*
X34496428Y-27720714D01*
X34496428Y-27935000D01*
X34591666Y-28077857D01*
X34782142Y-28149285D01*
X35829761Y-28149285D01*
X34782142Y-28149285D02*
X34591666Y-28220714D01*
X34496428Y-28363571D01*
X34496428Y-28577857D01*
X34591666Y-28720714D01*
X34782142Y-28792142D01*
X35829761Y-28792142D01*
%TD*%
M02*
