%TF.GenerationSoftware,KiCad,Pcbnew,(5.1.12)-1*%
%TF.CreationDate,2022-01-26T16:18:48+01:00*%
%TF.ProjectId,pcb-luces-led-navidad,7063622d-6c75-4636-9573-2d6c65642d6e,R2*%
%TF.SameCoordinates,PX3072580PY3072580*%
%TF.FileFunction,Copper,L1,Top*%
%TF.FilePolarity,Positive*%
%FSLAX46Y46*%
G04 Gerber Fmt 4.6, Leading zero omitted, Abs format (unit mm)*
G04 Created by KiCad (PCBNEW (5.1.12)-1) date 2022-01-26 16:18:48*
%MOMM*%
%LPD*%
G01*
G04 APERTURE LIST*
%ADD10C,0.250000*%
%TA.AperFunction,EtchedComponent*%
%ADD11C,0.300000*%
%TD*%
%TA.AperFunction,ComponentPad*%
%ADD12C,2.000000*%
%TD*%
%TA.AperFunction,ComponentPad*%
%ADD13R,1.500000X2.500000*%
%TD*%
%TA.AperFunction,ComponentPad*%
%ADD14O,1.500000X2.500000*%
%TD*%
%TA.AperFunction,ComponentPad*%
%ADD15O,2.200000X3.500000*%
%TD*%
%TA.AperFunction,ComponentPad*%
%ADD16R,1.600000X1.600000*%
%TD*%
%TA.AperFunction,ComponentPad*%
%ADD17C,1.600000*%
%TD*%
%TA.AperFunction,ComponentPad*%
%ADD18C,6.096000*%
%TD*%
%TA.AperFunction,ComponentPad*%
%ADD19R,2.400000X1.600000*%
%TD*%
%TA.AperFunction,ComponentPad*%
%ADD20O,2.400000X1.600000*%
%TD*%
%TA.AperFunction,ComponentPad*%
%ADD21R,1.700000X1.700000*%
%TD*%
%TA.AperFunction,ComponentPad*%
%ADD22O,1.700000X1.700000*%
%TD*%
%TA.AperFunction,ComponentPad*%
%ADD23R,1.800000X1.800000*%
%TD*%
%TA.AperFunction,ComponentPad*%
%ADD24C,1.800000*%
%TD*%
%TA.AperFunction,Conductor*%
%ADD25C,0.635000*%
%TD*%
G04 APERTURE END LIST*
%TO.C,Picuino_Logo_B6*%
D10*
X49101428Y-28300000D02*
X50434761Y-28014285D01*
X49482380Y-27728571D01*
X50434761Y-27442857D01*
X49101428Y-27157142D01*
X49101428Y-26728571D02*
X50434761Y-26442857D01*
X49482380Y-26157142D01*
X50434761Y-25871428D01*
X49101428Y-25585714D01*
X49101428Y-25157142D02*
X50434761Y-24871428D01*
X49482380Y-24585714D01*
X50434761Y-24300000D01*
X49101428Y-24014285D01*
X50244285Y-23442857D02*
X50339523Y-23371428D01*
X50434761Y-23442857D01*
X50339523Y-23514285D01*
X50244285Y-23442857D01*
X50434761Y-23442857D01*
X49101428Y-22728571D02*
X51101428Y-22728571D01*
X49196666Y-22728571D02*
X49101428Y-22585714D01*
X49101428Y-22300000D01*
X49196666Y-22157142D01*
X49291904Y-22085714D01*
X49482380Y-22014285D01*
X50053809Y-22014285D01*
X50244285Y-22085714D01*
X50339523Y-22157142D01*
X50434761Y-22300000D01*
X50434761Y-22585714D01*
X50339523Y-22728571D01*
X50434761Y-21371428D02*
X49101428Y-21371428D01*
X48434761Y-21371428D02*
X48530000Y-21442857D01*
X48625238Y-21371428D01*
X48530000Y-21300000D01*
X48434761Y-21371428D01*
X48625238Y-21371428D01*
X50339523Y-20014285D02*
X50434761Y-20157142D01*
X50434761Y-20442857D01*
X50339523Y-20585714D01*
X50244285Y-20657142D01*
X50053809Y-20728571D01*
X49482380Y-20728571D01*
X49291904Y-20657142D01*
X49196666Y-20585714D01*
X49101428Y-20442857D01*
X49101428Y-20157142D01*
X49196666Y-20014285D01*
X49101428Y-18728571D02*
X50434761Y-18728571D01*
X49101428Y-19371428D02*
X50149047Y-19371428D01*
X50339523Y-19300000D01*
X50434761Y-19157142D01*
X50434761Y-18942857D01*
X50339523Y-18800000D01*
X50244285Y-18728571D01*
X50434761Y-18014285D02*
X49101428Y-18014285D01*
X48434761Y-18014285D02*
X48530000Y-18085714D01*
X48625238Y-18014285D01*
X48530000Y-17942857D01*
X48434761Y-18014285D01*
X48625238Y-18014285D01*
X49101428Y-17300000D02*
X50434761Y-17300000D01*
X49291904Y-17300000D02*
X49196666Y-17228571D01*
X49101428Y-17085714D01*
X49101428Y-16871428D01*
X49196666Y-16728571D01*
X49387142Y-16657142D01*
X50434761Y-16657142D01*
X50434761Y-15728571D02*
X50339523Y-15871428D01*
X50244285Y-15942857D01*
X50053809Y-16014285D01*
X49482380Y-16014285D01*
X49291904Y-15942857D01*
X49196666Y-15871428D01*
X49101428Y-15728571D01*
X49101428Y-15514285D01*
X49196666Y-15371428D01*
X49291904Y-15300000D01*
X49482380Y-15228571D01*
X50053809Y-15228571D01*
X50244285Y-15300000D01*
X50339523Y-15371428D01*
X50434761Y-15514285D01*
X50434761Y-15728571D01*
X50244285Y-14585714D02*
X50339523Y-14514285D01*
X50434761Y-14585714D01*
X50339523Y-14657142D01*
X50244285Y-14585714D01*
X50434761Y-14585714D01*
X50339523Y-13228571D02*
X50434761Y-13371428D01*
X50434761Y-13657142D01*
X50339523Y-13800000D01*
X50244285Y-13871428D01*
X50053809Y-13942857D01*
X49482380Y-13942857D01*
X49291904Y-13871428D01*
X49196666Y-13800000D01*
X49101428Y-13657142D01*
X49101428Y-13371428D01*
X49196666Y-13228571D01*
X50434761Y-12371428D02*
X50339523Y-12514285D01*
X50244285Y-12585714D01*
X50053809Y-12657142D01*
X49482380Y-12657142D01*
X49291904Y-12585714D01*
X49196666Y-12514285D01*
X49101428Y-12371428D01*
X49101428Y-12157142D01*
X49196666Y-12014285D01*
X49291904Y-11942857D01*
X49482380Y-11871428D01*
X50053809Y-11871428D01*
X50244285Y-11942857D01*
X50339523Y-12014285D01*
X50434761Y-12157142D01*
X50434761Y-12371428D01*
X50434761Y-11228571D02*
X49101428Y-11228571D01*
X49291904Y-11228571D02*
X49196666Y-11157142D01*
X49101428Y-11014285D01*
X49101428Y-10800000D01*
X49196666Y-10657142D01*
X49387142Y-10585714D01*
X50434761Y-10585714D01*
X49387142Y-10585714D02*
X49196666Y-10514285D01*
X49101428Y-10371428D01*
X49101428Y-10157142D01*
X49196666Y-10014285D01*
X49387142Y-9942857D01*
X50434761Y-9942857D01*
D11*
X53403500Y-16949420D02*
G75*
G03*
X53403500Y-16949420I-698500J0D01*
G01*
X52003960Y-19448780D02*
X52003960Y-18651220D01*
X52306220Y-18348960D02*
X53103780Y-18348960D01*
X53406040Y-18651220D02*
X53406040Y-19448780D01*
X53103780Y-19751040D02*
X52306220Y-19751040D01*
X53403500Y-21150580D02*
G75*
G03*
X53403500Y-21150580I-698500J0D01*
G01*
X52003960Y-19448780D02*
G75*
G03*
X52306220Y-19751040I302260J0D01*
G01*
X52306220Y-18348960D02*
G75*
G03*
X52003960Y-18651220I0J-302260D01*
G01*
X53406040Y-18651220D02*
G75*
G03*
X53103780Y-18348960I-302260J0D01*
G01*
X53103780Y-19751040D02*
G75*
G03*
X53406040Y-19448780I0J302260D01*
G01*
X54457600Y-20101560D02*
G75*
G03*
X53406040Y-19050000I-1051560J0D01*
G01*
X53406040Y-21150580D02*
G75*
G03*
X54455060Y-20101560I0J1049020D01*
G01*
X50952400Y-17998440D02*
G75*
G03*
X52003960Y-19050000I1051560J0D01*
G01*
X52003960Y-16949420D02*
G75*
G03*
X50954940Y-17998440I0J-1049020D01*
G01*
%TD*%
D12*
%TO.P,C4,1*%
%TO.N,+BATT*%
X22860000Y-10160000D03*
%TO.P,C4,2*%
%TO.N,GND*%
X15240000Y-10160000D03*
X17780000Y-10160000D03*
%TO.P,C4,1*%
%TO.N,+BATT*%
X20320000Y-10160000D03*
%TD*%
D13*
%TO.P,SW1,1*%
%TO.N,+BATT*%
X15680000Y-3810000D03*
D14*
%TO.P,SW1,2*%
%TO.N,Net-(BT1-Pad1)*%
X13680000Y-3810000D03*
%TO.P,SW1,3*%
%TO.N,Net-(SW1-Pad3)*%
X11680000Y-3810000D03*
D15*
%TO.P,SW1,*%
%TO.N,*%
X17780000Y-3810000D03*
X9580000Y-3810000D03*
%TD*%
D16*
%TO.P,C3,1*%
%TO.N,Net-(C3-Pad1)*%
X8890000Y-12065000D03*
D17*
%TO.P,C3,2*%
%TO.N,GND*%
X10890000Y-12065000D03*
%TD*%
D16*
%TO.P,C1,1*%
%TO.N,Net-(C1-Pad1)*%
X8890000Y-34290000D03*
D17*
%TO.P,C1,2*%
%TO.N,GND*%
X10890000Y-34290000D03*
%TD*%
D16*
%TO.P,C2,1*%
%TO.N,Net-(C2-Pad1)*%
X14605000Y-34290000D03*
D17*
%TO.P,C2,2*%
%TO.N,GND*%
X16605000Y-34290000D03*
%TD*%
D12*
%TO.P,R9,1*%
%TO.N,Net-(R8-Pad2)*%
X10160000Y-29845000D03*
%TO.P,R9,2*%
%TO.N,Net-(C3-Pad1)*%
X10160000Y-17145000D03*
%TD*%
%TO.P,R6,1*%
%TO.N,Net-(R5-Pad2)*%
X6350000Y-29845000D03*
%TO.P,R6,2*%
%TO.N,Net-(C2-Pad1)*%
X6350000Y-17145000D03*
%TD*%
%TO.P,R3,1*%
%TO.N,Net-(R2-Pad2)*%
X2540000Y-29845000D03*
%TO.P,R3,2*%
%TO.N,Net-(C1-Pad1)*%
X2540000Y-17145000D03*
%TD*%
%TO.P,R8,1*%
%TO.N,Net-(D5-Pad1)*%
X42545000Y-29210000D03*
%TO.P,R8,2*%
%TO.N,Net-(R8-Pad2)*%
X29845000Y-29210000D03*
%TD*%
%TO.P,R7,1*%
%TO.N,Net-(D6-Pad1)*%
X42545000Y-25400000D03*
%TO.P,R7,2*%
%TO.N,Net-(R7-Pad2)*%
X29845000Y-25400000D03*
%TD*%
%TO.P,R4,1*%
%TO.N,Net-(D4-Pad1)*%
X42545000Y-21590000D03*
%TO.P,R4,2*%
%TO.N,Net-(R4-Pad2)*%
X29845000Y-21590000D03*
%TD*%
%TO.P,R5,1*%
%TO.N,Net-(D3-Pad1)*%
X42545000Y-17780000D03*
%TO.P,R5,2*%
%TO.N,Net-(R5-Pad2)*%
X29845000Y-17780000D03*
%TD*%
%TO.P,R2,1*%
%TO.N,Net-(D1-Pad1)*%
X42545000Y-13970000D03*
%TO.P,R2,2*%
%TO.N,Net-(R2-Pad2)*%
X29845000Y-13970000D03*
%TD*%
%TO.P,R1,1*%
%TO.N,Net-(D2-Pad1)*%
X42545000Y-10160000D03*
%TO.P,R1,2*%
%TO.N,Net-(R1-Pad2)*%
X29845000Y-10160000D03*
%TD*%
D18*
%TO.P,M3,*%
%TO.N,*%
X3175000Y-36195000D03*
%TD*%
%TO.P,M3,*%
%TO.N,*%
X3175000Y-3175000D03*
%TD*%
%TO.P,M3,*%
%TO.N,*%
X56515000Y-36195000D03*
%TD*%
%TO.P,M3,*%
%TO.N,*%
X56515000Y-3175000D03*
%TD*%
D19*
%TO.P,U1,1*%
%TO.N,Net-(C1-Pad1)*%
X15240000Y-13970000D03*
D20*
%TO.P,U1,8*%
%TO.N,Net-(R7-Pad2)*%
X22860000Y-29210000D03*
%TO.P,U1,2*%
%TO.N,Net-(R2-Pad2)*%
X15240000Y-16510000D03*
%TO.P,U1,9*%
%TO.N,Net-(R8-Pad2)*%
X22860000Y-26670000D03*
%TO.P,U1,3*%
%TO.N,Net-(C2-Pad1)*%
X15240000Y-19050000D03*
%TO.P,U1,10*%
%TO.N,Net-(R4-Pad2)*%
X22860000Y-24130000D03*
%TO.P,U1,4*%
%TO.N,Net-(R5-Pad2)*%
X15240000Y-21590000D03*
%TO.P,U1,11*%
X22860000Y-21590000D03*
%TO.P,U1,5*%
%TO.N,Net-(C3-Pad1)*%
X15240000Y-24130000D03*
%TO.P,U1,12*%
%TO.N,Net-(R1-Pad2)*%
X22860000Y-19050000D03*
%TO.P,U1,6*%
%TO.N,Net-(R8-Pad2)*%
X15240000Y-26670000D03*
%TO.P,U1,13*%
%TO.N,Net-(R2-Pad2)*%
X22860000Y-16510000D03*
%TO.P,U1,7*%
%TO.N,GND*%
X15240000Y-29210000D03*
%TO.P,U1,14*%
%TO.N,+BATT*%
X22860000Y-13970000D03*
%TD*%
D21*
%TO.P,BT1,1*%
%TO.N,Net-(BT1-Pad1)*%
X2540000Y-10160000D03*
D22*
%TO.P,BT1,2*%
%TO.N,GND*%
X2540000Y-12700000D03*
%TD*%
D23*
%TO.P,D1,1*%
%TO.N,Net-(D1-Pad1)*%
X27305000Y-3810000D03*
D24*
%TO.P,D1,2*%
%TO.N,+BATT*%
X29845000Y-3810000D03*
%TD*%
%TO.P,D2,2*%
%TO.N,+BATT*%
X45085000Y-3810000D03*
D23*
%TO.P,D2,1*%
%TO.N,Net-(D2-Pad1)*%
X42545000Y-3810000D03*
%TD*%
%TO.P,D3,1*%
%TO.N,Net-(D3-Pad1)*%
X54610000Y-12065000D03*
D24*
%TO.P,D3,2*%
%TO.N,+BATT*%
X57150000Y-12065000D03*
%TD*%
%TO.P,D4,2*%
%TO.N,+BATT*%
X57150000Y-27305000D03*
D23*
%TO.P,D4,1*%
%TO.N,Net-(D4-Pad1)*%
X54610000Y-27305000D03*
%TD*%
%TO.P,D5,1*%
%TO.N,Net-(D5-Pad1)*%
X42545000Y-35560000D03*
D24*
%TO.P,D5,2*%
%TO.N,+BATT*%
X45085000Y-35560000D03*
%TD*%
%TO.P,D6,2*%
%TO.N,+BATT*%
X29845000Y-35560000D03*
D23*
%TO.P,D6,1*%
%TO.N,Net-(D6-Pad1)*%
X27305000Y-35560000D03*
%TD*%
D25*
%TO.N,Net-(R2-Pad2)*%
X2540000Y-28430787D02*
X14460787Y-16510000D01*
X2540000Y-29845000D02*
X2540000Y-28430787D01*
X14460787Y-16510000D02*
X15240000Y-16510000D01*
%TO.N,Net-(C3-Pad1)*%
X16510000Y-24130000D02*
X15240000Y-24130000D01*
X17780000Y-22860000D02*
X16510000Y-24130000D01*
X16510000Y-12065000D02*
X17780000Y-13335000D01*
X13970000Y-12065000D02*
X16510000Y-12065000D01*
X17780000Y-13335000D02*
X17780000Y-22860000D01*
X10160000Y-17145000D02*
X10160000Y-15875000D01*
X8890000Y-12065000D02*
X8890000Y-14605000D01*
X9525000Y-15240000D02*
X10795000Y-15240000D01*
X10160000Y-15875000D02*
X10795000Y-15240000D01*
X8890000Y-14605000D02*
X9525000Y-15240000D01*
X10795000Y-15240000D02*
X13970000Y-12065000D01*
X9525000Y-15240000D02*
X10160000Y-15875000D01*
%TO.N,Net-(C2-Pad1)*%
X14605000Y-34290000D02*
X14605000Y-33655000D01*
X14605000Y-33655000D02*
X12700000Y-31750000D01*
X12700000Y-31750000D02*
X12700000Y-20320000D01*
X13970000Y-19050000D02*
X15240000Y-19050000D01*
X12700000Y-20320000D02*
X13970000Y-19050000D01*
%TO.N,GND*%
X17145000Y-10160000D02*
X15360000Y-10160000D01*
X19685000Y-26670000D02*
X19685000Y-12700000D01*
X17145000Y-29210000D02*
X19685000Y-26670000D01*
X19685000Y-12700000D02*
X17145000Y-10160000D01*
X15240000Y-29210000D02*
X17145000Y-29210000D01*
%TO.N,+BATT*%
X22860000Y-10160000D02*
X22860000Y-8890000D01*
X22860000Y-8890000D02*
X20955000Y-6985000D01*
X20955000Y-6985000D02*
X17145000Y-6985000D01*
X15680000Y-5520000D02*
X15680000Y-3810000D01*
X17145000Y-6985000D02*
X15680000Y-5520000D01*
%TD*%
M02*
