%TF.GenerationSoftware,KiCad,Pcbnew,(5.1.12)-1*%
%TF.CreationDate,2022-01-16T14:32:37+01:00*%
%TF.ProjectId,pcb-luces-led-navidad,7063622d-6c75-4636-9573-2d6c65642d6e,R2*%
%TF.SameCoordinates,PX3072580PY3072580*%
%TF.FileFunction,Copper,L1,Top*%
%TF.FilePolarity,Positive*%
%FSLAX46Y46*%
G04 Gerber Fmt 4.6, Leading zero omitted, Abs format (unit mm)*
G04 Created by KiCad (PCBNEW (5.1.12)-1) date 2022-01-16 14:32:37*
%MOMM*%
%LPD*%
G01*
G04 APERTURE LIST*
%TA.AperFunction,ComponentPad*%
%ADD10C,6.096000*%
%TD*%
%TA.AperFunction,ComponentPad*%
%ADD11R,1.600000X1.600000*%
%TD*%
%TA.AperFunction,ComponentPad*%
%ADD12C,1.600000*%
%TD*%
%TA.AperFunction,ComponentPad*%
%ADD13C,2.000000*%
%TD*%
%TA.AperFunction,ComponentPad*%
%ADD14R,2.400000X1.600000*%
%TD*%
%TA.AperFunction,ComponentPad*%
%ADD15O,2.400000X1.600000*%
%TD*%
%TA.AperFunction,ComponentPad*%
%ADD16R,1.700000X1.700000*%
%TD*%
%TA.AperFunction,ComponentPad*%
%ADD17O,1.700000X1.700000*%
%TD*%
%TA.AperFunction,ComponentPad*%
%ADD18R,1.800000X1.800000*%
%TD*%
%TA.AperFunction,ComponentPad*%
%ADD19C,1.800000*%
%TD*%
%TA.AperFunction,ComponentPad*%
%ADD20R,1.500000X2.500000*%
%TD*%
%TA.AperFunction,ComponentPad*%
%ADD21O,1.500000X2.500000*%
%TD*%
%TA.AperFunction,ComponentPad*%
%ADD22O,2.200000X3.500000*%
%TD*%
%TA.AperFunction,Conductor*%
%ADD23C,0.635000*%
%TD*%
G04 APERTURE END LIST*
D10*
%TO.P,M3,*%
%TO.N,*%
X3175000Y-36195000D03*
%TD*%
%TO.P,M3,*%
%TO.N,*%
X3175000Y-3175000D03*
%TD*%
%TO.P,M3,*%
%TO.N,*%
X56515000Y-36195000D03*
%TD*%
%TO.P,M3,*%
%TO.N,*%
X56515000Y-3175000D03*
%TD*%
D11*
%TO.P,C3,1*%
%TO.N,Net-(C3-Pad1)*%
X8890000Y-12065000D03*
D12*
%TO.P,C3,2*%
%TO.N,GND*%
X10890000Y-12065000D03*
%TD*%
D13*
%TO.P,R3,2*%
%TO.N,Net-(C1-Pad1)*%
X2540000Y-17145000D03*
%TO.P,R3,1*%
%TO.N,Net-(R2-Pad2)*%
X2540000Y-29845000D03*
%TD*%
%TO.P,R9,2*%
%TO.N,Net-(C3-Pad1)*%
X10160000Y-17145000D03*
%TO.P,R9,1*%
%TO.N,Net-(R8-Pad2)*%
X10160000Y-29845000D03*
%TD*%
D14*
%TO.P,U1,1*%
%TO.N,Net-(C1-Pad1)*%
X15240000Y-13970000D03*
D15*
%TO.P,U1,8*%
%TO.N,Net-(R7-Pad2)*%
X22860000Y-29210000D03*
%TO.P,U1,2*%
%TO.N,Net-(R2-Pad2)*%
X15240000Y-16510000D03*
%TO.P,U1,9*%
%TO.N,Net-(R8-Pad2)*%
X22860000Y-26670000D03*
%TO.P,U1,3*%
%TO.N,Net-(C2-Pad1)*%
X15240000Y-19050000D03*
%TO.P,U1,10*%
%TO.N,Net-(R4-Pad2)*%
X22860000Y-24130000D03*
%TO.P,U1,4*%
%TO.N,Net-(R5-Pad2)*%
X15240000Y-21590000D03*
%TO.P,U1,11*%
X22860000Y-21590000D03*
%TO.P,U1,5*%
%TO.N,Net-(C3-Pad1)*%
X15240000Y-24130000D03*
%TO.P,U1,12*%
%TO.N,Net-(R1-Pad2)*%
X22860000Y-19050000D03*
%TO.P,U1,6*%
%TO.N,Net-(R8-Pad2)*%
X15240000Y-26670000D03*
%TO.P,U1,13*%
%TO.N,Net-(R2-Pad2)*%
X22860000Y-16510000D03*
%TO.P,U1,7*%
%TO.N,GND*%
X15240000Y-29210000D03*
%TO.P,U1,14*%
%TO.N,+BATT*%
X22860000Y-13970000D03*
%TD*%
D12*
%TO.P,C1,2*%
%TO.N,GND*%
X10890000Y-34290000D03*
D11*
%TO.P,C1,1*%
%TO.N,Net-(C1-Pad1)*%
X8890000Y-34290000D03*
%TD*%
%TO.P,C2,1*%
%TO.N,Net-(C2-Pad1)*%
X14605000Y-34290000D03*
D12*
%TO.P,C2,2*%
%TO.N,GND*%
X16605000Y-34290000D03*
%TD*%
D13*
%TO.P,C4,1*%
%TO.N,+BATT*%
X22860000Y-10160000D03*
%TO.P,C4,2*%
%TO.N,GND*%
X15360000Y-10160000D03*
%TD*%
%TO.P,R1,1*%
%TO.N,Net-(D2-Pad1)*%
X42545000Y-10160000D03*
%TO.P,R1,2*%
%TO.N,Net-(R1-Pad2)*%
X29845000Y-10160000D03*
%TD*%
%TO.P,R2,1*%
%TO.N,Net-(D1-Pad1)*%
X42545000Y-13970000D03*
%TO.P,R2,2*%
%TO.N,Net-(R2-Pad2)*%
X29845000Y-13970000D03*
%TD*%
%TO.P,R4,2*%
%TO.N,Net-(R4-Pad2)*%
X29845000Y-21590000D03*
%TO.P,R4,1*%
%TO.N,Net-(D4-Pad1)*%
X42545000Y-21590000D03*
%TD*%
%TO.P,R5,2*%
%TO.N,Net-(R5-Pad2)*%
X29845000Y-17780000D03*
%TO.P,R5,1*%
%TO.N,Net-(D3-Pad1)*%
X42545000Y-17780000D03*
%TD*%
%TO.P,R6,1*%
%TO.N,Net-(R5-Pad2)*%
X6350000Y-29845000D03*
%TO.P,R6,2*%
%TO.N,Net-(C2-Pad1)*%
X6350000Y-17145000D03*
%TD*%
%TO.P,R7,1*%
%TO.N,Net-(D6-Pad1)*%
X42545000Y-25400000D03*
%TO.P,R7,2*%
%TO.N,Net-(R7-Pad2)*%
X29845000Y-25400000D03*
%TD*%
%TO.P,R8,1*%
%TO.N,Net-(D5-Pad1)*%
X42545000Y-29210000D03*
%TO.P,R8,2*%
%TO.N,Net-(R8-Pad2)*%
X29845000Y-29210000D03*
%TD*%
D16*
%TO.P,BT1,1*%
%TO.N,Net-(BT1-Pad1)*%
X2540000Y-10160000D03*
D17*
%TO.P,BT1,2*%
%TO.N,GND*%
X2540000Y-12700000D03*
%TD*%
D18*
%TO.P,D1,1*%
%TO.N,Net-(D1-Pad1)*%
X27305000Y-3810000D03*
D19*
%TO.P,D1,2*%
%TO.N,+BATT*%
X29845000Y-3810000D03*
%TD*%
%TO.P,D2,2*%
%TO.N,+BATT*%
X45085000Y-3810000D03*
D18*
%TO.P,D2,1*%
%TO.N,Net-(D2-Pad1)*%
X42545000Y-3810000D03*
%TD*%
%TO.P,D3,1*%
%TO.N,Net-(D3-Pad1)*%
X54610000Y-12065000D03*
D19*
%TO.P,D3,2*%
%TO.N,+BATT*%
X57150000Y-12065000D03*
%TD*%
%TO.P,D4,2*%
%TO.N,+BATT*%
X57150000Y-27305000D03*
D18*
%TO.P,D4,1*%
%TO.N,Net-(D4-Pad1)*%
X54610000Y-27305000D03*
%TD*%
%TO.P,D5,1*%
%TO.N,Net-(D5-Pad1)*%
X42545000Y-35560000D03*
D19*
%TO.P,D5,2*%
%TO.N,+BATT*%
X45085000Y-35560000D03*
%TD*%
%TO.P,D6,2*%
%TO.N,+BATT*%
X29845000Y-35560000D03*
D18*
%TO.P,D6,1*%
%TO.N,Net-(D6-Pad1)*%
X27305000Y-35560000D03*
%TD*%
D20*
%TO.P,SW1,1*%
%TO.N,+BATT*%
X14605000Y-2540000D03*
D21*
%TO.P,SW1,2*%
%TO.N,Net-(BT1-Pad1)*%
X12605000Y-2540000D03*
%TO.P,SW1,3*%
%TO.N,Net-(SW1-Pad3)*%
X10605000Y-2540000D03*
D22*
%TO.P,SW1,*%
%TO.N,*%
X16705000Y-2540000D03*
X8505000Y-2540000D03*
%TD*%
D23*
%TO.N,Net-(R2-Pad2)*%
X2540000Y-28430787D02*
X14460787Y-16510000D01*
X2540000Y-29845000D02*
X2540000Y-28430787D01*
X14460787Y-16510000D02*
X15240000Y-16510000D01*
%TO.N,Net-(C3-Pad1)*%
X16510000Y-24130000D02*
X15240000Y-24130000D01*
X17780000Y-22860000D02*
X16510000Y-24130000D01*
X16510000Y-12065000D02*
X17780000Y-13335000D01*
X13970000Y-12065000D02*
X16510000Y-12065000D01*
X17780000Y-13335000D02*
X17780000Y-22860000D01*
X10160000Y-17145000D02*
X10160000Y-15875000D01*
X8890000Y-12065000D02*
X8890000Y-14605000D01*
X9525000Y-15240000D02*
X10795000Y-15240000D01*
X10160000Y-15875000D02*
X10795000Y-15240000D01*
X8890000Y-14605000D02*
X9525000Y-15240000D01*
X10795000Y-15240000D02*
X13970000Y-12065000D01*
X9525000Y-15240000D02*
X10160000Y-15875000D01*
%TO.N,Net-(C2-Pad1)*%
X14605000Y-34290000D02*
X14605000Y-33655000D01*
X14605000Y-33655000D02*
X12700000Y-31750000D01*
X12700000Y-31750000D02*
X12700000Y-20320000D01*
X13970000Y-19050000D02*
X15240000Y-19050000D01*
X12700000Y-20320000D02*
X13970000Y-19050000D01*
%TO.N,GND*%
X17145000Y-10160000D02*
X15360000Y-10160000D01*
X19685000Y-26670000D02*
X19685000Y-12700000D01*
X17145000Y-29210000D02*
X19685000Y-26670000D01*
X19685000Y-12700000D02*
X17145000Y-10160000D01*
X15240000Y-29210000D02*
X17145000Y-29210000D01*
%TD*%
M02*
