%TF.GenerationSoftware,KiCad,Pcbnew,(5.1.12)-1*%
%TF.CreationDate,2022-01-05T14:07:08+01:00*%
%TF.ProjectId,pcb-luces-led-navidad,7063622d-6c75-4636-9573-2d6c65642d6e,R1*%
%TF.SameCoordinates,PX3072580PY3072580*%
%TF.FileFunction,Legend,Top*%
%TF.FilePolarity,Positive*%
%FSLAX46Y46*%
G04 Gerber Fmt 4.6, Leading zero omitted, Abs format (unit mm)*
G04 Created by KiCad (PCBNEW (5.1.12)-1) date 2022-01-05 14:07:08*
%MOMM*%
%LPD*%
G01*
G04 APERTURE LIST*
%ADD10C,0.120000*%
%ADD11C,0.300000*%
%ADD12C,0.250000*%
%ADD13C,0.150000*%
G04 APERTURE END LIST*
D10*
X59690000Y-39370000D02*
X59690000Y0D01*
X0Y-39370000D02*
X59690000Y-39370000D01*
X0Y-39370000D02*
X0Y0D01*
X59690000Y0D02*
X0Y0D01*
%TO.C,R3*%
X4460000Y-18425000D02*
X3980000Y-18425000D01*
X4460000Y-28565000D02*
X4460000Y-18425000D01*
X3980000Y-28565000D02*
X4460000Y-28565000D01*
X620000Y-18425000D02*
X1100000Y-18425000D01*
X620000Y-28565000D02*
X620000Y-18425000D01*
X1100000Y-28565000D02*
X620000Y-28565000D01*
D11*
%TO.C,Picuino_Logo_B6*%
X17647920Y-36830000D02*
G75*
G03*
X17647920Y-36830000I-698500J0D01*
G01*
X19448780Y-37531040D02*
X18651220Y-37531040D01*
X18348960Y-37228780D02*
X18348960Y-36431220D01*
X21849080Y-36830000D02*
G75*
G03*
X21849080Y-36830000I-698500J0D01*
G01*
X19751040Y-36431220D02*
X19751040Y-37228780D01*
X18651220Y-36128960D02*
X19448780Y-36128960D01*
X17998440Y-38582600D02*
G75*
G03*
X19050000Y-37531040I0J1051560D01*
G01*
X19448780Y-37531040D02*
G75*
G03*
X19751040Y-37228780I0J302260D01*
G01*
X18651220Y-36128960D02*
G75*
G03*
X18348960Y-36431220I0J-302260D01*
G01*
X16949420Y-37531040D02*
G75*
G03*
X17998440Y-38580060I1049020J0D01*
G01*
X21150580Y-36128960D02*
G75*
G03*
X20101560Y-35079940I-1049020J0D01*
G01*
X20101560Y-35077400D02*
G75*
G03*
X19050000Y-36128960I0J-1051560D01*
G01*
X19751040Y-36431220D02*
G75*
G03*
X19448780Y-36128960I-302260J0D01*
G01*
X18348960Y-37228780D02*
G75*
G03*
X18651220Y-37531040I302260J0D01*
G01*
D10*
%TO.C,R9*%
X12080000Y-18425000D02*
X11600000Y-18425000D01*
X12080000Y-28565000D02*
X12080000Y-18425000D01*
X11600000Y-28565000D02*
X12080000Y-28565000D01*
X8240000Y-18425000D02*
X8720000Y-18425000D01*
X8240000Y-28565000D02*
X8240000Y-18425000D01*
X8720000Y-28565000D02*
X8240000Y-28565000D01*
%TO.C,U1*%
X24300000Y-12580000D02*
X13800000Y-12580000D01*
X24300000Y-30600000D02*
X24300000Y-12580000D01*
X13800000Y-30600000D02*
X24300000Y-30600000D01*
X13800000Y-12580000D02*
X13800000Y-30600000D01*
X21300000Y-12640000D02*
X20050000Y-12640000D01*
X21300000Y-30540000D02*
X21300000Y-12640000D01*
X16800000Y-30540000D02*
X21300000Y-30540000D01*
X16800000Y-12640000D02*
X16800000Y-30540000D01*
X18050000Y-12640000D02*
X16800000Y-12640000D01*
X20050000Y-12640000D02*
G75*
G02*
X18050000Y-12640000I-1000000J0D01*
G01*
%TO.C,C1*%
X985225Y-32565000D02*
X985225Y-33065000D01*
X735225Y-32815000D02*
X1235225Y-32815000D01*
X6141000Y-34006000D02*
X6141000Y-34574000D01*
X6101000Y-33772000D02*
X6101000Y-34808000D01*
X6061000Y-33613000D02*
X6061000Y-34967000D01*
X6021000Y-33485000D02*
X6021000Y-35095000D01*
X5981000Y-33375000D02*
X5981000Y-35205000D01*
X5941000Y-33279000D02*
X5941000Y-35301000D01*
X5901000Y-33192000D02*
X5901000Y-35388000D01*
X5861000Y-33112000D02*
X5861000Y-35468000D01*
X5821000Y-33039000D02*
X5821000Y-35541000D01*
X5781000Y-32971000D02*
X5781000Y-35609000D01*
X5741000Y-32907000D02*
X5741000Y-35673000D01*
X5701000Y-32847000D02*
X5701000Y-35733000D01*
X5661000Y-32790000D02*
X5661000Y-35790000D01*
X5621000Y-32736000D02*
X5621000Y-35844000D01*
X5581000Y-32685000D02*
X5581000Y-35895000D01*
X5541000Y-35330000D02*
X5541000Y-35943000D01*
X5541000Y-32637000D02*
X5541000Y-33250000D01*
X5501000Y-35330000D02*
X5501000Y-35989000D01*
X5501000Y-32591000D02*
X5501000Y-33250000D01*
X5461000Y-35330000D02*
X5461000Y-36033000D01*
X5461000Y-32547000D02*
X5461000Y-33250000D01*
X5421000Y-35330000D02*
X5421000Y-36075000D01*
X5421000Y-32505000D02*
X5421000Y-33250000D01*
X5381000Y-35330000D02*
X5381000Y-36116000D01*
X5381000Y-32464000D02*
X5381000Y-33250000D01*
X5341000Y-35330000D02*
X5341000Y-36154000D01*
X5341000Y-32426000D02*
X5341000Y-33250000D01*
X5301000Y-35330000D02*
X5301000Y-36191000D01*
X5301000Y-32389000D02*
X5301000Y-33250000D01*
X5261000Y-35330000D02*
X5261000Y-36227000D01*
X5261000Y-32353000D02*
X5261000Y-33250000D01*
X5221000Y-35330000D02*
X5221000Y-36261000D01*
X5221000Y-32319000D02*
X5221000Y-33250000D01*
X5181000Y-35330000D02*
X5181000Y-36294000D01*
X5181000Y-32286000D02*
X5181000Y-33250000D01*
X5141000Y-35330000D02*
X5141000Y-36325000D01*
X5141000Y-32255000D02*
X5141000Y-33250000D01*
X5101000Y-35330000D02*
X5101000Y-36355000D01*
X5101000Y-32225000D02*
X5101000Y-33250000D01*
X5061000Y-35330000D02*
X5061000Y-36385000D01*
X5061000Y-32195000D02*
X5061000Y-33250000D01*
X5021000Y-35330000D02*
X5021000Y-36412000D01*
X5021000Y-32168000D02*
X5021000Y-33250000D01*
X4981000Y-35330000D02*
X4981000Y-36439000D01*
X4981000Y-32141000D02*
X4981000Y-33250000D01*
X4941000Y-35330000D02*
X4941000Y-36465000D01*
X4941000Y-32115000D02*
X4941000Y-33250000D01*
X4901000Y-35330000D02*
X4901000Y-36490000D01*
X4901000Y-32090000D02*
X4901000Y-33250000D01*
X4861000Y-35330000D02*
X4861000Y-36514000D01*
X4861000Y-32066000D02*
X4861000Y-33250000D01*
X4821000Y-35330000D02*
X4821000Y-36537000D01*
X4821000Y-32043000D02*
X4821000Y-33250000D01*
X4781000Y-35330000D02*
X4781000Y-36558000D01*
X4781000Y-32022000D02*
X4781000Y-33250000D01*
X4741000Y-35330000D02*
X4741000Y-36580000D01*
X4741000Y-32000000D02*
X4741000Y-33250000D01*
X4701000Y-35330000D02*
X4701000Y-36600000D01*
X4701000Y-31980000D02*
X4701000Y-33250000D01*
X4661000Y-35330000D02*
X4661000Y-36619000D01*
X4661000Y-31961000D02*
X4661000Y-33250000D01*
X4621000Y-35330000D02*
X4621000Y-36638000D01*
X4621000Y-31942000D02*
X4621000Y-33250000D01*
X4581000Y-35330000D02*
X4581000Y-36655000D01*
X4581000Y-31925000D02*
X4581000Y-33250000D01*
X4541000Y-35330000D02*
X4541000Y-36672000D01*
X4541000Y-31908000D02*
X4541000Y-33250000D01*
X4501000Y-35330000D02*
X4501000Y-36688000D01*
X4501000Y-31892000D02*
X4501000Y-33250000D01*
X4461000Y-35330000D02*
X4461000Y-36704000D01*
X4461000Y-31876000D02*
X4461000Y-33250000D01*
X4421000Y-35330000D02*
X4421000Y-36718000D01*
X4421000Y-31862000D02*
X4421000Y-33250000D01*
X4381000Y-35330000D02*
X4381000Y-36732000D01*
X4381000Y-31848000D02*
X4381000Y-33250000D01*
X4341000Y-35330000D02*
X4341000Y-36745000D01*
X4341000Y-31835000D02*
X4341000Y-33250000D01*
X4301000Y-35330000D02*
X4301000Y-36758000D01*
X4301000Y-31822000D02*
X4301000Y-33250000D01*
X4261000Y-35330000D02*
X4261000Y-36770000D01*
X4261000Y-31810000D02*
X4261000Y-33250000D01*
X4220000Y-35330000D02*
X4220000Y-36781000D01*
X4220000Y-31799000D02*
X4220000Y-33250000D01*
X4180000Y-35330000D02*
X4180000Y-36791000D01*
X4180000Y-31789000D02*
X4180000Y-33250000D01*
X4140000Y-35330000D02*
X4140000Y-36801000D01*
X4140000Y-31779000D02*
X4140000Y-33250000D01*
X4100000Y-35330000D02*
X4100000Y-36810000D01*
X4100000Y-31770000D02*
X4100000Y-33250000D01*
X4060000Y-35330000D02*
X4060000Y-36818000D01*
X4060000Y-31762000D02*
X4060000Y-33250000D01*
X4020000Y-35330000D02*
X4020000Y-36826000D01*
X4020000Y-31754000D02*
X4020000Y-33250000D01*
X3980000Y-35330000D02*
X3980000Y-36833000D01*
X3980000Y-31747000D02*
X3980000Y-33250000D01*
X3940000Y-35330000D02*
X3940000Y-36840000D01*
X3940000Y-31740000D02*
X3940000Y-33250000D01*
X3900000Y-35330000D02*
X3900000Y-36846000D01*
X3900000Y-31734000D02*
X3900000Y-33250000D01*
X3860000Y-35330000D02*
X3860000Y-36851000D01*
X3860000Y-31729000D02*
X3860000Y-33250000D01*
X3820000Y-35330000D02*
X3820000Y-36855000D01*
X3820000Y-31725000D02*
X3820000Y-33250000D01*
X3780000Y-35330000D02*
X3780000Y-36859000D01*
X3780000Y-31721000D02*
X3780000Y-33250000D01*
X3740000Y-35330000D02*
X3740000Y-36863000D01*
X3740000Y-31717000D02*
X3740000Y-33250000D01*
X3700000Y-35330000D02*
X3700000Y-36866000D01*
X3700000Y-31714000D02*
X3700000Y-33250000D01*
X3660000Y-35330000D02*
X3660000Y-36868000D01*
X3660000Y-31712000D02*
X3660000Y-33250000D01*
X3620000Y-35330000D02*
X3620000Y-36869000D01*
X3620000Y-31711000D02*
X3620000Y-33250000D01*
X3580000Y-31710000D02*
X3580000Y-33250000D01*
X3580000Y-35330000D02*
X3580000Y-36870000D01*
X3540000Y-31710000D02*
X3540000Y-33250000D01*
X3540000Y-35330000D02*
X3540000Y-36870000D01*
X6160000Y-34290000D02*
G75*
G03*
X6160000Y-34290000I-2620000J0D01*
G01*
%TO.C,C2*%
X11875000Y-34290000D02*
G75*
G03*
X11875000Y-34290000I-2620000J0D01*
G01*
X9255000Y-35330000D02*
X9255000Y-36870000D01*
X9255000Y-31710000D02*
X9255000Y-33250000D01*
X9295000Y-35330000D02*
X9295000Y-36870000D01*
X9295000Y-31710000D02*
X9295000Y-33250000D01*
X9335000Y-31711000D02*
X9335000Y-33250000D01*
X9335000Y-35330000D02*
X9335000Y-36869000D01*
X9375000Y-31712000D02*
X9375000Y-33250000D01*
X9375000Y-35330000D02*
X9375000Y-36868000D01*
X9415000Y-31714000D02*
X9415000Y-33250000D01*
X9415000Y-35330000D02*
X9415000Y-36866000D01*
X9455000Y-31717000D02*
X9455000Y-33250000D01*
X9455000Y-35330000D02*
X9455000Y-36863000D01*
X9495000Y-31721000D02*
X9495000Y-33250000D01*
X9495000Y-35330000D02*
X9495000Y-36859000D01*
X9535000Y-31725000D02*
X9535000Y-33250000D01*
X9535000Y-35330000D02*
X9535000Y-36855000D01*
X9575000Y-31729000D02*
X9575000Y-33250000D01*
X9575000Y-35330000D02*
X9575000Y-36851000D01*
X9615000Y-31734000D02*
X9615000Y-33250000D01*
X9615000Y-35330000D02*
X9615000Y-36846000D01*
X9655000Y-31740000D02*
X9655000Y-33250000D01*
X9655000Y-35330000D02*
X9655000Y-36840000D01*
X9695000Y-31747000D02*
X9695000Y-33250000D01*
X9695000Y-35330000D02*
X9695000Y-36833000D01*
X9735000Y-31754000D02*
X9735000Y-33250000D01*
X9735000Y-35330000D02*
X9735000Y-36826000D01*
X9775000Y-31762000D02*
X9775000Y-33250000D01*
X9775000Y-35330000D02*
X9775000Y-36818000D01*
X9815000Y-31770000D02*
X9815000Y-33250000D01*
X9815000Y-35330000D02*
X9815000Y-36810000D01*
X9855000Y-31779000D02*
X9855000Y-33250000D01*
X9855000Y-35330000D02*
X9855000Y-36801000D01*
X9895000Y-31789000D02*
X9895000Y-33250000D01*
X9895000Y-35330000D02*
X9895000Y-36791000D01*
X9935000Y-31799000D02*
X9935000Y-33250000D01*
X9935000Y-35330000D02*
X9935000Y-36781000D01*
X9976000Y-31810000D02*
X9976000Y-33250000D01*
X9976000Y-35330000D02*
X9976000Y-36770000D01*
X10016000Y-31822000D02*
X10016000Y-33250000D01*
X10016000Y-35330000D02*
X10016000Y-36758000D01*
X10056000Y-31835000D02*
X10056000Y-33250000D01*
X10056000Y-35330000D02*
X10056000Y-36745000D01*
X10096000Y-31848000D02*
X10096000Y-33250000D01*
X10096000Y-35330000D02*
X10096000Y-36732000D01*
X10136000Y-31862000D02*
X10136000Y-33250000D01*
X10136000Y-35330000D02*
X10136000Y-36718000D01*
X10176000Y-31876000D02*
X10176000Y-33250000D01*
X10176000Y-35330000D02*
X10176000Y-36704000D01*
X10216000Y-31892000D02*
X10216000Y-33250000D01*
X10216000Y-35330000D02*
X10216000Y-36688000D01*
X10256000Y-31908000D02*
X10256000Y-33250000D01*
X10256000Y-35330000D02*
X10256000Y-36672000D01*
X10296000Y-31925000D02*
X10296000Y-33250000D01*
X10296000Y-35330000D02*
X10296000Y-36655000D01*
X10336000Y-31942000D02*
X10336000Y-33250000D01*
X10336000Y-35330000D02*
X10336000Y-36638000D01*
X10376000Y-31961000D02*
X10376000Y-33250000D01*
X10376000Y-35330000D02*
X10376000Y-36619000D01*
X10416000Y-31980000D02*
X10416000Y-33250000D01*
X10416000Y-35330000D02*
X10416000Y-36600000D01*
X10456000Y-32000000D02*
X10456000Y-33250000D01*
X10456000Y-35330000D02*
X10456000Y-36580000D01*
X10496000Y-32022000D02*
X10496000Y-33250000D01*
X10496000Y-35330000D02*
X10496000Y-36558000D01*
X10536000Y-32043000D02*
X10536000Y-33250000D01*
X10536000Y-35330000D02*
X10536000Y-36537000D01*
X10576000Y-32066000D02*
X10576000Y-33250000D01*
X10576000Y-35330000D02*
X10576000Y-36514000D01*
X10616000Y-32090000D02*
X10616000Y-33250000D01*
X10616000Y-35330000D02*
X10616000Y-36490000D01*
X10656000Y-32115000D02*
X10656000Y-33250000D01*
X10656000Y-35330000D02*
X10656000Y-36465000D01*
X10696000Y-32141000D02*
X10696000Y-33250000D01*
X10696000Y-35330000D02*
X10696000Y-36439000D01*
X10736000Y-32168000D02*
X10736000Y-33250000D01*
X10736000Y-35330000D02*
X10736000Y-36412000D01*
X10776000Y-32195000D02*
X10776000Y-33250000D01*
X10776000Y-35330000D02*
X10776000Y-36385000D01*
X10816000Y-32225000D02*
X10816000Y-33250000D01*
X10816000Y-35330000D02*
X10816000Y-36355000D01*
X10856000Y-32255000D02*
X10856000Y-33250000D01*
X10856000Y-35330000D02*
X10856000Y-36325000D01*
X10896000Y-32286000D02*
X10896000Y-33250000D01*
X10896000Y-35330000D02*
X10896000Y-36294000D01*
X10936000Y-32319000D02*
X10936000Y-33250000D01*
X10936000Y-35330000D02*
X10936000Y-36261000D01*
X10976000Y-32353000D02*
X10976000Y-33250000D01*
X10976000Y-35330000D02*
X10976000Y-36227000D01*
X11016000Y-32389000D02*
X11016000Y-33250000D01*
X11016000Y-35330000D02*
X11016000Y-36191000D01*
X11056000Y-32426000D02*
X11056000Y-33250000D01*
X11056000Y-35330000D02*
X11056000Y-36154000D01*
X11096000Y-32464000D02*
X11096000Y-33250000D01*
X11096000Y-35330000D02*
X11096000Y-36116000D01*
X11136000Y-32505000D02*
X11136000Y-33250000D01*
X11136000Y-35330000D02*
X11136000Y-36075000D01*
X11176000Y-32547000D02*
X11176000Y-33250000D01*
X11176000Y-35330000D02*
X11176000Y-36033000D01*
X11216000Y-32591000D02*
X11216000Y-33250000D01*
X11216000Y-35330000D02*
X11216000Y-35989000D01*
X11256000Y-32637000D02*
X11256000Y-33250000D01*
X11256000Y-35330000D02*
X11256000Y-35943000D01*
X11296000Y-32685000D02*
X11296000Y-35895000D01*
X11336000Y-32736000D02*
X11336000Y-35844000D01*
X11376000Y-32790000D02*
X11376000Y-35790000D01*
X11416000Y-32847000D02*
X11416000Y-35733000D01*
X11456000Y-32907000D02*
X11456000Y-35673000D01*
X11496000Y-32971000D02*
X11496000Y-35609000D01*
X11536000Y-33039000D02*
X11536000Y-35541000D01*
X11576000Y-33112000D02*
X11576000Y-35468000D01*
X11616000Y-33192000D02*
X11616000Y-35388000D01*
X11656000Y-33279000D02*
X11656000Y-35301000D01*
X11696000Y-33375000D02*
X11696000Y-35205000D01*
X11736000Y-33485000D02*
X11736000Y-35095000D01*
X11776000Y-33613000D02*
X11776000Y-34967000D01*
X11816000Y-33772000D02*
X11816000Y-34808000D01*
X11856000Y-34006000D02*
X11856000Y-34574000D01*
X6450225Y-32815000D02*
X6950225Y-32815000D01*
X6700225Y-32565000D02*
X6700225Y-33065000D01*
%TO.C,C3*%
X10605000Y-12065000D02*
G75*
G03*
X10605000Y-12065000I-2620000J0D01*
G01*
X7985000Y-11025000D02*
X7985000Y-9485000D01*
X7985000Y-14645000D02*
X7985000Y-13105000D01*
X7945000Y-11025000D02*
X7945000Y-9485000D01*
X7945000Y-14645000D02*
X7945000Y-13105000D01*
X7905000Y-14644000D02*
X7905000Y-13105000D01*
X7905000Y-11025000D02*
X7905000Y-9486000D01*
X7865000Y-14643000D02*
X7865000Y-13105000D01*
X7865000Y-11025000D02*
X7865000Y-9487000D01*
X7825000Y-14641000D02*
X7825000Y-13105000D01*
X7825000Y-11025000D02*
X7825000Y-9489000D01*
X7785000Y-14638000D02*
X7785000Y-13105000D01*
X7785000Y-11025000D02*
X7785000Y-9492000D01*
X7745000Y-14634000D02*
X7745000Y-13105000D01*
X7745000Y-11025000D02*
X7745000Y-9496000D01*
X7705000Y-14630000D02*
X7705000Y-13105000D01*
X7705000Y-11025000D02*
X7705000Y-9500000D01*
X7665000Y-14626000D02*
X7665000Y-13105000D01*
X7665000Y-11025000D02*
X7665000Y-9504000D01*
X7625000Y-14621000D02*
X7625000Y-13105000D01*
X7625000Y-11025000D02*
X7625000Y-9509000D01*
X7585000Y-14615000D02*
X7585000Y-13105000D01*
X7585000Y-11025000D02*
X7585000Y-9515000D01*
X7545000Y-14608000D02*
X7545000Y-13105000D01*
X7545000Y-11025000D02*
X7545000Y-9522000D01*
X7505000Y-14601000D02*
X7505000Y-13105000D01*
X7505000Y-11025000D02*
X7505000Y-9529000D01*
X7465000Y-14593000D02*
X7465000Y-13105000D01*
X7465000Y-11025000D02*
X7465000Y-9537000D01*
X7425000Y-14585000D02*
X7425000Y-13105000D01*
X7425000Y-11025000D02*
X7425000Y-9545000D01*
X7385000Y-14576000D02*
X7385000Y-13105000D01*
X7385000Y-11025000D02*
X7385000Y-9554000D01*
X7345000Y-14566000D02*
X7345000Y-13105000D01*
X7345000Y-11025000D02*
X7345000Y-9564000D01*
X7305000Y-14556000D02*
X7305000Y-13105000D01*
X7305000Y-11025000D02*
X7305000Y-9574000D01*
X7264000Y-14545000D02*
X7264000Y-13105000D01*
X7264000Y-11025000D02*
X7264000Y-9585000D01*
X7224000Y-14533000D02*
X7224000Y-13105000D01*
X7224000Y-11025000D02*
X7224000Y-9597000D01*
X7184000Y-14520000D02*
X7184000Y-13105000D01*
X7184000Y-11025000D02*
X7184000Y-9610000D01*
X7144000Y-14507000D02*
X7144000Y-13105000D01*
X7144000Y-11025000D02*
X7144000Y-9623000D01*
X7104000Y-14493000D02*
X7104000Y-13105000D01*
X7104000Y-11025000D02*
X7104000Y-9637000D01*
X7064000Y-14479000D02*
X7064000Y-13105000D01*
X7064000Y-11025000D02*
X7064000Y-9651000D01*
X7024000Y-14463000D02*
X7024000Y-13105000D01*
X7024000Y-11025000D02*
X7024000Y-9667000D01*
X6984000Y-14447000D02*
X6984000Y-13105000D01*
X6984000Y-11025000D02*
X6984000Y-9683000D01*
X6944000Y-14430000D02*
X6944000Y-13105000D01*
X6944000Y-11025000D02*
X6944000Y-9700000D01*
X6904000Y-14413000D02*
X6904000Y-13105000D01*
X6904000Y-11025000D02*
X6904000Y-9717000D01*
X6864000Y-14394000D02*
X6864000Y-13105000D01*
X6864000Y-11025000D02*
X6864000Y-9736000D01*
X6824000Y-14375000D02*
X6824000Y-13105000D01*
X6824000Y-11025000D02*
X6824000Y-9755000D01*
X6784000Y-14355000D02*
X6784000Y-13105000D01*
X6784000Y-11025000D02*
X6784000Y-9775000D01*
X6744000Y-14333000D02*
X6744000Y-13105000D01*
X6744000Y-11025000D02*
X6744000Y-9797000D01*
X6704000Y-14312000D02*
X6704000Y-13105000D01*
X6704000Y-11025000D02*
X6704000Y-9818000D01*
X6664000Y-14289000D02*
X6664000Y-13105000D01*
X6664000Y-11025000D02*
X6664000Y-9841000D01*
X6624000Y-14265000D02*
X6624000Y-13105000D01*
X6624000Y-11025000D02*
X6624000Y-9865000D01*
X6584000Y-14240000D02*
X6584000Y-13105000D01*
X6584000Y-11025000D02*
X6584000Y-9890000D01*
X6544000Y-14214000D02*
X6544000Y-13105000D01*
X6544000Y-11025000D02*
X6544000Y-9916000D01*
X6504000Y-14187000D02*
X6504000Y-13105000D01*
X6504000Y-11025000D02*
X6504000Y-9943000D01*
X6464000Y-14160000D02*
X6464000Y-13105000D01*
X6464000Y-11025000D02*
X6464000Y-9970000D01*
X6424000Y-14130000D02*
X6424000Y-13105000D01*
X6424000Y-11025000D02*
X6424000Y-10000000D01*
X6384000Y-14100000D02*
X6384000Y-13105000D01*
X6384000Y-11025000D02*
X6384000Y-10030000D01*
X6344000Y-14069000D02*
X6344000Y-13105000D01*
X6344000Y-11025000D02*
X6344000Y-10061000D01*
X6304000Y-14036000D02*
X6304000Y-13105000D01*
X6304000Y-11025000D02*
X6304000Y-10094000D01*
X6264000Y-14002000D02*
X6264000Y-13105000D01*
X6264000Y-11025000D02*
X6264000Y-10128000D01*
X6224000Y-13966000D02*
X6224000Y-13105000D01*
X6224000Y-11025000D02*
X6224000Y-10164000D01*
X6184000Y-13929000D02*
X6184000Y-13105000D01*
X6184000Y-11025000D02*
X6184000Y-10201000D01*
X6144000Y-13891000D02*
X6144000Y-13105000D01*
X6144000Y-11025000D02*
X6144000Y-10239000D01*
X6104000Y-13850000D02*
X6104000Y-13105000D01*
X6104000Y-11025000D02*
X6104000Y-10280000D01*
X6064000Y-13808000D02*
X6064000Y-13105000D01*
X6064000Y-11025000D02*
X6064000Y-10322000D01*
X6024000Y-13764000D02*
X6024000Y-13105000D01*
X6024000Y-11025000D02*
X6024000Y-10366000D01*
X5984000Y-13718000D02*
X5984000Y-13105000D01*
X5984000Y-11025000D02*
X5984000Y-10412000D01*
X5944000Y-13670000D02*
X5944000Y-10460000D01*
X5904000Y-13619000D02*
X5904000Y-10511000D01*
X5864000Y-13565000D02*
X5864000Y-10565000D01*
X5824000Y-13508000D02*
X5824000Y-10622000D01*
X5784000Y-13448000D02*
X5784000Y-10682000D01*
X5744000Y-13384000D02*
X5744000Y-10746000D01*
X5704000Y-13316000D02*
X5704000Y-10814000D01*
X5664000Y-13243000D02*
X5664000Y-10887000D01*
X5624000Y-13163000D02*
X5624000Y-10967000D01*
X5584000Y-13076000D02*
X5584000Y-11054000D01*
X5544000Y-12980000D02*
X5544000Y-11150000D01*
X5504000Y-12870000D02*
X5504000Y-11260000D01*
X5464000Y-12742000D02*
X5464000Y-11388000D01*
X5424000Y-12583000D02*
X5424000Y-11547000D01*
X5384000Y-12349000D02*
X5384000Y-11781000D01*
X10789775Y-13540000D02*
X10289775Y-13540000D01*
X10539775Y-13790000D02*
X10539775Y-13290000D01*
%TO.C,C4*%
X23730000Y-11881000D02*
X14490000Y-11881000D01*
X23730000Y-8439000D02*
X14490000Y-8439000D01*
X23730000Y-11881000D02*
X23730000Y-10825000D01*
X23730000Y-9495000D02*
X23730000Y-8439000D01*
X14490000Y-11881000D02*
X14490000Y-10825000D01*
X14490000Y-9495000D02*
X14490000Y-8439000D01*
%TO.C,R1*%
X41265000Y-11600000D02*
X41265000Y-12080000D01*
X41265000Y-12080000D02*
X31125000Y-12080000D01*
X31125000Y-12080000D02*
X31125000Y-11600000D01*
X41265000Y-8720000D02*
X41265000Y-8240000D01*
X41265000Y-8240000D02*
X31125000Y-8240000D01*
X31125000Y-8240000D02*
X31125000Y-8720000D01*
%TO.C,R2*%
X41265000Y-15410000D02*
X41265000Y-15890000D01*
X41265000Y-15890000D02*
X31125000Y-15890000D01*
X31125000Y-15890000D02*
X31125000Y-15410000D01*
X41265000Y-12530000D02*
X41265000Y-12050000D01*
X41265000Y-12050000D02*
X31125000Y-12050000D01*
X31125000Y-12050000D02*
X31125000Y-12530000D01*
%TO.C,R4*%
X31125000Y-19670000D02*
X31125000Y-20150000D01*
X41265000Y-19670000D02*
X31125000Y-19670000D01*
X41265000Y-20150000D02*
X41265000Y-19670000D01*
X31125000Y-23510000D02*
X31125000Y-23030000D01*
X41265000Y-23510000D02*
X31125000Y-23510000D01*
X41265000Y-23030000D02*
X41265000Y-23510000D01*
%TO.C,R5*%
X31125000Y-15860000D02*
X31125000Y-16340000D01*
X41265000Y-15860000D02*
X31125000Y-15860000D01*
X41265000Y-16340000D02*
X41265000Y-15860000D01*
X31125000Y-19700000D02*
X31125000Y-19220000D01*
X41265000Y-19700000D02*
X31125000Y-19700000D01*
X41265000Y-19220000D02*
X41265000Y-19700000D01*
%TO.C,R6*%
X4910000Y-28565000D02*
X4430000Y-28565000D01*
X4430000Y-28565000D02*
X4430000Y-18425000D01*
X4430000Y-18425000D02*
X4910000Y-18425000D01*
X7790000Y-28565000D02*
X8270000Y-28565000D01*
X8270000Y-28565000D02*
X8270000Y-18425000D01*
X8270000Y-18425000D02*
X7790000Y-18425000D01*
%TO.C,R7*%
X41265000Y-26840000D02*
X41265000Y-27320000D01*
X41265000Y-27320000D02*
X31125000Y-27320000D01*
X31125000Y-27320000D02*
X31125000Y-26840000D01*
X41265000Y-23960000D02*
X41265000Y-23480000D01*
X41265000Y-23480000D02*
X31125000Y-23480000D01*
X31125000Y-23480000D02*
X31125000Y-23960000D01*
%TO.C,R8*%
X41265000Y-30650000D02*
X41265000Y-31130000D01*
X41265000Y-31130000D02*
X31125000Y-31130000D01*
X31125000Y-31130000D02*
X31125000Y-30650000D01*
X41265000Y-27770000D02*
X41265000Y-27290000D01*
X41265000Y-27290000D02*
X31125000Y-27290000D01*
X31125000Y-27290000D02*
X31125000Y-27770000D01*
%TO.C,BT1*%
X1210000Y-8830000D02*
X2540000Y-8830000D01*
X1210000Y-10160000D02*
X1210000Y-8830000D01*
X1210000Y-11430000D02*
X3870000Y-11430000D01*
X3870000Y-11430000D02*
X3870000Y-14030000D01*
X1210000Y-11430000D02*
X1210000Y-14030000D01*
X1210000Y-14030000D02*
X3870000Y-14030000D01*
%TO.C,D1*%
X31075000Y-3810000D02*
G75*
G03*
X31075000Y-3810000I-2500000J0D01*
G01*
X26015000Y-2265000D02*
X26015000Y-5355000D01*
X31565000Y-3810462D02*
G75*
G03*
X26015000Y-2265170I-2990000J462D01*
G01*
X31565000Y-3809538D02*
G75*
G02*
X26015000Y-5354830I-2990000J-462D01*
G01*
%TO.C,D2*%
X41255000Y-2265000D02*
X41255000Y-5355000D01*
X46315000Y-3810000D02*
G75*
G03*
X46315000Y-3810000I-2500000J0D01*
G01*
X46805000Y-3809538D02*
G75*
G02*
X41255000Y-5354830I-2990000J-462D01*
G01*
X46805000Y-3810462D02*
G75*
G03*
X41255000Y-2265170I-2990000J462D01*
G01*
%TO.C,D3*%
X58380000Y-12065000D02*
G75*
G03*
X58380000Y-12065000I-2500000J0D01*
G01*
X53320000Y-10520000D02*
X53320000Y-13610000D01*
X58870000Y-12065462D02*
G75*
G03*
X53320000Y-10520170I-2990000J462D01*
G01*
X58870000Y-12064538D02*
G75*
G02*
X53320000Y-13609830I-2990000J-462D01*
G01*
%TO.C,D4*%
X53320000Y-25760000D02*
X53320000Y-28850000D01*
X58380000Y-27305000D02*
G75*
G03*
X58380000Y-27305000I-2500000J0D01*
G01*
X58870000Y-27304538D02*
G75*
G02*
X53320000Y-28849830I-2990000J-462D01*
G01*
X58870000Y-27305462D02*
G75*
G03*
X53320000Y-25760170I-2990000J462D01*
G01*
%TO.C,D5*%
X46315000Y-35560000D02*
G75*
G03*
X46315000Y-35560000I-2500000J0D01*
G01*
X41255000Y-34015000D02*
X41255000Y-37105000D01*
X46805000Y-35560462D02*
G75*
G03*
X41255000Y-34015170I-2990000J462D01*
G01*
X46805000Y-35559538D02*
G75*
G02*
X41255000Y-37104830I-2990000J-462D01*
G01*
%TO.C,D6*%
X26015000Y-34015000D02*
X26015000Y-37105000D01*
X31075000Y-35560000D02*
G75*
G03*
X31075000Y-35560000I-2500000J0D01*
G01*
X31565000Y-35559538D02*
G75*
G02*
X26015000Y-37104830I-2990000J-462D01*
G01*
X31565000Y-35560462D02*
G75*
G03*
X26015000Y-34015170I-2990000J462D01*
G01*
%TO.C,SW1*%
X18415000Y-5969000D02*
X4445000Y-5969000D01*
X4445000Y-5969000D02*
X4445000Y-254000D01*
X4445000Y-254000D02*
X18415000Y-254000D01*
X18415000Y-254000D02*
X18415000Y-5969000D01*
X4445000Y-5969000D02*
X0Y-5969000D01*
X0Y-5969000D02*
X0Y-254000D01*
X0Y-254000D02*
X4445000Y-254000D01*
X18415000Y-5969000D02*
X22860000Y-5969000D01*
X22860000Y-5969000D02*
X22860000Y-254000D01*
X22860000Y-254000D02*
X18415000Y-254000D01*
X21844000Y-3175000D02*
G75*
G03*
X21844000Y-3175000I-1270000J0D01*
G01*
X3556000Y-3175000D02*
G75*
G03*
X3556000Y-3175000I-1270000J0D01*
G01*
%TO.C,R3*%
D12*
X3444761Y-26368333D02*
X2492380Y-27035000D01*
X3444761Y-27511190D02*
X1444761Y-27511190D01*
X1444761Y-26749285D01*
X1540000Y-26558809D01*
X1635238Y-26463571D01*
X1825714Y-26368333D01*
X2111428Y-26368333D01*
X2301904Y-26463571D01*
X2397142Y-26558809D01*
X2492380Y-26749285D01*
X2492380Y-27511190D01*
X1444761Y-25701666D02*
X1444761Y-24463571D01*
X2206666Y-25130238D01*
X2206666Y-24844523D01*
X2301904Y-24654047D01*
X2397142Y-24558809D01*
X2587619Y-24463571D01*
X3063809Y-24463571D01*
X3254285Y-24558809D01*
X3349523Y-24654047D01*
X3444761Y-24844523D01*
X3444761Y-25415952D01*
X3349523Y-25606428D01*
X3254285Y-25701666D01*
%TO.C,Picuino_Logo_B6*%
D13*
X12883333Y-34075714D02*
X13073809Y-34742380D01*
X13264285Y-34266190D01*
X13454761Y-34742380D01*
X13645238Y-34075714D01*
X13930952Y-34075714D02*
X14121428Y-34742380D01*
X14311904Y-34266190D01*
X14502380Y-34742380D01*
X14692857Y-34075714D01*
X14978571Y-34075714D02*
X15169047Y-34742380D01*
X15359523Y-34266190D01*
X15549999Y-34742380D01*
X15740476Y-34075714D01*
X16121428Y-34647142D02*
X16169047Y-34694761D01*
X16121428Y-34742380D01*
X16073809Y-34694761D01*
X16121428Y-34647142D01*
X16121428Y-34742380D01*
X16597619Y-34075714D02*
X16597619Y-35075714D01*
X16597619Y-34123333D02*
X16692857Y-34075714D01*
X16883333Y-34075714D01*
X16978571Y-34123333D01*
X17026190Y-34170952D01*
X17073809Y-34266190D01*
X17073809Y-34551904D01*
X17026190Y-34647142D01*
X16978571Y-34694761D01*
X16883333Y-34742380D01*
X16692857Y-34742380D01*
X16597619Y-34694761D01*
X17502380Y-34742380D02*
X17502380Y-34075714D01*
X17502380Y-33742380D02*
X17454761Y-33790000D01*
X17502380Y-33837619D01*
X17550000Y-33790000D01*
X17502380Y-33742380D01*
X17502380Y-33837619D01*
X18407142Y-34694761D02*
X18311904Y-34742380D01*
X18121428Y-34742380D01*
X18026190Y-34694761D01*
X17978571Y-34647142D01*
X17930952Y-34551904D01*
X17930952Y-34266190D01*
X17978571Y-34170952D01*
X18026190Y-34123333D01*
X18121428Y-34075714D01*
X18311904Y-34075714D01*
X18407142Y-34123333D01*
X19264285Y-34075714D02*
X19264285Y-34742380D01*
X18835714Y-34075714D02*
X18835714Y-34599523D01*
X18883333Y-34694761D01*
X18978571Y-34742380D01*
X19121428Y-34742380D01*
X19216666Y-34694761D01*
X19264285Y-34647142D01*
X19740476Y-34742380D02*
X19740476Y-34075714D01*
X19740476Y-33742380D02*
X19692857Y-33790000D01*
X19740476Y-33837619D01*
X19788095Y-33790000D01*
X19740476Y-33742380D01*
X19740476Y-33837619D01*
X20216666Y-34075714D02*
X20216666Y-34742380D01*
X20216666Y-34170952D02*
X20264285Y-34123333D01*
X20359523Y-34075714D01*
X20502380Y-34075714D01*
X20597619Y-34123333D01*
X20645238Y-34218571D01*
X20645238Y-34742380D01*
X21264285Y-34742380D02*
X21169047Y-34694761D01*
X21121428Y-34647142D01*
X21073809Y-34551904D01*
X21073809Y-34266190D01*
X21121428Y-34170952D01*
X21169047Y-34123333D01*
X21264285Y-34075714D01*
X21407142Y-34075714D01*
X21502380Y-34123333D01*
X21550000Y-34170952D01*
X21597619Y-34266190D01*
X21597619Y-34551904D01*
X21550000Y-34647142D01*
X21502380Y-34694761D01*
X21407142Y-34742380D01*
X21264285Y-34742380D01*
X22026190Y-34647142D02*
X22073809Y-34694761D01*
X22026190Y-34742380D01*
X21978571Y-34694761D01*
X22026190Y-34647142D01*
X22026190Y-34742380D01*
X22930952Y-34694761D02*
X22835714Y-34742380D01*
X22645238Y-34742380D01*
X22550000Y-34694761D01*
X22502380Y-34647142D01*
X22454761Y-34551904D01*
X22454761Y-34266190D01*
X22502380Y-34170952D01*
X22550000Y-34123333D01*
X22645238Y-34075714D01*
X22835714Y-34075714D01*
X22930952Y-34123333D01*
X23502380Y-34742380D02*
X23407142Y-34694761D01*
X23359523Y-34647142D01*
X23311904Y-34551904D01*
X23311904Y-34266190D01*
X23359523Y-34170952D01*
X23407142Y-34123333D01*
X23502380Y-34075714D01*
X23645238Y-34075714D01*
X23740476Y-34123333D01*
X23788095Y-34170952D01*
X23835714Y-34266190D01*
X23835714Y-34551904D01*
X23788095Y-34647142D01*
X23740476Y-34694761D01*
X23645238Y-34742380D01*
X23502380Y-34742380D01*
X24264285Y-34742380D02*
X24264285Y-34075714D01*
X24264285Y-34170952D02*
X24311904Y-34123333D01*
X24407142Y-34075714D01*
X24550000Y-34075714D01*
X24645238Y-34123333D01*
X24692857Y-34218571D01*
X24692857Y-34742380D01*
X24692857Y-34218571D02*
X24740476Y-34123333D01*
X24835714Y-34075714D01*
X24978571Y-34075714D01*
X25073809Y-34123333D01*
X25121428Y-34218571D01*
X25121428Y-34742380D01*
%TO.C,R9*%
D12*
X11064761Y-26368333D02*
X10112380Y-27035000D01*
X11064761Y-27511190D02*
X9064761Y-27511190D01*
X9064761Y-26749285D01*
X9160000Y-26558809D01*
X9255238Y-26463571D01*
X9445714Y-26368333D01*
X9731428Y-26368333D01*
X9921904Y-26463571D01*
X10017142Y-26558809D01*
X10112380Y-26749285D01*
X10112380Y-27511190D01*
X11064761Y-25415952D02*
X11064761Y-25035000D01*
X10969523Y-24844523D01*
X10874285Y-24749285D01*
X10588571Y-24558809D01*
X10207619Y-24463571D01*
X9445714Y-24463571D01*
X9255238Y-24558809D01*
X9160000Y-24654047D01*
X9064761Y-24844523D01*
X9064761Y-25225476D01*
X9160000Y-25415952D01*
X9255238Y-25511190D01*
X9445714Y-25606428D01*
X9921904Y-25606428D01*
X10112380Y-25511190D01*
X10207619Y-25415952D01*
X10302857Y-25225476D01*
X10302857Y-24844523D01*
X10207619Y-24654047D01*
X10112380Y-24558809D01*
X9921904Y-24463571D01*
%TO.C,U1*%
X17526190Y-30908761D02*
X17526190Y-32527809D01*
X17621428Y-32718285D01*
X17716666Y-32813523D01*
X17907142Y-32908761D01*
X18288095Y-32908761D01*
X18478571Y-32813523D01*
X18573809Y-32718285D01*
X18669047Y-32527809D01*
X18669047Y-30908761D01*
X20669047Y-32908761D02*
X19526190Y-32908761D01*
X20097619Y-32908761D02*
X20097619Y-30908761D01*
X19907142Y-31194476D01*
X19716666Y-31384952D01*
X19526190Y-31480190D01*
%TO.C,C1*%
X5381666Y-38814285D02*
X5286428Y-38909523D01*
X5000714Y-39004761D01*
X4810238Y-39004761D01*
X4524523Y-38909523D01*
X4334047Y-38719047D01*
X4238809Y-38528571D01*
X4143571Y-38147619D01*
X4143571Y-37861904D01*
X4238809Y-37480952D01*
X4334047Y-37290476D01*
X4524523Y-37100000D01*
X4810238Y-37004761D01*
X5000714Y-37004761D01*
X5286428Y-37100000D01*
X5381666Y-37195238D01*
X7286428Y-39004761D02*
X6143571Y-39004761D01*
X6715000Y-39004761D02*
X6715000Y-37004761D01*
X6524523Y-37290476D01*
X6334047Y-37480952D01*
X6143571Y-37576190D01*
%TO.C,C2*%
X11731666Y-38814285D02*
X11636428Y-38909523D01*
X11350714Y-39004761D01*
X11160238Y-39004761D01*
X10874523Y-38909523D01*
X10684047Y-38719047D01*
X10588809Y-38528571D01*
X10493571Y-38147619D01*
X10493571Y-37861904D01*
X10588809Y-37480952D01*
X10684047Y-37290476D01*
X10874523Y-37100000D01*
X11160238Y-37004761D01*
X11350714Y-37004761D01*
X11636428Y-37100000D01*
X11731666Y-37195238D01*
X12493571Y-37195238D02*
X12588809Y-37100000D01*
X12779285Y-37004761D01*
X13255476Y-37004761D01*
X13445952Y-37100000D01*
X13541190Y-37195238D01*
X13636428Y-37385714D01*
X13636428Y-37576190D01*
X13541190Y-37861904D01*
X12398333Y-39004761D01*
X13636428Y-39004761D01*
%TO.C,C3*%
X7651666Y-8969285D02*
X7556428Y-9064523D01*
X7270714Y-9159761D01*
X7080238Y-9159761D01*
X6794523Y-9064523D01*
X6604047Y-8874047D01*
X6508809Y-8683571D01*
X6413571Y-8302619D01*
X6413571Y-8016904D01*
X6508809Y-7635952D01*
X6604047Y-7445476D01*
X6794523Y-7255000D01*
X7080238Y-7159761D01*
X7270714Y-7159761D01*
X7556428Y-7255000D01*
X7651666Y-7350238D01*
X8318333Y-7159761D02*
X9556428Y-7159761D01*
X8889761Y-7921666D01*
X9175476Y-7921666D01*
X9365952Y-8016904D01*
X9461190Y-8112142D01*
X9556428Y-8302619D01*
X9556428Y-8778809D01*
X9461190Y-8969285D01*
X9365952Y-9064523D01*
X9175476Y-9159761D01*
X8604047Y-9159761D01*
X8413571Y-9064523D01*
X8318333Y-8969285D01*
%TO.C,C4*%
X18716666Y-10874285D02*
X18621428Y-10969523D01*
X18335714Y-11064761D01*
X18145238Y-11064761D01*
X17859523Y-10969523D01*
X17669047Y-10779047D01*
X17573809Y-10588571D01*
X17478571Y-10207619D01*
X17478571Y-9921904D01*
X17573809Y-9540952D01*
X17669047Y-9350476D01*
X17859523Y-9160000D01*
X18145238Y-9064761D01*
X18335714Y-9064761D01*
X18621428Y-9160000D01*
X18716666Y-9255238D01*
X20430952Y-9731428D02*
X20430952Y-11064761D01*
X19954761Y-8969523D02*
X19478571Y-10398095D01*
X20716666Y-10398095D01*
%TO.C,R1*%
X45386666Y-11064761D02*
X44720000Y-10112380D01*
X44243809Y-11064761D02*
X44243809Y-9064761D01*
X45005714Y-9064761D01*
X45196190Y-9160000D01*
X45291428Y-9255238D01*
X45386666Y-9445714D01*
X45386666Y-9731428D01*
X45291428Y-9921904D01*
X45196190Y-10017142D01*
X45005714Y-10112380D01*
X44243809Y-10112380D01*
X47291428Y-11064761D02*
X46148571Y-11064761D01*
X46720000Y-11064761D02*
X46720000Y-9064761D01*
X46529523Y-9350476D01*
X46339047Y-9540952D01*
X46148571Y-9636190D01*
%TO.C,R2*%
X45386666Y-14874761D02*
X44720000Y-13922380D01*
X44243809Y-14874761D02*
X44243809Y-12874761D01*
X45005714Y-12874761D01*
X45196190Y-12970000D01*
X45291428Y-13065238D01*
X45386666Y-13255714D01*
X45386666Y-13541428D01*
X45291428Y-13731904D01*
X45196190Y-13827142D01*
X45005714Y-13922380D01*
X44243809Y-13922380D01*
X46148571Y-13065238D02*
X46243809Y-12970000D01*
X46434285Y-12874761D01*
X46910476Y-12874761D01*
X47100952Y-12970000D01*
X47196190Y-13065238D01*
X47291428Y-13255714D01*
X47291428Y-13446190D01*
X47196190Y-13731904D01*
X46053333Y-14874761D01*
X47291428Y-14874761D01*
%TO.C,R4*%
X45386666Y-22494761D02*
X44720000Y-21542380D01*
X44243809Y-22494761D02*
X44243809Y-20494761D01*
X45005714Y-20494761D01*
X45196190Y-20590000D01*
X45291428Y-20685238D01*
X45386666Y-20875714D01*
X45386666Y-21161428D01*
X45291428Y-21351904D01*
X45196190Y-21447142D01*
X45005714Y-21542380D01*
X44243809Y-21542380D01*
X47100952Y-21161428D02*
X47100952Y-22494761D01*
X46624761Y-20399523D02*
X46148571Y-21828095D01*
X47386666Y-21828095D01*
%TO.C,R5*%
X45386666Y-18684761D02*
X44720000Y-17732380D01*
X44243809Y-18684761D02*
X44243809Y-16684761D01*
X45005714Y-16684761D01*
X45196190Y-16780000D01*
X45291428Y-16875238D01*
X45386666Y-17065714D01*
X45386666Y-17351428D01*
X45291428Y-17541904D01*
X45196190Y-17637142D01*
X45005714Y-17732380D01*
X44243809Y-17732380D01*
X47196190Y-16684761D02*
X46243809Y-16684761D01*
X46148571Y-17637142D01*
X46243809Y-17541904D01*
X46434285Y-17446666D01*
X46910476Y-17446666D01*
X47100952Y-17541904D01*
X47196190Y-17637142D01*
X47291428Y-17827619D01*
X47291428Y-18303809D01*
X47196190Y-18494285D01*
X47100952Y-18589523D01*
X46910476Y-18684761D01*
X46434285Y-18684761D01*
X46243809Y-18589523D01*
X46148571Y-18494285D01*
%TO.C,R6*%
X7254761Y-26368333D02*
X6302380Y-27035000D01*
X7254761Y-27511190D02*
X5254761Y-27511190D01*
X5254761Y-26749285D01*
X5350000Y-26558809D01*
X5445238Y-26463571D01*
X5635714Y-26368333D01*
X5921428Y-26368333D01*
X6111904Y-26463571D01*
X6207142Y-26558809D01*
X6302380Y-26749285D01*
X6302380Y-27511190D01*
X5254761Y-24654047D02*
X5254761Y-25035000D01*
X5350000Y-25225476D01*
X5445238Y-25320714D01*
X5730952Y-25511190D01*
X6111904Y-25606428D01*
X6873809Y-25606428D01*
X7064285Y-25511190D01*
X7159523Y-25415952D01*
X7254761Y-25225476D01*
X7254761Y-24844523D01*
X7159523Y-24654047D01*
X7064285Y-24558809D01*
X6873809Y-24463571D01*
X6397619Y-24463571D01*
X6207142Y-24558809D01*
X6111904Y-24654047D01*
X6016666Y-24844523D01*
X6016666Y-25225476D01*
X6111904Y-25415952D01*
X6207142Y-25511190D01*
X6397619Y-25606428D01*
%TO.C,R7*%
X45386666Y-26304761D02*
X44720000Y-25352380D01*
X44243809Y-26304761D02*
X44243809Y-24304761D01*
X45005714Y-24304761D01*
X45196190Y-24400000D01*
X45291428Y-24495238D01*
X45386666Y-24685714D01*
X45386666Y-24971428D01*
X45291428Y-25161904D01*
X45196190Y-25257142D01*
X45005714Y-25352380D01*
X44243809Y-25352380D01*
X46053333Y-24304761D02*
X47386666Y-24304761D01*
X46529523Y-26304761D01*
%TO.C,R8*%
X45386666Y-30114761D02*
X44720000Y-29162380D01*
X44243809Y-30114761D02*
X44243809Y-28114761D01*
X45005714Y-28114761D01*
X45196190Y-28210000D01*
X45291428Y-28305238D01*
X45386666Y-28495714D01*
X45386666Y-28781428D01*
X45291428Y-28971904D01*
X45196190Y-29067142D01*
X45005714Y-29162380D01*
X44243809Y-29162380D01*
X46529523Y-28971904D02*
X46339047Y-28876666D01*
X46243809Y-28781428D01*
X46148571Y-28590952D01*
X46148571Y-28495714D01*
X46243809Y-28305238D01*
X46339047Y-28210000D01*
X46529523Y-28114761D01*
X46910476Y-28114761D01*
X47100952Y-28210000D01*
X47196190Y-28305238D01*
X47291428Y-28495714D01*
X47291428Y-28590952D01*
X47196190Y-28781428D01*
X47100952Y-28876666D01*
X46910476Y-28971904D01*
X46529523Y-28971904D01*
X46339047Y-29067142D01*
X46243809Y-29162380D01*
X46148571Y-29352857D01*
X46148571Y-29733809D01*
X46243809Y-29924285D01*
X46339047Y-30019523D01*
X46529523Y-30114761D01*
X46910476Y-30114761D01*
X47100952Y-30019523D01*
X47196190Y-29924285D01*
X47291428Y-29733809D01*
X47291428Y-29352857D01*
X47196190Y-29162380D01*
X47100952Y-29067142D01*
X46910476Y-28971904D01*
%TO.C,BT1*%
X1603571Y-7477142D02*
X1889285Y-7572380D01*
X1984523Y-7667619D01*
X2079761Y-7858095D01*
X2079761Y-8143809D01*
X1984523Y-8334285D01*
X1889285Y-8429523D01*
X1698809Y-8524761D01*
X936904Y-8524761D01*
X936904Y-6524761D01*
X1603571Y-6524761D01*
X1794047Y-6620000D01*
X1889285Y-6715238D01*
X1984523Y-6905714D01*
X1984523Y-7096190D01*
X1889285Y-7286666D01*
X1794047Y-7381904D01*
X1603571Y-7477142D01*
X936904Y-7477142D01*
X2651190Y-6524761D02*
X3794047Y-6524761D01*
X3222619Y-8524761D02*
X3222619Y-6524761D01*
X5508333Y-8524761D02*
X4365476Y-8524761D01*
X4936904Y-8524761D02*
X4936904Y-6524761D01*
X4746428Y-6810476D01*
X4555952Y-7000952D01*
X4365476Y-7096190D01*
%TO.C,D1*%
X32178809Y-4714761D02*
X32178809Y-2714761D01*
X32655000Y-2714761D01*
X32940714Y-2810000D01*
X33131190Y-3000476D01*
X33226428Y-3190952D01*
X33321666Y-3571904D01*
X33321666Y-3857619D01*
X33226428Y-4238571D01*
X33131190Y-4429047D01*
X32940714Y-4619523D01*
X32655000Y-4714761D01*
X32178809Y-4714761D01*
X35226428Y-4714761D02*
X34083571Y-4714761D01*
X34655000Y-4714761D02*
X34655000Y-2714761D01*
X34464523Y-3000476D01*
X34274047Y-3190952D01*
X34083571Y-3286190D01*
%TO.C,D2*%
X47418809Y-4714761D02*
X47418809Y-2714761D01*
X47895000Y-2714761D01*
X48180714Y-2810000D01*
X48371190Y-3000476D01*
X48466428Y-3190952D01*
X48561666Y-3571904D01*
X48561666Y-3857619D01*
X48466428Y-4238571D01*
X48371190Y-4429047D01*
X48180714Y-4619523D01*
X47895000Y-4714761D01*
X47418809Y-4714761D01*
X49323571Y-2905238D02*
X49418809Y-2810000D01*
X49609285Y-2714761D01*
X50085476Y-2714761D01*
X50275952Y-2810000D01*
X50371190Y-2905238D01*
X50466428Y-3095714D01*
X50466428Y-3286190D01*
X50371190Y-3571904D01*
X49228333Y-4714761D01*
X50466428Y-4714761D01*
%TO.C,D3*%
X54403809Y-8524761D02*
X54403809Y-6524761D01*
X54880000Y-6524761D01*
X55165714Y-6620000D01*
X55356190Y-6810476D01*
X55451428Y-7000952D01*
X55546666Y-7381904D01*
X55546666Y-7667619D01*
X55451428Y-8048571D01*
X55356190Y-8239047D01*
X55165714Y-8429523D01*
X54880000Y-8524761D01*
X54403809Y-8524761D01*
X56213333Y-6524761D02*
X57451428Y-6524761D01*
X56784761Y-7286666D01*
X57070476Y-7286666D01*
X57260952Y-7381904D01*
X57356190Y-7477142D01*
X57451428Y-7667619D01*
X57451428Y-8143809D01*
X57356190Y-8334285D01*
X57260952Y-8429523D01*
X57070476Y-8524761D01*
X56499047Y-8524761D01*
X56308571Y-8429523D01*
X56213333Y-8334285D01*
%TO.C,D4*%
X54403809Y-23764761D02*
X54403809Y-21764761D01*
X54880000Y-21764761D01*
X55165714Y-21860000D01*
X55356190Y-22050476D01*
X55451428Y-22240952D01*
X55546666Y-22621904D01*
X55546666Y-22907619D01*
X55451428Y-23288571D01*
X55356190Y-23479047D01*
X55165714Y-23669523D01*
X54880000Y-23764761D01*
X54403809Y-23764761D01*
X57260952Y-22431428D02*
X57260952Y-23764761D01*
X56784761Y-21669523D02*
X56308571Y-23098095D01*
X57546666Y-23098095D01*
%TO.C,D5*%
X47418809Y-36464761D02*
X47418809Y-34464761D01*
X47895000Y-34464761D01*
X48180714Y-34560000D01*
X48371190Y-34750476D01*
X48466428Y-34940952D01*
X48561666Y-35321904D01*
X48561666Y-35607619D01*
X48466428Y-35988571D01*
X48371190Y-36179047D01*
X48180714Y-36369523D01*
X47895000Y-36464761D01*
X47418809Y-36464761D01*
X50371190Y-34464761D02*
X49418809Y-34464761D01*
X49323571Y-35417142D01*
X49418809Y-35321904D01*
X49609285Y-35226666D01*
X50085476Y-35226666D01*
X50275952Y-35321904D01*
X50371190Y-35417142D01*
X50466428Y-35607619D01*
X50466428Y-36083809D01*
X50371190Y-36274285D01*
X50275952Y-36369523D01*
X50085476Y-36464761D01*
X49609285Y-36464761D01*
X49418809Y-36369523D01*
X49323571Y-36274285D01*
%TO.C,D6*%
X32178809Y-36464761D02*
X32178809Y-34464761D01*
X32655000Y-34464761D01*
X32940714Y-34560000D01*
X33131190Y-34750476D01*
X33226428Y-34940952D01*
X33321666Y-35321904D01*
X33321666Y-35607619D01*
X33226428Y-35988571D01*
X33131190Y-36179047D01*
X32940714Y-36369523D01*
X32655000Y-36464761D01*
X32178809Y-36464761D01*
X35035952Y-34464761D02*
X34655000Y-34464761D01*
X34464523Y-34560000D01*
X34369285Y-34655238D01*
X34178809Y-34940952D01*
X34083571Y-35321904D01*
X34083571Y-36083809D01*
X34178809Y-36274285D01*
X34274047Y-36369523D01*
X34464523Y-36464761D01*
X34845476Y-36464761D01*
X35035952Y-36369523D01*
X35131190Y-36274285D01*
X35226428Y-36083809D01*
X35226428Y-35607619D01*
X35131190Y-35417142D01*
X35035952Y-35321904D01*
X34845476Y-35226666D01*
X34464523Y-35226666D01*
X34274047Y-35321904D01*
X34178809Y-35417142D01*
X34083571Y-35607619D01*
%TO.C,SW1*%
X10668333Y-7794523D02*
X10954047Y-7889761D01*
X11430238Y-7889761D01*
X11620714Y-7794523D01*
X11715952Y-7699285D01*
X11811190Y-7508809D01*
X11811190Y-7318333D01*
X11715952Y-7127857D01*
X11620714Y-7032619D01*
X11430238Y-6937380D01*
X11049285Y-6842142D01*
X10858809Y-6746904D01*
X10763571Y-6651666D01*
X10668333Y-6461190D01*
X10668333Y-6270714D01*
X10763571Y-6080238D01*
X10858809Y-5985000D01*
X11049285Y-5889761D01*
X11525476Y-5889761D01*
X11811190Y-5985000D01*
X12477857Y-5889761D02*
X12954047Y-7889761D01*
X13335000Y-6461190D01*
X13715952Y-7889761D01*
X14192142Y-5889761D01*
X16001666Y-7889761D02*
X14858809Y-7889761D01*
X15430238Y-7889761D02*
X15430238Y-5889761D01*
X15239761Y-6175476D01*
X15049285Y-6365952D01*
X14858809Y-6461190D01*
%TD*%
M02*
