M48
; DRILL file {KiCad (5.1.12)-1} date 01/26/22 16:18:52
; FORMAT={-:-/ absolute / inch / decimal}
; #@! TF.CreationDate,2022-01-26T16:18:52+01:00
; #@! TF.GenerationSoftware,Kicad,Pcbnew,(5.1.12)-1
; #@! TF.FileFunction,Plated,1,2,PTH
FMAT,2
INCH
T1C0.0315
T2C0.0354
T3C0.0591
T4C0.1150
%
G90
G05
T1
X0.1Y-0.4
X0.1Y-0.5
X0.1Y-0.675
X0.1Y-1.175
X0.25Y-0.675
X0.25Y-1.175
X0.35Y-0.475
X0.35Y-1.35
X0.4Y-0.675
X0.4Y-1.175
X0.4287Y-0.475
X0.4287Y-1.35
X0.4598Y-0.15
X0.5386Y-0.15
X0.575Y-1.35
X0.6Y-0.4
X0.6Y-0.55
X0.6Y-0.65
X0.6Y-0.75
X0.6Y-0.85
X0.6Y-0.95
X0.6Y-1.05
X0.6Y-1.15
X0.6173Y-0.15
X0.6537Y-1.35
X0.7Y-0.4
X0.8Y-0.4
X0.9Y-0.4
X0.9Y-0.55
X0.9Y-0.65
X0.9Y-0.75
X0.9Y-0.85
X0.9Y-0.95
X0.9Y-1.05
X0.9Y-1.15
X1.175Y-0.4
X1.175Y-0.55
X1.175Y-0.7
X1.175Y-0.85
X1.175Y-1.0
X1.175Y-1.15
X1.675Y-0.4
X1.675Y-0.55
X1.675Y-0.7
X1.675Y-0.85
X1.675Y-1.0
X1.675Y-1.15
T2
X1.075Y-0.15
X1.075Y-1.4
X1.175Y-0.15
X1.175Y-1.4
X1.675Y-0.15
X1.675Y-1.4
X1.775Y-0.15
X1.775Y-1.4
X2.15Y-0.475
X2.15Y-1.075
X2.25Y-0.475
X2.25Y-1.075
T3
X0.3772Y-0.15
X0.7Y-0.15
T4
X0.125Y-0.125
X0.125Y-1.425
X2.225Y-0.125
X2.225Y-1.425
T0
M30
