%TF.GenerationSoftware,KiCad,Pcbnew,(5.1.12)-1*%
%TF.CreationDate,2022-01-16T14:32:37+01:00*%
%TF.ProjectId,pcb-luces-led-navidad,7063622d-6c75-4636-9573-2d6c65642d6e,R2*%
%TF.SameCoordinates,PX3072580PY3072580*%
%TF.FileFunction,Copper,L2,Bot*%
%TF.FilePolarity,Positive*%
%FSLAX46Y46*%
G04 Gerber Fmt 4.6, Leading zero omitted, Abs format (unit mm)*
G04 Created by KiCad (PCBNEW (5.1.12)-1) date 2022-01-16 14:32:37*
%MOMM*%
%LPD*%
G01*
G04 APERTURE LIST*
%ADD10C,0.150000*%
%TA.AperFunction,EtchedComponent*%
%ADD11C,0.300000*%
%TD*%
%TA.AperFunction,ComponentPad*%
%ADD12C,6.096000*%
%TD*%
%TA.AperFunction,ComponentPad*%
%ADD13R,1.600000X1.600000*%
%TD*%
%TA.AperFunction,ComponentPad*%
%ADD14C,1.600000*%
%TD*%
%TA.AperFunction,ComponentPad*%
%ADD15C,2.000000*%
%TD*%
%TA.AperFunction,ComponentPad*%
%ADD16R,2.400000X1.600000*%
%TD*%
%TA.AperFunction,ComponentPad*%
%ADD17O,2.400000X1.600000*%
%TD*%
%TA.AperFunction,ComponentPad*%
%ADD18R,1.700000X1.700000*%
%TD*%
%TA.AperFunction,ComponentPad*%
%ADD19O,1.700000X1.700000*%
%TD*%
%TA.AperFunction,ComponentPad*%
%ADD20R,1.800000X1.800000*%
%TD*%
%TA.AperFunction,ComponentPad*%
%ADD21C,1.800000*%
%TD*%
%TA.AperFunction,ComponentPad*%
%ADD22R,1.500000X2.500000*%
%TD*%
%TA.AperFunction,ComponentPad*%
%ADD23O,1.500000X2.500000*%
%TD*%
%TA.AperFunction,ComponentPad*%
%ADD24O,2.200000X3.500000*%
%TD*%
%TA.AperFunction,Conductor*%
%ADD25C,0.635000*%
%TD*%
G04 APERTURE END LIST*
%TO.C,Picuino_Logo_B6*%
D10*
X39790714Y-13518333D02*
X40457380Y-13708809D01*
X39981190Y-13899285D01*
X40457380Y-14089761D01*
X39790714Y-14280238D01*
X39790714Y-14565952D02*
X40457380Y-14756428D01*
X39981190Y-14946904D01*
X40457380Y-15137380D01*
X39790714Y-15327857D01*
X39790714Y-15613571D02*
X40457380Y-15804047D01*
X39981190Y-15994523D01*
X40457380Y-16185000D01*
X39790714Y-16375476D01*
X40362142Y-16756428D02*
X40409761Y-16804047D01*
X40457380Y-16756428D01*
X40409761Y-16708809D01*
X40362142Y-16756428D01*
X40457380Y-16756428D01*
X39790714Y-17232619D02*
X40790714Y-17232619D01*
X39838333Y-17232619D02*
X39790714Y-17327857D01*
X39790714Y-17518333D01*
X39838333Y-17613571D01*
X39885952Y-17661190D01*
X39981190Y-17708809D01*
X40266904Y-17708809D01*
X40362142Y-17661190D01*
X40409761Y-17613571D01*
X40457380Y-17518333D01*
X40457380Y-17327857D01*
X40409761Y-17232619D01*
X40457380Y-18137380D02*
X39790714Y-18137380D01*
X39457380Y-18137380D02*
X39505000Y-18089761D01*
X39552619Y-18137380D01*
X39505000Y-18184999D01*
X39457380Y-18137380D01*
X39552619Y-18137380D01*
X40409761Y-19042142D02*
X40457380Y-18946904D01*
X40457380Y-18756428D01*
X40409761Y-18661190D01*
X40362142Y-18613571D01*
X40266904Y-18565952D01*
X39981190Y-18565952D01*
X39885952Y-18613571D01*
X39838333Y-18661190D01*
X39790714Y-18756428D01*
X39790714Y-18946904D01*
X39838333Y-19042142D01*
X39790714Y-19899285D02*
X40457380Y-19899285D01*
X39790714Y-19470714D02*
X40314523Y-19470714D01*
X40409761Y-19518333D01*
X40457380Y-19613571D01*
X40457380Y-19756428D01*
X40409761Y-19851666D01*
X40362142Y-19899285D01*
X40457380Y-20375476D02*
X39790714Y-20375476D01*
X39457380Y-20375476D02*
X39505000Y-20327857D01*
X39552619Y-20375476D01*
X39505000Y-20423095D01*
X39457380Y-20375476D01*
X39552619Y-20375476D01*
X39790714Y-20851666D02*
X40457380Y-20851666D01*
X39885952Y-20851666D02*
X39838333Y-20899285D01*
X39790714Y-20994523D01*
X39790714Y-21137380D01*
X39838333Y-21232619D01*
X39933571Y-21280238D01*
X40457380Y-21280238D01*
X40457380Y-21899285D02*
X40409761Y-21804047D01*
X40362142Y-21756428D01*
X40266904Y-21708809D01*
X39981190Y-21708809D01*
X39885952Y-21756428D01*
X39838333Y-21804047D01*
X39790714Y-21899285D01*
X39790714Y-22042142D01*
X39838333Y-22137380D01*
X39885952Y-22184999D01*
X39981190Y-22232619D01*
X40266904Y-22232619D01*
X40362142Y-22184999D01*
X40409761Y-22137380D01*
X40457380Y-22042142D01*
X40457380Y-21899285D01*
X40362142Y-22661190D02*
X40409761Y-22708809D01*
X40457380Y-22661190D01*
X40409761Y-22613571D01*
X40362142Y-22661190D01*
X40457380Y-22661190D01*
X40409761Y-23565952D02*
X40457380Y-23470714D01*
X40457380Y-23280238D01*
X40409761Y-23184999D01*
X40362142Y-23137380D01*
X40266904Y-23089761D01*
X39981190Y-23089761D01*
X39885952Y-23137380D01*
X39838333Y-23184999D01*
X39790714Y-23280238D01*
X39790714Y-23470714D01*
X39838333Y-23565952D01*
X40457380Y-24137380D02*
X40409761Y-24042142D01*
X40362142Y-23994523D01*
X40266904Y-23946904D01*
X39981190Y-23946904D01*
X39885952Y-23994523D01*
X39838333Y-24042142D01*
X39790714Y-24137380D01*
X39790714Y-24280238D01*
X39838333Y-24375476D01*
X39885952Y-24423095D01*
X39981190Y-24470714D01*
X40266904Y-24470714D01*
X40362142Y-24423095D01*
X40409761Y-24375476D01*
X40457380Y-24280238D01*
X40457380Y-24137380D01*
X40457380Y-24899285D02*
X39790714Y-24899285D01*
X39885952Y-24899285D02*
X39838333Y-24946904D01*
X39790714Y-25042142D01*
X39790714Y-25184999D01*
X39838333Y-25280238D01*
X39933571Y-25327857D01*
X40457380Y-25327857D01*
X39933571Y-25327857D02*
X39838333Y-25375476D01*
X39790714Y-25470714D01*
X39790714Y-25613571D01*
X39838333Y-25708809D01*
X39933571Y-25756428D01*
X40457380Y-25756428D01*
D11*
X38163500Y-21785580D02*
G75*
G03*
X38163500Y-21785580I-698500J0D01*
G01*
X36763960Y-19286220D02*
X36763960Y-20083780D01*
X37066220Y-20386040D02*
X37863780Y-20386040D01*
X38166040Y-20083780D02*
X38166040Y-19286220D01*
X37863780Y-18983960D02*
X37066220Y-18983960D01*
X38163500Y-17584420D02*
G75*
G03*
X38163500Y-17584420I-698500J0D01*
G01*
X36763960Y-19286220D02*
G75*
G02*
X37066220Y-18983960I302260J0D01*
G01*
X37066220Y-20386040D02*
G75*
G02*
X36763960Y-20083780I0J302260D01*
G01*
X38166040Y-20083780D02*
G75*
G02*
X37863780Y-20386040I-302260J0D01*
G01*
X37863780Y-18983960D02*
G75*
G02*
X38166040Y-19286220I0J-302260D01*
G01*
X39217600Y-18633440D02*
G75*
G02*
X38166040Y-19685000I-1051560J0D01*
G01*
X38166040Y-17584420D02*
G75*
G02*
X39215060Y-18633440I0J-1049020D01*
G01*
X35712400Y-20736560D02*
G75*
G02*
X36763960Y-19685000I1051560J0D01*
G01*
X36763960Y-21785580D02*
G75*
G02*
X35714940Y-20736560I0J1049020D01*
G01*
%TD*%
D12*
%TO.P,M3,*%
%TO.N,*%
X3175000Y-36195000D03*
%TD*%
%TO.P,M3,*%
%TO.N,*%
X3175000Y-3175000D03*
%TD*%
%TO.P,M3,*%
%TO.N,*%
X56515000Y-36195000D03*
%TD*%
%TO.P,M3,*%
%TO.N,*%
X56515000Y-3175000D03*
%TD*%
D13*
%TO.P,C3,1*%
%TO.N,Net-(C3-Pad1)*%
X8890000Y-12065000D03*
D14*
%TO.P,C3,2*%
%TO.N,GND*%
X10890000Y-12065000D03*
%TD*%
D15*
%TO.P,R3,2*%
%TO.N,Net-(C1-Pad1)*%
X2540000Y-17145000D03*
%TO.P,R3,1*%
%TO.N,Net-(R2-Pad2)*%
X2540000Y-29845000D03*
%TD*%
%TO.P,R9,2*%
%TO.N,Net-(C3-Pad1)*%
X10160000Y-17145000D03*
%TO.P,R9,1*%
%TO.N,Net-(R8-Pad2)*%
X10160000Y-29845000D03*
%TD*%
D16*
%TO.P,U1,1*%
%TO.N,Net-(C1-Pad1)*%
X15240000Y-13970000D03*
D17*
%TO.P,U1,8*%
%TO.N,Net-(R7-Pad2)*%
X22860000Y-29210000D03*
%TO.P,U1,2*%
%TO.N,Net-(R2-Pad2)*%
X15240000Y-16510000D03*
%TO.P,U1,9*%
%TO.N,Net-(R8-Pad2)*%
X22860000Y-26670000D03*
%TO.P,U1,3*%
%TO.N,Net-(C2-Pad1)*%
X15240000Y-19050000D03*
%TO.P,U1,10*%
%TO.N,Net-(R4-Pad2)*%
X22860000Y-24130000D03*
%TO.P,U1,4*%
%TO.N,Net-(R5-Pad2)*%
X15240000Y-21590000D03*
%TO.P,U1,11*%
X22860000Y-21590000D03*
%TO.P,U1,5*%
%TO.N,Net-(C3-Pad1)*%
X15240000Y-24130000D03*
%TO.P,U1,12*%
%TO.N,Net-(R1-Pad2)*%
X22860000Y-19050000D03*
%TO.P,U1,6*%
%TO.N,Net-(R8-Pad2)*%
X15240000Y-26670000D03*
%TO.P,U1,13*%
%TO.N,Net-(R2-Pad2)*%
X22860000Y-16510000D03*
%TO.P,U1,7*%
%TO.N,GND*%
X15240000Y-29210000D03*
%TO.P,U1,14*%
%TO.N,+BATT*%
X22860000Y-13970000D03*
%TD*%
D14*
%TO.P,C1,2*%
%TO.N,GND*%
X10890000Y-34290000D03*
D13*
%TO.P,C1,1*%
%TO.N,Net-(C1-Pad1)*%
X8890000Y-34290000D03*
%TD*%
%TO.P,C2,1*%
%TO.N,Net-(C2-Pad1)*%
X14605000Y-34290000D03*
D14*
%TO.P,C2,2*%
%TO.N,GND*%
X16605000Y-34290000D03*
%TD*%
D15*
%TO.P,C4,1*%
%TO.N,+BATT*%
X22860000Y-10160000D03*
%TO.P,C4,2*%
%TO.N,GND*%
X15360000Y-10160000D03*
%TD*%
%TO.P,R1,1*%
%TO.N,Net-(D2-Pad1)*%
X42545000Y-10160000D03*
%TO.P,R1,2*%
%TO.N,Net-(R1-Pad2)*%
X29845000Y-10160000D03*
%TD*%
%TO.P,R2,1*%
%TO.N,Net-(D1-Pad1)*%
X42545000Y-13970000D03*
%TO.P,R2,2*%
%TO.N,Net-(R2-Pad2)*%
X29845000Y-13970000D03*
%TD*%
%TO.P,R4,2*%
%TO.N,Net-(R4-Pad2)*%
X29845000Y-21590000D03*
%TO.P,R4,1*%
%TO.N,Net-(D4-Pad1)*%
X42545000Y-21590000D03*
%TD*%
%TO.P,R5,2*%
%TO.N,Net-(R5-Pad2)*%
X29845000Y-17780000D03*
%TO.P,R5,1*%
%TO.N,Net-(D3-Pad1)*%
X42545000Y-17780000D03*
%TD*%
%TO.P,R6,1*%
%TO.N,Net-(R5-Pad2)*%
X6350000Y-29845000D03*
%TO.P,R6,2*%
%TO.N,Net-(C2-Pad1)*%
X6350000Y-17145000D03*
%TD*%
%TO.P,R7,1*%
%TO.N,Net-(D6-Pad1)*%
X42545000Y-25400000D03*
%TO.P,R7,2*%
%TO.N,Net-(R7-Pad2)*%
X29845000Y-25400000D03*
%TD*%
%TO.P,R8,1*%
%TO.N,Net-(D5-Pad1)*%
X42545000Y-29210000D03*
%TO.P,R8,2*%
%TO.N,Net-(R8-Pad2)*%
X29845000Y-29210000D03*
%TD*%
D18*
%TO.P,BT1,1*%
%TO.N,Net-(BT1-Pad1)*%
X2540000Y-10160000D03*
D19*
%TO.P,BT1,2*%
%TO.N,GND*%
X2540000Y-12700000D03*
%TD*%
D20*
%TO.P,D1,1*%
%TO.N,Net-(D1-Pad1)*%
X27305000Y-3810000D03*
D21*
%TO.P,D1,2*%
%TO.N,+BATT*%
X29845000Y-3810000D03*
%TD*%
%TO.P,D2,2*%
%TO.N,+BATT*%
X45085000Y-3810000D03*
D20*
%TO.P,D2,1*%
%TO.N,Net-(D2-Pad1)*%
X42545000Y-3810000D03*
%TD*%
%TO.P,D3,1*%
%TO.N,Net-(D3-Pad1)*%
X54610000Y-12065000D03*
D21*
%TO.P,D3,2*%
%TO.N,+BATT*%
X57150000Y-12065000D03*
%TD*%
%TO.P,D4,2*%
%TO.N,+BATT*%
X57150000Y-27305000D03*
D20*
%TO.P,D4,1*%
%TO.N,Net-(D4-Pad1)*%
X54610000Y-27305000D03*
%TD*%
%TO.P,D5,1*%
%TO.N,Net-(D5-Pad1)*%
X42545000Y-35560000D03*
D21*
%TO.P,D5,2*%
%TO.N,+BATT*%
X45085000Y-35560000D03*
%TD*%
%TO.P,D6,2*%
%TO.N,+BATT*%
X29845000Y-35560000D03*
D20*
%TO.P,D6,1*%
%TO.N,Net-(D6-Pad1)*%
X27305000Y-35560000D03*
%TD*%
D22*
%TO.P,SW1,1*%
%TO.N,+BATT*%
X14605000Y-2540000D03*
D23*
%TO.P,SW1,2*%
%TO.N,Net-(BT1-Pad1)*%
X12605000Y-2540000D03*
%TO.P,SW1,3*%
%TO.N,Net-(SW1-Pad3)*%
X10605000Y-2540000D03*
D24*
%TO.P,SW1,*%
%TO.N,*%
X16705000Y-2540000D03*
X8505000Y-2540000D03*
%TD*%
D25*
%TO.N,Net-(C1-Pad1)*%
X2540000Y-17145000D02*
X5080000Y-14605000D01*
X14605000Y-14605000D02*
X15240000Y-13970000D01*
X5080000Y-14605000D02*
X14605000Y-14605000D01*
X8890000Y-34290000D02*
X7620000Y-34290000D01*
X7620000Y-34290000D02*
X4445000Y-31115000D01*
X4445000Y-19050000D02*
X2540000Y-17145000D01*
X4445000Y-31115000D02*
X4445000Y-19050000D01*
%TO.N,Net-(R4-Pad2)*%
X22860000Y-24130000D02*
X27305000Y-24130000D01*
X27305000Y-24130000D02*
X29845000Y-21590000D01*
%TO.N,Net-(R2-Pad2)*%
X26670000Y-13970000D02*
X29845000Y-13970000D01*
X24130000Y-16510000D02*
X26670000Y-13970000D01*
X22860000Y-16510000D02*
X24130000Y-16510000D01*
X15240000Y-16510000D02*
X22860000Y-16510000D01*
%TO.N,Net-(R5-Pad2)*%
X22860000Y-21590000D02*
X23495000Y-21590000D01*
X22860000Y-21590000D02*
X26035000Y-21590000D01*
X26035000Y-21590000D02*
X29845000Y-17780000D01*
X15240000Y-21590000D02*
X22860000Y-21590000D01*
X12700000Y-21590000D02*
X15240000Y-21590000D01*
X6350000Y-29845000D02*
X6350000Y-27940000D01*
X6350000Y-27940000D02*
X12700000Y-21590000D01*
%TO.N,Net-(R8-Pad2)*%
X27305000Y-26670000D02*
X22860000Y-26670000D01*
X29845000Y-29210000D02*
X27305000Y-26670000D01*
X15240000Y-26670000D02*
X22860000Y-26670000D01*
X13335000Y-26670000D02*
X15240000Y-26670000D01*
X10160000Y-29845000D02*
X13335000Y-26670000D01*
%TO.N,Net-(R1-Pad2)*%
X31750000Y-14605000D02*
X31750000Y-12065000D01*
X27940000Y-15875000D02*
X30480000Y-15875000D01*
X22860000Y-19050000D02*
X24765000Y-19050000D01*
X24765000Y-19050000D02*
X27940000Y-15875000D01*
X30480000Y-15875000D02*
X31750000Y-14605000D01*
X31750000Y-12065000D02*
X29845000Y-10160000D01*
%TO.N,Net-(C2-Pad1)*%
X8255000Y-19050000D02*
X6350000Y-17145000D01*
X15240000Y-19050000D02*
X8255000Y-19050000D01*
%TO.N,Net-(R7-Pad2)*%
X31750000Y-27305000D02*
X29845000Y-25400000D01*
X31750000Y-30480000D02*
X31750000Y-27305000D01*
X30480000Y-31750000D02*
X31750000Y-30480000D01*
X28575000Y-31750000D02*
X30480000Y-31750000D01*
X26035000Y-29210000D02*
X28575000Y-31750000D01*
X22860000Y-29210000D02*
X26035000Y-29210000D01*
%TO.N,GND*%
X5715000Y-12700000D02*
X8255000Y-10160000D01*
X2540000Y-12700000D02*
X5715000Y-12700000D01*
X10890000Y-10255000D02*
X10795000Y-10160000D01*
X10890000Y-10700000D02*
X11430000Y-10160000D01*
X11430000Y-10160000D02*
X15360000Y-10160000D01*
X10795000Y-10160000D02*
X11430000Y-10160000D01*
X10890000Y-12065000D02*
X10890000Y-10700000D01*
X10890000Y-10700000D02*
X10890000Y-10255000D01*
X10890000Y-10700000D02*
X10700000Y-10700000D01*
X10700000Y-10700000D02*
X10160000Y-10160000D01*
X10160000Y-10160000D02*
X10795000Y-10160000D01*
X8255000Y-10160000D02*
X10160000Y-10160000D01*
X16605000Y-34290000D02*
X16605000Y-33115000D01*
X15240000Y-31750000D02*
X15240000Y-29210000D01*
X16605000Y-33115000D02*
X15240000Y-31750000D01*
X10890000Y-34290000D02*
X10890000Y-35020000D01*
X10890000Y-35020000D02*
X12065000Y-36195000D01*
X12065000Y-36195000D02*
X15875000Y-36195000D01*
X16605000Y-35465000D02*
X16605000Y-34290000D01*
X15875000Y-36195000D02*
X16605000Y-35465000D01*
%TO.N,+BATT*%
X32385000Y-38100000D02*
X43180000Y-38100000D01*
X29845000Y-35560000D02*
X32385000Y-38100000D01*
X57150000Y-28575000D02*
X57150000Y-27305000D01*
X50165000Y-35560000D02*
X57150000Y-28575000D01*
X57150000Y-27305000D02*
X57150000Y-12065000D01*
X45085000Y-2540000D02*
X45085000Y-3810000D01*
X31750000Y-1905000D02*
X44450000Y-1905000D01*
X44450000Y-1905000D02*
X45085000Y-2540000D01*
X29845000Y-2540000D02*
X30480000Y-1905000D01*
X30480000Y-1905000D02*
X31750000Y-1905000D01*
X29845000Y-2540000D02*
X29210000Y-1905000D01*
X29845000Y-3810000D02*
X29845000Y-2540000D01*
X29210000Y-1905000D02*
X30480000Y-1905000D01*
X47625000Y-38100000D02*
X50165000Y-35560000D01*
X45085000Y-35560000D02*
X45085000Y-37465000D01*
X43180000Y-38100000D02*
X44450000Y-38100000D01*
X45085000Y-37465000D02*
X45720000Y-38100000D01*
X45720000Y-38100000D02*
X47625000Y-38100000D01*
X44450000Y-38100000D02*
X45720000Y-38100000D01*
X45085000Y-2540000D02*
X45720000Y-1905000D01*
X45720000Y-1905000D02*
X44450000Y-1905000D01*
X45085000Y-37465000D02*
X44450000Y-38100000D01*
X22860000Y-13970000D02*
X22860000Y-10160000D01*
X26035000Y-1905000D02*
X29210000Y-1905000D01*
X45720000Y-1905000D02*
X48260000Y-1905000D01*
X57150000Y-10795000D02*
X57150000Y-12065000D01*
X48260000Y-1905000D02*
X57150000Y-10795000D01*
X14605000Y-4425000D02*
X15895000Y-5715000D01*
X14605000Y-2540000D02*
X14605000Y-4425000D01*
X15895000Y-5715000D02*
X21590000Y-5715000D01*
X26035000Y-1905000D02*
X25400000Y-1905000D01*
X22860000Y-6985000D02*
X21590000Y-5715000D01*
X22860000Y-10160000D02*
X22860000Y-6985000D01*
X22860000Y-6985000D02*
X22860000Y-4445000D01*
X22860000Y-4445000D02*
X25400000Y-1905000D01*
X21590000Y-5715000D02*
X22860000Y-4445000D01*
%TO.N,Net-(D1-Pad1)*%
X30480000Y-6985000D02*
X27305000Y-3810000D01*
X35560000Y-6985000D02*
X30480000Y-6985000D01*
X42545000Y-13970000D02*
X35560000Y-6985000D01*
%TO.N,Net-(D2-Pad1)*%
X42545000Y-10160000D02*
X42545000Y-3810000D01*
%TO.N,Net-(D3-Pad1)*%
X48895000Y-17780000D02*
X54610000Y-12065000D01*
X42545000Y-17780000D02*
X48895000Y-17780000D01*
%TO.N,Net-(D4-Pad1)*%
X42545000Y-21590000D02*
X48895000Y-21590000D01*
X48895000Y-21590000D02*
X54610000Y-27305000D01*
%TO.N,Net-(D5-Pad1)*%
X42545000Y-29210000D02*
X42545000Y-35560000D01*
%TO.N,Net-(D6-Pad1)*%
X34925000Y-33020000D02*
X42545000Y-25400000D01*
X29210000Y-33020000D02*
X34925000Y-33020000D01*
X27305000Y-34925000D02*
X29210000Y-33020000D01*
X27305000Y-35560000D02*
X27305000Y-34925000D01*
%TO.N,Net-(BT1-Pad1)*%
X2540000Y-10160000D02*
X4445000Y-10160000D01*
X4445000Y-10160000D02*
X6350000Y-10160000D01*
X12605000Y-3905000D02*
X12605000Y-2540000D01*
X6350000Y-10160000D02*
X12605000Y-3905000D01*
%TD*%
M02*
