<?xml version="1.0" encoding="UTF-8" standalone="no"?>
<svg
   width="210mm"
   height="297mm"
   viewBox="0 0 210 297"
   version="1.1"
   id="svg8"
   inkscape:version="1.2.1 (9c6d41e410, 2022-07-14)"
   sodipodi:docname="taller-figura-hat-02.svg"
   inkscape:export-filename="dibujo-isometrica-piezas.png"
   inkscape:export-xdpi="600.02155"
   inkscape:export-ydpi="600.02155"
   xmlns:inkscape="http://www.inkscape.org/namespaces/inkscape"
   xmlns:sodipodi="http://sodipodi.sourceforge.net/DTD/sodipodi-0.dtd"
   xmlns="http://www.w3.org/2000/svg"
   xmlns:svg="http://www.w3.org/2000/svg"
   xmlns:rdf="http://www.w3.org/1999/02/22-rdf-syntax-ns#"
   xmlns:cc="http://creativecommons.org/ns#"
   xmlns:dc="http://purl.org/dc/elements/1.1/">
  <title
     id="title1177">Tesela del sombrero</title>
  <defs
     id="defs2" />
  <sodipodi:namedview
     id="base"
     pagecolor="#ffffff"
     bordercolor="#666666"
     borderopacity="1.0"
     inkscape:pageopacity="0.0"
     inkscape:pageshadow="2"
     inkscape:zoom="0.7367354"
     inkscape:cx="74.653668"
     inkscape:cy="576.86925"
     inkscape:document-units="mm"
     inkscape:current-layer="layer1"
     showgrid="true"
     gridtolerance="10"
     inkscape:window-width="1920"
     inkscape:window-height="1017"
     inkscape:window-x="-8"
     inkscape:window-y="-8"
     inkscape:window-maximized="1"
     showguides="false"
     inkscape:document-rotation="0"
     inkscape:snap-grids="true"
     inkscape:showpageshadow="2"
     inkscape:pagecheckerboard="0"
     inkscape:deskcolor="#d1d1d1">
    <inkscape:grid
       type="axonomgrid"
       id="grid1257" />
  </sodipodi:namedview>
  <metadata
     id="metadata5">
    <rdf:RDF>
      <cc:Work
         rdf:about="">
        <dc:format>image/svg+xml</dc:format>
        <dc:type
           rdf:resource="http://purl.org/dc/dcmitype/StillImage" />
        <cc:license
           rdf:resource="http://creativecommons.org/licenses/by-sa/4.0/" />
        <dc:creator>
          <cc:Agent>
            <dc:title>Carlos Pardo Martín</dc:title>
          </cc:Agent>
        </dc:creator>
        <dc:rights>
          <cc:Agent>
            <dc:title>CC BY-SA 4.0</dc:title>
          </cc:Agent>
        </dc:rights>
        <dc:publisher>
          <cc:Agent>
            <dc:title>Picuino</dc:title>
          </cc:Agent>
        </dc:publisher>
        <dc:date>09/04/2023</dc:date>
        <dc:title>Tesela del sombrero</dc:title>
      </cc:Work>
      <cc:License
         rdf:about="http://creativecommons.org/licenses/by-sa/4.0/">
        <cc:permits
           rdf:resource="http://creativecommons.org/ns#Reproduction" />
        <cc:permits
           rdf:resource="http://creativecommons.org/ns#Distribution" />
        <cc:requires
           rdf:resource="http://creativecommons.org/ns#Notice" />
        <cc:requires
           rdf:resource="http://creativecommons.org/ns#Attribution" />
        <cc:permits
           rdf:resource="http://creativecommons.org/ns#DerivativeWorks" />
        <cc:requires
           rdf:resource="http://creativecommons.org/ns#ShareAlike" />
      </cc:License>
    </rdf:RDF>
  </metadata>
  <g
     inkscape:groupmode="layer"
     id="layer3"
     inkscape:label="Text"
     sodipodi:insensitive="true">
    <text
       xml:space="preserve"
       style="font-style:normal;font-variant:normal;font-weight:normal;font-stretch:normal;font-size:2.82222px;line-height:1.25;font-family:sans-serif;-inkscape-font-specification:'sans-serif, Normal';font-variant-ligatures:normal;font-variant-caps:normal;font-variant-numeric:normal;font-feature-settings:normal;text-align:center;letter-spacing:0px;word-spacing:0px;writing-mode:lr-tb;text-anchor:middle;display:inline;fill:#000000;fill-opacity:1;stroke:none;stroke-width:0.264583"
       x="104.00319"
       y="289.07718"
       id="text6517"
       inkscape:label="Footer"><tspan
         sodipodi:role="line"
         id="tspan6515"
         x="104.00319"
         y="289.07718"
         style="font-style:normal;font-variant:normal;font-weight:normal;font-stretch:normal;font-size:2.82222px;font-family:sans-serif;-inkscape-font-specification:'sans-serif, Normal';font-variant-ligatures:normal;font-variant-caps:normal;font-variant-numeric:normal;font-feature-settings:normal;text-align:center;writing-mode:lr-tb;text-anchor:middle;stroke-width:0.264583">CC BY-SA 4.0       www.picuino.com</tspan></text>
    <text
       xml:space="preserve"
       style="font-weight:bold;font-size:7.05556px;line-height:1.25;font-family:Alef;-inkscape-font-specification:'Alef Bold';text-align:center;text-anchor:middle;display:inline;fill:#000000;fill-opacity:1;stroke:none;stroke-width:0.264583px;stroke-linecap:butt;stroke-linejoin:miter;stroke-opacity:1"
       x="104.89759"
       y="12.5"
       id="text2760"
       inkscape:label="Header"><tspan
         sodipodi:role="line"
         id="tspan2758"
         style="font-style:normal;font-variant:normal;font-weight:bold;font-stretch:normal;font-size:7.05556px;font-family:'Liberation Sans';-inkscape-font-specification:'Liberation Sans Bold';fill:#000000;fill-opacity:1;stroke:none;stroke-width:0.264583px"
         x="104.89759"
         y="12.5">TESELA SOMBRERO</tspan></text>
  </g>
  <g
     inkscape:label="Tesela"
     id="layer1"
     style="display:inline"
     inkscape:groupmode="layer">
    <path
       style="fill:none;stroke:#000000;stroke-width:0.2;stroke-linecap:butt;stroke-linejoin:miter;stroke-dasharray:none;stroke-opacity:1"
       d="M 17.320507,19.999999 25.980762,15 34.641016,30 h 17.320508 l 1e-6,10.000001 L 60.621778,45 51.961524,60 H 34.641016 l 10e-7,10.000001 L 25.980762,75 17.320508,60 25.980762,45 17.320508,40 Z"
       id="path2828" />
    <path
       style="fill:none;stroke:#000000;stroke-width:0.2;stroke-linecap:butt;stroke-linejoin:miter;stroke-dasharray:none;stroke-opacity:1"
       d="m 186.19548,122.5 -8.66025,5 -8.66026,-14.99998 -17.3205,-2e-5 v -9.99999 l -8.66025,-5.000003 8.66025,-15.000002 17.3205,1.1e-5 1e-5,-10.000008 8.66024,-5.000004 8.66027,15.000005 -8.66027,14.999994 8.66026,5.000007 z"
       id="path2830" />
    <path
       style="fill:none;stroke:#000000;stroke-width:0.2;stroke-linecap:butt;stroke-linejoin:miter;stroke-dasharray:none;stroke-opacity:1"
       d="m 103.92305,19.999997 8.66025,-4.999998 8.66026,15 17.32051,1e-6 v 9.999999 l 8.66025,5 L 138.56407,60 l -17.32051,-3e-6 V 70 L 112.5833,74.999998 103.92305,60.000001 112.5833,45 103.92305,39.999999 Z"
       id="path2836" />
    <path
       style="fill:none;stroke:#000000;stroke-width:0.2;stroke-linecap:butt;stroke-linejoin:miter;stroke-dasharray:none;stroke-opacity:1"
       d="m 60.621772,19.999997 8.66026,-5.000007 8.66025,15.000009 17.32051,-9e-6 v 10.000009 l 8.660248,5 -8.660248,15 -17.32051,-2e-6 v 10 L 69.282032,74.999996 60.621775,59.999997 69.282032,45 60.621772,40 Z"
       id="path2838" />
    <path
       style="fill:none;stroke:#000000;stroke-width:0.2;stroke-linecap:butt;stroke-linejoin:miter;stroke-dasharray:none;stroke-opacity:1"
       d="m 147.22432,19.999997 8.66025,-4.999998 8.66026,15 17.32051,1e-6 v 9.999999 l 8.66025,5 L 181.86534,60 l -17.32051,-3e-6 V 70 L 155.88457,74.999998 147.22432,60.000001 155.88457,45 147.22432,39.999999 Z"
       id="path864" />
    <path
       style="fill:none;stroke:#000000;stroke-width:0.2;stroke-linecap:butt;stroke-linejoin:miter;stroke-dasharray:none;stroke-opacity:1"
       d="m 142.8942,122.5 -8.66025,5 -8.66026,-14.99998 -17.3205,-2e-5 v -9.99999 l -8.660251,-5.000007 8.660251,-15.000002 17.3205,1.1e-5 1e-5,-10.000008 8.66024,-5.000004 8.66027,15.000005 -8.66027,14.999994 8.66026,5.000011 z"
       id="path866" />
    <path
       style="fill:none;stroke:#000000;stroke-width:0.2;stroke-linecap:butt;stroke-linejoin:miter;stroke-dasharray:none;stroke-opacity:1"
       d="m 99.592929,122.5 -8.660252,5 -8.66026,-14.99998 -17.3205,-2e-5 v -9.99999 l -8.66025,-5.000007 8.66025,-15.000002 17.3205,1.1e-5 10e-6,-10.000008 8.66024,-5.000004 8.660272,15.000005 -8.660272,14.999994 8.660262,5.000011 z"
       id="path868" />
    <path
       style="fill:none;stroke:#000000;stroke-width:0.2;stroke-linecap:butt;stroke-linejoin:miter;stroke-dasharray:none;stroke-opacity:1"
       d="m 56.291659,122.5 -8.660252,5 -8.66026,-14.99998 -17.3205,-2e-5 v -9.99999 l -8.66025,-5.000007 8.66025,-15.000002 17.3205,1.1e-5 10e-6,-10.000008 8.66024,-5.000004 8.660272,15.000005 -8.660272,14.999994 8.660262,5.000011 z"
       id="path870" />
    <path
       style="fill:none;stroke:#000000;stroke-width:0.2;stroke-linecap:butt;stroke-linejoin:miter;stroke-dasharray:none;stroke-opacity:1"
       d="m 17.320507,125 8.660255,-5 8.660254,15 h 17.320508 l 1e-6,10 8.660253,5 -8.660254,15 H 34.641016 l 10e-7,10 -8.660255,5 -8.660254,-15 8.660254,-15 -8.660254,-5 z"
       id="path872" />
    <path
       style="fill:none;stroke:#000000;stroke-width:0.2;stroke-linecap:butt;stroke-linejoin:miter;stroke-dasharray:none;stroke-opacity:1"
       d="m 186.19548,227.5 -8.66025,5 -8.66026,-14.99998 -17.3205,-2e-5 v -9.99999 l -8.66025,-5.00001 8.66025,-15 17.3205,1e-5 1e-5,-10.00001 8.66024,-5 8.66027,15.00001 -8.66027,14.99999 8.66026,5.00001 z"
       id="path874" />
    <path
       style="fill:none;stroke:#000000;stroke-width:0.2;stroke-linecap:butt;stroke-linejoin:miter;stroke-dasharray:none;stroke-opacity:1"
       d="m 103.92305,125 8.66025,-5 8.66026,15 h 17.32051 v 10 l 8.66025,5 -8.66025,15 h -17.32051 v 10 l -8.66026,5 -8.66025,-15 8.66025,-15 -8.66025,-5 z"
       id="path876" />
    <path
       style="fill:none;stroke:#000000;stroke-width:0.2;stroke-linecap:butt;stroke-linejoin:miter;stroke-dasharray:none;stroke-opacity:1"
       d="m 60.621772,125 8.66026,-5.00001 8.66025,15.00001 17.32051,-1e-5 V 145 l 8.660248,5 -8.660248,15 h -17.32051 v 10 l -8.66025,5 -8.660257,-15 8.660257,-15 -8.66026,-5 z"
       id="path878" />
    <path
       style="fill:none;stroke:#000000;stroke-width:0.2;stroke-linecap:butt;stroke-linejoin:miter;stroke-dasharray:none;stroke-opacity:1"
       d="m 147.22432,125 8.66025,-5 8.66026,15 h 17.32051 v 10 l 8.66025,5 -8.66025,15 h -17.32051 v 10 l -8.66026,5 -8.66025,-15 8.66025,-15 -8.66025,-5 z"
       id="path880" />
    <path
       style="fill:none;stroke:#000000;stroke-width:0.2;stroke-linecap:butt;stroke-linejoin:miter;stroke-dasharray:none;stroke-opacity:1"
       d="m 142.8942,227.5 -8.66025,5 -8.66026,-14.99998 -17.3205,-2e-5 v -9.99999 L 99.592939,202.5 l 8.660251,-15 17.3205,1e-5 1e-5,-10.00001 8.66024,-5 8.66027,15 -8.66027,15 8.66026,5.00001 z"
       id="path882" />
    <path
       style="fill:none;stroke:#000000;stroke-width:0.2;stroke-linecap:butt;stroke-linejoin:miter;stroke-dasharray:none;stroke-opacity:1"
       d="m 99.592929,227.5 -8.660252,5 -8.66026,-14.99998 -17.3205,-2e-5 v -9.99999 l -8.66025,-5.00001 8.66025,-15 17.3205,1e-5 10e-6,-10.00001 8.66024,-5 8.660272,15 -8.660272,15 8.660262,5.00001 z"
       id="path884" />
    <path
       style="fill:none;stroke:#000000;stroke-width:0.2;stroke-linecap:butt;stroke-linejoin:miter;stroke-dasharray:none;stroke-opacity:1"
       d="m 56.291659,227.5 -8.660252,5 -8.66026,-14.99998 -17.3205,-2e-5 v -9.99999 l -8.66025,-5.00001 8.66025,-15 17.3205,1e-5 10e-6,-10.00001 8.66024,-5 8.660272,15 -8.660272,15 8.660262,5.00001 z"
       id="path886" />
    <path
       style="fill:none;stroke:#000000;stroke-width:0.2;stroke-linecap:butt;stroke-linejoin:miter;stroke-dasharray:none;stroke-opacity:1"
       d="m 17.320507,230 8.660255,-5 8.660254,15 h 17.320508 l 1e-6,10 8.660253,5 -8.660254,15 H 34.641016 l 10e-7,10 -8.660255,5 -8.660254,-15 8.660254,-15 -8.660254,-5 z"
       id="path888" />
    <path
       style="fill:none;stroke:#000000;stroke-width:0.2;stroke-linecap:butt;stroke-linejoin:miter;stroke-dasharray:none;stroke-opacity:1"
       d="m 103.92306,230 8.66025,-5 8.66026,15 h 17.32051 v 10 l 8.66025,5 -8.66025,15 h -17.32051 v 10 l -8.66026,5 -8.66025,-15 8.66025,-15 -8.66025,-5 z"
       id="path892" />
    <path
       style="fill:none;stroke:#000000;stroke-width:0.2;stroke-linecap:butt;stroke-linejoin:miter;stroke-dasharray:none;stroke-opacity:1"
       d="m 60.621772,230 8.66026,-5.00001 8.66025,15.00001 17.32051,-1e-5 V 250 l 8.660258,5 -8.660258,15 h -17.32051 v 10 l -8.66025,5 -8.660257,-15 8.660257,-15 -8.66026,-5 z"
       id="path894" />
    <path
       style="fill:none;stroke:#000000;stroke-width:0.2;stroke-linecap:butt;stroke-linejoin:miter;stroke-dasharray:none;stroke-opacity:1"
       d="m 147.22433,230 8.66025,-5 8.66026,15 h 17.32051 v 10 l 8.66025,5 -8.66025,15 h -17.32051 v 10 l -8.66026,5 -8.66025,-15 8.66025,-15 -8.66025,-5 z"
       id="path896" />
  </g>
</svg>
