<?xml version="1.0" encoding="UTF-8" standalone="no"?>
<!DOCTYPE svg PUBLIC "-//W3C//DTD SVG 1.1//EN"
"http://www.w3.org/Graphics/SVG/1.1/DTD/svg11.dtd">
<svg viewBox="0 0 909 1286" version="1.1" xmlns="http://www.w3.org/2000/svg" xmlns:xlink="http://www.w3.org/1999/xlink">
<defs>
<style type="text/css"><![CDATA[
.g0_2{
}
.g1_2{
fill: #0000FF;
}
.g2_2{
fill: #FFFFFF;
}
.g3_2{
fill: none;
stroke: #FF0000;
stroke-width: 1.145;
stroke-linecap: round;
stroke-linejoin: miter;
stroke-miterlimit: 8;
}
.g4_2{
fill: #FF0000;
}
.g5_2{
fill: none;
stroke: #FF0000;
stroke-width: 1.145;
stroke-linecap: round;
stroke-linejoin: round;
}
.g6_2{
fill: none;
stroke: #000000;
stroke-width: 1.099;
stroke-linecap: round;
stroke-linejoin: round;
}
]]></style>
</defs>
<path d="M97.4,131.6H812.2v-2.3H97.4v2.3Z" class="g0_2"/>
<path d="M97.4,1183.9H812.2v-2.3H97.4v2.3Z" class="g0_2"/>
<path d="M168.7,1221H312.6v-1.5H168.7v1.5Z" class="g1_2"/>
<path d="M99.6,1219.7H173v-37.8H99.6v37.8Z" class="g2_2"/>
<path d="M173,1181.8H99.6v37.9H173v-37.9Z" class="g3_2"/>
<path fill-rule="evenodd" d="M129.2,1192.4c-1.3,.2,-2.2,.5,-2.8,.9c-.5,.6,-1.2,1.7,-1.8,3.3c-1,2.8,-2,5.6,-3.1,8.5c-.8,2.2,-1.8,4,-2.8,5.2c-1.9,2.3,-4.6,3.4,-7.9,3.4c-3.2,0,-4.8,-1.2,-5.1,-3.4c-.1,-1.1,.2,-2.7,1,-4.9c1.2,-3.3,2.6,-6.7,3.8,-10c.4,-1.2,.5,-2,.1,-2.4c-.1,-.3,-1,-.5,-2.3,-.6c.1,-.2,.2,-.4,.3,-.6c2.8,0,5.6,0,8.4,0c-.1,.2,-.2,.4,-.2,.6c-1.4,.1,-2.3,.3,-2.8,.6c-.6,.5,-1.2,1.2,-1.5,2.4c-1.3,3.4,-2.7,6.9,-3.9,10.3c-1.6,4.7,-.5,7,3.4,7c2.2,0,4.2,-1,6,-2.9c.8,-.8,1.5,-2.3,2.4,-4.5c1,-2.9,2.1,-5.7,3.2,-8.7c.5,-1.7,.8,-2.8,.7,-3.4c-.2,-.4,-.8,-.7,-1.8,-.8c.1,-.2,.1,-.4,.1,-.6c2.3,0,4.5,0,6.7,0c-.1,.2,-.1,.4,-.1,.6Z" class="g4_2"/>
<path fill-rule="evenodd" d="M145.8,1197.1c-.2,0,-.5,0,-.7,0c.3,-1.9,.2,-3,-.3,-3.5c-.4,-.6,-1.5,-.7,-3.3,-.7c-.6,0,-1.2,0,-1.8,0c-1.1,3.1,-2.3,6.1,-3.4,9.2c-.9,2.5,-1.8,4.9,-2.7,7.4c-.4,1.1,-.5,1.9,-.2,2.4c.3,.4,1.1,.7,2.4,.8c-.1,.1,-.2,.3,-.2,.6c-3,0,-5.8,0,-8.6,0c.1,-.3,.1,-.5,.1,-.6c1.4,-.1,2.4,-.4,3.1,-1c.5,-.4,1.1,-1.3,1.5,-2.6c1.5,-4.2,3.1,-8.4,4.6,-12.5c.5,-1.3,.9,-2.5,1.4,-3.7c-.5,0,-.9,0,-1.4,0c-.2,0,-.4,0,-.5,0c-1.8,0,-3.1,.2,-3.9,.7c-.8,.5,-1.7,1.6,-2.7,3.5c-.3,0,-.5,0,-.8,0c.8,-1.8,1.4,-3.5,2.1,-5.2c2,0,3.8,0,5.8,0c3.8,0,7.4,0,11.2,0c-.6,1.7,-1.2,3.4,-1.7,5.2Z" class="g4_2"/>
<path fill-rule="evenodd" d="M160.9,1209.6c-.8,.8,-1.8,1.5,-3.1,2.2c-2.1,1.3,-4.3,1.9,-6.5,1.9c-2.8,0,-4.8,-.9,-6,-2.6c-1.4,-2,-1.5,-4.9,-.1,-8.6c1.3,-3.4,3.4,-6.2,6.2,-8.3c2.7,-1.9,5.4,-2.8,8.2,-2.8c1.1,0,2.2,.1,3.3,.5c1.1,.3,1.6,.5,1.6,.5c.6,0,1.1,-.2,1.7,-1c.3,0,.5,0,.6,0c-.7,2.3,-1.5,4.7,-2.3,7c-.2,0,-.4,.1,-.6,.1c.5,-4.2,-1,-6.2,-4.4,-6.2c-1,0,-2,.2,-3.2,.5c-1.3,.4,-2.4,.9,-3.2,1.5c-2.4,1.9,-4.3,4.6,-5.7,8.3c-1.2,3.2,-1.1,5.8,.1,7.6c1,1.5,2.7,2.3,5,2.3c2.6,0,5.4,-1.1,8.2,-3.4c.1,.2,.1,.4,.2,.5Z" class="g4_2"/>
<path d="M129.2,1192.4c-1.3,.2,-2.2,.5,-2.8,.9c-.5,.6,-1.2,1.7,-1.8,3.3c-1,2.8,-2,5.6,-3.1,8.5c-.8,2.2,-1.8,4,-2.8,5.2c-1.9,2.3,-4.6,3.4,-7.9,3.4c-3.2,0,-4.8,-1.2,-5.1,-3.4c-.1,-1.1,.2,-2.7,1,-4.9c1.2,-3.3,2.6,-6.7,3.8,-10c.4,-1.2,.5,-2,.1,-2.4c-.1,-.3,-1,-.5,-2.3,-.6c.1,-.2,.2,-.4,.3,-.6c2.8,0,5.6,0,8.4,0c-.1,.2,-.2,.4,-.2,.6c-1.4,.1,-2.3,.3,-2.8,.6c-.6,.5,-1.2,1.2,-1.5,2.4c-1.3,3.4,-2.7,6.9,-3.9,10.3c-1.6,4.7,-.5,7,3.4,7c2.2,0,4.2,-1,6,-2.9c.8,-.8,1.5,-2.3,2.4,-4.5c1,-2.9,2.1,-5.7,3.2,-8.7c.5,-1.7,.8,-2.8,.7,-3.4c-.2,-.4,-.8,-.7,-1.8,-.8c.1,-.2,.1,-.4,.1,-.6c2.3,0,4.5,0,6.7,0c-.1,.2,-.1,.4,-.1,.6Zm16.6,4.7c-.2,0,-.5,0,-.7,0c.3,-1.9,.2,-3,-.3,-3.5c-.4,-.6,-1.5,-.7,-3.3,-.7c-.6,0,-1.2,0,-1.8,0c-1.1,3.1,-2.3,6.1,-3.4,9.2c-.9,2.5,-1.8,4.9,-2.7,7.4c-.4,1.1,-.5,1.9,-.2,2.4c.3,.4,1.1,.7,2.4,.8c-.1,.1,-.2,.3,-.2,.6c-3,0,-5.8,0,-8.6,0c.1,-.3,.1,-.5,.1,-.6c1.4,-.1,2.4,-.4,3.1,-1c.5,-.4,1.1,-1.3,1.5,-2.6c1.5,-4.2,3.1,-8.4,4.6,-12.5c.5,-1.3,.9,-2.5,1.4,-3.7c-.5,0,-.9,0,-1.4,0c-.2,0,-.4,0,-.5,0c-1.8,0,-3.1,.2,-3.9,.7c-.8,.5,-1.7,1.6,-2.7,3.5c-.3,0,-.5,0,-.8,0c.8,-1.8,1.4,-3.5,2.1,-5.2c2,0,3.8,0,5.8,0c3.8,0,7.4,0,11.2,0c-.6,1.7,-1.2,3.4,-1.7,5.2Zm15.1,12.5c-.8,.8,-1.8,1.5,-3.1,2.2c-2.1,1.3,-4.3,1.9,-6.5,1.9c-2.8,0,-4.8,-.9,-6,-2.6c-1.4,-2,-1.5,-4.9,-.1,-8.6c1.3,-3.4,3.4,-6.2,6.2,-8.3c2.7,-1.9,5.4,-2.8,8.2,-2.8c1.1,0,2.2,.1,3.3,.5c1.1,.3,1.6,.5,1.6,.5c.6,0,1.1,-.2,1.7,-1c.3,0,.5,0,.6,0c-.7,2.3,-1.5,4.7,-2.3,7c-.2,0,-.4,.1,-.6,.1c.5,-4.2,-1,-6.2,-4.4,-6.2c-1,0,-2,.2,-3.2,.5c-1.3,.4,-2.4,.9,-3.2,1.5c-2.4,1.9,-4.3,4.6,-5.7,8.3c-1.2,3.2,-1.1,5.8,.1,7.6c1,1.5,2.7,2.3,5,2.3c2.6,0,5.4,-1.1,8.2,-3.4c.1,.2,.1,.4,.2,.5Z" class="g5_2"/>
<path d="M99.6,1227.7H173v-10H99.6v10Z" class="g4_2"/>
<path d="M173,1217.7H99.6v9.9H173v-9.9Z" class="g3_2"/>
<path d="M99.6,1186.4H173v-4.5H99.6v4.5Z" class="g4_2"/>
<path d="M173,1186.4H99.6v-4.6H173v4.6Z" class="g3_2"/>
<path d="M382.9,461.9h141V221.7h-141V461.9Zm141,-202.2h33.4v21.5H523.9m.5,10.8h33.5v21.4H524.4m0,12.9h33.5v21.5H524.4m-.3,12.9h33.5v21.5H524.1m0,13.9h33.5v21.4H524.1m0,15.1h33.5v21.5H524.1m-141.2,-.5H349.3V432.1h33.6m-.8,-15.6H348.5V395h33.6m.2,-13.9H348.8V359.6h33.5m.6,-11.8H349.3V326.3h33.6m0,-11.8H349.3V293.1h33.6m0,-10.9H349.3V260.8h33.6m0,-11.8H349.3V227.5h33.6" class="g6_2"/>
<image preserveAspectRatio="none" x="364" y="439" width="7" height="59" xlink:href="img/1.png"/>
<image preserveAspectRatio="none" x="363" y="401" width="6" height="61" xlink:href="img/2.png"/>
<image preserveAspectRatio="none" x="363" y="365" width="7" height="60" xlink:href="img/3.png"/>
<image preserveAspectRatio="none" x="363" y="333" width="7" height="58" xlink:href="img/4.png"/>
<image preserveAspectRatio="none" x="364" y="299" width="6" height="61" xlink:href="img/5.png"/>
<image preserveAspectRatio="none" x="363" y="267" width="7" height="60" xlink:href="img/6.png"/>
<image preserveAspectRatio="none" x="364" y="233" width="4" height="60" xlink:href="img/7.png"/>
<image preserveAspectRatio="none" x="533" y="298" width="13" height="60" xlink:href="img/8.png"/>
<image preserveAspectRatio="none" x="535" y="332" width="12" height="60" xlink:href="img/9.png"/>
<image preserveAspectRatio="none" x="534" y="367" width="13" height="61" xlink:href="img/10.png"/>
<image preserveAspectRatio="none" x="536" y="439" width="7" height="61" xlink:href="img/11.png"/>
<image preserveAspectRatio="none" x="536" y="402" width="7" height="61" xlink:href="img/12.png"/>
<path d="M523.9,227.5h33.4V249H523.9" class="g6_2"/>
<image preserveAspectRatio="none" x="533" y="266" width="14" height="61" xlink:href="img/13.png"/>
<image preserveAspectRatio="none" x="534" y="234" width="13" height="60" xlink:href="img/14.png"/>
<image preserveAspectRatio="none" x="286" y="233" width="29" height="38" xlink:href="img/15.png"/>
<image preserveAspectRatio="none" x="315" y="233" width="12" height="38" xlink:href="img/16.png"/>
<image preserveAspectRatio="none" x="332" y="233" width="4" height="60" xlink:href="img/17.png"/>
<image preserveAspectRatio="none" x="241" y="266" width="71" height="15" xlink:href="img/18.png"/>
<image preserveAspectRatio="none" x="312" y="266" width="15" height="15" xlink:href="img/19.png"/>
<image preserveAspectRatio="none" x="332" y="266" width="4" height="60" xlink:href="img/20.png"/>
<image preserveAspectRatio="none" x="212" y="299" width="17" height="60" xlink:href="img/21.png"/>
<image preserveAspectRatio="none" x="229" y="299" width="6" height="60" xlink:href="img/22.png"/>
<image preserveAspectRatio="none" x="236" y="305" width="5" height="7" xlink:href="img/23.png"/>
<image preserveAspectRatio="none" x="241" y="299" width="71" height="15" xlink:href="img/24.png"/>
<image preserveAspectRatio="none" x="312" y="299" width="15" height="15" xlink:href="img/25.png"/>
<image preserveAspectRatio="none" x="332" y="299" width="4" height="60" xlink:href="img/26.png"/>
<image preserveAspectRatio="none" x="307" y="332" width="9" height="60" xlink:href="img/27.png"/>
<image preserveAspectRatio="none" x="317" y="338" width="12" height="39" xlink:href="img/28.png"/>
<image preserveAspectRatio="none" x="330" y="334" width="6" height="39" xlink:href="img/29.png"/>
<image preserveAspectRatio="none" x="211" y="364" width="18" height="61" xlink:href="img/30.png"/>
<image preserveAspectRatio="none" x="229" y="364" width="6" height="61" xlink:href="img/31.png"/>
<image preserveAspectRatio="none" x="236" y="370" width="4" height="7" xlink:href="img/32.png"/>
<image preserveAspectRatio="none" x="241" y="364" width="71" height="16" xlink:href="img/33.png"/>
<image preserveAspectRatio="none" x="312" y="364" width="15" height="16" xlink:href="img/34.png"/>
<image preserveAspectRatio="none" x="330" y="364" width="7" height="60" xlink:href="img/35.png"/>
<image preserveAspectRatio="none" x="241" y="400" width="71" height="16" xlink:href="img/36.png"/>
<image preserveAspectRatio="none" x="312" y="400" width="15" height="16" xlink:href="img/37.png"/>
<image preserveAspectRatio="none" x="331" y="400" width="7" height="60" xlink:href="img/38.png"/>
<image preserveAspectRatio="none" x="288" y="439" width="28" height="38" xlink:href="img/39.png"/>
<image preserveAspectRatio="none" x="316" y="439" width="13" height="38" xlink:href="img/40.png"/>
<image preserveAspectRatio="none" x="333" y="439" width="6" height="60" xlink:href="img/41.png"/>
<image preserveAspectRatio="none" x="569" y="234" width="29" height="38" xlink:href="img/42.png"/>
<image preserveAspectRatio="none" x="598" y="234" width="12" height="38" xlink:href="img/43.png"/>
<image preserveAspectRatio="none" x="614" y="234" width="7" height="59" xlink:href="img/44.png"/>
<image preserveAspectRatio="none" x="570" y="266" width="71" height="16" xlink:href="img/45.png"/>
<image preserveAspectRatio="none" x="641" y="266" width="15" height="16" xlink:href="img/46.png"/>
<image preserveAspectRatio="none" x="660" y="266" width="8" height="59" xlink:href="img/47.png"/>
<image preserveAspectRatio="none" x="569" y="332" width="10" height="60" xlink:href="img/48.png"/>
<image preserveAspectRatio="none" x="579" y="337" width="12" height="40" xlink:href="img/49.png"/>
<image preserveAspectRatio="none" x="592" y="338" width="4" height="7" xlink:href="img/50.png"/>
<image preserveAspectRatio="none" x="570" y="402" width="71" height="15" xlink:href="img/51.png"/>
<image preserveAspectRatio="none" x="641" y="402" width="15" height="15" xlink:href="img/52.png"/>
<image preserveAspectRatio="none" x="660" y="402" width="7" height="61" xlink:href="img/53.png"/>
<image preserveAspectRatio="none" x="570" y="367" width="17" height="60" xlink:href="img/54.png"/>
<image preserveAspectRatio="none" x="587" y="367" width="6" height="60" xlink:href="img/55.png"/>
<image preserveAspectRatio="none" x="594" y="373" width="5" height="7" xlink:href="img/56.png"/>
<image preserveAspectRatio="none" x="599" y="367" width="71" height="15" xlink:href="img/57.png"/>
<image preserveAspectRatio="none" x="670" y="367" width="15" height="15" xlink:href="img/58.png"/>
<image preserveAspectRatio="none" x="689" y="367" width="7" height="61" xlink:href="img/59.png"/>
<image preserveAspectRatio="none" x="570" y="298" width="18" height="61" xlink:href="img/60.png"/>
<image preserveAspectRatio="none" x="588" y="298" width="5" height="61" xlink:href="img/61.png"/>
<image preserveAspectRatio="none" x="595" y="304" width="4" height="7" xlink:href="img/62.png"/>
<image preserveAspectRatio="none" x="600" y="298" width="71" height="16" xlink:href="img/63.png"/>
<image preserveAspectRatio="none" x="671" y="298" width="14" height="16" xlink:href="img/64.png"/>
<image preserveAspectRatio="none" x="689" y="298" width="7" height="59" xlink:href="img/65.png"/>
<image preserveAspectRatio="none" x="570" y="438" width="29" height="38" xlink:href="img/66.png"/>
<image preserveAspectRatio="none" x="599" y="438" width="12" height="38" xlink:href="img/67.png"/>
<image preserveAspectRatio="none" x="615" y="438" width="7" height="61" xlink:href="img/68.png"/>
<path d="M392.8,258.6l47.3,27.9l-47.3,28V258.6Z" class="g6_2"/>
<image preserveAspectRatio="none" x="396" y="296" width="7" height="39" xlink:href="img/69.png"/>
<image preserveAspectRatio="none" x="397" y="272" width="4" height="7" xlink:href="img/70.png"/>
<path d="M392.6,271.1h-9.2m9.2,32.2h-9.2m140,-32.2h-7.5m7.5,32.2h-7.5m-.8,11.8L467.9,287.2l47.2,-28v55.9Z" class="g6_2"/>
<image preserveAspectRatio="none" x="505" y="296" width="7" height="39" xlink:href="img/71.png"/>
<image preserveAspectRatio="none" x="506" y="272" width="4" height="7" xlink:href="img/72.png"/>
<path d="M467.9,287.2h-8.4m-9.6,-.7h-9.8m9.8,0V238.9m9.6,48.2V238.9m-9.6,-.4H383.3m140.1,0H459.7M392.8,418.6l49,-29l-49,-29.1v58.1Z" class="g6_2"/>
<image preserveAspectRatio="none" x="396" y="374" width="7" height="39" xlink:href="img/73.png"/>
<image preserveAspectRatio="none" x="397" y="403" width="4" height="7" xlink:href="img/74.png"/>
<path d="M392.6,406.2h-9.2m9.2,-34.6h-9.2m140,34.6h-7.5m7.5,-34.6h-7.5m-.2,-12.1L466,388.9l49.7,29.4V359.5Z" class="g6_2"/>
<image preserveAspectRatio="none" x="505" y="374" width="7" height="39" xlink:href="img/75.png"/>
<image preserveAspectRatio="none" x="506" y="403" width="4" height="7" xlink:href="img/76.png"/>
<path d="M466,388.9h-6.5m-9.6,.7h-8.1m8.1,0v51.3M459.5,389v51.9m-9.6,.4H383.4m140,0H459.7" class="g6_2"/>
<path fill-rule="evenodd" d="M454.4,235.4c10.1,0,18.3,-8.3,18.3,-18.3c0,-10.2,-8.2,-18.4,-18.3,-18.4c-10.2,0,-18.3,8.2,-18.3,18.4c0,10,8.1,18.3,18.3,18.3Z" class="g2_2"/>
<path d="M454.4,235.4c10.1,0,18.3,-8.3,18.3,-18.3c0,-10.2,-8.2,-18.4,-18.3,-18.4c-10.2,0,-18.3,8.2,-18.3,18.4c0,10,8.1,18.3,18.3,18.3Z" class="g6_2"/>
<path d="M433.2,220.9h42.9V197.3H433.2v23.6Z" class="g2_2"/>
</svg>