<?xml version="1.0" encoding="UTF-8" standalone="no"?>
<!DOCTYPE svg PUBLIC "-//W3C//DTD SVG 1.1//EN"
"http://www.w3.org/Graphics/SVG/1.1/DTD/svg11.dtd">
<svg viewBox="0 0 935 1210" version="1.1" xmlns="http://www.w3.org/2000/svg" xmlns:xlink="http://www.w3.org/1999/xlink">
<defs>
<clipPath id="c0_2"><path d="M0,1209.6V-.3H935V1209.6Z"/></clipPath>
<style type="text/css"><![CDATA[
.g0_2{
fill: none;
stroke: #000000;
stroke-width: 2.164;
stroke-linecap: round;
stroke-linejoin: round;
}
.g1_2{
stroke: #000000;
stroke-width: 0.152;
stroke-linecap: round;
stroke-linejoin: round;
}
.g2_2{
fill: none;
stroke: #000000;
stroke-width: 0.346;
stroke-linecap: round;
stroke-linejoin: round;
}
.g3_2{
fill: none;
stroke: #000000;
stroke-width: 1.375;
stroke-linecap: round;
stroke-linejoin: round;
}
]]></style>
</defs>
<path d="M95.7,1146.3H863.3" class="g0_2"/>
<path fill-rule="evenodd" d="M91.4,107H92v23.4h-.6V107Z" class="g1_2"/>
<path fill-rule="evenodd" d="M91.4,107H392.8v.6H91.4V107Z" class="g1_2"/>
<path fill-rule="evenodd" d="M392.9,107h.6v23.4h-.6V107Z" class="g1_2"/>
<path fill-rule="evenodd" d="M392.9,107h73v.6h-73V107Z" class="g1_2"/>
<path fill-rule="evenodd" d="M466,107h.6v23.4H466V107Z" class="g1_2"/>
<path fill-rule="evenodd" d="M466,107H630.4v.6H466V107Z" class="g1_2"/>
<path fill-rule="evenodd" d="M630.5,107h1.4v23.4h-1.4V107Z" class="g1_2"/>
<path fill-rule="evenodd" d="M630.5,107H794.9v.6H630.5V107Z" class="g1_2"/>
<path fill-rule="evenodd" d="M794.9,107h.7v23.4h-.7V107Z" class="g1_2"/>
<path fill-rule="evenodd" d="M859,107h.6v23.4H859V107Z" class="g1_2"/>
<path fill-rule="evenodd" d="M794.9,107h64.7v.6H794.9V107Z" class="g1_2"/>
<path fill-rule="evenodd" d="M91.4,130.4H92v23.5h-.6V130.4Z" class="g1_2"/>
<path fill-rule="evenodd" d="M392.9,130.4h.6v23.5h-.6V130.4Z" class="g1_2"/>
<path fill-rule="evenodd" d="M466,130.4h.6v23.5H466V130.4Z" class="g1_2"/>
<path fill-rule="evenodd" d="M466,130.4h54.7v.6H466v-.6Z" class="g1_2"/>
<path fill-rule="evenodd" d="M520.8,130.4h.6v23.5h-.6V130.4Z" class="g1_2"/>
<path fill-rule="evenodd" d="M520.8,130.4h54.8v.6H520.8v-.6Z" class="g1_2"/>
<path fill-rule="evenodd" d="M575.6,130.4h.6v23.5h-.6V130.4Z" class="g1_2"/>
<path fill-rule="evenodd" d="M575.6,130.4h54.8v.6H575.6v-.6Z" class="g1_2"/>
<path fill-rule="evenodd" d="M630.5,130.4h1.4v23.5h-1.4V130.4Z" class="g1_2"/>
<path fill-rule="evenodd" d="M630.5,130.4h54.7v.6H630.5v-.6Z" class="g1_2"/>
<path fill-rule="evenodd" d="M685.3,130.4h.6v23.5h-.6V130.4Z" class="g1_2"/>
<path fill-rule="evenodd" d="M685.3,130.4H740v.6H685.3v-.6Z" class="g1_2"/>
<path fill-rule="evenodd" d="M740.1,130.4h.6v23.5h-.6V130.4Z" class="g1_2"/>
<path fill-rule="evenodd" d="M740.1,130.4h54.8v.6H740.1v-.6Z" class="g1_2"/>
<path fill-rule="evenodd" d="M794.9,130.4h.7v23.5h-.7V130.4Z" class="g1_2"/>
<path fill-rule="evenodd" d="M859,130.4h.6v23.5H859V130.4Z" class="g1_2"/>
<path fill-rule="evenodd" d="M91.4,153.9H92v20.7h-.6V153.9Z" class="g1_2"/>
<path fill-rule="evenodd" d="M91.4,153.9H392.8v.6H91.4v-.6Z" class="g1_2"/>
<path fill-rule="evenodd" d="M392.9,153.9h.6v20.7h-.6V153.9Z" class="g1_2"/>
<path fill-rule="evenodd" d="M392.9,153.9h73v.6h-73v-.6Z" class="g1_2"/>
<path fill-rule="evenodd" d="M466,153.9h.6v20.7H466V153.9Z" class="g1_2"/>
<path fill-rule="evenodd" d="M466,153.9h54.7v.6H466v-.6Z" class="g1_2"/>
<path fill-rule="evenodd" d="M520.8,153.9h.6v20.7h-.6V153.9Z" class="g1_2"/>
<path fill-rule="evenodd" d="M520.8,153.9h54.8v.6H520.8v-.6Z" class="g1_2"/>
<path fill-rule="evenodd" d="M575.6,153.9h.6v20.7h-.6V153.9Z" class="g1_2"/>
<path fill-rule="evenodd" d="M575.6,153.9h54.8v.6H575.6v-.6Z" class="g1_2"/>
<path fill-rule="evenodd" d="M630.5,153.9h1.4v20.7h-1.4V153.9Z" class="g1_2"/>
<path fill-rule="evenodd" d="M630.5,153.9h54.7v.6H630.5v-.6Z" class="g1_2"/>
<path fill-rule="evenodd" d="M685.3,153.9h.6v20.7h-.6V153.9Z" class="g1_2"/>
<path fill-rule="evenodd" d="M685.3,153.9H740v.6H685.3v-.6Z" class="g1_2"/>
<path fill-rule="evenodd" d="M740.1,153.9h.6v20.7h-.6V153.9Z" class="g1_2"/>
<path fill-rule="evenodd" d="M740.1,153.9h54.8v.6H740.1v-.6Z" class="g1_2"/>
<path fill-rule="evenodd" d="M794.9,153.9h.7v20.7h-.7V153.9Z" class="g1_2"/>
<path fill-rule="evenodd" d="M859,153.9h.6v20.7H859V153.9Z" class="g1_2"/>
<path fill-rule="evenodd" d="M794.9,153.9h64.7v.6H794.9v-.6Z" class="g1_2"/>
<path fill-rule="evenodd" d="M91.4,174.7H92v16h-.6v-16Z" class="g1_2"/>
<path fill-rule="evenodd" d="M392.9,174.7h.6v16h-.6v-16Z" class="g1_2"/>
<path fill-rule="evenodd" d="M466,174.7h.6v16H466v-16Z" class="g1_2"/>
<path fill-rule="evenodd" d="M520.8,174.7h.6v16h-.6v-16Z" class="g1_2"/>
<path fill-rule="evenodd" d="M575.6,174.7h.6v16h-.6v-16Z" class="g1_2"/>
<path fill-rule="evenodd" d="M630.5,174.7h1.4v16h-1.4v-16Z" class="g1_2"/>
<path fill-rule="evenodd" d="M685.3,174.7h.6v16h-.6v-16Z" class="g1_2"/>
<path fill-rule="evenodd" d="M740.1,174.7h.6v16h-.6v-16Z" class="g1_2"/>
<path fill-rule="evenodd" d="M794.9,174.7h.7v16h-.7v-16Z" class="g1_2"/>
<path fill-rule="evenodd" d="M859,174.7h.6v16H859v-16Z" class="g1_2"/>
<path fill-rule="evenodd" d="M91.4,190.8H92v17.7h-.6V190.8Z" class="g1_2"/>
<path fill-rule="evenodd" d="M392.9,190.8h.6v17.7h-.6V190.8Z" class="g1_2"/>
<path fill-rule="evenodd" d="M466,190.8h.6v17.7H466V190.8Z" class="g1_2"/>
<path fill-rule="evenodd" d="M520.8,190.8h.6v17.7h-.6V190.8Z" class="g1_2"/>
<path fill-rule="evenodd" d="M575.6,190.8h.6v17.7h-.6V190.8Z" class="g1_2"/>
<path fill-rule="evenodd" d="M630.5,190.8h1.4v17.7h-1.4V190.8Z" class="g1_2"/>
<path fill-rule="evenodd" d="M685.3,190.8h.6v17.7h-.6V190.8Z" class="g1_2"/>
<path fill-rule="evenodd" d="M740.1,190.8h.6v17.7h-.6V190.8Z" class="g1_2"/>
<path fill-rule="evenodd" d="M794.9,190.8h.7v17.7h-.7V190.8Z" class="g1_2"/>
<path fill-rule="evenodd" d="M859,190.8h.6v17.7H859V190.8Z" class="g1_2"/>
<path fill-rule="evenodd" d="M91.4,208.6H92v20.7h-.6V208.6Z" class="g1_2"/>
<path fill-rule="evenodd" d="M91.4,208.6H392.8v.6H91.4v-.6Z" class="g1_2"/>
<path fill-rule="evenodd" d="M392.9,208.6h.6v20.7h-.6V208.6Z" class="g1_2"/>
<path fill-rule="evenodd" d="M392.9,208.6h73v.6h-73v-.6Z" class="g1_2"/>
<path fill-rule="evenodd" d="M466,208.6h.6v20.7H466V208.6Z" class="g1_2"/>
<path fill-rule="evenodd" d="M466,208.6h54.7v.6H466v-.6Z" class="g1_2"/>
<path fill-rule="evenodd" d="M520.8,208.6h.6v20.7h-.6V208.6Z" class="g1_2"/>
<path fill-rule="evenodd" d="M520.8,208.6h54.8v.6H520.8v-.6Z" class="g1_2"/>
<path fill-rule="evenodd" d="M575.6,208.6h.6v20.7h-.6V208.6Z" class="g1_2"/>
<path fill-rule="evenodd" d="M575.6,208.6h54.8v.6H575.6v-.6Z" class="g1_2"/>
<path fill-rule="evenodd" d="M630.5,208.6h1.4v20.7h-1.4V208.6Z" class="g1_2"/>
<path fill-rule="evenodd" d="M630.5,208.6h54.7v.6H630.5v-.6Z" class="g1_2"/>
<path fill-rule="evenodd" d="M685.3,208.6h.6v20.7h-.6V208.6Z" class="g1_2"/>
<path fill-rule="evenodd" d="M685.3,208.6H740v.6H685.3v-.6Z" class="g1_2"/>
<path fill-rule="evenodd" d="M740.1,208.6h.6v20.7h-.6V208.6Z" class="g1_2"/>
<path fill-rule="evenodd" d="M740.1,208.6h54.8v.6H740.1v-.6Z" class="g1_2"/>
<path fill-rule="evenodd" d="M794.9,208.6h.7v20.7h-.7V208.6Z" class="g1_2"/>
<path fill-rule="evenodd" d="M859,208.6h.6v20.7H859V208.6Z" class="g1_2"/>
<path fill-rule="evenodd" d="M794.9,208.6h64.7v.6H794.9v-.6Z" class="g1_2"/>
<path fill-rule="evenodd" d="M91.4,229.3H92v16.1h-.6V229.3Z" class="g1_2"/>
<path fill-rule="evenodd" d="M392.9,229.3h.6v16.1h-.6V229.3Z" class="g1_2"/>
<path fill-rule="evenodd" d="M466,229.3h.6v16.1H466V229.3Z" class="g1_2"/>
<path fill-rule="evenodd" d="M520.8,229.3h.6v16.1h-.6V229.3Z" class="g1_2"/>
<path fill-rule="evenodd" d="M575.6,229.3h.6v16.1h-.6V229.3Z" class="g1_2"/>
<path fill-rule="evenodd" d="M630.5,229.3h1.4v16.1h-1.4V229.3Z" class="g1_2"/>
<path fill-rule="evenodd" d="M685.3,229.3h.6v16.1h-.6V229.3Z" class="g1_2"/>
<path fill-rule="evenodd" d="M740.1,229.3h.6v16.1h-.6V229.3Z" class="g1_2"/>
<path fill-rule="evenodd" d="M794.9,229.3h.7v16.1h-.7V229.3Z" class="g1_2"/>
<path fill-rule="evenodd" d="M859,229.3h.6v16.1H859V229.3Z" class="g1_2"/>
<path fill-rule="evenodd" d="M91.4,245.5H92v20.6h-.6V245.5Z" class="g1_2"/>
<path fill-rule="evenodd" d="M91.4,245.5H392.8v.6H91.4v-.6Z" class="g1_2"/>
<path fill-rule="evenodd" d="M392.9,245.5h.6v20.6h-.6V245.5Z" class="g1_2"/>
<path fill-rule="evenodd" d="M392.9,245.5h73v.6h-73v-.6Z" class="g1_2"/>
<path fill-rule="evenodd" d="M466,245.5h.6v20.6H466V245.5Z" class="g1_2"/>
<path fill-rule="evenodd" d="M466,245.5h54.7v.6H466v-.6Z" class="g1_2"/>
<path fill-rule="evenodd" d="M520.8,245.5h.6v20.6h-.6V245.5Z" class="g1_2"/>
<path fill-rule="evenodd" d="M520.8,245.5h54.8v.6H520.8v-.6Z" class="g1_2"/>
<path fill-rule="evenodd" d="M575.6,245.5h.6v20.6h-.6V245.5Z" class="g1_2"/>
<path fill-rule="evenodd" d="M575.6,245.5h54.8v.6H575.6v-.6Z" class="g1_2"/>
<path fill-rule="evenodd" d="M630.5,245.5h1.4v20.6h-1.4V245.5Z" class="g1_2"/>
<path fill-rule="evenodd" d="M630.5,245.5h54.7v.6H630.5v-.6Z" class="g1_2"/>
<path fill-rule="evenodd" d="M685.3,245.5h.6v20.6h-.6V245.5Z" class="g1_2"/>
<path fill-rule="evenodd" d="M685.3,245.5H740v.6H685.3v-.6Z" class="g1_2"/>
<path fill-rule="evenodd" d="M740.1,245.5h.6v20.6h-.6V245.5Z" class="g1_2"/>
<path fill-rule="evenodd" d="M740.1,245.5h54.8v.6H740.1v-.6Z" class="g1_2"/>
<path fill-rule="evenodd" d="M794.9,245.5h.7v20.6h-.7V245.5Z" class="g1_2"/>
<path fill-rule="evenodd" d="M859,245.5h.6v20.6H859V245.5Z" class="g1_2"/>
<path fill-rule="evenodd" d="M794.9,245.5h64.7v.6H794.9v-.6Z" class="g1_2"/>
<path fill-rule="evenodd" d="M91.4,266.2H92v16.1h-.6V266.2Z" class="g1_2"/>
<path fill-rule="evenodd" d="M392.9,266.2h.6v16.1h-.6V266.2Z" class="g1_2"/>
<path fill-rule="evenodd" d="M466,266.2h.6v16.1H466V266.2Z" class="g1_2"/>
<path fill-rule="evenodd" d="M520.8,266.2h.6v16.1h-.6V266.2Z" class="g1_2"/>
<path fill-rule="evenodd" d="M575.6,266.2h.6v16.1h-.6V266.2Z" class="g1_2"/>
<path fill-rule="evenodd" d="M630.5,266.2h1.4v16.1h-1.4V266.2Z" class="g1_2"/>
<path fill-rule="evenodd" d="M685.3,266.2h.6v16.1h-.6V266.2Z" class="g1_2"/>
<path fill-rule="evenodd" d="M740.1,266.2h.6v16.1h-.6V266.2Z" class="g1_2"/>
<path fill-rule="evenodd" d="M794.9,266.2h.7v16.1h-.7V266.2Z" class="g1_2"/>
<path fill-rule="evenodd" d="M859,266.2h.6v16.1H859V266.2Z" class="g1_2"/>
<path fill-rule="evenodd" d="M91.4,282.3H92V300h-.6V282.3Z" class="g1_2"/>
<path fill-rule="evenodd" d="M392.9,282.3h.6V300h-.6V282.3Z" class="g1_2"/>
<path fill-rule="evenodd" d="M466,282.3h.6V300H466V282.3Z" class="g1_2"/>
<path fill-rule="evenodd" d="M520.8,282.3h.6V300h-.6V282.3Z" class="g1_2"/>
<path fill-rule="evenodd" d="M575.6,282.3h.6V300h-.6V282.3Z" class="g1_2"/>
<path fill-rule="evenodd" d="M630.5,282.3h1.4V300h-1.4V282.3Z" class="g1_2"/>
<path fill-rule="evenodd" d="M685.3,282.3h.6V300h-.6V282.3Z" class="g1_2"/>
<path fill-rule="evenodd" d="M740.1,282.3h.6V300h-.6V282.3Z" class="g1_2"/>
<path fill-rule="evenodd" d="M794.9,282.3h.7V300h-.7V282.3Z" class="g1_2"/>
<path fill-rule="evenodd" d="M859,282.3h.6V300H859V282.3Z" class="g1_2"/>
<path fill-rule="evenodd" d="M91.4,300H92v20.7h-.6V300Z" class="g1_2"/>
<path fill-rule="evenodd" d="M91.4,300H392.8v.6H91.4V300Z" class="g1_2"/>
<path fill-rule="evenodd" d="M392.9,300h.6v20.7h-.6V300Z" class="g1_2"/>
<path fill-rule="evenodd" d="M392.9,300h73v.6h-73V300Z" class="g1_2"/>
<path fill-rule="evenodd" d="M466,300h.6v20.7H466V300Z" class="g1_2"/>
<path fill-rule="evenodd" d="M466,300h54.7v.6H466V300Z" class="g1_2"/>
<path fill-rule="evenodd" d="M520.8,300h.6v20.7h-.6V300Z" class="g1_2"/>
<path fill-rule="evenodd" d="M520.8,300h54.8v.6H520.8V300Z" class="g1_2"/>
<path fill-rule="evenodd" d="M575.6,300h.6v20.7h-.6V300Z" class="g1_2"/>
<path fill-rule="evenodd" d="M575.6,300h54.8v.6H575.6V300Z" class="g1_2"/>
<path fill-rule="evenodd" d="M630.5,300h1.4v20.7h-1.4V300Z" class="g1_2"/>
<path fill-rule="evenodd" d="M630.5,300h54.7v.6H630.5V300Z" class="g1_2"/>
<path fill-rule="evenodd" d="M685.3,300h.6v20.7h-.6V300Z" class="g1_2"/>
<path fill-rule="evenodd" d="M685.3,300H740v.6H685.3V300Z" class="g1_2"/>
<path fill-rule="evenodd" d="M740.1,300h.6v20.7h-.6V300Z" class="g1_2"/>
<path fill-rule="evenodd" d="M740.1,300h54.8v.6H740.1V300Z" class="g1_2"/>
<path fill-rule="evenodd" d="M794.9,300h.7v20.7h-.7V300Z" class="g1_2"/>
<path fill-rule="evenodd" d="M859,300h.6v20.7H859V300Z" class="g1_2"/>
<path fill-rule="evenodd" d="M794.9,300h64.7v.6H794.9V300Z" class="g1_2"/>
<path fill-rule="evenodd" d="M91.4,320.8H92v16.1h-.6V320.8Z" class="g1_2"/>
<path fill-rule="evenodd" d="M392.9,320.8h.6v16.1h-.6V320.8Z" class="g1_2"/>
<path fill-rule="evenodd" d="M466,320.8h.6v16.1H466V320.8Z" class="g1_2"/>
<path fill-rule="evenodd" d="M520.8,320.8h.6v16.1h-.6V320.8Z" class="g1_2"/>
<path fill-rule="evenodd" d="M575.6,320.8h.6v16.1h-.6V320.8Z" class="g1_2"/>
<path fill-rule="evenodd" d="M630.5,320.8h1.4v16.1h-1.4V320.8Z" class="g1_2"/>
<path fill-rule="evenodd" d="M685.3,320.8h.6v16.1h-.6V320.8Z" class="g1_2"/>
<path fill-rule="evenodd" d="M740.1,320.8h.6v16.1h-.6V320.8Z" class="g1_2"/>
<path fill-rule="evenodd" d="M794.9,320.8h.7v16.1h-.7V320.8Z" class="g1_2"/>
<path fill-rule="evenodd" d="M859,320.8h.6v16.1H859V320.8Z" class="g1_2"/>
<path fill-rule="evenodd" d="M91.4,336.9H92v17.8h-.6V336.9Z" class="g1_2"/>
<path fill-rule="evenodd" d="M392.9,336.9h.6v17.8h-.6V336.9Z" class="g1_2"/>
<path fill-rule="evenodd" d="M466,336.9h.6v17.8H466V336.9Z" class="g1_2"/>
<path fill-rule="evenodd" d="M520.8,336.9h.6v17.8h-.6V336.9Z" class="g1_2"/>
<path fill-rule="evenodd" d="M575.6,336.9h.6v17.8h-.6V336.9Z" class="g1_2"/>
<path fill-rule="evenodd" d="M630.5,336.9h1.4v17.8h-1.4V336.9Z" class="g1_2"/>
<path fill-rule="evenodd" d="M685.3,336.9h.6v17.8h-.6V336.9Z" class="g1_2"/>
<path fill-rule="evenodd" d="M740.1,336.9h.6v17.8h-.6V336.9Z" class="g1_2"/>
<path fill-rule="evenodd" d="M794.9,336.9h.7v17.8h-.7V336.9Z" class="g1_2"/>
<path fill-rule="evenodd" d="M859,336.9h.6v17.8H859V336.9Z" class="g1_2"/>
<path fill-rule="evenodd" d="M91.4,354.7H92v23.4h-.6V354.7Z" class="g1_2"/>
<path fill-rule="evenodd" d="M91.4,354.7H392.8v.6H91.4v-.6Z" class="g1_2"/>
<path fill-rule="evenodd" d="M392.9,354.7h.6v23.4h-.6V354.7Z" class="g1_2"/>
<path fill-rule="evenodd" d="M392.9,354.7h73v.6h-73v-.6Z" class="g1_2"/>
<path fill-rule="evenodd" d="M466,354.7h.6v23.4H466V354.7Z" class="g1_2"/>
<path fill-rule="evenodd" d="M466,354.7h54.7v.6H466v-.6Z" class="g1_2"/>
<path fill-rule="evenodd" d="M520.8,354.7h.6v23.4h-.6V354.7Z" class="g1_2"/>
<path fill-rule="evenodd" d="M520.8,354.7h54.8v.6H520.8v-.6Z" class="g1_2"/>
<path fill-rule="evenodd" d="M575.6,354.7h.6v23.4h-.6V354.7Z" class="g1_2"/>
<path fill-rule="evenodd" d="M575.6,354.7h54.8v.6H575.6v-.6Z" class="g1_2"/>
<path fill-rule="evenodd" d="M630.5,354.7h1.4v23.4h-1.4V354.7Z" class="g1_2"/>
<path fill-rule="evenodd" d="M630.5,354.7h54.7v.6H630.5v-.6Z" class="g1_2"/>
<path fill-rule="evenodd" d="M685.3,354.7h.6v23.4h-.6V354.7Z" class="g1_2"/>
<path fill-rule="evenodd" d="M685.3,354.7H740v.6H685.3v-.6Z" class="g1_2"/>
<path fill-rule="evenodd" d="M740.1,354.7h.6v23.4h-.6V354.7Z" class="g1_2"/>
<path fill-rule="evenodd" d="M740.1,354.7h54.8v.6H740.1v-.6Z" class="g1_2"/>
<path fill-rule="evenodd" d="M794.9,354.7h.7v23.4h-.7V354.7Z" class="g1_2"/>
<path fill-rule="evenodd" d="M859,354.7h.6v23.4H859V354.7Z" class="g1_2"/>
<path fill-rule="evenodd" d="M794.9,354.7h64.7v.6H794.9v-.6Z" class="g1_2"/>
<path fill-rule="evenodd" d="M91.4,378.2H92v20.7h-.6V378.2Z" class="g1_2"/>
<path fill-rule="evenodd" d="M91.4,378.2H392.8v.6H91.4v-.6Z" class="g1_2"/>
<path fill-rule="evenodd" d="M392.9,378.2h.6v20.7h-.6V378.2Z" class="g1_2"/>
<path fill-rule="evenodd" d="M392.9,378.2h73v.6h-73v-.6Z" class="g1_2"/>
<path fill-rule="evenodd" d="M466,378.2h.6v20.7H466V378.2Z" class="g1_2"/>
<path fill-rule="evenodd" d="M466,378.2h54.7v.6H466v-.6Z" class="g1_2"/>
<path fill-rule="evenodd" d="M520.8,378.2h.6v20.7h-.6V378.2Z" class="g1_2"/>
<path fill-rule="evenodd" d="M520.8,378.2h54.8v.6H520.8v-.6Z" class="g1_2"/>
<path fill-rule="evenodd" d="M575.6,378.2h.6v20.7h-.6V378.2Z" class="g1_2"/>
<path fill-rule="evenodd" d="M575.6,378.2h54.8v.6H575.6v-.6Z" class="g1_2"/>
<path fill-rule="evenodd" d="M630.5,378.2h1.4v20.7h-1.4V378.2Z" class="g1_2"/>
<path fill-rule="evenodd" d="M630.5,378.2h54.7v.6H630.5v-.6Z" class="g1_2"/>
<path fill-rule="evenodd" d="M685.3,378.2h.6v20.7h-.6V378.2Z" class="g1_2"/>
<path fill-rule="evenodd" d="M685.3,378.2H740v.6H685.3v-.6Z" class="g1_2"/>
<path fill-rule="evenodd" d="M740.1,378.2h.6v20.7h-.6V378.2Z" class="g1_2"/>
<path fill-rule="evenodd" d="M740.1,378.2h54.8v.6H740.1v-.6Z" class="g1_2"/>
<path fill-rule="evenodd" d="M794.9,378.2h.7v20.7h-.7V378.2Z" class="g1_2"/>
<path fill-rule="evenodd" d="M859,378.2h.6v20.7H859V378.2Z" class="g1_2"/>
<path fill-rule="evenodd" d="M794.9,378.2h64.7v.6H794.9v-.6Z" class="g1_2"/>
<path fill-rule="evenodd" d="M91.4,398.9H92V415h-.6V398.9Z" class="g1_2"/>
<path fill-rule="evenodd" d="M392.9,398.9h.6V415h-.6V398.9Z" class="g1_2"/>
<path fill-rule="evenodd" d="M466,398.9h.6V415H466V398.9Z" class="g1_2"/>
<path fill-rule="evenodd" d="M520.8,398.9h.6V415h-.6V398.9Z" class="g1_2"/>
<path fill-rule="evenodd" d="M575.6,398.9h.6V415h-.6V398.9Z" class="g1_2"/>
<path fill-rule="evenodd" d="M630.5,398.9h1.4V415h-1.4V398.9Z" class="g1_2"/>
<path fill-rule="evenodd" d="M685.3,398.9h.6V415h-.6V398.9Z" class="g1_2"/>
<path fill-rule="evenodd" d="M740.1,398.9h.6V415h-.6V398.9Z" class="g1_2"/>
<path fill-rule="evenodd" d="M794.9,398.9h.7V415h-.7V398.9Z" class="g1_2"/>
<path fill-rule="evenodd" d="M859,398.9h.6V415H859V398.9Z" class="g1_2"/>
<path fill-rule="evenodd" d="M91.4,415.1H92v20.6h-.6V415.1Z" class="g1_2"/>
<path fill-rule="evenodd" d="M91.4,415.1H392.8v.6H91.4v-.6Z" class="g1_2"/>
<path fill-rule="evenodd" d="M392.9,415.1h.6v20.6h-.6V415.1Z" class="g1_2"/>
<path fill-rule="evenodd" d="M392.9,415.1h73v.6h-73v-.6Z" class="g1_2"/>
<path fill-rule="evenodd" d="M466,415.1h.6v20.6H466V415.1Z" class="g1_2"/>
<path fill-rule="evenodd" d="M466,415.1h54.7v.6H466v-.6Z" class="g1_2"/>
<path fill-rule="evenodd" d="M520.8,415.1h.6v20.6h-.6V415.1Z" class="g1_2"/>
<path fill-rule="evenodd" d="M520.8,415.1h54.8v.6H520.8v-.6Z" class="g1_2"/>
<path fill-rule="evenodd" d="M575.6,415.1h.6v20.6h-.6V415.1Z" class="g1_2"/>
<path fill-rule="evenodd" d="M575.6,415.1h54.8v.6H575.6v-.6Z" class="g1_2"/>
<path fill-rule="evenodd" d="M630.5,415.1h1.4v20.6h-1.4V415.1Z" class="g1_2"/>
<path fill-rule="evenodd" d="M630.5,415.1h54.7v.6H630.5v-.6Z" class="g1_2"/>
<path fill-rule="evenodd" d="M685.3,415.1h.6v20.6h-.6V415.1Z" class="g1_2"/>
<path fill-rule="evenodd" d="M685.3,415.1H740v.6H685.3v-.6Z" class="g1_2"/>
<path fill-rule="evenodd" d="M740.1,415.1h.6v20.6h-.6V415.1Z" class="g1_2"/>
<path fill-rule="evenodd" d="M740.1,415.1h54.8v.6H740.1v-.6Z" class="g1_2"/>
<path fill-rule="evenodd" d="M794.9,415.1h.7v20.6h-.7V415.1Z" class="g1_2"/>
<path fill-rule="evenodd" d="M859,415.1h.6v20.6H859V415.1Z" class="g1_2"/>
<path fill-rule="evenodd" d="M794.9,415.1h64.7v.6H794.9v-.6Z" class="g1_2"/>
<path fill-rule="evenodd" d="M91.4,435.8H92v16.1h-.6V435.8Z" class="g1_2"/>
<path fill-rule="evenodd" d="M392.9,435.8h.6v16.1h-.6V435.8Z" class="g1_2"/>
<path fill-rule="evenodd" d="M466,435.8h.6v16.1H466V435.8Z" class="g1_2"/>
<path fill-rule="evenodd" d="M520.8,435.8h.6v16.1h-.6V435.8Z" class="g1_2"/>
<path fill-rule="evenodd" d="M575.6,435.8h.6v16.1h-.6V435.8Z" class="g1_2"/>
<path fill-rule="evenodd" d="M630.5,435.8h1.4v16.1h-1.4V435.8Z" class="g1_2"/>
<path fill-rule="evenodd" d="M685.3,435.8h.6v16.1h-.6V435.8Z" class="g1_2"/>
<path fill-rule="evenodd" d="M740.1,435.8h.6v16.1h-.6V435.8Z" class="g1_2"/>
<path fill-rule="evenodd" d="M794.9,435.8h.7v16.1h-.7V435.8Z" class="g1_2"/>
<path fill-rule="evenodd" d="M859,435.8h.6v16.1H859V435.8Z" class="g1_2"/>
<path fill-rule="evenodd" d="M91.4,451.9H92v17.7h-.6V451.9Z" class="g1_2"/>
<path fill-rule="evenodd" d="M392.9,451.9h.6v17.7h-.6V451.9Z" class="g1_2"/>
<path fill-rule="evenodd" d="M466,451.9h.6v17.7H466V451.9Z" class="g1_2"/>
<path fill-rule="evenodd" d="M520.8,451.9h.6v17.7h-.6V451.9Z" class="g1_2"/>
<path fill-rule="evenodd" d="M575.6,451.9h.6v17.7h-.6V451.9Z" class="g1_2"/>
<path fill-rule="evenodd" d="M630.5,451.9h1.4v17.7h-1.4V451.9Z" class="g1_2"/>
<path fill-rule="evenodd" d="M685.3,451.9h.6v17.7h-.6V451.9Z" class="g1_2"/>
<path fill-rule="evenodd" d="M740.1,451.9h.6v17.7h-.6V451.9Z" class="g1_2"/>
<path fill-rule="evenodd" d="M794.9,451.9h.7v17.7h-.7V451.9Z" class="g1_2"/>
<path fill-rule="evenodd" d="M859,451.9h.6v17.7H859V451.9Z" class="g1_2"/>
<path fill-rule="evenodd" d="M91.4,469.6H92v23.5h-.6V469.6Z" class="g1_2"/>
<path fill-rule="evenodd" d="M91.4,469.6H392.8v.6H91.4v-.6Z" class="g1_2"/>
<path fill-rule="evenodd" d="M392.9,469.6h.6v23.5h-.6V469.6Z" class="g1_2"/>
<path fill-rule="evenodd" d="M392.9,469.6h73v.6h-73v-.6Z" class="g1_2"/>
<path fill-rule="evenodd" d="M466,469.6h.6v23.5H466V469.6Z" class="g1_2"/>
<path fill-rule="evenodd" d="M466,469.6h54.7v.6H466v-.6Z" class="g1_2"/>
<path fill-rule="evenodd" d="M520.8,469.6h.6v23.5h-.6V469.6Z" class="g1_2"/>
<path fill-rule="evenodd" d="M520.8,469.6h54.8v.6H520.8v-.6Z" class="g1_2"/>
<path fill-rule="evenodd" d="M575.6,469.6h.6v23.5h-.6V469.6Z" class="g1_2"/>
<path fill-rule="evenodd" d="M575.6,469.6h54.8v.6H575.6v-.6Z" class="g1_2"/>
<path fill-rule="evenodd" d="M630.5,469.6h1.4v23.5h-1.4V469.6Z" class="g1_2"/>
<path fill-rule="evenodd" d="M630.5,469.6h54.7v.6H630.5v-.6Z" class="g1_2"/>
<path fill-rule="evenodd" d="M685.3,469.6h.6v23.5h-.6V469.6Z" class="g1_2"/>
<path fill-rule="evenodd" d="M685.3,469.6H740v.6H685.3v-.6Z" class="g1_2"/>
<path fill-rule="evenodd" d="M740.1,469.6h.6v23.5h-.6V469.6Z" class="g1_2"/>
<path fill-rule="evenodd" d="M740.1,469.6h54.8v.6H740.1v-.6Z" class="g1_2"/>
<path fill-rule="evenodd" d="M794.9,469.6h.7v23.5h-.7V469.6Z" class="g1_2"/>
<path fill-rule="evenodd" d="M859,469.6h.6v23.5H859V469.6Z" class="g1_2"/>
<path fill-rule="evenodd" d="M794.9,469.6h64.7v.6H794.9v-.6Z" class="g1_2"/>
<path fill-rule="evenodd" d="M91.4,493.1H92v23.4h-.6V493.1Z" class="g1_2"/>
<path fill-rule="evenodd" d="M91.4,493.1H392.8v.6H91.4v-.6Z" class="g1_2"/>
<path fill-rule="evenodd" d="M392.9,493.1h.6v23.4h-.6V493.1Z" class="g1_2"/>
<path fill-rule="evenodd" d="M392.9,493.1h73v.6h-73v-.6Z" class="g1_2"/>
<path fill-rule="evenodd" d="M466,493.1h.6v23.4H466V493.1Z" class="g1_2"/>
<path fill-rule="evenodd" d="M466,493.1h54.7v.6H466v-.6Z" class="g1_2"/>
<path fill-rule="evenodd" d="M520.8,493.1h.6v23.4h-.6V493.1Z" class="g1_2"/>
<path fill-rule="evenodd" d="M520.8,493.1h54.8v.6H520.8v-.6Z" class="g1_2"/>
<path fill-rule="evenodd" d="M575.6,493.1h.6v23.4h-.6V493.1Z" class="g1_2"/>
<path fill-rule="evenodd" d="M575.6,493.1h54.8v.6H575.6v-.6Z" class="g1_2"/>
<path fill-rule="evenodd" d="M630.5,493.1h1.4v23.4h-1.4V493.1Z" class="g1_2"/>
<path fill-rule="evenodd" d="M630.5,493.1h54.7v.6H630.5v-.6Z" class="g1_2"/>
<path fill-rule="evenodd" d="M685.3,493.1h.6v23.4h-.6V493.1Z" class="g1_2"/>
<path fill-rule="evenodd" d="M685.3,493.1H740v.6H685.3v-.6Z" class="g1_2"/>
<path fill-rule="evenodd" d="M740.1,493.1h.6v23.4h-.6V493.1Z" class="g1_2"/>
<path fill-rule="evenodd" d="M740.1,493.1h54.8v.6H740.1v-.6Z" class="g1_2"/>
<path fill-rule="evenodd" d="M794.9,493.1h.7v23.4h-.7V493.1Z" class="g1_2"/>
<path fill-rule="evenodd" d="M859,493.1h.6v23.4H859V493.1Z" class="g1_2"/>
<path fill-rule="evenodd" d="M794.9,493.1h64.7v.6H794.9v-.6Z" class="g1_2"/>
<path fill-rule="evenodd" d="M91.4,516.6H92V540h-.6V516.6Z" class="g1_2"/>
<path fill-rule="evenodd" d="M91.4,516.6H392.8v.6H91.4v-.6Z" class="g1_2"/>
<path fill-rule="evenodd" d="M392.9,516.6h.6V540h-.6V516.6Z" class="g1_2"/>
<path fill-rule="evenodd" d="M392.9,516.6h73v.6h-73v-.6Z" class="g1_2"/>
<path fill-rule="evenodd" d="M466,516.6h.6V540H466V516.6Z" class="g1_2"/>
<path fill-rule="evenodd" d="M466,516.6h54.7v.6H466v-.6Z" class="g1_2"/>
<path fill-rule="evenodd" d="M520.8,516.6h.6V540h-.6V516.6Z" class="g1_2"/>
<path fill-rule="evenodd" d="M520.8,516.6h54.8v.6H520.8v-.6Z" class="g1_2"/>
<path fill-rule="evenodd" d="M575.6,516.6h.6V540h-.6V516.6Z" class="g1_2"/>
<path fill-rule="evenodd" d="M575.6,516.6h54.8v.6H575.6v-.6Z" class="g1_2"/>
<path fill-rule="evenodd" d="M630.5,516.6h1.4V540h-1.4V516.6Z" class="g1_2"/>
<path fill-rule="evenodd" d="M630.5,516.6h54.7v.6H630.5v-.6Z" class="g1_2"/>
<path fill-rule="evenodd" d="M685.3,516.6h.6V540h-.6V516.6Z" class="g1_2"/>
<path fill-rule="evenodd" d="M685.3,516.6H740v.6H685.3v-.6Z" class="g1_2"/>
<path fill-rule="evenodd" d="M740.1,516.6h.6V540h-.6V516.6Z" class="g1_2"/>
<path fill-rule="evenodd" d="M740.1,516.6h54.8v.6H740.1v-.6Z" class="g1_2"/>
<path fill-rule="evenodd" d="M794.9,516.6h.7V540h-.7V516.6Z" class="g1_2"/>
<path fill-rule="evenodd" d="M859,516.6h.6V540H859V516.6Z" class="g1_2"/>
<path fill-rule="evenodd" d="M794.9,516.6h64.7v.6H794.9v-.6Z" class="g1_2"/>
<path fill-rule="evenodd" d="M91.4,540H92v20.7h-.6V540Z" class="g1_2"/>
<path fill-rule="evenodd" d="M91.4,540H392.8v.6H91.4V540Z" class="g1_2"/>
<path fill-rule="evenodd" d="M392.9,540h.6v20.7h-.6V540Z" class="g1_2"/>
<path fill-rule="evenodd" d="M392.9,540h73v.6h-73V540Z" class="g1_2"/>
<path fill-rule="evenodd" d="M466,540h.6v20.7H466V540Z" class="g1_2"/>
<path fill-rule="evenodd" d="M466,540h54.7v.6H466V540Z" class="g1_2"/>
<path fill-rule="evenodd" d="M520.8,540h.6v20.7h-.6V540Z" class="g1_2"/>
<path fill-rule="evenodd" d="M520.8,540h54.8v.6H520.8V540Z" class="g1_2"/>
<path fill-rule="evenodd" d="M575.6,540h.6v20.7h-.6V540Z" class="g1_2"/>
<path fill-rule="evenodd" d="M575.6,540h54.8v.6H575.6V540Z" class="g1_2"/>
<path fill-rule="evenodd" d="M630.5,540h1.4v20.7h-1.4V540Z" class="g1_2"/>
<path fill-rule="evenodd" d="M630.5,540h54.7v.6H630.5V540Z" class="g1_2"/>
<path fill-rule="evenodd" d="M685.3,540h.6v20.7h-.6V540Z" class="g1_2"/>
<path fill-rule="evenodd" d="M685.3,540H740v.6H685.3V540Z" class="g1_2"/>
<path fill-rule="evenodd" d="M740.1,540h.6v20.7h-.6V540Z" class="g1_2"/>
<path fill-rule="evenodd" d="M740.1,540h54.8v.6H740.1V540Z" class="g1_2"/>
<path fill-rule="evenodd" d="M794.9,540h.7v20.7h-.7V540Z" class="g1_2"/>
<path fill-rule="evenodd" d="M859,540h.6v20.7H859V540Z" class="g1_2"/>
<path fill-rule="evenodd" d="M794.9,540h64.7v.6H794.9V540Z" class="g1_2"/>
<path fill-rule="evenodd" d="M91.4,560.7H92v16.2h-.6V560.7Z" class="g1_2"/>
<path fill-rule="evenodd" d="M392.9,560.7h.6v16.2h-.6V560.7Z" class="g1_2"/>
<path fill-rule="evenodd" d="M466,560.7h.6v16.2H466V560.7Z" class="g1_2"/>
<path fill-rule="evenodd" d="M520.8,560.7h.6v16.2h-.6V560.7Z" class="g1_2"/>
<path fill-rule="evenodd" d="M575.6,560.7h.6v16.2h-.6V560.7Z" class="g1_2"/>
<path fill-rule="evenodd" d="M630.5,560.7h1.4v16.2h-1.4V560.7Z" class="g1_2"/>
<path fill-rule="evenodd" d="M685.3,560.7h.6v16.2h-.6V560.7Z" class="g1_2"/>
<path fill-rule="evenodd" d="M740.1,560.7h.6v16.2h-.6V560.7Z" class="g1_2"/>
<path fill-rule="evenodd" d="M794.9,560.7h.7v16.2h-.7V560.7Z" class="g1_2"/>
<path fill-rule="evenodd" d="M859,560.7h.6v16.2H859V560.7Z" class="g1_2"/>
<path fill-rule="evenodd" d="M91.4,576.9H92V593h-.6V576.9Z" class="g1_2"/>
<path fill-rule="evenodd" d="M392.9,576.9h.6V593h-.6V576.9Z" class="g1_2"/>
<path fill-rule="evenodd" d="M466,576.9h.6V593H466V576.9Z" class="g1_2"/>
<path fill-rule="evenodd" d="M520.8,576.9h.6V593h-.6V576.9Z" class="g1_2"/>
<path fill-rule="evenodd" d="M575.6,576.9h.6V593h-.6V576.9Z" class="g1_2"/>
<path fill-rule="evenodd" d="M630.5,576.9h1.4V593h-1.4V576.9Z" class="g1_2"/>
<path fill-rule="evenodd" d="M685.3,576.9h.6V593h-.6V576.9Z" class="g1_2"/>
<path fill-rule="evenodd" d="M740.1,576.9h.6V593h-.6V576.9Z" class="g1_2"/>
<path fill-rule="evenodd" d="M794.9,576.9h.7V593h-.7V576.9Z" class="g1_2"/>
<path fill-rule="evenodd" d="M859,576.9h.6V593H859V576.9Z" class="g1_2"/>
<path fill-rule="evenodd" d="M91.4,593H92v17.7h-.6V593Z" class="g1_2"/>
<path fill-rule="evenodd" d="M392.9,593h.6v17.7h-.6V593Z" class="g1_2"/>
<path fill-rule="evenodd" d="M466,593h.6v17.7H466V593Z" class="g1_2"/>
<path fill-rule="evenodd" d="M520.8,593h.6v17.7h-.6V593Z" class="g1_2"/>
<path fill-rule="evenodd" d="M575.6,593h.6v17.7h-.6V593Z" class="g1_2"/>
<path fill-rule="evenodd" d="M630.5,593h1.4v17.7h-1.4V593Z" class="g1_2"/>
<path fill-rule="evenodd" d="M685.3,593h.6v17.7h-.6V593Z" class="g1_2"/>
<path fill-rule="evenodd" d="M740.1,593h.6v17.7h-.6V593Z" class="g1_2"/>
<path fill-rule="evenodd" d="M794.9,593h.7v17.7h-.7V593Z" class="g1_2"/>
<path fill-rule="evenodd" d="M859,593h.6v17.7H859V593Z" class="g1_2"/>
<path fill-rule="evenodd" d="M91.4,610.8H92v23.4h-.6V610.8Z" class="g1_2"/>
<path fill-rule="evenodd" d="M91.4,610.8H392.8v.6H91.4v-.6Z" class="g1_2"/>
<path fill-rule="evenodd" d="M392.9,610.8h.6v23.4h-.6V610.8Z" class="g1_2"/>
<path fill-rule="evenodd" d="M392.9,610.8h73v.6h-73v-.6Z" class="g1_2"/>
<path fill-rule="evenodd" d="M466,610.8h.6v23.4H466V610.8Z" class="g1_2"/>
<path fill-rule="evenodd" d="M466,610.8h54.7v.6H466v-.6Z" class="g1_2"/>
<path fill-rule="evenodd" d="M520.8,610.8h.6v23.4h-.6V610.8Z" class="g1_2"/>
<path fill-rule="evenodd" d="M520.8,610.8h54.8v.6H520.8v-.6Z" class="g1_2"/>
<path fill-rule="evenodd" d="M575.6,610.8h.6v23.4h-.6V610.8Z" class="g1_2"/>
<path fill-rule="evenodd" d="M575.6,610.8h54.8v.6H575.6v-.6Z" class="g1_2"/>
<path fill-rule="evenodd" d="M630.5,610.8h1.4v23.4h-1.4V610.8Z" class="g1_2"/>
<path fill-rule="evenodd" d="M630.5,610.8h54.7v.6H630.5v-.6Z" class="g1_2"/>
<path fill-rule="evenodd" d="M685.3,610.8h.6v23.4h-.6V610.8Z" class="g1_2"/>
<path fill-rule="evenodd" d="M685.3,610.8H740v.6H685.3v-.6Z" class="g1_2"/>
<path fill-rule="evenodd" d="M740.1,610.8h.6v23.4h-.6V610.8Z" class="g1_2"/>
<path fill-rule="evenodd" d="M740.1,610.8h54.8v.6H740.1v-.6Z" class="g1_2"/>
<path fill-rule="evenodd" d="M794.9,610.8h.7v23.4h-.7V610.8Z" class="g1_2"/>
<path fill-rule="evenodd" d="M859,610.8h.6v23.4H859V610.8Z" class="g1_2"/>
<path fill-rule="evenodd" d="M794.9,610.8h64.7v.6H794.9v-.6Z" class="g1_2"/>
<path fill-rule="evenodd" d="M91.4,634.3H92v23.4h-.6V634.3Z" class="g1_2"/>
<path fill-rule="evenodd" d="M91.4,634.3H392.8v.6H91.4v-.6Z" class="g1_2"/>
<path fill-rule="evenodd" d="M392.9,634.3h.6v23.4h-.6V634.3Z" class="g1_2"/>
<path fill-rule="evenodd" d="M392.9,634.3h73v.6h-73v-.6Z" class="g1_2"/>
<path fill-rule="evenodd" d="M466,634.3h.6v23.4H466V634.3Z" class="g1_2"/>
<path fill-rule="evenodd" d="M466,634.3h54.7v.6H466v-.6Z" class="g1_2"/>
<path fill-rule="evenodd" d="M520.8,634.3h.6v23.4h-.6V634.3Z" class="g1_2"/>
<path fill-rule="evenodd" d="M520.8,634.3h54.8v.6H520.8v-.6Z" class="g1_2"/>
<path fill-rule="evenodd" d="M575.6,634.3h.6v23.4h-.6V634.3Z" class="g1_2"/>
<path fill-rule="evenodd" d="M575.6,634.3h54.8v.6H575.6v-.6Z" class="g1_2"/>
<path fill-rule="evenodd" d="M630.5,634.3h1.4v23.4h-1.4V634.3Z" class="g1_2"/>
<path fill-rule="evenodd" d="M630.5,634.3h54.7v.6H630.5v-.6Z" class="g1_2"/>
<path fill-rule="evenodd" d="M685.3,634.3h.6v23.4h-.6V634.3Z" class="g1_2"/>
<path fill-rule="evenodd" d="M685.3,634.3H740v.6H685.3v-.6Z" class="g1_2"/>
<path fill-rule="evenodd" d="M740.1,634.3h.6v23.4h-.6V634.3Z" class="g1_2"/>
<path fill-rule="evenodd" d="M740.1,634.3h54.8v.6H740.1v-.6Z" class="g1_2"/>
<path fill-rule="evenodd" d="M794.9,634.3h.7v23.4h-.7V634.3Z" class="g1_2"/>
<path fill-rule="evenodd" d="M859,634.3h.6v23.4H859V634.3Z" class="g1_2"/>
<path fill-rule="evenodd" d="M794.9,634.3h64.7v.6H794.9v-.6Z" class="g1_2"/>
<path fill-rule="evenodd" d="M91.4,657.7H92v23.4h-.6V657.7Z" class="g1_2"/>
<path fill-rule="evenodd" d="M91.4,657.7H392.8v.6H91.4v-.6Z" class="g1_2"/>
<path fill-rule="evenodd" d="M392.9,657.7h.6v23.4h-.6V657.7Z" class="g1_2"/>
<path fill-rule="evenodd" d="M392.9,657.7h73v.6h-73v-.6Z" class="g1_2"/>
<path fill-rule="evenodd" d="M466,657.7h.6v23.4H466V657.7Z" class="g1_2"/>
<path fill-rule="evenodd" d="M466,657.7h54.7v.6H466v-.6Z" class="g1_2"/>
<path fill-rule="evenodd" d="M520.8,657.7h.6v23.4h-.6V657.7Z" class="g1_2"/>
<path fill-rule="evenodd" d="M520.8,657.7h54.8v.6H520.8v-.6Z" class="g1_2"/>
<path fill-rule="evenodd" d="M575.6,657.7h.6v23.4h-.6V657.7Z" class="g1_2"/>
<path fill-rule="evenodd" d="M575.6,657.7h54.8v.6H575.6v-.6Z" class="g1_2"/>
<path fill-rule="evenodd" d="M630.5,657.7h1.4v23.4h-1.4V657.7Z" class="g1_2"/>
<path fill-rule="evenodd" d="M630.5,657.7h54.7v.6H630.5v-.6Z" class="g1_2"/>
<path fill-rule="evenodd" d="M685.3,657.7h.6v23.4h-.6V657.7Z" class="g1_2"/>
<path fill-rule="evenodd" d="M685.3,657.7H740v.6H685.3v-.6Z" class="g1_2"/>
<path fill-rule="evenodd" d="M740.1,657.7h.6v23.4h-.6V657.7Z" class="g1_2"/>
<path fill-rule="evenodd" d="M740.1,657.7h54.8v.6H740.1v-.6Z" class="g1_2"/>
<path fill-rule="evenodd" d="M794.9,657.7h.7v23.4h-.7V657.7Z" class="g1_2"/>
<path fill-rule="evenodd" d="M859,657.7h.6v23.4H859V657.7Z" class="g1_2"/>
<path fill-rule="evenodd" d="M794.9,657.7h64.7v.6H794.9v-.6Z" class="g1_2"/>
<path fill-rule="evenodd" d="M91.4,681.1H92v20.7h-.6V681.1Z" class="g1_2"/>
<path fill-rule="evenodd" d="M91.4,681.1H392.8v.6H91.4v-.6Z" class="g1_2"/>
<path fill-rule="evenodd" d="M392.9,681.1h.6v20.7h-.6V681.1Z" class="g1_2"/>
<path fill-rule="evenodd" d="M392.9,681.1h73v.6h-73v-.6Z" class="g1_2"/>
<path fill-rule="evenodd" d="M466,681.1h.6v20.7H466V681.1Z" class="g1_2"/>
<path fill-rule="evenodd" d="M466,681.1h54.7v.6H466v-.6Z" class="g1_2"/>
<path fill-rule="evenodd" d="M520.8,681.1h.6v20.7h-.6V681.1Z" class="g1_2"/>
<path fill-rule="evenodd" d="M520.8,681.1h54.8v.6H520.8v-.6Z" class="g1_2"/>
<path fill-rule="evenodd" d="M575.6,681.1h.6v20.7h-.6V681.1Z" class="g1_2"/>
<path fill-rule="evenodd" d="M575.6,681.1h54.8v.6H575.6v-.6Z" class="g1_2"/>
<path fill-rule="evenodd" d="M630.5,681.1h1.4v20.7h-1.4V681.1Z" class="g1_2"/>
<path fill-rule="evenodd" d="M630.5,681.1h54.7v.6H630.5v-.6Z" class="g1_2"/>
<path fill-rule="evenodd" d="M685.3,681.1h.6v20.7h-.6V681.1Z" class="g1_2"/>
<path fill-rule="evenodd" d="M685.3,681.1H740v.6H685.3v-.6Z" class="g1_2"/>
<path fill-rule="evenodd" d="M740.1,681.1h.6v20.7h-.6V681.1Z" class="g1_2"/>
<path fill-rule="evenodd" d="M740.1,681.1h54.8v.6H740.1v-.6Z" class="g1_2"/>
<path d="M831.8,687.2h16.3" class="g2_2"/>
<path fill-rule="evenodd" d="M794.9,681.1h.7v20.7h-.7V681.1Z" class="g1_2"/>
<path fill-rule="evenodd" d="M859,681.1h.6v20.7H859V681.1Z" class="g1_2"/>
<path fill-rule="evenodd" d="M794.9,681.1h64.7v.6H794.9v-.6Z" class="g1_2"/>
<path fill-rule="evenodd" d="M91.4,701.9H92v17.7h-.6V701.9Z" class="g1_2"/>
<path fill-rule="evenodd" d="M392.9,701.9h.6v17.7h-.6V701.9Z" class="g1_2"/>
<path fill-rule="evenodd" d="M466,701.9h.6v17.7H466V701.9Z" class="g1_2"/>
<path fill-rule="evenodd" d="M520.8,701.9h.6v17.7h-.6V701.9Z" class="g1_2"/>
<path fill-rule="evenodd" d="M575.6,701.9h.6v17.7h-.6V701.9Z" class="g1_2"/>
<path fill-rule="evenodd" d="M630.5,701.9h1.4v17.7h-1.4V701.9Z" class="g1_2"/>
<path fill-rule="evenodd" d="M685.3,701.9h.6v17.7h-.6V701.9Z" class="g1_2"/>
<path fill-rule="evenodd" d="M740.1,701.9h.6v17.7h-.6V701.9Z" class="g1_2"/>
<path fill-rule="evenodd" d="M794.9,701.9h.7v17.7h-.7V701.9Z" class="g1_2"/>
<path fill-rule="evenodd" d="M859,701.9h.6v17.7H859V701.9Z" class="g1_2"/>
<path fill-rule="evenodd" d="M91.4,719.7H92V746h-.6V719.7Z" class="g1_2"/>
<path fill-rule="evenodd" d="M91.4,719.7H392.8v.6H91.4v-.6Z" class="g1_2"/>
<path fill-rule="evenodd" d="M392.9,719.7h.6V746h-.6V719.7Z" class="g1_2"/>
<path fill-rule="evenodd" d="M392.9,719.7h73v.6h-73v-.6Z" class="g1_2"/>
<path fill-rule="evenodd" d="M466,719.7h.6V746H466V719.7Z" class="g1_2"/>
<path fill-rule="evenodd" d="M466,719.7h54.7v.6H466v-.6Z" class="g1_2"/>
<path fill-rule="evenodd" d="M520.8,719.7h.6V746h-.6V719.7Z" class="g1_2"/>
<path fill-rule="evenodd" d="M520.8,719.7h54.8v.6H520.8v-.6Z" class="g1_2"/>
<path fill-rule="evenodd" d="M575.6,719.7h.6V746h-.6V719.7Z" class="g1_2"/>
<path fill-rule="evenodd" d="M575.6,719.7h54.8v.6H575.6v-.6Z" class="g1_2"/>
<path fill-rule="evenodd" d="M630.5,719.7h1.4V746h-1.4V719.7Z" class="g1_2"/>
<path fill-rule="evenodd" d="M630.5,719.7h54.7v.6H630.5v-.6Z" class="g1_2"/>
<path fill-rule="evenodd" d="M685.3,719.7h.6V746h-.6V719.7Z" class="g1_2"/>
<path fill-rule="evenodd" d="M685.3,719.7H740v.6H685.3v-.6Z" class="g1_2"/>
<path fill-rule="evenodd" d="M740.1,719.7h.6V746h-.6V719.7Z" class="g1_2"/>
<path fill-rule="evenodd" d="M740.1,719.7h54.8v.6H740.1v-.6Z" class="g1_2"/>
<path d="M832.3,725.7h16.2" class="g2_2"/>
<path fill-rule="evenodd" d="M794.9,719.7h.7V746h-.7V719.7Z" class="g1_2"/>
<path fill-rule="evenodd" d="M859,719.7h.6V746H859V719.7Z" class="g1_2"/>
<path fill-rule="evenodd" d="M794.9,719.7h64.7v.6H794.9v-.6Z" class="g1_2"/>
<path fill-rule="evenodd" d="M91.4,746H92v20.7h-.6V746Z" class="g1_2"/>
<path fill-rule="evenodd" d="M91.4,746H392.8v.6H91.4V746Z" class="g1_2"/>
<path fill-rule="evenodd" d="M392.9,746h.6v20.7h-.6V746Z" class="g1_2"/>
<path fill-rule="evenodd" d="M392.9,746h73v.6h-73V746Z" class="g1_2"/>
<path fill-rule="evenodd" d="M466,746h.6v20.7H466V746Z" class="g1_2"/>
<path fill-rule="evenodd" d="M466,746h54.7v.6H466V746Z" class="g1_2"/>
<path fill-rule="evenodd" d="M520.8,746h.6v20.7h-.6V746Z" class="g1_2"/>
<path fill-rule="evenodd" d="M520.8,746h54.8v.6H520.8V746Z" class="g1_2"/>
<path fill-rule="evenodd" d="M575.6,746h.6v20.7h-.6V746Z" class="g1_2"/>
<path fill-rule="evenodd" d="M575.6,746h54.8v.6H575.6V746Z" class="g1_2"/>
<path fill-rule="evenodd" d="M630.5,746h1.4v20.7h-1.4V746Z" class="g1_2"/>
<path fill-rule="evenodd" d="M630.5,746h54.7v.6H630.5V746Z" class="g1_2"/>
<path fill-rule="evenodd" d="M685.3,746h.6v20.7h-.6V746Z" class="g1_2"/>
<path fill-rule="evenodd" d="M685.3,746H740v.6H685.3V746Z" class="g1_2"/>
<path fill-rule="evenodd" d="M740.1,746h.6v20.7h-.6V746Z" class="g1_2"/>
<path fill-rule="evenodd" d="M740.1,746h54.8v.6H740.1V746Z" class="g1_2"/>
<path fill-rule="evenodd" d="M794.9,746h.7v20.7h-.7V746Z" class="g1_2"/>
<path fill-rule="evenodd" d="M859,746h.6v20.7H859V746Z" class="g1_2"/>
<path fill-rule="evenodd" d="M794.9,746h64.7v.6H794.9V746Z" class="g1_2"/>
<path fill-rule="evenodd" d="M91.4,766.8H92v19.3h-.6V766.8Z" class="g1_2"/>
<path fill-rule="evenodd" d="M392.9,766.8h.6v19.3h-.6V766.8Z" class="g1_2"/>
<path fill-rule="evenodd" d="M466,766.8h.6v19.3H466V766.8Z" class="g1_2"/>
<path fill-rule="evenodd" d="M520.8,766.8h.6v19.3h-.6V766.8Z" class="g1_2"/>
<path fill-rule="evenodd" d="M575.6,766.8h.6v19.3h-.6V766.8Z" class="g1_2"/>
<path fill-rule="evenodd" d="M630.5,766.8h1.4v19.3h-1.4V766.8Z" class="g1_2"/>
<path fill-rule="evenodd" d="M685.3,766.8h.6v19.3h-.6V766.8Z" class="g1_2"/>
<path fill-rule="evenodd" d="M740.1,766.8h.6v19.3h-.6V766.8Z" class="g1_2"/>
<path fill-rule="evenodd" d="M794.9,766.8h.7v19.3h-.7V766.8Z" class="g1_2"/>
<path fill-rule="evenodd" d="M859,766.8h.6v19.3H859V766.8Z" class="g1_2"/>
<path fill-rule="evenodd" d="M91.4,786.2H859.6v.6H91.4v-.6Z" class="g1_2"/>
<path clip-path="url(#c0_2)" d="M-.6,-1.2H-28.1m27.5,0V-28.7M936.2,-1.2V-28.7m0,27.5h27.5m-27.5,1212h27.5m-27.5,0v27.5M-.6,1210.8v27.5m0,-27.5H-28.1" class="g3_2"/>
</svg>