<?xml version="1.0" encoding="UTF-8" standalone="no"?>
<svg
   xmlns:dc="http://purl.org/dc/elements/1.1/"
   xmlns:cc="http://creativecommons.org/ns#"
   xmlns:rdf="http://www.w3.org/1999/02/22-rdf-syntax-ns#"
   xmlns:svg="http://www.w3.org/2000/svg"
   xmlns="http://www.w3.org/2000/svg"
   xmlns:xlink="http://www.w3.org/1999/xlink"
   xmlns:sodipodi="http://sodipodi.sourceforge.net/DTD/sodipodi-0.dtd"
   xmlns:inkscape="http://www.inkscape.org/namespaces/inkscape"
   width="210mm"
   height="297mm"
   viewBox="0 0 210 297"
   version="1.1"
   id="svg8"
   inkscape:version="1.0.1 (3bc2e813f5, 2020-09-07)"
   sodipodi:docname="logo-11.svg">
  <defs
     id="defs2">
    <linearGradient
       inkscape:collect="always"
       id="linearGradient1923">
      <stop
         style="stop-color:#a4bce0;stop-opacity:1"
         offset="0"
         id="stop1919" />
      <stop
         style="stop-color:#0c1a5a;stop-opacity:1"
         offset="1"
         id="stop1921" />
    </linearGradient>
    <linearGradient
       inkscape:collect="always"
       id="linearGradient917">
      <stop
         style="stop-color:#fcfcfc;stop-opacity:1"
         offset="0"
         id="stop913" />
      <stop
         style="stop-color:#9e9e9d;stop-opacity:1"
         offset="1"
         id="stop915" />
    </linearGradient>
    <radialGradient
       inkscape:collect="always"
       xlink:href="#linearGradient917"
       id="radialGradient919"
       cx="74.008247"
       cy="197.52138"
       fx="74.008247"
       fy="197.52138"
       r="39.648743"
       gradientTransform="matrix(0.01350989,1.5017993,-1.4535657,0.013076,318.90966,44.156159)"
       gradientUnits="userSpaceOnUse" />
    <radialGradient
       inkscape:collect="always"
       xlink:href="#linearGradient1923"
       id="radialGradient1925"
       cx="82.129517"
       cy="164.53235"
       fx="82.129517"
       fy="164.53235"
       r="39.448292"
       gradientUnits="userSpaceOnUse"
       gradientTransform="matrix(0.01656698,1.3682186,-1.4023727,0.01698053,264.14413,46.456948)" />
    <filter
       inkscape:collect="always"
       style="color-interpolation-filters:sRGB"
       id="filter2023"
       x="-0.02700011"
       width="1.0540002"
       y="-0.02699989"
       height="1.0539998">
      <feGaussianBlur
         inkscape:collect="always"
         stdDeviation="0.73124893"
         id="feGaussianBlur2025" />
    </filter>
  </defs>
  <sodipodi:namedview
     id="base"
     pagecolor="#ffffff"
     bordercolor="#666666"
     borderopacity="1.0"
     inkscape:pageopacity="0.0"
     inkscape:pageshadow="2"
     inkscape:zoom="0.35355339"
     inkscape:cx="219.9848"
     inkscape:cy="926.73985"
     inkscape:document-units="mm"
     inkscape:current-layer="layer1"
     inkscape:document-rotation="0"
     showgrid="false"
     inkscape:object-nodes="true"
     inkscape:snap-nodes="false"
     inkscape:window-width="1620"
     inkscape:window-height="1008"
     inkscape:window-x="208"
     inkscape:window-y="0"
     inkscape:window-maximized="0" />
  <metadata
     id="metadata5">
    <rdf:RDF>
      <cc:Work
         rdf:about="">
        <dc:format>image/svg+xml</dc:format>
        <dc:type
           rdf:resource="http://purl.org/dc/dcmitype/StillImage" />
        <dc:title></dc:title>
      </cc:Work>
    </rdf:RDF>
  </metadata>
  <g
     inkscape:label="Capa 1"
     inkscape:groupmode="layer"
     id="layer1">
    <g
       id="g2032"
       transform="translate(48.643054,-113.74991)">
      <circle
         style="fill:url(#radialGradient1925);fill-opacity:1;stroke-width:0.1;stroke-linecap:round;stroke-linejoin:round;stroke-dasharray:0.199999, 0.600001;stop-color:#000000"
         id="path911"
         cx="51.437847"
         cy="177.23235"
         r="39.448292" />
      <path
         id="path906"
         style="fill:#000000;fill-opacity:0.75;stroke-width:0.1;stroke-linecap:round;stroke-linejoin:round;stroke-dasharray:0.2, 0.600001;filter:url(#filter2023);stop-color:#000000"
         inkscape:transform-center-y="11.614963"
         d="m 53.58949,146.18177 a 32.500001,32.500001 0 0 0 -32.49207,32.49982 32.500001,32.500001 0 0 0 32.49982,32.50035 32.500001,32.500001 0 0 0 32.49982,-32.50035 32.500001,32.500001 0 0 0 -32.49982,-32.49982 32.500001,32.500001 0 0 0 -0.008,0 z m -0.0894,5.00435 a 27.495923,27.495923 0 0 1 0.0971,0 27.495923,27.495923 0 0 1 7.8419,1.14205 l -7.84139,17.94205 -7.84189,-17.94257 a 27.495923,27.495923 0 0 1 7.74423,-1.14153 z m -14.04359,3.91449 9.79113,22.40328 h 8.69973 l 9.79062,-22.40277 a 27.495923,27.495923 0 0 1 8.32197,7.72408 l -12.85813,29.42043 -5.6286,-12.8788 h -7.95145 l -5.6286,12.8788 -12.85813,-29.42095 a 27.495923,27.495923 0 0 1 8.32146,-7.72407 z m -12.26024,15.89928 14.10612,32.27607 a 27.495923,27.495923 0 0 1 -15.20114,-24.59437 27.495923,27.495923 0 0 1 1.09502,-7.6817 z m 52.80195,0 a 27.495923,27.495923 0 0 1 1.09502,7.6817 27.495923,27.495923 0 0 1 -15.20062,24.59333 z m -26.40046,16.45688 7.70083,17.62011 a 27.495923,27.495923 0 0 1 -7.70134,1.10071 27.495923,27.495923 0 0 1 -7.70082,-1.10071 z" />
      <path
         id="path899"
         style="fill:url(#radialGradient919);fill-opacity:1;stroke-width:0.0999998;stroke-linecap:round;stroke-linejoin:round;stroke-dasharray:0.2, 0.600001;stop-color:#000000"
         d="m 51.255431,137.58391 a 39.648682,39.648682 0 0 0 -39.466324,39.64823 39.648682,39.648682 0 0 0 39.648743,39.64874 39.648682,39.648682 0 0 0 39.648743,-39.64874 39.648682,39.648682 0 0 0 -39.648743,-39.64823 39.648682,39.648682 0 0 0 -0.182419,0 z m 0.158647,1.57252 a 38.075973,38.075973 0 0 1 0.02379,0 38.075973,38.075973 0 0 1 38.076225,38.07571 38.075973,38.075973 0 0 1 -38.076239,38.07623 38.075973,38.075973 0 0 1 -38.076229,-38.07623 38.075973,38.075973 0 0 1 38.052457,-38.07571 z m 0.01603,5.57589 a 32.500001,32.500001 0 0 0 -32.492087,32.49982 32.500001,32.500001 0 0 0 32.499826,32.50034 32.500001,32.500001 0 0 0 32.499826,-32.50034 32.500001,32.500001 0 0 0 -32.499826,-32.49982 32.500001,32.500001 0 0 0 -0.0078,0 z m -0.0894,5.00434 a 27.495923,27.495923 0 0 1 0.09715,0 27.495923,27.495923 0 0 1 7.841895,1.14205 l -7.841379,17.94206 -7.841898,-17.94258 a 27.495923,27.495923 0 0 1 7.744229,-1.14153 z m -14.043588,3.91449 9.791134,22.40328 h 8.699729 l 9.79062,-22.40276 a 27.495923,27.495923 0 0 1 8.32197,7.72407 l -12.85813,29.42043 -5.6286,-12.8788 h -7.95145 l -5.628598,12.8788 -12.85813,-29.42094 a 27.495923,27.495923 0 0 1 8.321455,-7.72408 z m -12.260233,15.89929 14.106117,32.27606 a 27.495923,27.495923 0 0 1 -15.20114,-24.59436 27.495923,27.495923 0 0 1 1.095023,-7.6817 z m 52.801946,0 a 27.495923,27.495923 0 0 1 1.09503,7.6817 27.495923,27.495923 0 0 1 -15.20063,24.59333 z m -26.400456,16.45687 7.700826,17.62012 a 27.495923,27.495923 0 0 1 -7.701342,1.10071 27.495923,27.495923 0 0 1 -7.700823,-1.10071 z" />
    </g>
    <circle
       style="fill:none;fill-opacity:0.75;stroke:#686868;stroke-width:0.4;stroke-linecap:round;stroke-linejoin:round;stroke-miterlimit:4;stroke-dasharray:none;stroke-dashoffset:0;stroke-opacity:1;stop-color:#000000"
       id="path2034"
       cx="100.0809"
       cy="63.482433"
       r="39.819794" />
  </g>
</svg>
