<?xml version="1.0" encoding="UTF-8" standalone="no"?>
<svg
   xmlns:dc="http://purl.org/dc/elements/1.1/"
   xmlns:cc="http://creativecommons.org/ns#"
   xmlns:rdf="http://www.w3.org/1999/02/22-rdf-syntax-ns#"
   xmlns:svg="http://www.w3.org/2000/svg"
   xmlns="http://www.w3.org/2000/svg"
   xmlns:sodipodi="http://sodipodi.sourceforge.net/DTD/sodipodi-0.dtd"
   xmlns:inkscape="http://www.inkscape.org/namespaces/inkscape"
   width="210mm"
   height="297mm"
   viewBox="0 0 210 297"
   version="1.1"
   id="svg8"
   inkscape:version="1.0.1 (3bc2e813f5, 2020-09-07)"
   sodipodi:docname="logo-07.svg">
  <defs
     id="defs2" />
  <sodipodi:namedview
     id="base"
     pagecolor="#ffffff"
     bordercolor="#666666"
     borderopacity="1.0"
     inkscape:pageopacity="0.0"
     inkscape:pageshadow="2"
     inkscape:zoom="1"
     inkscape:cx="500.37124"
     inkscape:cy="266.1189"
     inkscape:document-units="mm"
     inkscape:current-layer="layer1"
     inkscape:document-rotation="0"
     showgrid="false"
     inkscape:window-width="1920"
     inkscape:window-height="1017"
     inkscape:window-x="-8"
     inkscape:window-y="-8"
     inkscape:window-maximized="1" />
  <metadata
     id="metadata5">
    <rdf:RDF>
      <cc:Work
         rdf:about="">
        <dc:format>image/svg+xml</dc:format>
        <dc:type
           rdf:resource="http://purl.org/dc/dcmitype/StillImage" />
        <dc:title />
      </cc:Work>
    </rdf:RDF>
  </metadata>
  <g
     inkscape:label="Capa 1"
     inkscape:groupmode="layer"
     id="layer1">
    <g
       id="g863">
      <path
         style="fill:#000000;fill-opacity:1;stroke:none;stroke-width:0.999999px;stroke-linecap:butt;stroke-linejoin:miter;stroke-opacity:1"
         d="M 353.6875,230.23242 C 330.51362,224.90806 318,189.5 318,189.5 c 0,0 11.06781,-15.44923 35.625,-16.375 0.021,-7.9e-4 0.0415,7.2e-4 0.0625,0 V 156.50391 C 320.3938,157.9699 291.5,186.75 291.5,186.75 c 0,0 15.45826,50.12642 62.1875,59.23633 z"
         id="path856"
         transform="scale(0.26458333)" />
      <path
         style="fill:#b4ff0f;fill-opacity:1;stroke:none;stroke-width:0.999999px;stroke-linecap:butt;stroke-linejoin:miter;stroke-opacity:1"
         d="m 353.6875,137.50195 v 19.00196 c 0.0209,-9.2e-4 0.0416,-0.003 0.0625,-0.004 48.0458,-2.06566 63.75,25.25 63.75,25.25 l -27.25,23 c 0,0 -15.8983,-32.3372 -36.5625,-31.625 v 57.10742 c 0.0212,0.005 0.0413,0.0128 0.0625,0.0176 51.67656,11.74042 91.25,-48.5 91.25,-48.5 0,0 -26.20812,-44.51876 -91.25,-44.25 -0.0209,9e-5 -0.0416,0.002 -0.0625,0.002 z"
         id="path854"
         transform="scale(0.26458333)" />
      <path
         style="fill:#000000;fill-opacity:1;stroke:none;stroke-width:0.999999px;stroke-linecap:butt;stroke-linejoin:miter;stroke-opacity:1"
         d="M 353.6875,279.74414 V 263.98828 C 289.23157,253.11942 268.25,184.75 268.25,184.75 c 0,0 36.90603,-47.00713 85.4375,-47.24805 v -15 C 299.39065,122.6636 235,181.5 235,181.5 c 0,0 33.5054,90.74294 118.6875,98.24414 z"
         id="path852"
         transform="scale(0.26458333)" />
      <path
         style="fill:#b4ff0f;fill-opacity:1;stroke:none;stroke-width:0.999999px;stroke-linecap:butt;stroke-linejoin:miter;stroke-opacity:1"
         d="m 353.6875,94 v 28.50195 c 0.0208,-6e-5 0.0417,-0.002 0.0625,-0.002 85.8331,-0.18454 125.25,58.25 125.25,58.25 0,0 -60.24811,77.86305 -125.25,65.25 -0.0211,-0.004 -0.0414,-0.01 -0.0625,-0.0137 v 18.00195 c 0.0211,0.004 0.0414,0.008 0.0625,0.0117 C 419.2317,274.9988 493,205 493,205 l 36.25,22.5 c 0,0 -84.772,60.19346 -175.5,52.25 -0.021,-0.002 -0.0415,-0.004 -0.0625,-0.006 v 24.19336 h 199.5 V 94 Z"
         id="path844"
         transform="scale(0.26458333)" />
    </g>
  </g>
</svg>
