<?xml version="1.0" encoding="UTF-8" standalone="no"?>
<svg
   xmlns:dc="http://purl.org/dc/elements/1.1/"
   xmlns:cc="http://creativecommons.org/ns#"
   xmlns:rdf="http://www.w3.org/1999/02/22-rdf-syntax-ns#"
   xmlns:svg="http://www.w3.org/2000/svg"
   xmlns="http://www.w3.org/2000/svg"
   xmlns:xlink="http://www.w3.org/1999/xlink"
   xmlns:sodipodi="http://sodipodi.sourceforge.net/DTD/sodipodi-0.dtd"
   xmlns:inkscape="http://www.inkscape.org/namespaces/inkscape"
   width="210mm"
   height="297mm"
   viewBox="0 0 210 297"
   version="1.1"
   id="svg8"
   inkscape:version="1.0.1 (3bc2e813f5, 2020-09-07)"
   sodipodi:docname="logo-14.svg">
  <defs
     id="defs2">
    <linearGradient
       inkscape:collect="always"
       id="linearGradient1540">
      <stop
         style="stop-color:#fcfcfc;stop-opacity:1"
         offset="0"
         id="stop1536" />
      <stop
         style="stop-color:#404040;stop-opacity:1"
         offset="1"
         id="stop1538" />
    </linearGradient>
    <linearGradient
       inkscape:collect="always"
       id="linearGradient1530">
      <stop
         style="stop-color:#414141;stop-opacity:1"
         offset="0"
         id="stop1526" />
      <stop
         style="stop-color:#e4e4e4;stop-opacity:1"
         offset="1"
         id="stop1528" />
    </linearGradient>
    <linearGradient
       inkscape:collect="always"
       xlink:href="#linearGradient1530"
       id="linearGradient1532"
       x1="239.57179"
       y1="650.72186"
       x2="297.84375"
       y2="740.30664"
       gradientUnits="userSpaceOnUse" />
    <radialGradient
       inkscape:collect="always"
       xlink:href="#linearGradient1540"
       id="radialGradient1542"
       cx="68.571358"
       cy="179.49664"
       fx="68.571358"
       fy="179.49664"
       r="7.1334848"
       gradientUnits="userSpaceOnUse"
       gradientTransform="matrix(-0.01052723,0.76199964,-0.75910662,-0.01048727,206.08294,130.13561)" />
  </defs>
  <sodipodi:namedview
     id="base"
     pagecolor="#ffffff"
     bordercolor="#666666"
     borderopacity="1.0"
     inkscape:pageopacity="0.0"
     inkscape:pageshadow="2"
     inkscape:zoom="0.92298851"
     inkscape:cx="228.47584"
     inkscape:cy="432.55521"
     inkscape:document-units="mm"
     inkscape:current-layer="layer1"
     inkscape:document-rotation="0"
     showgrid="false"
     inkscape:snap-object-midpoints="true"
     inkscape:snap-midpoints="false"
     inkscape:snap-others="true"
     inkscape:snap-nodes="true"
     inkscape:snap-center="true"
     inkscape:window-width="1793"
     inkscape:window-height="973"
     inkscape:window-x="-6"
     inkscape:window-y="0"
     inkscape:window-maximized="0" />
  <metadata
     id="metadata5">
    <rdf:RDF>
      <cc:Work
         rdf:about="">
        <dc:format>image/svg+xml</dc:format>
        <dc:type
           rdf:resource="http://purl.org/dc/dcmitype/StillImage" />
        <dc:title />
      </cc:Work>
    </rdf:RDF>
  </metadata>
  <g
     inkscape:label="Capa 1"
     inkscape:groupmode="layer"
     id="layer1">
    <circle
       style="display:none;fill:#00ff00;fill-opacity:0.502451;stroke-width:0.2;stroke-linecap:round;stroke-linejoin:round;stop-color:#000000"
       id="circle839"
       cx="67.499161"
       cy="49.662594"
       r="9.9674931" />
    <g
       id="g1553"
       transform="translate(39.558998,-116.09706)">
      <path
         id="path1490"
         style="fill:#404040;fill-opacity:1;stroke-width:0.755906;stroke-linecap:round;stroke-linejoin:round;stop-color:#000000"
         inkscape:transform-center-x="1.7304948e-06"
         inkscape:transform-center-y="-8.6603354"
         d="m 321.74023,748.66406 -5.76757,10 h 67.04492 l -17.31055,-10 z"
         transform="scale(0.26458333)" />
      <path
         id="path1523"
         style="fill:#898989;fill-opacity:1;stroke-width:0.755906;stroke-linecap:round;stroke-linejoin:round;stop-color:#000000"
         inkscape:transform-center-x="1.7304948e-06"
         inkscape:transform-center-y="-8.6603354"
         d="m 309.71484,727.83203 -12.49609,-1.65039 18.75391,32.48242 5.76757,-10 c -4.00836,-6.9439 -8.01702,-13.88813 -12.02539,-20.83203 z"
         transform="scale(0.26458333)" />
      <path
         id="path1521"
         style="fill:url(#linearGradient1532);fill-opacity:1;stroke-width:0.755906;stroke-linecap:round;stroke-linejoin:round;stop-color:#000000"
         inkscape:transform-center-x="1.7304948e-06"
         inkscape:transform-center-y="-8.6603354"
         d="m 278.07422,745.55859 6.32812,-11.97656 a 42.999996,42.999996 0 0 1 -52.00976,-18.88281 42.999996,42.999996 0 0 1 15.73828,-58.73828 42.999996,42.999996 0 0 1 21.59375,-5.76172 42.999996,42.999996 0 0 1 37.14648,21.5 42.999996,42.999996 0 0 1 -9.65234,54.48242 l 12.49609,1.65039 c 7.49255,-8.60031 11.95348,-19.72728 12.75977,-31.08594 1.90427,-21.03552 -10.73111,-42.04492 -29.58594,-51.18945 -19.24423,-9.89707 -44.18243,-5.66578 -59.73242,9.15234 -16.14708,14.7453 -20.90162,39.94291 -12.08789,59.8086 9.02801,21.70575 33.94605,34.9859 57.00586,31.04101 z"
         transform="scale(0.26458333)" />
      <path
         id="path1519"
         style="fill:#6f6f6f;fill-opacity:1;stroke-width:0.755906;stroke-linecap:round;stroke-linejoin:round;stop-color:#000000"
         inkscape:transform-center-x="1.7304948e-06"
         inkscape:transform-center-y="-8.6603354"
         d="m 281.56836,748.64844 17.31445,10.01562 -14.48047,-25.08203 -6.32812,11.97656 c 2.17988,-1.04008 2.40208,1.74354 3.49414,3.08985 z"
         transform="scale(0.26458333)" />
      <path
         id="path1517"
         style="fill:#404040;fill-opacity:1;stroke-width:0.755906;stroke-linecap:round;stroke-linejoin:round;stop-color:#000000"
         inkscape:transform-center-x="1.7304948e-06"
         inkscape:transform-center-y="-8.6603354"
         d="m 173.55469,748.66406 -17.31055,10 h 142.63867 l -17.31445,-10.01562 c -36.00394,0.004 -72.00973,0.0118 -108.01367,0.0156 z"
         transform="scale(0.26458333)" />
      <path
         id="path1515"
         style="fill:#dcdcdc;fill-opacity:1;stroke-width:0.755906;stroke-linecap:round;stroke-linejoin:round;stop-color:#000000"
         inkscape:transform-center-x="1.7304948e-06"
         inkscape:transform-center-y="-8.6603354"
         d="m 269.63086,562.27148 -113.38672,196.39258 17.31055,-10 c 32.02509,-55.46256 64.05107,-110.92607 96.07617,-166.38867 z"
         transform="scale(0.26458333)" />
      <path
         id="path1513"
         style="fill:#505050;fill-opacity:1;stroke-width:0.755906;stroke-linecap:round;stroke-linejoin:round;stop-color:#000000"
         inkscape:transform-center-x="1.7304948e-06"
         inkscape:transform-center-y="-8.6603354"
         d="m 269.63086,562.27148 v 20.00391 c 32.0251,55.4626 64.05107,110.92611 96.07617,166.38867 l 17.31055,10 z"
         transform="scale(0.26458333)" />
      <path
         id="path1501"
         style="fill:#ababab;fill-opacity:1;stroke-width:0.2;stroke-linecap:round;stroke-linejoin:round;stop-color:#000000"
         inkscape:transform-center-x="1.7304948e-06"
         inkscape:transform-center-y="-8.6603354"
         d="m 45.919911,198.08389 c 9.52604,-0.001 19.05208,-0.003 28.57812,-0.004 -0.28894,-0.35621 -0.34725,-1.09295 -0.92401,-0.81776 -6.10124,1.04375 -12.6943,-2.46958 -15.08296,-8.21256 -2.33196,-5.25613 -1.07407,-11.92345 3.19818,-15.82481 4.11427,-3.92063 10.7127,-5.0399 15.8044,-2.4213 4.98867,2.41949 8.33164,7.97837 7.8278,13.54402 -0.21333,3.00531 -1.39374,5.9491 -3.37614,8.2246 1.06054,1.83724 2.12109,3.67447 3.18164,5.51171 3.8776,0 7.75521,0 11.63281,0 -8.47331,-14.67447 -16.94661,-29.34895 -25.41992,-44.02343 -8.47331,14.67448 -16.94662,29.34896 -25.41992,44.02343 z" />
      <circle
         style="opacity:0.99;fill:url(#radialGradient1542);fill-opacity:1;stroke-width:0.2;stroke-linecap:round;stroke-linejoin:round;stop-color:#000000"
         id="path1534"
         cx="71.352943"
         cy="183.41495"
         r="7.1334848" />
    </g>
  </g>
</svg>
