<?xml version="1.0" encoding="UTF-8" standalone="no"?>
<!-- Created with Inkscape (http://www.inkscape.org/) -->

<svg
   width="64mm"
   height="64mm"
   viewBox="0 0 64 64"
   version="1.1"
   id="svg5"
   inkscape:version="1.2.2 (732a01da63, 2022-12-09)"
   sodipodi:docname="robot2.svg"
   inkscape:export-filename="robotica-logo.png"
   inkscape:export-xdpi="254"
   inkscape:export-ydpi="254"
   xml:space="preserve"
   xmlns:inkscape="http://www.inkscape.org/namespaces/inkscape"
   xmlns:sodipodi="http://sodipodi.sourceforge.net/DTD/sodipodi-0.dtd"
   xmlns="http://www.w3.org/2000/svg"
   xmlns:svg="http://www.w3.org/2000/svg"><sodipodi:namedview
     id="namedview7"
     pagecolor="#ffffff"
     bordercolor="#000000"
     borderopacity="0.25"
     inkscape:showpageshadow="2"
     inkscape:pageopacity="0.0"
     inkscape:pagecheckerboard="0"
     inkscape:deskcolor="#d1d1d1"
     inkscape:document-units="mm"
     showgrid="true"
     inkscape:zoom="4"
     inkscape:cx="22.25"
     inkscape:cy="132.25"
     inkscape:window-width="1920"
     inkscape:window-height="1017"
     inkscape:window-x="-8"
     inkscape:window-y="-8"
     inkscape:window-maximized="1"
     inkscape:current-layer="layer1"><inkscape:grid
       type="xygrid"
       id="grid236"
       originx="0"
       originy="0"
       units="mm"
       spacingx="0.99999997"
       spacingy="0.99999997"
       snapvisiblegridlinesonly="false"
       empspacing="5"
       enabled="false" /></sodipodi:namedview><defs
     id="defs2" /><g
     inkscape:label="Capa 1"
     inkscape:groupmode="layer"
     id="layer1"><rect
       style="fill:#bebebe;fill-opacity:1;fill-rule:evenodd;stroke:#000000;stroke-width:0.999996;stroke-linecap:round;stroke-linejoin:round;stroke-dasharray:none"
       id="rect2893-7"
       width="6.4914789"
       height="3.8579543"
       x="40.508522"
       y="46.609344" /><rect
       style="fill:#bebebe;fill-opacity:1;fill-rule:evenodd;stroke:#000000;stroke-width:0.999996;stroke-linecap:round;stroke-linejoin:round;stroke-dasharray:none"
       id="rect2893"
       width="5.6477246"
       height="3.8579543"
       x="17.499996"
       y="46.609344" /><g
       id="g1039"
       transform="translate(7.0000187e-8,-1.9999996)"><path
         style="fill:#eeb141;fill-opacity:1;fill-rule:evenodd;stroke:#000000;stroke-width:0.999996;stroke-linecap:round;stroke-linejoin:round;stroke-dasharray:none;stroke-opacity:1"
         d="m 27.999999,21.999999 c 0,-4.999999 -3,-6.999999 -3,-11.9999992 0,-8.9999998 14,-8.9999998 14,0 0,5.0000002 -3,7.0000002 -3,11.9999992 z"
         id="path10399"
         sodipodi:nodetypes="csscc" /><path
         style="fill:none;fill-opacity:1;fill-rule:evenodd;stroke:#000000;stroke-width:1;stroke-linecap:round;stroke-linejoin:round;stroke-dasharray:none;stroke-opacity:1"
         d="m 30.999999,21.999999 v -2 c 0,-7.222223 0.08973,-11.9999977 -2,-11.9999977 -2.089725,0 -1.17945,5.9999987 3,5.9999987 4.179451,0 5.089725,-5.9999987 3,-5.9999987 -2.089726,0 -2,4.7777747 -2,11.9999977 v 2"
         id="path11589"
         sodipodi:nodetypes="cszszsc" /></g><g
       id="g1025"><rect
         style="fill:#bebebe;fill-opacity:1;fill-rule:evenodd;stroke:#000000;stroke-width:0.999996;stroke-linecap:round;stroke-linejoin:round;stroke-opacity:1"
         id="rect1863"
         width="5.5"
         height="2.9999998"
         x="-48.499996"
         y="27.999998"
         rx="2.5431311e-06"
         ry="2.5431311e-06"
         transform="scale(-1,1)" /><rect
         style="fill:#bebebe;fill-opacity:1;fill-rule:evenodd;stroke:#000000;stroke-width:0.999996;stroke-linecap:round;stroke-linejoin:round;stroke-opacity:1"
         id="rect1865"
         width="3.0000014"
         height="6.500001"
         x="-51.5"
         y="21.499996"
         rx="2.5431314e-06"
         ry="2.5431309e-06"
         transform="scale(-1,1)" /><circle
         style="fill:#bebebe;fill-opacity:1;fill-rule:evenodd;stroke:#000000;stroke-width:0.999996;stroke-linecap:round;stroke-linejoin:round;stroke-dasharray:none;stroke-opacity:1"
         id="circle1867"
         cx="49.999996"
         cy="29.411373"
         r="2.4113734" /><path
         style="fill:#bebebe;fill-opacity:1;fill-rule:evenodd;stroke:#000000;stroke-width:1;stroke-linecap:round;stroke-linejoin:round;stroke-opacity:1"
         d="m 48.999998,21.999998 h -1 l -3.999999,-4 V 12 h 3 v 4.999998 l 1.999999,2 h 2 l 2,-2 V 12 h 3 v 5.999998 l -4,4 z"
         id="path1869"
         sodipodi:nodetypes="cccccccccccccc" /></g><g
       id="g1035"
       transform="matrix(-1,0,0,1,63.999996,1.0673486e-6)"><rect
         style="fill:#bebebe;fill-opacity:1;fill-rule:evenodd;stroke:#000000;stroke-width:0.999996;stroke-linecap:round;stroke-linejoin:round;stroke-opacity:1"
         id="rect1027"
         width="5.5"
         height="2.9999998"
         x="-48.499996"
         y="27.999998"
         rx="2.5431311e-06"
         ry="2.5431311e-06"
         transform="scale(-1,1)" /><rect
         style="fill:#bebebe;fill-opacity:1;fill-rule:evenodd;stroke:#000000;stroke-width:0.999996;stroke-linecap:round;stroke-linejoin:round;stroke-opacity:1"
         id="rect1029"
         width="3.0000014"
         height="6.500001"
         x="-51.5"
         y="21.499996"
         rx="2.5431314e-06"
         ry="2.5431309e-06"
         transform="scale(-1,1)" /><circle
         style="fill:#bebebe;fill-opacity:1;fill-rule:evenodd;stroke:#000000;stroke-width:0.999996;stroke-linecap:round;stroke-linejoin:round;stroke-dasharray:none;stroke-opacity:1"
         id="circle1031"
         cx="49.999996"
         cy="29.411373"
         r="2.4113734" /><path
         style="fill:#bebebe;fill-opacity:1;fill-rule:evenodd;stroke:#000000;stroke-width:1;stroke-linecap:round;stroke-linejoin:round;stroke-opacity:1"
         d="m 48.999998,21.999998 h -1 l -3.999999,-4 V 12 h 3 v 4.999998 l 1.999999,2 h 2 l 2,-2 V 12 h 3 v 5.999998 l -4,4 z"
         id="path1033"
         sodipodi:nodetypes="cccccccccccccc" /></g><path
       id="rect1752"
       style="fill:#395a96;fill-rule:evenodd;stroke:#000000;stroke-width:0.999995;stroke-linecap:round;stroke-linejoin:round"
       d="m 22.999999,19.999999 h 18 c 2,0 3,1 3,3 v 13 c 0,2 -3.000001,3 -3,5 v 10.999999 c 0,2.000001 -1,3.000001 -3,3 h -12 c -2,0 -2.999999,-0.999998 -3,-2.999999 v -11 c 0,-2 -3,-3 -3,-5 v -13 c 0,-2 1,-3 3,-3 z"
       sodipodi:nodetypes="zzzzzzzzzzzzz" /><g
       id="g1682"
       inkscape:label="Rueda"
       transform="matrix(0.60472437,0,0,0.7139106,28,-32.74998)"
       style="stroke-width:1.52195;stroke-dasharray:none"><path
         style="fill:#606060;fill-opacity:1;fill-rule:evenodd;stroke:#000000;stroke-width:1.52195;stroke-linecap:round;stroke-linejoin:round;stroke-dasharray:none"
         d="m 26.458333,105.83333 c 0,-2.64583 1.322917,-3.96875 3.96875,-3.96875 0,0 3.96875,0 5.291667,0 2.645833,0 3.96875,1.32292 3.96875,3.96875 0,1.32292 0,14.55209 0,15.875 0,2.64584 -1.322917,3.96875 -3.96875,3.96875 -1.322917,0 -3.968749,1e-5 -5.291667,0 -2.645832,1e-5 -3.968749,-1.32291 -3.96875,-3.96875 1e-6,-1.32291 0,-15.875 0,-15.875 z"
         id="path1656"
         sodipodi:nodetypes="ccccccccc" /><path
         style="fill:#808080;fill-opacity:1;fill-rule:evenodd;stroke:#000000;stroke-width:1.52195;stroke-linecap:round;stroke-linejoin:round;stroke-dasharray:none"
         d="m 39.6875,106.49479 -5.291667,3.96875 v 0"
         id="path1658" /><path
         style="fill:#808080;fill-opacity:1;fill-rule:evenodd;stroke:#000000;stroke-width:1.52195;stroke-linecap:round;stroke-linejoin:round;stroke-dasharray:none"
         d="m 36.777083,102.12917 -2.38125,1.71979 v 0"
         id="path1660"
         sodipodi:nodetypes="ccc" /><path
         style="fill:#808080;fill-opacity:1;fill-rule:evenodd;stroke:#000000;stroke-width:1.52195;stroke-linecap:round;stroke-linejoin:round;stroke-dasharray:none"
         d="m 39.6875,113.10937 -5.291667,3.96875 v 0"
         id="path1662" /><path
         style="fill:#808080;fill-opacity:1;fill-rule:evenodd;stroke:#000000;stroke-width:1.52195;stroke-linecap:round;stroke-linejoin:round;stroke-dasharray:none"
         d="m 39.6875,119.72396 -5.291667,3.96875 v 0"
         id="path1664"
         inkscape:transform-center-y="-1.6666667e-06" /><path
         style="fill:#808080;fill-opacity:1;fill-rule:evenodd;stroke:#000000;stroke-width:1.52195;stroke-linecap:round;stroke-linejoin:round;stroke-dasharray:none"
         d="M 26.458333,106.49479 31.75,110.46354 v 0"
         id="path1666" /><path
         style="fill:#808080;fill-opacity:1;fill-rule:evenodd;stroke:#000000;stroke-width:1.52195;stroke-linecap:round;stroke-linejoin:round;stroke-dasharray:none"
         d="m 29.36875,102.12917 2.38125,1.71979 v 0"
         id="path1668"
         sodipodi:nodetypes="ccc" /><path
         style="fill:#808080;fill-opacity:1;fill-rule:evenodd;stroke:#000000;stroke-width:1.52195;stroke-linecap:round;stroke-linejoin:round;stroke-dasharray:none"
         d="M 26.458333,113.10937 31.75,117.07812 v 0"
         id="path1670" /><path
         style="fill:#808080;fill-opacity:1;fill-rule:evenodd;stroke:#000000;stroke-width:1.52195;stroke-linecap:round;stroke-linejoin:round;stroke-dasharray:none"
         d="M 26.458333,119.72396 31.75,123.69271 v 0"
         id="path1672"
         inkscape:transform-center-y="-1.6666667e-06" /><path
         style="fill:#808080;fill-opacity:1;fill-rule:evenodd;stroke:#000000;stroke-width:1.52195;stroke-linecap:round;stroke-linejoin:round;stroke-dasharray:none"
         d="m 31.75,107.15625 h 2.645833"
         id="path1674" /><path
         style="fill:#808080;fill-opacity:1;fill-rule:evenodd;stroke:#000000;stroke-width:1.52195;stroke-linecap:round;stroke-linejoin:round;stroke-dasharray:none"
         d="m 31.75,107.15625 h 2.645833"
         id="path1676" /><path
         style="fill:#808080;fill-opacity:1;fill-rule:evenodd;stroke:#000000;stroke-width:1.52195;stroke-linecap:round;stroke-linejoin:round;stroke-dasharray:none"
         d="m 31.75,120.38542 h 2.645833"
         id="path1678" /><path
         style="fill:#808080;fill-opacity:1;fill-rule:evenodd;stroke:#000000;stroke-width:1.52195;stroke-linecap:round;stroke-linejoin:round;stroke-dasharray:none"
         d="m 31.75,113.77083 h 2.645833"
         id="path1680" /></g><g
       id="g1808"
       inkscape:label="Rueda"
       transform="matrix(0.60472437,0,0,0.7139106,-3.999999,-32.74998)"
       style="stroke-width:1.52195;stroke-dasharray:none"><path
         style="fill:#606060;fill-opacity:1;fill-rule:evenodd;stroke:#000000;stroke-width:1.52195;stroke-linecap:round;stroke-linejoin:round;stroke-dasharray:none"
         d="m 26.458333,105.83333 c 0,-2.64583 1.322917,-3.96875 3.96875,-3.96875 0,0 3.96875,0 5.291667,0 2.645833,0 3.96875,1.32292 3.96875,3.96875 0,1.32292 0,14.55209 0,15.875 0,2.64584 -1.322917,3.96875 -3.96875,3.96875 -1.322917,0 -3.968749,1e-5 -5.291667,0 -2.645832,1e-5 -3.968749,-1.32291 -3.96875,-3.96875 1e-6,-1.32291 0,-15.875 0,-15.875 z"
         id="path1782"
         sodipodi:nodetypes="ccccccccc" /><path
         style="fill:#808080;fill-opacity:1;fill-rule:evenodd;stroke:#000000;stroke-width:1.52195;stroke-linecap:round;stroke-linejoin:round;stroke-dasharray:none"
         d="m 39.6875,106.49479 -5.291667,3.96875 v 0"
         id="path1784" /><path
         style="fill:#808080;fill-opacity:1;fill-rule:evenodd;stroke:#000000;stroke-width:1.52195;stroke-linecap:round;stroke-linejoin:round;stroke-dasharray:none"
         d="m 36.777083,102.12917 -2.38125,1.71979 v 0"
         id="path1786"
         sodipodi:nodetypes="ccc" /><path
         style="fill:#808080;fill-opacity:1;fill-rule:evenodd;stroke:#000000;stroke-width:1.52195;stroke-linecap:round;stroke-linejoin:round;stroke-dasharray:none"
         d="m 39.6875,113.10937 -5.291667,3.96875 v 0"
         id="path1788" /><path
         style="fill:#808080;fill-opacity:1;fill-rule:evenodd;stroke:#000000;stroke-width:1.52195;stroke-linecap:round;stroke-linejoin:round;stroke-dasharray:none"
         d="m 39.6875,119.72396 -5.291667,3.96875 v 0"
         id="path1790"
         inkscape:transform-center-y="-1.6666667e-06" /><path
         style="fill:#808080;fill-opacity:1;fill-rule:evenodd;stroke:#000000;stroke-width:1.52195;stroke-linecap:round;stroke-linejoin:round;stroke-dasharray:none"
         d="M 26.458333,106.49479 31.75,110.46354 v 0"
         id="path1792" /><path
         style="fill:#808080;fill-opacity:1;fill-rule:evenodd;stroke:#000000;stroke-width:1.52195;stroke-linecap:round;stroke-linejoin:round;stroke-dasharray:none"
         d="m 29.36875,102.12917 2.38125,1.71979 v 0"
         id="path1794"
         sodipodi:nodetypes="ccc" /><path
         style="fill:#808080;fill-opacity:1;fill-rule:evenodd;stroke:#000000;stroke-width:1.52195;stroke-linecap:round;stroke-linejoin:round;stroke-dasharray:none"
         d="M 26.458333,113.10937 31.75,117.07812 v 0"
         id="path1796" /><path
         style="fill:#808080;fill-opacity:1;fill-rule:evenodd;stroke:#000000;stroke-width:1.52195;stroke-linecap:round;stroke-linejoin:round;stroke-dasharray:none"
         d="M 26.458333,119.72396 31.75,123.69271 v 0"
         id="path1798"
         inkscape:transform-center-y="-1.6666667e-06" /><path
         style="fill:#808080;fill-opacity:1;fill-rule:evenodd;stroke:#000000;stroke-width:1.52195;stroke-linecap:round;stroke-linejoin:round;stroke-dasharray:none"
         d="m 31.75,107.15625 h 2.645833"
         id="path1800" /><path
         style="fill:#808080;fill-opacity:1;fill-rule:evenodd;stroke:#000000;stroke-width:1.52195;stroke-linecap:round;stroke-linejoin:round;stroke-dasharray:none"
         d="m 31.75,107.15625 h 2.645833"
         id="path1802" /><path
         style="fill:#808080;fill-opacity:1;fill-rule:evenodd;stroke:#000000;stroke-width:1.52195;stroke-linecap:round;stroke-linejoin:round;stroke-dasharray:none"
         d="m 31.75,120.38542 h 2.645833"
         id="path1804" /><path
         style="fill:#808080;fill-opacity:1;fill-rule:evenodd;stroke:#000000;stroke-width:1.52195;stroke-linecap:round;stroke-linejoin:round;stroke-dasharray:none"
         d="m 31.75,113.77083 h 2.645833"
         id="path1806" /></g><g
       id="g1064"
       transform="translate(-8.6999986e-7,-1.9999997)"><path
         style="fill:#000000;fill-opacity:1;fill-rule:evenodd;stroke:none;stroke-width:0.999996;stroke-linecap:round;stroke-linejoin:round;stroke-dasharray:none;stroke-opacity:0"
         d="m 27.999999,33.999999 c 0,1 0,1 1,1 0.895222,4e-6 4.958287,3e-6 6,0 1,0 1,0 1,-1 v -6 c 0,-1 0,-1 -1,-1 0,0 -5,0 -6,0 -1,0 -1,0 -1,1 0,1 0.01627,5.035514 0,6 z"
         id="path8379"
         sodipodi:nodetypes="ccccccszc" /><text
         xml:space="preserve"
         style="font-weight:bold;font-size:10.084px;font-family:'Comic Sans MS';-inkscape-font-specification:'Comic Sans MS Bold';text-align:center;text-anchor:middle;fill:#bebebe;fill-opacity:1;fill-rule:evenodd;stroke:#bebebe;stroke-width:0.3;stroke-linecap:round;stroke-linejoin:round;stroke-dasharray:none;stroke-opacity:1"
         x="28.313267"
         y="36.805225"
         id="text10001"
         transform="scale(1.1402509,0.87699996)"><tspan
           sodipodi:role="line"
           id="tspan9999"
           style="font-style:italic;font-variant:normal;font-weight:normal;font-stretch:normal;font-family:Calibri;-inkscape-font-specification:'Calibri Italic';fill:#bebebe;fill-opacity:1;stroke:#bebebe;stroke-width:0.3;stroke-dasharray:none;stroke-opacity:1"
           x="28.313267"
           y="36.805225">μ</tspan></text><g
         id="g2695"
         transform="translate(0,2)"><path
           style="fill:#395a96;fill-opacity:1;fill-rule:evenodd;stroke:#000000;stroke-width:1;stroke-linecap:round;stroke-linejoin:round;stroke-dasharray:none;stroke-opacity:1"
           d="m 29,24.999999 v -2"
           id="path2681" /><path
           style="fill:#395a96;fill-opacity:1;fill-rule:evenodd;stroke:#000000;stroke-width:1;stroke-linecap:round;stroke-linejoin:round;stroke-dasharray:none;stroke-opacity:1"
           d="m 30.999998,24.999999 v -2"
           id="path2683" /><path
           style="fill:#395a96;fill-opacity:1;fill-rule:evenodd;stroke:#000000;stroke-width:1;stroke-linecap:round;stroke-linejoin:round;stroke-dasharray:none;stroke-opacity:1"
           d="m 33,24.999999 v -2"
           id="path2685" /><path
           style="fill:#395a96;fill-opacity:1;fill-rule:evenodd;stroke:#000000;stroke-width:1;stroke-linecap:round;stroke-linejoin:round;stroke-dasharray:none;stroke-opacity:1"
           d="m 34.999998,24.999999 v -2"
           id="path2687" /></g><g
         id="g2705"
         transform="translate(-8.6999986e-7,12)"><path
           style="fill:#395a96;fill-opacity:1;fill-rule:evenodd;stroke:#000000;stroke-width:1;stroke-linecap:round;stroke-linejoin:round;stroke-dasharray:none;stroke-opacity:1"
           d="m 29,24.999999 v -2"
           id="path2697" /><path
           style="fill:#395a96;fill-opacity:1;fill-rule:evenodd;stroke:#000000;stroke-width:1;stroke-linecap:round;stroke-linejoin:round;stroke-dasharray:none;stroke-opacity:1"
           d="m 30.999998,24.999999 v -2"
           id="path2699" /><path
           style="fill:#395a96;fill-opacity:1;fill-rule:evenodd;stroke:#000000;stroke-width:1;stroke-linecap:round;stroke-linejoin:round;stroke-dasharray:none;stroke-opacity:1"
           d="m 33,24.999999 v -2"
           id="path2701" /><path
           style="fill:#395a96;fill-opacity:1;fill-rule:evenodd;stroke:#000000;stroke-width:1;stroke-linecap:round;stroke-linejoin:round;stroke-dasharray:none;stroke-opacity:1"
           d="m 34.999998,24.999999 v -2"
           id="path2703" /></g><g
         id="g2715"
         transform="rotate(-90,37.999999,25)"><path
           style="fill:#395a96;fill-opacity:1;fill-rule:evenodd;stroke:#000000;stroke-width:1;stroke-linecap:round;stroke-linejoin:round;stroke-dasharray:none;stroke-opacity:1"
           d="m 29,24.999999 v -2"
           id="path2707" /><path
           style="fill:#395a96;fill-opacity:1;fill-rule:evenodd;stroke:#000000;stroke-width:1;stroke-linecap:round;stroke-linejoin:round;stroke-dasharray:none;stroke-opacity:1"
           d="m 30.999998,24.999999 v -2"
           id="path2709" /><path
           style="fill:#395a96;fill-opacity:1;fill-rule:evenodd;stroke:#000000;stroke-width:1;stroke-linecap:round;stroke-linejoin:round;stroke-dasharray:none;stroke-opacity:1"
           d="m 33,24.999999 v -2"
           id="path2711" /><path
           style="fill:#395a96;fill-opacity:1;fill-rule:evenodd;stroke:#000000;stroke-width:1;stroke-linecap:round;stroke-linejoin:round;stroke-dasharray:none;stroke-opacity:1"
           d="m 34.999998,24.999999 v -2"
           id="path2713" /></g><g
         id="g2725"
         transform="rotate(-90,32.999999,29.999999)"><path
           style="fill:#395a96;fill-opacity:1;fill-rule:evenodd;stroke:#000000;stroke-width:1;stroke-linecap:round;stroke-linejoin:round;stroke-dasharray:none;stroke-opacity:1"
           d="m 29,24.999999 v -2"
           id="path2717" /><path
           style="fill:#395a96;fill-opacity:1;fill-rule:evenodd;stroke:#000000;stroke-width:1;stroke-linecap:round;stroke-linejoin:round;stroke-dasharray:none;stroke-opacity:1"
           d="m 30.999998,24.999999 v -2"
           id="path2719" /><path
           style="fill:#395a96;fill-opacity:1;fill-rule:evenodd;stroke:#000000;stroke-width:1;stroke-linecap:round;stroke-linejoin:round;stroke-dasharray:none;stroke-opacity:1"
           d="m 33,24.999999 v -2"
           id="path2721" /><path
           style="fill:#395a96;fill-opacity:1;fill-rule:evenodd;stroke:#000000;stroke-width:1;stroke-linecap:round;stroke-linejoin:round;stroke-dasharray:none;stroke-opacity:1"
           d="m 34.999998,24.999999 v -2"
           id="path2723" /></g></g><g
       id="g499"><path
         style="fill:#bebebe;fill-opacity:1;fill-rule:evenodd;stroke:none;stroke-width:0;stroke-linecap:round;stroke-linejoin:round;stroke-dasharray:none;stroke-opacity:0"
         d="m 30.487558,38.122928 3.024883,-2e-6 2.171245,0.899361 2.138917,2.138923 0.899358,2.171247 -2e-6,3.024877 -0.899359,2.171242 -2.138915,2.138917 -2.171248,0.89936 h -3.024881 l -2.171246,-0.89936 -2.138912,-2.138924 -0.899361,-2.171241 2e-6,-3.024877 0.89936,-2.171248 2.138917,-2.138916 z"
         id="path8288" /><ellipse
         style="fill:#395a96;fill-opacity:1;fill-rule:evenodd;stroke:#000000;stroke-width:0.99999;stroke-linecap:round;stroke-linejoin:round;stroke-dasharray:none"
         id="path7824"
         cx="32"
         cy="44.844883"
         rx="2.2011058"
         ry="2.2011073" /><path
         id="path8290"
         style="fill:#395a96;fill-opacity:1;fill-rule:evenodd;stroke:#000000;stroke-width:0.999993;stroke-linecap:round;stroke-linejoin:round;stroke-dasharray:none"
         d="m 35.778145,38.872995 -2.22692,-0.922421 m -3.102441,-3e-6 c 0.842344,2.706786 2.219973,2.75833 3.102441,3e-6"
         inkscape:transform-center-x="-1.1134645"
         inkscape:transform-center-y="-5.8695797"
         sodipodi:nodetypes="cccc" /><path
         id="path475"
         style="fill:#395a96;fill-opacity:1;fill-rule:evenodd;stroke:#000000;stroke-width:0.999993;stroke-linecap:round;stroke-linejoin:round;stroke-dasharray:none"
         d="m 38.894314,43.293672 -0.92242,-2.22692 m -2.193755,-2.193759 c -1.318359,2.509614 -0.380676,3.520192 2.193755,2.193759"
         inkscape:transform-center-x="-5.0390942"
         inkscape:transform-center-y="-3.7615504"
         sodipodi:nodetypes="cccc" /><path
         id="path477"
         style="fill:#395a96;fill-opacity:1;fill-rule:evenodd;stroke:#000000;stroke-width:0.999993;stroke-linecap:round;stroke-linejoin:round;stroke-dasharray:none"
         d="m 37.971888,48.623027 0.922421,-2.226919 m 3e-6,-3.102441 c -2.706786,0.842344 -2.758331,2.219973 -3e-6,3.102441"
         inkscape:transform-center-x="-5.8695796"
         inkscape:transform-center-y="1.1134641"
         sodipodi:nodetypes="cccc" /><path
         id="path479"
         style="fill:#395a96;fill-opacity:1;fill-rule:evenodd;stroke:#000000;stroke-width:0.999993;stroke-linecap:round;stroke-linejoin:round;stroke-dasharray:none"
         d="m 33.551211,51.739197 2.22692,-0.92242 m 2.193759,-2.193755 c -2.509614,-1.318359 -3.520192,-0.380676 -2.193759,2.193755"
         inkscape:transform-center-x="-3.7615505"
         inkscape:transform-center-y="5.0390943"
         sodipodi:nodetypes="cccc" /><path
         id="path481"
         style="fill:#395a96;fill-opacity:1;fill-rule:evenodd;stroke:#000000;stroke-width:0.999993;stroke-linecap:round;stroke-linejoin:round;stroke-dasharray:none"
         d="m 28.221856,50.816771 2.226919,0.922421 m 3.102441,3e-6 c -0.842344,-2.706786 -2.219973,-2.758331 -3.102441,-3e-6"
         inkscape:transform-center-x="1.113464"
         inkscape:transform-center-y="5.8695797"
         sodipodi:nodetypes="cccc" /><path
         id="path483"
         style="fill:#395a96;fill-opacity:1;fill-rule:evenodd;stroke:#000000;stroke-width:0.999993;stroke-linecap:round;stroke-linejoin:round;stroke-dasharray:none"
         d="m 25.105686,46.396094 0.92242,2.22692 m 2.193755,2.193759 c 1.318359,-2.509614 0.380676,-3.520192 -2.193755,-2.193759"
         inkscape:transform-center-x="5.0390942"
         inkscape:transform-center-y="3.7615506"
         sodipodi:nodetypes="cccc" /><path
         id="path485"
         style="fill:#395a96;fill-opacity:1;fill-rule:evenodd;stroke:#000000;stroke-width:0.999993;stroke-linecap:round;stroke-linejoin:round;stroke-dasharray:none"
         d="m 26.028112,41.066739 -0.922421,2.226919 m -3e-6,3.102441 c 2.706786,-0.842344 2.758331,-2.219973 3e-6,-3.102441"
         inkscape:transform-center-x="5.8695796"
         inkscape:transform-center-y="-1.1134639"
         sodipodi:nodetypes="cccc" /><path
         id="path487"
         style="fill:#395a96;fill-opacity:1;fill-rule:evenodd;stroke:#000000;stroke-width:0.999993;stroke-linecap:round;stroke-linejoin:round;stroke-dasharray:none"
         d="m 30.448789,37.950569 -2.22692,0.92242 m -2.193759,2.193755 c 2.509614,1.318359 3.520192,0.380676 2.193759,-2.193755"
         inkscape:transform-center-x="3.7615505"
         inkscape:transform-center-y="-5.0390941"
         sodipodi:nodetypes="cccc" /></g></g></svg>
