%TF.GenerationSoftware,KiCad,Pcbnew,8.0.3*%
%TF.CreationDate,2025-12-07T16:24:01+01:00*%
%TF.ProjectId,electronic-pcb-luces-led,656c6563-7472-46f6-9e69-632d7063622d,R3*%
%TF.SameCoordinates,PX3072580PY3072580*%
%TF.FileFunction,Copper,L1,Top*%
%TF.FilePolarity,Positive*%
%FSLAX46Y46*%
G04 Gerber Fmt 4.6, Leading zero omitted, Abs format (unit mm)*
G04 Created by KiCad (PCBNEW 8.0.3) date 2025-12-07 16:24:01*
%MOMM*%
%LPD*%
G01*
G04 APERTURE LIST*
%TA.AperFunction,EtchedComponent*%
%ADD10C,0.300000*%
%TD*%
%TA.AperFunction,ComponentPad*%
%ADD11C,2.000000*%
%TD*%
%TA.AperFunction,ComponentPad*%
%ADD12R,1.600000X1.600000*%
%TD*%
%TA.AperFunction,ComponentPad*%
%ADD13C,1.600000*%
%TD*%
%TA.AperFunction,ComponentPad*%
%ADD14R,1.800000X1.800000*%
%TD*%
%TA.AperFunction,ComponentPad*%
%ADD15C,1.800000*%
%TD*%
%TA.AperFunction,ComponentPad*%
%ADD16R,2.400000X1.600000*%
%TD*%
%TA.AperFunction,ComponentPad*%
%ADD17O,2.400000X1.600000*%
%TD*%
%TA.AperFunction,ComponentPad*%
%ADD18O,2.200000X3.500000*%
%TD*%
%TA.AperFunction,ComponentPad*%
%ADD19R,1.500000X2.500000*%
%TD*%
%TA.AperFunction,ComponentPad*%
%ADD20O,1.500000X2.500000*%
%TD*%
%TA.AperFunction,ComponentPad*%
%ADD21R,1.700000X1.700000*%
%TD*%
%TA.AperFunction,ComponentPad*%
%ADD22O,1.700000X1.700000*%
%TD*%
%TA.AperFunction,Conductor*%
%ADD23C,0.635000*%
%TD*%
G04 APERTURE END LIST*
D10*
%TO.C,Picuino_Logo_B6*%
X53103780Y-18348960D02*
X52306220Y-18348960D01*
X53406040Y-19448780D02*
X53406040Y-18651220D01*
X52003960Y-18651220D02*
X52003960Y-19448780D01*
X52306220Y-19751040D02*
X53103780Y-19751040D01*
X50954940Y-17998440D02*
G75*
G02*
X52003960Y-16949420I1049021J-1D01*
G01*
X52003960Y-19050000D02*
G75*
G02*
X50952400Y-17998440I1J1051561D01*
G01*
X52003960Y-18651220D02*
G75*
G02*
X52306220Y-18348960I302260J0D01*
G01*
X53103780Y-18348960D02*
G75*
G02*
X53406040Y-18651220I0J-302260D01*
G01*
X52306220Y-19751040D02*
G75*
G02*
X52003960Y-19448780I0J302260D01*
G01*
X53406040Y-19448780D02*
G75*
G02*
X53103780Y-19751040I-302260J0D01*
G01*
X53406040Y-19050000D02*
G75*
G02*
X54457600Y-20101560I0J-1051560D01*
G01*
X54455060Y-20101560D02*
G75*
G02*
X53406040Y-21150580I-1049020J0D01*
G01*
X53403500Y-16949420D02*
G75*
G02*
X52006500Y-16949420I-698500J0D01*
G01*
X52006500Y-16949420D02*
G75*
G02*
X53403500Y-16949420I698500J0D01*
G01*
X53403500Y-21150580D02*
G75*
G02*
X52006500Y-21150580I-698500J0D01*
G01*
X52006500Y-21150580D02*
G75*
G02*
X53403500Y-21150580I698500J0D01*
G01*
%TD*%
D11*
%TO.P,R3,1*%
%TO.N,Net-(R1-Pad2)*%
X2540000Y-29845000D03*
%TO.P,R3,2*%
%TO.N,Net-(C1-Pad1)*%
X2540000Y-17145000D03*
%TD*%
%TO.P,R1,1*%
%TO.N,Net-(D1-K)*%
X42545000Y-10160000D03*
%TO.P,R1,2*%
%TO.N,Net-(R1-Pad2)*%
X29845000Y-10160000D03*
%TD*%
%TO.P,R5,1*%
%TO.N,Net-(D4-K)*%
X42545000Y-21590000D03*
%TO.P,R5,2*%
%TO.N,Net-(R5-Pad2)*%
X29845000Y-21590000D03*
%TD*%
%TO.P,R6,1*%
%TO.N,Net-(R4-Pad2)*%
X6350000Y-29845000D03*
%TO.P,R6,2*%
%TO.N,Net-(C2-Pad1)*%
X6350000Y-17145000D03*
%TD*%
%TO.P,R7,1*%
%TO.N,Net-(D5-K)*%
X42545000Y-25400000D03*
%TO.P,R7,2*%
%TO.N,Net-(R7-Pad2)*%
X29845000Y-25400000D03*
%TD*%
%TO.P,R8,1*%
%TO.N,Net-(D6-K)*%
X42545000Y-29210000D03*
%TO.P,R8,2*%
%TO.N,Net-(R8-Pad2)*%
X29845000Y-29210000D03*
%TD*%
%TO.P,R9,1*%
%TO.N,Net-(R7-Pad2)*%
X10160000Y-29845000D03*
%TO.P,R9,2*%
%TO.N,Net-(C3-Pad1)*%
X10160000Y-17145000D03*
%TD*%
%TO.P,R2,1*%
%TO.N,Net-(D2-K)*%
X42545000Y-13970000D03*
%TO.P,R2,2*%
%TO.N,Net-(R2-Pad2)*%
X29845000Y-13970000D03*
%TD*%
%TO.P,R4,1*%
%TO.N,Net-(D3-K)*%
X42545000Y-17780000D03*
%TO.P,R4,2*%
%TO.N,Net-(R4-Pad2)*%
X29845000Y-17780000D03*
%TD*%
D12*
%TO.P,C1,1*%
%TO.N,Net-(C1-Pad1)*%
X8890000Y-34290000D03*
D13*
%TO.P,C1,2*%
%TO.N,GND*%
X10890000Y-34290000D03*
%TD*%
D14*
%TO.P,D1,1,K*%
%TO.N,Net-(D1-K)*%
X27305000Y-3810000D03*
D15*
%TO.P,D1,2,A*%
%TO.N,+BATT*%
X29845000Y-3810000D03*
%TD*%
D14*
%TO.P,D2,1,K*%
%TO.N,Net-(D2-K)*%
X42545000Y-3810000D03*
D15*
%TO.P,D2,2,A*%
%TO.N,+BATT*%
X45085000Y-3810000D03*
%TD*%
D14*
%TO.P,D3,1,K*%
%TO.N,Net-(D3-K)*%
X54610000Y-12065000D03*
D15*
%TO.P,D3,2,A*%
%TO.N,+BATT*%
X57150000Y-12065000D03*
%TD*%
D14*
%TO.P,D4,1,K*%
%TO.N,Net-(D4-K)*%
X54610000Y-27305000D03*
D15*
%TO.P,D4,2,A*%
%TO.N,+BATT*%
X57150000Y-27305000D03*
%TD*%
D14*
%TO.P,D5,1,K*%
%TO.N,Net-(D5-K)*%
X42545000Y-35560000D03*
D15*
%TO.P,D5,2,A*%
%TO.N,+BATT*%
X45085000Y-35560000D03*
%TD*%
D14*
%TO.P,D6,1,K*%
%TO.N,Net-(D6-K)*%
X27305000Y-35560000D03*
D15*
%TO.P,D6,2,A*%
%TO.N,+BATT*%
X29845000Y-35560000D03*
%TD*%
D16*
%TO.P,U1,1*%
%TO.N,Net-(C1-Pad1)*%
X15240000Y-13970000D03*
D17*
%TO.P,U1,2*%
%TO.N,Net-(R1-Pad2)*%
X15240000Y-16510000D03*
%TO.P,U1,3*%
%TO.N,Net-(C2-Pad1)*%
X15240000Y-19050000D03*
%TO.P,U1,4*%
%TO.N,Net-(R4-Pad2)*%
X15240000Y-21590000D03*
%TO.P,U1,5*%
%TO.N,Net-(C3-Pad1)*%
X15240000Y-24130000D03*
%TO.P,U1,6*%
%TO.N,Net-(R7-Pad2)*%
X15240000Y-26670000D03*
%TO.P,U1,7,GND*%
%TO.N,GND*%
X15240000Y-29210000D03*
%TO.P,U1,8*%
%TO.N,Net-(R8-Pad2)*%
X22860000Y-29210000D03*
%TO.P,U1,9*%
%TO.N,Net-(R7-Pad2)*%
X22860000Y-26670000D03*
%TO.P,U1,10*%
%TO.N,Net-(R5-Pad2)*%
X22860000Y-24130000D03*
%TO.P,U1,11*%
%TO.N,Net-(R4-Pad2)*%
X22860000Y-21590000D03*
%TO.P,U1,12*%
%TO.N,Net-(R2-Pad2)*%
X22860000Y-19050000D03*
%TO.P,U1,13*%
%TO.N,Net-(R1-Pad2)*%
X22860000Y-16510000D03*
%TO.P,U1,14,VCC*%
%TO.N,+BATT*%
X22860000Y-13970000D03*
%TD*%
D12*
%TO.P,C2,1*%
%TO.N,Net-(C2-Pad1)*%
X14605000Y-34290000D03*
D13*
%TO.P,C2,2*%
%TO.N,GND*%
X16605000Y-34290000D03*
%TD*%
D18*
%TO.P,SW1,*%
%TO.N,*%
X17975000Y-3810000D03*
X9775000Y-3810000D03*
D19*
%TO.P,SW1,1,A*%
%TO.N,+BATT*%
X15875000Y-3810000D03*
D20*
%TO.P,SW1,2,B*%
%TO.N,Net-(BT1-+)*%
X13875000Y-3810000D03*
%TO.P,SW1,3,C*%
%TO.N,unconnected-(SW1-C-Pad3)*%
X11875000Y-3810000D03*
%TD*%
D21*
%TO.P,BT1,1,+*%
%TO.N,Net-(BT1-+)*%
X2540000Y-10795000D03*
D22*
%TO.P,BT1,2,-*%
%TO.N,GND*%
X2540000Y-13335000D03*
%TD*%
D11*
%TO.P,C4,1*%
%TO.N,+BATT*%
X22860000Y-10160000D03*
X20320000Y-10160000D03*
%TO.P,C4,2*%
%TO.N,GND*%
X17780000Y-10160000D03*
X15240000Y-10160000D03*
%TD*%
D12*
%TO.P,C3,1*%
%TO.N,Net-(C3-Pad1)*%
X8890000Y-12065000D03*
D13*
%TO.P,C3,2*%
%TO.N,GND*%
X10890000Y-12065000D03*
%TD*%
D23*
%TO.N,Net-(R1-Pad2)*%
X2540000Y-28430787D02*
X14460787Y-16510000D01*
X14460787Y-16510000D02*
X15240000Y-16510000D01*
X2540000Y-29845000D02*
X2540000Y-28430787D01*
%TO.N,Net-(C3-Pad1)*%
X10795000Y-15240000D02*
X13970000Y-12065000D01*
X17780000Y-22860000D02*
X16510000Y-24130000D01*
X9525000Y-15240000D02*
X10795000Y-15240000D01*
X13970000Y-12065000D02*
X16510000Y-12065000D01*
X16510000Y-12065000D02*
X17780000Y-13335000D01*
X8890000Y-12065000D02*
X8890000Y-14605000D01*
X16510000Y-24130000D02*
X15240000Y-24130000D01*
X8890000Y-14605000D02*
X9525000Y-15240000D01*
X17780000Y-13335000D02*
X17780000Y-22860000D01*
X10160000Y-17145000D02*
X10160000Y-15875000D01*
X9525000Y-15240000D02*
X10160000Y-15875000D01*
X10160000Y-15875000D02*
X10795000Y-15240000D01*
%TO.N,Net-(C2-Pad1)*%
X12700000Y-31750000D02*
X12700000Y-20320000D01*
X14605000Y-34290000D02*
X14605000Y-33655000D01*
X13970000Y-19050000D02*
X15240000Y-19050000D01*
X14605000Y-33655000D02*
X12700000Y-31750000D01*
X12700000Y-20320000D02*
X13970000Y-19050000D01*
%TO.N,GND*%
X17145000Y-29210000D02*
X19685000Y-26670000D01*
X17145000Y-10160000D02*
X15360000Y-10160000D01*
X15240000Y-29210000D02*
X17145000Y-29210000D01*
X19685000Y-12700000D02*
X17145000Y-10160000D01*
X19685000Y-26670000D02*
X19685000Y-12700000D01*
%TD*%
M02*
