M48
; DRILL file {KiCad 8.0.3} date 2025-12-07T16:24:04+0100
; FORMAT={-:-/ absolute / metric / decimal}
; #@! TF.CreationDate,2025-12-07T16:24:04+01:00
; #@! TF.GenerationSoftware,Kicad,Pcbnew,8.0.3
; #@! TF.FileFunction,MixedPlating,1,2
FMAT,2
METRIC
; #@! TA.AperFunction,Plated,PTH,ComponentDrill
T1C0.800
; #@! TA.AperFunction,Plated,PTH,ComponentDrill
T2C0.900
; #@! TA.AperFunction,Plated,PTH,ComponentDrill
T3C1.500
; #@! TA.AperFunction,NonPlated,NPTH,ComponentDrill
T4C3.000
%
G90
G05
T1
X2.54Y-10.795
X2.54Y-13.335
X2.54Y-17.145
X2.54Y-29.845
X6.35Y-17.145
X6.35Y-29.845
X8.89Y-12.065
X8.89Y-34.29
X10.16Y-17.145
X10.16Y-29.845
X10.89Y-12.065
X10.89Y-34.29
X11.875Y-3.81
X13.875Y-3.81
X14.605Y-34.29
X15.24Y-10.16
X15.24Y-13.97
X15.24Y-16.51
X15.24Y-19.05
X15.24Y-21.59
X15.24Y-24.13
X15.24Y-26.67
X15.24Y-29.21
X15.875Y-3.81
X16.605Y-34.29
X17.78Y-10.16
X20.32Y-10.16
X22.86Y-10.16
X22.86Y-13.97
X22.86Y-16.51
X22.86Y-19.05
X22.86Y-21.59
X22.86Y-24.13
X22.86Y-26.67
X22.86Y-29.21
X29.845Y-10.16
X29.845Y-13.97
X29.845Y-17.78
X29.845Y-21.59
X29.845Y-25.4
X29.845Y-29.21
X42.545Y-10.16
X42.545Y-13.97
X42.545Y-17.78
X42.545Y-21.59
X42.545Y-25.4
X42.545Y-29.21
T2
X27.305Y-3.81
X27.305Y-35.56
X29.845Y-3.81
X29.845Y-35.56
X42.545Y-3.81
X42.545Y-35.56
X45.085Y-3.81
X45.085Y-35.56
X54.61Y-12.065
X54.61Y-27.305
X57.15Y-12.065
X57.15Y-27.305
T3
X9.775Y-3.81
X17.975Y-3.81
T4
X3.175Y-3.175
X3.175Y-36.195
X56.515Y-3.175
X56.515Y-36.195
M30
