<?xml version="1.0" encoding="UTF-8" standalone="no"?>
<!DOCTYPE svg PUBLIC "-//W3C//DTD SVG 1.1//EN"
"http://www.w3.org/Graphics/SVG/1.1/DTD/svg11.dtd">
<svg viewBox="0 0 909 1286" version="1.1" xmlns="http://www.w3.org/2000/svg" xmlns:xlink="http://www.w3.org/1999/xlink">
<defs>
<style type="text/css"><![CDATA[
.g0_3{
fill: none;
stroke: #231F20;
stroke-width: 0.33;
stroke-linecap: butt;
stroke-linejoin: miter;
stroke-miterlimit: 22;
}
.g1_3{
fill: #231F20;
}
]]></style>
</defs>
<path d="M340.3,274.8h83.6" class="g0_3"/>
<path fill-rule="evenodd" d="M340.3,274.8h83.6v1.5H340.3v-1.5Z" class="g1_3"/>
<path d="M340.3,319.5h83.6" class="g0_3"/>
<path fill-rule="evenodd" d="M340.3,319.5h83.6V321H340.3v-1.5Z" class="g1_3"/>
<path d="M340.3,364.2h83.6" class="g0_3"/>
<path fill-rule="evenodd" d="M340.3,364.2h83.6v1.5H340.3v-1.5Z" class="g1_3"/>
<path d="M340.3,437.2h83.6" class="g0_3"/>
<path fill-rule="evenodd" d="M340.3,437.2h83.6v1.5H340.3v-1.5Z" class="g1_3"/>
<path d="M340.3,640.6h83.6" class="g0_3"/>
<path fill-rule="evenodd" d="M340.3,640.6h83.6v1.5H340.3v-1.5Z" class="g1_3"/>
<path d="M340.3,764.2h83.6" class="g0_3"/>
<path fill-rule="evenodd" d="M340.3,764.2h83.6v1.4H340.3v-1.4Z" class="g1_3"/>
<path d="M340.3,808.9h83.6" class="g0_3"/>
<path fill-rule="evenodd" d="M340.3,808.9h83.6v1.5H340.3v-1.5Z" class="g1_3"/>
<path d="M95.8,230.1V922.2" class="g0_3"/>
<path fill-rule="evenodd" d="M95.8,230.1h1.5V922.2H95.8V230.1Z" class="g1_3"/>
<path d="M281.5,231.5V922.2" class="g0_3"/>
<path fill-rule="evenodd" d="M281.5,231.5H283V922.2h-1.5V231.5Z" class="g1_3"/>
<path d="M338.9,231.5V922.2" class="g0_3"/>
<path fill-rule="evenodd" d="M338.9,231.5h1.4V922.2h-1.4V231.5Z" class="g1_3"/>
<path d="M422.5,231.5V922.2" class="g0_3"/>
<path fill-rule="evenodd" d="M422.5,231.5h1.4V922.2h-1.4V231.5Z" class="g1_3"/>
<path d="M614.9,231.5V922.2" class="g0_3"/>
<path fill-rule="evenodd" d="M614.9,231.5h1.5V922.2h-1.5V231.5Z" class="g1_3"/>
<path d="M656.1,231.5V922.2" class="g0_3"/>
<path fill-rule="evenodd" d="M656.1,231.5h1.5V922.2h-1.5V231.5Z" class="g1_3"/>
<path d="M696.3,231.5V922.2" class="g0_3"/>
<path fill-rule="evenodd" d="M696.3,231.5h1.5V922.2h-1.5V231.5Z" class="g1_3"/>
<path d="M734,231.5V922.2" class="g0_3"/>
<path fill-rule="evenodd" d="M734,231.5h1.5V922.2H734V231.5Z" class="g1_3"/>
<path d="M776.4,231.5V922.2" class="g0_3"/>
<path fill-rule="evenodd" d="M776.4,231.5h1.4V922.2h-1.4V231.5Z" class="g1_3"/>
<path d="M97.3,230.1H777.8" class="g0_3"/>
<path fill-rule="evenodd" d="M97.3,230.1H777.8v1.4H97.3v-1.4Z" class="g1_3"/>
<path d="M97.3,252.4H777.8" class="g0_3"/>
<path fill-rule="evenodd" d="M97.3,252.4H777.8v1.5H97.3v-1.5Z" class="g1_3"/>
<path d="M616.4,274.8H735.5" class="g0_3"/>
<path fill-rule="evenodd" d="M616.4,274.8H735.5v1.5H616.4v-1.5Z" class="g1_3"/>
<path d="M97.3,297.2H777.8" class="g0_3"/>
<path fill-rule="evenodd" d="M97.3,297.2H777.8v1.4H97.3v-1.4Z" class="g1_3"/>
<path d="M616.4,319.5H735.5" class="g0_3"/>
<path fill-rule="evenodd" d="M616.4,319.5H735.5V321H616.4v-1.5Z" class="g1_3"/>
<path d="M97.3,341.9H777.8" class="g0_3"/>
<path fill-rule="evenodd" d="M97.3,341.9H777.8v1.4H97.3v-1.4Z" class="g1_3"/>
<path d="M616.4,364.2H735.5" class="g0_3"/>
<path fill-rule="evenodd" d="M616.4,364.2H735.5v1.5H616.4v-1.5Z" class="g1_3"/>
<path d="M97.3,386.6H777.8" class="g0_3"/>
<path fill-rule="evenodd" d="M97.3,386.6H777.8v1.5H97.3v-1.5Z" class="g1_3"/>
<path d="M616.4,437.2H777.8" class="g0_3"/>
<path fill-rule="evenodd" d="M616.4,437.2H777.8v1.5H616.4v-1.5Z" class="g1_3"/>
<path d="M97.3,487.8H777.8" class="g0_3"/>
<path fill-rule="evenodd" d="M97.3,487.8H777.8v1.4H97.3v-1.4Z" class="g1_3"/>
<path d="M340.3,528.8H735.5" class="g0_3"/>
<path fill-rule="evenodd" d="M340.3,528.8H735.5v1.5H340.3v-1.5Z" class="g1_3"/>
<path d="M340.3,551.2H735.5" class="g0_3"/>
<path fill-rule="evenodd" d="M340.3,551.2H735.5v1.5H340.3v-1.5Z" class="g1_3"/>
<path d="M340.3,573.6H735.5" class="g0_3"/>
<path fill-rule="evenodd" d="M340.3,573.6H735.5V575H340.3v-1.4Z" class="g1_3"/>
<path d="M97.3,595.9H777.8" class="g0_3"/>
<path fill-rule="evenodd" d="M97.3,595.9H777.8v1.5H97.3v-1.5Z" class="g1_3"/>
<path d="M97.3,618.3H777.8" class="g0_3"/>
<path fill-rule="evenodd" d="M97.3,618.3H777.8v1.4H97.3v-1.4Z" class="g1_3"/>
<path d="M616.4,640.6H735.5" class="g0_3"/>
<path fill-rule="evenodd" d="M616.4,640.6H735.5v1.5H616.4v-1.5Z" class="g1_3"/>
<path d="M97.3,663H777.8" class="g0_3"/>
<path fill-rule="evenodd" d="M97.3,663H777.8v1.5H97.3V663Z" class="g1_3"/>
<path d="M97.3,685.4H777.8" class="g0_3"/>
<path fill-rule="evenodd" d="M97.3,685.4H777.8v1.4H97.3v-1.4Z" class="g1_3"/>
<path d="M97.3,719.5H777.8" class="g0_3"/>
<path fill-rule="evenodd" d="M97.3,719.5H777.8v1.4H97.3v-1.4Z" class="g1_3"/>
<path d="M97.3,741.8H777.8" class="g0_3"/>
<path fill-rule="evenodd" d="M97.3,741.8H777.8v1.5H97.3v-1.5Z" class="g1_3"/>
<path d="M616.4,764.2H735.5" class="g0_3"/>
<path fill-rule="evenodd" d="M616.4,764.2H735.5v1.4H616.4v-1.4Z" class="g1_3"/>
<path d="M340.3,786.5H735.5" class="g0_3"/>
<path fill-rule="evenodd" d="M340.3,786.5H735.5V788H340.3v-1.5Z" class="g1_3"/>
<path d="M616.4,808.9H735.5" class="g0_3"/>
<path fill-rule="evenodd" d="M616.4,808.9H735.5v1.5H616.4v-1.5Z" class="g1_3"/>
<path d="M340.3,831.3H777.8" class="g0_3"/>
<path fill-rule="evenodd" d="M340.3,831.3H777.8v1.4H340.3v-1.4Z" class="g1_3"/>
<path d="M97.3,853.6H777.8" class="g0_3"/>
<path fill-rule="evenodd" d="M97.3,853.6H777.8v1.5H97.3v-1.5Z" class="g1_3"/>
<path d="M97.3,876H777.8" class="g0_3"/>
<path fill-rule="evenodd" d="M97.3,876H777.8v1.5H97.3V876Z" class="g1_3"/>
<path d="M340.3,898.4H735.5" class="g0_3"/>
<path fill-rule="evenodd" d="M340.3,898.4H735.5v1.4H340.3v-1.4Z" class="g1_3"/>
<path d="M97.3,920.7H777.8" class="g0_3"/>
<path fill-rule="evenodd" d="M97.3,920.7H777.8v1.5H97.3v-1.5Z" class="g1_3"/>
<path d="M82.6,1119.6H93.5v-10.8H82.6v10.8Z" class="g1_3"/>
<path d="M95.1,1130v46.2" class="g0_3"/>
<path d="M95.1,1176.2h1.5v-46.1H95.1v46.1Z" class="g1_3"/>
<path d="M279.6,1131.6v44.6" class="g0_3"/>
<path d="M279.6,1176.2h1.5v-44.6h-1.5v44.6Z" class="g1_3"/>
<path d="M461.7,1131.6v44.6" class="g0_3"/>
<path d="M461.7,1176.2h1.5v-44.6h-1.5v44.6Z" class="g1_3"/>
<path d="M645,1131.6v44.6" class="g0_3"/>
<path d="M645,1176.2h1.5v-44.6H645v44.6Z" class="g1_3"/>
<path d="M96.6,1130h550" class="g0_3"/>
<path d="M96.6,1131.6h550v-1.5H96.6v1.5Z" class="g1_3"/>
<path d="M96.6,1153.6h550" class="g0_3"/>
<path d="M96.6,1155.1h550v-1.5H96.6v1.5Z" class="g1_3"/>
<path d="M96.6,1174.6h550" class="g0_3"/>
<path d="M96.6,1176.2h550v-1.5H96.6v1.5Z" class="g1_3"/>
<path d="M93.3,1051.9v24.9" class="g0_3"/>
<path fill-rule="evenodd" d="M93.3,1051.9h1.4v24.9H93.3v-24.9Z" class="g1_3"/>
<path d="M175.8,1053.4v23.4" class="g0_3"/>
<path fill-rule="evenodd" d="M175.8,1053.4h1.5v23.4h-1.5v-23.4Z" class="g1_3"/>
<path d="M313.3,1053.4v23.4" class="g0_3"/>
<path fill-rule="evenodd" d="M313.3,1053.4h1.5v23.4h-1.5v-23.4Z" class="g1_3"/>
<path d="M94.7,1051.9H314.8" class="g0_3"/>
<path fill-rule="evenodd" d="M94.7,1051.9H314.8v1.5H94.7v-1.5Z" class="g1_3"/>
<path d="M94.7,1075.3H314.8" class="g0_3"/>
<path fill-rule="evenodd" d="M94.7,1075.3H314.8v1.5H94.7v-1.5Z" class="g1_3"/>
</svg>