<?xml version="1.0" encoding="UTF-8" standalone="no"?>
<svg
   viewBox="-24.064227395494576 -24.064227395494576 67.22704796201658 48.12845479098915"
   height="48.12845479098915mm"
   width="67.22704796201658mm"
   version="1.1"
   id="SvgjsSvg1602"
   sodipodi:docname="mecan-gears-01.svg"
   inkscape:export-filename="..\_images\mecan-gears-01b.png"
   inkscape:export-xdpi="299.7352"
   inkscape:export-ydpi="299.7352"
   inkscape:version="1.2.2 (732a01da63, 2022-12-09)"
   xmlns:inkscape="http://www.inkscape.org/namespaces/inkscape"
   xmlns:sodipodi="http://sodipodi.sourceforge.net/DTD/sodipodi-0.dtd"
   xmlns="http://www.w3.org/2000/svg"
   xmlns:svg="http://www.w3.org/2000/svg">
  <sodipodi:namedview
     id="namedview27"
     pagecolor="#ffffff"
     bordercolor="#666666"
     borderopacity="1.0"
     inkscape:pageshadow="2"
     inkscape:pageopacity="0.0"
     inkscape:pagecheckerboard="0"
     inkscape:document-units="mm"
     showgrid="false"
     inkscape:zoom="3.1558509"
     inkscape:cx="94.586218"
     inkscape:cy="90.625321"
     inkscape:window-width="1920"
     inkscape:window-height="1017"
     inkscape:window-x="-8"
     inkscape:window-y="-8"
     inkscape:window-maximized="1"
     inkscape:current-layer="SvgjsG1604"
     inkscape:showpageshadow="2"
     inkscape:deskcolor="#d1d1d1" />
  <desc
     id="desc2">Created with svg.js [http://svgjs.com]</desc>
  <defs
     id="SvgjsDefs1603">
    <marker
       style="overflow:visible"
       id="Arrow2Lstart"
       refX="0"
       refY="0"
       orient="auto"
       inkscape:stockid="Arrow2Lstart"
       inkscape:isstock="true">
      <path
         transform="matrix(1.1,0,0,1.1,1.1,0)"
         d="M 8.7185878,4.0337352 -2.2072895,0.01601326 8.7185884,-4.0017078 c -1.7454984,2.3720609 -1.7354408,5.6174519 -6e-7,8.035443 z"
         style="fill:context-stroke;fill-rule:evenodd;stroke:context-stroke;stroke-width:0.625;stroke-linejoin:round"
         id="path1571" />
    </marker>
    <marker
       style="overflow:visible"
       id="Arrow2Lend"
       refX="0"
       refY="0"
       orient="auto"
       inkscape:stockid="Arrow2Lend"
       inkscape:isstock="true">
      <path
         transform="matrix(-1.1,0,0,-1.1,-1.1,0)"
         d="M 8.7185878,4.0337352 -2.2072895,0.01601326 8.7185884,-4.0017078 c -1.7454984,2.3720609 -1.7354408,5.6174519 -6e-7,8.035443 z"
         style="fill:context-stroke;fill-rule:evenodd;stroke:context-stroke;stroke-width:0.625;stroke-linejoin:round"
         id="path1574" />
    </marker>
  </defs>
  <defs
     id="defs5" />
  <g
     id="SvgjsG1604">
    <g
       transform="translate(27.047923,1.6995821)"
       id="SvgjsG1605">
      <g
         fill="none"
         stroke-width="0.1"
         stroke="#000000"
         id="SvgjsG1611">
        <path
           d="m -7.1506827,8.6883537 0.017077,-0.2765546 0.027003,-0.259626 0.035556,-0.2425281 0.042634,-0.2248406 0.048484,-0.2078059 0.05337,-0.1919118 0.055487,-0.1714234 0.057586,-0.1555197 0.058303,-0.1392549 0.1126698,-0.2284817 0.098284,-0.1633707 0.073851,-0.1026287 0.1606493,-0.1070153 0.1684486,-0.1291835 0.1467243,-0.1316936 0.12513,-0.1326296 0.1037181,-0.1320046 0.082638,-0.1298163 0.061926,-0.1261024 0.041694,-0.1209089 0.022053,-0.1142404 0.00305,-0.1061679 -0.015201,-0.096716 -0.032639,-0.085925 -0.035379,-0.056606 -0.1568153,-0.1894846 -0.2242497,-0.2931204 -0.209477,-0.3038533 -0.131752,-0.2076942 -0.042903,-0.051139 -0.071634,-0.057594 -0.087285,-0.044344 -0.1019137,-0.029909 -0.1154638,-0.014329 -0.1278755,0.00229 -0.1390666,0.019927 -0.1489993,0.038478 -0.1575945,0.05785 -0.1648055,0.078021 -0.1705883,0.098847 -0.1749143,0.1202843 -0.151421,0.1197169 -0.1204268,0.038522 -0.185746,0.042989 -0.252116,0.036551 -0.1504558,0.012417 -0.165703,0.00671 -0.1801797,-2.015e-4 -0.1990112,-0.00855 -0.2126176,-0.018104 -0.227011,-0.028932 -0.2416454,-0.041129 -0.2552634,-0.054548 -0.268296,-0.069219 -0.250421,-0.075638 a 11.459156,11.459156 0 0 1 -0.32683,-1.0058663 l 0.158137,-0.208386 0.17637,-0.2137 0.17445,-0.19417 0.17132,-0.17531 0.16665,-0.15684 0.16137,-0.13962 0.15598,-0.12389 0.14565,-0.10607 0.138,-0.09197 0.12902,-0.07839 0.22545,-0.11862 0.17554,-0.0744 0.12007,-0.03962 0.19287,0.00785 0.21221,-0.0055 0.19611,-0.0203 0.17919,-0.03375 0.1615,-0.04583 0.14316,-0.05645 0.12422,-0.06562 0.1048,-0.07331 0.08499,-0.07946 0.06487,-0.0841 0.04455,-0.08718 0.0241,-0.0887 L -7.41482,0.61442 -7.43031,0.36895 -7.43944,0 l 0.00913,-0.36895 0.01549,-0.24547 -0.00465,-0.06659 -0.0241,-0.0887 -0.04455,-0.08718 -0.06487,-0.0841 -0.08499,-0.07946 -0.1048,-0.07331 -0.12422,-0.06562 -0.14316,-0.05645 -0.1615,-0.04583 -0.17919,-0.03375 -0.19611,-0.0203 -0.21221,-0.0055 -0.19287,0.00785 -0.12007,-0.03962 -0.17554,-0.0744 -0.22545,-0.11862 -0.12902,-0.07839 -0.138,-0.09197 -0.14565,-0.10607 -0.15598,-0.12389 -0.16137,-0.13962 -0.16665,-0.15684 -0.17132,-0.17531 -0.17445,-0.19417 -0.17637,-0.2137 -0.158137,-0.208386 a 11.459156,11.459156 0 0 1 0.326828,-1.0058709 l 0.250421,-0.075638 0.268296,-0.069219 0.2552634,-0.054548 0.2416454,-0.041129 0.227011,-0.028932 0.2126176,-0.018104 0.1990112,-0.00855 0.1801797,-2.015e-4 0.165703,0.00671 0.1504558,0.012417 0.252116,0.036551 0.185746,0.042989 0.1204268,0.038522 0.151421,0.1197169 0.1749143,0.1202843 0.1705883,0.098847 0.1648055,0.078021 0.1575945,0.05785 0.1489993,0.038478 0.1390666,0.019927 0.1278755,0.00229 0.1154638,-0.014329 0.1019137,-0.029909 0.087285,-0.044344 0.071634,-0.057594 0.042903,-0.051139 0.131752,-0.2076942 0.209477,-0.3038533 0.2242497,-0.2931204 0.1568153,-0.1894846 0.035379,-0.056606 0.032639,-0.085925 0.015201,-0.096716 -0.00305,-0.1061679 -0.022053,-0.1142404 -0.041694,-0.1209089 -0.061926,-0.1261024 -0.082638,-0.1298163 -0.1037181,-0.1320046 -0.12513,-0.1326296 -0.1467243,-0.1316936 -0.1684486,-0.1291835 -0.1606493,-0.1070153 -0.073851,-0.1026287 -0.098284,-0.1633707 -0.1126698,-0.2284817 -0.058303,-0.1392549 -0.057586,-0.1555197 -0.055487,-0.1714234 -0.05337,-0.1919118 -0.048484,-0.2078059 -0.042634,-0.2248406 -0.035556,-0.2425281 -0.027003,-0.259626 -0.017077,-0.2765546 -0.00545,-0.2615382 a 11.459156,11.459156 0 0 1 0.8556449,-0.6216623 l 0.2470537,0.086002 0.2577421,0.1017009 0.2385747,0.10591 0.2196705,0.1087612 0.2006614,0.1100273 0.1826526,0.1103271 0.1660268,0.1100617 0.1458869,0.1057439 0.130113,0.1028255 0.1144227,0.098482 0.1824822,0.1777601 0.1250035,0.1439576 0.074784,0.1019501 0.052134,0.185856 0.070807,0.2001241 0.079908,0.1802387 0.087471,0.1599905 0.093493,0.1394334 0.097926,0.1187092 0.1007944,0.097863 0.102107,0.077017 0.1018343,0.056276 0.1000297,0.035707 0.09668,0.015429 0.091806,-0.00449 0.064768,-0.016155 0.2286691,-0.090586 0.348071,-0.122695 0.3537136,-0.1053287 0.2382426,-0.061122 0.061894,-0.025 0.076911,-0.05033 0.069146,-0.06931 0.059938,-0.087683 0.049308,-0.1053847 0.037337,-0.1223248 0.024022,-0.1384179 0.00945,-0.1535973 -0.00632,-0.1677579 -0.023275,-0.1808491 -0.041295,-0.1927848 -0.060346,-0.2035232 -0.067066,-0.1810045 5.772e-4,-0.1264366 0.016514,-0.1899394 0.043146,-0.2510713 0.034684,-0.1469291 0.044824,-0.1596661 0.05587,-0.1712988 0.069626,-0.1866303 0.08292,-0.196617 0.097666,-0.206959 0.1137889,-0.217109 0.13075863,-0.225914 0.14873945,-0.233775 0.14932001,-0.214791 a 11.459156,11.459156 0 0 1 1.05763522,0 l 0.14932001,0.214791 0.14873945,0.233775 0.13075863,0.225914 0.1137889,0.217109 0.097666,0.206959 0.08292,0.196617 0.069626,0.1866303 0.05587,0.1712988 0.044824,0.1596661 0.034684,0.1469291 0.043146,0.2510713 0.016514,0.1899394 5.772e-4,0.1264366 -0.067066,0.1810045 -0.060346,0.2035232 -0.041295,0.1927848 -0.023275,0.1808491 -0.00632,0.1677579 0.00945,0.1535973 0.024022,0.1384179 0.037337,0.1223248 0.049308,0.1053847 0.059938,0.087683 0.069146,0.06931 0.076911,0.05033 0.061894,0.025 0.2382426,0.061122 0.3537136,0.1053287 0.348071,0.122695 0.2286691,0.090586 0.064768,0.016155 0.091806,0.00449 0.09668,-0.015429 0.1000297,-0.035707 0.1018343,-0.056276 0.102107,-0.077017 0.1007944,-0.097863 0.097926,-0.1187092 0.093493,-0.1394334 0.087471,-0.1599905 0.079908,-0.1802387 0.070807,-0.2001241 0.052134,-0.185856 0.074784,-0.1019501 0.1250035,-0.1439576 0.1824822,-0.1777601 0.1144227,-0.098482 0.130113,-0.1028255 0.1458869,-0.1057439 0.1660268,-0.1100617 0.1826526,-0.1103271 0.2006614,-0.1100273 0.2196705,-0.1087612 0.2385747,-0.10591 0.2577421,-0.1017009 0.2470537,-0.086002 a 11.459156,11.459156 0 0 1 0.8556449,0.6216623 l -0.00545,0.2615382 -0.017077,0.2765546 -0.027003,0.259626 -0.035556,0.2425281 -0.042634,0.2248406 -0.048484,0.2078059 -0.05337,0.1919118 -0.055487,0.1714234 -0.057586,0.1555197 -0.058303,0.1392549 -0.1126698,0.2284817 -0.098284,0.1633707 -0.073851,0.1026287 -0.1606493,0.1070153 -0.1684486,0.1291835 -0.1467243,0.1316936 -0.12513,0.1326296 -0.1037181,0.1320046 -0.082638,0.1298163 -0.061926,0.1261024 -0.041694,0.1209089 -0.022053,0.1142404 -0.00305,0.1061679 0.015201,0.096716 0.032639,0.085925 0.035379,0.056606 0.1568153,0.1894846 0.2242497,0.2931204 0.209477,0.3038533 0.131752,0.2076942 0.042903,0.051139 0.071634,0.057594 0.087285,0.044344 0.1019137,0.029909 0.1154638,0.014329 0.1278755,-0.00229 0.1390666,-0.019927 0.1489993,-0.038478 0.1575945,-0.05785 0.1648055,-0.078021 0.1705883,-0.098847 0.1749143,-0.1202843 0.151421,-0.1197169 0.1204268,-0.038522 0.185746,-0.042989 0.252116,-0.036551 0.1504558,-0.012417 0.165703,-0.00671 0.1801797,2.015e-4 0.1990112,0.00855 0.2126176,0.018104 0.227011,0.028932 0.2416454,0.041129 0.2552638,0.054548 0.268296,0.069219 0.250421,0.075638 a 11.459156,11.459156 0 0 1 0.326828,1.0058709 l -0.158137,0.208386 -0.17637,0.2137 -0.17445,0.19417 -0.17132,0.17531 -0.16665,0.15684 -0.16137,0.13962 -0.1559804,0.12389 -0.14565,0.10607 -0.138,0.09197 -0.12902,0.07839 -0.22545,0.11862 -0.17554,0.0744 -0.12007,0.03962 -0.19287,-0.00785 -0.21221,0.0055 -0.19611,0.0203 -0.17919,0.03375 -0.1615,0.04583 -0.14316,0.05645 -0.12422,0.06562 -0.1048,0.07331 -0.08499,0.07946 -0.06487,0.0841 -0.04455,0.08718 -0.0241,0.0887 -0.00465,0.06659 0.01549,0.24547 L 7.43944,0 7.43031,0.36895 7.41482,0.61442 l 0.00465,0.06659 0.0241,0.0887 0.04455,0.08718 0.06487,0.0841 0.08499,0.07946 0.1048,0.07331 0.12422,0.06562 0.14316,0.05645 0.1615,0.04583 0.17919,0.03375 0.19611,0.0203 0.21221,0.0055 0.19287,-0.00785 0.12007,0.03962 0.17554,0.0744 0.22545,0.11862 0.12902,0.07839 0.138,0.09197 0.14565,0.10607 0.15598,0.12389 0.16137,0.13962 0.16665,0.15684 0.17132,0.17531 0.17445,0.19417 0.17637,0.2137 0.158137,0.208386 a 11.459156,11.459156 0 0 1 -0.326828,1.0058709 l -0.250421,0.075638 -0.268296,0.069219 -0.2552634,0.054548 -0.2416454,0.041129 -0.227011,0.028932 -0.2126176,0.018104 -0.1990112,0.00855 -0.1801797,2.015e-4 -0.165703,-0.00671 L 8.5726149,4.3174082 8.3204989,4.2808576 8.1347529,4.2378687 8.0143261,4.1993465 7.8629051,4.0796296 7.6879908,3.9593453 7.5174025,3.8604978 7.352597,3.7824769 7.1950025,3.7246268 7.0460032,3.6861485 6.9069366,3.6662215 6.7790611,3.6639315 6.6635973,3.6782605 6.5616836,3.7081695 6.4743986,3.7525135 6.4027646,3.8101075 6.3598616,3.8612465 6.2281096,4.0689407 6.0186326,4.372794 5.7943829,4.6659144 5.6375676,4.855399 5.6021886,4.912005 5.5695496,4.99793 l -0.015201,0.096716 0.00305,0.1061679 0.022053,0.1142404 0.041694,0.1209089 0.061926,0.1261024 0.082638,0.1298163 0.1037181,0.1320046 0.12513,0.1326296 0.1467243,0.1316936 0.1684486,0.1291835 0.1606493,0.1070153 0.073851,0.1026287 0.098284,0.1633707 0.1126698,0.2284817 0.058303,0.1392549 0.057586,0.1555197 0.055487,0.1714234 0.05337,0.1919118 0.048484,0.2078059 0.042634,0.2248406 0.035556,0.2425281 0.027003,0.259626 0.017077,0.2765546 0.00545,0.2615382 A 11.459156,11.459156 0 0 1 6.3004867,9.5715542 L 6.053433,9.4855523 5.7956909,9.3838514 5.5571162,9.2779414 5.3374457,9.1691802 5.1367843,9.0591529 4.9541317,8.9488258 4.7881049,8.8387641 4.642218,8.7330202 4.512105,8.6301947 4.3976823,8.5317132 4.2152001,8.3539531 4.0901966,8.2099955 4.0154121,8.1080454 3.9632778,7.9221894 3.8924705,7.7220653 3.8125627,7.5418266 3.7250918,7.3818361 3.6315986,7.2424027 3.5336726,7.1236935 3.4328782,7.0258309 3.3307712,6.9488143 3.2289369,6.8925385 3.1289072,6.8568317 l -0.09668,-0.015429 -0.091806,0.00449 -0.064768,0.016155 -0.2286691,0.090586 -0.348071,0.122695 -0.3537136,0.1053287 -0.2382426,0.061122 -0.061894,0.025 -0.076911,0.05033 -0.069146,0.06931 -0.059938,0.087683 -0.049308,0.1053847 -0.037337,0.1223248 -0.024022,0.1384179 -0.00945,0.1535973 0.00632,0.1677579 0.023275,0.1808491 0.041295,0.1927848 0.060346,0.2035232 0.067066,0.1810045 -5.772e-4,0.1264366 -0.016514,0.1899394 -0.043146,0.2510713 -0.034684,0.1469291 -0.044824,0.1596661 -0.05587,0.1712988 -0.069626,0.1866301 -0.08292,0.196617 -0.097666,0.206959 -0.1137889,0.217109 -0.13075863,0.225914 -0.14873945,0.233775 -0.14932001,0.214791 a 11.459156,11.459156 0 0 1 -1.05763522,0 l -0.14932001,-0.214791 -0.14873945,-0.233775 -0.13075863,-0.225914 -0.1137889,-0.217109 -0.097666,-0.206959 -0.08292,-0.196617 -0.069626,-0.1866301 -0.05587,-0.1712988 -0.044824,-0.1596661 -0.034684,-0.1469291 -0.043146,-0.2510713 -0.016514,-0.1899394 -5.772e-4,-0.1264366 0.067066,-0.1810045 0.060346,-0.2035232 0.041295,-0.1927848 0.023275,-0.1808491 0.00632,-0.1677579 -0.00945,-0.1535973 -0.024022,-0.1384179 -0.037337,-0.1223248 -0.049308,-0.1053847 -0.059938,-0.087683 -0.069146,-0.06931 -0.076911,-0.05033 -0.061894,-0.025 -0.2382426,-0.061122 -0.3537136,-0.1053287 -0.348071,-0.122695 -0.2286691,-0.090586 -0.064768,-0.016155 -0.091806,-0.00449 -0.09668,0.015429 -0.1000297,0.035707 -0.1018343,0.056276 -0.102107,0.077017 -0.1007944,0.097863 -0.097926,0.1187092 -0.093493,0.1394334 -0.087471,0.1599905 -0.079908,0.1802387 -0.070807,0.2001241 -0.052134,0.185856 -0.074784,0.1019501 -0.1250035,0.1439576 -0.1824822,0.1777601 -0.1144227,0.098482 -0.130113,0.1028255 -0.1458869,0.1057439 -0.1660268,0.1100617 -0.1826526,0.1103271 -0.2006614,0.1100273 -0.2196705,0.1087612 -0.2385747,0.10591 -0.2577421,0.1017009 -0.2470537,0.086002 A 11.459156,11.459156 0 0 1 -7.1561316,8.9498919 Z"
           id="SvgjsPath1613"
           style="font-variation-settings:normal;opacity:1;vector-effect:none;fill:#505050;fill-opacity:1;stroke:#000000;stroke-width:0.1;stroke-linecap:butt;stroke-linejoin:miter;stroke-miterlimit:4;stroke-dasharray:none;stroke-dashoffset:0;stroke-opacity:1;-inkscape-stroke:none;stop-color:#000000;stop-opacity:1" />
        <circle
           cy="0"
           cx="0"
           r="3"
           id="SvgjsCircle1612"
           style="font-variation-settings:normal;opacity:1;vector-effect:none;fill:#ffffff;fill-opacity:1;stroke:#000000;stroke-width:0.1;stroke-linecap:butt;stroke-linejoin:miter;stroke-miterlimit:4;stroke-dasharray:none;stroke-dashoffset:0;stroke-opacity:1;-inkscape-stroke:none;stop-color:#000000;stop-opacity:1" />
        <rect
           style="font-variation-settings:normal;opacity:1;vector-effect:none;fill:#808080;fill-opacity:1;stroke:#000000;stroke-width:0.1;stroke-linecap:butt;stroke-linejoin:miter;stroke-miterlimit:4;stroke-dasharray:none;stroke-dashoffset:0;stroke-opacity:1;-inkscape-stroke:none;stop-color:#000000;stop-opacity:1"
           id="rect2642"
           width="1.4"
           height="2.9000001"
           x="-0.69999999"
           y="-4.3132277"
           rx="0.1"
           ry="0.1" />
      </g>
    </g>
    <g
       id="SvgjsG1614"
       transform="translate(-1.5999674,1.6995821)">
      <g
         fill="none"
         stroke-width="0.1"
         stroke="#000000"
         id="SvgjsG1620">
        <path
           d="m 19.881944,-5.5855081 -0.295336,0.286832 -0.284136,0.2537325 -0.269353,0.2210071 -0.255085,0.191998 -0.23513,0.1620171 -0.215783,0.135737 -0.193286,0.1106084 -0.170408,0.088285 -0.264944,0.1175436 -0.153333,0.053596 -0.251689,0.072678 -0.199069,0.078963 -0.162081,0.087411 -0.06707,0.045948 -0.05773,0.046938 -0.04836,0.047571 -0.03902,0.047833 -0.02968,0.047721 -0.02037,0.047238 -0.0111,0.046388 -0.0019,0.045168 0.0046,0.032852 0.11784,0.6598193 0.09182,0.6639398 0.0058,0.032671 0.01573,0.042381 0.02489,0.040687 0.03397,0.038631 0.04297,0.036213 0.05189,0.033434 0.0607,0.030298 0.06941,0.026802 0.07798,0.022973 0.18116,0.033047 0.213726,0.013583 0.261829,-0.00866 0.162391,0.00359 0.2883,0.029918 0.189348,0.031305 0.218007,0.045466 0.247167,0.062413 0.273687,0.081428 0.301932,0.1037752 0.324464,0.1269555 0.348637,0.1535112 0.369517,0.18152978 0.363988,0.19774729 a 21.008452,21.008452 0 0 1 0,1.26795466 l -0.363988,0.19774729 -0.369517,0.18152978 -0.348637,0.1535112 -0.324464,0.1269555 -0.301932,0.1037752 -0.273687,0.081428 -0.247167,0.062413 -0.218007,0.045466 -0.189348,0.031305 -0.2883,0.029918 -0.162391,0.00359 -0.261829,-0.00866 -0.213726,0.013583 -0.18116,0.033047 -0.07798,0.022973 -0.06941,0.026802 -0.0607,0.030298 -0.05189,0.033434 -0.04297,0.036213 -0.03397,0.038631 -0.02489,0.040687 -0.01573,0.042381 -0.0058,0.032671 -0.09182,0.6639398 -0.11784,0.6598193 -0.0046,0.032852 0.0019,0.045168 0.0111,0.046388 0.02037,0.047238 0.02968,0.047721 0.03902,0.047833 0.04836,0.047571 0.05773,0.046938 0.06707,0.045948 0.162081,0.087411 0.199069,0.078963 0.251689,0.072678 0.153333,0.053596 0.264944,0.1175436 0.170408,0.088285 0.193286,0.1106084 0.215783,0.135737 0.23513,0.1620171 0.255085,0.191998 0.269353,0.2210071 0.284136,0.2537325 0.295336,0.286832 0.285065,0.3005472 A 21.008452,21.008452 0 0 1 19.77519,7.0919518 l -0.40728,0.07559 -0.407528,0.058458 -0.37901,0.038263 -0.347816,0.020477 -0.319222,0.00539 -0.285456,-0.00713 -0.254356,-0.01702 -0.221386,-0.024127 -0.189755,-0.028739 -0.283434,-0.060635 -0.155553,-0.046767 -0.24634,-0.089142 -0.207463,-0.053127 -0.182505,-0.024552 -0.08127,-0.00225 -0.07429,0.00404 -0.06709,0.010059 -0.05968,0.015763 -0.05206,0.021161 -0.04425,0.026243 -0.03625,0.031004 -0.02806,0.035444 -0.01558,0.029291 -0.292498,0.6030692 -0.315967,0.5911112 -0.01454,0.029818 -0.01218,0.043534 -0.0038,0.047547 0.0048,0.051221 0.01348,0.054557 0.02233,0.057549 0.0313,0.060188 0.0404,0.06248 0.04959,0.064424 0.127137,0.1332189 0.164924,0.1366141 0.216912,0.1468969 0.129267,0.098356 0.215653,0.1936628 0.134786,0.1366223 0.149647,0.1649237 0.163276,0.1957741 0.173556,0.226747 0.18327,0.261427 0.187875,0.293424 0.191821,0.329117 0.192245,0.364057 0.178239,0.373928 A 21.008452,21.008452 0 0 1 16.615794,12.85571 L 16.205089,12.80174 15.799443,12.7314 15.427159,12.65067 15.090038,12.56266 14.784773,12.46914 14.515493,12.37415 14.278846,12.27936 14.07575,12.188 l -0.171586,-0.08597 -0.250825,-0.145254 -0.133488,-0.09255 -0.206737,-0.160902 -0.180892,-0.114637 -0.165986,-0.07975 -0.07659,-0.02725 -0.07191,-0.01911 -0.06691,-0.01117 -0.06163,-0.0035 -0.05605,0.004 -0.05019,0.01128 -0.04405,0.01829 -0.03764,0.02504 -0.02386,0.02304 -0.464541,0.483166 -0.483166,0.464541 -0.02304,0.02386 -0.02504,0.03764 -0.01829,0.04405 -0.01128,0.05019 -0.004,0.05605 0.0035,0.06163 0.01117,0.06691 0.01911,0.07191 0.02725,0.07659 0.07975,0.165986 0.114637,0.180892 0.160902,0.206737 0.09255,0.133488 0.145254,0.250825 0.08597,0.171586 0.09136,0.203096 0.09479,0.236647 0.09499,0.26928 0.09352,0.305265 0.08801,0.337121 0.08073,0.372284 0.07034,0.405646 0.05397,0.410705 A 21.008452,21.008452 0 0 1 11.82992,17.361074 L 11.455992,17.182835 11.091935,16.99059 10.762818,16.798769 10.469394,16.610894 10.207967,16.427624 9.9812204,16.254068 9.7854463,16.090792 9.6205226,15.941145 9.4839003,15.806359 9.2902375,15.590706 9.1918816,15.461439 9.0449847,15.244527 8.9083706,15.079603 8.7751517,14.952466 l -0.064424,-0.04959 -0.06248,-0.0404 -0.060188,-0.0313 -0.057549,-0.02233 -0.054557,-0.01348 -0.051221,-0.0048 -0.047547,0.0038 -0.043534,0.01218 -0.029818,0.01454 -0.5911112,0.315967 -0.6030692,0.292498 -0.029291,0.01558 -0.035444,0.02806 -0.031004,0.03625 -0.026243,0.04425 -0.021161,0.05206 -0.015763,0.05968 -0.010059,0.06709 -0.00404,0.07429 0.00225,0.08127 0.024552,0.182505 0.053127,0.207463 0.089142,0.24634 0.046767,0.155553 0.060635,0.283434 0.028739,0.189755 0.024127,0.221386 0.01702,0.254356 0.00713,0.285456 -0.00539,0.319222 -0.020477,0.347816 -0.038263,0.37901 -0.058458,0.407528 -0.07559,0.40728 a 21.008452,21.008452 0 0 1 -1.205904,0.391824 L 5.5855081,19.881944 5.2986761,19.586608 5.0449436,19.302472 4.8239365,19.033119 4.6319385,18.778034 4.4699214,18.542904 4.3341844,18.327121 4.223576,18.133835 4.1352915,17.963427 4.0177479,17.698483 3.9641514,17.54515 l -0.072678,-0.251689 -0.078963,-0.199069 -0.087411,-0.162081 -0.045948,-0.06707 -0.046938,-0.05773 -0.047571,-0.04836 -0.047833,-0.03902 -0.047721,-0.02968 -0.047238,-0.02037 -0.046388,-0.0111 -0.045168,-0.0019 -0.032852,0.0046 -0.6598193,0.11784 -0.6639398,0.09182 -0.032671,0.0058 -0.042381,0.01573 -0.040687,0.02489 -0.038631,0.03397 -0.036213,0.04297 -0.033434,0.05189 -0.030298,0.0607 -0.026802,0.06941 -0.022973,0.07798 -0.033047,0.18116 -0.013583,0.213726 0.00866,0.261829 -0.00359,0.162391 -0.029918,0.2883 -0.031305,0.189348 -0.045466,0.218007 -0.062413,0.247167 -0.081428,0.273687 -0.1037752,0.301932 -0.1269555,0.324464 -0.1535112,0.348637 -0.18152978,0.369517 -0.19774729,0.363988 a 21.008452,21.008452 0 0 1 -1.26795466,0 l -0.19774729,-0.363988 -0.18152978,-0.369517 -0.1535112,-0.348637 -0.1269555,-0.324464 -0.1037752,-0.301932 -0.081428,-0.273687 -0.062413,-0.247167 -0.045466,-0.218007 -0.031305,-0.189348 -0.029918,-0.2883 -0.00359,-0.162391 0.00866,-0.261829 -0.013583,-0.213726 -0.033047,-0.18116 -0.022973,-0.07798 -0.026802,-0.06941 -0.030298,-0.0607 -0.033434,-0.05189 -0.036213,-0.04297 -0.038631,-0.03397 -0.040687,-0.02489 -0.042381,-0.01573 -0.032671,-0.0058 -0.6639398,-0.09182 -0.6598193,-0.11784 -0.032852,-0.0046 -0.045168,0.0019 -0.046388,0.0111 -0.047238,0.02037 -0.047721,0.02968 -0.047833,0.03902 -0.047571,0.04836 -0.046938,0.05773 -0.045948,0.06707 -0.087411,0.162081 -0.078963,0.199069 -0.072678,0.251689 -0.053596,0.153333 -0.1175436,0.264944 -0.088285,0.170408 -0.1106084,0.193286 -0.135737,0.215783 -0.1620171,0.23513 -0.191998,0.255085 -0.2210071,0.269353 -0.2537325,0.284136 -0.286832,0.295336 -0.3005472,0.285065 A 21.008452,21.008452 0 0 1 -7.0919518,19.77519 l -0.07559,-0.40728 -0.058458,-0.407528 -0.038263,-0.37901 -0.020477,-0.347816 -0.00539,-0.319222 0.00713,-0.285456 0.01702,-0.254356 0.024127,-0.221386 0.028739,-0.189755 0.060635,-0.283434 0.046767,-0.155553 0.089142,-0.24634 0.053127,-0.207463 0.024552,-0.182505 0.00225,-0.08127 -0.00404,-0.07429 -0.010059,-0.06709 -0.015763,-0.05968 -0.021161,-0.05206 -0.026243,-0.04425 -0.031004,-0.03625 -0.035444,-0.02806 -0.029291,-0.01558 -0.6030692,-0.292498 -0.5911112,-0.315967 -0.029818,-0.01454 -0.043534,-0.01218 -0.047547,-0.0038 -0.051221,0.0048 -0.054557,0.01348 -0.057549,0.02233 -0.060188,0.0313 -0.06248,0.0404 -0.064424,0.04959 -0.1332189,0.127137 -0.1366141,0.164924 -0.1468969,0.216912 -0.098356,0.129267 -0.1936628,0.215653 -0.1366223,0.134786 -0.1649237,0.149647 -0.1957741,0.163276 -0.226747,0.173556 -0.261427,0.18327 -0.293424,0.187875 -0.329117,0.191821 -0.364057,0.192245 -0.373928,0.178239 a 21.008452,21.008452 0 0 1 -1.025797,-0.745285 l 0.05397,-0.410705 0.07034,-0.405646 0.08073,-0.372284 0.08801,-0.337121 0.09352,-0.305265 0.09499,-0.26928 0.09479,-0.236647 0.09136,-0.203096 0.08597,-0.171586 0.145254,-0.250825 0.09255,-0.133488 0.160902,-0.206737 0.114637,-0.180892 0.07975,-0.165986 0.02725,-0.07659 0.01911,-0.07191 0.01117,-0.06691 0.0035,-0.06163 -0.004,-0.05605 -0.01128,-0.05019 -0.01829,-0.04405 -0.02504,-0.03764 -0.02304,-0.02386 -0.483166,-0.464541 -0.464541,-0.483166 -0.02386,-0.02304 -0.03764,-0.02504 -0.04405,-0.01829 -0.05019,-0.01128 -0.05605,-0.004 -0.06163,0.0035 -0.06691,0.01117 -0.07191,0.01911 -0.07659,0.02725 -0.165986,0.07975 -0.180892,0.114637 -0.206737,0.160902 -0.133488,0.09255 -0.250825,0.145254 -0.171586,0.08597 -0.203096,0.09136 -0.236647,0.09479 -0.26928,0.09499 -0.305265,0.09352 -0.337121,0.08801 -0.372284,0.08073 -0.405646,0.07034 -0.410705,0.05397 a 21.008452,21.008452 0 0 1 -0.745285,-1.025797 l 0.178239,-0.373928 0.192245,-0.364057 0.191821,-0.329117 0.187875,-0.293424 0.18327,-0.261427 0.173556,-0.2267466 0.163276,-0.1957741 0.149647,-0.1649237 0.134786,-0.1366223 0.215653,-0.1936628 0.129267,-0.098356 0.216912,-0.1468969 0.164924,-0.1366141 0.127137,-0.1332189 0.04959,-0.064424 0.0404,-0.06248 0.0313,-0.060188 0.02233,-0.057549 0.01348,-0.054557 0.0048,-0.051221 -0.0038,-0.047547 -0.01218,-0.043534 -0.01454,-0.029818 -0.315967,-0.5911112 -0.292498,-0.6030692 -0.01558,-0.029291 -0.02806,-0.035444 -0.03625,-0.031004 -0.04425,-0.026243 -0.05206,-0.021161 -0.05968,-0.015763 -0.06709,-0.010059 -0.07429,-0.00404 -0.08127,0.00225 -0.182505,0.024552 -0.207463,0.053127 -0.24634,0.089142 -0.155553,0.046767 -0.283434,0.060635 -0.189755,0.028739 -0.221386,0.024127 -0.254356,0.01702 -0.285456,0.00713 -0.319222,-0.00539 -0.347816,-0.020477 -0.37901,-0.038263 -0.407528,-0.058458 -0.40728,-0.07559 a 21.008452,21.008452 0 0 1 -0.391819,-1.2058965 l 0.285065,-0.3005472 0.295336,-0.286832 0.284136,-0.2537325 0.269353,-0.2210071 0.255085,-0.191998 0.23513,-0.1620171 0.215783,-0.135737 0.193286,-0.1106084 0.170408,-0.088285 0.264944,-0.1175436 0.153333,-0.053596 0.251689,-0.072678 0.199069,-0.078963 0.162081,-0.087411 0.06707,-0.045948 0.05773,-0.046938 0.04836,-0.047571 0.03902,-0.047833 0.02968,-0.047721 0.02037,-0.047238 0.0111,-0.046388 0.0019,-0.045168 -0.0046,-0.032852 -0.11784,-0.6598193 -0.09182,-0.6639398 -0.0058,-0.032671 -0.01573,-0.042381 -0.02489,-0.040687 -0.03397,-0.038631 -0.04297,-0.036213 -0.05189,-0.033434 -0.0607,-0.030298 -0.06941,-0.026802 -0.07798,-0.022973 -0.18116,-0.033047 -0.213726,-0.013583 -0.261829,0.00866 -0.162391,-0.00359 -0.2883,-0.029918 -0.189348,-0.031305 -0.218007,-0.045466 -0.247167,-0.062413 -0.273687,-0.081428 -0.301932,-0.1037752 -0.324464,-0.1269555 -0.348637,-0.1535112 -0.369517,-0.18152978 -0.363988,-0.19774729 a 21.008452,21.008452 0 0 1 0,-1.26795466 l 0.363988,-0.19774729 0.369517,-0.18152978 0.348637,-0.1535112 0.324464,-0.1269555 0.301932,-0.1037752 0.273687,-0.081428 0.247167,-0.062413 0.218007,-0.045466 0.189348,-0.031305 0.2883,-0.029918 0.162391,-0.00359 0.261829,0.00866 0.213726,-0.013583 0.18116,-0.033047 0.07798,-0.022973 0.06941,-0.026802 0.0607,-0.030298 0.05189,-0.033434 0.04297,-0.036213 0.03397,-0.038631 0.02489,-0.040687 0.01573,-0.042381 0.0058,-0.032671 0.09182,-0.6639398 0.11784,-0.6598193 0.0046,-0.032852 -0.0019,-0.045168 -0.0111,-0.046388 -0.02037,-0.047238 -0.02968,-0.047721 -0.03902,-0.047833 -0.04836,-0.047571 -0.05773,-0.046938 -0.06707,-0.045948 -0.162081,-0.087411 -0.199069,-0.078963 -0.251689,-0.072678 -0.153333,-0.053596 -0.264944,-0.1175436 -0.170408,-0.088285 -0.193286,-0.1106084 -0.215783,-0.135737 -0.23513,-0.1620171 -0.255085,-0.191998 -0.269353,-0.2210071 -0.284136,-0.2537325 -0.295336,-0.286832 -0.285065,-0.3005472 a 21.008452,21.008452 0 0 1 0.391819,-1.2058965 l 0.40728,-0.07559 0.407528,-0.058458 0.37901,-0.038263 0.347816,-0.020477 0.319222,-0.00539 0.285456,0.00713 0.254356,0.01702 0.221386,0.024127 0.189755,0.028739 0.283434,0.060635 0.155553,0.046767 0.24634,0.089142 0.207463,0.053127 0.182505,0.024552 0.08127,0.00225 0.07429,-0.00404 0.06709,-0.010059 0.05968,-0.015763 0.05206,-0.021161 0.04425,-0.026243 0.03625,-0.031004 0.02806,-0.035444 0.01558,-0.029291 0.292498,-0.6030692 0.315967,-0.5911112 0.01454,-0.029818 0.01218,-0.043534 0.0038,-0.047547 -0.0048,-0.051221 -0.01348,-0.054557 -0.02233,-0.057549 -0.0313,-0.060188 -0.0404,-0.06248 -0.04959,-0.064424 -0.127137,-0.1332189 -0.164924,-0.1366141 -0.216912,-0.1468969 -0.129267,-0.098356 -0.215653,-0.1936628 -0.134786,-0.1366223 -0.149647,-0.1649237 -0.163276,-0.1957741 -0.173556,-0.2267464 -0.18327,-0.261427 -0.187875,-0.293424 -0.191821,-0.329117 -0.192245,-0.364057 -0.178239,-0.373928 a 21.008452,21.008452 0 0 1 0.745285,-1.025797 l 0.410705,0.05397 0.405646,0.07034 0.372284,0.08073 0.337121,0.08801 0.305265,0.09352 0.26928,0.09499 0.236647,0.09479 0.203096,0.09136 0.171586,0.08597 0.250825,0.145254 0.133488,0.09255 0.206737,0.160902 0.180892,0.114637 0.165986,0.07975 0.07659,0.02725 0.07191,0.01911 0.06691,0.01117 0.06163,0.0035 0.05605,-0.004 0.05019,-0.01128 0.04405,-0.01829 0.03764,-0.02504 0.02386,-0.02304 0.464541,-0.483166 0.483166,-0.464541 0.02304,-0.02386 0.02504,-0.03764 0.01829,-0.04405 0.01128,-0.05019 0.004,-0.05605 -0.0035,-0.06163 -0.01117,-0.06691 -0.01911,-0.07191 -0.02725,-0.07659 -0.07975,-0.165986 -0.114637,-0.180892 -0.160902,-0.206737 -0.09255,-0.133488 -0.145254,-0.250825 -0.08597,-0.171586 -0.09136,-0.203096 -0.09479,-0.236647 -0.09499,-0.26928 -0.09352,-0.305265 -0.08801,-0.337121 -0.08073,-0.372284 -0.07034,-0.405646 -0.05397,-0.410705 a 21.008452,21.008452 0 0 1 1.025797,-0.745285 l 0.373928,0.178239 0.364057,0.192245 0.329117,0.191821 0.293424,0.187875 0.261427,0.18327 0.226747,0.173556 0.1957741,0.163276 0.1649237,0.149647 0.1366223,0.134786 0.1936628,0.215653 0.098356,0.129267 0.1468969,0.216912 0.1366141,0.164924 0.1332189,0.127137 0.064424,0.04959 0.06248,0.0404 0.060188,0.0313 0.057549,0.02233 0.054557,0.01348 0.051221,0.0048 0.047547,-0.0038 0.043534,-0.01218 0.029818,-0.01454 0.5911112,-0.315967 0.6030692,-0.292498 0.029291,-0.01558 0.035444,-0.02806 0.031004,-0.03625 0.026243,-0.04425 0.021161,-0.05206 0.015763,-0.05968 0.010059,-0.06709 0.00404,-0.07429 -0.00225,-0.08127 -0.024552,-0.182505 -0.053127,-0.207463 -0.089142,-0.24634 -0.046767,-0.155553 -0.060635,-0.283434 -0.028739,-0.189755 -0.024127,-0.221386 -0.01702,-0.254356 -0.00713,-0.285456 0.00539,-0.319222 0.020477,-0.347816 0.038263,-0.37901 0.058458,-0.407528 0.07559,-0.40728 a 21.008452,21.008452 0 0 1 1.2058965,-0.391819 l 0.3005472,0.285065 0.286832,0.295336 0.2537325,0.284136 0.2210071,0.269353 0.191998,0.255085 0.1620171,0.23513 0.135737,0.215783 0.1106084,0.193286 0.088285,0.170408 0.1175436,0.264944 0.053596,0.153333 0.072678,0.251689 0.078963,0.199069 0.087411,0.162081 0.045948,0.06707 0.046938,0.05773 0.047571,0.04836 0.047833,0.03902 0.047721,0.02968 0.047238,0.02037 0.046388,0.0111 0.045168,0.0019 0.032852,-0.0046 0.6598193,-0.11784 0.6639398,-0.09182 0.032671,-0.0058 0.042381,-0.01573 0.040687,-0.02489 0.038631,-0.03397 0.036213,-0.04297 0.033434,-0.05189 0.030298,-0.0607 0.026802,-0.06941 0.022973,-0.07798 0.033047,-0.18116 0.013583,-0.213726 -0.00866,-0.261829 0.00359,-0.162391 0.029918,-0.2883 0.031305,-0.189348 0.045466,-0.218007 0.062413,-0.247167 0.081428,-0.273687 0.1037752,-0.301932 0.1269555,-0.324464 0.1535112,-0.348637 0.18152978,-0.369517 0.19774729,-0.363988 a 21.008452,21.008452 0 0 1 1.26795466,0 l 0.19774729,0.363988 0.18152978,0.369517 0.1535112,0.348637 0.1269555,0.324464 0.1037752,0.301932 0.081428,0.273687 0.062413,0.247167 0.045466,0.218007 0.031305,0.189348 0.029918,0.2883 0.00359,0.162391 -0.00866,0.261829 0.013583,0.213726 0.033047,0.18116 0.022973,0.07798 0.026802,0.06941 0.030298,0.0607 0.033434,0.05189 0.036213,0.04297 0.038631,0.03397 0.040687,0.02489 0.042381,0.01573 0.032671,0.0058 0.6639398,0.09182 0.6598193,0.11784 0.032852,0.0046 0.045168,-0.0019 0.046388,-0.0111 0.047238,-0.02037 0.047721,-0.02968 0.047833,-0.03902 0.047571,-0.04836 0.046938,-0.05773 0.045948,-0.06707 0.087411,-0.162081 0.078963,-0.199069 0.072678,-0.251689 0.053596,-0.153333 0.1175436,-0.264944 0.088285,-0.170408 0.1106084,-0.193286 0.135737,-0.215783 0.1620171,-0.23513 0.191998,-0.255085 0.2210071,-0.269353 0.2537325,-0.284136 0.286832,-0.295336 0.3005472,-0.285065 a 21.008452,21.008452 0 0 1 1.2058965,0.391819 l 0.07559,0.40728 0.058458,0.407528 0.038263,0.37901 0.020477,0.347816 0.00539,0.319222 -0.00713,0.285456 -0.01702,0.254356 -0.024127,0.221386 -0.028739,0.189755 -0.060635,0.283434 -0.046767,0.155553 -0.089142,0.24634 -0.053127,0.207463 -0.024552,0.182505 -0.00225,0.08127 0.00404,0.07429 0.010059,0.06709 0.015763,0.05968 0.021161,0.05206 0.026243,0.04425 0.031004,0.03625 0.035444,0.02806 0.029291,0.01558 0.6030692,0.292498 0.5911112,0.315967 0.029818,0.01454 0.043534,0.01218 0.047547,0.0038 0.051221,-0.0048 0.054557,-0.01348 0.057549,-0.02233 0.060188,-0.0313 0.06248,-0.0404 0.064424,-0.04959 0.1332189,-0.127137 0.1366141,-0.164924 0.1468969,-0.216912 0.098356,-0.129267 0.1936628,-0.215653 0.1366223,-0.134786 0.1649237,-0.149647 0.1957741,-0.163276 0.226747,-0.173556 0.261427,-0.18327 0.293424,-0.187875 0.329117,-0.191821 0.364057,-0.192245 0.373928,-0.178239 a 21.008452,21.008452 0 0 1 1.025797,0.745285 l -0.05397,0.410705 -0.07034,0.405646 -0.08073,0.372284 -0.08801,0.337121 -0.09352,0.305265 -0.09499,0.26928 -0.09479,0.236647 -0.09136,0.203096 -0.08597,0.171586 -0.145254,0.250825 -0.09255,0.133488 -0.160902,0.206737 -0.114637,0.180892 -0.07975,0.165986 -0.02725,0.07659 -0.01911,0.07191 -0.01117,0.06691 -0.0035,0.06163 0.004,0.05605 0.01128,0.05019 0.01829,0.04405 0.02504,0.03764 0.02304,0.02386 0.483166,0.464541 0.464541,0.483166 0.02386,0.02304 0.03764,0.02504 0.04405,0.01829 0.05019,0.01128 0.05605,0.004 0.06163,-0.0035 0.06691,-0.01117 0.07191,-0.01911 0.07659,-0.02725 0.165986,-0.07975 0.180892,-0.114637 0.206737,-0.160902 0.133488,-0.09255 0.250825,-0.145254 0.171586,-0.08597 0.203096,-0.09136 0.236647,-0.09479 0.26928,-0.09499 0.305265,-0.09352 0.337121,-0.08801 0.372284,-0.08073 0.405646,-0.07034 0.410705,-0.05397 a 21.008452,21.008452 0 0 1 0.745285,1.025797 l -0.178239,0.373928 -0.192245,0.364057 -0.191821,0.329117 -0.187875,0.293424 -0.18327,0.261427 -0.173556,0.2267464 -0.163276,0.1957741 -0.149647,0.1649237 -0.134786,0.1366223 -0.215653,0.1936628 -0.129267,0.098356 -0.216912,0.1468969 -0.164924,0.1366141 -0.127137,0.1332189 -0.04959,0.064424 -0.0404,0.06248 -0.0313,0.060188 -0.02233,0.057549 -0.01348,0.054557 -0.0048,0.051221 0.0038,0.047547 0.01218,0.043534 0.01454,0.029818 0.315967,0.5911112 0.292498,0.6030692 0.01558,0.029291 0.02806,0.035444 0.03625,0.031004 0.04425,0.026243 0.05206,0.021161 0.05968,0.015763 0.06709,0.010059 0.07429,0.00404 0.08127,-0.00225 0.182505,-0.024552 0.207463,-0.053127 0.24634,-0.089142 0.155553,-0.046767 0.283434,-0.060635 0.189755,-0.028739 0.221386,-0.024127 0.254356,-0.01702 0.285456,-0.00713 0.319222,0.00539 0.347816,0.020477 0.37901,0.038263 0.407528,0.058458 0.40728,0.07559 a 21.008452,21.008452 0 0 1 0.391819,1.2058965 z"
           id="SvgjsPath1622"
           style="font-variation-settings:normal;opacity:1;fill:#808080;fill-opacity:1;stroke:#000000;stroke-width:0.1;stroke-linecap:butt;stroke-linejoin:miter;stroke-miterlimit:4;stroke-dasharray:none;stroke-dashoffset:0;stroke-opacity:1;stop-color:#000000;stop-opacity:1" />
        <circle
           style="font-variation-settings:normal;opacity:1;vector-effect:none;fill:#969696;fill-opacity:1;stroke:#000000;stroke-width:0.1;stroke-linecap:butt;stroke-linejoin:miter;stroke-miterlimit:4;stroke-dasharray:none;stroke-dashoffset:0;stroke-opacity:1;-inkscape-stroke:none;stop-color:#000000;stop-opacity:1"
           id="path2159"
           cx="3.5527137e-15"
           cy="3.5527137e-15"
           r="14.95" />
        <circle
           id="SvgjsCircle1621"
           style="font-variation-settings:normal;opacity:1;vector-effect:none;fill:#ffffff;fill-opacity:1;stroke:#000000;stroke-width:0.1;stroke-linecap:butt;stroke-linejoin:miter;stroke-miterlimit:4;stroke-dasharray:none;stroke-dashoffset:0;stroke-opacity:1;-inkscape-stroke:none;stop-color:#000000;stop-opacity:1"
           cx="0"
           cy="0"
           r="3" />
        <rect
           style="font-variation-settings:normal;opacity:1;vector-effect:none;fill:#808080;fill-opacity:1;stroke:#000000;stroke-width:0.1;stroke-linecap:butt;stroke-linejoin:miter;stroke-miterlimit:4;stroke-dasharray:none;stroke-dashoffset:0;stroke-opacity:1;-inkscape-stroke:none;stop-color:#000000;stop-opacity:1"
           id="rect2412"
           width="1.4"
           height="2.9000001"
           x="-0.69999999"
           y="-4.3132277"
           rx="0.1"
           ry="0.1" />
      </g>
    </g>
    <g
       id="g344"
       inkscape:label="Sentido_giro"
       style="display:inline">
      <path
         style="fill:none;stroke:#000000;stroke-width:0.4;stroke-linecap:round;stroke-linejoin:round;stroke-miterlimit:4;stroke-dasharray:none;stroke-opacity:1;marker-end:url(#Arrow2Lend);stop-color:#000000"
         id="path856"
         sodipodi:type="arc"
         sodipodi:cx="-1.5999676"
         sodipodi:cy="1.6995819"
         sodipodi:rx="24"
         sodipodi:ry="24"
         sodipodi:start="4.1573743"
         sodipodi:end="5.6199602"
         sodipodi:arc-type="arc"
         d="m -14.246906,-18.697843 a 24,24 0 0 1 31.559197,5.62155"
         sodipodi:open="true" />
      <path
         style="fill:none;stroke:#000000;stroke-width:0.4;stroke-linecap:round;stroke-linejoin:round;stroke-miterlimit:4;stroke-dasharray:none;stroke-opacity:1;marker-start:url(#Arrow2Lstart);stop-color:#000000"
         id="path1449"
         sodipodi:type="arc"
         sodipodi:cx="27.047916"
         sodipodi:cy="1.6995819"
         sodipodi:rx="15"
         sodipodi:ry="15"
         sodipodi:start="4.3633231"
         sodipodi:end="6.1086524"
         sodipodi:arc-type="arc"
         d="m 21.917614,-12.395807 a 15,15 0 0 1 12.630302,1.105008 15,15 0 0 1 7.272117,10.38565846"
         sodipodi:open="true" />
    </g>
  </g>
</svg>
