<?xml version="1.0" encoding="UTF-8" standalone="no"?>
<!DOCTYPE svg PUBLIC "-//W3C//DTD SVG 1.1//EN"
"http://www.w3.org/Graphics/SVG/1.1/DTD/svg11.dtd">
<svg viewBox="0 0 909 1286" version="1.1" xmlns="http://www.w3.org/2000/svg" xmlns:xlink="http://www.w3.org/1999/xlink">
<defs>
<style type="text/css"><![CDATA[
.g0_1{
fill: #FFFFFF;
}
.g1_1{
fill: none;
stroke: #231F20;
stroke-width: 0.33;
stroke-linecap: butt;
stroke-linejoin: miter;
stroke-miterlimit: 22;
}
.g2_1{
fill: #231F20;
}
.g3_1{
fill: none;
stroke: #000000;
stroke-width: 0.693;
stroke-linecap: round;
stroke-linejoin: round;
}
.g4_1{
}
.g5_1{
fill: none;
stroke: #000000;
stroke-width: 0.346;
stroke-linecap: round;
stroke-linejoin: round;
}
.g6_1{
fill: #DDDDDD;
}
.g7_1{
stroke: #000000;
stroke-width: 0.693;
stroke-linecap: round;
stroke-linejoin: round;
}
.g8_1{
stroke: #000000;
stroke-width: 1.472;
stroke-linecap: round;
stroke-linejoin: round;
}
.g9_1{
fill: none;
stroke: #000000;
stroke-width: 0.693;
stroke-linecap: round;
stroke-linejoin: round;
stroke-dasharray: 12,5;
}
.ga_1{
fill: #FFFFFF;
stroke: #FFFFFF;
stroke-width: 0.33;
stroke-linecap: butt;
stroke-linejoin: miter;
stroke-miterlimit: 22;
}
.gb_1{
fill: none;
stroke: #231F20;
stroke-width: 0.152;
stroke-linecap: butt;
stroke-linejoin: miter;
stroke-miterlimit: 22;
}
]]></style>
</defs>
<path fill-rule="evenodd" d="M515.7,234.1h9.1v8.6h-9.1v-8.6Z" class="g0_1"/>
<path fill-rule="evenodd" d="M578.5,857.6h72.7v24.5H578.5V857.6Z" class="g0_1"/>
<path d="M97.8,542.9V780.7" class="g1_1"/>
<path fill-rule="evenodd" d="M97.8,542.9h1.5V780.7H97.8V542.9Z" class="g2_1"/>
<path d="M418.6,544.4V780.7" class="g1_1"/>
<path fill-rule="evenodd" d="M418.6,544.4H420V780.7h-1.4V544.4Z" class="g2_1"/>
<path d="M501,544.4V780.7" class="g1_1"/>
<path fill-rule="evenodd" d="M501,544.4h1.5V780.7H501V544.4Z" class="g2_1"/>
<path d="M605.3,544.4V780.7" class="g1_1"/>
<path fill-rule="evenodd" d="M605.3,544.4h1.5V780.7h-1.5V544.4Z" class="g2_1"/>
<path d="M687.8,544.4V780.7" class="g1_1"/>
<path fill-rule="evenodd" d="M687.8,544.4h1.5V780.7h-1.5V544.4Z" class="g2_1"/>
<path d="M99.3,542.9h590" class="g1_1"/>
<path fill-rule="evenodd" d="M99.3,542.9h590v1.5H99.3v-1.5Z" class="g2_1"/>
<path d="M99.3,565.2h590" class="g1_1"/>
<path fill-rule="evenodd" d="M99.3,565.2h590v1.5H99.3v-1.5Z" class="g2_1"/>
<path d="M99.3,622.8h590" class="g1_1"/>
<path fill-rule="evenodd" d="M99.3,622.8h590v1.4H99.3v-1.4Z" class="g2_1"/>
<path d="M99.3,645.1h590" class="g1_1"/>
<path fill-rule="evenodd" d="M99.3,645.1h590v1.5H99.3v-1.5Z" class="g2_1"/>
<path d="M99.3,667.5h590" class="g1_1"/>
<path fill-rule="evenodd" d="M99.3,667.5h590v1.4H99.3v-1.4Z" class="g2_1"/>
<path d="M99.3,689.8h590" class="g1_1"/>
<path fill-rule="evenodd" d="M99.3,689.8h590v1.5H99.3v-1.5Z" class="g2_1"/>
<path d="M99.3,712.2h590" class="g1_1"/>
<path fill-rule="evenodd" d="M99.3,712.2h590v1.5H99.3v-1.5Z" class="g2_1"/>
<path d="M99.3,734.5h590" class="g1_1"/>
<path fill-rule="evenodd" d="M99.3,734.5h590V736H99.3v-1.5Z" class="g2_1"/>
<path d="M99.3,756.9h590" class="g1_1"/>
<path fill-rule="evenodd" d="M99.3,756.9h590v1.5H99.3v-1.5Z" class="g2_1"/>
<path d="M99.3,779.2h590" class="g1_1"/>
<path fill-rule="evenodd" d="M99.3,779.2h590v1.5H99.3v-1.5Z" class="g2_1"/>
<path d="M441.8,401.1H453m0,0v-8.9m0,0H441.8m0,0v8.9m0,16.1H453m0,0v-8.9m0,0H441.8m0,0v8.9m0,15.8H453m0,0v-8.9m0,0H441.8m0,0V433m0,16.5H453m0,0v-8.9m0,0H441.8m0,0v8.9M388.9,401.1h9.9m0,0v-8.9m0,0h-9.9m0,0v8.9m0,16.1h9.9m0,0v-8.9m0,0h-9.9m0,0v8.9m0,15.8h9.9m0,0v-8.9m0,0h-9.9m0,0V433m0,16.5h9.9m0,0v-8.9m0,0h-9.9m0,0v8.9" class="g3_1"/>
<path fill-rule="evenodd" d="M445.4,455.4V382.7H425.3c0,3.3,-2,6,-4.4,6c-2.5,0,-4.5,-2.7,-4.5,-6h-20v72.7Z" class="g0_1"/>
<path d="M445.4,455.4V382.7H425.3c0,3.3,-2,6,-4.4,6c-2.5,0,-4.5,-2.7,-4.5,-6h-20v72.7h49Zm0,-43H425.3m0,0v25.2m0,0h1.3M396.4,396.1h20m0,0v25.1m0,0h-1.1M441,448.7L426.6,437.6m0,0L441,426.5m0,0v22.2m4.4,-20H441m4.4,17.8H441M396.4,430.2h4.5m0,2.1l14.4,-11.1m0,0l-14.4,-11m0,0v22.1m-4.6,-19.7h4.5" class="g3_1"/>
<path fill-rule="evenodd" d="M380.9,421.2c.2,-.1,.4,-.2,.5,-.3c.6,-.5,.9,-1.3,.9,-2.5h1c0,.4,-.1,.8,-.3,1.2c-.3,.8,-.9,1.4,-1.6,1.6c.7,.2,1.3,.8,1.6,1.6c.2,.4,.3,.8,.3,1.3V424h-1c0,-1.2,-.3,-2.1,-.9,-2.5c-.1,-.2,-.3,-.2,-.5,-.3Z" class="g4_1"/>
<path d="M380.9,421.2c.2,-.1,.4,-.2,.5,-.3c.6,-.5,.9,-1.3,.9,-2.5m1,0c0,.4,-.1,.8,-.3,1.2c-.3,.8,-.9,1.4,-1.6,1.6c.7,.2,1.3,.8,1.6,1.6c.2,.4,.3,.8,.3,1.3m-1,-.1c0,-1.2,-.3,-2.1,-.9,-2.5c-.1,-.2,-.3,-.2,-.5,-.3" class="g5_1"/>
<path fill-rule="evenodd" d="M383.3,418.4h-1v-9h1Z" class="g4_1"/>
<path d="M382.3,418.4v-9m1,0v9" class="g5_1"/>
<path fill-rule="evenodd" d="M383.3,424h-1v9h1Z" class="g4_1"/>
<path d="M382.3,424v9m1,0v-9" class="g5_1"/>
<path fill-rule="evenodd" d="M384.7,406.6c-.7,-.3,-1.7,.4,-2.2,1.5c-.1,.5,-.2,.9,-.2,1.3h1c0,-1.2,.3,-2.1,.9,-2.5c.1,-.1,.3,-.2,.5,-.3Z" class="g4_1"/>
<path d="M384.7,406.6c-.7,-.3,-1.7,.4,-2.2,1.5c-.1,.5,-.2,.9,-.2,1.3m1,0c0,-1.2,.3,-2.1,.9,-2.5c.1,-.1,.3,-.2,.5,-.3" class="g5_1"/>
<path fill-rule="evenodd" d="M384.7,435.8c-.7,.3,-1.7,-.4,-2.2,-1.5c-.1,-.5,-.2,-.9,-.2,-1.3h1c0,1.2,.3,2.1,.9,2.5c.1,.1,.3,.2,.5,.3Z" class="g4_1"/>
<path d="M384.7,435.8c-.7,.3,-1.7,-.4,-2.2,-1.5c-.1,-.5,-.2,-.9,-.2,-1.3m1,0c0,1.2,.3,2.1,.9,2.5c.1,.1,.3,.2,.5,.3" class="g5_1"/>
<path fill-rule="evenodd" d="M462.7,435.7c-.2,0,-.4,.1,-.6,.2c-.6,.5,-.9,1.4,-.8,2.6h-1c0,-.4,.1,-.8,.2,-1.2c.4,-.8,1,-1.4,1.6,-1.6c-.6,-.2,-1.2,-.8,-1.6,-1.7c-.1,-.3,-.2,-.8,-.3,-1.1h1.1c-.1,1.2,.2,2,.8,2.5c.2,.1,.4,.2,.6,.2Z" class="g4_1"/>
<path d="M462.7,435.7c-.2,0,-.4,.1,-.6,.2c-.6,.5,-.9,1.4,-.8,2.6m-1,0c0,-.4,.1,-.8,.2,-1.2c.4,-.8,1,-1.4,1.6,-1.6c-.6,-.2,-1.2,-.8,-1.6,-1.7c-.1,-.3,-.2,-.8,-.3,-1.1m1.1,0c-.1,1.2,.2,2,.8,2.5c.2,.1,.4,.2,.6,.2" class="g5_1"/>
<path fill-rule="evenodd" d="M460.3,438.5h1v8.9h-1Z" class="g4_1"/>
<path d="M461.3,438.5v8.9m-1,0v-8.9" class="g5_1"/>
<path fill-rule="evenodd" d="M460.3,432.9l1,-.1v-9h-1Z" class="g4_1"/>
<path d="M461.3,432.8v-9m-1,0v9.1" class="g5_1"/>
<path fill-rule="evenodd" d="M458.8,450.2c.8,.3,1.7,-.4,2.2,-1.5c.2,-.4,.3,-.9,.3,-1.3h-1c0,1.2,-.3,2.1,-.9,2.5c-.2,.2,-.4,.3,-.6,.3Z" class="g4_1"/>
<path d="M458.8,450.2c.8,.3,1.7,-.4,2.2,-1.5c.2,-.4,.3,-.9,.3,-1.3m-1,0c0,1.2,-.3,2.1,-.9,2.5c-.2,.2,-.4,.3,-.6,.3" class="g5_1"/>
<path fill-rule="evenodd" d="M458.8,421c.8,-.3,1.7,.4,2.2,1.6c.2,.4,.3,.8,.3,1.2h-1c0,-1.2,-.3,-2,-.9,-2.5c-.2,-.1,-.4,-.2,-.6,-.3Z" class="g4_1"/>
<path d="M458.8,421c.8,-.3,1.7,.4,2.2,1.6c.2,.4,.3,.8,.3,1.2m-1,0c0,-1.2,-.3,-2,-.9,-2.5c-.2,-.1,-.4,-.2,-.6,-.3" class="g5_1"/>
<path d="M576.6,882.5h72.6V858H576.6v24.5Z" class="g0_1"/>
<path fill-rule="evenodd" d="M576.3,1164.3h65.8V896.1H576.3Z" class="g6_1"/>
<path d="M583.5,896.1v31.1m0,9.7v39.2m9.4,-51.3v15.9m-451,82.6h135m100.8,69.4v71.6m-122.6,-61l12.2,-6.1" class="g3_1"/>
<path fill-rule="evenodd" d="M267.3,1084.5l-5.1,-1.3l1.1,-2l4,3.3Z" class="g7_1"/>
<path d="M263.3,1081.2l1.2,2.5m-2.3,-.5l2.9,-.5m2.2,1.8l-12.2,-6.1m12.8,21.4v-17.7M531,1171.7V1108m-141.2,63.7H531M337.8,1143H316.7M203,1142.4h16.9m144.3,-11.5v-23.5m-207.7,25.2v31.7M569.1,1120h-10m-12.5,-12H531m-275.9,-4.7H245m32.3,-12.4h-8.8m327.9,-7h29.3m-312.3,-3v44.7M232.8,1074h22.1m-52.4,-.6H179.9m52.4,-9.1v9.7m-29.8,-9.7v9.1m9,-14.4v83.4m21.3,-82.5H222.4m-19.6,-.6l8.7,-.3m43.4,-8.2v27.6m-9.3,-27.6h9.3m-75,-.3v27.9m10.5,-27.9H179.9m238.6,-28.2V997.7M220.9,970.6v15.9M398.8,973h20m185.8,-9.1H583.5m0,-36.4h8.9m33.9,-31.7v80.3M544.7,890v132.3" class="g3_1"/>
<path fill-rule="evenodd" d="M597.6,934.5l-4.7,-2l4.7,-2v4Z" class="g7_1"/>
<path d="M307.9,927.8v166.7m-151.4,38.1l12.3,-6.1" class="g3_1"/>
<path fill-rule="evenodd" d="M168.8,1113.8l-5.3,-1.3l1.2,-2l4.1,3.3Z" class="g7_1"/>
<path d="M164.7,1110.5l1.2,2.5m-2.4,-.5l3,-.5m2.3,1.8l-12.3,-6.1m12.9,21.4v-17.7M156.5,986.5v121.2m-16,-16.8h27" class="g3_1"/>
<path fill-rule="evenodd" d="M167.6,1084.5l5.3,-1.3l-1.1,-2l-4.2,3.3Z" class="g7_1"/>
<path d="M171.8,1081.2l-1.3,2.5m2.4,-.5l-2.9,-.5m-2.4,1.8l12.3,-6.1m-12.4,21.1v-17.6m12.1,21.4l-12.2,-6.1m12.2,6.1v61m-23.1,0H655.7" class="g3_1"/>
<path fill-rule="evenodd" d="M190.6,1154.9l5.2,-1.3l-1.1,-2l-4.1,3.3Z" class="g7_1"/>
<path d="M194.7,1151.6l-1.3,2.5m2.4,-.5l-2.9,-.5m9.9,-16.7l-12.2,-6.1m12.2,21.1v-17.6m-12.2,21.1l12.2,-6.1m-12.3,6.7v8.8m.1,-44v10m-21.2,-10h42.1" class="g3_1"/>
<path fill-rule="evenodd" d="M232.1,1154.9l-5.2,-1.3l1.2,-2l4,3.3Z" class="g7_1"/>
<path d="M228.1,1151.6l1.1,2.5m-2.3,-.5l2.9,-.5m-9.9,-16.7l12.2,-6.1m-12.2,21.1v-17.6m12.2,21.1l-12.2,-6.1m12.2,6.7v8.8m0,-44v10m-10.6,-10.8h38M245,1103.3v61" class="g3_1"/>
<path fill-rule="evenodd" d="M259.7,1113l5.2,-1.3l-1.1,-2.1l-4.1,3.4Z" class="g7_1"/>
<path d="M263.8,1109.6l-1.2,2.6m2.3,-.5l-2.9,-.5m-2.3,1.8l12.2,-6.1m-12.4,21.2v-17.7m13,21.4l-12.3,-6.1m12.3,7v31.6m-.6,-57.5H292M284.4,963.6v143.2" class="g3_1"/>
<path fill-rule="evenodd" d="M304.3,1119.1l-5.3,-1.3l1.1,-2.1l4.2,3.4Z" class="g7_1"/>
<path d="M300.1,1115.7l1.3,2.6m-2.4,-.5l2.9,-.5M292,1100.6l12.3,-6.1M292,1115.6V1098m12.3,21.1L292,1113" class="g3_1"/>
<path fill-rule="evenodd" d="M190.6,1045.6l5.2,-1.4l-1.1,-2l-4.1,3.4Z" class="g7_1"/>
<path d="M194.7,1042.2l-1.3,2.5m2.4,-.5l-2.9,-.4m-2.3,1.8l12.2,-6.2m-12.4,21.2v-17.7m12.1,21.4l-12.3,-6.1m12.6,1.1l-12.2,-6.1m41.7,-13.9H203.5m28.8,25l12.2,-6.1" class="g3_1"/>
<path fill-rule="evenodd" d="M244.5,1045.6l-5.2,-1.4l1.1,-2l4.1,3.4Z" class="g7_1"/>
<path d="M240.4,1042.2l1.2,2.5m-2.3,-.5l2.9,-.4m2.3,1.8l-12.2,-6.2m12.7,21.4v-17.6M221.5,996.8v122.7m11.3,-59.4L245,1054" class="g3_1"/>
<path fill-rule="evenodd" d="M208.1,951.9l5.3,-1.4l-1.1,-2l-4.2,3.4Z" class="g7_1"/>
<path d="M212.3,948.5L211,951m2.4,-.5l-2.9,-.4m-2.4,1.8l12.3,-6.2M208,966.9V949.2m12.2,21.4L208,964.5M156.5,954.2H208M156.5,913.8v40.4m63.7,13.2L208,961.2m12.2,2.4L208,957.4m-51.5,29.1h64.4m-.2,-19.4h6.7m-7.6,-3.5h64.6m-57,4.1v71.6m-7,-143.2v49.6m0,-49.6H656.1M156.5,913.8H377M250.7,990.9v11.4m-29.2,-5.7h29.1m3.6,0H398.8M256.5,990.8l-.3,.1m0,0l-.2,.1m0,0l-.2,.1m0,0l-.2,.2m0,0l-.2,.2m0,0l-.2,.3m0,0l-.3,.3m0,0l-.1,.4m0,0l-.2,.5m0,0l-.1,.4m0,0l-.1,.5m0,0l-.1,.5m0,0l-.1,.5m0,0l-.1,.6m0,0v.5m0,0v.6m0,0v.6m0,0v.5m0,0l.1,.6m0,0l.1,.5m0,0l.1,.5m0,0l.1,.5m0,0l.1,.4m0,0l.2,.5m0,0l.1,.4m0,0l.3,.3m0,0l.2,.3m0,0l.2,.2m0,0l.2,.2m0,0l.2,.1m0,0l.2,.1m0,0l.3,.1" class="g3_1"/>
<path fill-rule="evenodd" d="M288.6,909.3l5.3,-1.4l-1.2,-2l-4.1,3.4Z" class="g7_1"/>
<path d="M292.7,905.9l-1.2,2.6m2.4,-.6l-3,-.4m-2.3,1.8l12.3,-6.1m-12.4,21.2V906.7m12,21.4l-12.3,-6.2m12.5,1.4l-12.2,-6.1m12.7,5.9h36.6m-37.3,4.7H307m-6.1,-31v5.7" class="g3_1"/>
<path fill-rule="evenodd" d="M142,1089.1c1.1,.1,2.1,1.1,2.1,2.3c0,1.3,-1,2.3,-2.2,2.3c-1.2,0,-2.1,-1,-2.1,-2.3c0,-1.2,.9,-2.3,2.1,-2.3h.1Z" class="g0_1"/>
<path d="M142,1089.1c1.1,.1,2.1,1.1,2.1,2.3c0,1.3,-1,2.3,-2.2,2.3c-1.2,0,-2.1,-1,-2.1,-2.3c0,-1.2,.9,-2.3,2.1,-2.3h.1" class="g3_1"/>
<path fill-rule="evenodd" d="M142,1020.7c1.1,0,2.1,1,2.1,2.3c0,1.2,-1,2.3,-2.2,2.3c-1.2,0,-2.1,-1.1,-2.1,-2.3c0,-1.3,.9,-2.3,2.1,-2.3h.1Z" class="g0_1"/>
<path d="M142,1020.7c1.1,0,2.1,1,2.1,2.3c0,1.2,-1,2.3,-2.2,2.3c-1.2,0,-2.1,-1.1,-2.1,-2.3c0,-1.3,.9,-2.3,2.1,-2.3h.1" class="g3_1"/>
<path fill-rule="evenodd" d="M180,1072.2c1,0,1.8,.8,1.8,1.8c0,1,-.8,1.8,-1.8,1.8c-.9,0,-1.7,-.8,-1.7,-1.8c0,-1,.8,-1.8,1.7,-1.8" class="g8_1"/>
<path fill-rule="evenodd" d="M255.3,1071.9c.9,0,1.7,.8,1.7,1.8c0,1,-.8,1.8,-1.7,1.8c-1,0,-1.7,-.8,-1.7,-1.8c0,-1,.7,-1.8,1.7,-1.8" class="g8_1"/>
<path fill-rule="evenodd" d="M232.3,1118.5c.9,0,1.7,.8,1.7,1.8c0,1,-.8,1.8,-1.7,1.8c-1,0,-1.7,-.8,-1.7,-1.8c0,-1,.7,-1.8,1.7,-1.8" class="g8_1"/>
<path fill-rule="evenodd" d="M190.5,1118.4c1,0,1.7,.8,1.7,1.8c0,.9,-.7,1.8,-1.7,1.8c-.9,0,-1.7,-.9,-1.7,-1.8c0,-1,.8,-1.8,1.7,-1.8" class="g8_1"/>
<path fill-rule="evenodd" d="M190.5,1162.3c1,0,1.7,.8,1.7,1.9c0,1,-.7,1.8,-1.7,1.8c-.9,0,-1.7,-.8,-1.7,-1.8c0,-1.1,.8,-1.9,1.7,-1.9" class="g8_1"/>
<path fill-rule="evenodd" d="M232.3,1162.3q.1,0,.1,0c.9,0,1.7,.8,1.7,1.9c0,1,-.8,1.8,-1.7,1.8c-1,0,-1.8,-.8,-1.8,-1.8c0,-1.1,.8,-1.9,1.7,-1.9" class="g8_1"/>
<path fill-rule="evenodd" d="M245.2,1162.3c1,0,1.7,.8,1.7,1.9c0,1,-.7,1.8,-1.7,1.8c-1,0,-1.7,-.8,-1.7,-1.8c0,-1.1,.7,-1.9,1.7,-1.9" class="g8_1"/>
<path fill-rule="evenodd" d="M272.7,1162.3c1,0,1.7,.8,1.7,1.9c0,1,-.7,1.8,-1.7,1.8c-1,0,-1.7,-.8,-1.7,-1.8c0,-1.1,.7,-1.9,1.7,-1.9" class="g8_1"/>
<path fill-rule="evenodd" d="M284.6,1104.8c1,0,1.8,.9,1.8,1.9c0,1,-.8,1.9,-1.8,1.9c-.9,0,-1.7,-.9,-1.7,-1.9c0,-1,.7,-1.8,1.7,-1.9" class="g8_1"/>
<path fill-rule="evenodd" d="M227.8,1037.5h.1c.9,0,1.7,.8,1.7,1.8c0,1,-.8,1.8,-1.7,1.8c-1,0,-1.8,-.8,-1.8,-1.8c0,-1,.8,-1.8,1.7,-1.8" class="g8_1"/>
<path fill-rule="evenodd" d="M301.3,894.3c1,0,1.7,.8,1.7,1.8c0,1,-.7,1.8,-1.7,1.8c-1,0,-1.7,-.8,-1.7,-1.8c0,-1,.7,-1.8,1.7,-1.8" class="g8_1"/>
<path fill-rule="evenodd" d="M212,1140.8c1,0,1.7,.8,1.7,1.8c0,1,-.8,1.8,-1.7,1.8c-1,0,-1.7,-.8,-1.7,-1.8c0,-1,.7,-1.8,1.7,-1.8" class="g8_1"/>
<path fill-rule="evenodd" d="M211.9,1118.4c1,0,1.7,.8,1.7,1.8c0,.9,-.7,1.8,-1.7,1.8c-1,0,-1.7,-.9,-1.7,-1.8c0,-1,.7,-1.8,1.7,-1.8" class="g8_1"/>
<path fill-rule="evenodd" d="M221.7,1058.4c.9,0,1.7,.8,1.7,1.9c0,1,-.8,1.8,-1.7,1.8c-1,0,-1.8,-.8,-1.8,-1.8c0,-1.1,.8,-1.9,1.8,-1.9" class="g8_1"/>
<path fill-rule="evenodd" d="M304.4,1154.9l5.3,-1.3l-1.1,-2l-4.2,3.3Z" class="g7_1"/>
<path d="M308.6,1151.6l-1.3,2.5m2.4,-.5l-2.9,-.5m9.9,-16.7l-12.3,-6.1m12.3,21.1v-17.6m-12.3,21.1l12.3,-6.1m-12.3,6.7v8.8m0,-45.2v11.2m15.3,-10.9l12.3,-6.1" class="g3_1"/>
<path fill-rule="evenodd" d="M332,1100.6l-5.3,-1.3l1.2,-2.1l4.1,3.4Z" class="g7_1"/>
<path d="M327.9,1097.2l1.3,2.6m-2.5,-.5l3,-.5m2.3,1.8l-12.3,-6.1m12.8,21.5v-17.7m-12.8,-3.8H304.3m9.1,31.1h-9.1m60.8,-45.2H313.4m6.3,39v44.9M333,1107.4h31.2M337.8,923.1V1143" class="g3_1"/>
<path fill-rule="evenodd" d="M344.3,1143.2l5.3,-1.3l-1.1,-2l-4.2,3.3Z" class="g7_1"/>
<path d="M348.5,1139.9l-1.3,2.5m2.4,-.5l-2.9,-.5m9.9,-16.7l-12.3,-6.1m12.3,21.1V1122m-12.3,21.2l12.3,-6.2m-12.3,6.2v21.1m0,-56.9v11.2" class="g3_1"/>
<path fill-rule="evenodd" d="M377.7,1092.1l-5.2,-1.3l1.1,-2l4.1,3.3Z" class="g7_1"/>
<path d="M373.6,1088.8l1.2,2.6m-2.3,-.6l2.9,-.5m-9.9,-16.6l12.2,-6.2m-12.2,21.2V1071m12.2,21.1L365.5,1086m12.2,-18.5h78.6m12.1,12.4v84.4" class="g3_1"/>
<path fill-rule="evenodd" d="M494.6,1142.5l-5.3,-1.4l1.2,-2l4.1,3.4Z" class="g7_1"/>
<path d="M490.5,1139.1l1.1,2.6m-2.3,-.6l3,-.5m-10,-16.6l12.3,-6.2M482.3,1139v-17.7m12.3,21.2l-12.3,-6.2m12.3,28v-21.8m0,-25v-95M468.7,948.3v49.2" class="g3_1"/>
<path fill-rule="evenodd" d="M377.2,909.9l5.2,-1.3l-1.1,-2l-4.1,3.3Z" class="g7_1"/>
<path d="M381.3,906.6l-1.2,2.4m2.3,-.4l-2.9,-.5m-2.3,1.8l12.2,-6.1M377,924.9V907.2m13,21.5l-12.2,-6.1m11.5,1.3L377,917.8m12.4,-21.2v7.2" class="g3_1"/>
<path fill-rule="evenodd" d="M389.7,894.6c1,0,1.8,.9,1.8,1.9c0,1,-.8,1.9,-1.8,1.9c-.9,0,-1.7,-.9,-1.7,-1.9c0,-1,.8,-1.9,1.7,-1.9" class="g8_1"/>
<path d="M363,949.5h26.7m.3,-25.8h19.1m-10.3,0v143.8M390,928.7v243" class="g3_1"/>
<path fill-rule="evenodd" d="M421.7,935.7l-5.2,-1.3l1.1,-2.1l4.1,3.4Z" class="g7_1"/>
<path d="M417.6,932.3l1.2,2.6m-2.3,-.5l2.9,-.5m-9.9,-16.7l12.2,-6.1m-12.2,21.2V914.6m12.2,21.1l-12.2,-6.1" class="g3_1"/>
<path fill-rule="evenodd" d="M468.6,948.3L463.4,947l1.1,-2.1l4.1,3.4Z" class="g7_1"/>
<path d="M464.5,944.9l1.3,2.6m-2.4,-.5l3,-.5m-10,-16.7l12.2,-6.1m-12.2,21.2V927.2m12.2,21.1l-12.2,-6.1M422.3,936h34.1m12.2,-39.9v27.6M421.7,896.1v15" class="g3_1"/>
<path fill-rule="evenodd" d="M418.8,997.6l5.3,-1.3l-1.1,-2l-4.2,3.3Z" class="g7_1"/>
<path d="M423,994.3l-1.3,2.5m2.4,-.5l-2.9,-.5m9.9,-16.7L418.8,973m12.3,21.1V976.5m-12.3,21.1l12.3,-6.2m.5,-6.1h37.1M444.2,936v9.1m-1.7,5.3l4.6,-2.4l-2.9,-2.9m.6,19.4v7.3m2.3,-18.2l-4.6,-3.2m-.1,5.8l4.7,-2.5m-.1,5.8l-4.6,-3.1m0,5.2l4.5,-2.1m-2.1,4.8L442.4,962m2.4,9.8h23.9m-50,50.5h126" class="g3_1"/>
<path fill-rule="evenodd" d="M546.6,1132.6l5.2,-1.3l-1.1,-2l-4.1,3.3Z" class="g7_1"/>
<path d="M550.7,1129.3l-1.3,2.5m2.4,-.5l-2.9,-.5m9.9,-16.6L546.6,1108m12.2,21.1v-17.7m-12.2,21.2l12.2,-6.1m-12.1,6.1v5.6m-1.7,5.7l4.6,-2.4l-2.9,-3m.7,19.4v6.4m2.2,-17.2l-4.6,-3.2m-.1,5.8l4.7,-2.6m-.2,5.9l-4.5,-3.2m0,5.3l4.5,-2.1m-2,4.8l-2.5,-2.4" class="g3_1"/>
<path fill-rule="evenodd" d="M456.4,1060.7l5.3,-1.4l-1.1,-2l-4.2,3.4Z" class="g7_1"/>
<path d="M460.6,1057.3l-1.2,2.6m2.3,-.6l-2.9,-.4m-2.4,1.8l12.3,-6.1m-12.4,21.2v-17.7m12.1,21.4l-12.2,-6.2m112.9,-61V1120" class="g3_1"/>
<path d="M575.8,896.1v268.2" class="g9_1"/>
<path fill-rule="evenodd" d="M583.5,1000.7l5.3,-1.3l-1.1,-2l-4.2,3.3Z" class="g7_1"/>
<path d="M587.7,997.4l-1.3,2.6m2.4,-.6l-2.9,-.5m9.9,-16.7l-12.3,-6.1m12.3,21.2V979.6m-12.3,21.1l12.3,-6.1m17.6,-5.8l-17,.1m8.2,-25v25" class="g3_1"/>
<path fill-rule="evenodd" d="M625.7,1000.7l-5.2,-1.3l1.1,-2l4.1,3.3Z" class="g7_1"/>
<path d="M621.6,997.4l1.3,2.6m-2.4,-.6l2.9,-.5m-9.9,-16.7l12.2,-6.1m-12.2,21.2V979.6m12.2,21.1l-12.2,-6.1m12.2,6.5v113.6M634.2,933v231.3" class="g3_1"/>
<path d="M642.1,896.1v268.2" class="g9_1"/>
<path fill-rule="evenodd" d="M583.5,1095.9l5.3,-1.3l-1.1,-2l-4.2,3.3Z" class="g7_1"/>
<path d="M587.7,1092.6l-1.3,2.5m2.4,-.5l-2.9,-.5m9.9,-16.7l-12.3,-6.1m12.3,21.2v-17.7m-12.3,21.1l12.3,-6.1m-12.3,74.5v-68.4m0,-24.6v-70.6m0,11.6H569.1m55,107.7l4.6,-2.3l-2.8,-3m.5,19.5v30.1m2.3,-41.1l-4.6,-3.1m-.2,5.8l4.8,-2.5m-.2,5.7l-4.6,-3m0,5.2l4.6,-2.2m-2.1,4.9l-2.5,-2.3" class="g3_1"/>
<path fill-rule="evenodd" d="M656.5,893.9c1.2,0,2.1,1,2.1,2.3c0,1.2,-.9,2.3,-2.1,2.3c-1.2,0,-2.2,-1.1,-2.2,-2.3c0,-1.3,1,-2.3,2.2,-2.3Z" class="g0_1"/>
<path d="M656.5,893.9c1.2,0,2.1,1,2.1,2.3c0,1.2,-.9,2.3,-2.1,2.3c-1.2,0,-2.2,-1.1,-2.2,-2.3c0,-1.3,1,-2.3,2.2,-2.3" class="g3_1"/>
<path fill-rule="evenodd" d="M656.4,1162.2q.1,0,.1,0c1.2,0,2.1,1,2.1,2.3c0,1.2,-.9,2.2,-2.1,2.2c-1.2,0,-2.2,-1,-2.2,-2.2c0,-1.3,1,-2.3,2.1,-2.3Z" class="g0_1"/>
<path d="M656.4,1162.2q.1,0,.1,0c1.2,0,2.1,1,2.1,2.3c0,1.2,-.9,2.2,-2.1,2.2c-1.2,0,-2.2,-1,-2.2,-2.2c0,-1.3,1,-2.3,2.1,-2.3" class="g3_1"/>
<path fill-rule="evenodd" d="M634.2,1162.3c.9,0,1.7,.8,1.7,1.9c0,1,-.8,1.8,-1.7,1.8c-1,0,-1.8,-.8,-1.8,-1.8c0,-1.1,.8,-1.9,1.8,-1.9" class="g8_1"/>
<path fill-rule="evenodd" d="M626.5,1162.3c1,0,1.8,.8,1.8,1.9c0,1,-.8,1.8,-1.8,1.8c-.9,0,-1.7,-.8,-1.7,-1.8c0,-1.1,.8,-1.9,1.7,-1.9" class="g8_1"/>
<path fill-rule="evenodd" d="M583.5,1162.3c.9,0,1.7,.8,1.7,1.9c0,1,-.8,1.8,-1.7,1.8c-1,0,-1.8,-.8,-1.8,-1.8c0,-1.1,.8,-1.9,1.8,-1.9" class="g8_1"/>
<path fill-rule="evenodd" d="M547.4,1162.3c1,0,1.7,.8,1.7,1.9c0,1,-.7,1.8,-1.7,1.8c-1,0,-1.7,-.8,-1.7,-1.8c0,-1.1,.7,-1.9,1.7,-1.9" class="g8_1"/>
<path fill-rule="evenodd" d="M494.8,1162.3c1,0,1.8,.8,1.8,1.9c0,1,-.8,1.8,-1.8,1.8c-.9,0,-1.7,-.8,-1.7,-1.8c0,-1.1,.8,-1.9,1.7,-1.9" class="g8_1"/>
<path fill-rule="evenodd" d="M626,1082.8c.9,.1,1.7,.9,1.7,1.9c0,1,-.8,1.9,-1.8,1.9c-.9,0,-1.7,-.9,-1.7,-1.9c0,-1,.8,-1.9,1.7,-1.9h.1" class="g8_1"/>
<path fill-rule="evenodd" d="M604.8,987.1c.9,0,1.7,.8,1.7,1.8c0,1,-.8,1.8,-1.8,1.8c-.9,0,-1.7,-.8,-1.7,-1.8c0,-1,.8,-1.8,1.7,-1.8h.1" class="g8_1"/>
<path fill-rule="evenodd" d="M626.5,894.6c1,0,1.8,.9,1.8,1.9c0,1,-.8,1.9,-1.8,1.9c-.9,0,-1.7,-.9,-1.7,-1.9c0,-1,.8,-1.9,1.7,-1.9" class="g8_1"/>
<path fill-rule="evenodd" d="M583.5,894.6c.9,0,1.7,.9,1.7,1.9c0,1,-.8,1.9,-1.7,1.9c-1,0,-1.8,-.9,-1.8,-1.9c0,-1,.8,-1.9,1.8,-1.9" class="g8_1"/>
<path fill-rule="evenodd" d="M545.2,886.9h.1c1.1,0,2.1,1,2.1,2.3c0,1.2,-1,2.2,-2.1,2.2c-1.2,0,-2.2,-1,-2.2,-2.2c0,-1.3,1,-2.3,2.1,-2.3Z" class="g0_1"/>
<path d="M545.2,886.9h.1c1.1,0,2.1,1,2.1,2.3c0,1.2,-1,2.2,-2.1,2.2c-1.2,0,-2.2,-1,-2.2,-2.2c0,-1.3,1,-2.3,2.1,-2.3" class="g3_1"/>
<path fill-rule="evenodd" d="M468.6,894.1c.9,0,1.7,.8,1.7,1.8c0,1,-.8,1.8,-1.7,1.8c-1,0,-1.8,-.8,-1.8,-1.8c0,-1,.8,-1.8,1.8,-1.8" class="g8_1"/>
<path fill-rule="evenodd" d="M494.8,1020.5c1,0,1.8,.8,1.8,1.9c0,1,-.8,1.8,-1.8,1.8c-.9,0,-1.7,-.8,-1.7,-1.8c0,-1,.8,-1.9,1.7,-1.9" class="g8_1"/>
<path fill-rule="evenodd" d="M469.2,970c.9,0,1.7,.8,1.7,1.8c0,1,-.8,1.8,-1.8,1.8c-.9,0,-1.7,-.8,-1.7,-1.8c0,-1,.8,-1.8,1.7,-1.8h.1" class="g8_1"/>
<path fill-rule="evenodd" d="M469.2,984.1c.9,0,1.7,.8,1.7,1.8c0,1,-.8,1.8,-1.8,1.8c-.9,0,-1.7,-.8,-1.7,-1.8c0,-1,.8,-1.8,1.7,-1.8h.1" class="g8_1"/>
<path fill-rule="evenodd" d="M468.6,1162.3c.9,0,1.7,.8,1.7,1.9c0,1,-.8,1.8,-1.7,1.8c-1,0,-1.8,-.8,-1.8,-1.8c0,-1.1,.8,-1.9,1.8,-1.9" class="g8_1"/>
<path fill-rule="evenodd" d="M583.6,1011.1c1,0,1.7,.8,1.7,1.8c0,1,-.8,1.8,-1.7,1.8c-1,0,-1.7,-.8,-1.7,-1.8c0,-1,.7,-1.8,1.7,-1.8" class="g8_1"/>
<path fill-rule="evenodd" d="M583.6,962.4c1,0,1.7,.8,1.7,1.8c0,1,-.8,1.8,-1.7,1.8c-1,0,-1.7,-.8,-1.7,-1.8c0,-1,.7,-1.8,1.7,-1.8" class="g8_1"/>
<path fill-rule="evenodd" d="M398.9,1065.8c1,0,1.7,.8,1.7,1.8c0,1,-.7,1.8,-1.7,1.8c-1,0,-1.7,-.8,-1.7,-1.8c0,-1,.7,-1.8,1.7,-1.8" class="g8_1"/>
<path fill-rule="evenodd" d="M398.9,971.7c1,0,1.7,.8,1.7,1.8c0,1,-.7,1.8,-1.7,1.8c-1,0,-1.7,-.8,-1.7,-1.8c0,-1,.7,-1.8,1.7,-1.8" class="g8_1"/>
<path fill-rule="evenodd" d="M398.9,994.9c1,0,1.7,.8,1.7,1.8c0,1,-.7,1.8,-1.7,1.8c-1,0,-1.7,-.8,-1.7,-1.8c0,-1,.7,-1.8,1.7,-1.8" class="g8_1"/>
<path fill-rule="evenodd" d="M389.7,948.5c1,0,1.8,.8,1.8,1.8c0,1,-.8,1.8,-1.8,1.8c-.9,0,-1.7,-.8,-1.7,-1.8c0,-1,.8,-1.8,1.7,-1.8" class="g8_1"/>
<path fill-rule="evenodd" d="M362.8,912.3c1,0,1.8,.9,1.8,1.9c0,1,-.8,1.9,-1.8,1.9c-.9,0,-1.7,-.9,-1.7,-1.9c0,-1,.8,-1.8,1.7,-1.9" class="g8_1"/>
<path fill-rule="evenodd" d="M398.9,922.5c1,0,1.7,.8,1.7,1.8c0,1,-.7,1.8,-1.7,1.8c-1,0,-1.7,-.8,-1.7,-1.8c0,-1,.7,-1.8,1.7,-1.8" class="g8_1"/>
<path fill-rule="evenodd" d="M364.7,1129.4c.9,0,1.7,.8,1.7,1.8c0,.9,-.8,1.8,-1.7,1.8c-1,0,-1.8,-.9,-1.8,-1.8c0,-1,.8,-1.8,1.8,-1.8" class="g8_1"/>
<path fill-rule="evenodd" d="M344.8,1106.1c1,0,1.7,.8,1.7,1.8c0,1,-.7,1.8,-1.7,1.8c-.9,0,-1.7,-.8,-1.7,-1.8c0,-1,.8,-1.8,1.7,-1.8" class="g8_1"/>
<path fill-rule="evenodd" d="M344.8,1162.3c1,0,1.7,.8,1.7,1.9c0,1,-.7,1.8,-1.7,1.8c-.9,0,-1.7,-.8,-1.7,-1.8c0,-1.1,.8,-1.9,1.7,-1.9" class="g8_1"/>
<path fill-rule="evenodd" d="M320.1,1162.3c.9,0,1.7,.8,1.7,1.9c0,1,-.8,1.8,-1.7,1.8c-1,0,-1.8,-.8,-1.8,-1.8c0,-1.1,.8,-1.9,1.8,-1.9" class="g8_1"/>
<path fill-rule="evenodd" d="M304.8,1162.3c1,0,1.7,.8,1.7,1.9c0,1,-.8,1.8,-1.7,1.8c-1,0,-1.7,-.8,-1.7,-1.8c0,-1.1,.7,-1.9,1.7,-1.9" class="g8_1"/>
<path fill-rule="evenodd" d="M307.8,1092.6c1,0,1.8,.9,1.8,1.9c0,1,-.8,1.9,-1.8,1.9c-.9,0,-1.7,-.9,-1.7,-1.9c0,-1,.8,-1.9,1.7,-1.9" class="g8_1"/>
<path fill-rule="evenodd" d="M304.8,1123.8c1,0,1.7,.8,1.7,1.9c0,1,-.8,1.8,-1.7,1.8c-1,0,-1.7,-.8,-1.7,-1.8c0,-1.1,.7,-1.9,1.7,-1.9" class="g8_1"/>
<path d="M277.3,1023.3v67.6" class="g3_1"/>
<path fill-rule="evenodd" d="M179.8,1162.3c1,0,1.7,.8,1.7,1.9c0,1,-.7,1.8,-1.7,1.8c-.9,0,-1.7,-.8,-1.7,-1.8c0,-1.1,.8,-1.9,1.7,-1.9" class="g8_1"/>
<path fill-rule="evenodd" d="M378.2,1162.3c.9,0,1.7,.8,1.7,1.9c0,1,-.8,1.8,-1.8,1.8c-.9,0,-1.7,-.8,-1.7,-1.8c0,-1.1,.8,-1.9,1.7,-1.9h.1" class="g8_1"/>
<path fill-rule="evenodd" d="M421.6,894.3c1,0,1.7,.8,1.7,1.8c0,1,-.8,1.8,-1.7,1.8c-1,0,-1.7,-.8,-1.7,-1.8c0,-1,.7,-1.8,1.7,-1.8" class="g8_1"/>
<path fill-rule="evenodd" d="M444.4,934.4c1,0,1.8,.8,1.8,1.8c0,1,-.8,1.8,-1.8,1.8c-.9,0,-1.7,-.8,-1.7,-1.8c0,-1,.8,-1.8,1.7,-1.8" class="g8_1"/>
<path d="M362.3,913.7v35.8m-5.5,181.1H482.4M467.3,1002.9l4.5,-2.5L469,997.5m2.8,8.6l-4.5,-3.2m-.2,5.8l4.7,-2.6m-.1,5.8l-4.6,-3.1m0,5.3l4.5,-2.2m-2.1,4.9l-2.4,-2.4m2.4,2.4v37.8M597.5,933h36.7m-50.7,3.9h8.9" class="g3_1"/>
<path fill-rule="evenodd" d="M548.4,466.9V256.2H816.2V466.9H548.4ZZ" class="ga_1"/>
<path d="M768.5,273.3v4.4l.9,.9h1.8l.9,-.9v-4.4m1.7,5.3V275m0,1.8l1.8,-1.8h.9l.9,.9v2.7m1.7,0V275m0,-.9v-.8m1.8,1.7h3.5m-1.7,-1.7v4.4l.8,.9l.9,-.9m1.8,-2.7v.9m0,.9v.9m7,.9V275m0,.9l.9,-.9l.9,.9v.9m0,-.9l.9,-.9l.9,.9v2.7m1.7,0V275m0,.9l.9,-.9l.9,.9v.9m0,-.9l.9,-.9l.9,.9v2.7" class="g1_1"/>
<path fill-rule="evenodd" d="M548.6,256.4v.4H815.1v-.4H548.6Z" class="g2_1"/>
<path d="M548.6,256.4v.4H815.1v-.4H548.6Z" class="g1_1"/>
<path fill-rule="evenodd" d="M815.1,256.6v-.2h.2v.2h-.2Z" class="g2_1"/>
<path d="M815.1,256.4h.2v.2" class="g1_1"/>
<path fill-rule="evenodd" d="M815.3,256.6h-.4V466h.4V256.6Z" class="g2_1"/>
<path d="M815.3,256.6h-.4V466h.4V256.6Z" class="g1_1"/>
<path fill-rule="evenodd" d="M532.8,377.1h.2l-.1,.1v.1h-.1v-.2Z" class="g2_1"/>
<path d="M533,377.1l-.1,.1v.1h-.1" class="g1_1"/>
<path fill-rule="evenodd" d="M815.1,466.2v-.5H548.6v.5H815.1Z" class="g2_1"/>
<path d="M815.1,466.2v-.5H548.6v.5H815.1Z" class="g1_1"/>
<path fill-rule="evenodd" d="M548.4,466h.5V256.6h-.5V466Z" class="g2_1"/>
<path d="M548.4,466h.5V256.6h-.5V466Z" class="g1_1"/>
<path fill-rule="evenodd" d="M548.6,256.6h-.2v-.2h.2v.2Z" class="g2_1"/>
<path d="M548.4,256.6v-.2h.2m198.9,51.8h1.7M750.5,308.2h1.4M753.2,308.2h1.4M755.9,308.2h1.4m.6,0h.1m.6,0h1.8m-12.9,26.9h1.7M750.5,335.1h1.4M753.2,335.1h1.4M755.9,335.1h1.4m.6,0h.1m.6,0h1.8m-12.9,13.5h1.7M750.5,348.6h1.4M753.2,348.6h1.4M755.9,348.6h1.4m.6,0h.1m.6,0h1.8" class="g1_1"/>
<path d="M583.9,352.9v17.4m63.6,-17.4v17.4m-59.3,-2.7h55.1" class="gb_1"/>
<path fill-rule="evenodd" d="M588.2,366.9v1.4l-4.3,-.7l4.3,-.7Z" class="g2_1"/>
<path d="M588.2,366.9v1.4l-4.3,-.7l4.3,-.7Z" class="gb_1"/>
<path fill-rule="evenodd" d="M643.3,366.9v1.4l4.2,-.7l-4.2,-.7Z" class="g2_1"/>
<path d="M643.3,366.9v1.4l4.2,-.7l-4.2,-.7Z" class="gb_1"/>
<path d="M598.1,362.8h2.6l.9,.9v.9l-.9,.9H599l-.9,-.9V362l1.7,-1.8h.9m2.7,5.3v-.9m2.6,.9l-.9,-.9v-3.5l.9,-.9h.9l.9,.9v3.5l-.9,.9H606Zm4.4,0l-.9,-.9v-3.5l.9,-.9h.9l.9,.9v3.5l-.9,.9h-.9Zm3.6,-.9h3.5m-1.8,-.9v-3.5M614,362h3.5m2.6,3.5l-.8,-.9v-3.5l.8,-.9h.9l.9,.9v3.5l-.9,.9h-.9Zm3.6,0v-.9m1.7,-3.5l.9,-.9h1.8l.9,.9v.9l-.9,.8h-.9m.9,0l.9,.9v.9l-.9,.9h-1.8l-.9,-.9m6.2,.9l-.9,-.9v-3.5l.9,-.9h.9l.9,.9v3.5l-.9,.9h-.9ZM583.9,350.8h.1M575.6,308.9h2.9m0,-1.4h-2.9m.7,-1.4v4.2m1.5,0v-4.2m2.1,.7l.7,-.7v4.2m-.7,0h1.4m-5.7,39h2.9m0,-1.4h-2.9m.7,-1.4v4.2m1.5,0v-4.2m4.9,2.8h-2.8l2.1,-2.8v4.2m67.7,-41.9h2.9m0,-1.4h-2.9m.7,-1.4v4.2m1.5,0V306m2.8,4.2l-.7,-.7v-.7l.7,-.7h1.4l.7,-.7v-.7l-.7,-.7h-1.4l-.7,.7v.7l.7,.7m1.4,0l.7,.7v.7l-.7,.7h-1.4m-5,39.2h2.9m0,-1.4h-2.9m.7,-1.4v4.2m1.5,0v-4.2m2.1,3.5l.7,.7h1.4l.7,-.7v-1.4l-.7,-.7H654v-1.4h2.8" class="g1_1"/>
<path d="M746.8,354.5H733.3m13.5,-52.2H733.3m2.7,48V306.5" class="gb_1"/>
<path fill-rule="evenodd" d="M735.3,350.3h1.4l-.7,4.2l-.7,-4.2Z" class="g2_1"/>
<path d="M735.3,350.3h1.4l-.7,4.2l-.7,-4.2Z" class="gb_1"/>
<path fill-rule="evenodd" d="M735.3,306.5h1.4l-.7,-4.2l-.7,4.2Z" class="g2_1"/>
<path d="M735.3,306.5h1.4l-.7,-4.2l-.7,4.2Z" class="gb_1"/>
<path d="M732.1,343.4v3.5l-3.5,-2.6h5.2m0,-2.6H733m.8,-2.7v-.9l-1.7,-1.7h-2.7l-.8,.8V339l.8,.9h.9l.9,-.9v-2.6m-1.8,-1.8l-.8,-.9v-1.8l.8,-.8h.9l.9,.8v1.8l.9,.9h1.7v-3.5m-.8,-1.8v-3.5m-.9,1.7h-3.5m1.7,1.8v-3.5m3.5,-2.7l-.8,.9h-3.6l-.8,-.9v-.9l.8,-.9H733l.8,.9v.9Zm0,-3.5H733m-3.6,-1.8l-.8,-.9v-1.7l.8,-.9h.9l.9,.9v1.7l.9,.9h1.7v-3.5m0,-2.7l-.8,.9h-3.6l-.8,-.9v-.9l.8,-.8H733l.8,.8v.9Z" class="g1_1"/>
<path d="M746.8,355.6H720.3m26.5,-54.4H720.3m2.6,50.1V305.5" class="gb_1"/>
<path fill-rule="evenodd" d="M722.2,351.3h1.5l-.8,4.3l-.7,-4.3Z" class="g2_1"/>
<path d="M722.2,351.3h1.5l-.8,4.3l-.7,-4.3Z" class="gb_1"/>
<path fill-rule="evenodd" d="M722.2,305.5h1.5l-.8,-4.3l-.7,4.3Z" class="g2_1"/>
<path d="M722.2,305.5h1.5l-.8,-4.3l-.7,4.3Z" class="gb_1"/>
<path d="M719.9,346.1l.9,-.9v-1.8l-.9,-.9h-1.7l-.9,.9v2.7h-1.8v-3.6m5.3,-1.7h-.9M716.4,339l-.9,-.9h5.3m0,.9v-1.8m-4.4,-1.7l-.9,-.9v-1.8l.9,-.9h.9l.9,.9v.9m0,-.9l.9,-.9h.8l.9,.9v1.8l-.9,.9m.9,-5.3h-5.3l3.6,-1.8l-3.6,-1.8h5.3m0,-1.7h-1.7l-3.6,-1.8l3.6,-1.8h1.7m-1.7,3.6v-3.6m1.7,-1.7L715.5,316m0,3.6l5.3,-3.6m0,-1.7h-1.7l-3.6,-1.8l3.6,-1.8h1.7m-1.7,3.6v-3.6M722.9,301.2h.1" class="g1_1"/>
<path d="M757.9,356v14.2M741.5,356v14.2m12.1,-2.7h-7.9m-4.2,0H697.7" class="gb_1"/>
<path fill-rule="evenodd" d="M753.6,366.8v1.4l4.3,-.7l-4.3,-.7Z" class="g2_1"/>
<path d="M753.6,366.8v1.4l4.3,-.7l-4.3,-.7Z" class="gb_1"/>
<path fill-rule="evenodd" d="M745.7,366.8v1.4l-4.2,-.7l4.2,-.7Z" class="g2_1"/>
<path d="M745.7,366.8v1.4l-4.2,-.7l4.2,-.7Z" class="gb_1"/>
<path d="M699.8,361l.9,-.9v5.3m-.9,0h1.8m1.7,0v-.9m1.8,0l.9,.9h1.7l.9,-.9v-1.7l-.9,-.9h-2.6v-1.8h3.5m1.8,4.4l.9,.9H713l.9,-.9v-1.7l-.9,-.9h-2.6v-1.8h3.5m1.8,4.4h3.5m-1.7,-.8v-3.6m-1.8,1.8h3.5m2.7,3.5l-.9,-.9V361l.9,-.9h.8l.9,.9v3.5l-.9,.9h-.8Zm3.5,0v-.9m1.8,-3.5l.8,-.9h1.8l.9,.9v.9l-.9,.9H728l-.8,.9v1.7h3.5m2.6,0l-.8,-.9V361l.8,-.9h.9l.9,.9v3.5l-.9,.9h-.9Z" class="g1_1"/>
<path d="M757.9,356v26.2m1,-29.3v29.3m-5.3,-2.7h-4.2m13.8,0h38.5m-43.8,0h1" class="gb_1"/>
<path fill-rule="evenodd" d="M753.6,378.8v1.4l4.3,-.7l-4.3,-.7Z" class="g2_1"/>
<path d="M753.6,378.8v1.4l4.3,-.7l-4.3,-.7Z" class="gb_1"/>
<path fill-rule="evenodd" d="M763.2,378.8v1.4l-4.3,-.7l4.3,-.7Z" class="g2_1"/>
<path d="M763.2,378.8v1.4l-4.3,-.7l4.3,-.7Z" class="gb_1"/>
<path d="M770.4,377.4l-.9,-.9V373l.9,-.9h.9l.9,.9v3.5l-.9,.9h-.9Zm3.5,0v-.9m1.8,-3.5l.9,-.9v5.3m-.9,0h1.8m1.7,-2.7h3.6m2.6,2.7l-.9,-.9V373l.9,-.9h.9l.9,.9v3.5l-.9,.9h-.9Zm3.6,0v-.9m1.7,-3.5l.9,-.9h1.8l.8,.9v.9l-.8,.8h-1.8l-.9,.9v1.8h3.5m1.8,-.9l.9,.9h1.8l.8,-.9v-1.8l-.8,-.8H796v-1.8h3.5" class="g1_1"/>
<path d="M758.9,303.9V291.6m-17.4,9.2v-9.2m13.2,2.6h-9m-4.2,0H703.9" class="gb_1"/>
<path fill-rule="evenodd" d="M754.7,293.5v1.4l4.2,-.7l-4.2,-.7Z" class="g2_1"/>
<path d="M754.7,293.5v1.4l4.2,-.7l-4.2,-.7Z" class="gb_1"/>
<path fill-rule="evenodd" d="M745.7,293.5v1.4l-4.2,-.7l4.2,-.7Z" class="g2_1"/>
<path d="M745.7,293.5v1.4l-4.2,-.7l4.2,-.7Z" class="gb_1"/>
<path d="M706,287.7l.9,-.9v5.3m-.9,0h1.7m1.8,0v-.9m2.7,.9l-.9,-.9v-.9l.9,-.9h1.7l.9,-.8v-.9l-.9,-.9h-1.7l-.9,.9v.9l.9,.8m1.7,0l.9,.9v.9l-.9,.9h-1.7m5.3,0l-.9,-.9v-3.5l.9,-.9h.8l.9,.9v3.5l-.9,.9h-.8Zm3.5,0v-5.3l1.7,3.5l1.8,-3.5v5.3m1.8,0v-1.8l1.7,-3.5l1.8,3.5v1.8m-3.5,-1.8h3.5m1.8,1.8l3.5,-5.3m-3.5,0l3.5,5.3" class="g1_1"/>
<path d="M762.5,335.1H774m-11.5,13.5H774m-2.7,-9.2v5" class="gb_1"/>
<path d="M765,333.3l-.8,-.9h5.3m0,.9v-1.8m0,-1.8h-.9M765,328l-.8,-.9v-1.8l.8,-.9h.9l.9,.9v1.8l.9,.9h1.8v-3.6m-5.3,-1.7v-3.6l5.3,2.7" class="g1_1"/>
<path fill-rule="evenodd" d="M770.6,339.4H772l-.7,-4.3l-.7,4.3Z" class="g2_1"/>
<path d="M770.6,339.4H772l-.7,-4.3l-.7,4.3Z" class="gb_1"/>
<path fill-rule="evenodd" d="M770.6,344.4H772l-.7,4.2l-.7,-4.2Z" class="g2_1"/>
<path d="M770.6,344.4H772l-.7,4.2l-.7,-4.2Z" class="gb_1"/>
<path d="M761.1,306h26.6m-26.6,4.4h26.6m-2.6,-8.6v-4.2m0,17v41.2m0,-49.8v4.4" class="gb_1"/>
<path fill-rule="evenodd" d="M784.4,301.8h1.4l-.7,4.2l-.7,-4.2Z" class="g2_1"/>
<path d="M784.4,301.8h1.4l-.7,4.2l-.7,-4.2Z" class="gb_1"/>
<path fill-rule="evenodd" d="M784.4,314.6h1.4l-.7,-4.2l-.7,4.2Z" class="g2_1"/>
<path d="M784.4,314.6h1.4l-.7,-4.2l-.7,4.2Z" class="gb_1"/>
<path d="M783,352.8l-.9,.9h-3.6l-.8,-.9v-.9l.8,-.9h3.6l.9,.9v.9Zm0,-3.5h-.9m-.9,-5.4v3.6l-3.5,-2.7H783m-4.5,-2.6l-.8,-.9H783m0,.9v-1.8m-.9,-1.7v-3.6m-.9,1.8h-3.5m1.7,1.8v-3.6m3.6,-2.6l-.9,.9h-3.6l-.8,-.9v-.9l.8,-.9h3.6l.9,.9v.9Zm0,-3.6h-.9m-3.6,-1.7l-.8,-.9H783m0,.9v-1.8m0,-2.6l-.9,.8h-3.6l-.8,-.8v-.9l.8,-.9h3.6l.9,.9v.9Z" class="g1_1"/>
<path d="M594.9,420.2V400.4m41.7,19.8V400.4m-37.5,2.7h33.2" class="gb_1"/>
<path fill-rule="evenodd" d="M599.1,402.4v1.4l-4.2,-.7l4.2,-.7Z" class="g2_1"/>
<path d="M599.1,402.4v1.4l-4.2,-.7l4.2,-.7Z" class="gb_1"/>
<path fill-rule="evenodd" d="M632.3,402.4v1.4l4.3,-.7l-4.3,-.7Z" class="g2_1"/>
<path d="M632.3,402.4v1.4l4.3,-.7l-4.3,-.7Z" class="gb_1"/>
<path d="M597.2,396.6l.9,-.9h1.7l.9,.9v.8l-.9,.9H599m.8,0l.9,.9v.9l-.9,.9h-1.7l-.9,-.9m5.3,.9v-.9m2.6,.9h.9l1.8,-1.8v-2.6l-.9,-.9h-1.8l-.9,.9v.8l.9,.9h2.7m1.7,1.8l.9,.9h1.8l.9,-.9v-1.8l-.9,-.9h-2.7v-1.7h3.6m1.7,4.4h3.6m-1.8,-.9v-3.5m-1.8,1.7h3.6M621,401l-.9,-.9v-3.5l.9,-.9h.9l.9,.9v3.5l-.9,.9H621Zm3.5,0v-.9m1.8,-3.5l.9,-.9H629l.8,.9v.8l-.8,.9h-1.8l-.9,.9V401h3.5m2.7,0l-.9,-.9v-3.5l.9,-.9h.9l.9,.9v3.5l-.9,.9h-.9ZM586.8,429.7l3.8,5.2" class="g1_1"/>
<path d="M583.9,434.5v21.9M588.4,434v22.4m-8.7,-2.6h-4.2m17.1,0h43.8m-52.5,0h4.5" class="gb_1"/>
<path fill-rule="evenodd" d="M579.7,453.1v1.4l4.2,-.7l-4.2,-.7Z" class="g2_1"/>
<path d="M579.7,453.1v1.4l4.2,-.7l-4.2,-.7Z" class="gb_1"/>
<path fill-rule="evenodd" d="M592.6,453.1v1.4l-4.2,-.7l4.2,-.7Z" class="g2_1"/>
<path d="M592.6,453.1v1.4l-4.2,-.7l4.2,-.7Z" class="gb_1"/>
<path d="M599.9,451.7l-.9,-.9v-3.6l.9,-.8h.9l.8,.8v3.6l-.8,.9h-.9Zm3.5,0v-.9m1.8,0l.9,.9h1.7l.9,-.9V449l-.9,-.9h-2.6v-1.7h3.5m2.7,5.3l-.9,-.9v-3.6l.9,-.8h.8l.9,.8v3.6l-.9,.9h-.8Zm3.5,-.9h3.5m-1.8,-.9v-3.5m-1.7,1.7h3.5m2.7,3.6l-.9,-.9v-3.6l.9,-.8h.8l.9,.8v3.6l-.9,.9h-.8Zm3.5,0v-.9m1.8,-3.6l.8,-.8H629l.9,.8v.9l-.9,.9h-1.8l-.8,.9v1.8h3.5m2.6,0l-.8,-.9v-3.6l.8,-.8h.9l.9,.8v3.6l-.9,.9h-.9ZM583.9,432.4h.1M647.5,431.6h16.4m-16.4,0l16.4,2.3" class="g1_1"/>
<path d="M666,434.2l19.6,2.7M666,431.6h20m-5.2,13.2l2.2,-8.2m-2.2,8.2l-7.7,19.5m7.7,-19.5l1.3,-4.1m1,-13.3l-.8,-4.2m.7,13.4l.3,-5" class="gb_1"/>
<path fill-rule="evenodd" d="M681.4,440.6l1.4,.3l.2,-4.3l-1.6,4Z" class="g2_1"/>
<path d="M681.4,440.6l1.4,.3l.2,-4.3l-1.6,4Z" class="gb_1"/>
<path fill-rule="evenodd" d="M683.8,427.3l-1.4,.1l.9,4.2l.5,-4.3Z" class="g2_1"/>
<path d="M683.8,427.3l-1.4,.1l.9,4.2l.5,-4.3Z" class="gb_1"/>
<path d="M672.2,460.7l-1.1,.5l-3.3,-1.3l-.5,-1.1l.3,-.8l1.1,-.5l3.3,1.3l.5,1.1l-.3,.8ZM671,456.5l1.3,-3.3m3.5,-1.5l-1.2,.5l-.8,-.3l-.5,-1.2l.7,-1.6l-.5,-1.1l-.9,-.4l-1.1,.5l-.7,1.7l.5,1.1l.9,.3l1.1,-.5m.7,-1.6l1.1,-.5l.8,.3l.5,1.2l-.6,1.6M673.3,446l-.5,-1.2l1.1,-.5l.5,1.2l-1.1,.5Z" class="g1_1"/>
<path d="M581.8,432.4h-5m5,-1.6h-5m2.7,5.8v4.3m0,-14.3V393.4m0,39v-1.6" class="gb_1"/>
<path fill-rule="evenodd" d="M578.8,436.6h1.4l-.7,-4.2l-.7,4.2Z" class="g2_1"/>
<path d="M578.8,436.6h1.4l-.7,-4.2l-.7,4.2Z" class="gb_1"/>
<path fill-rule="evenodd" d="M578.8,426.6h1.4l-.7,4.2l-.7,-4.2Z" class="g2_1"/>
<path d="M578.8,426.6h1.4l-.7,4.2l-.7,-4.2Z" class="gb_1"/>
<path d="M576.9,419.3l-.8,.9h-3.6l-.9,-.9v-.9l.9,-.8h3.6l.8,.8v.9Zm0,-3.5h-.8M572.5,414l-.9,-.9h5.3m0,.9v-1.7m-.8,-1.8l.8,-.9v-1.8l-.8,-.8h-1.8l-.9,.8v2.7h-1.8V407m1.8,-2.7h-1.8m.9,-.9v1.8m1.3,-3.1l-.4,.4h-1.8l-.4,-.4v-.4l.4,-.5h1.8l.4,.5v.4Zm0,-1.8h-.4m-1.8,-.8l-.4,-.5h2.6m0,.5v-.9m2.3,6.6v-1.8m1.3,-1.3l-.5,.4h-1.7l-.5,-.4v-.4l.5,-.5h1.7l.5,.5v.4Zm0,-1.8h-.5m.5,-1.3l-.5,.5h-1.7l-.5,-.5v-.4l.5,-.5h1.7l.5,.5v.4Zm-.5,-1.8l.5,-.4v-.9l-.5,-.4h-.8l-.5,.4v1.3h-.9v-1.7m9.2,36.9h.1m-.1,-1.6h.1M594.9,302.3h41.8v52.3H594.9V302.3Zm41.8,3.8h10.8v4.3H636.7m0,9.1h10.8v4.3H636.7m0,9.1h10.8l-.1,4.4H636.7m0,9.2h10.8v4.3H636.7M595.5,303H636v50.9H595.5V303Zm-.8,3.1H584v4.3h10.7m.2,-8l.6,.6m41.2,-.7l-.7,.7m-41.1,51.5l.5,-.6m40.6,0l.7,.7M594.9,319.5H584v4.3h10.9m0,9.1H584v4.4h10.7m.2,9.1H584v4.4h10.9m8.2,-35.9c0,1.4,1.1,2.6,2.5,2.6c1.4,0,2.6,-1.2,2.6,-2.6c0,-1.4,-1.2,-2.5,-2.6,-2.5c-1.4,0,-2.5,1.1,-2.5,2.5M757.8,306v-3.1l-8.1,-.7l-8.3,.7v51m16.4,-43.5v9.1m0,4.4V333m0,4.3v9.1m0,4.4v3.1l-8.2,.7l-8.2,-.7m16,-47.9l-.1,4.4m0,9.1v4.4m0,9.1v4.3m.1,9.1v4.4M748.9,306H759v4.4H748.9m0,9.1H759l.1,4.3l-10.2,.1m0,9.1H759v4.3H748.9m0,9.1H759v4.4H748.9M750.4,306v-4.8h-1.5v54.4h1.5v-4.7m0,-40.5v9.1m.1,4.4l-.1,9.1m.1,4.3v9.1M643.1,306.1v4.2m0,9.2v4.2m0,9.3l-.1,4.3m.1,9.2V351M588.3,306.1v4.3m0,9.2v4.1m.1,9.4v4.2m0,9.1l-.1,4.3m7.2,64.3h40.4l.7,8l-.7,8.3H595.4m.1,-.1l-.7,-8.1l.8,-8.2m-4.7,7.4h49.7m-49.7,1.6l49.7,.1m-52.3,.7l-.5,5.1m2.1,-4.9l-.5,5.1m-2.6,.8H584v1.6h2.8m54.7,-7.5l.5,5.1m1.1,-5.3l.5,5.1m1,1h2.9v1.6h-2.8m-.1,0c-1.3,0,-2.5,-1,-2.6,-2.4m2.6,.8c-.5,0,-.9,-.4,-1,-.9m-3.1,-7.6c1.4,0,2.5,1.1,2.6,2.4m-2.6,-.8c.5,0,1,.4,1,1m-50.6,-2.6c-1.3,0,-2.5,1.1,-2.6,2.4m2.6,-.8c-.5,0,-1,.4,-1,1m-3.1,7.5c1.4,0,2.5,-1.1,2.6,-2.4m-2.6,.8c.6,0,1,-.4,1,-1" class="g1_1"/>
<path fill-rule="evenodd" d="M549.6,300.1h8.2v7.8h-8.2v-7.8Z" class="g0_1"/>
<path d="M88.5,287.5H381.3v-2.1H88.5v2.1Z" class="g4_1"/>
</svg>